<?xml version="1.0" encoding="UTF-8"?>
<svg xmlns="http://www.w3.org/2000/svg" viewBox="0 0 500 500">
  <defs>
    <style>
      .cls-1 {
        fill: #869eb4;
      }

      .cls-1, .cls-2 {
        fill-rule: evenodd;
      }

      .cls-1, .cls-2, .cls-3, .cls-4, .cls-5, .cls-6, .cls-7, .cls-8, .cls-9, .cls-10, .cls-11, .cls-12, .cls-13, .cls-14, .cls-15, .cls-16, .cls-17 {
        stroke-width: 0px;
      }

      .cls-2, .cls-15 {
        fill: #fff;
      }

      .cls-3 {
        fill: #282c33;
      }

      .cls-4 {
        fill: #4fbafc;
      }

      .cls-5 {
        fill: #29627f;
      }

      .cls-6 {
        fill: #3081a0;
      }

      .cls-7 {
        fill: #2e7b99;
      }

      .cls-8 {
        fill: #3c9ece;
      }

      .cls-9 {
        fill: #4099c6;
      }

      .cls-10 {
        fill: #225a6b;
      }

      .cls-11 {
        fill: #c6c6c5;
      }

      .cls-12 {
        fill: #d9d9d9;
      }

      .cls-13 {
        fill: #b1b1b1;
      }

      .cls-14 {
        fill: #ececec;
      }

      .cls-16 {
        fill: #f5f5f5;
      }

      .cls-17 {
        fill: #005087;
      }
    </style>
  </defs>
  <g id="stiker_style" data-name="stiker style">
    <path class="cls-15" d="M399.74,256.78c-.69-2.42-1.56-5.18-2.6-8.22s-2.25-6.34-3.61-9.85c3.48-9.91-1.73-22.1-11.3-26.43-3.23-6.88-6.75-13.91-10.25-19.92-1.73-2.95-3.9-6.66-6.64-9.19-4.47-4.72-12.68-3.63-14.58,3.21-1.8,5.48-4.58,10.58-7.73,15.4-5.19,7.83-11.42,14.47-18.61,19.95-3.85,2.91-7.96,5.47-12.29,7.62-.16-1.73-.33-3.38-.52-4.93-.19-1.56-.39-3.03-.61-4.41-.14-.95-.28-1.9-.42-2.85-.14-.95-.27-1.91-.41-2.86-2.02-14.33-4.3-30.42-15.52-42.35s-31.39-19.7-69.21-17.42c-18.76,1.13-33.62,3.52-45.25,7.39-11.64,3.87-20.04,9.21-25.89,16.26-5.24,6.32-8.07,13.58-9.4,21.49-1.33,7.92-1.15,16.49-.37,25.43-3.1-3.77-5.2-6.94-6.56-9.23-1.36-2.29-1.96-3.69-2.05-3.91-1.43-3.79-4.27-6.67-7.71-8.26s-7.47-1.88-11.29-.51c-1.88.67-3.56,1.69-4.99,2.99-1.43,1.3-2.61,2.88-3.46,4.69-.85,1.8-1.32,3.72-1.42,5.65s.2,3.88.87,5.76c.3.83,1.32,3.46,3.56,7.42,2.24,3.96,5.7,9.26,10.88,15.41,1.42,1.69,3.17,3.02,5.12,3.93s4.09,1.39,6.3,1.39c1.75,0,3.48-.31,5.11-.9,1.63-.59,3.15-1.47,4.49-2.6.65-.54,1.23-1.13,1.77-1.77s1.01-1.3,1.43-2.01c2,15.79,4.58,29.74,7.23,41.27,2.65,11.53,5.39,20.64,7.69,26.75.87,2.28,1.81,4.61,2.94,6.93s2.43,4.64,4.01,6.88c-.22,3.3-.3,6.33-.28,9.08s.14,5.22.31,7.39c-6.52,1.22-11.74,2.73-15.32,4.93-3.58,2.2-5.53,5.07-5.53,8.99,0,4.71,2.84,7.92,7.98,10.26,5.14,2.34,12.57,3.81,21.74,5.04,7.52,1.01,16.25,1.79,25.74,2.32,9.49.53,19.74.81,30.29.81s20.8-.28,30.29-.81c9.49-.53,18.22-1.31,25.74-2.32,9.17-1.23,16.6-2.7,21.74-5.04,5.14-2.34,7.98-5.55,7.98-10.26,0-4.11-2.09-7.08-6.03-9.33s-9.72-3.78-17.12-5.01c.47-2.77.77-5.08.9-7.36.13-2.28.08-4.52-.14-7.17,3.91-3.2,6.54-6.47,8.41-9.46,1.87-2.99,2.99-5.72,3.85-7.84.45-1.1.85-2.55,1.21-4.24s.68-3.62.95-5.7c.29.33.6.65.93.96,3.54,3.37,8.83,4.59,13.5,3.19,3.84,3.89,6.34,6.33,10.61,7.35,5.81,1.27,13.95-.53,19.71-6.62,1.23-1.25,3.72-3.78,4.95-5.03l-.23-.29.07-.07c-4.04-5.14-7.31-9.3-11.81-15.25,1.91-4.53,1.29-9.9-1.72-13.85,13.53-1.93,27.71-.64,40.44,4.44,2.82,2.05,6.3,2.07,8.65,1.03,3.87-1.68,5.14-4.87,5.24-8.34s-.95-7.22-1.75-10.03ZM322.86,263.99h0s0,0,0,0h0s0,0,0,0ZM308.27,265.05h0,0ZM305.24,258.08h0s0,0,0,0h0Z"/>
  </g>
  <g id="Bubus">
    <path class="cls-1" d="M233.36,344.94c42.91,0,77.74,4.68,77.74,10.45s-34.83,10.44-77.74,10.44-77.75-4.68-77.75-10.44,34.84-10.45,77.75-10.45Z"/>
    <path class="cls-3" d="M225.91,162.52c-78.89,4.77-77.43,31.81-71.5,78.97,4.08,32.59,10.46,56.01,14.55,66.85,6.07,15.94,14.95,32,68.6,27.76,53.64-4.25,60.55-21.42,64.02-29.91,3.47-8.5,5.42-60.1,1.5-84.97-4.59-30.06-4.22-63.11-77.17-58.7Z"/>
    <path class="cls-3" d="M186.03,357.16c-3.61,0-6.93-2.38-7.98-6.02-.39-1.37-3.75-14-.53-35.81.67-4.52,4.87-7.64,9.4-6.98,4.52.67,7.65,4.88,6.98,9.4-2.7,18.29.06,28.77.08,28.87,1.26,4.39-1.28,8.95-5.68,10.21-.76.22-1.52.32-2.28.32Z"/>
    <path class="cls-15" d="M284.89,189.13c6.43,4.49,8.81,14.82,9.47,25.71.57,9.24-.54,17.05-13.22,16.27-12.68-.78-78.68,3.75-102.15,7.81-14.06,2.4-15.86-27.03-8.66-38.3,8.53-13.33,44.48-16.56,68.38-17.95,22.07-1.26,37.94.78,46.18,6.46Z"/>
    <path class="cls-15" d="M202.84,178.19c-1.79,0-3.38-1.27-3.72-3.09-.38-2.05.98-4.03,3.03-4.41,17.59-3.27,35.58-4.21,53.47-2.8,2.08.16,3.64,1.99,3.48,4.07-.16,2.08-1.98,3.65-4.07,3.48-17.22-1.35-34.55-.45-51.49,2.7-.23.04-.47.06-.69.06Z"/>
    <path class="cls-3" d="M278.62,353.54c-.53,0-1.06-.05-1.6-.16-4.49-.88-7.41-5.23-6.53-9.71q2.38-12.15.35-25.93l-.03-.17c-.67-4.52,2.46-8.73,6.98-9.4,4.53-.67,8.73,2.46,9.4,6.98l.03.17c2.37,16.13,2.36,17.01-.48,31.52-.77,3.95-4.24,6.69-8.11,6.69Z"/>
    <path class="cls-3" d="M186.03,357.16c-3.61,0-6.93-2.38-7.98-6.02-.39-1.37-3.75-14-.53-35.81.67-4.52,4.87-7.64,9.4-6.98,4.52.67,7.65,4.88,6.98,9.4-2.7,18.29.06,28.77.08,28.87,1.26,4.39-1.28,8.95-5.68,10.21-.76.22-1.52.32-2.28.32Z"/>
    <path class="cls-3" d="M321.61,296c-1.26,0-2.54-.4-3.61-1.23-2.6-1.99-3.12-5.7-1.15-8.31.48-.64,5.03-6.45,15.97-13.4,2.78-1.77,6.47-.94,8.24,1.84,1.77,2.78.94,6.47-1.84,8.24-9.1,5.78-12.83,10.5-12.87,10.55-1.18,1.51-2.95,2.31-4.74,2.31Z"/>
    <path class="cls-3" d="M133.76,242.44c-1.97,0-3.93-.84-5.3-2.47-9.68-11.51-12.72-19.52-13.03-20.39-1.29-3.6.58-7.56,4.17-8.85,3.58-1.29,7.52.56,8.83,4.13.08.21,2.63,6.71,10.62,16.21,2.46,2.92,2.08,7.29-.84,9.75-1.3,1.09-2.88,1.62-4.45,1.62Z"/>
    <path class="cls-2" d="M237.25,290.24c-.98-11.3,4.39-20.45,12-20.43,7.6.02,14.58,9.21,15.56,20.5.98,11.3-4.39,20.45-11.99,20.43-7.61-.01-14.58-9.21-15.57-20.5Z"/>
    <g>
      <path class="cls-4" d="M333.58,274.62h3.62c.73,0,1.32.59,1.32,1.32v8.39c0,.73-.59,1.33-1.33,1.33h-3.62c-.73,0-1.32-.59-1.32-1.32v-8.39c0-.73.59-1.33,1.33-1.33Z" transform="translate(-100.08 243.61) rotate(-35.08)"/>
      <path class="cls-8" d="M336.06,277.7l-.28-.64c.35-.11.69-.21,1.04-.32l3.54,5.05c.42.6.28,1.42-.32,1.84l-.8.56h0l-2.16,1.52c-.6.42-1.42.28-1.85-.32l-.37-.53c1.72-1.88,2.29-4.66,1.21-7.15Z"/>
      <path class="cls-12" d="M311.17,271.73s20.41,29.98,26.67,31.22c0,0,6.38,1.66,12.35-4.4,0,0-21.08-26.85-23.61-33.34l-15.41,6.52Z"/>
      <path class="cls-16" d="M346.61,300.82c-3.12-4-20.23-26.04-24.53-34.2l4.32-1.83c2.53,6.49,23.61,33.34,23.61,33.34-1.13,1.15-2.28,2.02-3.4,2.68Z"/>
      <path class="cls-7" d="M330.36,260.73l2.11,4.85c1.31,3.02-.07,6.54-3.09,7.85l-11.62,5.05c-3.02,1.31-6.54-.07-7.85-3.09l-2.11-4.84,22.57-9.81Z"/>
      <path class="cls-10" d="M314.85,274.72l13.74-5.97c1.71-.74,2.97-2.08,3.65-3.66l.21.49c1.31,3.02-.07,6.54-3.09,7.85l-11.62,5.05c-3.02,1.31-6.54-.07-7.85-3.09l-.21-.49c1.62.58,3.46.57,5.17-.17Z"/>
      <path class="cls-7" d="M299.07,243.89l12.81,29.48c-8.05,3.06-17.13-.67-20.57-8.59-3.44-7.92.03-17.1,7.76-20.9Z"/>
      <rect class="cls-8" x="304.9" y="239.78" width="13.8" height="32.17" transform="translate(-76.14 145.47) rotate(-23.49)"/>
      <path class="cls-12" d="M358.52,188.33c.21,5.23,5.92,21.88,14.25,41.05,8.32,19.16,16.59,34.68,20.28,38.42-9.43-4.7-38.16-13.11-68.5.07l-12.83-29.52c30.34-13.18,43.8-39.94,46.79-50.03Z"/>
      <path class="cls-5" d="M371.79,229.81c9.54,21.95,19.06,38.96,21.26,38,2.21-.96-3.73-19.53-13.27-41.47-9.54-21.95-19.06-38.96-21.27-38-.48.21,3.73,19.53,13.27,41.47Z"/>
      <path class="cls-9" d="M290.44,262.12s0-.02,0-.02c-.09-.38-.16-.77-.22-1.15-.01-.09-.03-.18-.04-.26-.05-.37-.09-.73-.12-1.1,0-.11-.02-.21-.02-.32-.02-.36-.03-.71-.02-1.07,0-.11,0-.23.01-.34.01-.35.03-.7.07-1.05.01-.11.03-.22.04-.33.04-.35.09-.7.16-1.05.02-.09.04-.17.06-.26.24-1.14.6-2.24,1.07-3.3.05-.1.09-.21.13-.31.12-.24.25-.48.37-.72.1-.19.2-.37.3-.55.12-.21.26-.41.39-.62.13-.2.26-.4.4-.6.13-.19.27-.37.42-.55.16-.2.32-.4.49-.6.14-.17.29-.33.44-.49.19-.2.38-.39.57-.58.15-.14.3-.29.46-.43.22-.19.45-.38.68-.57.15-.12.3-.25.46-.37.27-.2.55-.38.83-.57.13-.09.27-.18.41-.27.43-.26.87-.51,1.33-.74l3.48,8.01-3.71,1.61v.02c-3.83,1.89-6.72,4.96-8.41,8.58Z"/>
      <path class="cls-4" d="M315.2,246.37c-.74.35-1.49.69-2.25,1.02l-10.4,4.52-3.49-8.04,12.66-5.5h0s3.48,8,3.48,8Z"/>
      <path class="cls-16" d="M311.73,238.36c20.95-8.81,39.88-28.86,46.79-50.03h0c.09,2.22,1.17,6.51,3.03,12.18-.2.43-.42.86-.64,1.3-6.76,13.46-20.99,33.04-45.71,44.56l-3.48-8Z"/>
      <path class="cls-17" d="M385.02,225.49s-.01,0-.02,0c-.03-.06-.05-.12-.08-.17.03.06.07.12.1.18Z"/>
      <path class="cls-13" d="M368.32,219.14c6.71-2.5,14.27.65,17.16,7.29,2.89,6.64.03,14.32-6.38,17.52l-10.78-24.81Z"/>
      <path class="cls-10" d="M310.11,273.92c-.36.09-.71.17-1.07.24-.14.03-.27.05-.41.07-.37.06-.74.1-1.11.13-.11.01-.22.02-.32.03-.95.07-1.9.04-2.84-.06-.13-.01-.25-.03-.38-.05-.33-.05-.67-.1-1-.16-.15-.03-.3-.06-.45-.09-.32-.07-.63-.16-.94-.25-.14-.04-.28-.08-.41-.12-.42-.13-.85-.28-1.26-.45-.11-.05-.22-.1-.34-.15-.3-.13-.6-.27-.89-.42-.17-.09-.35-.19-.52-.28-.23-.12-.45-.26-.67-.39-.18-.11-.36-.23-.53-.35-.21-.14-.41-.29-.61-.44-.17-.12-.34-.25-.5-.38-.31-.25-.61-.52-.9-.79-.16-.15-.31-.31-.46-.47-.14-.15-.29-.3-.43-.46,2.63.09,5.33-.33,7.93-1.32l6.25-2.72,3.61,8.32c-.47.18-.94.33-1.41.46-.12.04-.24.06-.36.09Z"/>
      <path class="cls-6" d="M317.83,260.9v.02c1.05-.45,2.09-.88,3.13-1.29l3.58,8.25h-.01s-12.65,5.5-12.65,5.5l-3.61-8.32,9.56-4.15Z"/>
      <path class="cls-11" d="M384.81,254.67c3.5,6.58,6.43,11.29,8.24,13.13h0c-4.87-2.42-14.88-5.83-27.59-6.75-.07,0-.13-.01-.2-.01-.55-.04-1.1-.07-1.65-.1-.08,0-.16,0-.24-.01-1.62-.08-3.29-.12-4.98-.11-.22,0-.44,0-.65,0-.47,0-.93.02-1.4.03-.27,0-.55.02-.82.03-.45.02-.91.03-1.37.06-.3.02-.61.04-.92.06-.75.05-1.49.11-2.25.17-.38.03-.76.07-1.14.11-.4.04-.8.09-1.19.13-.4.05-.8.1-1.2.15-.39.05-.77.1-1.16.16-.47.07-.95.15-1.43.22-.34.06-.69.11-1.03.17-.73.13-1.46.27-2.19.41-.33.06-.66.14-.99.21-.5.11-1,.22-1.51.34-.34.08-.68.16-1.03.25-.54.13-1.08.27-1.62.42-.29.08-.58.15-.88.23-.81.22-1.62.46-2.43.72-.23.07-.45.15-.68.22-.62.2-1.25.41-1.87.62-.3.1-.6.21-.9.32-.59.21-1.17.43-1.76.66-.28.11-.56.21-.83.32-.84.33-1.68.68-2.52,1.04-.01,0-.02,0-.03.01l-3.59-8.26c24.35-9.67,47.6-8.5,63.84-4.95Z"/>
      <path class="cls-8" d="M358.52,188.33c.21,5.23,5.92,21.88,14.25,41.05,8.32,19.16,16.59,34.68,20.28,38.42-2.15-1.07-5.31-2.33-9.25-3.49-7.09-9.72-13.09-20.14-17.91-31.09-5.03-11.43-8.77-23.42-11.14-35.76,1.84-3.67,3.08-6.84,3.76-9.14Z"/>
      <path class="cls-4" d="M354.76,197.48c1.84-3.67,3.08-6.84,3.76-9.14h0c.09,2.22,1.17,6.51,3.03,12.18-.2.43-.42.86-.64,1.3-1.04,2.07-2.26,4.29-3.66,6.59-.94-3.61-1.79-7.25-2.49-10.93Z"/>
      <path class="cls-6" d="M393.05,267.8c-2.15-1.07-5.31-2.33-9.25-3.49-2.64-3.62-5.14-7.34-7.47-11.16,2.99.42,5.83.93,8.48,1.51,3.5,6.58,6.43,11.29,8.24,13.13h0Z"/>
      <path class="cls-14" d="M377.5,229.33c1.39,3.2,4,5.15,5.82,4.36,1.82-.79,2.18-4.03.78-7.23-1.39-3.2-4-5.15-5.82-4.36-1.82.79-2.17,4.03-.78,7.23Z"/>
    </g>
    <path class="cls-15" d="M183.86,261.7c-.31,0-.63-.07-.92-.23-.98-.51-1.36-1.72-.85-2.7.12-.24,3.11-5.86,9.38-7.46,4.45-1.14,9.31.03,14.44,3.47.92.62,1.16,1.86.55,2.78-.62.92-1.86,1.16-2.78.55-4.14-2.78-7.92-3.76-11.22-2.92-4.56,1.16-6.8,5.39-6.82,5.43-.36.69-1.05,1.08-1.78,1.08Z"/>
    <path class="cls-15" d="M269.63,252.6c-.3,0-.6-.07-.89-.21-.99-.49-1.39-1.69-.9-2.68.11-.23,2.86-5.62,8.74-7.32,4.02-1.16,8.42-.31,13.07,2.52.94.57,1.24,1.8.67,2.75-.57.94-1.8,1.24-2.75.67-3.65-2.22-6.97-2.93-9.88-2.09-4.14,1.19-6.25,5.22-6.27,5.26-.35.7-1.06,1.11-1.79,1.11Z"/>
  </g>
</svg>