<?xml version="1.0" encoding="UTF-8"?>
<svg xmlns="http://www.w3.org/2000/svg" viewBox="0 0 500 500">
  <defs>
    <style>
      .cls-1, .cls-2, .cls-3 {
        fill-rule: evenodd;
      }

      .cls-1, .cls-2, .cls-3, .cls-4, .cls-5 {
        stroke-width: 0px;
      }

      .cls-1, .cls-4 {
        fill: #272c32;
      }

      .cls-2 {
        fill: #869eb4;
      }

      .cls-3, .cls-5 {
        fill: #fff;
      }
    </style>
  </defs>
  <g id="stiker_style" data-name="stiker style">
    <path class="cls-5" d="M357.96,260.39h0c-.71-7.2-7.11-12.48-14.31-11.78-.37.03-.72.09-1.08.16.49-14.39-.1-28.54-1.71-40.26-2.08-15.22-5.75-26.06-10.91-32.21l-.12-.14c-17.39-19.83-58.29-21.16-70.38-21.06-24.26.14-54.6,5.47-67.02,19.98-11.31,13.21-10.63,49.29-9.3,68.94-3.74-.44-7.45.53-10.49,2.79-3.17,2.35-5.23,5.79-5.8,9.68-1.93,13.05,1.58,24.57,1.99,25.83,1.96,6.13,7.6,10.25,14.04,10.25,1.51,0,3-.23,4.44-.69.9-.28,1.74-.65,2.54-1.08,3.27,13.86,7.65,25.77,13.24,31.92,1.44,1.59,3.05,3.08,4.8,4.48-.51,3.96-.65,7.92-.42,11.83-5.17,1.8-10.39,5-10.39,11.24,0,9.85,12.68,12.59,24.57,14.38,11.84,1.79,27.49,2.78,44.06,2.78s32.22-.99,44.06-2.78c11.89-1.8,24.57-4.54,24.57-14.38,0-6.18-5.17-9.41-10.4-11.24.38-3.83.42-8.3.13-13.49,4.99-6.01,9.11-15.46,12.27-28.17.36-1.46.71-2.96,1.04-4.48.11.04.21.1.33.14,1.47.55,3.02.83,4.58.83,5.45,0,10.4-3.43,12.3-8.54,4.46-11.96,3.48-23.63,3.35-24.92Z"/>
  </g>
  <g id="Bubus">
    <g>
      <path class="cls-2" d="M265.71,341.12c33.47,0,60.63,4.1,60.63,9.15s-27.16,9.16-60.63,9.16-60.63-4.11-60.63-9.16,27.17-9.15,60.63-9.15Z"/>
      <path class="cls-4" d="M307.13,349.75c-.73,0-1.47-.1-2.2-.3-4.36-1.21-6.9-5.73-5.69-10.09.26-.94,1.06-4.74.39-14.25-.26-3.69-.62-6.4-.62-6.42-.59-4.48,2.56-8.6,7.04-9.19,4.49-.6,8.6,2.56,9.19,7.04.02.13.43,3.24.72,7.42.61,8.68.29,15.34-.95,19.8-1.01,3.62-4.3,5.99-7.88,5.99Z"/>
      <path class="cls-4" d="M224.53,353.01c-3.79,0-7.19-2.64-8-6.49-4.09-19.32,3.96-34.7,4.31-35.35,2.13-3.99,7.09-5.49,11.08-3.36,3.97,2.12,5.48,7.06,3.38,11.04-.14.28-5.55,11.08-2.75,24.28.94,4.42-1.89,8.77-6.31,9.71-.57.12-1.14.18-1.71.18Z"/>
      <path class="cls-1" d="M323.82,181.43c-22.05-25.15-106.29-23.37-125.3-1.16-15.83,18.5-6.31,118.54,10.5,137.07,23.08,25.43,89.23,12.61,102.26,7.92,25.36-7.62,31.13-121.62,12.54-143.83Z"/>
      <path class="cls-3" d="M228.85,255.66c6.19,0,11.21,5.03,11.21,11.22s-5.02,11.21-11.21,11.21-11.22-5.02-11.22-11.21,5.03-11.22,11.22-11.22Z"/>
      <path class="cls-5" d="M279.16,311.11c-14.62,0-28.2-5.6-35.9-10.55-3.21-2.06-4.14-6.34-2.08-9.55,2.06-3.2,6.32-4.14,9.53-2.08h0c.08.05,8.14,5.13,18.85,7.38,13.42,2.82,24.76.06,33.71-8.21,2.8-2.59,7.17-2.42,9.76.39,2.59,2.8,2.42,7.17-.39,9.76-10.31,9.53-22.22,12.86-33.49,12.86Z"/>
      <circle class="cls-5" cx="319.78" cy="264.99" r="10.2"/>
      <path class="cls-3" d="M320.46,203.69c-16.8-9.81-82.65-12.96-100.95-.82-10.07,6.68-11.62,43.28.35,41.74,27.88-3.6,86.12-3.35,102.7-1.52,8.29.92,8.25-33.36-2.1-39.4Z"/>
      <path class="cls-5" d="M301.79,189.11c-.51,0-1.04-.06-1.56-.18-28.43-6.74-56.2-1.43-56.48-1.38-3.65.72-7.2-1.66-7.92-5.31-.72-3.65,1.65-7.2,5.3-7.92,1.24-.25,30.84-5.95,62.2,1.48,3.62.86,5.87,4.49,5.01,8.12-.73,3.1-3.5,5.19-6.56,5.19Z"/>
      <path class="cls-4" d="M342.3,285.86c-.59,0-1.2-.1-1.79-.32-2.65-.99-4-3.94-3.01-6.59,3.05-8.17,2.3-16.7,2.29-16.78-.26-2.81,1.8-5.31,4.61-5.58,2.81-.27,5.31,1.78,5.59,4.6.04.44,1.01,10.89-2.89,21.35-.77,2.06-2.72,3.34-4.8,3.34Z"/>
      <path class="cls-4" d="M182.88,284.57c-2.85,0-5.5-1.82-6.41-4.69-.14-.44-3.39-10.8-1.7-22.23.54-3.69,3.98-6.23,7.66-5.68,3.68.54,6.23,3.97,5.68,7.66-1.22,8.25,1.18,16.1,1.21,16.17,1.11,3.55-.86,7.33-4.41,8.45-.68.21-1.36.32-2.04.32Z"/>
    </g>
  </g>
</svg>