<?xml version="1.0" encoding="UTF-8"?>
<svg xmlns="http://www.w3.org/2000/svg" viewBox="0 0 500 500">
  <defs>
    <style>
      .cls-1 {
        fill: #272c32;
      }

      .cls-1, .cls-2, .cls-3 {
        fill-rule: evenodd;
      }

      .cls-1, .cls-2, .cls-3, .cls-4, .cls-5 {
        stroke-width: 0px;
      }

      .cls-2 {
        fill: #aeaeae;
      }

      .cls-3, .cls-5 {
        fill: #fff;
      }

      .cls-4 {
        fill: #c6c6c6;
      }
    </style>
  </defs>
  <g id="stiker_style" data-name="stiker style">
    <path class="cls-5" d="M344.06,221.16c0-10.06-8.19-18.25-18.25-18.25h-6.77c1.6-27.98-1.24-59.42-13.75-72.24-14.8-15.16-48.56-18.79-72.97-17.28-13.35.82-45.79,4.56-58.65,21.47-10.31,13.56-12.55,42.6-11.12,68.05h-4.93c-10.06,0-18.25,8.19-18.25,18.25v102.87c0,2.47.49,4.84,1.39,7.01-1.34,1.98-2.12,4.36-2.12,6.93,0,6.85,5.57,12.42,12.42,12.42h179.86c6.84,0,12.41-5.57,12.41-12.42,0-1.99-.47-3.87-1.3-5.54,1.31-2.54,2.03-5.4,2.03-8.4v-102.87Z"/>
  </g>
  <g id="Bubus">
    <path class="cls-1" d="M299.56,136.26c-21.28-21.8-101.92-19.71-119.53,3.44-17.61,23.15-10.83,119.92,13.87,135.47,18.18,11.43,80.12,12.09,95.84-.79,22.89-18.75,30.05-117.41,9.82-138.12Z"/>
    <path class="cls-5" d="M216.37,136.64c-2.05,0-3.84-1.51-4.12-3.6-.31-2.28,1.28-4.38,3.56-4.69,1.1-.15,27.12-3.63,51.88-.55,2.28.28,3.9,2.37,3.62,4.65-.28,2.28-2.36,3.91-4.65,3.62-23.65-2.94-49.46.5-49.72.53-.19.03-.38.04-.57.04Z"/>
    <path class="cls-3" d="M286.54,144.39c-22.58-5.78-66.49-5.23-91.87,1.65-11.22,3.04-15.99,45-7.67,43.02,27.56-6.57,83.67-6.04,108.93,0,7.89,1.89,3.62-41.34-9.39-44.67Z"/>
    <path class="cls-3" d="M282.14,195.16c6.03,0,10.93,4.43,10.93,9.89s-4.9,9.9-10.93,9.9-10.93-4.43-10.93-9.9,4.9-9.89,10.93-9.89Z"/>
    <ellipse class="cls-5" cx="198.01" cy="204.95" rx="10.93" ry="9.83"/>
    <path class="cls-3" d="M208.56,232.37c-.6-.3-.97-.93-.91-1.59.05-.67.51-1.23,1.15-1.42,14.44-.11,51.83.27,66.8-.27.7-.12,1.39.27,1.64.94.24.66,0,1.41-.62,1.78-22.58,13.77-43.47,12.46-68.06.56Z"/>
    <path class="cls-2" d="M335.33,337.97c0-2.44-1.97-4.42-4.41-4.42h-179.86c-2.44,0-4.42,1.98-4.42,4.42s1.98,4.42,4.42,4.42h179.86c2.44,0,4.41-1.98,4.41-4.42Z"/>
    <rect class="cls-4" x="147.37" y="210.91" width="188.69" height="123.37" rx="10.25" ry="10.25"/>
  </g>
</svg>