<?xml version="1.0" encoding="UTF-8"?>
<svg xmlns="http://www.w3.org/2000/svg" viewBox="0 0 500 500">
  <defs>
    <style>
      .cls-1, .cls-2 {
        fill-rule: evenodd;
      }

      .cls-1, .cls-2, .cls-3, .cls-4, .cls-5, .cls-6 {
        stroke-width: 0px;
      }

      .cls-1, .cls-6 {
        fill: #e65b0a;
      }

      .cls-2, .cls-5 {
        fill: #fff;
      }

      .cls-3 {
        fill: #282c33;
      }

      .cls-4 {
        fill: #869eb4;
      }
    </style>
  </defs>
  <g id="stiker_style" data-name="stiker style">
    <path class="cls-5" d="M410.35,182.49c0-29.45-28.67-53.4-63.92-53.4s-61.6,22.06-63.79,49.86c-9.32-2.7-20.62-4.15-34.18-4.41-4.84-.09-9.38-.06-13.67.09,0-1.32-.17-2.66-.55-3.99-.06-.22-1.34-5.26-.88-14.44.39-7.76-5.61-14.39-13.39-14.79-7.72-.38-14.38,5.63-14.77,13.37-.64,12.86,1.14,20.76,1.86,23.36-10.22,2.64-17.85,6.76-23.43,12.5-13.57,13.94-12.63,34.68-11.63,56.64,1.3,28.62,5.21,50.59,8.43,61.59,1.91,6.56,4.48,13.36,10.03,19.21-.23,4.88-.1,9.04.18,12.42-6.71,1.7-11.13,4.18-12.7,8.82-1.15,3.39-.28,7.05,2.31,9.77,5.23,5.52,16.02,6.99,41.05,6.99,7.45,0,16.17-.13,26.37-.32,19.78-.37,34.14-1.21,43.91-2.56,7.03-.97,20.12-2.77,20.14-12.8,0-4.35-2.31-7.66-6.89-9.91.89-5.15,1.16-8.57.76-13.44,3.38-3.68,5.15-7.23,6.3-9.55,2.19-4.39,4.38-16.27,5.97-30.01,1.5.49,3.11.72,4.76.63.33,0,4.67-.07,12,2,1.17.33,2.38.5,3.6.5,5.91,0,11.15-3.97,12.75-9.66.96-3.41.54-6.98-1.19-10.07-1.73-3.09-4.56-5.32-7.97-6.28-12.1-3.41-19.62-3.03-21-2.93-.28.02-.55.07-.82.11.42-8.72.48-16.83.02-22.96-.13-1.69-.23-3.39-.34-5.1-.06-.92-.12-1.85-.18-2.78,8.4,3.25,17.56,4.95,26.93,4.95,35.25,0,63.92-23.96,63.92-53.4Z"/>
  </g>
  <g id="Bubus">
    <path class="cls-4" d="M186.06,353.59c4.71,4.97,27.58,4.81,61.46,4.17,39.65-.75,56.19-3.42,56.2-7.36,0-6.57-29.94-6.49-56.49-6.42-39.89.09-66.18,4.33-61.17,9.61Z"/>
    <path class="cls-3" d="M248.31,182.54c-69.62-1.31-70.22,22.54-68.31,64.37,1.31,28.9,5.25,49.92,8.12,59.72,4.21,14.45,10.93,29.16,58.31,29.16s54.68-14.58,58.31-21.87c3.64-7.29,8.95-52.4,7.3-74.51-1.99-26.65.64-55.65-63.73-56.87Z"/>
    <path class="cls-3" d="M288.69,350.87c-.46,0-.93-.04-1.39-.14-3.95-.77-6.54-4.57-5.76-8.52q2.1-10.74.29-22.95l7.2-1.12,7.21-1.07-7.21,1.07,7.22-1.01c2.11,14.27,2.1,15.05-.39,27.81-.68,3.48-3.74,5.92-7.17,5.92Z"/>
    <path class="cls-3" d="M207.06,354.08c-3.17,0-6.1-2.1-7.02-5.3-.35-1.21-3.32-12.34-.48-31.56.59-3.98,4.29-6.74,8.28-6.15,3.98.59,6.73,4.3,6.15,8.28-2.38,16.11.05,25.35.08,25.44,1.12,3.87-1.12,7.88-4.99,9-.67.19-1.34.28-2.01.28Z"/>
    <path class="cls-5" d="M258.66,321.12c-8.51,0-17.44-3.9-25.46-11.3-13.42-12.38-17.46-26.92-15.54-35.2.82-3.53,4.36-5.73,7.88-4.91,3.53.82,5.73,4.35,4.91,7.88-1.09,4.7,3.33,14.89,11.65,22.57,3.34,3.08,12.03,9.94,20.66,7.19,3.45-1.1,7.15.81,8.25,4.26,1.1,3.46-.81,7.15-4.27,8.25-2.62.83-5.34,1.25-8.09,1.25Z"/>
    <path class="cls-2" d="M216.24,192.74c5.08,0,9.2,4.12,9.2,9.19s-4.12,9.2-9.2,9.2-9.19-4.12-9.19-9.2,4.12-9.19,9.19-9.19Z"/>
    <circle class="cls-5" cx="266.33" cy="279.75" r="10.51"/>
    <path class="cls-3" d="M338.23,282.61c-.47,0-.95-.06-1.43-.2-9.2-2.59-14.51-2.29-14.56-2.29-2.87.18-5.39-1.99-5.6-4.87-.21-2.88,1.93-5.38,4.81-5.61.7-.06,7.19-.45,18.2,2.65,2.79.79,4.42,3.69,3.63,6.48-.65,2.32-2.76,3.83-5.05,3.83Z"/>
    <path class="cls-3" d="M220.7,180.7c-2.58,0-4.97-1.65-5.79-4.24-.25-.78-2.38-8-1.71-21.27.17-3.36,3.01-5.95,6.39-5.78,3.36.17,5.95,3.03,5.78,6.39-.56,11.07,1.16,16.98,1.18,17.04.96,3.21-.85,6.61-4.05,7.59-.6.18-1.21.27-1.8.27Z"/>
    <path class="cls-5" d="M297.14,226.63c5.12,4.1,6.57,13.04,6.57,22.33,0,7.88-1.32,14.45-11.83,13.14-10.51-1.32-65.68-.88-85.38,1.31-11.83,1.31-11.83-26.27-5.26-35.47,7.78-10.88,43.23-10.23,57.8-9.19,18.39,1.31,31.53,2.62,38.1,7.88Z"/>
    <path class="cls-5" d="M286.13,208.2c-.11,0-.22,0-.33,0l-2.13-.13q-18.23-1.14-40.68-.52l-1.38.04c-2.85.09-5.24-2.17-5.32-5.03s2.17-5.24,5.03-5.32l1.38-.04q22.92-.64,41.61.53l2.13.13c2.85.18,5.02,2.63,4.84,5.49-.17,2.74-2.45,4.85-5.16,4.85Z"/>
    <path class="cls-1" d="M346.43,137.09c30.86,0,55.92,20.34,55.92,45.4s-25.06,45.4-55.92,45.4-55.93-20.34-55.93-45.4,25.06-45.4,55.93-45.4Z"/>
    <path class="cls-5" d="M383.5,159.6c-.38,0-.76-.15-1.05-.43-.37-.37-.75-.72-1.14-1.08-.61-.55-.66-1.49-.11-2.1.55-.61,1.49-.66,2.1-.11.43.39.85.77,1.26,1.18.58.58.58,1.52,0,2.1-.29.29-.67.43-1.05.43Z"/>
    <path class="cls-5" d="M378.45,155.33c-.3,0-.6-.09-.86-.28-2.91-2.08-6.08-3.84-9.41-5.24-.76-.32-1.11-1.19-.8-1.94.31-.76,1.18-1.11,1.94-.8,3.54,1.48,6.9,3.35,9.99,5.56.67.48.82,1.4.34,2.07-.29.4-.75.62-1.21.62Z"/>
    <path class="cls-6" d="M308.87,205.6l-6.06,17.56c-.06.23-.1.47-.1.71,0,1.45,1.19,2.63,2.63,2.63.45,0,.89-.11,1.28-.33l19.2-12.13-16.95-8.44Z"/>
    <path class="cls-2" d="M319.47,169.89c3.48,0,6.31,2.83,6.31,6.31s-2.83,6.3-6.31,6.3-6.31-2.82-6.31-6.3,2.83-6.31,6.31-6.31Z"/>
    <path class="cls-2" d="M333.05,198.58c.41-3.46,3.54-5.93,7-5.52,3.46.4,5.93,3.54,5.52,7-.4,3.45-3.54,5.93-7,5.52-3.45-.41-5.93-3.54-5.52-7Z"/>
    <path class="cls-2" d="M356.66,177.13c3.48,0,6.31,2.82,6.31,6.3s-2.83,6.31-6.31,6.31-6.31-2.83-6.31-6.31,2.83-6.3,6.31-6.3Z"/>
  </g>
</svg>