<?xml version="1.0" encoding="UTF-8"?>
<svg xmlns="http://www.w3.org/2000/svg" viewBox="0 0 500 500">
  <defs>
    <style>
      .cls-1, .cls-2, .cls-3 {
        fill-rule: evenodd;
      }

      .cls-1, .cls-2, .cls-3, .cls-4, .cls-5, .cls-6, .cls-7, .cls-8 {
        stroke-width: 0px;
      }

      .cls-1, .cls-4 {
        fill: #272c32;
      }

      .cls-2 {
        fill: #869eb4;
      }

      .cls-3, .cls-7 {
        fill: #fff;
      }

      .cls-5 {
        fill: #d3e9ed;
      }

      .cls-6 {
        fill: #c2ccce;
      }

      .cls-8 {
        fill: #ffe19f;
      }
    </style>
  </defs>
  <g id="stiker_style" data-name="stiker style">
    <path class="cls-7" d="M420.23,235.22v-.1c-.45-2.82-1.94-5.31-4.21-7.03-.29-.22-.54-.38-.74-.51-.08-.05-.15-.09-.23-.14l-8.5-58.32c-.09-.64-.24-1.26-.46-1.87-.48-1.32-1.23-2.48-2.17-3.43-.64-1.52-1.64-2.92-2.95-4.13-8.25-7.55-27.68-4.81-38.72-1.13-.82.27-1.31.34-1.55.35-.53-.55-1.39-2.06-1.93-2.99-1.9-3.31-6.58-11.47-16.18-9.8-.87-.51-1.82-.9-2.82-1.17-1.36-.95-3.01-1.5-4.8-1.5-1.89,0-3.61.62-5.02,1.67-.58-.11-1.17-.18-1.77-.18-5.41,0-9.81,4.59-9.81,10.23,0,3.39,1.6,6.39,4.04,8.26-1.03,4.04-.67,7.79,1.12,11.17,1.61,3.03,4.16,5.57,7.36,7.33,1.37.76,2.83,1.39,4.31,1.88-2.67,1.3-5.02,3.23-6.85,5.69-3.01,4.04-4.27,9.01-3.54,13.99l.96,6.6c-.44.51-.92.97-1.4,1.4-2.24-12.64-5.7-21.79-10.35-27.26l-.12-.14c-17.53-19.71-58.41-20.73-70.52-20.57-24.25.31-54.56,5.85-66.88,20.45-12.35,14.65-9.96,56.95-8.36,74.46.56,6.18,1.34,12.66,2.31,19.14-2.79-1.8-6.08-2.61-9.42-2.26-13.1,1.32-23.42,7.53-24.55,8.23-6.91,4.28-9.04,13.39-4.76,20.3,2.44,3.93,6.65,6.52,11.25,6.92.44.04.87.06,1.3.06,2.71,0,5.33-.74,7.67-2.17.36-.21,5.89-3.38,12.04-4,4.37-.44,8.09-2.76,10.48-6.07,3.39,14.33,7.96,26.69,13.74,32.97,1.09,1.19,2.28,2.33,3.56,3.41-.66,4.88-2.21,8.25-2.36,8.58-.2.39-.39.79-.55,1.19-7.14.76-13.03,1.65-17.56,2.65-4.78,1.06-14.73,3.27-14.73,11.78,0,9.21,10.55,12.04,31.32,14.3,15.87,1.72,36.9,2.67,59.23,2.67s43.34-.95,59.18-2.67c20.74-2.26,31.27-5.09,31.27-14.3,0-8.59-10.19-10.8-15.09-11.86-4.1-.89-9.27-1.69-15.44-2.38.43-2.96.75-6.25.97-9.9,0-.06,0-.11,0-.17,6.04-6.69,14.29-22.16,17.85-57.66,1.43-14.24,1.77-29.02,1.04-42.66,1.21.49,2.49.81,3.84.93,3.36.29,6.67-.7,9.35-2.83.57-.46,1.12-.93,1.67-1.41l8.35,2.77.42,2.87c-.09.1-.19.2-.28.31-2.01,2.36-2.91,5.48-2.47,8.56v.1c.45,2.8,1.94,5.3,4.21,7.02,1.89,1.43,4.16,2.19,6.52,2.19.52,0,1.04-.04,1.57-.11l51.01-7.43c5.88-.87,9.99-6.37,9.16-12.26Z"/>
  </g>
  <g id="Bubus">
    <g>
      <path class="cls-2" d="M247.08,350.12c-45.58,0-82.54,4.08-82.54,9.03s36.97,8.97,82.54,8.97,82.46-4.01,82.46-8.97-36.97-9.03-82.46-9.03Z"/>
      <g>
        <path class="cls-8" d="M396.68,169.15h0s-7.49,1.1-7.49,1.1l-7.75,1.14v.03l-16.92,2.48.76,5.2h-.04l-.76-5.18-13.87,2.03h-.01s-.77.12-.77.12c-.5-.02-1,.03-1.52.16-.27.06-.54.13-.81.18-1.93.41-3.97.63-5.95.55-2.27-.08-4.83-.93-6.8-2.02-1.72-.95-3.24-2.34-4.17-4.09-1.07-2.02-.89-4.16-.2-6.27.72-2.21,2.19-3.4,3.84-5.01,1.15-1.12,2.43-2.09,3.78-2.94.45-.33.45-.87.4-1.3-.02-.25-.1-.51-.19-.74-.12-.28-.31-.44-.62-.43-.32.01-.64.13-.94-.03-.34-.19-.47-.64-.44-.99.06-.61.7-.63,1.17-.53.58.11,1.18.35,1.61.76.48.46.92.96,1.49,1.32.14.09.22.16.46.18,0,0,.24.02.65-.14l.04-.02c12.22-4.99,8.07,16.48,23.15,11.45,15.38-5.13,33.64-4.31,31.9,2.99Z"/>
        <ellipse class="cls-8" cx="328.17" cy="155.18" rx="1.81" ry="2.23"/>
        <ellipse class="cls-8" cx="334.96" cy="152.53" rx=".6" ry="1.07"/>
      </g>
      <path class="cls-1" d="M307.92,189.42c-22.23-24.99-106.45-22.63-125.31-.28-15.69,18.61-5.48,118.58,11.47,136.99,23.25,25.27,89.31,11.98,102.31,7.22,25.3-7.8,30.28-121.84,11.53-143.92Z"/>
      <path class="cls-3" d="M304.71,211.7c-16.87-9.7-82.74-12.39-100.96-.11-10.01,6.75-11.3,43.35.64,41.72,27.86-3.79,86.11-3.94,102.69-2.23,8.3.86,8.02-33.42-2.37-39.38Z"/>
      <path class="cls-7" d="M225.95,196.2c-2.92-.25-5.43-2.4-6.03-5.42-.72-3.65,1.66-7.2,5.31-7.92,1.25-.25,30.97-5.94,62.36,1.26,3.63.83,5.9,4.45,5.07,8.08-.83,3.63-4.44,5.9-8.08,5.07-28.62-6.56-56.46-1.22-56.74-1.17-.64.13-1.27.16-1.89.1Z"/>
      <path class="cls-4" d="M288.25,359c-.84-.07-1.68-.28-2.49-.62-4.16-1.77-6.1-6.58-4.33-10.74.38-.89,1.66-4.54,2.22-14.08.22-3.66.22-6.44.22-6.47,0-4.52,3.66-8.19,8.18-8.19,4.54,0,8.19,3.66,8.19,8.18,0,.13,0,3.27-.25,7.45-.52,8.82-1.66,15.2-3.5,19.51-1.42,3.35-4.81,5.26-8.25,4.96Z"/>
      <path class="cls-4" d="M340.05,221.45c-1.4,1.69-3.06,3.37-4.99,4.92-1.07.85-2.38,1.21-3.65,1.1-1.35-.12-2.64-.76-3.55-1.9-1.77-2.21-1.42-5.43.79-7.2,2.41-1.93,4.21-4.15,5.53-6.19.72,3.79,2.84,7.07,5.87,9.27Z"/>
      <path class="cls-4" d="M347.17,208.47c-.07.23-.97,3.47-3.35,7.57-1.74-1.31-2.93-3.28-3.25-5.52l-1.12-7.7c1.18-.77,2.67-1.05,4.13-.65,2.73.75,4.34,3.57,3.59,6.3Z"/>
      <path class="cls-4" d="M143.66,302.78c-2.05-.18-3.99-1.29-5.15-3.17-1.96-3.17-.99-7.32,2.18-9.28.39-.24,9.65-5.91,21.14-7.07,3.7-.37,7.01,2.33,7.38,6.04.37,3.71-2.33,7.01-6.04,7.38-8.28.83-15.31,5.07-15.38,5.11-1.29.8-2.73,1.11-4.13.99Z"/>
      <path class="cls-4" d="M203.06,359.09c-1.06-.09-2.12-.4-3.13-.93-3.98-2.11-5.5-7.04-3.41-11.03.13-.26,5.52-11.08,2.7-24.28-.95-4.42,1.87-8.77,6.29-9.72,4.43-.94,8.77,1.87,9.72,6.3,4.13,19.31-3.88,34.7-4.22,35.35-1.59,2.99-4.77,4.6-7.95,4.32Z"/>
      <path class="cls-3" d="M198.48,272.74c-.14-2.1,1.81-9.44,8.83-11.25,6.41-1.66,12.79,4.47,13.05,6.83.19,1.82-4.65-1.28-12.47,0-6.31,1.03-9.18,7.9-9.41,4.42Z"/>
      <path class="cls-3" d="M310.86,272.64c.29-2.21-.82-10.11-6.74-12.46-5.41-2.15-11.41,3.93-11.82,6.43-.32,1.92,4.55-1.51,10.92.26,5.62,1.56,7.17,9.45,7.65,5.78Z"/>
      <path class="cls-3" d="M274.93,276.99c-6.39.6-10.97,7.51-10.23,15.42.74,7.92,6.53,13.86,12.91,13.26,6.39-.6,10.97-7.51,10.23-15.42-.74-7.92-6.53-13.86-12.91-13.26Z"/>
      <path class="cls-5" d="M409.9,239.56l-50.99,7.43c-.78.11-1.53-.1-2.11-.54-.58-.44-1-1.1-1.12-1.87-.12-.85.14-1.66.65-2.26.31-.36.71-.65,1.17-.82h.01c.18-.07.38-.12.58-.15l1.14-.17,14.77-2.15h.04s16.93-2.48,16.93-2.48h.05s16.92-2.47,16.92-2.47h.01l1.12-.16c.72-.1,1.41.07,1.97.44.05.03.1.06.15.1.58.43,1,1.09,1.12,1.87.22,1.56-.86,3-2.41,3.23Z"/>
      <path class="cls-5" d="M407.94,234.08l-16.92,2.46h-.05s-8.8-60.15-8.8-60.15l-.73-4.97v-.03l7.75-1.14,7.49-1.09.44-.06c.65-.1,1.25.29,1.46.89.03.08.05.16.06.24l5.49,37.71,1.19,8.17,2.62,17.97Z"/>
      <polygon class="cls-6" points="407.95 234.08 407.94 234.08 405.32 216.11 407.95 234.08"/>
      <polygon class="cls-5" points="390.97 236.55 374.04 239.02 365.28 179.1 364.52 173.9 381.44 171.42 382.17 176.39 390.97 236.55"/>
      <path class="cls-5" d="M357.29,227.91l-2.37-.78-10.69-3.54c-1.53-.5-2.93-1.23-4.18-2.14-3.03-2.2-5.15-5.48-5.87-9.27-.06-.23-.1-.47-.13-.71l-1.33-9.13c-.87-5.93,3.25-11.45,9.18-12.31l7.43-1.08,2.24-.33.59,4.07.36,2.45-2.23.33-1.17.17-6.27.91c-2.33.34-3.95,2.51-3.61,4.85l.21,1.42,1.12,7.7c.32,2.24,1.51,4.21,3.25,5.52.73.56,1.56,1,2.47,1.3l7.56,2.5,2.38.78,1.06,7.29Z"/>
      <path class="cls-5" d="M374.04,239.02h-.04s-14.77,2.16-14.77,2.16l-1.94-13.27-1.06-7.29-3.71-25.48-.36-2.45-.59-4.07-1.64-11.29c-.07-.48.12-.93.46-1.22-.18-.03-.37-.04-.56-.04l.77-.11h.01s13.87-2.04,13.87-2.04l.76,5.18h.04l8.76,59.92Z"/>
    </g>
  </g>
</svg>