<?xml version="1.0" encoding="UTF-8"?>
<svg xmlns="http://www.w3.org/2000/svg" viewBox="0 0 500 500">
  <defs>
    <style>
      .cls-1, .cls-2, .cls-3, .cls-4 {
        fill-rule: evenodd;
      }

      .cls-1, .cls-2, .cls-3, .cls-4, .cls-5, .cls-6 {
        stroke-width: 0px;
      }

      .cls-1, .cls-5 {
        fill: #272c32;
      }

      .cls-2 {
        fill: #869eb4;
      }

      .cls-3 {
        fill: #e65b08;
      }

      .cls-4, .cls-6 {
        fill: #fff;
      }
    </style>
  </defs>
  <g id="stiker_style" data-name="stiker style">
    <path class="cls-6" d="M366.49,242.37h0c-6.12-3.74-14.15-1.84-18.01,4.29h0s-1.16,1.81-3.12,4.01c-.08-1.31-.15-2.49-.22-3.48-1.11-15.66-3.39-30.45-6.6-42.77-3.74-14.37-8.51-24.4-14.19-29.82l-.11-.1c-.81-7.4-4.25-19.77-6.13-24.05-5.27-11.97-13.61-23.48-22.87-31.57-9.91-8.66-25.28-14.29-33.03-15.52-10.68-1.7-20,2.91-23.73,11.74-4.93,11.66,1.82,23.59,10.71,30.25,5.44,4.08,12.34,6.63,19.01,9.09,5.09,1.88,10.35,3.82,13.42,6.03.01.01.03.02.04.03-19.03-1.16-40.99,1.34-59.44,7.1-4.33-4.95-9.21-9.91-11.93-12.08-11.59-9.21-25.8-16.19-39-19.17-14.16-3.18-31.78-.1-39.76,3.11-10.57,4.23-16.59,13.73-15.33,24.19,1.22,10.13,9.77,21.39,26.14,23.72,7.4,1.05,15.32-.31,22.98-1.63,5.87-1.01,11.93-2.05,16.09-1.54,2.45.3,5.19.98,8.09,2-.71.84-1.36,1.69-1.94,2.55-9.65,14.24-5.54,50.43.05,77.56-1.09.24-2.16.6-3.2,1.09-11.59,5.47-19.15,14.45-20.31,15.89-3.02,3.6-4.04,8.3-2.8,12.92.74,2.78,2.28,5.28,4.32,7.2-1.15,6.36,1.2,12.64,6.46,16.17,4.41,2.96,9.36,3.94,13.93,3.98,3.74,6.25,13.23,6.61,21.28,4.09.48-.15.95-.31,1.41-.48,1.95,2.97,3.92,5.32,5.94,7.1.8.7,1.63,1.38,2.5,2.03-1.61,1.97-2.9,3.11-3.09,3.27-3.84,3.08-5.96,7.65-6.05,12.33-2.33,2.05-3.51,4.55-3.51,7.48,0,9.85,12.68,12.58,24.57,14.38,11.84,1.79,27.49,2.77,44.06,2.77s32.22-.98,44.06-2.77c11.89-1.79,24.57-4.53,24.57-14.38,0-4.58-2.74-7.62-6.86-9.75,6.25-8.78,6.58-16.67,5.68-21.87-.5-2.9-1.54-5.74-3.04-8.39,5.08-10.41,7.2-25.26,7.94-39.06.21.01.41.04.63.04,2.51,0,4.95-.71,7.07-2.07,10.78-6.9,17-16.82,17.67-17.93,3.75-6.17,1.79-14.25-4.37-18.01ZM304.93,343.57c-4.22-.38-8.7-.68-13.36-.9,4.63-.99,9.11-2.12,13.36-3.31-.18,1.41-.18,2.82,0,4.22Z"/>
  </g>
  <g id="Bubus">
    <path class="cls-5" d="M320.88,349.59c-1.79,0-3.59-.58-5.1-1.79-3.54-2.82-4.12-7.97-1.3-11.51,1.73-2.17,2.21-3.69,2.1-4.34-.12-.68-1.1-2-3.5-3.48-3.25-2.01-6.91-3-6.95-3.01-4.36-1.16-6.97-5.63-5.83-10,1.14-4.36,5.59-6.98,9.95-5.85.61.16,6.12,1.64,11.45,4.94,7.85,4.86,10.32,10.62,11.01,14.61,1,5.74-.83,11.58-5.43,17.35-1.62,2.03-4,3.08-6.41,3.08Z"/>
    <path class="cls-2" d="M273.15,350.25c33.46,0,60.63,4.1,60.63,9.16s-27.17,9.15-60.63,9.15-60.63-4.1-60.63-9.15,27.17-9.16,60.63-9.16Z"/>
    <path class="cls-3" d="M197.97,279.14c-3.72-3.07-10.55-5.29-14.46-.24-1.83,2.37-1.16,9.52,5.65,15.94-14.77-1.45-19.7,13.36-12.61,18.12,6.75,4.53,16.18,2.18,20.33.76-9.67,6.34-1.07,9.17,8.03,6.32,9.75-3.06,10.72-9.41,9.71-15.39-1.16-6.82-11.47-21.22-16.65-25.51Z"/>
    <path class="cls-1" d="M318.83,180.4c-24.73-22.52-108.24-11.34-124.65,12.86-13.66,20.15,6.99,118.5,25.77,135.03,25.78,22.7,90.07,2.55,102.5-3.56,24.35-10.41,17.33-124.34-3.62-144.33Z"/>
    <path class="cls-5" d="M175.55,299.33c-1.48,0-2.97-.48-4.21-1.48-2.9-2.33-3.37-6.55-1.05-9.45.29-.36,7.11-8.81,17.55-13.74,3.37-1.59,7.39-.15,8.98,3.22,1.59,3.37.15,7.39-3.22,8.98-7.54,3.56-12.73,9.91-12.78,9.98-1.33,1.65-3.29,2.51-5.26,2.51Z"/>
    <path class="cls-5" d="M224.22,360.41c-2.44,0-4.84-1.08-6.46-3.15-2.77-3.55-2.15-8.67,1.38-11.46.22-.18,9.56-7.87,12.36-21.08.94-4.42,5.27-7.25,9.71-6.31,4.42.94,7.25,5.28,6.31,9.71-4.09,19.32-17.68,30.12-18.26,30.57-1.5,1.17-3.27,1.73-5.03,1.73Z"/>
    <path class="cls-4" d="M282.75,288.83c-33.58,2.45-40.35-8.76-46.12-2.97-4.66,4.68-1.81,23.75,19.72,34.62,14.51,7.33,37.45,4.77,49.59-3.58,10.54-7.25,21.87-24.09,15.44-39.75-2.57-6.28-15.02,9.95-38.63,11.68Z"/>
    <path class="cls-6" d="M320.81,257.86c2.42.6,4.48,2.27,5.63,4.57.75,1.35,2.58.58,2.64-1.19.02-.26.04-.53.04-.8.09-4.81-2.17-9.15-5.59-10.74-5.56-2.53-11.74,2.09-13.22,9.35-.34,1.68,1.23,2.74,2.31,1.67,2.05-2.36,5.16-3.44,8.19-2.86Z"/>
    <path class="cls-6" d="M229.6,272.75c2.45-.93,5.15-.88,7.58.13.31.12.65.15.97.11,1.15-.15,1.97-1.25,1.81-2.44-.03-.23-.09-.45-.19-.66l-.02-.13c-2.46-5.82-8.71-8.95-14.07-7.07-5.91,2.08-8.79,9.17-6.36,15.67.08.21.16.42.26.64.32.98,1.28,1.6,2.27,1.47.76-.09,1.41-.61,1.68-1.35,1.06-2.92,3.26-5.24,6.07-6.37Z"/>
    <path class="cls-4" d="M317.98,202.89c-17.8-7.87-83.59-3.63-100.42,10.49-9.25,7.76-6.7,44.3,5.02,41.43,27.3-6.69,85.21-12.96,101.89-12.99,8.34-.02,4.46-34.08-6.49-38.93Z"/>
    <path class="cls-6" d="M237.91,195.76c-2.86,0-5.52-1.84-6.43-4.71-1.12-3.55.84-7.33,4.38-8.46,1.21-.38,29.98-9.36,61.98-5.49,3.7.45,6.33,3.81,5.88,7.5-.45,3.7-3.81,6.34-7.5,5.88-28.99-3.51-56.02,4.87-56.29,4.95-.68.21-1.36.31-2.03.31Z"/>
    <path class="cls-6" d="M178.4,309.84c-.05,0-.1,0-.15-.02-.42-.08-.7-.5-.61-.92.06-.3,1.56-7.48,8.41-8.78.42-.08.83.2.91.62.08.42-.2.83-.62.91-5.82,1.1-7.16,7.48-7.17,7.54-.07.37-.4.63-.77.63Z"/>
    <path class="cls-3" d="M205.32,161.81c-9.78-7.77-22.92-14.73-35.78-17.63-12.1-2.72-28.06-.07-35.03,2.73-17.31,6.93-12.34,29.53,8.96,32.56,11.89,1.69,27.88-4.54,38.91-3.19,9.28,1.13,19.82,6.26,27.29,11.26,9.52,6.36,16.48,15.57,19.96,10.21,1.94-3-3.99-12.27-6.51-16.12-3.98-6.06-14.03-16.83-17.8-19.82Z"/>
    <path class="cls-3" d="M310.79,153.69c-4.41-10.01-11.84-20.93-20.81-28.77-8.44-7.38-22.27-12.57-29.02-13.64-16.76-2.67-22.59,15.99-6.97,27.69,8.71,6.53,24.12,9.13,32.31,15.03,6.88,4.95,13.04,13.39,16.82,20.36,4.81,8.87,6.36,18.68,11.44,16.33,2.84-1.32,2.14-10.7,1.8-14.64-.53-6.18-3.87-18.5-5.57-22.36Z"/>
    <path class="cls-6" d="M270.71,118.84c-.15,0-.3-.04-.43-.13-4.33-2.87-10.26-3.11-10.32-3.11-.43-.01-.77-.38-.75-.81.02-.43.36-.79.81-.75.26,0,6.45.25,11.14,3.37.36.24.46.72.22,1.08-.15.23-.4.35-.65.35Z"/>
    <path class="cls-6" d="M133.54,151.22c-.28,0-.55-.15-.69-.41-.21-.38-.06-.85.32-1.06.21-.11,5.19-2.75,10.14-2.59.43.01.77.38.75.81-.01.43-.39.77-.81.75-4.51-.15-9.29,2.38-9.34,2.41-.12.06-.24.09-.37.09Z"/>
    <path class="cls-5" d="M346.12,272.38c-1.69,0-3.34-.83-4.32-2.36-1.53-2.38-.83-5.55,1.56-7.08,7.35-4.7,11.87-11.97,11.92-12.05,1.48-2.41,4.63-3.17,7.04-1.69,2.41,1.47,3.18,4.62,1.71,7.03-.23.38-5.73,9.32-15.15,15.34-.86.55-1.81.81-2.76.81Z"/>
  </g>
</svg>