<?xml version="1.0" encoding="UTF-8"?>
<svg xmlns="http://www.w3.org/2000/svg" xmlns:xlink="http://www.w3.org/1999/xlink" viewBox="0 0 500 500">
  <defs>
    <style>
      .cls-1 {
        fill: url(#Dégradé_sans_nom_167-2);
      }

      .cls-1, .cls-2, .cls-3, .cls-4, .cls-5, .cls-6, .cls-7, .cls-8, .cls-9 {
        fill-rule: evenodd;
      }

      .cls-1, .cls-2, .cls-3, .cls-4, .cls-5, .cls-6, .cls-7, .cls-8, .cls-9, .cls-10, .cls-11 {
        stroke-width: 0px;
      }

      .cls-2 {
        fill: url(#Dégradé_sans_nom_167-3);
      }

      .cls-3 {
        fill: url(#Dégradé_sans_nom_167);
      }

      .cls-4 {
        opacity: .5;
      }

      .cls-5 {
        fill: #869eb4;
      }

      .cls-6 {
        fill: #dfe6fa;
      }

      .cls-7 {
        fill: #c8d2ec;
      }

      .cls-8, .cls-11 {
        fill: #fff;
      }

      .cls-9 {
        fill: #f2f5ff;
      }

      .cls-10 {
        fill: #272c32;
      }
    </style>
    <linearGradient id="Dégradé_sans_nom_167" data-name="Dégradé sans nom 167" x1="368.89" y1="202.61" x2="328.17" y2="228.64" gradientUnits="userSpaceOnUse">
      <stop offset="0" stop-color="#f1c524"/>
      <stop offset=".35" stop-color="#ffaa5a"/>
      <stop offset=".99" stop-color="#fff"/>
    </linearGradient>
    <linearGradient id="Dégradé_sans_nom_167-2" data-name="Dégradé sans nom 167" x1="289.21" y1="183.11" x2="251.09" y2="207.47" xlink:href="#Dégradé_sans_nom_167"/>
    <linearGradient id="Dégradé_sans_nom_167-3" data-name="Dégradé sans nom 167" x1="328.34" y1="203.59" x2="280.2" y2="234.36" xlink:href="#Dégradé_sans_nom_167"/>
  </defs>
  <g id="stiker_style" data-name="stiker style">
    <path class="cls-11" d="M412.08,160.37c20.62-23.14-6.48-54.9-33.51-40.77-2.44-14.2-19.15-21.18-31.55-14.5-17.73-36.43-83.77-36.22-76.39,14.47-22.35-5.08-37.45,6.64-26.56,27.34-13.17,3.94-20.94,23.37-12.92,35.8-34.31-3.44-76.26-5.67-105.44,21.51-15.05,17.93-14.59,66.84-14.08,82.15-.31-.08-.62-.15-.94-.2-3.08-19.84-31.75-17.09-29.73,3.17,1.75,14.92,17.29,30.15,32.8,25.29,3.63,29.92,10.61,45.74,15.03,53.13-2.6,7.86-2.2,17.69,1.58,25.62-26.61,27.71,53.36,26.96,72.94,27.39,19.98-1.05,94.12,1.67,75.04-25.87,8.83-9.41.85-26.8-11.96-26.5,7.51-9.85,12.77-25.3,16.35-41.93,5.55,5.56,6.78,13.54,16.71,13.5,10.21,1.49,18.04-9.95,14.45-19.25-4.38-10.51-14.14-23.02-26.69-21.91,1.35-11.7,2.01-22.78,2.19-31.69,7.02-8.81,17.58-21.31,26.68-32.17-.75,2.94-5.36,12.37,1.81,10.23l-6.44,9.76c-6.15,9.03,7.48,18.84,14.24,10.21,20.18-23.1,38.93-44.54,51.37-58.45l-12.37.79c3.71-4.37,7.45-8.97,10.26-12.84,17.16,4.13,50.96-17.03,36.99-34.11.03-.03.13-.13.15-.16ZM335.25,201.17c-.35.51-.68,1-1.01,1.49l-7.34.37c.94-1.28,1.89-2.59,2.82-3.91,1.68.83,3.53,1.51,5.53,2.05ZM284.09,200.47c-1.11,2.49-2.11,4.75-3.01,6.82-.28-.55-.57-1.08-.88-1.6,2.17-2.83,3.27-4.34,3.88-5.22ZM164.5,385.64c-.02-.08-.05-.15-.07-.23.28.05.57.1.86.15-.26.02-.53.05-.79.07Z"/>
  </g>
  <g id="Bubus">
    <g>
      <path class="cls-5" d="M203.31,391.95c-38.89,0-70.29,4.67-70.29,10.4s31.5,10.4,70.29,10.4,70.39-4.67,70.39-10.4-31.5-10.4-70.39-10.4Z"/>
      <g>
        <g>
          <path class="cls-3" d="M344.91,217.77l12.83-1.46c-1.07,1.75-17.79,20.42-29.17,33.25l-.29.29c-5.54,6.03-9.72,10.69-10.5,11.57l22.26-35.29.1-.1c-2.72.39-5.15,1.07-7.29,1.75-4.38,1.56-7.19,3.31-7.19,3.31,1.46-4.67,30.92-46.76,30.92-46.76h15.46c-4.08,8.46-27.13,33.45-27.13,33.45Z"/>
          <path class="cls-4" d="M344.52,225.16l-15.94,24.4-.29.29c-5.54,6.03-9.72,10.69-10.5,11.57l22.26-35.29,4.47-.97Z"/>
          <path class="cls-4" d="M360.95,184.33l-28.1,43.46c-4.38,1.56-7.19,3.31-7.19,3.31,1.46-4.67,30.92-46.76,30.92-46.76h4.37Z"/>
        </g>
        <g>
          <path class="cls-1" d="M266.64,196.77l11.27-1.46c-.94,1.75-15.62,20.42-25.61,33.25l-.26.29c-4.87,6.03-8.54,10.69-9.22,11.57l19.55-35.29.09-.1c-2.39.39-4.52,1.07-6.4,1.75-3.84,1.56-6.32,3.31-6.32,3.31,1.28-4.67,27.15-46.76,27.15-46.76h13.57c-3.59,8.46-23.82,33.45-23.82,33.45Z"/>
          <path class="cls-4" d="M266.29,204.16l-14,24.4-.26.29c-4.87,6.03-8.54,10.69-9.22,11.57l19.55-35.29,3.93-.97Z"/>
          <path class="cls-4" d="M280.72,163.33l-24.67,43.46c-3.84,1.56-6.32,3.31-6.32,3.31,1.28-4.67,27.15-46.76,27.15-46.76h3.84Z"/>
        </g>
        <g>
          <path class="cls-2" d="M309.78,211.89l15.56-.78c-1.17,2.14-28.58,34.03-42,50.75l-.29.39c-6.61,7.88-11.57,14-12.45,15.07l30.24-53.08c-1.56.39-5.35,1.46-9.24,2.53h-.1c-.88.19-1.65.39-2.53.58-4.38,1.17-8.26,2.24-8.26,2.24,1.07-5.15,18.08-42.2,19.06-44.53l.1-.1,5.93-.78,25.57-3.31c-4.08,10.11-21.58,31.01-21.58,31.01Z"/>
          <path class="cls-4" d="M307.16,219.57l-24.11,42.68c-6.61,7.88-11.57,14-12.45,15.07l30.24-53.08c-1.56.39-5.35,1.46-9.24,2.53l15.56-7.19Z"/>
          <path class="cls-4" d="M305.99,183.79l-.19.39-16.82,43.17c-4.38,1.17-8.26,2.24-8.26,2.24,1.07-5.15,18.08-42.2,19.06-44.53l.1-.1,6.13-1.17Z"/>
        </g>
        <path class="cls-7" d="M406.23,154.92c2.63-2.82,4.28-6.22,4.76-9.82,1.53-25.47-27.65-25.95-40.74-8.95.1-.49.19-1.07.19-1.56.82-7.33.8-20.61-4.76-22.94-7.87-3.79-15.26-.39-21.39,5.54-1.07-2.33-2.24-4.57-3.31-6.51-.49-.78-.88-1.56-1.26-2.24-.97-1.56-1.85-2.82-2.63-3.89-10.32-19.16-62.04-31.2-58.72,12.93.1.49.19,1.07.29,1.65.7,3.43,2.69,7.99,4.67,11.57-9.04-2.72-30.29-7.51-33.54-.58-4.99,9.7,5.65,19.13,14.15,24.48-10.96-2.43-20.73-2.09-25.91,7.71-6.44,10.74,2.32,25.5,14.88,25.18,6.62,0,26.38.17,37.59-5.77-.04,7.72,3.06,13.36,13.39,11.12,9.94-2.15,17.63-4.54,23.41-6.69,5.69,13.61,41.66,9.02,45.52-1.43,2.83,3.59,11.66,3.15,20.63-1.26,14.77-6.74,20.38-21.54,2.67-19.27,4.56-3.81,8.23-7.32,10.13-9.27Z"/>
        <path class="cls-6" d="M265.74,165.32c0,8.46-10.01,17.01-21.39,17.01-1.26,0-2.53,0-3.69-.1-2.92-3.11-4.76-7.29-4.76-11.86,0-2.92.68-5.64,2.14-8.07,1.46-.68,3.11-1.26,4.96-1.75,9.33-2.33,22.75-1.65,22.75,4.76Z"/>
        <path class="cls-9" d="M405.55,129.15c-7.29-7-19.35-5.93-27.42,0-2.82,2.04-5.44,4.47-7.88,7,.1-.49.19-1.07.19-1.56.19-2.05.28-4.04.32-5.99.01-.39.07-.83.07-1.21l-.04.1c.04-7.68-1.29-13.97-5.11-15.85-7.88-3.79-15.26-.39-21.39,5.54-1.07-2.33-2.24-4.57-3.31-6.51-1.2-2.11-2.61-4.39-3.89-6.13-3.89-5.06-13.13-17.31-34.9-17.31-14.58,0-26.25,11.38-23.82,30.24.78,4.51,2.58,8.92,4.96,13.22-.09-.03-.18-.04-.27-.07-13.52-3.85-30.3-6.7-33.27-.52-3.6,7.58,1.07,14.49,8.36,20.32,1.59,1.35,3.11,2.33,5.06,2.82,7.39,2.63,20.12,3.01,24.79,0,4.5-2.94,4.4-11.48,4.05-18.56,4.45,2.26,9.27,3.59,14.43,3.59,7.68,0,15.07-.68,21.29-4.67,3.25-2.08,5.75-5.02,7.8-8.4.05.82.06,1.67.17,2.47,1.26,10.21,7.39,17.99,17.21,17.99h.68c5.78-.23,10.85-3.18,14.42-7.62.38-.26.73-.59,1.14-.74.29-.19.68-.29.97-.29,1.17-.1,2.24.58,2.72,3.11,1.56,7.1-2.72,15.65,9.63,17.89,8.85,1.56,21.88-7.68,28.49-12.93.88-5.64-.97-11.67-5.44-15.94Z"/>
        <path class="cls-9" d="M293.39,171.35s-1.44-13.65,12.83-17.5c12.59-3.85,23.14,5.54,23.14,5.54,0,0,1.07-11.86,14-12.23,9.97.14,10.4,10.38,10.4,10.38,0,0-13.41-2.48-18.9,16.43,0,0-16.86-31.76-41.48-2.63Z"/>
      </g>
      <g>
        <g>
          <path class="cls-10" d="M272.25,208.09c-21-25.18-115.7-27.22-140.49,1.36-18.87,22.73-15.47,130.29,6.11,157.44-5.79,10.11-2.47,29.99,11,32.15,6.63.06,10.94-8.14,6.71-13.42-2.73-2.69-4.73-7.18-2.81-10.82,18.45,4.62,58.96,10.81,87.07,1.46,3.66,11.66,21.52,22.29,32.41,13.45,4.5-5.02.29-13.63-6.42-13.32-5.03.64-10.55-2.18-10.96-7.64,27.01-19.57,34.61-136.8,17.37-160.65Z"/>
          <path class="cls-10" d="M306.37,323.4c-2.63-6.8-7.55-12.47-13.9-16.04-3.3-1.69-7.34-.4-9.03,2.9,0,0,0,.01,0,.02-1.63,3.33-.29,7.35,3.01,9.04,3.31,2.01,5.87,5.05,7.29,8.65,1.1,2.49,3.6,4.06,6.32,3.99.77.14,1.56.14,2.33,0,3.45-1.28,5.23-5.09,3.99-8.56Z"/>
        </g>
        <path class="cls-8" d="M136.13,234.64c19.44-10.21,93.72-14.68,114.53-.88,11.38,7.58,13.13,49.1,0,47.35-38.81-3.27-77.83-3.46-116.67-.58-9.72,1.07-9.92-39.76,2.14-45.89Z"/>
        <path class="cls-11" d="M158.88,219.76h1.46c21.39-3.97,43.28-4.53,64.85-1.65,3.68.54,7.1-2.01,7.63-5.69.54-3.68-2.01-7.1-5.69-7.63-23.18-3.11-46.71-2.52-69.71,1.75-3.61.82-5.88,4.41-5.07,8.02,0,.02,0,.03.01.05.69,3.04,3.4,5.18,6.51,5.15Z"/>
        <path class="cls-10" d="M108.13,307.75c3.2,0,5.95-2.29,6.51-5.44.91-3.59-1.26-7.24-4.85-8.16-.17-.04-.33-.08-.5-.11-2.35-.37-4.4-1.8-5.54-3.89-.77-1.25-1.29-2.64-1.56-4.08-.54-3.61-3.9-6.11-7.51-5.57-.06,0-.11.02-.17.03-3.66.55-6.19,3.96-5.65,7.62,0,.02,0,.04,0,.06,1.26,9.68,8.52,17.49,18.08,19.44l1.17.1Z"/>
        <path class="cls-8" d="M201.56,322.33c9.72-8.56,25.86-8.26,25.57,13.03,0,32.08-15.75,28.2-29.17,23.43-20.61-7.1-24.11,5.06-36.36,0-8.8-5.05-11.84-16.29-6.78-25.09,1.19-2.07,2.76-3.88,4.64-5.35,6.13-4.86,11.96,1.07,22.56,1.07,7.18.23,14.18-2.31,19.54-7.1Z"/>
        <path class="cls-8" d="M242.3,289.57c6.41.61,11.12,6.31,10.5,12.73,0,0,0,0,0,.01-1.45,6.36-7.7,10.41-14.1,9.14-6.47-.57-11.26-6.27-10.69-12.74,1.45-6.45,7.83-10.53,14.29-9.14Z"/>
        <path class="cls-8" d="M143.13,289.57c6.42.56,11.17,6.22,10.61,12.64,0,.03,0,.07,0,.1-1.45,6.36-7.7,10.41-14.1,9.14-6.42-.56-11.17-6.22-10.61-12.64,0-.03,0-.07,0-.1,1.41-6.39,7.69-10.46,14.1-9.14Z"/>
      </g>
    </g>
  </g>
</svg>