<?xml version="1.0" encoding="UTF-8"?>
<svg xmlns="http://www.w3.org/2000/svg" xmlns:xlink="http://www.w3.org/1999/xlink" viewBox="0 0 500 500">
  <defs>
    <style>
      .cls-1 {
        fill: #869eb4;
        fill-rule: evenodd;
      }

      .cls-1, .cls-2, .cls-3, .cls-4, .cls-5, .cls-6, .cls-7, .cls-8 {
        stroke-width: 0px;
      }

      .cls-2 {
        fill: #4c52bb;
      }

      .cls-3 {
        fill: #708bf1;
      }

      .cls-4 {
        fill: #5863c5;
      }

      .cls-5 {
        fill: #272c32;
      }

      .cls-6 {
        fill: #32318e;
      }

      .cls-7 {
        fill: #fff;
      }

      .cls-8 {
        fill: url(#Dégradé_sans_nom_12);
      }
    </style>
    <linearGradient id="Dégradé_sans_nom_12" data-name="Dégradé sans nom 12" x1="113.55" y1="-1741.71" x2="233.35" y2="-1762.83" gradientTransform="translate(0 -1578) scale(1 -1)" gradientUnits="userSpaceOnUse">
      <stop offset="0" stop-color="#ffec34"/>
      <stop offset="1" stop-color="#ff9c51"/>
    </linearGradient>
  </defs>
  <g id="stiker_style" data-name="stiker style">
    <path class="cls-7" d="M394.83,270.46c-.94-9.04-9.66-15.47-18.56-13.64,1.2-35.21,12.97-89.46-54.51-117.9-25.89-8.66-63.05-6.09-84.96,8.42-27.33-67.9-133.24-46.84-132.17,26.93,0,31.37,21.28,58.04,50.17,66.22-2.81,8.87,9.9,16.63,16.42,11.19,2.44,13.37,10.12,39.67,28.38,30.88,2.66,26.02,8.67,52.24,19.68,64.9-.46,5.56-.33,11.13.41,16.64-6.27,1.92-12.57,5.3-12.57,12.08,1.78,19.78,55.98,17.05,76.69,18.36,21.25-1.38,74.74,1.76,76.61-18.36,0-6.73-6.07-10.12-11.87-12.01.37-4.86.24-9.73-.4-14.55,12.3-9.47,15.92-22.17,21.06-42.68,23.62,12.19,28.24-19.98,25.62-36.49Z"/>
  </g>
  <g id="Bubus">
    <g>
      <circle class="cls-8" cx="173.45" cy="174.27" r="60.82"/>
      <g>
        <path class="cls-1" d="M283.98,365.83c-37.95,0-68.85,4.97-68.85,10.36s30.74,10.36,68.69,10.36,68.6-4.64,68.6-10.36-30.57-10.36-68.44-10.36Z"/>
        <g>
          <path class="cls-5" d="M360.04,183.63c17.9,20.96,7.13,134.22-11.93,155.27-2.57,2.72-5.5,5.09-8.7,7.04,1.8,8.55,1.8,17.38,0,25.93-.9,4.31-4.71,7.39-9.11,7.37h-1.91c-4.98-1.12-8.15-6.02-7.13-11.02,1.03-4.96,1.17-10.07.41-15.08-25.37,4.61-51.42,4.01-76.56-1.74-.41,4.2-.22,8.45.58,12.59,1.33,4.65-1.17,9.54-5.72,11.19-.82.13-1.66.13-2.49,0-4.16-.02-7.81-2.79-8.95-6.79-1.58-7.38-1.94-14.96-1.08-22.45v-1.57c-24.52-21.05-28.92-135.8-9.36-159.41,25.02-28.42,120.39-26.43,141.93-1.33Z"/>
          <path class="cls-5" d="M179.16,250.83c-.46-3.18,1.75-6.13,4.93-6.59,3.18-.46,6.13,1.75,6.59,4.93,1.11,6.37,3.47,12.45,6.96,17.9,1.88,2.6,1.3,6.22-1.3,8.1-.09.06-.18.13-.27.19-.58.39-1.22.67-1.91.83-2.35.57-4.8-.39-6.13-2.4-4.49-6.96-7.51-14.78-8.87-22.95Z"/>
          <path class="cls-5" d="M371.8,273.53c-.76-4.14,1.97-8.12,6.11-8.88,4.14-.76,8.12,1.97,8.88,6.11.04.2.07.41.09.61,1.05,8.33.4,16.78-1.91,24.86-1.01,3.17-3.96,5.32-7.29,5.3-.76-.02-1.52-.16-2.24-.41-4.03-1.23-6.29-5.5-5.06-9.52,0,0,0,0,0,0,1.7-5.86,2.18-12.01,1.41-18.06Z"/>
        </g>
        <g>
          <path class="cls-7" d="M325.65,269.06c7,0,12.68,5.68,12.68,12.68s-5.68,12.68-12.68,12.68-12.68-5.68-12.68-12.68,5.68-12.68,12.68-12.68h0Z"/>
          <path class="cls-7" d="M241.39,305.76c10.3,9.43,24.72,12.93,38.2,9.28,7.51-1.55,14.71-4.35,21.29-8.29,3.7-2.11,8.39-1.07,10.85,2.4,2.31,3.63,1.25,8.44-2.38,10.75,0,0-.02.01-.03.02-12.19,7.6-26.23,11.73-40.6,11.93-14.04.24-27.64-4.96-37.95-14.5-3.18-2.93-3.38-7.88-.46-11.06,2.93-3.18,7.88-3.38,11.06-.46v-.08Z"/>
          <circle class="cls-7" cx="222.75" cy="279.58" r="11.52"/>
          <path class="cls-7" d="M335.84,256.55c-38.56-3.56-77.34-4.14-116-1.74-9.45,1.08-9.36-37.78,2.32-44.58,19.06-11.19,93.63-14.75,114.34-.99,11.19,7.62,12.93,49.05-.66,47.31Z"/>
          <path class="cls-4" d="M291.76,142.04h-8.29c-60.64,2.8-73.18,47.46-75.3,73.76-.33.15-.68.24-1.01.4-15.74,8.29-46.07,24.86-44.66,26.84,1.41,1.99,1.16,1.82,9.28-3.4,0,0,19.55-15.91,52.61,6.96,13.76,10.82,31.47,15.28,48.72,12.26,13.56-3.18,26.63-8.16,38.86-14.83-.01-.01-.02-.02-.03-.03.09,0,.2-.01.29-.02,0,0,0,.06,0,.06,18.62-1.67,37.13-4.44,55.43-8.29,5.63-5.8,6.13-91.8-75.89-93.71Z"/>
          <path class="cls-2" d="M313.44,144.88c3.71,3.63,6.6,7.64,8.81,12.34,4.62,9.37,6.63,19.82,5.8,30.24-.44,10.09-5.25,19.5-13.17,25.77-2.7,1.66-5.72,2.73-8.87,3.15-7.47,1.14-15.11.25-22.12-2.57-8.04-3.29-16.36-5.87-24.86-7.71-4.44-.74-8.92-1.12-13.42-1.16-4.5.07-8.99.51-13.42,1.33-6.3,1.16-14.5,3.65-19.22-2.07-1.1-1.43-1.84-3.11-2.15-4.89-2.79,11.66-3.66,23.69-2.57,35.63,29.16,12.59,70.84,12.35,104.31,9.2.17-.15.3-.3.46-.45-.02.18-.03.35-.05.53,18.62-1.67,37.13-4.44,55.43-8.29,4.47-5.55,5.78-76.22-54.96-91.05Z"/>
          <path class="cls-6" d="M172.8,241.63c3.5-1.99,7.27-3.46,11.19-4.39,7.75-1.36,15.15-.07,22.47,2.8,6.38,2.38,12.39,5.45,17.94,9.4,13.76,10.82,31.25,15.89,48.49,12.87,13.87-3.32,27.86-10.07,39.69-18.03-18.66-18.98-43.69-30.37-70.26-31.98-11.87-.85-23.76,1.35-34.55,6.38-15.74,8.29-45.74,22.79-44.33,24.86,1.41,2.07,1.91,2.4,3.07,1.66,2.03-1.3,4.14-2.49,6.3-3.56Z"/>
          <path class="cls-2" d="M261.2,212.8c2,.6,3.94,1.38,5.8,2.32,2.09.96,3.83,2.56,4.97,4.56,1.41,3.56-1.41,6.88-3.98,9.03-3.77,2.96-7.92,5.38-12.35,7.21-4.7,2.38-9.69,4.16-14.83,5.3-3.84.69-7.78.46-11.52-.66l-12.18-4.14c-6.4-2.24-13.11-3.47-19.89-3.65-12.17-.75-24.13,3.46-33.14,11.68.83.58,2.15-.66,8.29-4.56,0,0,19.55-15.91,52.61,6.96,13.76,10.82,31.47,15.28,48.72,12.26,13.56-3.18,26.63-8.16,38.86-14.83-13.78-15.17-31.6-26.09-51.37-31.48Z"/>
          <path class="cls-4" d="M197.24,232.76c6.78.18,13.49,1.41,19.88,3.65l12.18,4.14c3.73,1.12,7.68,1.35,11.52.66,5.15-1.14,10.13-2.93,14.83-5.3,4.43-1.83,8.58-4.25,12.35-7.21,2.57-2.15,5.39-5.47,3.98-9.03-1.14-2-2.88-3.59-4.97-4.56-.72-.36-1.5-.58-2.24-.89-7.27-2.18-14.77-3.67-22.45-4.24-11.88-.8-23.76,1.43-34.55,6.46-15.74,8.29-46.07,24.86-44.66,26.84.42.59.7.95,1.09,1.09,9-8.17,20.91-12.36,33.05-11.61Z"/>
          <path class="cls-6" d="M302.22,234.17c1.08,1.51,1.55,3.38,1.33,5.22-.75,4.47-6.46,6.71-10.11,8.29-5.77,2.74-11.75,4.98-17.9,6.71-7.62,2.07-15.63,2.3-23.37.66-7.64-2.23-15.01-5.32-21.96-9.2-6.92-3.79-14.34-6.58-22.04-8.29,5.87,2.34,11.43,5.37,16.57,9.03,13.78,10.98,31.61,15.53,48.97,12.51,13.56-3.18,26.63-8.16,38.86-14.83-3.16-3.66-6.62-7.04-10.36-10.11Z"/>
          <path class="cls-3" d="M210.5,217.68c-8.29,4.31-21.29,10.94-30.74,16.57l1.42-.49c7.46-2.32,14.73-2.83,22.11-5.48,6.64-3.26,13.01-7.02,19.06-11.27,6.42-3.23,13.45-5.07,20.63-5.39h.66c-11.38-.75-22.76,1.33-33.14,6.05Z"/>
        </g>
      </g>
      <g>
        <path class="cls-6" d="M363.52,189.27c-8.29-20.96-27.51-46.15-71.75-47.14h-.83l.66.5h-8.29c-21.77-.32-42.62,8.73-57.25,24.86-12.82,15.13-17.04,34.36-18.26,48.51-.15.07-.31.13-.46.21-10.27,5.3-43.83,22.95-44.82,26.68-.05.16-.05.33,0,.5.5.75.75,1.24,1.41,1.24s1.66-.66,3.98-2.24l3.89-2.57c5.46-3.64,11.92-5.49,18.48-5.3,12.29.43,24.14,4.63,33.97,12.01,10.85,8.45,24.05,13.31,37.78,13.92,3.74,0,7.47-.44,11.1-1.33,13.57-3.17,26.66-8.15,38.91-14.8l.28.06c18.65-1.71,37.18-4.48,55.51-8.29,3.07-2.98,3.98-25.85-4.31-46.81ZM226.56,167.64c14.5-16.07,35.2-25.12,56.84-24.86h8.29c16.16,12.01,20.88,38.94,21.87,59.41.61,13.95.02,27.56-1.62,41.42-5.43-6.09-11.59-11.49-18.35-16.06-15.19-10.64-33.03-16.86-51.54-17.98h-4.64c-10.1-.15-20.09,2.01-29.24,6.26,1.19-14.05,5.41-33.28,18.39-48.18ZM293.05,143.76s.03.03.05.04c-.02-.01-.03-.03-.05-.04ZM273.12,258.53c-3.63.94-7.36,1.44-11.1,1.49-13.59-.48-26.68-5.2-37.45-13.51-9.89-7.58-21.86-11.94-34.3-12.51-6.7-.28-13.32,1.57-18.89,5.3l-3.81,2.57c-1.11.9-2.37,1.6-3.73,2.07-.33,0-.5-.25-.99-.99.75-2.82,24.53-15.99,44.58-26.35,9.3-4.45,19.51-6.69,29.83-6.55h4.56c26.73,2.05,51.69,14.16,69.85,33.89-12.17,6.49-25.11,11.39-38.53,14.58ZM367.49,235.42c-18.15,3.88-36.53,6.65-55.02,8.29,1.77-13.87,2.32-27.87,1.66-41.84-1.82-36.46-12.59-52.45-21.54-59.49,15.26.47,27.48,3.85,37.27,8.94,3.77,2.91,7.26,6.18,10.37,9.79,3.82,4.49,6.92,9.55,9.2,15,1.43,2.68,2.7,5.45,3.81,8.29,2.96,7.86,5.15,15.99,6.55,24.28,1.21,7.68,2.02,15.43,2.4,23.2v4.64l5.22-1.16c.23-.19.45-.5.66-.91-.19.44-.38.78-.58.99Z"/>
        <path class="cls-6" d="M212.39,197.8c19.95-46.66,57.2-53.13,69.08-53.98-58.5,2.81-69.08,53.98-69.08,53.98Z"/>
        <path class="cls-6" d="M281.47,143.82c1.23-.06,2.47-.1,3.75-.12,0,0-1.37-.05-3.75.12Z"/>
      </g>
    </g>
  </g>
</svg>