<?xml version="1.0" encoding="UTF-8"?>
<svg xmlns="http://www.w3.org/2000/svg" viewBox="0 0 500 500">
  <defs>
    <style>
      .cls-1, .cls-2, .cls-3, .cls-4 {
        fill-rule: evenodd;
      }

      .cls-1, .cls-2, .cls-3, .cls-4, .cls-5, .cls-6, .cls-7, .cls-8, .cls-9, .cls-10, .cls-11 {
        stroke-width: 0px;
      }

      .cls-1, .cls-5 {
        fill: #272c32;
      }

      .cls-2 {
        fill: #869eb4;
      }

      .cls-3, .cls-7 {
        fill: #c0bebf;
      }

      .cls-4, .cls-11 {
        fill: #fff;
      }

      .cls-6 {
        fill: #212121;
      }

      .cls-8 {
        fill: #912610;
      }

      .cls-9 {
        fill: #b54d2a;
      }

      .cls-10 {
        fill: #a32f11;
      }
    </style>
  </defs>
  <g id="stiker_style" data-name="stiker style">
    <path class="cls-11" d="M382.83,238.1h0c-7.99-1.26-15.52,4.17-16.83,12.12-.17.91-.47,1.46-.9,1.63-.3.06-.6.14-.89.22,1.36-34.22-2.4-69.16-13.9-83.03l-.12-.14c-7.04-8.1-18.44-14.29-33.89-18.42-13.21-3.53-28.79-5.35-44.98-5.24-27.2.17-61.18,6.15-74.99,22.42-5.19,6.11-8.47,16.81-10.05,32.71-1.28,12.92-1.33,28.73-.16,45.75-.99-.59-2.06-1.09-3.21-1.44-8.27-2.54-16.14-1.31-21.3.19-5.23-2.85-11.56-2.97-16.93-.44l-5.54-5.07c-3.16-2.89-7.25-4.37-11.51-4.19-4.27.19-8.21,2.03-11.1,5.19l-13.21,14.43-.04-.04-13.48,14.73c-2.91,3.17-4.39,7.28-4.18,11.58.21,4.26,2.06,8.19,5.21,11.08l4.12,3.77c.51.63,1.06,1.22,1.65,1.76l49.72,45.52c2.98,2.74,6.79,4.22,10.8,4.22.24,0,.47,0,.71-.02,4.26-.19,8.21-2.03,11.1-5.18l5.13-5.7h0s21.53-23.51,21.53-23.51h0c.52-.58.98-1.18,1.41-1.81,1.47,4.76,3.07,9.14,4.83,12.94-1.92,1.61-4.54,3.31-8.1,4.82-3.98,1.69-7.07,4.83-8.69,8.83-1.62,4.01-1.58,8.41.1,12.39.92,2.16,2.27,4.05,3.92,5.58-7.06,2.42-11.05,5.9-11.05,11.48,0,9.42,11.37,12.85,29.72,15.31,15.04,2.02,34.93,3.13,56.03,3.13s40.99-1.11,56.03-3.13c18.34-2.46,29.71-5.88,29.71-15.31,0-5.86-4.71-9.11-9.71-11.03,1.21-5.7.92-10.62.08-14.55,6.55-5.52,11.84-15.54,16.03-30.35,2.51-8.89,4.57-19.75,6.03-31.5,1.83.81,3.85,1.27,5.97,1.27.88,0,1.77-.08,2.64-.24,14.55-2.64,22.81-14.87,24.53-25.83,1.27-8.05-4.23-15.63-12.26-16.89ZM233.18,349.6c-4.35.25-8.54.55-12.52.9,1.62-1.24,3.16-2.56,4.6-3.93,2.54,1.16,5.19,2.16,7.92,3.03ZM190.51,286.62c-.51-.64-1.07-1.24-1.67-1.79l-8.93-8.18c.41-1.08.71-2.2.91-3.33,2.87-.45,5.55-1.74,7.69-3.69.78,5.89,1.72,11.87,2.81,17.73l-.81-.74Z"/>
  </g>
  <g id="Bubus">
    <path class="cls-6" d="M156.37,257.1c-2.23-2.04-5.71-1.88-7.75.34l-8.23,9c-2.04,2.22-1.88,5.7.34,7.74l9.81,8.98c2.23,2.04,5.71,1.88,7.74-.34l8.24-8.99c2.04-2.23,1.88-5.71-.34-7.75l-9.81-8.98ZM147.09,286.93l-9.81-8.98c-4.31-3.95-4.61-10.65-.66-14.97l8.23-8.99c4-4.27,10.7-4.57,14.97-.66l9.81,8.98c4.31,3.95,4.61,10.65.66,14.97l-8.24,8.99c-3.9,4.27-10.64,4.61-14.96.66Z"/>
    <path class="cls-8" d="M163.05,336.78c-3,3.27-8.04,3.49-11.31.49l-49.73-45.53c-3.27-2.99-3.5-8.04-.5-11.31l26.69-29.15c2.99-3.27,8.04-3.5,11.31-.5l49.69,45.49c3.27,2.99,3.49,8.04.5,11.31l-26.7,29.15.05.05Z"/>
    <path class="cls-9" d="M183.93,302.04c3-3.27,2.77-8.31-.5-11.31l-49.68-45.49c-3.27-2.99-8.32-2.77-11.31.5l-18.59,20.3,61.54,56.34,18.59-20.3-.05-.04Z"/>
    <path class="cls-10" d="M96.24,286.21l49.69,45.49c3.27,2.99,8.31,2.77,11.31-.5l8.1-8.86-61.53-56.34-8.11,8.86c-3,3.27-2.73,8.35.54,11.35Z"/>
    <rect class="cls-7" x="112.5" y="275.8" width="10.28" height="6.16" transform="translate(-167.45 177.22) rotate(-47.5)"/>
    <polygon class="cls-3" points="157.09 308.02 152.54 303.86 145.6 311.45 150.14 315.6 157.09 308.02"/>
    <path class="cls-1" d="M344.15,174.14c-24.95-28.68-120.22-26.66-141.72-1.32-17.91,21.1-7.14,135.23,11.87,156.37,26.11,29.01,100.92,14.38,115.66,9.04,28.68-8.7,35.21-138.75,14.19-164.09Z"/>
    <path class="cls-4" d="M290.44,288.57c6.81.74,11.52,8.9,10.5,18.21-1.01,9.3-7.37,16.25-14.19,15.5-6.82-.74-11.52-8.9-10.51-18.2,1.02-9.31,7.38-16.25,14.2-15.51Z"/>
    <path class="cls-2" d="M263.79,356.77c42.91,0,77.74,4.68,77.74,10.45s-34.83,10.44-77.74,10.44-77.75-4.68-77.75-10.44,34.84-10.45,77.75-10.45Z"/>
    <path class="cls-4" d="M340.21,199.54c-19.68-10.29-94.29-14.79-115.17-.93-11.49,7.62-13.25,49.37.4,47.61,31.8-4.1,97.85-2.65,116.77-.55,9.45,1.04,9.67-40.03-2-46.13Z"/>
    <path class="cls-11" d="M316.84,184.5c-.49,0-.99-.05-1.49-.17-29.97-6.75-64.88-1.73-65.23-1.68-3.68.54-7.11-2-7.65-5.69-.54-3.68,2-7.11,5.69-7.65,1.53-.23,37.76-5.43,70.15,1.86,3.63.82,5.92,4.43,5.1,8.06-.71,3.13-3.49,5.26-6.57,5.26Z"/>
    <path class="cls-5" d="M321.53,367.81c-1.24,0-2.5-.28-3.68-.88-4.04-2.04-5.66-6.96-3.62-11,1.98-3.92,2.53-7.28,1.63-9.97-1.31-3.92-5.41-5.98-5.46-6.01l.1.04,6.84-14.88c1.05.48,10.33,5,13.94,15.33,1.7,4.86,2.66,12.77-2.43,22.86-1.44,2.85-4.32,4.5-7.32,4.5Z"/>
    <path class="cls-5" d="M162.32,267c-2.53,0-4.96-1.42-6.11-3.85-1.59-3.35-.19-7.34,3.15-8.95,1.09-.53,10.96-5.05,21.21-1.89,3.56,1.1,5.56,4.87,4.46,8.43-1.1,3.56-4.87,5.55-8.43,4.46-4.4-1.36-9.74.38-11.43,1.17-.92.43-1.9.63-2.85.63Z"/>
    <path class="cls-5" d="M367.92,273.06c-3.2,0-6.04-2.28-6.63-5.54-.66-3.66,1.77-7.17,5.43-7.84.6-.11,5.92-1.26,7.15-8.1.58-3.68,4.03-6.16,7.71-5.58,3.68.58,6.19,4.07,5.6,7.75-.96,6.09-5.85,16.99-18.06,19.21-.41.07-.81.11-1.21.11Z"/>
    <path class="cls-5" d="M200.08,352.03c-3.19,0-6.22-1.87-7.54-4.99-1.77-4.16.18-8.97,4.34-10.74,15.32-6.5,17.79-16.65,17.89-17.07l-.03.16,16.1,2.97c-.16.89-1.18,5.6-5.11,11.41-5.04,7.43-12.8,13.52-22.45,17.62-1.04.44-2.13.65-3.19.65Z"/>
    <path class="cls-4" d="M232.9,254.78c-6.87.99-11.66,6.71-10.71,12.76.96,6.06,7.31,10.17,14.18,9.19,6.87-.99,11.67-6.71,10.71-12.76-.96-6.06-7.31-10.18-14.18-9.19Z"/>
    <path class="cls-4" d="M332.71,254.78c-6.86.99-11.66,6.71-10.7,12.76.95,6.06,7.31,10.17,14.17,9.19,6.87-.99,11.67-6.71,10.71-12.76-.96-6.06-7.31-10.18-14.18-9.19Z"/>
  </g>
</svg>