<?xml version="1.0" encoding="UTF-8"?>
<svg xmlns="http://www.w3.org/2000/svg" viewBox="0 0 500 500">
  <defs>
    <style>
      .cls-1 {
        opacity: .1;
      }

      .cls-1, .cls-2 {
        fill: #e1ebf0;
      }

      .cls-1, .cls-2, .cls-3, .cls-4, .cls-5, .cls-6, .cls-7, .cls-8, .cls-9 {
        stroke-width: 0px;
      }

      .cls-2 {
        opacity: .09;
      }

      .cls-3, .cls-4, .cls-5 {
        fill-rule: evenodd;
      }

      .cls-3, .cls-7 {
        fill: #272c32;
      }

      .cls-4 {
        fill: #869eb4;
      }

      .cls-5, .cls-8 {
        fill: #fff;
      }

      .cls-6 {
        fill: #282c33;
      }

      .cls-9 {
        fill: #e65b0a;
      }
    </style>
  </defs>
  <g id="stiker_style" data-name="stiker style">
    <path class="cls-8" d="M346.08,331.23c-6.33-.96-13.37-1.76-20.91-2.41,1.35-5.17,1.86-11.79,1.61-20.6,0,0,0,0,0,0,6.32-8.13,10.34-22.35,12-42.39,4.37-4.28,7.11-9.81,8.33-16.8,1.2-6.8.63-14.64.05-19.54.74-1.22,1.2-2.4,1.55-3.3.19-.48.36-.92.54-1.31,3.06-5.13,3.72-6.16,5.27-9.32,4.73-7.43,6.08-14.31,6.24-15.14,1.28-7.07-3.43-13.91-10.51-15.23h0c-6.97-1.3-13.73,3.23-15.23,10.12-2.81-14.52-7.52-30-15.3-37.69l-.13-.13c-19.17-18.11-59.99-15.58-72.04-14.38-24.14,2.42-53.85,10.56-64.85,26.17-4.52,6.41-8.84,21.33-4.69,56.02-1.46.85-2.29,1.47-2.54,1.66l-.83.64c-1.77,1.37-2.67,3.6-2.34,5.81l.75,5.1c.72,4.9,4.07,8.87,8.67,10.41.01.06.02.12.04.18.68,3.5-1.29,6.86-4.59,8.23-1.27.53-2.47,1.24-3.56,2.13h0c-8.87,7.2-14.72,9.83-15.12,10.01-7.34,2.98-10.96,11.37-8.07,18.76,2.2,5.62,7.51,9.25,13.54,9.25,1.81,0,3.59-.34,5.29-1,1.51-.59,9.41-3.94,21.17-13.23,7.19,21.71,14.17,29.68,16.73,32.02,1.19,1.09,2.48,2.12,3.84,3.09-.23,4.98-1.51,8.5-1.6,8.73-.54,1.31-.87,2.65-1.05,4-.31.05-.62.09-.93.13-25.22,3.81-35.05,8.91-35.05,18.19s9.83,14.39,35.04,18.2c18.6,2.81,43.23,4.36,69.34,4.36s50.73-1.55,69.34-4.36c25.22-3.81,35.05-8.92,35.05-18.2,0-10.71-14.01-15.02-35.05-18.19ZM293.25,322.98c-.24,1.37-.29,2.75-.17,4.11-5.35-.14-10.81-.21-16.34-.21-1.29,0-2.58,0-3.86.01,7.65-1.09,14.68-2.55,20.37-3.92Z"/>
  </g>
  <g id="Bubus">
    <path class="cls-4" d="M276.74,334.88c-53.21,0-96.39,6.52-96.39,14.55s43.18,14.56,96.39,14.56c53.19,0,96.39-6.53,96.39-14.56,0-8.03-43.19-14.55-96.39-14.55Z"/>
    <path class="cls-7" d="M309.21,333.96c-.84,0-1.7-.13-2.54-.4-4.3-1.4-6.65-6.02-5.25-10.32.3-.92,1.26-4.66.99-14.22-.1-3.67-.34-6.44-.34-6.46-.39-4.5,2.94-8.48,7.44-8.87,4.51-.39,8.47,2.94,8.87,7.44.01.13.28,3.25.4,7.44.25,8.83-.34,15.29-1.79,19.74-1.13,3.46-4.33,5.65-7.78,5.65Z"/>
    <path class="cls-7" d="M224.35,341.44c-1.07,0-2.15-.21-3.19-.65-4.15-1.76-6.09-6.54-4.36-10.69.11-.29,4.53-11.53.58-24.42-1.33-4.32,1.1-8.9,5.43-10.23,4.32-1.33,8.9,1.1,10.23,5.43,5.79,18.88-.85,34.91-1.14,35.58-1.32,3.12-4.35,4.99-7.54,4.99Z"/>
    <path class="cls-7" d="M338.82,219.29c-1.35,0-2.7-.53-3.71-1.58-1.96-2.05-1.88-5.29.17-7.25,6-5.73,7.5-13.25,7.51-13.32.53-2.77,3.2-4.6,5.98-4.08,2.77.52,4.61,3.16,4.1,5.94-.08.44-2.04,10.78-10.51,18.88-.99.95-2.27,1.42-3.54,1.42Z"/>
    <path class="cls-6" d="M163.94,289.5c-2.61,0-5.08-1.58-6.09-4.16-1.31-3.35.33-7.13,3.68-8.46.17-.07,6.84-2.85,17.11-11.19,2.8-2.28,6.92-1.85,9.2.96,2.28,2.8,1.85,6.92-.96,9.2-11.93,9.68-19.71,12.87-20.56,13.2-.78.31-1.59.45-2.38.45Z"/>
    <path class="cls-3" d="M314.08,163.31c-24.31-22.97-108.01-13.31-124.86,10.59-14.02,19.9,4.83,118.61,23.31,135.48,25.36,23.16,90.01,4.19,102.55-1.69,24.53-9.97,19.59-124.01-1-144.38Z"/>
    <path class="cls-5" d="M312.82,185.79c-17.65-8.2-83.5-5.16-100.59,8.65-9.39,7.59-7.5,44.17,4.26,41.51,27.43-6.19,85.44-11.4,102.11-11.13,8.34.14,5.09-33.99-5.78-39.03Z"/>
    <path class="cls-8" d="M233.01,177.18c-2.93,0-5.62-1.92-6.48-4.87-1.03-3.58,1.03-7.32,4.61-8.35,1.22-.35,30.33-8.61,62.23-4.16,3.69.51,6.26,3.92,5.75,7.61-.51,3.69-3.91,6.26-7.61,5.75-29.08-4.05-56.35,3.68-56.63,3.76-.62.18-1.26.27-1.88.27Z"/>
    <path class="cls-5" d="M212.29,255.82c-.32-2.08.98-9.56,7.82-11.97,6.24-2.21,13.13,3.34,13.59,5.67.35,1.8-4.74-.87-12.42,1.08-6.2,1.57-8.46,8.67-8.99,5.22Z"/>
    <path class="cls-5" d="M324.23,245.96c.1-2.23-1.69-10-7.8-11.83-5.58-1.67-11.03,4.91-11.22,7.43-.15,1.94,4.4-1.9,10.9-.69,5.73,1.07,7.96,8.79,8.12,5.09Z"/>
    <path class="cls-1" d="M250.39,231.83c-2.58-3.61-7.92-6.23-20.82-6.69-12.89-.45-25.15,3.47-30.51,7.6-3.99,3.09-4.61,10.01-4.66,13.36.45,4.5,2.11,14.25,5.49,20.9,3.58,7.11,8.32,10.62,15.87,11.73,7.53,1.11,16.99-.3,23.47-3.51,6.99-3.47,11.44-10.44,12.54-19.59,1.23-10.16.4-19.91-1.09-23.44-.12-.1-.21-.24-.28-.37Z"/>
    <path class="cls-2" d="M328.39,214.2c-6.34-2.47-19.23-2.77-31.45,1.29-12.23,4.05-16.6,8.06-18.01,12.26-.06.15-.11.29-.16.43-.41,3.79,1.61,13.36,5.73,22.76,3.72,8.49,10.01,13.89,17.71,15.25,7.13,1.26,16.56-.03,23.51-3.23,6.95-3.2,10.43-7.87,11.81-15.69,1.29-7.33.07-17.14-.8-21.59-1.03-3.2-3.63-9.66-8.34-11.48Z"/>
    <path class="cls-9" d="M338.82,215.21c-2.68.39-4.92.25-5-.29s2.03-1.29,4.71-1.67c2.67-.38,4.91-.26,4.99.28s-1.99,1.28-4.7,1.67h0ZM337.52,247.28c-1.37,7.79-4.9,12.51-11.8,15.68-6.91,3.18-16.38,4.49-23.51,3.23-7.71-1.36-13.99-6.78-17.71-15.25-4.12-9.39-6.14-18.97-5.73-22.76.05-.14.11-.28.16-.43,1.41-4.2,5.79-8.21,18.01-12.26,12.23-4.06,25.11-3.76,31.45-1.29,4.71,1.83,7.3,8.29,8.34,11.48.86,4.45,2.08,14.26.8,21.59h-.01ZM251.74,255.64c-1.1,9.18-5.56,16.13-12.54,19.59-6.47,3.21-15.88,4.62-23.47,3.51-7.59-1.11-12.29-4.61-15.86-11.72-3.36-6.66-5.04-16.41-5.49-20.92.07-3.36.67-10.27,4.66-13.35,5.36-4.15,17.62-8.06,30.51-7.6,12.88.45,18.24,3.06,20.82,6.69.09.13.19.25.28.37,1.49,3.52,2.33,13.26,1.09,23.42ZM189.31,236.65c-2.67.38-4.91.25-4.99-.29s2-1.3,4.7-1.68c2.71-.39,4.92-.25,5,.29s-2.02,1.3-4.71,1.69ZM334.77,207.74c-7.63-.29-33.6.36-49.39,5.85-15.37,5.33-13.23,9.12-12.84,10.65-2.83-1.36-5.97-1.55-8.92-1.13-2.94.42-5.91,1.45-8.22,3.59-.07-1.55.85-5.8-15.41-6.59-16.74-.82-42.03,5.9-49.25,8.31-7.23,2.42-10.39,4.88-10.39,4.88l.6,4.07c.3,2.01,1.78,3.67,3.77,4.12.9.21,1.76.69,2.44,1.42,2.3,2.26,3.15,4.36,5.6,4.96.66,5.07,2.41,13.79,5.53,20,3.83,7.6,9.13,11.52,17.21,12.69,4.1.55,8.26.52,12.33-.1,4.2-.54,8.29-1.73,12.12-3.54,7.53-3.74,12.33-11.19,13.51-20.98,1.07-8.89.54-17.33-.59-22.1.67.11,1.32-.21,1.67-.81h.08c.11-.15.21-.31.29-.46.77-1.16,3.32-4.22,9.37-5.09,6.05-.87,9.37,1.35,10.43,2.25.12.14.04.28.17.38l-.2.03c.63.46,1.43.56,2.13.26.29,4.89,2.41,13.11,6.01,21.32,3.97,9.06,10.76,14.84,19.08,16.31,4.21.66,8.48.65,12.67-.01,4.09-.55,8.08-1.69,11.86-3.37,7.38-3.39,11.33-8.64,12.79-16.99,1.21-6.83.32-15.69-.52-20.71,2.18-1.24,2.18-3.49,3.73-6.3.51-.93,1.1-1.53,1.69-1.92,1.69-1.12,2.68-3.03,2.38-5.03l-.61-4.13s-3.5-1.51-11.13-1.8Z"/>
    <path class="cls-5" d="M272.3,266.1c6.81.74,11.52,8.9,10.5,18.21-1.01,9.3-7.37,16.25-14.19,15.5-6.82-.74-11.52-8.9-10.51-18.2,1.02-9.31,7.38-16.25,14.2-15.51Z"/>
  </g>
</svg>