<?xml version="1.0" encoding="UTF-8"?>
<svg xmlns="http://www.w3.org/2000/svg" viewBox="0 0 500 500">
  <defs>
    <style>
      .cls-1 {
        opacity: .2;
      }

      .cls-2 {
        opacity: .18;
      }

      .cls-3 {
        opacity: .67;
      }

      .cls-4 {
        fill-rule: evenodd;
      }

      .cls-4, .cls-5, .cls-6, .cls-7, .cls-8, .cls-9, .cls-10, .cls-11, .cls-12, .cls-13 {
        stroke-width: 0px;
      }

      .cls-4, .cls-13 {
        fill: #fff;
      }

      .cls-6 {
        fill: #f2f2f2;
      }

      .cls-7 {
        fill: #282c33;
      }

      .cls-8 {
        fill: #49a6ad;
      }

      .cls-9 {
        fill: #869eb4;
      }

      .cls-10 {
        fill: #c2c2c2;
      }

      .cls-11 {
        fill: #a0a0a0;
      }

      .cls-12 {
        fill: #ececec;
      }
    </style>
  </defs>
  <g id="stiker_style" data-name="stiker style">
    <path class="cls-13" d="M103.26,361.74c.61,1.02,1.47,1.88,2.52,2.46,3.42,1.9,8.21,2.52,12.43,3.06,6.61.85,16,1.61,27.91,2.26,24.22,1.32,56.39,2.05,90.58,2.05s66.36-.73,90.58-2.05c11.9-.65,21.29-1.41,27.91-2.26,7.57-.98,17-2.19,17-10.64,0-7.79-8.36-9.25-12.38-9.95-3.94-.69-9.61-1.33-16.84-1.91-12.08-.97-28.2-1.75-47.03-2.29.66-3.77.88-6.85.73-10.83,1.91-1.42,3.64-2.95,5.21-4.6,16.61,2.71,33.73.66,49.26-5.86,1.6,1.19,3.27,1.86,4.73,2.22l.39.09c4.42.87,8.95.08,12.81-2.21,3-1.55,5.41-4.08,6.81-7.16l.24-.53.02-.07c.78-2.72.88-5.58.3-8.35v-.07c30.08-27.13,38.78-72.02,20.47-108.65l-.35-.7c-22.42-44.16-76.58-61.84-120.75-39.42-1.96,1-3.93,2.1-5.89,3.3-10.11-2.31-22.01-3.35-36.29-3.17-37.58.48-59.84,6.72-72.19,20.24-14.58,15.96-12.78,39.23-10.87,63.86,1.95,25.25,5.41,43.93,7.87,54.85-3.9-2.75-8.95-3.75-13.86-2.35-.19.05-.39.11-.59.17-7.37,2.25-11.88,9.48-10.96,16.88l-27.07,13.79c-8.86,4.56-12.44,15.51-7.99,24.42l3.39,6.78c-.11.6-.14,1.13-.14,1.54,0,0,0,.01,0,.02,0,1.16.37,2.29.97,3.28l1.08,1.81ZM167.91,342.77s-.06,0-.1,0l.09-.05s0,.03,0,.04Z"/>
  </g>
  <g id="Bubus">
    <g>
      <ellipse class="cls-9" cx="236.69" cy="356.62" rx="127.48" ry="6.94"/>
      <path class="cls-7" d="M233.72,164.46c-79.03,1.01-78.86,28.09-75.18,75.48,2.52,32.75,7.78,56.44,11.35,67.47,5.3,16.21,13.41,32.68,67.2,30.99,53.78-1.69,61.5-18.51,65.37-26.83,3.87-8.33,8.27-59.77,5.54-84.8-3.15-30.24-1.21-63.24-74.29-62.31Z"/>
      <path class="cls-7" d="M277.67,357.78c-4.58,0-8.29-3.71-8.29-8.29,0-.43.03-.86.1-1.29l.25-1.57q1.26-7.9,1.39-23.99l.02-2.06c.04-4.54,3.73-8.21,8.28-8.21.02,0,.05,0,.07,0,4.57.04,8.25,3.77,8.21,8.34h0s-.02,2.06-.02,2.06c-.14,16.69-.14,17.34-1.6,26.47l-.25,1.56c-.64,4.02-4.1,6.97-8.17,6.98Z"/>
      <path class="cls-7" d="M185.01,356.98c-3.85-.01-7.18-2.66-8.07-6.4-.33-1.39-3.08-14.16,1.17-35.79.9-4.48,5.26-7.39,9.74-6.49,4.46.89,7.37,5.22,6.5,9.69-3.57,18.14-1.31,28.74-1.29,28.84,1.04,4.45-1.73,8.9-6.19,9.94-.61.14-1.24.21-1.87.22h0Z"/>
      <path class="cls-13" d="M291.32,194.84c6.21,4.79,8.09,15.22,8.24,26.13.13,9.26-1.35,17-13.98,15.62-12.63-1.38-78.77,0-102.41,2.94-14.16,1.73-14.56-27.75-6.83-38.67,9.15-12.91,45.22-14.42,69.16-14.68,22.1-.21,37.86,2.58,45.82,8.65Z"/>
      <path class="cls-13" d="M210.06,181.73c-3.04,0-5.5-2.47-5.49-5.51,0-2.75,2.03-5.07,4.75-5.44,17.91-2.45,36.06-2.53,53.99-.26,3.01.38,5.15,3.14,4.76,6.15-.38,3.01-3.14,5.15-6.15,4.76h0c-16.98-2.15-34.16-2.07-51.11.24-.25.03-.5.05-.75.05Z"/>
      <path class="cls-7" d="M277.67,357.77c-4.57,0-8.28-3.71-8.28-8.28,0-.66.08-1.32.24-1.97q2.95-12.02,1.58-25.89l-.02-.17c-.45-4.55,2.87-8.6,7.42-9.05,4.55-.45,8.6,2.87,9.05,7.42h0l.02.16c1.6,16.23,1.55,17.11-1.98,31.47-.91,3.7-4.22,6.3-8.03,6.31Z"/>
      <path class="cls-7" d="M185.01,356.98c-3.85-.01-7.18-2.66-8.07-6.4-.33-1.39-3.08-14.16,1.17-35.79.9-4.48,5.26-7.39,9.74-6.49,4.46.89,7.37,5.22,6.5,9.69-3.57,18.14-1.31,28.74-1.29,28.84,1.04,4.45-1.73,8.9-6.19,9.94-.61.14-1.24.21-1.87.22h0Z"/>
      <path class="cls-4" d="M292.18,243.78c5.76.15,10.31,4.94,10.16,10.71-.15,5.76-4.94,10.31-10.71,10.16s-10.31-4.94-10.16-10.71h0c.15-5.76,4.94-10.31,10.71-10.16Z"/>
      <path class="cls-4" d="M193.6,246.21c6.59.17,11.79,5.65,11.62,12.24-.17,6.59-5.65,11.79-12.24,11.62-6.59-.17-11.79-5.65-11.62-12.24.17-6.59,5.65-11.79,12.24-11.62Z"/>
      <path class="cls-13" d="M246.45,310.42c-11.47,0-21.37-2.33-29.46-6.92-6.54-3.72-9.5-7.61-10.03-8.36l11.16-7.9-.07-.1c1.82,2.03,4.01,3.69,6.46,4.89,4.25,2.26,11.74,4.93,23.22,4.71h.18c9.41.08,18.15-3.96,23.37-10.81,2.29-3.01,6.58-3.59,9.58-1.3,3.01,2.29,3.59,6.58,1.3,9.58-7.74,10.17-20.41,16.21-33.96,16.21-.11,0-.22,0-.33,0-.48,0-.95.01-1.42.01Z"/>
      <path class="cls-7" d="M346.89,305.76c-37.75,16.85-82.02-.1-98.87-37.85-16.85-37.75.1-82.02,37.85-98.87,11.63-5.19,24.39-7.33,37.08-6.21,4.58.4,9.12,1.22,13.55,2.45,5.37,1.49,10.55,3.58,15.45,6.23,2.87,21.87,4.09,62.43-5.06,134.25Z"/>
      <circle class="cls-13" cx="303.04" cy="239.77" r="20.21"/>
      <path class="cls-13" d="M336.49,165.27c-2.72,24.07-16.4,24.72-29.23,23.29-8.32-.92-30.32-.89-47.01-.71,19-21.48,48.6-30.25,76.23-22.58h0Z"/>
      <polygon class="cls-12" points="171.05 303.22 179.89 320.91 252.49 283.91 243.65 266.23 171.05 303.22"/>
      <path class="cls-10" d="M251.4,284.47l-40.57-1.51,31.73-16.17s3.95,10.39,8.84,17.69Z"/>
      <g class="cls-1">
        <ellipse class="cls-6" cx="316.38" cy="237.39" rx="77.29" ry="76.61" transform="translate(52.14 531.72) rotate(-84.97)"/>
      </g>
      <g class="cls-2">
        <path class="cls-5" d="M282.36,295.13c13.32,5.14,27.57,7.43,41.83,6.73,13.72-.6,28.59-3.43,40.64-10.4,5.04-2.84,9.63-6.42,13.63-10.6-24.52,34.24-72.16,42.12-106.4,17.6-8.21-5.88-15.16-13.32-20.47-21.91,8.84,8.1,19.72,14.28,30.77,18.58Z"/>
      </g>
      <path class="cls-11" d="M105.12,344.73l3.81,7.62c2.47,4.99,8.52,7.03,13.5,4.56.03-.02.07-.03.1-.05l74.42-37.92c.82-.42,1.15-1.43.74-2.26l-11.42-22.86c-.41-.82-1.4-1.16-2.22-.75,0,0-.01,0-.02,0l-74.42,37.92c-5.01,2.57-7.01,8.7-4.49,13.73Z"/>
      <polygon class="cls-8" points="171.27 299.47 184.2 325.34 187.28 323.76 174.36 297.9 171.27 299.47"/>
      <polygon class="cls-8" points="163.95 303.4 176.88 329.27 179.96 327.69 167.04 301.83 163.95 303.4"/>
      <path class="cls-11" d="M279.43,163.45c40.29-20.46,89.53-4.38,109.99,35.91.11.22.22.43.33.65,20.37,40.77,4.04,90.72-36.41,111.33-40.29,20.46-89.53,4.38-109.99-35.91-.11-.22-.22-.43-.33-.65-20.37-40.77-4.04-90.72,36.41-111.33ZM282.8,170.19c-36.77,18.74-51.61,64.13-33.1,101.18,18.26,36.78,62.89,51.79,99.67,33.53.2-.1.39-.2.59-.3,36.77-18.74,51.61-64.13,33.1-101.18-18.26-36.78-62.89-51.79-99.67-33.53-.2.1-.39.2-.59.3Z"/>
      <g class="cls-3">
        <path class="cls-13" d="M347.28,182.64c10.73,3.51,20.04,11.25,26.3,20.6,5.39,8.07,8.69,18.99,5.58,28.58-.47,1.46-2.88,1.92-3.25.11-1.72-8.47-4.14-16.49-9.08-23.66-5.64-8.19-14.03-13.05-22.47-17.81-3.98-2.25-1.72-9.35,2.93-7.83Z"/>
      </g>
      <path class="cls-8" d="M241.34,230.67c3.7-41.98,40.55-73.14,82.16-69.48,41.61,3.66,72.45,40.8,68.75,82.77-3.7,41.98-40.56,73.14-82.16,69.48-41.61-3.66-72.45-40.8-68.75-82.77ZM242.78,230.8c-3.63,41.18,26.63,77.6,67.45,81.2,40.82,3.59,76.97-26.98,80.6-68.16,3.63-41.18-26.63-77.6-67.45-81.2-40.82-3.59-76.97,26.98-80.6,68.16h0Z"/>
      <path class="cls-7" d="M365.17,314.27c1.51-.72,2.72-1.95,3.41-3.47.36-1.26.38-2.59.04-3.86-.63-3.1-1.14-6.19-1.96-9.25-1.19-4.02-5.41-6.32-9.44-5.14-.14.04-.28.09-.41.14-3.93,1.22-6.37,5.13-5.74,9.2.28,1.38.65,2.73,1.12,4.06,1.12,3.55,1.2,8.59,5.59,9.69,2.55.5,5.19.01,7.39-1.37Z"/>
      <path class="cls-7" d="M154.47,331.05c-2.39-.1-4.63-1.21-6.15-3.06-.67-.83-1.89-1.43-7.08-17.6-1.23-4.03,1.05-8.29,5.07-9.52.12-.04.24-.07.36-.1,4.24-1.26,8.72,1.02,10.19,5.19,4.32,13.47,4.41,12.67,4.46,12.73,2.59,3.17,2.13,7.85-1.05,10.44-.16.13-.32.25-.48.36-1.54,1.11-3.42,1.65-5.32,1.55Z"/>
    </g>
  </g>
</svg>