<?xml version="1.0" encoding="UTF-8"?>
<svg xmlns="http://www.w3.org/2000/svg" viewBox="0 0 500 500">
  <defs>
    <style>
      .cls-1 {
        fill: #869eb4;
        fill-rule: evenodd;
      }

      .cls-1, .cls-2, .cls-3, .cls-4 {
        stroke-width: 0px;
      }

      .cls-2 {
        fill: #282c33;
      }

      .cls-3 {
        fill: #fff;
      }

      .cls-4 {
        fill: #e65b0a;
      }
    </style>
  </defs>
  <g id="stiker_style" data-name="stiker style">
    <path class="cls-3" d="M377.78,175.08l-6.51-2.99-1.23-7.11c-.83-4.69-4.88-8.09-9.63-8.09-2.72,0-5.34,1.16-7.17,3.15l-4.9,5.29-4.5-.65,3.8-3.14c2.52-2.05,3.96-5.09,3.96-8.36,0-5.08-3.46-9.42-8.4-10.54l-13.5-3.11-5.09-12.9c-1.63-4.16-5.58-6.85-10.06-6.85-3.81,0-7.38,2.04-9.27,5.25l-7.17,11.95-4.25.27c1.76-2.06,2.73-4.66,2.73-7.39,0-5.86-4.39-10.74-10.18-11.34l-17.59-1.89-8.43-15.59c-2-3.67-5.84-5.95-10.02-5.95-4.48,0-8.56,2.64-10.41,6.74l-7.23,16.15-17.38,3.2c-5.43.98-9.37,5.7-9.37,11.22,0,1.27.22,2.51.62,3.68h-6.75l-7.88-11.36c-2.01-2.94-5.34-4.69-8.91-4.69-4.72,0-8.85,3.03-10.29,7.52l-4.24,13.21-13.31,4.01c-4.58,1.4-7.66,5.56-7.66,10.34,0,3.45,1.67,6.72,4.5,8.77l3.93,2.83-5.79,1.28-5.24-4.89c-1.82-1.71-4.2-2.65-6.7-2.65-5.04,0-9.22,3.78-9.72,8.83l-.7,7.2-6.23,3.46c-3.15,1.71-5.11,5-5.11,8.59,0,3.9,2.32,7.43,5.87,8.96l6.63,2.91,1.38,7.05c.87,4.61,4.9,7.95,9.6,7.95.82,0,1.61-.11,2.39-.31-1.49,3.29-1.77,7.13-.47,10.8,5.1,14.39,10.7,21.47,11.77,22.74,2.77,3.29,6.82,5.18,11.12,5.18,2.42,0,4.79-.62,6.89-1.76.44,6.24,1.25,12.69,2.07,19.24,3.75,29.91,9.74,52.97,14.12,64.6,1.69,4.43,3.64,8.81,6.41,12.84-.35,5.15-.33,9.61-.12,13.34-16.12,2.44-25.95,6.01-25.95,14.78,0,9.42,11.37,12.85,29.72,15.31,15.04,2.02,34.93,3.13,56.03,3.13s40.99-1.11,56.03-3.13c18.34-2.46,29.71-5.88,29.71-15.31,0-8.59-9.45-12.2-25-14.63.27-3.27.29-5.91.13-11.08,7.97-6.18,10.64-12.72,12.43-17.08,4.29-10.51,5.44-61.55,1.9-83.99-.27-1.78-.52-3.57-.78-5.36-.55-3.91-1.12-7.96-1.91-12.01.46.27.94.53,1.44.75,1.75.77,3.59,1.16,5.49,1.16,5.38,0,10.27-3.18,12.44-8.1,4.36-9.86,5.63-16.94,6.01-20.05l2.57,2.5c1.83,1.85,4.35,2.9,6.95,2.9,5,0,9.16-3.72,9.71-8.67l.85-7.16,6.35-3.35c3.23-1.7,5.24-5.02,5.24-8.66,0-3.84-2.25-7.32-5.74-8.9ZM248.3,188.15c-35.36,2.14-56.06,9.04-67.13,22.37-3.83,4.62-6.3,9.76-7.81,15.29-1.21-2.28-2.69-5.46-4.17-9.63-1.29-3.65-3.93-6.58-7.43-8.24-.28-.13-.56-.24-.85-.35,5.14-.28,9.24-4.53,9.24-9.74,0-.55-.07-1.11-.16-1.65,1.18.45,2.46.7,3.8.7,2.33,0,4.62-.76,6.41-2.1l11.18-8.21,13.11,4.57c1.13.39,2.31.59,3.5.59,5.96,0,10.81-4.85,10.81-10.81,0-1.11-.16-2.19-.51-3.28l-4.34-13.18,8.34-10.98c.17-.22.33-.45.49-.69l-2.34,17.53c-.06.5-.09.97-.09,1.45,0,6.29,5.12,11.41,11.41,11.41,1.98,0,3.94-.52,5.68-1.51l15.35-8.81,15.9,7.62c1.55.77,3.3,1.18,5.05,1.18,3.98,0,7.48-2.05,9.52-5.14l-.79,3.07c-.23.88-.35,1.8-.35,2.73,0,3.05,1.28,5.8,3.32,7.77-9.79-2.08-21.96-2.88-37.14-1.94ZM152.06,206.67l.9.11c-.42.08-.84.17-1.25.28l.35-.39ZM285.1,169.39c-.04-.58-.12-1.15-.25-1.71l-.75-3.57,1.83,2.1-.82,3.19ZM295.25,192.87c.66-.14,1.31-.35,1.94-.61l12.71-5.45,11.73,7.44c1.71,1.09,3.7,1.66,5.75,1.66.06,0,.11,0,.17,0-1.61,2.11-2.56,4.63-2.73,7.29-.06.49-.65,4.93-3.82,12.14-4.53-9.33-12.14-17.48-25.76-22.45Z"/>
  </g>
  <g id="Bubus">
    <path class="cls-1" d="M253.94,366.37c42.91,0,77.74,4.68,77.74,10.45s-34.83,10.44-77.74,10.44-77.75-4.68-77.75-10.44,34.84-10.45,77.75-10.45Z"/>
    <g>
      <path class="cls-2" d="M248.79,196.14c-74.06,4.48-72.68,29.86-67.12,74.13,3.83,30.59,9.83,52.57,13.66,62.75,5.7,14.97,14.04,30.04,64.4,26.06,50.35-3.99,56.84-20.11,60.1-28.08,3.25-7.97,5.08-56.41,1.4-79.76-4.31-28.26-3.97-59.31-72.44-55.1Z"/>
      <path class="cls-2" d="M298.26,375.43c-.29,0-.57-.02-.86-.05-4.27-.47-7.34-4.31-6.87-8.58l.17-1.49q.83-7.47.24-22.58l-.08-1.91c-.17-4.29,3.17-7.9,7.46-8.07,4.29-.16,7.9,3.17,8.07,7.46l.08,1.91c.63,15.97.64,16.28-.32,24.91l-.16,1.48c-.44,3.97-3.81,6.92-7.71,6.92Z"/>
      <path class="cls-2" d="M211.27,378.81c-3.39,0-6.51-2.24-7.49-5.65-.37-1.28-3.52-13.14-.5-33.61.63-4.25,4.58-7.18,8.82-6.55,4.25.63,7.18,4.58,6.55,8.82-2.53,17.18.05,27.01.08,27.11,1.18,4.12-1.21,8.4-5.33,9.59-.71.2-1.43.3-2.13.3Z"/>
      <path class="cls-3" d="M304.16,221.09c6.04,4.21,8.27,13.91,8.89,24.13.53,8.68-.51,16.01-12.41,15.28-11.91-.73-73.85,3.55-95.9,7.32-13.2,2.26-14.9-25.36-8.13-35.95,8-12.51,41.75-15.54,64.18-16.85,20.74-1.19,35.62.78,43.37,6.07Z"/>
      <path class="cls-3" d="M227.19,210.82c-1.68,0-3.17-1.19-3.49-2.91-.36-1.93.92-3.78,2.85-4.14,16.5-3.06,33.34-3.94,50.06-2.63,1.96.15,3.42,1.86,3.26,3.82s-1.86,3.42-3.82,3.26c-16.1-1.26-32.31-.41-48.2,2.53-.22.04-.44.06-.65.06Z"/>
      <path class="cls-2" d="M333.38,226.58c-.76,0-1.53-.15-2.26-.48-2.83-1.25-4.11-4.56-2.86-7.39,4.12-9.33,4.54-14.85,4.54-14.9.18-3.09,2.81-5.46,5.91-5.27,3.09.18,5.45,2.82,5.27,5.91-.04.75-.56,7.67-5.48,18.8-.93,2.09-2.98,3.34-5.13,3.34Z"/>
      <path class="cls-2" d="M164.77,245.78c-1.86,0-3.71-.79-5-2.32-.56-.67-5.61-6.9-10.35-20.26-1.2-3.38.57-7.09,3.95-8.29,3.38-1.2,7.09.57,8.29,3.95,3.94,11.13,8.04,16.23,8.08,16.28,2.31,2.74,1.94,6.82-.81,9.13-1.21,1.02-2.69,1.52-4.16,1.52Z"/>
      <path class="cls-3" d="M307.97,271.83c-5.41-2.81-12.02,1.15-14.04,8.1-.48,1.61,1.01,2.8,2.19,1.79,2.26-2.16,5.49-3,8.52-2.22,2.39.77,4.33,2.55,5.31,4.86.64,1.41,2.55.76,2.81-.95,0-.26.03-.52.09-.79.43-4.62-1.43-9-4.88-10.79Z"/>
      <path class="cls-3" d="M221.84,285.19v-.13c-2.01-5.84-8.06-9.36-13.64-7.93-6.13,1.57-9.61,8.26-7.76,14.77.07.22.13.43.2.65.24.93,1.09,1.6,2.06,1.6.81,0,1.55-.46,1.91-1.18,1.33-2.79,3.78-4.89,6.75-5.76,2.55-.71,5.27-.46,7.64.7.27.12.55.18.84.18,1.17,0,2.14-.97,2.14-2.14,0-.26-.05-.52-.14-.76Z"/>
      <path class="cls-3" d="M293.27,294.12c-27.45,16.96-52.58,10.36-64.74,6.51-17.18-5.44-13.43,36.74,19.14,40.46,36.39,4.22,47.1-15.1,51.62-25.41,4-9.15,4.48-28.06-6.02-21.56Z"/>
      <path class="cls-4" d="M272.21,173.31l-18.14-8.69c-1.01-.48-2.2-.44-3.17.12l-17.44,10.01c-.51.29-1.1.45-1.7.45-1.87,0-3.41-1.54-3.41-3.41,0-.15.01-.3.03-.46l2.66-19.93c.16-1.11-.23-2.23-1.04-2.99l-14.91-13.49c-.72-.65-1.12-1.57-1.12-2.53,0-1.64,1.18-3.06,2.79-3.35l19.78-3.64c1.1-.2,2.04-.94,2.5-1.97l8.21-18.34c.55-1.22,1.77-2.01,3.11-2.01,1.25,0,2.4.68,3,1.78l9.56,17.69c.53.99,1.52,1.65,2.64,1.77l19.99,2.15c1.72.18,3.04,1.65,3.04,3.39,0,.87-.33,1.71-.94,2.35l-13.87,14.56c-.77.81-1.09,1.95-.87,3.04l4.14,19.66c.07.26.1.53.1.79,0,1.87-1.54,3.41-3.41,3.41-.53,0-1.06-.12-1.53-.36Z"/>
      <path class="cls-4" d="M207.11,183.59l-15.67-5.46c-.87-.3-1.84-.15-2.58.39l-13.38,9.83c-.48.36-1.07.55-1.67.55-1.54,0-2.81-1.27-2.81-2.81v-.07l.35-16.59c.02-.93-.41-1.81-1.16-2.35l-13.47-9.7c-.73-.53-1.17-1.38-1.17-2.28,0-1.24.82-2.33,2-2.69l15.89-4.79c.89-.26,1.59-.95,1.87-1.84l5.07-15.8c.37-1.16,1.45-1.96,2.67-1.96.92,0,1.79.45,2.31,1.21l9.46,13.63c.53.76,1.4,1.21,2.32,1.21h16.62c1.54,0,2.8,1.27,2.8,2.81,0,.62-.2,1.22-.58,1.71l-10.04,13.21c-.56.74-.72,1.71-.43,2.59l5.19,15.76c.08.25.11.52.11.78,0,1.54-1.26,2.81-2.81,2.81-.3,0-.6-.05-.89-.15Z"/>
      <path class="cls-4" d="M160.19,199.61l-10.4-1.28c-.58-.07-1.16.15-1.55.59l-6.95,7.85c-.33.39-.82.61-1.33.61-.85,0-1.59-.62-1.74-1.45l-2.01-10.28c-.11-.58-.5-1.06-1.04-1.29l-9.6-4.21c-.65-.28-1.08-.92-1.08-1.63,0-.65.36-1.25.93-1.56l9.15-5.08c.52-.29.86-.82.91-1.41l1.01-10.43c.09-.9.86-1.6,1.76-1.6.46,0,.89.17,1.22.48l7.66,7.15c.43.4,1.03.56,1.6.43l10.23-2.26c.13-.03.26-.04.39-.04.97,0,1.77.79,1.77,1.76,0,.27-.06.53-.17.77l-4.41,9.58c-.25.54-.22,1.16.08,1.66l5.33,9.03c.14.26.22.55.22.85,0,.97-.8,1.77-1.77,1.77-.07,0-.14,0-.21-.01Z"/>
      <path class="cls-4" d="M325.92,187.49l-14.04-8.9c-.78-.49-1.76-.57-2.61-.21l-15.23,6.53c-.35.15-.72.22-1.1.22-1.54,0-2.81-1.26-2.81-2.8,0-.24.03-.48.09-.7l4.14-16.08c.23-.89,0-1.84-.6-2.54l-10.9-12.52c-.45-.52-.7-1.18-.7-1.86,0-1.48,1.17-2.72,2.65-2.8l16.57-1.04c.93-.07,1.77-.6,2.23-1.41l8.54-14.23c.5-.85,1.42-1.37,2.41-1.37,1.15,0,2.19.7,2.61,1.77l6.1,15.45c.33.86,1.08,1.5,1.98,1.71l16.17,3.72c1.28.29,2.19,1.43,2.19,2.74,0,.84-.37,1.64-1.03,2.17l-12.79,10.58c-.71.58-1.09,1.49-1.01,2.41l1.41,16.52c.01.09.01.17.01.25,0,1.54-1.27,2.81-2.81,2.81-.52,0-1.03-.14-1.47-.42Z"/>
      <path class="cls-4" d="M360.06,203.26l-7.51-7.3c-.42-.41-1.01-.58-1.58-.46l-10.27,2.05c-.11.02-.23.03-.35.03-.97,0-1.77-.8-1.77-1.77,0-.27.06-.55.19-.79l4.63-9.39c.27-.52.27-1.14,0-1.66l-5.11-9.14c-.15-.27-.23-.57-.23-.88,0-.97.79-1.76,1.77-1.76.08,0,.17,0,.26.02l10.36,1.5c.57.08,1.16-.12,1.55-.55l7.12-7.69c.34-.37.81-.58,1.3-.58.86,0,1.6.63,1.75,1.48l1.78,10.31c.1.58.48,1.07,1.01,1.31l9.52,4.38c.64.28,1.04.92,1.04,1.61s-.37,1.27-.96,1.58l-9.26,4.88c-.53.28-.89.81-.94,1.41l-1.24,10.4c-.09.89-.86,1.58-1.76,1.58-.49,0-.96-.21-1.3-.57Z"/>
      <path class="cls-3" d="M243.02,126.33c-.15,0-.31-.03-.46-.08-.67-.25-1.01-1-.76-1.67l3.5-9.29c.25-.67,1-1.01,1.67-.76.67.25,1.01,1,.76,1.67l-3.5,9.29c-.2.52-.69.84-1.22.84Z"/>
      <path class="cls-3" d="M236.48,129.3c-.6,0-1.13-.41-1.27-1.02-.15-.7.29-1.39.99-1.55l2.63-.58c.7-.16,1.39.29,1.55.99.15.7-.29,1.39-.99,1.55l-2.63.58c-.09.02-.19.03-.28.03Z"/>
    </g>
  </g>
</svg>