<?xml version="1.0" encoding="UTF-8"?>
<svg xmlns="http://www.w3.org/2000/svg" viewBox="0 0 500 500">
  <defs>
    <style>
      .cls-1, .cls-2 {
        opacity: .07;
      }

      .cls-1, .cls-2, .cls-3, .cls-4, .cls-5, .cls-6, .cls-7, .cls-8, .cls-9, .cls-10, .cls-11, .cls-12, .cls-13, .cls-14, .cls-15, .cls-16, .cls-17, .cls-18, .cls-19 {
        stroke-width: 0px;
      }

      .cls-2, .cls-3, .cls-4, .cls-5, .cls-6, .cls-7 {
        fill-rule: evenodd;
      }

      .cls-3, .cls-8 {
        fill: #5f382b;
      }

      .cls-4 {
        fill: #869eb4;
      }

      .cls-5, .cls-12 {
        fill: #d88c66;
      }

      .cls-6, .cls-16 {
        fill: #fff;
      }

      .cls-7, .cls-13 {
        fill: #b96b43;
      }

      .cls-9 {
        fill: #282c33;
      }

      .cls-10 {
        fill: #c9c4bf;
      }

      .cls-11 {
        fill: #dbd5d0;
      }

      .cls-14 {
        fill: #ba6c44;
      }

      .cls-15 {
        fill: #ed9e7e;
      }

      .cls-17 {
        fill: #e7ded5;
      }

      .cls-18 {
        fill: #e9ac8d;
      }

      .cls-19 {
        fill: linen;
      }
    </style>
  </defs>
  <g id="stiker_style" data-name="stiker style">
    <path class="cls-16" d="M383.78,349.34c-.18-.06-.38-.12-.57-.18,2.89-3.08,4.69-7.43,4.69-12.26v-110.28l-.08-8h-.84c4.43-18.16,3.94-22.33.57-25.69-.85-.86-3.25-3.06-14.23-12.49-4.25-3.74-9.71-6.01-15.4-6.42-.48-.05-.96-.07-1.44-.08h-29.86c-1.88-25.43-19.73-36.87-60.75-40.05-31.71-2.47-50.13,4.12-58.85,21.3l-11.85,1.55-49.83,3.02,2.39,4.1-7.85.84,7.05,10.92s15.75,25.07,15.75,25.07l5.27,14.96h-21.94c-6.43,0-11.67,5.24-11.67,11.67v69.24c-1.91,2.75-2.96,6.03-2.97,9.42v31.16c0,4.61,1.89,8.79,4.93,11.81-3.53.93-7.92,3.08-7.92,8.64,0,2.63,1.15,7.29,8.88,8.88,1.91.39,4.53.75,7.99,1.1,6.34.63,15.36,1.2,26.81,1.68,23.32.98,54.3,1.53,87.23,1.53s63.91-.54,87.24-1.53c11.45-.48,20.47-1.05,26.81-1.68,3.46-.35,6.08-.71,7.99-1.1,7.73-1.59,8.88-6.25,8.88-8.88,0-1.43-.46-6.25-6.45-8.25Z"/>
  </g>
  <g id="Bubus">
    <path class="cls-4" d="M259.31,352.39c67.84,0,122.92,2.33,122.92,5.19s-55.08,5.19-122.92,5.19-122.91-2.32-122.91-5.19,55.07-5.19,122.91-5.19Z"/>
    <path class="cls-13" d="M356.07,181.94h0c4.4,0,8.66,1.6,11.97,4.51,5.16,4.43,12.43,10.7,13.84,12.12,2.24,2.23-7.37,36-7.37,36l-25.14-2.75,6.7-49.88Z"/>
    <path class="cls-3" d="M166.92,342.79h-14.89v9.15c0,1.32.52,2.59,1.46,3.53.94.94,2.21,1.47,3.54,1.47h4.89c1.33,0,2.6-.53,3.54-1.47.93-.94,1.46-2.21,1.46-3.53v-9.15Z"/>
    <rect class="cls-8" x="203.41" y="329.74" width="14.89" height="25.84" rx="5" ry="5"/>
    <path class="cls-3" d="M318.83,342.79h-16.38v11.38c0,2.76,2.24,5,5,5h6.38c2.76,0,5-2.24,5-5v-11.38Z"/>
    <path class="cls-3" d="M368.73,342.79h-14.9v9.15c0,1.32.53,2.59,1.47,3.53.93.94,2.21,1.47,3.53,1.47h4.9c1.32,0,2.59-.53,3.53-1.47.94-.94,1.47-2.21,1.47-3.53v-9.15Z"/>
    <path class="cls-18" d="M356.38,181.94h-119.89c-4.92.05-8.93,4.1-8.94,9.02l-16.63,60.89c.02,4.91,4.03,8.95,8.94,8.99h119.89c4.9,0,8.94-4.04,8.94-8.94,0,0,13.37-49.09,16.12-59.17.82-3.02-.11-6.25-2.41-8.38-1.6-1.46-3.71-2.38-6.02-2.41Z"/>
    <rect class="cls-12" x="142.35" y="223.64" width="86.38" height="26.81" rx="3.67" ry="3.67"/>
    <path class="cls-5" d="M379.89,227.31c0-2.02-1.64-3.67-3.67-3.67h-79.04c-2.02,0-3.67,1.65-3.67,3.67v19.47c0,2.02,1.65,3.67,3.67,3.67h79.04c2.03,0,3.67-1.65,3.67-3.67v-19.47Z"/>
    <path class="cls-14" d="M349.46,226.62h30.44v110.28c0,4.87-3.14,8.87-6.97,8.87h-30.5v-110.21c0-4.91,3.17-8.94,7.03-8.94Z"/>
    <path class="cls-7" d="M293.51,231.87c0-3.31-2.68-6-6-6h-100.44c-3.31,0-6,2.69-6,6v69.17c0,3.31,2.69,6,6,6h100.44c3.32,0,6-2.69,6-6v-69.17Z"/>
    <rect class="cls-12" x="187.03" y="266.09" width="115.42" height="29.78" rx="6" ry="6"/>
    <rect class="cls-15" x="142.35" y="225.87" width="38.72" height="81.17" rx="6" ry="6"/>
    <path class="cls-9" d="M265.26,141.87c57.73,4.47,56.3,24.28,51.38,58.75-3.4,23.83-8.35,40.89-11.51,48.78-4.65,11.6-11.39,23.25-50.64,19.45-39.25-3.81-44.07-16.45-46.51-22.78-2.43-6.33-3.19-44.08-.05-62.25,3.81-21.9,3.96-46.11,57.33-41.95Z"/>
    <path class="cls-9" d="M206.48,278.28c-.36,0-.72-.03-1.08-.1-3.29-.59-5.48-3.75-4.89-7.04,1.85-10.28,4.11-13.26,15.1-19.94,2.86-1.74,6.59-.83,8.33,2.03,1.74,2.86.83,6.59-2.03,8.33-8.25,5.01-8.28,5.14-9.46,11.72-.53,2.93-3.08,4.99-5.96,4.99Z"/>
    <path class="cls-9" d="M261.87,286.03c-.36,0-.72-.03-1.08-.1-3.29-.59-5.48-3.75-4.89-7.04,1.85-10.29,4.11-13.27,15.1-19.94,2.86-1.74,6.59-.83,8.33,2.04,1.74,2.86.83,6.59-2.04,8.33-8.25,5.01-8.27,5.13-9.46,11.72-.53,2.93-3.08,4.99-5.96,4.99Z"/>
    <path class="cls-16" d="M249,250.5c-1.57,0-3.22-.08-4.96-.24-17.33-1.68-23.8-14.86-24.06-15.42-1.3-2.72-.14-5.98,2.58-7.28,2.71-1.29,5.95-.15,7.26,2.54.22.44,4.34,8.23,15.28,9.29,15.09,1.46,20.82-5.66,20.87-5.73,1.79-2.43,5.21-2.94,7.64-1.15,2.43,1.79,2.94,5.21,1.15,7.64-.42.57-2.78,3.55-7.73,6.21-3.72,1.99-9.68,4.15-18.02,4.15Z"/>
    <path class="cls-6" d="M207.82,212.04c.4-4.2,4.15-7.28,8.35-6.88,4.2.41,7.28,4.15,6.87,8.35-.41,4.2-4.15,7.28-8.35,6.88-4.2-.41-7.28-4.15-6.87-8.35Z"/>
    <path class="cls-6" d="M278.66,220.05c1.03-4.71,5.69-7.7,10.4-6.67,4.71,1.03,7.7,5.68,6.67,10.4-1.03,4.71-5.68,7.7-10.39,6.67-4.71-1.03-7.7-5.69-6.68-10.4Z"/>
    <path class="cls-9" d="M182.11,225.26c-2.07,0-3.91-1.48-4.29-3.59-.43-2.37,1.15-4.65,3.52-5.07,9.36-1.69,14.69-.85,15.27-.74,2.38.42,3.96,2.69,3.54,5.06-.42,2.36-2.66,3.95-5.03,3.55-.15-.02-4.5-.66-12.22.73-.26.05-.52.07-.78.07Z"/>
    <path class="cls-16" d="M220.23,164.94c-4.57,2.98-6.48,10.27-7.23,17.95-.63,6.53-.07,12.07,8.73,11.82,8.8-.25,54.36,4.54,70.56,7.94,9.68,2.03,11.91-20.79,7.19-28.93-5.56-9.63-34.96-11.92-47.1-12.25-15.32-.39-26.3-.35-32.15,3.47Z"/>
    <path class="cls-16" d="M279.41,158.68c-.18,0-.36-.01-.54-.03l-1.92-.24q-17.94-2.23-33.49-2.75l-1.19-.04c-2.37-.08-4.23-2.07-4.15-4.44.08-2.32,1.99-4.16,4.29-4.16.05,0,.1,0,.15,0l1.19.04q15.93.54,34.26,2.81l1.92.24c2.36.29,4.03,2.44,3.74,4.8-.27,2.18-2.12,3.77-4.26,3.77Z"/>
    <rect class="cls-15" x="293.51" y="225.87" width="48.92" height="81.17" rx="6" ry="6"/>
    <path class="cls-12" d="M148.01,297.36h188.46c5.03,0,9.18,4.15,9.18,9.18v39.23h-197.64c-4.74-.01-8.63-3.91-8.63-8.64v-31.16c.01-4.72,3.9-8.6,8.63-8.61Z"/>
    <path class="cls-9" d="M313.68,231.75c-1.78,0-3.5-.94-4.43-2.6-1.36-2.44-.49-5.53,1.96-6.89,9.65-5.38,15.83-6.44,16.5-6.54,2.78-.43,5.35,1.47,5.78,4.24.42,2.75-1.46,5.33-4.21,5.77-.17.03-5.19.95-13.14,5.38-.78.44-1.63.64-2.46.64Z"/>
    <path class="cls-10" d="M195.3,232.78s-12.84-36.97-14.15-36.84-19.53-26.75-19.53-26.75l74.19-9.68,20.37,52.35c1.75,2.23,15.33,53.95,15.33,53.95l-60,7.45-16.21-40.48Z"/>
    <path class="cls-11" d="M187.98,232.71s-10.24-37.77-11.54-37.73c-1.31.04-17.64-28.02-17.64-28.02l74.69-4.52s18.74,49.76,20.33,52.13c1.6,2.37,15.13,54.14,15.13,54.14l-67.63,5.5-13.34-41.5Z"/>
    <path class="cls-17" d="M185.84,235.59s-11.97-37.23-13.27-37.16c-1.31.08-18.91-27.16-18.91-27.16l74.4-7.95s21.01,48.84,22.72,51.11c1.7,2.27,17.6,53.38,17.6,53.38l-67.29,8.61-15.25-40.83Z"/>
    <polygon class="cls-19" points="161.89 174.95 225.5 168.14 231.19 181.2 169.28 186.32 161.89 174.95"/>
    <polygon class="cls-1" points="203.92 187.45 232.88 184.61 245.94 215.28 216.42 218.12 203.92 187.45"/>
    <polygon class="cls-1" points="190.33 232.79 218.24 229.75 224.62 247.68 196.98 251.63 190.33 232.79"/>
    <polygon class="cls-1" points="222.09 229.48 250.77 224.83 255.6 242.82 227.96 246.76 222.09 229.48"/>
    <polygon class="cls-2" points="256.05 245.8 198.12 253.74 198.28 254.86 256.21 246.93 256.05 245.8"/>
    <polygon class="cls-2" points="257.76 249.78 199.83 257.72 199.98 258.84 257.91 250.9 257.76 249.78"/>
    <polygon class="cls-2" points="259.46 253.76 201.53 261.69 201.68 262.81 259.61 254.88 259.46 253.76"/>
    <polygon class="cls-2" points="211.78 217.43 187.28 220.12 187.41 221.25 211.91 218.57 211.78 217.43"/>
    <polygon class="cls-2" points="209.51 212.88 185 215.57 185.13 216.7 209.63 214.02 209.51 212.88"/>
    <polygon class="cls-2" points="207.24 208.34 182.74 211.02 182.86 212.15 207.36 209.47 207.24 208.34"/>
    <polygon class="cls-2" points="205.54 203.79 181.04 206.48 181.16 207.61 205.66 204.92 205.54 203.79"/>
    <polygon class="cls-2" points="199.39 189.11 174.82 191 174.9 192.14 199.48 190.25 199.39 189.11"/>
    <polygon class="cls-2" points="201.53 192.88 177.03 195.54 177.15 196.67 201.66 194.01 201.53 192.88"/>
    <path class="cls-9" d="M193.4,225.43c-.3-2.93-2.92-5.07-5.85-4.78-1.15.12-3-.19-3-.19,0,0-3.8-.76-5.33-4.08-.03-.07-.05-.12-.05-.12,0,0-.65-1.8-.81-2.97-.38-2.92-3.06-4.98-5.99-4.6-2.92.38-4.98,3.06-4.6,5.99.26,2.1.87,4.27,1.71,6.09,1.91,4.35,7.18,10.63,16.8,10.63,3.88.28,7.4-1.65,7.12-5.97Z"/>
  </g>
</svg>