<?xml version="1.0" encoding="UTF-8"?>
<svg xmlns="http://www.w3.org/2000/svg" viewBox="0 0 500 500">
  <defs>
    <style>
      .cls-1 {
        fill: none;
      }

      .cls-1, .cls-2, .cls-3, .cls-4, .cls-5, .cls-6, .cls-7, .cls-8, .cls-9, .cls-10, .cls-11, .cls-12, .cls-13, .cls-14, .cls-15, .cls-16 {
        stroke-width: 0px;
      }

      .cls-2, .cls-3, .cls-4 {
        fill-rule: evenodd;
      }

      .cls-2, .cls-5 {
        fill: #272c32;
      }

      .cls-3 {
        fill: #869eb4;
      }

      .cls-4, .cls-12 {
        fill: #fff;
      }

      .cls-6 {
        fill: #1c1f23;
      }

      .cls-7 {
        fill: #d36c26;
      }

      .cls-8 {
        fill: #e28f56;
      }

      .cls-9 {
        fill: #ad5317;
      }

      .cls-10 {
        fill: #d68125;
      }

      .cls-11 {
        fill: #b76a1d;
      }

      .cls-13 {
        fill: #ffebd2;
      }

      .cls-14 {
        fill: #ef9818;
      }

      .cls-15 {
        fill: #ffb42e;
      }

      .cls-16 {
        fill: #ffb278;
      }
    </style>
  </defs>
  <g id="stiker_style" data-name="stiker style">
    <path class="cls-12" d="M353.08,384.71c-.57-.07-1.29-.14-2.26-.2-1.6-.1-3.95-.2-6.98-.3-5.85-.18-14.21-.35-24.83-.49-.76,0-1.53-.02-2.31-.03.26-1.98.19-4.02-.24-6.03-.48-2.25-.71-4.14-.96-6.38-.33-2.92-.75-6.57-2.14-10.43,6.37-9.29,10.57-22.69,13.28-34.7,1.29.79,2.73,1.39,4.29,1.72.82.17,1.66.27,2.49.3.13,0,.26,0,.39,0,6.5,0,12.14-4.54,13.5-10.94,3.12-14.68-2.38-26.88-3.01-28.21-2.23-4.71-6.83-7.58-11.72-7.86.54-10.25.54-20.39-.03-29.78,3.51-1.13,6.81-2.61,9.86-4.42l3.73-2.23v-.27c14.57-10.76,20.15-28.9,13.59-45.53-.74-1.88-1.63-3.72-2.66-5.5l-.23-.92h-.32c-.23-.38-.47-.75-.72-1.13l.03-.64-2.01-2.14c-2.12-2.74-4.64-5.31-7.49-7.64l-.18-.14c-6.78-5.23-15.36-7.85-22.75-9.15-4.18-22.19-11.86-32.18-17.74-36.61-.2-.15-.4-.3-.6-.45l-.14-.25-1.98-1.11c-.44-.25-.88-.49-1.3-.69-3.74-1.84-8.13-2.95-13.04-3.31-9.9-.74-20.57,1.55-28.81,4.06-7.7-4.88-17.28-7.16-29.68-7.1-2.56.01-5.15.24-7.7.68h0c-.17.03-.35.06-.52.09l-.14.03c-14.34,2.71-34.24,13.63-48.98,49.83-.59,1.44-1.18,2.97-1.8,4.64-22.1-1.39-38.47,4.95-46.46,18.13-.76,1.25-1.46,2.59-2.12,4.12-2.3,5.31-2.44,11.67-1.86,15.54,1.28,8.32,7.25,13.69,12.33,17.45,5.49,4.05,11.93,6.88,18.67,8.19,1.03.19,4.93.68,7.92,1.01-.14,2.77-.23,5.47-.27,8.02-.22,10.71.24,23.63,1.45,36.76-2.94-.22-5.89.39-8.55,1.82-3.68,1.98-6.37,5.28-7.57,9.28-4.06,13.53-1.97,26.3-1.71,27.72,1.35,7.55,7.98,12.88,15.38,12.88.89,0,1.79-.08,2.69-.24.33-.06.66-.12.96-.2,2.85-.68,5.34-2.13,7.31-4.06,2.67,8.52,5.92,15.53,9.79,19.92,1.98,2.27,4.27,4.38,6.85,6.31-1.37,5.11-3.53,8.53-3.83,8.98-2.15,3.05-3.28,6.72-3.21,10.37-14.85.12-27.59.28-37.31.47-6.23.12-11.08.26-14.4.4-1.8.08-3.15.16-4.13.24-8.2.71-8.61,6.95-8.61,8.2,0,2.64,1.6,7.32,7.57,8.09.57.07,1.29.14,2.26.2,1.6.1,3.95.2,6.98.3,5.85.18,14.21.34,24.84.48,21.8.29,50.78.44,81.59.44s59.76-.16,81.53-.44c10.62-.14,18.96-.3,24.8-.48,3.02-.09,5.37-.19,6.97-.3.97-.06,1.68-.13,2.26-.2,5.98-.77,7.57-5.45,7.57-8.09s-1.59-7.32-7.57-8.09ZM218.62,376.74c23.6,3.96,49.31,1.22,61.94-.64.23,1.97.54,4.43,1.09,7.3-13.82-.08-28.75-.12-44.12-.12-7.2,0-14.36,0-21.4.03.94-2.15,1.77-4.34,2.5-6.56Z"/>
  </g>
  <g id="Bubus">
    <path class="cls-3" d="M237.52,391.28c-63.64,0-115.25.68-115.25,1.52s51.61,1.51,115.25,1.51,115.13-.67,115.13-1.51-51.61-1.52-115.13-1.52Z"/>
    <g>
      <g>
        <g>
          <g>
            <path class="cls-2" d="M324.35,248.74c-.02-.25-.05-.47-.07-.7-.02-.27-.02-.5-.05-.74-.07-.67-.12-1.34-.2-2.01,0-.07-.02-.15-.02-.22-.05-.65-.12-1.27-.17-1.89,0-.05-.02-.12-.02-.17-.89-8.29-2.36-15.64-4.35-21.45l-.02-.02v-.02c-1.37-4-2.98-7.25-4.89-9.58-1.04-1.22-2.21-2.38-3.5-3.5-.22-.2-.45-.37-.7-.57-.22-.2-.45-.4-.7-.57-1.32-1.04-2.76-2.01-4.3-2.98-.02,0-.02-.02-.05-.02-.25-.17-.55-.32-.82-.5-.02,0-.02-.02-.05-.02-.32-.2-.67-.4-.99-.57-.27-.15-.5-.3-.77-.42h-.02s-.05-.02-.07-.05c-.07-.05-.15-.07-.22-.12-.22-.1-.42-.22-.65-.35-.2-.1-.4-.22-.6-.3-.2-.12-.4-.22-.6-.32-.17-.07-.35-.15-.52-.25-.05-.02-.15-.05-.22-.1l-.02-.02h-.02s-.1-.05-.15-.05v-.02c-.1-.05-.17-.07-.25-.1-.12-.07-.25-.12-.37-.17h-.02s-.07-.02-.1-.05c-1.17-.55-2.31-1.07-3.55-1.54-.37-.15-.74-.3-1.12-.45-2.16-.84-4.42-1.64-6.75-2.33h-.02c-.37-.12-.74-.25-1.12-.35-.4-.12-.77-.22-1.17-.32-13.63-3.87-29.72-5.79-45.41-5.81-4.3,0-8.54.12-12.71.4-8.02.52-15.72,1.59-22.65,3.15h-.02c-.2.05-.4.1-.6.12,0,0-.02,0-.02.02-.05,0-.12.02-.17.02-.57.12-1.12.27-1.66.42-.57.12-1.12.25-1.64.42-.3.07-.6.17-.89.25-.74.22-1.51.42-2.23.65-.2.07-.35.1-.52.17-.02,0-.07.02-.1.02-.17.05-.37.12-.55.17-4.1,1.32-7.8,2.83-10.95,4.59-1.89,1.07-3.6,2.19-5.09,3.38-.1.1-.22.17-.32.27-.82.7-1.59,1.39-2.26,2.11-3.2,3.45-5.61,9.73-7.25,17.85-.25,1.19-.47,2.43-.7,3.7-.47,2.76-.84,5.66-1.14,8.72-.07.55-.12,1.14-.17,1.71-.1,1.02-.2,2.06-.27,3.1-.02.25-.05.5-.05.75-.02.25-.05.5-.07.74-.05.62-.07,1.27-.12,1.89-.17,3.05-.3,6.21-.35,9.41-.77,38.04,6.43,85.61,17.78,98.48,2.68,3.08,5.96,5.66,9.68,7.85.05.02.07.05.12.07v-.02c.15-1.39.25-2.81.25-4.3,0-1.07-.07-2.16-.17-3.28-.05-.52-.05-1.07.02-1.59-.02-.15,0-.27.02-.4.02-.27.07-.57.15-.84.05-.27.12-.55.2-.82.07-.25.2-.52.3-.77.12-.27.25-.57.4-.82.1-.22.25-.45.4-.65.07-.15.17-.32.3-.45.12-.17.25-.32.35-.47.47-.55.99-1.04,1.59-1.49.1-.07.22-.15.32-.22.2-.12.42-.27.62-.37.32-.2.65-.37.99-.5.22-.1.45-.17.65-.25.2-.05.37-.12.55-.15.22-.07.42-.12.65-.15.32-.07.62-.12.94-.15,5.11-.47,9.63,3.3,10.08,8.42.52,5.88.07,11.3-.87,16.09.1.02.22.05.32.07,23.84,5.74,53.83,3.05,71.49,0-.12-.07-.22-.12-.27-.15-.4-.22-.77-.47-1.12-.72-.15-.1-.27-.2-.4-.35-.13-.09-.24-.21-.36-.31-.27-.22-.51-.49-.73-.75-.27-.3-.5-.6-.7-.92-.22-.35-.45-.72-.62-1.09-.07-.2-.15-.4-.22-.57-.17-.37-.3-.79-.4-1.19-.25-.99-.32-2.01-.22-3.03.02-.52.12-1.04.27-1.56.05-.2.1-.37.17-.57.05-.17.1-.35.2-.52.12-.35.27-.67.47-1.02,2.48-4.52,8.12-6.13,12.61-3.67.5.27,4.74,2.68,8.42,6.43.89.94,1.66,1.89,2.26,2.83.12-.12.25-.27.35-.4,7.32-7.92,12.91-24.18,16.44-43.28,4.07-21.7,5.51-47.05,3.92-67.81ZM314.37,276.35c-.1.12-.22.25-.35.35-.77.67-1.66.97-2.63.82-18.08-2.53-81.89-4.87-112.55-2.01-.84.07-1.61,0-2.31-.22-.32-.1-.65-.25-.94-.4-.3-.17-.6-.4-.87-.6-.27-.25-.55-.47-.77-.74-.27-.27-.5-.57-.72-.87-.22-.32-.42-.67-.65-1.04-.37-.72-.74-1.54-1.04-2.43-.15-.45-.27-.92-.42-1.37-.05-.25-.12-.5-.17-.75-.12-.47-.22-.99-.32-1.51-.07-.5-.17-1.04-.22-1.59-.07-.55-.15-1.09-.2-1.66-.27-3.33-.17-7.03.3-10.65.02-.35.07-.67.12-1.02v-.1c.1-.57.2-1.14.3-1.74,0-.05,0-.1.02-.15,0-.05,0-.1.02-.12.07-.45.15-.84.22-1.27,0-.02.02-.05.02-.1.05-.15.07-.3.1-.42.07-.35.15-.72.25-1.07.05-.25.1-.47.17-.72,0-.02,0-.05.02-.07.05-.22.1-.4.17-.6.1-.5.22-.97.4-1.42,0-.02.02-.05.02-.07.12-.42.25-.82.4-1.24.02-.15.1-.32.15-.47.05-.1.07-.2.12-.3.02-.1.05-.2.1-.3.05-.17.1-.32.17-.47.07-.22.15-.42.25-.65.02-.07.05-.15.1-.2,0-.07.05-.15.07-.2.2-.47.4-.94.62-1.37.15-.27.25-.52.4-.79.15-.27.27-.55.42-.79.15-.27.32-.57.5-.82.62-.99,1.32-1.86,2.04-2.58.12-.15.27-.27.42-.4.1-.12.2-.2.3-.3.37-.32.79-.62,1.22-.87.5-.32,1.04-.62,1.61-.92.57-.27,1.19-.55,1.81-.82.84-.35,1.71-.67,2.68-.99.92-.32,1.91-.6,2.95-.87,1.54-.42,3.2-.79,4.92-1.12.87-.17,1.76-.32,2.66-.47,1.42-.22,2.86-.42,4.35-.6.2-.02.42-.05.65-.07,1.09-.12,2.19-.22,3.33-.35.1,0,.22-.02.32-.02-.07-.7-.12-1.39-.12-2.09v-.45c0-.4.02-.82.1-1.24.05-.4.1-.79.17-1.19.05-.2.07-.4.12-.57.02-.15.07-.25.1-.37,0,0,0-.02.02-.05.02-.15.05-.27.1-.4.05-.15.1-.27.12-.42.02-.05.05-.1.07-.15,0-.05,0-.07.02-.1.05-.17.1-.35.17-.52.02-.05.05-.12.07-.17.02-.05.05-.1.05-.15.02-.02.02-.05.05-.07,0-.02,0-.05.02-.07.07-.17.15-.35.22-.52.05-.12.12-.25.17-.37.05-.07.07-.15.12-.22,0,0,.02-.02.02-.05.02-.05.07-.12.1-.15.07-.15.15-.27.22-.4.05-.1.1-.2.17-.3.17-.35.4-.67.67-.99.02-.07.07-.12.12-.2.02-.02.05-.05.05-.07.02,0,.05-.05.05-.05.15-.22.3-.4.47-.6.12-.17.27-.32.4-.45.2-.22.37-.4.57-.57.05-.05.07-.1.12-.12.05-.05.07-.1.15-.15.07-.07.15-.15.25-.22,0-.05.02-.05.02-.05.05-.02.07-.05.12-.07.05-.05.07-.07.1-.1.05-.02.1-.07.15-.12.02,0,.02-.02.05-.05.15-.12.27-.25.42-.35.05-.05.1-.07.15-.12.22-.17.5-.35.74-.52.12-.1.27-.17.42-.27.07-.05.17-.12.27-.17.12-.07.27-.17.4-.22.1-.05.15-.1.25-.12.02-.02.05-.05.1-.05.1-.05.17-.1.27-.15h.02c.12-.07.27-.15.4-.2.07-.05.15-.07.22-.1.07-.05.15-.07.22-.1.22-.1.45-.2.67-.25.12-.07.22-.1.32-.12.05-.02.1-.05.15-.05,0-.02.02-.02.05-.02,0,0,.05-.02.07-.02.2-.07.42-.15.65-.17.2-.07.45-.15.65-.17.02,0,.05-.02.07-.02.42-.1.82-.17,1.24-.22.22-.02.57-.1,1.04-.15.1-.02.17-.02.27-.02.32-.02.67-.07,1.09-.12s.87-.1,1.39-.15c.25-.02.52-.05.82-.07.02,0,.05-.02.07-.02.27-.02.57-.02.87-.07.2,0,.4-.02.6-.05.55-.05,1.09-.1,1.71-.12h.02c.3-.02.65-.05.97-.07.02.02.05.02.07,0,2.46-.15,5.36-.27,8.52-.27h.15c.97,0,1.96,0,2.98.02.87,0,1.74.02,2.63.07.35,0,.7.02,1.04.02.7.05,1.42.07,2.14.12,2.19.12,4.39.32,6.65.6h.02c4.67.55,9.41,1.42,14,2.73.07.02.15.05.2.05.17.05.35.1.52.17.22.07.45.15.67.22.2.07.42.17.62.25.12.05.27.12.42.2.1.05.25.1.35.15.12.07.25.12.37.2.22.1.45.22.67.37,4.77,2.83,7.7,8.07,7.57,13.61-.02.25-.02.5-.05.75,0,.25-.02.47-.07.72-.02.45-.1.87-.17,1.32-.02.07-.02.15-.05.22v.02c-.1.32-.17.65-.27.99-.07.3-.17.6-.27.89.37.1.77.2,1.14.3,1.12.3,2.21.6,3.28.92,3.15.94,5.88,1.99,8.07,3.08.74.35,1.42.72,2.04,1.12.99.6,1.89,1.42,2.71,2.48.32.4.62.84.92,1.32.45.7.84,1.47,1.22,2.28.25.55.47,1.12.72,1.69.07.27.2.55.27.82.02.07.05.15.07.25t0,.02c.17.45.32.94.45,1.42.02.1.07.17.1.27.1.32.17.65.25.94.05.25.12.5.17.74.05.25.12.5.17.74,2.23,10.6,1.07,23.94-2.91,27.86Z"/>
            <path class="cls-2" d="M228.11,213.18c-.19.21-.36.42-.51.65.05-.06.1-.15.15-.21.12-.14.24-.29.36-.44Z"/>
            <path class="cls-2" d="M235.22,208.4s-.1.03-.13.05c.02-.02.03-.03.05-.03s.05-.02.08-.01Z"/>
            <path class="cls-2" d="M289.64,226.47c-.02.25,0,.5,0,.72-.02.25-.05.5-.07.72-.05.32-.1.62-.2.92,0,.05-.02.1-.02.15l-.02.07c-.67,2.38-2.43,4.17-4.59,5.02-.27.1-.55.2-.84.27-.3.07-.6.15-.94.17-.37.07-.79.07-1.19.07-.62-.02-1.27-.12-1.89-.32-.15-.02-.32-.1-.47-.12-4.99-1.39-10.48-2.09-15.62-2.36-1.46-.1-2.88-.15-4.27-.17-1.66-.82-3.35-1.64-5.02-2.51h-.02c-6.11-3.15-12.14-6.58-18.15-10.13,1.04-.87,2.33-1.44,3.75-1.64.27-.05,2.14-.32,5.09-.55,2.73-.22,6.31-.45,10.45-.5h2.91c4.44.05,9.39.32,14.35.99,3.77.5,7.6,1.24,11.22,2.28,3.2.92,5.34,3.75,5.56,6.9Z"/>
            <path class="cls-2" d="M311.11,277.8c-18.1-2.54-81.91-4.86-112.56-2.01-.84.08-1.62-.01-2.32-.23-.33-.11-.64-.25-.94-.41-.31-.17-.6-.38-.87-.59-.27-.24-.53-.48-.77-.75-.26-.27-.5-.56-.72-.88s-.43-.66-.63-1.02c-.39-.72-.75-1.55-1.05-2.44-.15-.45-.29-.91-.42-1.38-.06-.25-.12-.48-.18-.73-.12-.48-.22-1-.32-1.51-.08-.51-.17-1.06-.24-1.61-.07-.55-.13-1.09-.18-1.65-.27-3.34-.17-7.03.28-10.66.04-.38.09-.74.15-1.1.08-.57.18-1.17.28-1.74.02-.05.02-.1.02-.15.02-.05.02-.1.04-.15.08-.43.16-.84.23-1.26,0-.02.02-.05.02-.08.04-.15.07-.29.09-.44.08-.34.15-.7.24-1.05.07-.26.13-.54.2-.8.04-.21.09-.41.17-.61.13-.47.26-.93.4-1.41.11-.44.26-.88.42-1.31.04-.16.11-.33.16-.49.04-.1.07-.2.11-.29.04-.1.07-.2.11-.29.05-.16.11-.33.18-.47.07-.21.16-.42.25-.64.04-.08.05-.15.09-.21.02-.07.05-.13.09-.2.19-.47.41-.93.62-1.37.14-.26.26-.52.4-.78.14-.28.28-.55.42-.81.16-.28.33-.55.5-.81.84-1.31,1.75-2.42,2.75-3.27.39-.34.81-.64,1.23-.89,1.01-.61,2.16-1.18,3.41-1.72,1.68-.69,3.58-1.32,5.64-1.87,1.55-.42,3.2-.78,4.93-1.11,3.46-.66,7.25-1.16,11.29-1.51.02.05.01.1.03.13.46,3.44,2.04,6.47,4.3,8.76.26.24.5.49.77.71.29.27.6.51.9.75,3.16,2.4,7.24,3.58,11.47,3.01,5.48-.74,22.33-1.93,34.42,1.56,1.29.38,2.59.58,3.87.62.79.02,1.6-.02,2.36-.13.69-.08,1.39-.21,2.06-.39.51-.13,1.01-.3,1.5-.49.78-.29,1.55-.67,2.29-1.09.23-.14.45-.28.67-.43.23-.14.45-.28.66-.44,2.46-1.79,4.41-4.29,5.48-7.33.39.09.77.2,1.15.3,1.13.31,2.22.62,3.29.93,3.14.95,5.88,1.98,8.08,3.06.73.37,1.41.73,2.03,1.11.99.6,1.89,1.44,2.7,2.48.32.4.62.86.92,1.33.44.7.85,1.46,1.22,2.28.25.55.48,1.12.71,1.7.43,1.17.82,2.41,1.15,3.73.06.23.12.48.18.75.06.23.12.48.16.73,2.75,12.9.38,29.92-5.86,29.04Z"/>
            <path class="cls-2" d="M225.01,219.16s-.03.03-.02.05c.02-.13.06-.25.09-.38.05-.16.11-.33.16-.49-.09.26-.18.54-.24.82Z"/>
            <path class="cls-2" d="M227.6,213.82s-.03.05-.05.06c.07-.1.14-.19.21-.27.12-.14.24-.29.36-.44-.19.21-.36.42-.51.65Z"/>
            <path class="cls-2" d="M229.39,211.85c-.2.19-.41.38-.59.59.15-.18.32-.35.49-.51.03-.03.07-.06.1-.08Z"/>
            <path class="cls-2" d="M230.49,210.9c-.3.22-.57.46-.84.7.08-.08.17-.16.27-.24.1-.1.22-.19.32-.29.02,0,.05-.03.07-.05.05-.03.1-.06.14-.11.02,0,.03-.02.05-.02Z"/>
            <path class="cls-2" d="M232.17,209.76c-.13.08-.26.14-.39.24.08-.06.18-.13.29-.17.12-.08.25-.16.37-.22t.03-.02c-.1.05-.2.11-.3.17Z"/>
            <path class="cls-2" d="M232.7,209.47c-.08.03-.15.08-.23.13.03-.03.07-.05.1-.06.02-.02.05-.03.08-.05.02-.02.03-.02.05-.02Z"/>
            <path class="cls-2" d="M235.22,208.4s-.1.03-.13.05c.02-.02.03-.03.05-.03s.05-.02.08-.01Z"/>
            <path class="cls-2" d="M289.64,226.47c-.02.25,0,.5,0,.72-.02.25-.05.5-.07.72-.05.32-.1.62-.2.92,0,.05-.02.1-.02.15l-.02.07c-.67,2.38-2.43,4.17-4.59,5.02-.27.1-.55.2-.84.27-.3.07-.6.15-.94.17-.37.07-.79.07-1.19.07-.62-.02-1.27-.12-1.89-.32-.15-.02-.32-.1-.47-.12-4.99-1.39-10.48-2.09-15.62-2.36-1.46-.1-2.88-.15-4.27-.17-1.66-.82-3.35-1.64-5.02-2.51h-.02c-6.11-3.15-12.14-6.58-18.15-10.13,1.04-.87,2.33-1.44,3.75-1.64.27-.05,2.14-.32,5.09-.55,2.73-.22,6.31-.45,10.45-.5h2.91c4.44.05,9.39.32,14.35.99,3.77.5,7.6,1.24,11.22,2.28,3.2.92,5.34,3.75,5.56,6.9Z"/>
            <path class="cls-2" d="M194.87,236.3c.16-.28.33-.55.5-.81-.16.26-.33.53-.48.81-.16.26-.3.54-.44.81.14-.28.28-.55.42-.81Z"/>
          </g>
          <g>
            <path class="cls-4" d="M311.11,277.8c-18.1-2.54-81.91-4.86-112.56-2.01-.84.08-1.62-.01-2.32-.23-.33-.11-.64-.25-.94-.41-.31-.17-.6-.38-.87-.59-.27-.24-.53-.48-.77-.75-.26-.27-.5-.56-.72-.88s-.43-.66-.63-1.02c-.39-.72-.75-1.55-1.05-2.44-.15-.45-.29-.91-.42-1.38-.06-.25-.12-.48-.18-.73-.12-.48-.22-1-.32-1.51-.08-.51-.17-1.06-.24-1.61-.07-.55-.13-1.09-.18-1.65-.27-3.34-.17-7.03.28-10.66.04-.35.08-.67.13-1.02,0-.02.02-.05.02-.08.08-.57.18-1.17.28-1.74.02-.05.02-.1.02-.15.02-.05.02-.1.04-.15.08-.43.16-.84.23-1.26,0-.02.02-.05.02-.08.04-.15.07-.29.09-.44.08-.34.15-.7.24-1.05.06-.25.11-.49.19-.74,0-.02,0-.05.02-.07.04-.21.09-.41.17-.61.13-.47.26-.93.4-1.41.11-.44.26-.88.42-1.31.04-.16.11-.33.16-.49.04-.1.07-.2.11-.29.04-.1.07-.2.11-.29.05-.16.11-.33.18-.47.07-.21.16-.42.25-.64.04-.08.05-.15.09-.21.02-.07.05-.13.09-.2.19-.47.41-.93.62-1.37.14-.26.26-.52.4-.78.14-.28.28-.55.44-.81.16-.28.33-.55.48-.81.84-1.31,1.75-2.42,2.75-3.27.39-.34.81-.64,1.23-.89.5-.3,1.04-.6,1.61-.89.58-.28,1.19-.56,1.8-.82.85-.36,1.73-.68,2.68-1,.93-.32,1.93-.61,2.96-.87.93-.25,1.91-.49,2.91-.7.66-.14,1.33-.28,2.02-.41.86-.17,1.76-.31,2.65-.47,1.61-.25,3.28-.48,5-.67,1.19-.15,2.4-.26,3.64-.38.02.05.01.1.03.13.11.84.3,1.66.54,2.44.09.3.2.6.3.9.09.27.2.53.32.78.43,1,.97,1.94,1.59,2.8.22.32.48.64.73.94.26.3.53.61.82.9.26.24.5.49.77.71.29.27.6.51.9.75,3.16,2.4,7.24,3.58,11.47,3.01,5.48-.74,22.33-1.93,34.42,1.56,1.29.38,2.59.58,3.87.62.79.02,1.6-.02,2.36-.13.69-.08,1.39-.21,2.06-.39.51-.13,1.01-.3,1.5-.49.78-.29,1.55-.67,2.29-1.09.23-.14.45-.28.67-.43.23-.14.45-.28.66-.44,2.46-1.79,4.41-4.29,5.48-7.33.39.09.77.2,1.15.3.91.24,1.8.49,2.67.75.21.06.41.12.62.19,3.14.95,5.88,1.98,8.08,3.06.73.37,1.41.73,2.03,1.11.99.6,1.89,1.44,2.7,2.48.32.4.62.86.92,1.33.44.7.85,1.46,1.22,2.28.25.55.48,1.12.71,1.7.43,1.17.82,2.41,1.15,3.73.06.23.12.48.18.75.06.23.12.48.16.73,2.75,12.9.38,29.92-5.86,29.04Z"/>
            <path class="cls-4" d="M199.34,231.31c.5-.32,1.04-.6,1.61-.88-.57.3-1.1.6-1.61.89-.42.25-.84.55-1.23.89.39-.35.81-.65,1.23-.91Z"/>
            <path class="cls-4" d="M202.75,229.61c.85-.36,1.73-.69,2.68-1-.95.32-1.83.64-2.68,1Z"/>
            <path class="cls-4" d="M220.96,225.47s.02.02.02.02c-1.72.18-3.39.42-5,.67,1.61-.27,3.26-.49,4.98-.68Z"/>
          </g>
          <g>
            <path class="cls-5" d="M225.09,218.83c-.02.1-.05.18-.07.28v.05c.02-.15.06-.28.11-.41-.02.03-.02.05-.04.08ZM229.29,211.92c-.17.16-.34.34-.49.51.19-.21.39-.4.59-.59-.03.02-.07.05-.1.08ZM230.44,210.92s-.08.08-.14.11c-.08.08-.17.14-.25.22.15-.13.29-.24.44-.35-.02,0-.03.02-.05.02ZM287.33,211.12c-.15-.07-.28-.12-.42-.18.13.05.28.12.42.19.11.05.24.11.36.16-.11-.05-.24-.12-.36-.17ZM288.04,211.47c-.11-.05-.24-.12-.36-.17.11.05.24.12.36.19.23.11.46.23.68.37-.23-.14-.45-.26-.68-.38Z"/>
            <path class="cls-5" d="M288.72,211.84c-.22-.12-.45-.25-.67-.37-.12-.05-.25-.12-.37-.17-.1-.05-.25-.12-.35-.17-.15-.05-.3-.12-.42-.17-.2-.1-.42-.2-.62-.25-.22-.1-.45-.17-.67-.25-.17-.07-.35-.12-.52-.15-.05-.02-.12-.05-.17-.07-4.62-1.32-9.36-2.19-14-2.73h-.05c-3-.35-5.93-.57-8.79-.7-.32-.02-.62-.05-.94-.05h-.1c-.89-.05-1.76-.07-2.63-.05-1.02-.05-1.99-.05-2.98-.05h-.15c-3.1,0-5.96.12-8.42.3h-.12s-.02,0-.05-.02c-.1,0-.17.02-.27.02h-.22c-.15.02-.32.05-.47.05h-.02c-.6.05-1.17.1-1.71.15-.52.05-1.02.07-1.47.12h-.07c-.3.02-.57.05-.82.07-.52.05-.97.1-1.39.15-.42.05-.77.1-1.07.12-.1,0-.2,0-.3.02-.47.07-.82.12-1.04.15-.4.05-.82.15-1.24.22-.02,0-.05.02-.07.02-.2.02-.45.1-.65.17-.22.05-.45.1-.65.17-.05.02-.1.02-.12.05-.05.02-.07.02-.12.05-.12.02-.22.05-.35.12-.22.05-.45.15-.67.25-.05.02-.15.05-.2.1-.1.02-.17.07-.25.1-.22.1-.47.22-.7.35-.02,0-.07.02-.1.05-.02,0-.05,0-.05.02-.05,0-.07.02-.1.05-.02,0-.05.02-.1.05l-.02.02s-.05.02-.07.05c-.02,0-.07.02-.12.05-.02.02-.05.05-.07.05-.02.02-.07.05-.1.07-.1.05-.2.1-.27.17-.15.07-.3.17-.42.27-.25.15-.52.32-.74.52-.05.02-.1.05-.12.1t-.05.02c-.15.12-.27.22-.4.32-.05.05-.1.1-.15.12-.1.07-.17.15-.25.22-.07.05-.1.1-.15.15-.05.02-.07.07-.12.1v.02c-.2.17-.37.35-.57.57h-.02l-.27.27c-.12.15-.27.3-.4.47-.17.17-.32.37-.47.57,0,.02-.02.05-.05.07,0,0-.02.05-.05.05-.27.4-.57.79-.79,1.22-.07.07-.12.17-.17.27-.07.12-.15.25-.22.4-.02.02-.05.1-.1.15,0,.02-.02.05-.02.05-.05.07-.07.15-.1.25-.07.1-.12.22-.2.37-.07.15-.15.32-.22.5,0,.02-.02.05-.02.07-.02.02-.02.05-.05.1,0,.05-.02.07-.05.12-.02.05-.05.12-.07.2-.05.15-.12.32-.17.5-.02.02-.02.07-.02.1-.02.05-.05.1-.05.17-.05.12-.1.25-.15.4-.05.12-.07.27-.1.42-.02,0-.02.02-.02.05-.02.1-.07.22-.07.35-.07.17-.1.37-.15.57-.07.4-.12.79-.17,1.19-.07.42-.1.84-.1,1.27-.02.74.02,1.49.1,2.26,0,.07.02.17.02.25.02.05.02.1.02.15.1.84.3,1.66.55,2.43.1.32.2.62.3.92.1.2.17.4.25.6.27.67.6,1.32.97,1.91.15.27.32.52.5.77.02.05.05.07.07.1.02.07.07.15.12.2.1.15.22.3.35.45.12.17.25.35.37.5h.02c.02.07.07.12.12.17.22.25.45.5.67.72.27.22.52.47.79.7.27.27.6.52.89.77,3.15,2.38,7.23,3.58,11.47,3,5.49-.75,22.32-1.94,34.41,1.56,1.29.37,2.58.57,3.87.62h.65c.22,0,.42,0,.65-.02h.02c.35-.02.7-.05,1.04-.12.32-.02.65-.07.97-.12h.02s.02,0,.05-.02c.35-.07.7-.15,1.02-.22.52-.15,1.02-.3,1.49-.5.79-.27,1.56-.67,2.28-1.09.25-.12.47-.27.67-.42.25-.12.47-.27.67-.45,2.46-1.79,4.39-4.3,5.49-7.32.1-.3.2-.6.27-.89.12-.42.22-.84.32-1.24v-.02c.07-.42.15-.84.17-1.27.05-.25.07-.5.07-.74.02-.25.02-.5.05-.74.12-5.54-2.81-10.78-7.57-13.61ZM289.34,228.98l-.02.07c-.67,2.38-2.43,4.17-4.59,5.02-.27.1-.55.2-.84.27-.3.07-.6.15-.94.17-.37.07-.79.07-1.19.07-.62-.02-1.27-.12-1.89-.32-.15-.02-.32-.1-.47-.12-4.99-1.39-10.48-2.09-15.62-2.36-1.46-.1-2.88-.15-4.27-.17-9.56-.17-17.18.87-17.33.87-4.17.57-8.02-2.33-8.62-6.51-.07-.5-.07-.94-.05-1.42.1-2.23,1.14-4.25,2.81-5.59,1.04-.87,2.33-1.44,3.75-1.64.27-.05,2.14-.32,5.09-.55,2.73-.22,6.31-.45,10.45-.5h2.91c4.44.05,9.39.32,14.35.99,3.77.5,7.6,1.24,11.22,2.28,3.2.92,5.34,3.75,5.56,6.9-.02.25,0,.5,0,.72-.02.25-.05.5-.07.72-.05.32-.1.62-.2.92,0,.05-.02.1-.02.15Z"/>
          </g>
          <path class="cls-12" d="M289.64,226.47c-.02.25,0,.5,0,.72-.02.25-.05.5-.07.72-.05.32-.1.62-.2.92,0,.05-.02.1-.02.15l-.02.07c-.67,2.38-2.43,4.17-4.59,5.02-.27.1-.55.2-.84.27-.3.07-.6.15-.94.17-.37.07-.79.07-1.19.07-.62-.02-1.27-.12-1.89-.32-.15-.02-.32-.1-.47-.12-4.99-1.39-10.48-2.09-15.62-2.36-1.46-.1-2.88-.15-4.27-.17-1.66-.82-3.35-1.64-5.02-2.51h-.02c-6.11-3.15-12.14-6.58-18.15-10.13,1.04-.87,2.33-1.44,3.75-1.64.27-.05,2.14-.32,5.09-.55,2.73-.22,6.31-.45,10.45-.5h2.91c4.44.05,9.39.32,14.35.99,3.77.5,7.6,1.24,11.22,2.28,3.2.92,5.34,3.75,5.56,6.9Z"/>
          <path class="cls-5" d="M305.01,389.07c-1.08.82-2.35,1.42-3.75,1.72-.77.18-1.55.24-2.31.22-3.01-.08-5.78-1.59-7.51-3.98-.77-1.05-1.32-2.26-1.62-3.61-.79-3.66-1.13-6.65-1.4-9.06-.18-1.58-.42-3.75-.69-4.27-1.37-1.41-3.18-2.62-3.95-3.09-.13-.09-.22-.14-.29-.17-4.66-2.57-6.35-8.41-3.78-13.07,2.57-4.67,8.41-6.36,13.07-3.8.5.27,4.93,2.76,8.73,6.67.93.97,1.71,1.94,2.35,2.94.01.01,0,.01,0,.01,2.74,4.19,3.24,8.62,3.69,12.61.24,2.18.51,4.45,1.09,7.16.82,3.79-.72,7.54-3.63,9.72Z"/>
          <path class="cls-5" d="M333.64,320.18c-.35,0-.7-.05-1.05-.13-3.14-.67-5.15-3.76-4.48-6.9,1.78-8.34-1.53-15.68-1.57-15.75-1.34-2.91-.08-6.36,2.82-7.71,2.9-1.35,6.34-.13,7.71,2.77.21.44,5.03,10.84,2.42,23.12-.59,2.79-3.09,4.68-5.85,4.6Z"/>
          <path class="cls-5" d="M159.95,334.19c-.15.04-.3.07-.46.09-4.15.73-8.11-2.02-8.85-6.17-.09-.49-2.09-12.04,1.5-24.01,1.22-4.05,5.48-6.34,9.53-5.13,4.05,1.22,6.34,5.48,5.13,9.53-2.51,8.37-1.1,16.85-1.09,16.93.69,4-1.87,7.82-5.76,8.75Z"/>
          <path class="cls-5" d="M212.87,367.11c-1.28,6.5-3.44,11.84-5.31,15.62-1.84,3.72-3.41,5.9-3.58,6.14-1.93,2.64-4.96,4-8,3.92-1.87-.05-3.73-.64-5.35-1.83-2.42-1.77-3.77-4.47-3.9-7.25-.12-2.08.47-4.22,1.78-6.04.17-.25,4.99-7.29,6.14-17.58.27-2.43.34-5.03.09-7.78-.48-5.25,3.39-9.91,8.65-10.38,5.28-.47,9.91,3.41,10.38,8.66.54,6.04.08,11.61-.9,16.52Z"/>
          <path class="cls-4" d="M204.48,298.01c-6.9-.01-11.08.42-11.15-5.68-.07-6.1,3.12-6.19,10.02-6.17,6.9.03,13.28.1,13.34,6.2.07,6.09-5.3,5.67-12.2,5.65Z"/>
          <path class="cls-4" d="M314.85,295.37c-.24,5.89-4.88,5.05-10.69,4.8-5.82-.24-10.64.2-10.4-5.68.25-5.9,4.88-5.02,10.69-4.78,5.82.25,10.64-.23,10.4,5.66Z"/>
          <path class="cls-12" d="M229.29,211.92s.07-.06.1-.08c-.2.19-.41.38-.59.59.15-.18.32-.35.49-.51Z"/>
          <path class="cls-12" d="M230.44,210.92c.07-.05.13-.08.18-.13-.05.03-.1.06-.13.11-.3.22-.57.46-.84.7.08-.08.17-.16.27-.24.12-.11.25-.22.39-.34.05-.03.1-.06.14-.11Z"/>
          <path class="cls-12" d="M232.43,209.61s.02-.02.03-.02c-.13.06-.27.14-.4.24.12-.08.25-.16.37-.22Z"/>
          <path class="cls-12" d="M232.65,209.48s.03-.02.05-.02c-.08.03-.15.08-.23.13.03-.03.07-.05.1-.06.02-.02.05-.03.08-.05Z"/>
          <path class="cls-12" d="M235.14,208.41s.05-.02.08-.01c-.05.02-.1.03-.13.05-.05.02-.08.03-.13.05.07-.03.12-.05.18-.08Z"/>
          <path class="cls-4" d="M217.89,225.82s61.55-8.22,91.67,7.21l.75,24.19-95.44-4.42,3.01-26.98Z"/>
        </g>
        <g>
          <g>
            <path class="cls-8" d="M352.28,201.88c-.55-.46-1.11-.91-1.69-1.34,0,0-.01,0-.01-.01-.94-2.8-2.03-5.08-2.88-6.71,1.97,2.58,3.5,5.3,4.58,8.07Z"/>
            <path class="cls-16" d="M338.33,240.09h0c-6.61,3.94-15.14,6.25-25.36,6-14.5-.34-28.1-3.78-41.2-9.01,10.33,3.19,30.62,8.6,45.92,7.16.25-.03.51-.06.75-.08,5.35-.67,10.58-2.14,15.49-4.34.43-.19.85-.39,1.27-.58,1.38-.65,2.83-1.25,4.1-2.12,6.82-4.66,13.77-11.49,13.31-25.48-.14-4.25-1-7.99-2.04-11.1.58.43,1.14.88,1.69,1.34,5.57,14.09.15,29.84-13.95,38.21Z"/>
            <path class="cls-11" d="M350.58,200.53c-11.78-9.02-25.52-13.3-33.32-15.13-.05-.45-.1-.91-.16-1.38,0,0-.15-2.03-.62-5.19,6.51.64,17.27,2.57,24.79,8.36,2.52,2.06,4.65,4.27,6.42,6.6,0,.01.01.01.01.02.85,1.63,1.94,3.91,2.88,6.71Z"/>
            <path class="cls-10" d="M339.33,237.11c-1.28.87-2.73,1.47-4.12,2.13-.42.19-.84.39-1.27.57-4.91,2.2-10.14,3.67-15.49,4.35-.25.03-.51.05-.76.08-15.29,1.43-35.58-3.97-45.92-7.16-.99-.39-2.01-.8-3.02-1.24-.31-.12-.64-.27-.96-.41l-.02-.02c-1.54-1.4-3.2-2.91-4.95-4.48-.56-.51-1.12-1.04-1.69-1.51-.03-.03-.06-.07-.1-.09,6.34.16,13.58.18,20.81-.09,17.48-.68,34.96-3.17,40.1-10.1.09-.16.17-.34.25-.54.09-.2.16-.39.23-.62.09-.23.16-.47.22-.74,1.33-5.19,1-15.67.65-21.51v-.02c.17-.21.26-.39.36-.58.05-.11.09-.23.12-.33.11-.29.18-.57.24-.83.02-.13.06-.26.06-.39.21-1.51-.3-2.68-1.22-3.58-.4-.39-.87-.73-1.39-1.04-1.22-.69-2.69-1.15-4.02-1.45-.06-.68-.13-1.39-.22-2.12,7.81,1.84,21.56,6.11,33.33,15.13,0,.02.02.02.02.02,1.03,3.1,1.9,6.85,2.03,11.09.46,13.99-6.49,20.82-13.3,25.48Z"/>
            <path class="cls-9" d="M324.02,193.99c-.05.26-.13.54-.23.82-.03.11-.06.21-.12.33-.1.2-.2.38-.36.59h0c-.81,1.05-2.59,2.09-5.2,3.1,0-.32,0-.66,0-1.01,0-.2-.01-.41-.02-.64-.01-.89-.05-1.91-.11-3.05-.02-.24-.02-.47-.04-.72-.01-.33-.04-.67-.05-1.02-.03-.31-.04-.62-.07-.94-.03-.33-.05-.66-.08-1l.4-.51-.45.02c-.02-.39-.06-.78-.1-1.19-.04-.4-.07-.83-.12-1.25,3.32.73,7.43,2.44,6.54,6.47Z"/>
            <path class="cls-10" d="M318.11,198.82c-.24.1-.49.19-.75.28-.31.11-.63.22-.96.33-.72.25-1.51.5-2.33.73-.24.08-.46.14-.71.22-.37.1-.75.2-1.13.3l-.4-2.8,5.9-7.44c.03.34.05.67.08,1,.03.32.04.64.07.94.01.35.04.69.05,1.02.02.25.02.48.04.72.06,1.14.1,2.15.11,3.05,0,.22.01.44.02.64,0,.35,0,.69,0,1.01Z"/>
            <path class="cls-11" d="M300.32,144.15c0-.3-.07-.61-.11-.91-.2-.93-.59-1.91-1.17-2.97-.31-.17-.62-.35-.91-.49-3.01-1.49-6.48-2.26-10.13-2.53-10.58-.79-22.73,2.59-29.59,4.92,1.5,1.63,2.66,2.86,3.73,3.9,1.96,1.92,3.59,3.2,6.24,4.89,0,0,.02.02.06.03.71.53,6.64,4.74,17.29,6.03,1.55.04,8.54-1.84,13.02-8.08.07-.1.15-.21.21-.29.03-.03.03-.05.05-.08.09-.1.15-.19.21-.29.09-.11.15-.23.22-.34.02-.02.03-.05.03-.05.09-.15.16-.28.21-.41.1-.19.19-.41.26-.62,0-.02.02-.07.04-.1.07-.18.13-.38.16-.57.17-.65.22-1.33.16-2.06Z"/>
            <path class="cls-11" d="M300.22,143.23c-.2-.92-.58-1.91-1.17-2.96.62.38.99,1.86,1.17,2.96Z"/>
            <path class="cls-10" d="M317.69,189.96l-8.1.42-3.71-7.72-3.97,9.33-8.59,3.18,6.11,5.33-.48,2.89c-1.52.25-3.09.49-4.71.7-.48.07-.98.14-1.48.19-.54.08-1.09.15-1.64.21-1.86.24-3.8.46-5.78.66-.88.09-1.79.17-2.7.27-.45.05-.91.08-1.37.13-.79.07-1.58.14-2.39.2-4.91.4-10.11.72-15.51.93-1.35.04-2.71.09-4.08.13-3.75.09-7.59.15-11.5.14-1.05,0-2.1-.01-3.16-.02-3.86-.04-7.77-.14-11.71-.31-1.25-.05-2.5-.11-3.76-.18h-.04c-20.79-12.11-39.54-18.45-49.22-21.21,5.1-12.1,18.19-39.16,36.23-47.23,2.66-1.31,5.22-2.37,7.65-3.22,2.06-.35,4.18-.55,6.38-.56,14.74-.06,22.68,3.42,28.28,7.94,1.49,1.62,2.66,2.86,3.74,3.9,1.95,1.91,3.58,3.19,6.24,4.88,0,0,.02.02.07.05.7.53,6.64,4.74,17.29,6.02,1.55.04,8.54-1.84,13.02-8.09.07-.09.15-.2.21-.29.02-.02.04-.05.05-.07.09-.1.16-.2.21-.3.07-.12.15-.23.22-.35.01-.01.02-.03.02-.05.09-.14.16-.27.21-.41.11-.2.2-.41.26-.62.01-.02.03-.06.04-.09.08-.19.13-.38.17-.58.16-.64.23-1.32.16-2.05-.02-.29-.07-.6-.12-.91-.2-.92-.58-1.91-1.17-2.96.59.33,1.17.71,1.72,1.14,10.28,7.76,14.33,27.86,15.72,37.41.46,3.16.62,5.19.62,5.19.15,1.24.27,2.41.38,3.5.05.42.08.85.12,1.25.04.41.07.8.1,1.19Z"/>
            <path class="cls-7" d="M321.95,219.15c-7.26,9.79-39.21,10.74-60.91,10.19-10.57-9.27-21.47-16.81-31.89-22.89,1.26.07,2.51.13,3.76.18,3.95.17,7.86.27,11.71.31,1.06,0,2.12.02,3.16.02,3.92.02,7.75-.04,11.5-.14,1.38-.04,2.73-.09,4.08-.13,5.4-.21,10.6-.53,15.51-.93.81-.06,1.6-.13,2.39-.2.46-.05.92-.08,1.37-.13.91-.09,1.82-.17,2.7-.27,1.98-.2,3.92-.42,5.78-.66.55-.07,1.1-.13,1.64-.21.5-.06.99-.12,1.48-.19.46-.06.92-.13,1.36-.19.07,0,.13-.02.2-.03,1.07-.16,2.13-.32,3.15-.49l-.66,3.96h0s-.47,2.83-.47,2.83l6.6-5.14h.01s.23-.19.23-.19l.9-.7,4.13,1.53.27.1,3.2,1.18-.92-6.27c.38-.1.76-.2,1.13-.3.25-.08.47-.14.71-.22.82-.24,1.6-.48,2.33-.73.33-.11.65-.22.96-.33.26-.1.51-.19.75-.28,2.62-1.01,4.4-2.05,5.2-3.09h0c.16-.22.26-.4.36-.6.05-.12.09-.22.12-.33.1-.28.18-.56.23-.82.02-.03.05-.06.07-.09.38,6.69-.01,21.29-2.14,25.24Z"/>
            <path class="cls-11" d="M308.96,200.79l.72,4.88-4.13-1.53-.9.7-.23.19h-.01s-2.14-.79-2.14-.79l-3.99,3.11h0s.66-3.97.66-3.97c-1.03.17-2.08.33-3.15.49-.07,0-.13.02-.2.03l.07-.41.48-2.89-6.11-5.33,8.59-3.18,3.97-9.33,3.72,7.72,8.1-.42c0,.16.01.32.05.48l-5.91,7.44.42,2.8Z"/>
            <path class="cls-15" d="M304.43,202.43c.57-.11,1.14-.23,1.69-.34-.54.11-1.11.23-1.69.34Z"/>
            <path class="cls-15" d="M302.65,202.76c.56-.1,1.09-.2,1.62-.3-.53.1-1.06.21-1.62.3Z"/>
            <path class="cls-15" d="M298.94,203.39c1.11-.18,2.2-.36,3.25-.54-1.05.19-2.14.37-3.25.54Z"/>
            <path class="cls-11" d="M267.79,235.41c-2.09-.87-4.15-1.81-6.21-2.78-.7-.32-1.39-.65-2.09-1.02-1.66-.82-3.35-1.64-5.02-2.51,2.04.1,4.25.17,6.56.22v.02s.07.05.1.07c.57.5,1.14.99,1.69,1.51.32.27.62.57.94.84,1.42,1.27,2.76,2.48,4.02,3.63Z"/>
            <path class="cls-9" d="M261.04,229.32c-2.31-.05-4.52-.12-6.56-.22h-.02c-6.11-3.15-12.14-6.58-18.15-10.13-2.88-1.69-5.74-3.43-8.59-5.16-.02-.02-.05-.02-.07-.05-4.59-2.81-9.16-5.61-13.76-8.42,1.29.12,2.56.25,3.82.35,1.29.1,2.56.2,3.82.27,1.27.1,2.53.22,3.8.27.6.05,1.22.07,1.81.1.6.05,1.19.07,1.79.1l.17.02h.05c1.42.82,2.81,1.66,4.22,2.53h.02s.07.05.1.07c.52.3,1.02.65,1.54.97,3.35,2.09,6.73,4.35,10.11,6.75,5.31,3.77,10.63,7.95,15.89,12.54Z"/>
            <path class="cls-7" d="M181.15,204.57c-1.61,1.13-3.02,2.32-4.21,3.59-3.21,3.44-5.6,9.74-7.26,17.85-.78,3.79-1.38,7.96-1.83,12.41-.05.54-13.62-1.14-14.87-1.37-5.54-1.08-10.84-3.4-15.39-6.76-4.12-3.05-8.35-6.9-9.17-12.23-.43-2.88-.23-7.59,1.3-11.14.48-1.09,1-2.13,1.6-3.12,10.05-2.12,30.33-4.97,49.82.77Z"/>
            <path class="cls-7" d="M198.96,196.79c-.17.04-.33.09-.48.13-7.37-3.08-16.15-5.71-20.11-6.6,6.7,1.01,13.65,3.1,20.59,6.47Z"/>
            <path class="cls-8" d="M179.88,185.24c-.95,2.27-1.63,4.01-1.99,4.99-.48-.06-.95-.13-1.43-.19.49-1.52,1.08-3.28,1.81-5.26.51.15,1.03.29,1.6.46Z"/>
            <path class="cls-11" d="M229.11,206.45h-.18c-.59-.04-1.19-.05-1.79-.1-.59-.02-1.2-.07-1.81-.1-1.27-.07-2.53-.17-3.8-.27-1.27-.09-2.53-.19-3.8-.29-1.28-.1-2.55-.22-3.83-.34-2.95-1.76-6.22-3.84-8.85-5.29-1.88-1.06-4.14-2.11-6.56-3.12-7.37-3.08-16.15-5.71-20.11-6.6-.08-.02-.15-.02-.23-.04l-.25-.06c.36-.98,1.03-2.72,1.99-4.99.41.11.82.24,1.23.36.05.02.1.04.16.04.16.05.34.09.52.16.34.09.69.2,1.05.31.15.04.29.07.46.13.2.05.41.13.62.2.56.18,1.16.36,1.78.56.39.14.83.27,1.26.41.16.05.33.12.51.16.7.23,1.44.5,2.2.75.13.05.24.09.38.13.73.27,1.5.54,2.27.81.57.2,1.16.41,1.76.64.51.18,1.03.39,1.55.57.21.09.44.16.65.25,1.55.6,3.15,1.23,4.81,1.92.95.39,1.91.8,2.88,1.2.42.18.85.37,1.27.55.28.12.55.25.85.37s.59.25.86.39c.41.18.8.35,1.21.53.39.18.8.35,1.2.54.93.42,1.89.86,2.85,1.32.59.28,1.19.58,1.81.88,1.2.58,2.42,1.19,3.66,1.82,1.09.54,2.19,1.12,3.3,1.69.15.07.29.16.44.24,1.27.66,2.53,1.36,3.82,2.07,1.28.71,2.58,1.44,3.88,2.2Z"/>
            <polygon class="cls-14" points="317.73 190.44 311.83 197.88 312.24 200.68 313.15 206.95 305.55 204.14 297.81 210.17 298.94 203.39 299.43 200.49 293.32 195.16 301.91 191.98 305.88 182.65 309.59 190.37 317.69 189.96 318.14 189.93 317.73 190.44"/>
          </g>
          <polygon class="cls-15" points="310.81 197.65 315.97 191.17 316.43 190.67 315.93 190.73 308.85 191.09 305.61 184.35 302.15 192.49 294.64 195.27 299.97 199.93 299.55 202.45 298.57 208.38 305.33 203.11 311.97 205.57 311.16 200.09 310.81 197.65"/>
          <path class="cls-13" d="M302.24,188.72c.33.4.78.69,1.29.82l1.29.33-1.25,1.16c-.31.29-.54.65-.67,1.05l-.52,1.62-.85-1.03c-.33-.4-.78-.69-1.29-.82l-1.29-.33,1.25-1.16c.31-.29.54-.65.67-1.05l.52-1.62.85,1.03Z"/>
          <path class="cls-13" d="M318.19,189.3c-.03.3.04.6.2.87l.4.66-.99-.03c-.25,0-.49.05-.71.16l-.87.46.07-.77c.03-.3-.04-.6-.2-.87l-.4-.66.99.03c.25,0,.49-.05.71-.16l.87-.46-.07.77Z"/>
          <path class="cls-13" d="M300.3,202.46c-.27.13-.5.34-.64.61l-.37.68-.48-.86c-.12-.21-.29-.4-.5-.52l-.84-.52.7-.33c.27-.13.5-.34.64-.61l.37-.68.48.86c.12.21.29.4.5.52l.84.52-.7.33Z"/>
          <path class="cls-16" d="M223.77,134.79c-2.45.85-5,1.9-7.66,3.23-15.75,7.03-27.73,28.55-33.92,41.96-.88,1.95-1.65,3.73-2.31,5.26-.57-.16-1.1-.31-1.6-.46.55-1.52,1.18-3.17,1.89-4.89,6.78-16.66,20.53-41.1,43.61-45.1Z"/>
          <path class="cls-1" d="M298.98,148.65c-.06.09-.13.2-.21.29"/>
        </g>
      </g>
      <path class="cls-9" d="M198.48,196.93c-5.27,1.47-9.95,3.31-13.86,5.48-1.24.69-2.4,1.4-3.47,2.16-19.49-5.74-39.77-2.9-49.82-.77,7.14-11.79,23.15-16.48,45.13-13.75.56.07,1.12.15,1.67.24.08.02.15.02.23.04,3.97.89,12.74,3.52,20.11,6.6Z"/>
      <path class="cls-6" d="M245.32,224.07c.15,0,8.2,4.55,14.18,7.54.7.37,1.39.7,2.09,1.02,2.06.97,4.12,1.91,6.21,2.78v.02c.32.15.67.27.97.4-19.94.92-47.67-10.38-47.8-10.35-.12-.07-15.84-9.48-26.3-15.3-4.37-2.41-8.91-4.25-13.51-5.61,1.07-.77,2.23-1.46,3.48-2.16,3.9-2.16,8.57-4.02,13.86-5.49,2.41,1.02,4.67,2.06,6.56,3.13,2.63,1.47,5.88,3.53,8.84,5.29,4.59,2.81,9.16,5.61,13.76,8.42.02.02.05.02.07.05,2.86,1.74,5.71,3.48,8.59,5.16l9.01,5.1Z"/>
      <path class="cls-4" d="M221.13,333.33c-1.42-.1-1.54-2.15-.14-2.39,18.98-3.23,59.74-16.36,67.25,2.23.97,2.4.63,5.17-1.3,5.98-3.78,1.58-17.27-2.12-45.77-4.36-6.03-.47-12.7-.97-20.04-1.46Z"/>
    </g>
  </g>
</svg>