<?xml version="1.0" encoding="UTF-8"?>
<svg xmlns="http://www.w3.org/2000/svg" viewBox="0 0 500 500">
  <defs>
    <style>
      .cls-1 {
        fill: #282c33;
      }

      .cls-1, .cls-2, .cls-3, .cls-4 {
        stroke-width: 0px;
      }

      .cls-2 {
        fill: #869eb4;
      }

      .cls-3 {
        fill: #fff;
      }

      .cls-4 {
        fill: #e65b0a;
      }
    </style>
  </defs>
  <g id="stiker_style" data-name="stiker style">
    <path class="cls-3" d="M333.93,248.08h0c-1.99-.28-3.93-.07-5.74.5.13-2.12.22-4.19.29-6.17,2.7-3.83,3.22-8.92,3.44-11.03,1.46-14.14-3.24-23.71-6.9-28.83-7.42-29.12-31.18-42.7-74.61-42.7-49.96,0-76.23,15.58-82.54,49.02-2.43,4.83-4.13,10.77-4.69,16.34-.73,7.3.51,13.59,3.55,18.16.13.2.27.4.42.59.16,2.24.33,4.48.53,6.72-2.63-.97-5.57-1.18-8.47-.38-7.39,2.02-11.75,9.68-9.73,17.07,3.67,13.4,8.18,20.25,9.05,21.48,2.59,3.7,6.84,5.91,11.36,5.91,2.7,0,5.31-.79,7.58-2.26,4.65,9.55,11.44,17.83,21.53,24-.02,2.88.09,5.44.26,7.65-6.46,1.66-10.72,4.11-12.26,8.65-1.14,3.37-.28,7.01,2.29,9.72,5.12,5.4,15.6,6.84,39.89,6.84,7.21,0,15.63-.13,25.49-.31,19.13-.36,33.03-1.17,42.47-2.47,6.88-.95,19.68-2.71,19.7-12.64,0-4.26-2.22-7.51-6.62-9.73.79-4.6,1.06-7.75.78-11.96,4.62-4.22,6.87-8.42,8.33-11.15,1.34-2.5,2.63-6.93,3.81-12.47,1.08.28,2.19.43,3.3.43,4.85,0,9.27-2.66,11.55-6.94,5.74-10.78,6.92-18.03,7.1-19.38.93-7.08-4.07-13.65-11.15-14.65Z"/>
  </g>
  <g id="Bubus">
    <path class="cls-2" d="M195.09,337c4.56,4.8,26.67,4.65,59.42,4.03,38.33-.73,54.32-3.3,54.33-7.11,0-6.35-28.94-6.28-54.6-6.22-38.58.09-63.99,4.19-59.14,9.3Z"/>
    <path class="cls-1" d="M294.31,334.37c-.45,0-.9-.04-1.35-.13-3.82-.75-6.32-4.42-5.57-8.24q2.03-10.38.28-22.19l6.96-1.08,6.97-1.03-6.97,1.03,6.98-.98c2.04,13.81,2.03,14.56-.38,26.9-.66,3.37-3.62,5.72-6.92,5.72Z"/>
    <path class="cls-1" d="M215.4,337.49c-3.07,0-5.9-2.03-6.79-5.12-.34-1.17-3.2-11.93-.45-30.5.57-3.85,4.16-6.51,8.01-5.94,3.85.57,6.51,4.16,5.94,8.01-2.31,15.57.04,24.5.06,24.58,1.08,3.74-1.09,7.62-4.83,8.7-.65.19-1.3.27-1.94.27Z"/>
    <path class="cls-1" d="M326.43,281.04c-.8,0-1.62-.19-2.38-.6-2.48-1.32-3.42-4.39-2.1-6.87,4.33-8.14,5.12-13.21,5.13-13.26.41-2.76,2.97-4.69,5.73-4.31,2.76.39,4.7,2.91,4.33,5.68-.09.68-1.03,6.89-6.23,16.66-.91,1.72-2.67,2.69-4.49,2.69Z"/>
    <path class="cls-1" d="M169.88,286.75c-1.85,0-3.66-.87-4.81-2.5-.45-.64-4.49-6.63-7.88-19-.86-3.14.99-6.38,4.13-7.24,3.14-.86,6.38.99,7.24,4.13,2.84,10.39,6.16,15.33,6.19,15.38,1.82,2.68,1.15,6.34-1.51,8.18-1.03.71-2.2,1.05-3.36,1.05Z"/>
    <path class="cls-4" d="M310.99,200.72c4.11,1.27,14.92,11.05,12.97,29.84-1.94,18.8-12.49.82-11.07-.33,1.43-1.15-1.9-29.51-1.9-29.51Z"/>
    <path class="cls-1" d="M250.41,167.86c-64.76,0-77.91,27-75.85,66.03,2.54,48.25,8.9,85.87,73.8,85.87,51.92,0,59.91-14.97,63.91-22.45,4-7.49,9.8-48.41,7.99-71.12-2.2-27.32-5.08-58.33-69.85-58.33Z"/>
    <path class="cls-3" d="M291.84,299.47c-2.26,0-4.45-1.21-5.6-3.35-2.14-3.99-11.2-8.36-22.11-8.46-4.53-.04-15.44.71-19.83,8.56-1.71,3.06-5.58,4.15-8.64,2.44-3.06-1.71-4.15-5.58-2.44-8.64,5.43-9.7,16.74-15.17,31.03-15.05,17.29.16,29.32,7.97,33.18,15.15,1.66,3.09.5,6.94-2.59,8.6-.95.51-1.98.76-3,.76Z"/>
    <path class="cls-4" d="M303.55,203.41c4.95,3.96,7.62,12.7,8.89,21.59,1.27,8.89,1.27,13.97-8.89,12.7-10.16-1.27-68.57-1.27-87.62,1.27-15.02,2.01-10.16-24.13,0-34.29,9.14-9.15,39.25-9.89,53.33-8.89,17.78,1.27,27.94,2.54,34.29,7.62Z"/>
    <path class="cls-3" d="M305.53,258.05c2.13.81,3.8,2.5,4.57,4.64.52,1.27,2.27.8,2.54-.74.05-.22.1-.46.12-.69.65-4.21-.89-8.26-3.81-10.03-4.74-2.84-10.9.5-13.1,6.68-.51,1.44.78,2.54,1.89,1.73,2.14-1.84,5.09-2.43,7.78-1.58Z"/>
    <path class="cls-3" d="M220.93,260.72c2.34-.53,4.78-.19,6.87.98.27.13.57.2.87.2,1.06,0,1.93-.87,1.93-1.93,0-.2-.03-.41-.1-.6v-.12c-1.55-5.37-6.86-8.83-11.94-7.78-5.61,1.14-9.07,7.02-7.62,12.99.04.2.09.38.15.58.18.91.98,1.55,1.89,1.55.7,0,1.35-.38,1.69-.99,1.31-2.43,3.58-4.21,6.26-4.88Z"/>
    <path class="cls-4" d="M190.33,238.97c5-3.81,4.08-9.92,6.77-19.05,4.11-13.97,9.19-21.59-5.85-20.32-7.89.66-11.62,3.81-16.14,12.7-3.89,7.62-6.11,20.03-1.69,26.67,3.34,5.08,13.74,2.39,16.92,0Z"/>
    <path class="cls-3" d="M222.15,214.84c-3.15,0-6.11,1.56-7.89,4.17,1.6-1.12,3.51-1.71,5.46-1.71,5.22,0,9.52,4.3,9.52,9.53,0,1.94-.59,3.83-1.7,5.42,2.62-1.77,4.18-4.72,4.18-7.89,0-5.22-4.3-9.52-9.52-9.52h-.06Z"/>
    <path class="cls-3" d="M236.94,203.41c-2.46,0-4.77,1.22-6.15,3.26,1.23-.83,2.69-1.28,4.18-1.28,4.08,0,7.44,3.36,7.44,7.44,0,1.48-.45,2.94-1.29,4.17,2.04-1.38,3.27-3.69,3.27-6.15,0-4.08-3.37-7.44-7.44-7.44h0Z"/>
    <path class="cls-3" d="M245.02,214.84c-3.16,0-6.12,1.56-7.89,4.17,1.61-1.12,3.51-1.71,5.46-1.71,5.22,0,9.52,4.3,9.52,9.53,0,1.94-.59,3.83-1.7,5.42,2.62-1.77,4.18-4.72,4.18-7.89,0-5.22-4.3-9.52-9.52-9.52h-.05Z"/>
    <path class="cls-3" d="M272.95,200.87c-3.16,0-6.12,1.56-7.89,4.17,1.6-1.12,3.5-1.71,5.45-1.71,5.22,0,9.53,4.3,9.53,9.52,0,1.94-.6,3.84-1.7,5.43,2.61-1.77,4.18-4.72,4.18-7.89,0-5.22-4.31-9.52-9.53-9.52h-.05Z"/>
    <path class="cls-3" d="M298.59,203.41c-2.24,0-4.33,1.11-5.59,2.96,1.12-.76,2.44-1.17,3.8-1.17,3.7,0,6.75,3.04,6.75,6.74,0,1.36-.42,2.68-1.18,3.8,1.86-1.25,2.97-3.35,2.97-5.59,0-3.69-3.05-6.74-6.75-6.74h-.04.03Z"/>
    <path class="cls-3" d="M295.37,218.65c-2.47,0-4.78,1.23-6.16,3.26,1.23-.83,2.69-1.28,4.18-1.28,4.08,0,7.44,3.36,7.44,7.44,0,1.49-.44,2.95-1.29,4.17,2.04-1.38,3.27-3.69,3.27-6.15,0-4.08-3.36-7.44-7.44-7.44Z"/>
    <path class="cls-3" d="M274.22,216.11c-3.16,0-6.12,1.56-7.89,4.17,1.6-1.11,3.5-1.71,5.45-1.71,5.22,0,9.53,4.3,9.53,9.53,0,1.94-.6,3.83-1.7,5.42,2.61-1.77,4.18-4.72,4.18-7.89,0-5.22-4.3-9.52-9.53-9.52h-.05Z"/>
    <path class="cls-3" d="M173.87,220.22c.25,2.07,1.52,3.88,3.38,4.81-.83-.93-1.36-2.1-1.5-3.35-.34-3.45,2.19-6.56,5.62-6.94,1.27-.15,2.55.08,3.69.66-1.39-1.58-3.47-2.38-5.56-2.12-3.44.38-5.97,3.5-5.63,6.94Z"/>
    <path class="cls-3" d="M185.07,212.87c-.3,1.78.31,3.61,1.63,4.84-.46-.99-.6-2.09-.42-3.16.54-2.95,3.4-4.93,6.35-4.4,1.09.19,2.1.68,2.9,1.45-.77-1.66-2.32-2.82-4.12-3.13-2.95-.52-5.81,1.47-6.35,4.4Z"/>
    <path class="cls-3" d="M177.56,230.67c.28,2.45,1.77,4.6,3.95,5.75-1.14-1.35-1.77-3.05-1.77-4.81,0-4.08,3.37-7.44,7.45-7.44,1.18,0,2.34.28,3.4.82-1.41-1.63-3.47-2.58-5.64-2.58-4.08,0-7.44,3.36-7.44,7.44,0,.28.02.56.04.84v-.02Z"/>
    <path class="cls-3" d="M320.06,214.81c2.03,2.97,2.55,6.75,1.38,10.16l-1.38-10.16Z"/>
    <path class="cls-3" d="M288.83,189.37c-.35,0-.7-.04-1.05-.11-20.55-4.4-43.96-2.28-44.2-2.26-2.74.25-5.19-1.76-5.45-4.51-.26-2.75,1.76-5.19,4.51-5.45,1.02-.1,25.15-2.3,47.23,2.43,2.7.58,4.42,3.24,3.84,5.94-.5,2.35-2.58,3.96-4.89,3.96Z"/>
  </g>
</svg>