<?xml version="1.0" encoding="UTF-8"?>
<svg xmlns="http://www.w3.org/2000/svg" viewBox="0 0 500 500">
  <defs>
    <style>
      .cls-1 {
        opacity: .1;
      }

      .cls-1, .cls-2 {
        fill: #e1ebf0;
      }

      .cls-1, .cls-2, .cls-3, .cls-4, .cls-5, .cls-6, .cls-7 {
        stroke-width: 0px;
      }

      .cls-2 {
        opacity: .09;
      }

      .cls-3, .cls-4 {
        fill-rule: evenodd;
      }

      .cls-3, .cls-6 {
        fill: #272c32;
      }

      .cls-4, .cls-7 {
        fill: #fff;
      }

      .cls-5 {
        fill: #f7c052;
      }
    </style>
  </defs>
  <g id="stiker_style" data-name="stiker style">
    <path class="cls-7" d="M354.38,206.48c-.18-1.36-1.9-13.26-9.16-24.22-4.07-6.14-11.96-8.22-18.45-5.23-1.13-2.57-2.45-4.8-4-6.61-12.41-14.5-42.73-19.82-66.97-19.97-.38,0-.76,0-1.14,0-14,0-27.42,1.6-38.86,4.63-13.83,3.66-24.07,9.19-30.42,16.43l-.12.14c-2.64,3.15-4.73,7.38-6.4,12.2-3.19-1.96-6.94-2.64-10.62-1.89-3.86.78-7.18,3.02-9.36,6.31-7.25,10.94-8.98,22.9-9.16,24.23-1.04,8.03,4.64,15.43,12.68,16.5.65.09,1.3.13,1.95.13,3.03,0,5.88-.95,8.25-2.56-.02.77-.04,1.53-.06,2.26-1.42.19-2.71.38-3.78.57-8.19,1.44-12.43,3.71-13.2,4.15l-3.96,2.28-.28,24.53,7.92-2.69c.48.84,1.07,1.81,1.85,2.78.07,4.88.55,12.69,2.57,19.31,2.94,9.61,8.51,16.02,17.02,19.54,2.87,9.44,6.38,16.67,10.47,21.6-.49,8.68-.04,15.36,1.35,20.36,1.95,6.97,8.36,11.84,15.59,11.84,1.47,0,2.93-.2,4.35-.6,8.36-2.33,13.36-10.85,11.44-19.19,12.61,2.01,32.61,4.11,51.33,1.46-.09.69-.21,1.38-.36,2.05-.89,4.23-.09,8.56,2.27,12.18,2.36,3.62,5.99,6.11,10.22,7.01,1.1.23,2.23.35,3.35.35,7.6,0,14.26-5.4,15.83-12.84,1.45-6.86,1.71-13.89.8-20.98,1.75-1.39,3.35-2.89,4.79-4.48,10.85-11.96,17.21-45.68,19.54-73.25.49-5.76,1.04-14.22,1.12-23.48,2.09,1.14,4.47,1.79,6.98,1.79.64,0,1.29-.04,1.91-.12,3.91-.51,7.38-2.51,9.78-5.63,2.4-3.12,3.45-6.99,2.94-10.9Z"/>
  </g>
  <g id="Bubus">
    <path class="cls-6" d="M208.08,345.1c-3.58,0-6.87-2.37-7.88-5.99-1.24-4.45-1.56-11.11-.94-19.8.29-4.16.69-7.27.71-7.4.58-4.49,4.69-7.66,9.17-7.08,4.48.58,7.65,4.68,7.08,9.16h0s-.36,2.79-.61,6.46c-.68,9.53.12,13.31.38,14.25,1.21,4.36-1.33,8.87-5.69,10.09-.74.21-1.48.3-2.2.3Z"/>
    <path class="cls-6" d="M290.7,348.36c-.56,0-1.13-.06-1.7-.18-4.42-.93-7.25-5.28-6.32-9.7,2.81-13.3-2.7-24.18-2.76-24.29-2.13-3.99-.61-8.93,3.38-11.06,3.99-2.13,8.96-.6,11.09,3.39.34.65,8.39,16.02,4.31,35.34-.81,3.85-4.22,6.5-8,6.5Z"/>
    <path class="cls-3" d="M191.39,176.78c22.06-25.14,106.29-23.37,125.3-1.16,15.83,18.5,6.31,118.54-10.5,137.07-23.08,25.43-89.22,12.61-102.26,7.92-25.36-7.62-31.12-121.62-12.54-143.83Z"/>
    <path class="cls-4" d="M283.38,251.01c-7.84,0-14.22,6.37-14.22,14.22,0,7.84,6.37,14.2,14.22,14.2,7.84,0,14.2-6.36,14.2-14.2,0-7.84-6.36-14.22-14.2-14.22Z"/>
    <path class="cls-4" d="M205.01,251.01c-6.68,0-12.11,5.43-12.11,12.11,0,6.68,5.43,12.1,12.11,12.1s12.1-5.42,12.1-12.1-5.42-12.11-12.1-12.11Z"/>
    <path class="cls-4" d="M194.75,199.04c16.81-9.81,82.66-12.96,100.96-.82,10.07,6.68,11.61,43.28-.35,41.74-27.88-3.6-86.13-3.35-102.71-1.52-8.28.92-8.24-33.36,2.1-39.4Z"/>
    <path class="cls-6" d="M339.75,215.13c-3.33,0-6.22-2.47-6.68-5.85-.02-.15-1.18-8.24-5.77-15.15-2.06-3.1-1.21-7.29,1.9-9.35,3.1-2.06,7.29-1.21,9.35,1.9,6.38,9.62,7.84,20.38,7.89,20.84.48,3.69-2.12,7.08-5.82,7.56-.3.04-.59.06-.88.06Z"/>
    <path class="cls-6" d="M164.34,221.14c-.3,0-.59-.02-.9-.06-3.68-.49-6.28-3.86-5.8-7.54.06-.45,1.52-11.22,7.89-20.85,2.06-3.11,6.24-3.95,9.35-1.9s3.96,6.24,1.9,9.35c-4.6,6.95-5.75,15.08-5.77,15.16-.46,3.38-3.36,5.84-6.68,5.84Z"/>
    <path class="cls-7" d="M218.84,185.09c-3.05,0-5.82-2.09-6.56-5.19-.86-3.62,1.38-7.26,5.01-8.12,31.36-7.43,60.96-1.73,62.2-1.48,3.65.72,6.03,4.27,5.31,7.92-.72,3.65-4.27,6.03-7.92,5.31-.35-.07-28.1-5.35-56.48,1.38-.52.12-1.05.18-1.56.18Z"/>
    <path class="cls-7" d="M242.59,310.38h-7.74c-2.44,0-4.46-1.89-4.62-4.32l-1.12-10.85c-.33-4.96,3.24-9.33,8.16-10l2.53-.35c5.68-.77,10.74,3.64,10.74,9.37v8.2c0,4.39-3.56,7.95-7.95,7.95Z"/>
    <g>
      <path class="cls-1" d="M226.19,249.92c-1.9-3.97-6.57-7.38-18.73-9.84-12.16-2.44-24.39-.48-30.1,2.77-4.25,2.43-5.89,9.17-6.45,12.48-.26,4.51-.17,14.41,2.03,21.5,2.31,7.58,6.28,11.78,13.27,14.05,6.98,2.26,16.16,2.34,22.79.17,7.16-2.34,12.44-8.53,14.88-17.41,2.71-9.85,3.41-19.6,2.53-23.32-.1-.12-.16-.26-.21-.41Z"/>
      <path class="cls-2" d="M302.87,244.61c-5.64-3.42-17.82-5.73-30.03-3.61-12.21,2.11-16.97,5.39-18.95,9.31-.08.14-.14.27-.22.4-.97,3.68-.5,13.45,1.98,23.37,2.24,8.96,7.38,15.28,14.48,17.82,6.57,2.35,15.71,2.54,22.79.46,7.08-2.08,11.09-6.16,13.59-13.66,2.34-7.04,2.67-16.92,2.53-21.45-.49-3.32-1.98-10.1-6.16-12.64Z"/>
      <path class="cls-5" d="M312.61,247.23c-2.6-.04-4.71-.52-4.7-1.07s2.12-.96,4.72-.92,4.69.51,4.69,1.05-2.08.96-4.71.92h0ZM306.49,278.7c-2.49,7.48-6.55,11.59-13.58,13.66-7.04,2.07-16.22,1.89-22.79-.46-7.1-2.54-12.24-8.86-14.48-17.82-2.48-9.92-2.94-19.69-1.98-23.37.07-.13.14-.26.22-.4,1.98-3.93,6.74-7.21,18.95-9.31,12.22-2.12,24.39.18,30.03,3.61,4.19,2.54,5.67,9.32,6.16,12.64.14,4.53-.2,14.41-2.53,21.45h-.01ZM223.85,273.65c-2.44,8.9-7.73,15.07-14.88,17.41-6.63,2.17-15.76,2.1-22.79-.17-7.03-2.28-10.95-6.46-13.27-14.04-2.18-7.1-2.29-16.99-2.03-21.51.58-3.3,2.2-10.05,6.45-12.46,5.72-3.27,17.94-5.23,30.1-2.77,12.15,2.44,16.83,5.85,18.73,9.84.06.14.14.28.21.41.88,3.7.19,13.46-2.53,23.31ZM167.53,245.2c-2.59-.04-4.69-.52-4.69-1.07s2.1-.97,4.71-.94,4.71.52,4.7,1.07-2.12.97-4.72.93ZM309.9,239.22c-7.19-1.47-31.92-4.86-47.74-1.89-15.39,2.88-13.93,6.95-13.8,8.53-2.48-1.79-5.43-2.46-8.29-2.5-2.85-.04-5.82.51-8.34,2.27.17-1.55,1.69-5.6-13.62-8.91-15.75-3.41-40.76-.7-47.98.56-7.22,1.27-10.6,3.21-10.6,3.21l-.1,8.66c1.89-.64,3.95.13,5.1,1.89,1.84,2.59,2.32,4.8,4.56,5.77-.15,5.11.19,14,2.2,20.61,2.48,8.1,6.91,12.79,14.39,15.21,3.81,1.18,7.75,1.8,11.71,1.82,4.07.12,8.12-.42,12.04-1.62,7.71-2.52,13.39-9.14,16.01-18.63,2.37-8.61,3.15-17.03,2.8-21.92.62.21,1.28,0,1.71-.54h.08c.12-.12.24-.26.34-.4.9-1.02,3.79-3.65,9.66-3.57s8.68,2.79,9.55,3.84c.1.16,0,.29.1.41h-.2c.53.55,1.27.78,1.98.58-.47,4.88.29,13.32,2.46,22,2.39,9.56,7.95,16.33,15.62,19.07,3.89,1.3,7.95,1.96,12.02,1.95,3.96.09,7.92-.41,11.76-1.49,7.52-2.21,12.06-6.78,14.72-14.8,2.18-6.56,2.69-15.45,2.66-20.54,2.26-.89,2.6-3.11,4.49-5.64,2.25-3.01,4.87-1.75,4.87-1.75l.1-8.66s-3.09-2.03-10.28-3.5Z"/>
    </g>
  </g>
</svg>