<?xml version="1.0" encoding="UTF-8"?>
<svg xmlns="http://www.w3.org/2000/svg" viewBox="0 0 500 500">
  <defs>
    <style>
      .cls-1 {
        fill: #869eb4;
        fill-rule: evenodd;
      }

      .cls-1, .cls-2, .cls-3 {
        stroke-width: 0px;
      }

      .cls-2 {
        fill: #272c32;
      }

      .cls-3 {
        fill: #fff;
      }
    </style>
  </defs>
  <g id="stiker_style" data-name="stiker style">
    <path class="cls-3" d="M336.96,261.44v-.09c-1.14-7.81-8.27-13.28-16.05-12.44,1.3-19.44,1.94-55.01-9.22-68.07-12.28-14.34-42.19-19.61-66.09-19.77-14.29-.1-28.04,1.5-39.73,4.61-13.76,3.66-23.95,9.18-30.31,16.41l-.11.12c-5.15,6.1-8.81,16.82-10.88,31.87-.35,2.58-.66,5.28-.91,8.08-2.82-2.39-6.63-3.58-10.57-2.94-3.45.56-6.47,2.44-8.51,5.28-2.04,2.84-2.85,6.3-2.29,9.75l.02.14c1.49,8.14,4.57,15.76,9.17,22.64l.1.15c2.51,3.58,6.53,5.62,10.77,5.62.33,0,.66-.03.99-.05.95,14.35,2.92,27.78,5.74,39.09,3.15,12.58,7.24,21.95,12.19,27.93-.24,3.34-.24,6.7,0,10.05-6.29.71-11.54,1.52-15.67,2.43-4.82,1.06-14.84,3.27-14.84,11.8,0,9.21,10.55,12.04,31.32,14.3,15.87,1.72,36.9,2.67,59.23,2.67s43.34-.95,59.18-2.67c20.74-2.26,31.27-5.09,31.27-14.3s-10.46-10.92-16.07-12.07c-4.84-.99-11.24-1.88-18.78-2.62.02-2.7-.14-5.4-.47-8.07,1.67-1.38,3.24-2.89,4.69-4.5,5.48-6.01,9.8-17.58,13.03-31.08.94.48,1.94.87,2.99,1.14l.86.17c.69.1,1.39.15,2.09.15.53,0,1.05-.03,1.58-.08,6.15-.27,11.47-4.33,13.34-10.24l.06-.19c2.38-8.22,3.01-16.7,1.89-25.18Z"/>
  </g>
  <g id="Bubus">
    <g>
      <path class="cls-1" d="M241.3,345c-45.58,0-82.54,4.08-82.54,9.03s36.97,8.97,82.54,8.97,82.46-4.01,82.46-8.97-36.97-9.03-82.46-9.03Z"/>
      <g>
        <path class="cls-2" d="M305.61,186.05c15.59,18.24,6.31,117.11-10.42,135.35-2.18,2.44-4.69,4.56-7.45,6.31,1.56,7.47,1.56,15.19,0,22.66-.85,3.68-4.12,6.29-7.89,6.31-.57.06-1.14.06-1.7,0-4.39-.92-7.21-5.21-6.31-9.6.92-4.34,1.07-8.8.44-13.19-21.91,5.49-50.5,2.02-66.85-1.45-.36,3.65-.16,7.33.57,10.92,1.17,4.3-1.33,8.75-5.62,9.97-.7.2-1.42.3-2.15.32-3.64-.03-6.82-2.44-7.83-5.93-1.32-6.44-1.64-13.04-.95-19.57v-1.39c-21.15-18.94-25.25-118.81-7.89-139.39,22.03-25.06,105.24-23.29,124.05-1.33Z"/>
        <path class="cls-2" d="M150.18,232.95c-.45-2.77,1.43-5.39,4.2-5.84,2.77-.45,5.39,1.43,5.84,4.2,1.03,5.57,3.18,10.87,6.31,15.59,1.56,2.27.99,5.37-1.28,6.94-.04.02-.07.05-.11.07-.49.37-1.05.62-1.64.76-2.05.46-4.16-.37-5.37-2.08-3.97-5.93-6.67-12.61-7.95-19.63Z"/>
        <path class="cls-2" d="M315.9,264.39c-.52-3.63,1.99-6.99,5.62-7.51,3.63-.52,6.99,1.99,7.51,5.62.97,7.34.41,14.8-1.64,21.91-.87,2.76-3.42,4.64-6.31,4.67-.65.09-1.31.09-1.96,0-3.38-.86-5.42-4.29-4.56-7.67.06-.22.13-.44.21-.66,1.45-5.32,1.84-10.88,1.14-16.35Z"/>
      </g>
      <g>
        <path class="cls-3" d="M275.62,260.48c6.14-.03,11.14,4.91,11.17,11.05.03,6.14-4.91,11.14-11.05,11.17-6.14.03-11.14-4.91-11.17-11.05,0-.02,0-.04,0-.06,0-6.11,4.94-11.08,11.05-11.11Z"/>
        <path class="cls-3" d="M202.14,292.55c8.96,8.23,21.51,11.33,33.27,8.21,6.56-1.41,12.85-3.86,18.62-7.26,3.17-2.04,7.4-1.12,9.44,2.05,2.04,3.17,1.12,7.4-2.05,9.44-10.68,6.57-22.94,10.13-35.48,10.29-12.24.21-24.09-4.31-33.08-12.63-2.77-2.56-2.94-6.89-.38-9.66,2.56-2.77,6.89-2.94,9.66-.38h0v-.06Z"/>
        <circle class="cls-3" cx="185.85" cy="269.69" r="10.1"/>
        <path class="cls-3" d="M284.52,249.62c-33.73-3.15-67.65-3.66-101.45-1.52-8.21.88-8.14-32.95,2.08-38.95,16.6-9.66,81.63-12.63,99.68-.82,9.97,6.63,11.49,42.8-.32,41.29Z"/>
        <path class="cls-3" d="M260.91,193.43c-18.51-3.13-37.44-2.74-55.81,1.14-.5.06-1.01.06-1.52,0-3.66.14-6.74-2.71-6.88-6.37-.12-3.27,2.15-6.14,5.36-6.76,20.19-4.44,41.05-4.93,61.43-1.45,3.71.71,6.14,4.3,5.43,8.02-.71,3.71-4.3,6.14-8.02,5.43Z"/>
      </g>
    </g>
  </g>
</svg>