<?xml version="1.0" encoding="UTF-8"?>
<svg xmlns="http://www.w3.org/2000/svg" xmlns:xlink="http://www.w3.org/1999/xlink" viewBox="0 0 500 500">
  <defs>
    <style>
      .cls-1 {
        fill: url(#Dégradé_sans_nom_13);
        opacity: .5;
      }

      .cls-1, .cls-2, .cls-3, .cls-4, .cls-5, .cls-6, .cls-7, .cls-8, .cls-9, .cls-10, .cls-11, .cls-12, .cls-13 {
        stroke-width: 0px;
      }

      .cls-1, .cls-3 {
        mix-blend-mode: luminosity;
      }

      .cls-2 {
        fill: url(#Dégradé_sans_nom_6);
      }

      .cls-2, .cls-4, .cls-5, .cls-6 {
        fill-rule: evenodd;
      }

      .cls-3 {
        fill: url(#Dégradé_sans_nom_29);
        opacity: .2;
      }

      .cls-14 {
        opacity: .2;
      }

      .cls-4, .cls-8 {
        fill: #272c32;
      }

      .cls-5 {
        fill: #869eb4;
      }

      .cls-6, .cls-13 {
        fill: #fff;
      }

      .cls-15 {
        isolation: isolate;
      }

      .cls-7 {
        fill: #f2f2f2;
      }

      .cls-9 {
        fill: #3c4347;
      }

      .cls-10 {
        fill: #141b21;
      }

      .cls-11 {
        fill: #d26e00;
      }

      .cls-12 {
        fill: #ff9800;
      }
    </style>
    <linearGradient id="Dégradé_sans_nom_6" data-name="Dégradé sans nom 6" x1="216.52" y1="188.26" x2="207.11" y2="172.64" gradientUnits="userSpaceOnUse">
      <stop offset="0" stop-color="#000" stop-opacity="0"/>
      <stop offset="1" stop-color="#000"/>
    </linearGradient>
    <linearGradient id="Dégradé_sans_nom_13" data-name="Dégradé sans nom 13" x1="226.02" y1="177.15" x2="217.36" y2="149.29" gradientUnits="userSpaceOnUse">
      <stop offset="0" stop-color="#000" stop-opacity="0"/>
      <stop offset="1" stop-color="#fff"/>
    </linearGradient>
    <linearGradient id="Dégradé_sans_nom_29" data-name="Dégradé sans nom 29" x1="182.84" y1="174.09" x2="230.07" y2="148.57" gradientUnits="userSpaceOnUse">
      <stop offset="0" stop-color="#000" stop-opacity="0"/>
      <stop offset=".1" stop-color="#fff" stop-opacity=".2"/>
      <stop offset=".23" stop-color="#333" stop-opacity=".2"/>
      <stop offset=".43" stop-color="#333" stop-opacity=".2"/>
      <stop offset=".8" stop-color="#fff"/>
    </linearGradient>
  </defs>
  <g class="cls-15">
    <g id="stiker_style" data-name="stiker style">
      <path class="cls-13" d="M349.73,290.64c-2.38-3.14-5.84-5.16-9.74-5.7-.12-.02-.23-.03-.35-.05.04-.19.08-.39.12-.59.55-3.23-.17-6.49-2.03-9.17-1.04-1.5-2.37-2.73-3.9-3.62,3.43-27.95,5.27-72.94-7.46-87.82-8.6-10.04-25.01-14.91-37.27-17.23-12.82-2.42-27.09-3.26-41-2.46v-.25h-.07c-.24-2.09-1.14-4.07-2.61-5.67-2.74-2.96-6.98-4.37-13.96-4.48-.04-.22-.07-.43-.11-.64-1.75-10.53-2.05-11.17-2.53-12.22-5.04-10.89-21.34-12.94-38.76-4.88-7.21,3.34-13.42,8-17.48,13.14-5.19,6.56-6.61,13.69-3.93,19.48.27.61.57,1.07.79,1.39l.08.11c.07.11.16.23.21.3l11.61,14.5c-1.36,1.57-2.71,3.4-3.5,5.22-2.24,5.17-.31,8.64,1.05,10.25.61.73,1.3,1.33,2.06,1.81-4.5,16.96-5.91,43.31-3.91,68.56-1.64-1.01-3.51-1.72-5.54-2.02-3.9-.58-7.78.39-10.95,2.73-3.17,2.35-5.23,5.79-5.81,9.7-1.92,12.98,1.58,24.54,1.99,25.83,1.96,6.13,7.6,10.25,14.03,10.25,1.51,0,3-.23,4.45-.69,3.65-1.15,6.53-3.62,8.31-6.71,2.87,10.22,6.61,18.78,11.24,24.43-.28,4.91-.25,9.17.07,12.86-7.24.72-13.41,1.58-18.13,2.53-5.71,1.15-16.33,3.3-16.33,12.12s10.55,12.04,31.32,14.3c15.87,1.72,36.9,2.67,59.23,2.67s43.34-.95,59.18-2.67c20.74-2.26,31.27-5.09,31.27-14.3,0-8.5-9.91-10.71-14.67-11.77-4.04-.9-9.18-1.71-15.33-2.41.22-3.86.07-7.76-.43-11.67,1.33-1.05,2.57-2.17,3.72-3.34l.86-.59c6.19-4.24,11.04-10.59,14.47-18.92,2.02.52,4.02.91,5.99,1.19.67.09,1.35.14,2.02.14,7.32,0,13.6-5.47,14.6-12.73.54-3.9-.48-7.78-2.86-10.92Z"/>
    </g>
    <g id="Bubus">
      <path class="cls-5" d="M250.89,352.63c-45.58,0-82.54,4.08-82.54,9.03s36.97,8.97,82.54,8.97,82.46-4.01,82.46-8.97-36.97-9.03-82.46-9.03Z"/>
      <g>
        <path class="cls-8" d="M211.69,358.37c-3.58,0-6.87-2.37-7.88-5.99-1.24-4.45-1.56-11.11-.94-19.8.29-4.17.69-7.27.71-7.4.58-4.49,4.68-7.66,9.17-7.07,4.49.58,7.65,4.68,7.07,9.17-.01.1-.36,2.84-.61,6.46-.68,9.53.12,13.31.38,14.25,1.21,4.36-1.33,8.87-5.69,10.09-.74.21-1.48.3-2.2.3Z"/>
        <path class="cls-8" d="M294.3,361.63c-.56,0-1.13-.06-1.7-.18-4.42-.93-7.25-5.28-6.32-9.7,2.82-13.33-2.68-24.14-2.73-24.24-2.13-3.99-.62-8.95,3.37-11.08,3.99-2.13,8.95-.62,11.08,3.37.34.65,8.39,16.02,4.31,35.34-.81,3.85-4.22,6.5-8,6.5Z"/>
        <path class="cls-4" d="M194.99,190.05c22.06-25.14,106.29-23.37,125.3-1.16,15.83,18.5,6.31,118.54-10.5,137.07-23.08,25.43-89.22,12.61-102.26,7.92-25.36-7.62-31.12-121.62-12.54-143.83Z"/>
        <g>
          <path class="cls-2" d="M240.1,172.67v.02c-4.96,26.42-49.75,26.84-49.75,26.84l-.07-.65c1.34-3.69,2.91-6.69,4.71-8.84,8.39-9.56,25.76-15.23,45.11-17.37Z"/>
          <path class="cls-10" d="M210.81,186.06s28.13-13.58,29.26-20.78c1.13-7.2-29.26-1.64-29.26-1.64,0,0,14.79,16.71,0,22.42Z"/>
          <path class="cls-1" d="M210.81,186.06s28.13-13.58,29.26-20.78c1.13-7.2-29.26-1.64-29.26-1.64,0,0,14.79,16.71,0,22.42Z"/>
          <path class="cls-9" d="M210.81,186.06c6.64-3.77,27.3-13.99,29.26-20.78-1.88,7.52-22.13,17.43-29.26,20.78h0Z"/>
          <path class="cls-10" d="M221.55,144.1c-2.95-6.37-15.55-6.81-28.14-.98s-20.42,15.72-17.47,22.08c.35.75,12.02,15.07,17.91,22.27,1.93,2.36,5.27,3.01,7.95,1.55l25.18-13.71s-4.93-30.16-5.42-31.22Z"/>
          <path class="cls-3" d="M221.55,144.1c-2.95-6.37-15.55-6.81-28.14-.98s-20.42,15.72-17.47,22.08c.46,1,21.24,26.34,21.24,26.34,0,0,28.8-14.31,29.07-18.87-.98-7.83-4.21-27.52-4.7-28.58Z"/>
          <path class="cls-8" d="M187.13,179.24l.94-.37c12.66-4.92,24.88-10.92,36.52-17.91h0s1.44,8.61,1.44,8.61h0c-9.03,6.48-18.96,11.6-29.48,15.18l-3.86,1.31-5.56-6.82Z"/>
          <path class="cls-2" d="M240.1,172.67v.02c-4.96,26.42-49.75,26.84-49.75,26.84l-.07-.65c1.34-3.69,2.91-6.69,4.71-8.84,8.39-9.56,25.76-15.23,45.11-17.37Z"/>
          <path class="cls-10" d="M201.94,181.63l-1.4.22c-3.82.83-7.44,2.66-10.19,5.15,0,0-4.1,3.68-5.18,6.17-.71,1.65-.66,2.87,2.96,2h0c11.28-2.72,22.2-7.37,31.86-13.57l9.34-5.99h0c-9,2.57-18.14,4.58-27.39,6.02Z"/>
          <path class="cls-9" d="M229.33,175.61c-8.16,2.57-16.52,4.5-24.96,5.86,0,0-2.54.4-2.54.4-4.2.56-8.23,2.39-11.48,5.14,3.1-2.92,7.17-4.95,11.42-5.56,0,0,2.53-.42,2.53-.42,8.42-1.44,16.76-3.29,25.04-5.41h0Z"/>
        </g>
        <g>
          <path class="cls-13" d="M271.11,290.41c.13-.29.61-.28.72.02,5.24,14.84-22.69,18.98-22.69,5.36,0-6.12,6.29-7.69,12.39-2.37,5.35,4.66,8.56-.77,9.58-3.01Z"/>
          <path class="cls-13" d="M230.14,290.28c-.13-.29-.61-.28-.72.02-5.24,14.84,22.69,18.98,22.69,5.36,0-6.12-6.29-7.69-12.39-2.37-5.35,4.66-8.56-.77-9.58-3.01Z"/>
        </g>
        <path class="cls-6" d="M289.97,264.28c-6.19,0-11.22,5.03-11.22,11.22,0,6.19,5.03,11.21,11.22,11.21,6.19,0,11.21-5.02,11.21-11.21,0-6.19-5.02-11.22-11.21-11.22Z"/>
        <path class="cls-6" d="M207.71,264.28c-6.19,0-11.22,5.03-11.22,11.22,0,6.19,5.03,11.21,11.22,11.21,6.19,0,11.21-5.02,11.21-11.21,0-6.19-5.02-11.22-11.21-11.22Z"/>
        <path class="cls-6" d="M198.35,212.31c16.81-9.81,82.66-12.96,100.96-.82,10.07,6.68,11.61,43.28-.35,41.74-27.88-3.6-86.13-3.35-102.71-1.52-8.28.92-8.24-33.36,2.1-39.4Z"/>
        <g>
          <g class="cls-14">
            <ellipse class="cls-7" cx="289.97" cy="274.16" rx="30.26" ry="30" transform="translate(-8.58 538.95) rotate(-84.97)"/>
          </g>
          <path class="cls-12" d="M275.5,245.21c15.77-8.01,35.06-1.71,43.07,14.06.04.08.09.17.13.25,7.98,15.96,1.58,35.52-14.26,43.59-15.77,8.01-35.06,1.71-43.07-14.06-.04-.08-.09-.17-.13-.26-7.98-15.96-1.58-35.52,14.26-43.59ZM276.82,247.85c-14.4,7.34-20.21,25.11-12.96,39.62,7.15,14.4,24.62,20.28,39.02,13.13.08-.04.15-.08.23-.12,14.4-7.34,20.21-25.11,12.96-39.62-7.15-14.4-24.62-20.28-39.03-13.13-.08.04-.15.08-.23.12Z"/>
          <path class="cls-11" d="M260.59,271.53c1.45-16.44,15.88-28.64,32.17-27.2s28.37,15.97,26.92,32.41c-1.45,16.44-15.88,28.64-32.17,27.2-16.29-1.43-28.37-15.97-26.92-32.41ZM261.15,271.58c-1.42,16.12,10.43,30.39,26.41,31.79,15.98,1.41,30.14-10.56,31.56-26.69,1.42-16.12-10.43-30.39-26.41-31.79-15.98-1.41-30.14,10.56-31.56,26.69h0Z"/>
        </g>
        <path class="cls-13" d="M280.74,315.32h-60.24l15.48-4.97c10.64-3.42,22.11-3.21,32.62.59l12.13,4.38Z"/>
        <path class="cls-12" d="M327.6,286.6c-.24,0-.48-.02-.72-.06-1.14-.2-2.13-.83-2.79-1.78-.66-.95-.92-2.11-.72-3.26.41-2.38,2.65-3.98,4.99-3.59,1.14.2,2.13.83,2.79,1.78.66.95.92,2.11.72,3.26-.37,2.13-2.2,3.65-4.27,3.65ZM327.64,278.84c-1.59,0-3,1.17-3.28,2.82-.15.89.04,1.79.55,2.52.51.73,1.27,1.22,2.14,1.37,1.8.32,3.52-.93,3.83-2.77.15-.89-.04-1.79-.55-2.52-.51-.73-1.27-1.22-2.14-1.37-.18-.03-.37-.05-.55-.05Z"/>
        <rect class="cls-12" x="321.99" y="280.09" width="1" height="2.76" transform="translate(18.02 582.34) rotate(-85.77)"/>
        <path class="cls-12" d="M310.98,325.28l-.57-.82c8.18-5.61,12.11-15.73,13.97-23.24,2.02-8.18,2.09-15.11,2.09-15.18h1c0,.29-.35,28.19-16.49,39.24Z"/>
        <path class="cls-8" d="M337.98,306.29c-.31,0-.62-.02-.93-.06-11.43-1.57-20.47-7.59-20.85-7.85-3.09-2.08-3.91-6.27-1.83-9.36,2.08-3.08,6.25-3.9,9.34-1.84.1.07,6.95,4.55,15.18,5.69,3.69.51,6.27,3.91,5.76,7.6-.46,3.38-3.36,5.82-6.67,5.82Z"/>
        <path class="cls-8" d="M170.75,309.11c-2.85,0-5.5-1.82-6.41-4.68-.14-.44-3.39-10.8-1.7-22.23.54-3.68,3.97-6.24,7.66-5.68,3.68.54,6.23,3.97,5.68,7.66-1.22,8.25,1.19,16.1,1.21,16.17,1.11,3.55-.86,7.33-4.4,8.45-.68.21-1.36.32-2.04.32Z"/>
        <path class="cls-13" d="M222.44,198.35c-3.05,0-5.82-2.09-6.56-5.19-.86-3.62,1.38-7.26,5.01-8.12,31.37-7.43,60.96-1.73,62.21-1.48,3.65.72,6.03,4.27,5.31,7.92-.72,3.65-4.27,6.02-7.92,5.31-.35-.07-28.1-5.35-56.48,1.38-.52.12-1.05.18-1.56.18Z"/>
        <path class="cls-13" d="M280.74,315.32h-60.24l15.48-4.97c10.64-3.42,22.11-3.21,32.62.59l12.13,4.38Z"/>
      </g>
    </g>
  </g>
</svg>