<?xml version="1.0" encoding="UTF-8"?>
<svg xmlns="http://www.w3.org/2000/svg" viewBox="0 0 500 500">
  <defs>
    <style>
      .cls-1, .cls-2 {
        fill: none;
      }

      .cls-1, .cls-3, .cls-4, .cls-5, .cls-6, .cls-7, .cls-8, .cls-9, .cls-10, .cls-11, .cls-12, .cls-13 {
        fill-rule: evenodd;
      }

      .cls-1, .cls-3, .cls-4, .cls-5, .cls-6, .cls-7, .cls-8, .cls-9, .cls-10, .cls-11, .cls-12, .cls-13, .cls-14, .cls-15, .cls-16, .cls-17 {
        stroke-width: 0px;
      }

      .cls-2 {
        stroke: #869eb4;
        stroke-miterlimit: 10;
      }

      .cls-3 {
        fill: #232628;
      }

      .cls-4 {
        fill: #2e3335;
      }

      .cls-5, .cls-15 {
        fill: #272c32;
      }

      .cls-6 {
        fill: #636668;
      }

      .cls-7 {
        fill: #474f54;
      }

      .cls-8 {
        fill: #798893;
      }

      .cls-9, .cls-14 {
        fill: #7992a5;
      }

      .cls-10 {
        fill: #869eb4;
      }

      .cls-11, .cls-17 {
        fill: #fff;
      }

      .cls-12 {
        fill: #678399;
      }

      .cls-13 {
        fill: #889599;
        opacity: .25;
      }

      .cls-16 {
        fill: #444647;
      }
    </style>
  </defs>
  <g id="stiker_style" data-name="stiker style">
    <path class="cls-17" d="M342.47,257.17c21.15-87.65-107.35-157.46-167.39-90.01-24.84,25.61-29.63,67.95-23.74,103.54,2.81,7.91,2.63,23.36,10.81,28.36.14,5.65,1.37,9.52,4.48,12.65,1.41,11.66,10.12,9.86,22.06,12,1.48,1.65,3.12,3.19,4.92,4.62-.51,3.96-.65,7.92-.42,11.84-5.17,1.8-10.39,5-10.39,11.25,1.29,18.88,50.03,15.92,68.63,17.16,18.72-1.27,67.19,1.78,68.63-17.15,0-6.19-5.17-9.42-10.41-11.25.38-3.83.42-8.29.13-13.48.55-.66,1.09-1.36,1.62-2.1,11.48-1.69,18.41.22,22.41-9.73.93-.87,1.71-1.9,2.3-3.04l1.18-.23.25-16.35-1.11.22c-.37-.88-.83-1.71-1.39-2.49,10.89-8.38,9.41-31.74,7.42-35.79Z"/>
  </g>
  <g id="Bubus">
    <g>
      <g>
        <path class="cls-5" d="M309.55,182.56c-22.06-25.14-106.29-23.37-125.3-1.16-15.83,18.5-6.31,118.54,10.5,137.07,23.08,25.44,89.22,12.61,102.26,7.93,25.36-7.62,31.13-121.62,12.54-143.84Z"/>
        <path class="cls-10" d="M251.44,342.25c33.46,0,60.63,4.1,60.63,9.16s-27.17,9.15-60.63,9.15-60.63-4.1-60.63-9.15,27.17-9.16,60.63-9.16Z"/>
        <path class="cls-11" d="M214.57,256.8c6.19,0,11.22,5.02,11.22,11.21s-5.03,11.22-11.22,11.22-11.21-5.03-11.21-11.22,5.03-11.21,11.21-11.21Z"/>
        <path class="cls-17" d="M264.88,312.24c-14.62,0-28.2-5.6-35.9-10.55-3.21-2.06-4.14-6.34-2.08-9.55,2.06-3.21,6.32-4.14,9.53-2.08.17.11,8.2,5.14,18.86,7.38,13.42,2.83,24.76.06,33.71-8.21,2.8-2.59,7.17-2.42,9.76.38,2.59,2.8,2.42,7.17-.38,9.76-10.31,9.53-22.22,12.86-33.5,12.86Z"/>
        <circle class="cls-17" cx="305.51" cy="266.13" r="10.2" transform="translate(-23.7 502.32) rotate(-76.72)"/>
        <path class="cls-11" d="M306.19,204.82c-16.81-9.81-82.65-12.96-100.96-.82-10.07,6.68-11.61,43.28.35,41.73,27.88-3.6,86.12-3.35,102.71-1.52,8.29.92,8.25-33.36-2.1-39.4Z"/>
        <path class="cls-17" d="M287.51,190.24c-.51,0-1.04-.06-1.56-.18-28.43-6.73-56.21-1.43-56.49-1.38-3.64.72-7.2-1.66-7.92-5.31-.72-3.65,1.65-7.19,5.3-7.92,1.24-.25,30.84-5.95,62.21,1.49,3.62.86,5.87,4.49,5.01,8.12-.73,3.1-3.5,5.19-6.56,5.19Z"/>
        <path class="cls-15" d="M292.85,350.89c-.73,0-1.47-.1-2.2-.3-4.36-1.21-6.91-5.73-5.69-10.08.26-.94,1.06-4.74.39-14.26-.26-3.66-.62-6.41-.62-6.44-.59-4.48,2.57-8.59,7.05-9.18,4.48-.6,8.59,2.57,9.18,7.05.02.13.42,3.24.72,7.42.61,8.68.29,15.34-.95,19.8-1.01,3.62-4.3,6-7.88,6Z"/>
        <path class="cls-15" d="M328.02,286.99c-.6,0-1.2-.1-1.79-.33-2.65-.99-4-3.94-3.01-6.59,3.05-8.17,2.3-16.7,2.29-16.78-.26-2.81,1.8-5.31,4.61-5.58,2.82-.29,5.31,1.78,5.59,4.59.04.44,1.02,10.9-2.89,21.36-.77,2.06-2.72,3.33-4.8,3.33Z"/>
        <path class="cls-14" d="M168.6,285.7c-2.85,0-5.5-1.82-6.41-4.69-.14-.44-3.38-10.81-1.69-22.22.55-3.68,3.97-6.23,7.66-5.68,3.68.54,6.23,3.97,5.68,7.66-1.22,8.24,1.19,16.09,1.21,16.17,1.11,3.55-.86,7.33-4.41,8.45-.68.21-1.36.31-2.04.31Z"/>
        <path class="cls-15" d="M210.24,354.15c-3.79,0-7.19-2.64-8-6.5-4.09-19.32,3.96-34.7,4.31-35.34,2.13-3.99,7.09-5.49,11.08-3.36,3.97,2.12,5.48,7.06,3.39,11.04-.13.25-5.55,11.07-2.75,24.28.94,4.42-1.89,8.77-6.32,9.7-.57.12-1.14.18-1.7.18Z"/>
      </g>
      <g>
        <path class="cls-6" d="M326.48,309.87l-.16,1.66c0,.05,0,.1-.01.15-.09,1.66-1.31,3.06-2.96,3.35-6.46,1.17-25.21,3.54-70.92,3.56-50.27.02-70.78-3.72-76.33-5-.95-.22-1.57-1.11-1.45-2.07h0s.37-3.63.37-3.63c0,0,129.4.73,151.46,1.98h0Z"/>
        <path class="cls-9" d="M329.39,304.98l-.03,1.74c-.03,1.63-1.27,2.98-2.89,3.15-92.63,9.55-148.47-1.02-148.47-1.02,0,0-3.69-.32-6.22-3.36-2.02-2.45-1.67-8-1.46-10.12h.01v-.02c-.33-.49-6.31-9.81-4.08-17.69-.38-1.72-.99-2.95-1.73-3.91-1.05-1.4-2.33-2.22-3.43-3.14-.77-.64-1.32-3.05-1.68-5.97,1.37-.51,3.12-1.1,5.1-1.61,4.14-1.08,9.32-1.85,14.28-1.06,1.1.19,2.19.44,3.25.79l.02.02c.13.49.28.97.44,1.45.07.22.15.44.22.66.2.6.41,1.18.63,1.76.2.52.41,1.05.63,1.55.15.36.3.71.46,1.06.04.1.09.22.15.32.29.66.61,1.3.92,1.92.19.38.39.75.58,1.12.03.05.06.1.09.17.13.24.26.47.4.71.98,1.76,2.04,3.39,3.14,4.93.17.23.33.46.5.69.74,1,1.5,1.96,2.26,2.87.17.21.35.42.54.63.19.22.38.44.56.65.19.22.38.43.56.64.19.21.39.42.58.62l.56.6c.19.21.38.4.56.6.2.19.39.38.58.58.74.74,1.48,1.45,2.23,2.12.36.33.71.66,1.07.97,1.07.95,2.1,1.83,3.06,2.62.16.14.31.26.47.39,2.31,1.93,4.16,3.4,5.1,4.52.06.07.13.15.18.22.16.22.28.42.38.61.05.12.08.23.12.35,0,0-.01.01,0,.02.01.02.01.05.01.08v.08c-.01.56,0,1.1.04,1.61v.02c.27,5.41,2.38,8.58,4.01,10.23h.01c16.65.49,80.61,1.85,116.29-5.13Z"/>
        <path class="cls-12" d="M184.45,269.24c-7.38-.3-15.64,2.69-19.92,4.5-1.05-1.4-2.33-2.22-3.43-3.14-.77-.64-1.32-3.05-1.68-5.97,1.37-.51,3.12-1.1,5.1-1.61,4.14-1.08,9.32-1.85,14.28-1.06,1.1.19,2.19.44,3.25.79.03.08.05.18.08.26.12.41.24.81.38,1.2.07.22.15.44.22.66.2.6.41,1.18.63,1.76.2.52.41,1.05.63,1.55.15.36.3.71.46,1.06Z"/>
        <path class="cls-4" d="M330.96,281.67c-2.23,4.61-6.75,8.69-14.83,11.46h-.01c-4.6,1.58-10.36,2.72-17.52,3.28-29.05,2.29-58.48-8.51-80.88-20.09,14.28,5.34,40.15,12.95,68.5,11.3,34.29-1.98,43.33-15.93,45.56-21.44.55.76,3.53,7.8-.83,15.48Z"/>
        <path class="cls-13" d="M332.47,263.95c-.23.73-.47,1.45-.72,2.18,0,0,.02.02.04.06-2.24,5.51-11.27,19.46-45.56,21.44-28.35,1.64-54.21-5.96-68.5-11.3-3.25-1.67-6.35-3.37-9.28-5.03-6.09-3.48-11.44-6.86-15.86-9.81h-.01c-3.89-2.61-7.06-4.87-9.36-6.59,1.04-2.78,1.63-5.97,1.63-9.35,0-10.75-5.95-19.5-13.38-19.82,6.3-39.56,40.56-69.8,81.9-69.8,10.13,0,19.83,1.82,28.81,5.15h.01c1.23.45,2.46.94,3.66,1.46,29.68,12.63,50.47,42.06,50.47,76.34,0,8.74-1.35,17.17-3.86,25.08Z"/>
        <line class="cls-2" x1="289.56" y1="146.06" x2="289.56" y2="146.05"/>
        <path class="cls-10" d="M157.29,247.36c-3.85-43.43,20.93-99.53,82.69-99.53,17.11,0,32.96,5.45,45.88,14.7-1.2-.52-2.43-1.01-3.66-1.46h-.01c-8.98-3.33-18.68-5.15-28.81-5.15-41.34,0-75.61,30.24-81.9,69.8l-14.19,21.63Z"/>
        <path class="cls-10" d="M208.92,297.72c-.09-.19-.22-.39-.38-.61.18.22.3.42.38.61Z"/>
        <path class="cls-10" d="M209.09,299.86c-.04-.51-.05-1.05-.04-1.61v-.08s.01.06.01.08c-.01.56,0,1.1.03,1.61Z"/>
        <path class="cls-12" d="M329.46,300.53l-.06,4.45c-35.69,6.98-99.64,5.63-116.29,5.13h0c-1.62-1.65-3.73-4.82-4-10.23,17.36.91,77.37,3.37,118.46-3.33,1.23.96,1.94,2.43,1.91,3.98Z"/>
        <path class="cls-12" d="M330.85,281.65l-4.77,11.03c-.12.25-.18.5-.21.76-12.14,2.81-38.45,7.45-66.79,3.34-32.63-4.75-67.6-29.7-77.91-37.53h-.01l-.03-.16c.82-1.24,1.53-2.66,2.09-4.19,2.3,1.72,5.47,3.97,9.36,6.59h.01c4.42,2.95,9.78,6.33,15.86,9.81,1.46.84,2.97,1.67,4.52,2.51.52.29,1.06.58,1.59.86,1.04.55,2.09,1.11,3.16,1.66h.01c22.4,11.58,51.83,22.38,80.88,20.09,7.15-.56,12.91-1.7,17.52-3.28h.01c8.08-2.77,12.49-6.87,14.71-11.48Z"/>
        <path class="cls-10" d="M327.54,296.55c-41.09,6.69-101.09,4.24-118.45,3.33h0c-.04-.52-.05-1.06-.04-1.62v-.08s0-.06-.01-.08c-.01-.01,0-.02,0-.02-.02-.11-.05-.23-.12-.35-.09-.19-.22-.39-.38-.61-.05-.07-.11-.15-.18-.22-.94-1.12-2.79-2.58-5.1-4.52-.16-.13-.31-.25-.47-.39-.96-.79-2-1.67-3.06-2.62-.36-.31-.71-.64-1.07-.97-.74-.67-1.49-1.38-2.23-2.12-.19-.2-.38-.39-.58-.58-.19-.2-.38-.39-.56-.6l-.56-.6c-.19-.2-.39-.41-.58-.62-.19-.21-.38-.42-.56-.64-.19-.21-.38-.43-.56-.65-.19-.21-.37-.42-.54-.63-.76-.91-1.52-1.86-2.26-2.87-.17-.23-.33-.46-.5-.69-.33-.47-.67-.95-.99-1.44-.74-1.11-1.46-2.26-2.14-3.48-.14-.24-.27-.47-.4-.71-.03-.06-.06-.12-.09-.17-.19-.37-.39-.74-.58-1.12-.31-.63-.63-1.27-.92-1.92-.21-.45-.42-.91-.61-1.38-.22-.5-.42-1.01-.63-1.55-.22-.58-.43-1.16-.63-1.76-.07-.22-.15-.44-.22-.66-.14-.4-.26-.79-.38-1.2-.03-.08-.05-.18-.08-.26h0c-.35-1.14-.64-2.31-.89-3.51,10.31,7.83,45.28,32.78,77.91,37.53,28.34,4.11,54.65-.52,66.79-3.34-.1.72.07,1.45.49,2.05.19.27.43.52.71.72l.24.17c.08.05.16.1.23.17Z"/>
        <line class="cls-2" x1="329.4" y1="304.97" x2="329.39" y2="304.97"/>
        <path class="cls-10" d="M183.22,254.9c-.56,1.54-1.28,2.95-2.09,4.19.27,1.25.58,2.48.93,3.66-.48-.16-.96-.29-1.45-.41-.6-.16-1.2-.27-1.81-.38-.73-.12-1.46-.2-2.2-.25-1.59-.13-3.18-.09-4.73.03,0,0-.01-.01-.01,0-1.31.1-2.58.28-3.82.5h-.01c-.82.15-1.61.31-2.38.49-.39.09-.76.19-1.13.28-1.99.51-3.73,1.1-5.1,1.61-.46-3.45-.68-7.59-.78-10.36h0c-.9-2.64-1.4-5.59-1.4-8.72,0-.6.02-1.17.05-1.75,0,0,0-.01.01-.04.14-2.35.56-4.59,1.24-6.62,0-.01.01-.03.01-.04.67-2.06,1.59-3.92,2.69-5.53,2.51-3.62,5.97-5.86,9.81-5.86.15,0,.28,0,.43.02,7.42.31,13.38,9.07,13.38,19.82,0,3.38-.6,6.57-1.63,9.35Z"/>
        <path class="cls-7" d="M164.57,235.59h6.51c1.93,0,3.69,1.16,4.39,2.96,1.05,2.67,1.93,6.92,0,11.75-.72,1.81-2.47,3-4.42,3h-6.49v-17.7Z"/>
        <path class="cls-3" d="M169.82,244.44c0,4.89-2.35,8.86-5.25,8.86-.06,0-.13,0-.19-.01,2.8-.17,5.05-4.07,5.05-8.85s-2.25-8.67-5.05-8.84c.06-.01.13-.01.19-.01,2.9,0,5.25,3.96,5.25,8.85Z"/>
        <path class="cls-8" d="M169.44,244.44c0,4.78-2.25,8.68-5.05,8.85-2.81-.16-5.06-4.06-5.06-8.85s2.25-8.68,5.06-8.84c2.8.17,5.05,4.07,5.05,8.84Z"/>
        <g>
          <path class="cls-7" d="M170.97,273.45h7.51c3.87,0,7.25,2.6,8.27,6.33.52,1.91.84,4.1.6,6.37-.47,4.35-4.23,7.62-8.61,7.62h-6.75c-.98.01-1.79-.75-1.85-1.73l-1.02-16.64c-.07-1.06.78-1.96,1.84-1.96Z"/>
          <path class="cls-3" d="M170.91,293.77c-.32.03-.62.03-.92.01.05,0,.09-.01.14-.01,4.08-.38,6.96-5.25,6.43-10.86-.48-5.18-3.71-9.18-7.4-9.47,4.02-.27,7.67,3.93,8.19,9.47.52,5.61-2.35,10.48-6.43,10.86Z"/>
          <path class="cls-8" d="M170.12,293.77s-.09.01-.14.01c-3.71-.29-6.93-4.3-7.4-9.48-.53-5.61,2.34-10.48,6.42-10.85.05,0,.09-.01.15-.01,3.69.29,6.92,4.29,7.4,9.47.53,5.61-2.35,10.48-6.43,10.86Z"/>
        </g>
        <path class="cls-11" d="M314.64,213.09c-1.82.78-5.04-2.67-7.2-7.71-2.16-5.04-2.44-9.75-.62-10.53,1.82-.78,5.04,2.67,7.2,7.71,2.16,5.04,2.44,9.76.62,10.53Z"/>
        <path class="cls-11" d="M304.31,203.87c-.9.39-2.51-1.33-3.58-3.83-1.07-2.51-1.21-4.85-.31-5.24.9-.39,2.51,1.33,3.58,3.83,1.07,2.51,1.21,4.85.31,5.24Z"/>
        <path class="cls-1" d="M330.68,309.42c-.46.05-.91.09-1.36.15"/>
        <ellipse class="cls-16" cx="213.1" cy="315.33" rx="1.31" ry="1.05" transform="translate(-103.96 525.86) rotate(-89.53)"/>
        <ellipse class="cls-16" cx="245.99" cy="316.27" rx="1.31" ry="1.21" transform="translate(-72.27 559.67) rotate(-89.53)"/>
        <ellipse class="cls-16" cx="279.37" cy="315.92" rx="1.31" ry="1.21" transform="translate(-38.81 592.71) rotate(-89.53)"/>
        <ellipse class="cls-16" cx="318.22" cy="313.35" rx="1.31" ry=".96" transform="translate(2.28 629.01) rotate(-89.53)"/>
      </g>
    </g>
  </g>
</svg>