<?xml version="1.0" encoding="UTF-8"?>
<svg xmlns="http://www.w3.org/2000/svg" viewBox="0 0 500 500">
  <defs>
    <style>
      .cls-1, .cls-2, .cls-3, .cls-4, .cls-5 {
        fill-rule: evenodd;
      }

      .cls-1, .cls-2, .cls-3, .cls-4, .cls-5, .cls-6, .cls-7 {
        stroke-width: 0px;
      }

      .cls-1, .cls-6 {
        fill: #272c32;
      }

      .cls-2 {
        fill: #869eb4;
      }

      .cls-3 {
        fill: #e65b0a;
      }

      .cls-4, .cls-7 {
        fill: #fff;
      }

      .cls-5 {
        fill: #f3b089;
      }
    </style>
  </defs>
  <g id="stiker_style" data-name="stiker style">
    <path class="cls-7" d="M352.2,188.06c0-24.09-19.59-43.68-43.68-43.68-14.82,0-28.54,7.58-36.53,19.76-16.19-3.5-35.36-4.3-53.63-2.16-13.01,1.53-36.45,5.98-47.32,18.69-12.38,14.47-10.3,56.49-8.83,73.88,1.58,18.74,5.04,40.33,10.53,55.91-.75.33-1.47.7-2.17,1.16-3.3,2.15-5.56,5.46-6.37,9.32-2.69,12.81.12,24.47.44,25.76,1.4,5.49,5.77,9.58,11.13,10.75,1.3,8.71,13.33,11.01,24.63,12.46,9.62,1.24,21.76,1.89,34.84,1.89,2.94,0,5.93-.03,8.95-.1,16.44-.37,31.95-1.69,43.66-3.72,11.56-2.01,23.85-4.95,24.11-14.32,3.81-1.31,7-4.13,8.69-7.93,5.06-11.32,1.97-23.28,1.31-25.56-1.48-5.05-5.47-8.7-10.22-10.02,7.39-22.95,9.47-55.65,8.21-79.93,18.6-5.09,32.24-22.28,32.24-42.14Z"/>
  </g>
  <g id="Bubus">
    <g>
      <g>
        <path class="cls-1" d="M301.49,187.01c-21.89-24.95-105.5-23.19-124.37-1.14-15.71,18.36-6.26,117.65,10.43,136.04,22.9,25.25,88.56,12.52,101.5,7.87,25.17-7.57,30.89-120.72,12.44-142.77Z"/>
        <path class="cls-2" d="M243.61,345.52c33.21-.74,60.26,2.74,60.37,7.75.11,5.01-26.76,9.68-59.96,10.42-33.21.73-60.26-2.74-60.37-7.76-.11-5.01,26.76-9.68,59.96-10.41Z"/>
        <path class="cls-4" d="M208.78,275.4c6.14,0,11.81-1.04,11.81,5.11s-4.99,11.13-11.13,11.13-11.13-4.99-11.13-11.13,4.31-5.11,10.45-5.11Z"/>
        <path class="cls-4" d="M288.25,274.19c5.83-.22,11.18-1.35,11.38,4.14.21,5.48-4.35,10.12-10.18,10.34-5.83.22-10.74-4.06-10.94-9.54-.21-5.48,3.91-4.71,9.74-4.94Z"/>
        <path class="cls-4" d="M298.16,224.22c-16.68-10.87-82.04-14.36-100.21-.91-9.99,7.4-11.52,47.93.35,46.22,27.67-3.98,85.48-3.71,101.94-1.68,8.23,1.02,8.19-36.95-2.08-43.63Z"/>
        <path class="cls-7" d="M281.25,209.23c-.53,0-1.07-.06-1.61-.19-28.16-6.88-55.75-1.82-56.03-1.77-3.65.69-7.18-1.71-7.88-5.37-.69-3.66,1.7-7.18,5.36-7.88,1.24-.24,30.66-5.69,61.75,1.91,3.62.88,5.83,4.53,4.95,8.15-.75,3.08-3.51,5.14-6.54,5.14Z"/>
        <path class="cls-4" d="M249.37,312.52c-23.15.93-27,3.05-31.35,2.33-3.53-.59-2.92-3.84,11.05-6.49,9.42-1.79,25.3-2.28,34.2-1.39,7.72.77,16.67,3.09,13.37,5.93-1.32,1.13-10.99-1.04-27.27-.38Z"/>
        <path class="cls-3" d="M308.52,152.38c19.7,0,35.68,15.99,35.68,35.68s-15.98,35.68-35.68,35.68-35.67-15.99-35.67-35.68,15.98-35.68,35.67-35.68Z"/>
        <path class="cls-5" d="M309.18,154.81h.42s.22.01.22.01h.21s.21.02.21.02h.21s.21.02.21.02h.21s.21.03.21.03h.21s.21.03.21.03l.2.02.21.02.21.02.21.02.2.02.21.03.21.02.2.03.21.03.2.03.21.03.2.03.2.03.21.04.2.03.2.04.21.04.2.04.2.04.2.04.2.04.2.04.2.05.2.05.2.04.19.05.2.05.2.06.19.05.2.05.2.06.19.05.2.06.19.06.19.06.2.06.19.06.19.06.19.07.19.06.19.07.19.07.19.07.19.07.19.07.19.07.19.07.18.08.19.07.19.08.18.08.18.08.19.08.18.08.18.08.19.08.18.09.18.08.18.09.18.08.18.09.18.09.17.09.18.09.18.1.17.09.18.09.17.1.18.1.17.09.17.1.18.1.17.1.17.11.17.1.17.1.17.11.16.1.17.11.17.11.16.1.17.11.16.11.17.12.16.11.16.11.17.12.16.11.16.12.16.11.16.12.15.12.16.12.16.12.15.12.16.13.15.12.16.13.15.12.15.13.15.12.15.13.15.13.15.13.15.13.15.13.14.14.15.13.14.13.15.14.14.13.15.14.14.14.14.14.14.14.14.14.14.14.13.14.14.14.14.15.13.14.13.14.14.15.13.15.13.14.13.15.13.15.13.15.13.15.13.15.12.15.13.16.12.15.13.16.12.15.12.16.12.15.12.16.12.16.12.16.12.16.11.16.12.16.11.16.12.16.11.17.11.16.11.16.11.17.11.17.11.16.1.17.11.17.1.17.11.17.1.17.1.17.1.17.1.17.1.17.1.18.09.17.1.18.09.17.1.18.09.17.09.18.09.18.09.18.09.18.09.18.08.18.09.18.08.18.09.18.08.18.08.19.08.18.08.18.08.19.07.18.08.19.07.19.07.18.08.19.07.19.07.19.07.19.06.19.07.19.07.19.06.19.06.19.07.2.06.19.06.19.05.2.06.19.06.2.05.19.06.2.05.2.05.19.05.2.05.2.05.2.04.2.05.2.04.2.05.2.04.2.04.2.04.2.04.2.03.2.04.21.03.2.04.2.03.21.03.2.03.21.03.2.02.21.03.2.02.21.03.21.02.2.02.21.02.21.02.21v.21s.03.21.03.21v.21s.02.21.02.21l.02.21v.21s.01.21.01.21v.21s.02.21.02.21v.42s0,.22,0,.22v.85s0,.21,0,.21v.21s-.02.21-.02.21v.42s-.03.21-.03.21v.21s-.02.21-.02.21l-.02.21v.21s-.03.21-.03.21l-.02.2-.02.21-.02.21-.03.21-.02.2-.03.21-.02.21-.03.2-.03.21-.03.2-.03.2-.04.21-.03.2-.04.2-.03.21-.04.2-.04.2-.04.2-.04.2-.05.2-.04.2-.05.2-.04.2-.05.2-.05.2-.05.19-.05.2-.05.2-.06.19-.05.2-.06.2-.06.19-.05.19-.06.2-.06.19-.07.19-.06.2-.06.19-.07.19-.07.19-.06.19-.07.19-.07.19-.07.18-.08.19-.07.19-.07.19-.08.18-.07.19-.08.18-.08.19-.08.18-.08.18-.08.19-.09.18-.08.18-.09.18-.08.18-.09.18-.09.18-.09.18-.09.18-.09.17-.09.18-.1.18-.09.17-.1.18-.09.17-.1.17-.1.18-.1.17-.1.17-.1.17-.1.17-.11.17-.1.17-.11.17-.1.17-.11.16-.11.17-.11.16-.11.17-.11.16-.11.16-.12.17-.11.16-.12.16-.11.16-.12.16-.12.16-.12.16-.12.15-.12.16-.12.16-.12.15-.13.16-.12.15-.13.15-.12.15-.13.16-.13.15-.13.15-.13.15-.13.14-.13.15-.13.15-.14.14-.13.15-.13.14-.14.15-.14.14-.13.14-.14.14-.14.14-.14.14-.14.14-.14.14-.15.13-.14.14-.15.13-.14.14-.15.13-.14.13-.15.14-.15.13-.15.13-.15.13-.15.12-.15.13-.15.13-.15.12-.16.13-.15.12-.16.12-.15.12-.16.13-.16.12-.15.11-.16.12-.16.12-.16.12-.16.11-.17.12-.16.11-.16.11-.17.11-.16.11-.17.11-.16.11-.17.11-.17.11-.16.1-.17.11-.17.1-.17.1-.17.1-.17.1-.18.1-.17.1-.17.1-.18.1-.17.09-.18.1-.17.09-.18.09-.18.1-.17.09-.18.09-.18.08-.18.09-.18.09-.18.08-.18.09-.19.08-.18.08-.18.08-.19.08-.18.08-.18.08-.19.08-.19.07-.18.07-.19.08-.19.07-.19.07-.19.07-.19.07-.19.07-.19.06-.19.07-.19.06-.19.07-.19.06-.2.06-.19.06-.19.06-.2.05-.19.06-.2.06-.2.05-.19.05-.2.05-.2.05-.19.05-.2.05-.2.05-.2.04-.2.05-.2.04-.2.04-.2.04-.2.04-.21.04-.2.04-.2.03-.21.04-.2.03-.2.03-.21.03-.2.03-.21.03-.2.03-.21.02-.21.03-.2.02-.21.02-.21.02-.21.02-.2.02-.21.02h-.21s-.21.02-.21.02l-.21.02h-.21s-.21.02-.21.02h-.21s-.21.01-.21.01h-.22s-.21.02-.21.02h-1.48s-.21-.02-.21-.02h-.43s-.21-.02-.21-.02h-.21s-.21-.03-.21-.03h-.21s-.21-.02-.21-.02l-.2-.02-.21-.02-.21-.02-.21-.02-.21-.02-.2-.02-.21-.03-.21-.02-.2-.03-.21-.03-.2-.03-.21-.03-.2-.03-.2-.03-.21-.04-.2-.03-.2-.04-.2-.04-.21-.04-.2-.04-.2-.04-.2-.04-.2-.05-.2-.04-.2-.05-.19-.05-.2-.05-.2-.05-.2-.05-.19-.05-.2-.05-.2-.06-.19-.06-.2-.05-.19-.06-.19-.06-.2-.06-.19-.06-.19-.07-.19-.06-.19-.07-.19-.06-.19-.07-.19-.07-.19-.07-.19-.07-.19-.07-.19-.08-.18-.07-.19-.07-.18-.08-.19-.08-.18-.08-.19-.08-.18-.08-.18-.08-.19-.08-.18-.09-.18-.08-.18-.09-.18-.09-.18-.08-.18-.09-.17-.09-.18-.1-.18-.09-.17-.09-.18-.1-.17-.09-.18-.1-.17-.1-.17-.1-.17-.1-.18-.1-.17-.1-.17-.1-.17-.1-.17-.11-.16-.1-.17-.11-.17-.11-.16-.11-.17-.11-.16-.11-.17-.11-.16-.11-.16-.11-.16-.12-.17-.11-.16-.12-.16-.12-.15-.12-.16-.11-.16-.12-.16-.13-.15-.12-.16-.12-.15-.12-.16-.13-.15-.12-.15-.13-.15-.13-.15-.12-.15-.13-.15-.13-.15-.13-.15-.14-.14-.13-.15-.13-.14-.14-.15-.13-.14-.14-.14-.13-.15-.14-.14-.14-.14-.14-.14-.14-.13-.14-.14-.14-.14-.14-.13-.15-.14-.14-.13-.15-.14-.14-.13-.15-.13-.15-.13-.14-.13-.15-.13-.15-.13-.15-.13-.16-.12-.15-.13-.15-.12-.15-.13-.16-.12-.15-.12-.16-.12-.16-.12-.15-.12-.16-.12-.16-.12-.16-.11-.16-.12-.16-.11-.16-.11-.17-.12-.16-.11-.16-.11-.17-.11-.16-.11-.17-.1-.16-.11-.17-.11-.17-.1-.17-.11-.17-.1-.17-.1-.17-.1-.17-.1-.17-.1-.18-.1-.17-.09-.17-.1-.18-.09-.17-.1-.18-.09-.18-.09-.17-.09-.18-.09-.18-.09-.18-.09-.18-.08-.18-.09-.18-.08-.18-.09-.18-.08-.19-.08-.18-.08-.18-.08-.19-.07-.18-.08-.19-.08-.18-.07-.19-.07-.19-.08-.19-.07-.18-.07-.19-.07-.19-.06-.19-.07-.19-.07-.19-.06-.19-.06-.2-.06-.19-.07-.19-.05-.2-.06-.19-.06-.19-.06-.2-.05-.2-.06-.19-.05-.2-.05-.2-.05-.19-.05-.2-.05-.2-.04-.2-.05-.2-.04-.2-.05-.2-.04-.2-.04-.2-.04-.2-.04-.2-.03-.21-.04-.2-.03-.2-.04-.21-.03-.2-.03-.2-.03-.21-.03-.2-.02-.21-.03-.21-.02-.2-.03-.21-.02-.21-.02-.21-.02-.2v-.21s-.03-.21-.03-.21l-.02-.21v-.21s-.02-.21-.02-.21v-.21s-.02-.21-.02-.21v-.21s-.02-.21-.02-.21v-.21s-.01-.21-.01-.21v-.43s-.01-.21-.01-.21v-.43s.01-.21.01-.21v-.42s.02-.21.02-.21v-.21s.02-.21.02-.21v-.21s.02-.21.02-.21v-.21s.03-.21.03-.21l.02-.21v-.21s.03-.21.03-.21l.02-.21.02-.2.03-.21.02-.21.03-.2.02-.21.03-.2.03-.21.03-.2.03-.21.04-.2.03-.2.04-.21.03-.2.04-.2.04-.2.04-.2.04-.2.05-.2.04-.2.05-.2.04-.2.05-.2.05-.2.05-.2.05-.19.05-.2.06-.2.05-.19.06-.2.06-.19.06-.2.05-.19.07-.19.06-.2.06-.19.06-.19.07-.19.07-.19.06-.19.07-.19.07-.19.07-.19.08-.19.07-.18.07-.19.08-.19.08-.18.07-.19.08-.18.08-.18.08-.19.08-.18.09-.18.08-.18.09-.18.08-.18.09-.18.09-.18.09-.18.09-.18.09-.18.09-.17.1-.18.09-.17.1-.18.09-.17.1-.18.1-.17.1-.17.1-.17.1-.17.1-.17.11-.17.1-.17.11-.17.11-.17.1-.16.11-.17.11-.17.11-.16.11-.16.12-.17.11-.16.11-.16.12-.16.11-.16.12-.16.12-.16.12-.16.12-.16.12-.15.12-.16.12-.15.13-.16.12-.15.13-.16.12-.15.13-.15.13-.15.13-.15.13-.15.13-.15.13-.14.13-.15.14-.15.13-.14.14-.14.13-.15.14-.14.14-.14.13-.14.14-.14.14-.14.14-.14.15-.14.14-.14.14-.13.15-.14.14-.13.15-.13.14-.14.15-.13.15-.13.15-.13.15-.13.15-.13.15-.12.15-.13.15-.12.16-.13.15-.12.16-.13.15-.12.16-.12.16-.12.16-.12.15-.12.16-.11.16-.12.17-.11.16-.12.16-.11.16-.11.17-.12.16-.11.17-.11.16-.1.17-.11.17-.11.16-.1.17-.11.17-.1.17-.1.17-.11.18-.1.17-.1.17-.1.17-.09.18-.1.17-.1.18-.09.17-.09.18-.1.18-.09.17-.09.18-.09.18-.09.18-.08.18-.09.18-.08.18-.09.19-.08.18-.08.18-.08.19-.08.18-.08.19-.08.18-.08.19-.07.18-.08.19-.07.19-.07.19-.07.19-.07.19-.07.19-.07.19-.07.19-.06.19-.07.19-.06.19-.06.2-.06.19-.06.19-.06.2-.06.19-.05.2-.06.2-.05.19-.05.2-.06.2-.05.2-.05.19-.04.2-.05.2-.05.2-.04.2-.04.2-.04.2-.04.21-.04.2-.04.2-.04.2-.03.21-.04.2-.03.2-.03.21-.03.2-.03.21-.03.2-.03.21-.02.21-.03.2-.02.21-.02.21-.02.21-.02.21-.02.2-.02h.21s.21-.03.21-.03h.21s.21-.02.21-.02h.21s.21-.02.21-.02h.22s.21-.01.21-.01h.21s.21-.01.21-.01h.85ZM308.56,157.44h-.59s-.19.01-.19.01h-.2s-.19.02-.19.02h-.19s-.2.02-.2.02h-.19s-.19.02-.19.02l-.2.02h-.19s-.19.03-.19.03l-.19.02h-.19s-.19.03-.19.03l-.19.03-.19.02-.19.02-.19.03-.19.02-.19.03-.19.03-.19.03-.18.03-.19.03-.19.03-.18.04-.19.03-.18.04-.19.03-.18.04-.19.04-.18.04-.18.04-.19.05-.18.04-.18.05-.18.04-.19.05-.18.05-.18.05-.18.05-.18.05-.17.05-.18.06-.18.05-.18.06-.18.05-.17.06-.18.06-.17.06-.18.06-.17.06-.18.07-.17.06-.17.07-.18.06-.17.07-.17.07-.17.07-.17.07-.17.07-.17.07-.17.08-.17.07-.17.08-.17.07-.16.08-.17.08-.17.08-.16.08-.17.08-.16.08-.16.08-.17.09-.16.08-.16.09-.16.09-.16.08-.16.09-.16.09-.16.09-.16.1-.16.09-.15.09-.16.1-.16.09-.15.1-.16.1-.15.09-.15.1-.16.1-.15.1-.15.11-.15.1-.15.1-.15.11-.15.1-.15.11-.14.1-.15.11-.15.11-.14.11-.15.11-.14.11-.15.11-.14.12-.14.11-.14.11-.14.12-.14.12-.14.11-.14.12-.14.12-.14.12-.13.12-.14.12-.13.12-.14.13-.13.12-.13.12-.14.13-.13.12-.13.13-.13.13-.13.13-.12.13-.13.13-.13.13-.12.13-.13.13-.12.13-.13.14-.12.13-.12.14-.12.13-.12.14-.12.13-.12.14-.12.14-.12.14-.11.14-.12.14-.11.14-.12.14-.11.15-.11.14-.11.14-.11.15-.11.15-.11.14-.11.15-.11.15-.1.14-.11.15-.1.15-.11.15-.1.15-.1.16-.1.15-.1.15-.1.15-.1.16-.1.15-.09.16-.1.15-.09.16-.09.16-.1.15-.09.16-.09.16-.09.16-.09.16-.09.16-.08.16-.09.17-.09.16-.08.16-.08.16-.08.17-.09.16-.08.17-.08.16-.07.17-.08.17-.08.16-.07.17-.08.17-.07.17-.07.17-.07.17-.07.17-.07.17-.07.17-.07.18-.07.17-.06.17-.07.18-.06.17-.06.17-.06.18-.06.18-.06.17-.06.18-.06.17-.05.18-.06.18-.05.18-.05.18-.06.18-.05.18-.05.18-.04.18-.05.18-.05.18-.04.18-.05.19-.04.18-.04.18-.04.19-.04.18-.04.18-.04.19-.03.18-.04.19-.03.19-.03.18-.04.19-.03.19-.03.19-.02.18-.03.19-.03.19-.02.19-.03.19-.02.19-.02.19-.02.19-.02.19-.02.19v.2s-.03.19-.03.19v.19s-.02.19-.02.19l-.02.2v.19s-.02.19-.02.19v.39s-.02.2-.02.2v.78s0,.19,0,.19v.79s.02.19.02.19v.39s.02.19.02.19l.02.19v.2s.02.19.02.19l.02.19v.19s.03.2.03.2l.02.19.02.19.02.19.02.19.03.19.02.19.03.19.03.18.02.19.03.19.03.19.04.18.03.19.03.19.04.18.03.19.04.18.04.19.04.18.04.19.04.18.04.18.05.18.04.19.05.18.05.18.04.18.05.18.05.18.06.18.05.18.05.18.06.18.05.17.06.18.06.18.06.17.06.18.06.17.06.18.06.17.07.18.06.17.07.17.07.17.07.18.07.17.07.17.07.17.07.17.07.17.08.16.07.17.08.17.08.17.07.16.08.17.08.16.09.17.08.16.08.17.08.16.09.16.09.16.08.17.09.16.09.16.09.16.09.15.09.16.1.16.09.16.09.15.1.16.09.16.1.15.1.15.1.16.1.15.1.15.1.15.1.15.11.16.1.14.11.15.1.15.11.15.11.15.11.14.11.15.11.14.11.15.11.14.11.14.12.15.11.14.12.14.11.14.12.14.12.14.12.13.12.14.12.14.12.13.12.14.12.13.13.14.12.13.13.13.12.13.13.13.13.13.12.13.13.13.13.13.13.12.13.13.14.12.13.13.13.12.14.12.13.13.14.12.13.12.14.12.14.12.14.11.14.12.14.12.14.11.14.12.14.11.14.11.15.12.14.11.15.11.14.11.15.11.15.1.14.11.15.11.15.1.15.11.15.1.15.1.15.1.15.11.16.1.15.09.15.1.16.1.15.1.16.09.16.1.15.09.16.09.16.09.16.09.16.09.16.09.16.09.16.09.16.08.16.09.17.08.16.09.16.08.17.08.16.08.17.08.17.08.16.08.17.07.17.08.17.07.17.08.17.07.17.07.17.07.17.07.17.07.17.06.18.07.17.07.17.06.18.06.17.07.18.06.17.06.18.06.17.05.18.06.18.06.18.05.18.06.17.05.18.05.18.05.18.05.18.05.19.05.18.04.18.05.18.04.19.04.18.04.18.05.19.04.18.03.19.04.18.04.19.03.18.04.19.03.19.03.18.03.19.03.19.03.19.03.19.02.19.03.19.02.19.02.19.02.19.02.19.02.19.02.19.02h.19s.2.03.2.03h.19s.19.02.19.02h.2s.19.02.19.02h.19s.2.01.2.01h.19s.2.01.2.01h.19s.2.01.2.01h.78s.2-.01.2-.01h.19s.2-.01.2-.01h.19s.19-.02.19-.02h.2s.19-.02.19-.02h.19s.2-.03.2-.03h.19s.19-.03.19-.03l.19-.02.19-.02.19-.02.19-.02.19-.02.19-.02.19-.03.19-.02.19-.03.19-.03.19-.03.18-.03.19-.03.19-.03.18-.04.19-.03.18-.04.19-.04.18-.03.19-.04.18-.05.19-.04.18-.04.18-.04.18-.05.18-.04.19-.05.18-.05.18-.05.18-.05.18-.05.18-.05.17-.06.18-.05.18-.06.18-.06.17-.05.18-.06.17-.06.18-.06.17-.07.18-.06.17-.06.18-.07.17-.07.17-.06.17-.07.17-.07.17-.07.17-.07.17-.07.17-.08.17-.07.17-.08.17-.07.16-.08.17-.08.17-.08.16-.08.17-.08.16-.08.16-.09.17-.08.16-.09.16-.08.16-.09.16-.09.16-.09.16-.09.16-.09.16-.09.16-.09.15-.09.16-.1.16-.09.15-.1.16-.1.15-.1.15-.09.16-.1.15-.11.15-.1.15-.1.15-.1.15-.11.15-.1.15-.11.15-.11.14-.1.15-.11.14-.11.15-.11.14-.11.15-.12.14-.11.14-.11.14-.12.14-.11.14-.12.14-.12.14-.11.14-.12.14-.12.13-.12.14-.12.13-.13.14-.12.13-.12.13-.13.14-.12.13-.13.13-.12.13-.13.13-.13.13-.13.12-.13.13-.13.13-.13.12-.13.12-.13.13-.14.12-.13.12-.14.12-.13.12-.14.12-.14.12-.13.12-.14.12-.14.11-.14.12-.14.11-.14.12-.15.11-.14.11-.14.11-.15.11-.14.11-.15.11-.14.11-.15.11-.15.1-.15.11-.15.1-.14.11-.16.1-.15.1-.15.1-.15.1-.15.1-.16.1-.15.1-.15.09-.16.1-.16.09-.15.1-.16.09-.16.09-.16.09-.15.09-.16.09-.16.09-.16.08-.17.09-.16.09-.16.08-.16.08-.17.09-.16.08-.17.08-.16.08-.17.07-.16.08-.17.08-.17.07-.17.08-.16.07-.17.07-.17.08-.17.07-.17.07-.17.06-.18.07-.17.07-.17.06-.17.07-.18.06-.17.06-.18.06-.17.06-.18.06-.17.06-.18.06-.18.05-.17.06-.18.05-.18.05-.18.06-.18.05-.18.05-.18.04-.18.05-.18.05-.18.04-.19.05-.18.04-.18.04-.18.04-.19.04-.18.04-.19.04-.18.03-.19.04-.18.03-.19.04-.19.03-.18.03-.19.03-.19.03-.19.02-.18.03-.19.02-.19.03-.19.02-.19.02-.19.02-.19.02-.19.02-.2v-.19s.03-.19.03-.19v-.19s.02-.2.02-.2l.02-.19v-.19s.02-.2.02-.2v-.38s.02-.2.02-.2v-.59s.01-.19.01-.19v-.39s-.01-.2-.01-.2v-.39s-.02-.19-.02-.19v-.39s-.02-.19-.02-.19l-.02-.2v-.19s-.02-.19-.02-.19l-.02-.19v-.2s-.03-.19-.03-.19l-.02-.19-.02-.19-.02-.19-.02-.19-.03-.19-.02-.19-.03-.19-.02-.19-.03-.18-.03-.19-.03-.19-.03-.19-.04-.18-.03-.19-.04-.19-.03-.18-.04-.19-.04-.18-.04-.18-.04-.19-.04-.18-.04-.18-.05-.19-.04-.18-.05-.18-.05-.18-.04-.18-.05-.18-.05-.18-.06-.18-.05-.18-.05-.18-.06-.18-.05-.18-.06-.17-.06-.18-.06-.17-.06-.18-.06-.18-.06-.17-.06-.17-.07-.18-.06-.17-.07-.17-.07-.18-.06-.17-.07-.17-.07-.17-.08-.17-.07-.17-.07-.17-.08-.17-.07-.17-.08-.16-.08-.17-.07-.17-.08-.16-.08-.17-.08-.16-.09-.17-.08-.16-.08-.16-.09-.16-.09-.17-.08-.16-.09-.16-.09-.16-.09-.16-.09-.16-.09-.16-.09-.15-.1-.16-.09-.16-.1-.15-.09-.16-.1-.15-.1-.16-.1-.15-.1-.15-.1-.15-.1-.16-.1-.15-.11-.15-.1-.15-.11-.15-.1-.14-.11-.15-.11-.15-.11-.14-.11-.15-.11-.15-.11-.14-.11-.14-.11-.15-.12-.14-.11-.14-.12-.14-.11-.14-.12-.14-.12-.14-.12-.14-.12-.13-.12-.14-.12-.13-.12-.14-.12-.13-.13-.14-.12-.13-.12-.13-.13-.13-.13-.13-.12-.13-.13-.13-.13-.13-.13-.13-.13-.13-.13-.12-.14-.13-.13-.12-.13-.12-.14-.13-.13-.12-.14-.12-.13-.12-.14-.12-.14-.12-.14-.12-.14-.11-.14-.12-.14-.12-.14-.11-.14-.11-.14-.12-.15-.11-.14-.11-.15-.11-.14-.11-.15-.11-.14-.11-.15-.1-.15-.11-.15-.1-.15-.11-.15-.1-.15-.1-.15-.11-.15-.1-.16-.1-.15-.1-.15-.09-.16-.1-.15-.1-.16-.09-.16-.1-.15-.09-.16-.09-.16-.1-.16-.09-.16-.09-.16-.09-.16-.08-.16-.09-.16-.09-.16-.08-.17-.09-.16-.08-.16-.08-.17-.08-.16-.08-.17-.08-.17-.08-.16-.08-.17-.07-.17-.08-.17-.07-.17-.08-.17-.07-.17-.07-.17-.07-.17-.07-.17-.07-.17-.07-.17-.06-.18-.07-.17-.06-.18-.07-.17-.06-.18-.06-.17-.06-.18-.06-.17-.06-.18-.05-.18-.06-.18-.05-.17-.06-.18-.05-.18-.05-.18-.05-.18-.05-.18-.05-.19-.05-.18-.04-.18-.05-.18-.04-.18-.05-.19-.04-.18-.04-.19-.04-.18-.04-.19-.03-.18-.04-.19-.03-.18-.04-.19-.03-.19-.03-.18-.03-.19-.03-.19-.03-.19-.03-.19-.02-.19-.03-.19-.02-.19-.02-.19-.03-.19-.02h-.19s-.19-.03-.19-.03l-.19-.02h-.19s-.2-.03-.2-.03h-.19s-.19-.02-.19-.02h-.2s-.19-.02-.19-.02h-.19s-.2-.02-.2-.02h-.39s-.19-.01-.19-.01h-.59Z"/>
        <polygon class="cls-4" points="309.17 163.44 310.63 163.76 311.82 164.59 312.62 165.81 312.9 167.27 312.9 167.28 312.56 191.42 312.56 191.43 312.25 192.89 311.42 194.08 310.2 194.88 308.73 195.15 308.72 195.15 307.27 194.84 306.07 194.01 305.28 192.79 305 191.32 305.33 167.17 305.65 165.71 306.48 164.52 307.69 163.72 309.16 163.44 309.17 163.44"/>
        <polygon class="cls-4" points="309.91 188.04 325.37 191.06 325.38 191.06 326.76 191.64 327.78 192.66 328.35 194 328.36 195.49 328.36 195.5 327.79 196.88 326.76 197.91 325.42 198.48 323.93 198.49 323.92 198.49 308.46 195.47 308.45 195.46 307.07 194.89 306.05 193.86 305.48 192.53 305.47 191.03 305.47 191.02 306.04 189.64 307.07 188.62 308.41 188.05 309.9 188.04 309.91 188.04"/>
      </g>
      <path class="cls-6" d="M178.92,349.79c-3.01,0-5.75-2.03-6.53-5.08-.11-.44-2.72-10.92-.37-22.14.76-3.64,4.34-5.98,7.98-5.22,3.65.76,5.98,4.34,5.22,7.98-1.69,8.06.22,15.96.24,16.04.92,3.61-1.26,7.28-4.87,8.2-.56.14-1.12.21-1.67.21Z"/>
      <path class="cls-6" d="M284.92,354.15c-.73,0-1.46-.1-2.2-.3-4.36-1.21-6.91-5.73-5.7-10.08.33-1.18,1.02-4.92.38-14.14-.26-3.62-.61-6.37-.61-6.39-.58-4.48,2.58-8.59,7.07-9.17,4.49-.58,8.59,2.58,9.17,7.06.02.13.42,3.22.71,7.36.61,8.78.3,15.21-.94,19.67-1.01,3.62-4.3,6-7.88,6Z"/>
      <path class="cls-6" d="M202.93,357.38c-3.79,0-7.19-2.64-8-6.5-4.06-19.2,3.94-34.48,4.28-35.12,2.13-3.99,7.09-5.5,11.08-3.37,3.97,2.12,5.49,7.06,3.39,11.04-.14.27-5.49,10.98-2.72,24.06.94,4.42-1.89,8.77-6.32,9.71-.57.12-1.14.18-1.7.18Z"/>
      <path class="cls-6" d="M307.19,346.44c-.92,0-1.85-.19-2.75-.59-3.4-1.52-4.92-5.51-3.41-8.91,1.68-3.75.78-9.06.3-10.79-1-3.57,1.06-7.3,4.62-8.33,3.56-1.02,7.28,1.01,8.33,4.57.33,1.11,3.06,11.1-.93,20.05-1.12,2.51-3.58,3.99-6.16,3.99Z"/>
    </g>
  </g>
</svg>