<?xml version="1.0" encoding="UTF-8"?>
<svg xmlns="http://www.w3.org/2000/svg" xmlns:xlink="http://www.w3.org/1999/xlink" viewBox="0 0 500 500">
  <defs>
    <style>
      .cls-1 {
        fill: url(#Dégradé_sans_nom_31-2);
      }

      .cls-1, .cls-2, .cls-3, .cls-4, .cls-5, .cls-6, .cls-7, .cls-8, .cls-9, .cls-10, .cls-11, .cls-12, .cls-13, .cls-14 {
        stroke-width: 0px;
      }

      .cls-2 {
        fill: url(#Dégradé_sans_nom_31-4);
      }

      .cls-3 {
        fill: url(#Dégradé_sans_nom_31-3);
      }

      .cls-4 {
        fill: url(#Dégradé_sans_nom_42-2);
      }

      .cls-5 {
        fill: url(#Dégradé_sans_nom_9);
      }

      .cls-6 {
        fill: url(#Dégradé_sans_nom_9-2);
      }

      .cls-7, .cls-8, .cls-9 {
        fill-rule: evenodd;
      }

      .cls-7, .cls-10 {
        fill: #272c32;
      }

      .cls-8 {
        fill: #869eb4;
      }

      .cls-9, .cls-11 {
        fill: #fff;
      }

      .cls-12 {
        fill: #e65b08;
      }

      .cls-13 {
        fill: url(#Dégradé_sans_nom_42);
      }

      .cls-14 {
        fill: url(#Dégradé_sans_nom_31);
      }
    </style>
    <linearGradient id="Dégradé_sans_nom_9" data-name="Dégradé sans nom 9" x1="259.37" y1="250.91" x2="259.37" y2="201.76" gradientTransform="translate(3.2 -4.54) rotate(.62) skewX(.32)" gradientUnits="userSpaceOnUse">
      <stop offset="0" stop-color="#272c32"/>
      <stop offset=".17" stop-color="#889aa7"/>
      <stop offset=".55" stop-color="#e0e3db"/>
      <stop offset="1" stop-color="#e65b08"/>
    </linearGradient>
    <linearGradient id="Dégradé_sans_nom_9-2" data-name="Dégradé sans nom 9" x1="186.98" y1="252.04" x2="186.98" y2="199.69" xlink:href="#Dégradé_sans_nom_9"/>
    <linearGradient id="Dégradé_sans_nom_42" data-name="Dégradé sans nom 42" x1="278.97" y1="186.17" x2="258.36" y2="222.59" gradientTransform="translate(3.2 -4.54) rotate(.62) skewX(.32)" gradientUnits="userSpaceOnUse">
      <stop offset="0" stop-color="#fff"/>
      <stop offset="1" stop-color="#fff" stop-opacity="0"/>
    </linearGradient>
    <linearGradient id="Dégradé_sans_nom_42-2" data-name="Dégradé sans nom 42" x1="718.24" y1="180.7" x2="697.63" y2="217.12" gradientTransform="translate(879.85 -4.54) rotate(179.38) scale(.99 -1.01) skewX(.32)" xlink:href="#Dégradé_sans_nom_42"/>
    <linearGradient id="Dégradé_sans_nom_31" data-name="Dégradé sans nom 31" x1="216.08" y1="213.96" x2="230.52" y2="213.96" gradientTransform="translate(3.2 -4.54) rotate(.62) skewX(.32)" gradientUnits="userSpaceOnUse">
      <stop offset="0" stop-color="#272c32"/>
      <stop offset="1" stop-color="#889aa7"/>
    </linearGradient>
    <linearGradient id="Dégradé_sans_nom_31-2" data-name="Dégradé sans nom 31" x1="250.46" y1="233.18" x2="299.59" y2="164.56" xlink:href="#Dégradé_sans_nom_31"/>
    <linearGradient id="Dégradé_sans_nom_31-3" data-name="Dégradé sans nom 31" x1="189.47" y1="216.06" x2="258.08" y2="133.9" xlink:href="#Dégradé_sans_nom_31"/>
    <linearGradient id="Dégradé_sans_nom_31-4" data-name="Dégradé sans nom 31" x1="220.02" y1="198.14" x2="258.8" y2="154.47" xlink:href="#Dégradé_sans_nom_31"/>
  </defs>
  <g id="stiker_style" data-name="stiker style">
    <path class="cls-11" d="M301.95,320.48c10.85-11.97,17.21-45.68,19.54-73.25,1.48-17.52,3.57-59.84-8.88-74.4-12.42-14.51-42.76-19.83-67.02-19.98-14.4-.07-28.23,1.52-39.98,4.63-13.82,3.67-24.05,9.19-30.4,16.43l-.12.14c-3.28,3.92-5.89,9.53-7.93,17.08-.8.33-1.57.67-2.31,1.03-7.16,3.5-12,8.55-14.11,14.61-1.02.47-2,1.07-2.89,1.8-2.71,2.23-4.4,5.38-4.74,8.88-.13,1.29-1.1,12.96,3.36,24.92,1.9,5.11,6.85,8.54,12.3,8.54.88,0,1.76-.09,2.62-.26.43.37.87.74,1.32,1.09,1.1,21.15,4.36,40.34,9.17,54.14-1.05,1.15-1.95,2.32-2.69,3.5-4.09,6.47-4.52,13.05-4.77,16.99-.05.77-.12,1.94-.2,2.31-.67,2.99-.46,5.98.45,8.7-3.97,2.2-6.56,5.26-6.56,9.71,0,10.21,13.63,13.12,26.41,15.06,13.03,1.97,30.26,3.06,48.51,3.06s35.47-1.08,48.51-3.06c12.78-1.93,26.42-4.85,26.42-15.06,0-6.22-5.28-9.53-10.34-11.4.15-3.56-.01-7.14-.47-10.72,1.75-1.39,3.35-2.89,4.8-4.48Z"/>
  </g>
  <g id="Bubus">
    <g>
      <path class="cls-7" d="M181.23,179.19c22.05-25.15,106.29-23.37,125.3-1.16,15.83,18.5,6.31,118.54-10.5,137.07-23.08,25.43-89.23,12.61-102.26,7.92-25.36-7.62-31.13-121.62-12.54-143.83Z"/>
      <path class="cls-8" d="M233.04,336.98c-36.94,0-66.92,4.53-66.92,10.1,0,5.57,29.98,10.11,66.92,10.11,36.93,0,66.92-4.54,66.92-10.11,0-5.57-29.99-10.1-66.92-10.1Z"/>
      <path class="cls-9" d="M276.2,253.42c-6.19,0-11.21,5.03-11.21,11.22s5.02,11.21,11.21,11.21c6.19,0,11.22-5.02,11.22-11.21s-5.03-11.22-11.22-11.22Z"/>
      <circle class="cls-11" cx="185.27" cy="262.75" r="10.2"/>
      <path class="cls-9" d="M184.59,201.45c16.8-9.81,82.65-12.96,100.95-.82,10.07,6.68,11.62,43.28-.35,41.74-27.88-3.6-86.12-3.35-102.7-1.52-8.29.92-8.25-33.36,2.1-39.4Z"/>
      <path class="cls-11" d="M203.26,186.86c-3.05,0-5.82-2.09-6.56-5.19-.86-3.62,1.38-7.26,5.01-8.12,31.37-7.43,60.96-1.73,62.2-1.48,3.65.72,6.03,4.27,5.31,7.92-.72,3.65-4.27,6.03-7.92,5.31-.35-.07-28.1-5.35-56.48,1.38-.52.12-1.05.18-1.56.18Z"/>
      <path class="cls-10" d="M180.02,340.42c-.59,0-1.2-.07-1.8-.2-4.41-.99-7.18-5.37-6.19-9.79.21-.91.29-2.19.38-3.55.23-3.58.55-8.48,3.55-13.23,3.01-4.77,9.51-8.62,11.43-9.68,3.96-2.19,8.94-.76,11.13,3.19,2.19,3.95.77,8.93-3.18,11.13-2.23,1.25-4.94,3.26-5.56,4.14-.71,1.13-.86,2.83-1.03,5.5-.12,1.84-.25,3.92-.74,6.09-.86,3.81-4.24,6.39-7.98,6.39Z"/>
      <path class="cls-10" d="M158.77,242.92c-2.08,0-4.03-1.27-4.8-3.34-3.9-10.46-2.93-20.91-2.89-21.35.28-2.82,2.78-4.88,5.6-4.6,2.81.28,4.87,2.78,4.6,5.59-.02.17-.74,8.65,2.29,16.78.99,2.65-.36,5.6-3.01,6.59-.59.22-1.19.32-1.79.32Z"/>
      <path class="cls-9" d="M239.41,303.32c-2.83-9.33-10.94-15.16-18.1-12.99-7.17,2.17-10.69,11.51-7.87,20.85,2.83,9.34,10.94,15.16,18.11,12.99,7.16-2.17,10.69-11.51,7.86-20.85Z"/>
      <path class="cls-10" d="M248.96,310.09c-.16,3.61-3.14,6.44-6.73,6.44h-.3c-3.46-.15-6.74-.72-9.64-1.45-6.81-1.71-11.58-4.29-11.87-4.44-.42-.23-.8-.49-1.15-.78-2.37-2.03-3.09-5.52-1.53-8.37,1.11-2.04,3.12-3.27,5.27-3.48,1.29-.12,2.63.13,3.86.79.09.04,4.08,2.16,9.52,3.39,1.9.44,3.98.77,6.13.86,3.72.17,6.6,3.32,6.44,7.04Z"/>
      <g>
        <path class="cls-5" d="M230.03,211.29c-1.8,44.49,61.55,58.45,58.81,5.07.57-23.16-57.91-27.46-58.81-5.07Z"/>
        <g>
          <path class="cls-6" d="M217.27,212.27c-.46,44.53-64.42,54.48-58.97,1.36.6-23.15,59.21-23.76,58.97-1.36Z"/>
          <path class="cls-13" d="M232.48,213.4c0,40.57,58.16,50.9,53.71,2.4-.33-21.11-53.71-22.81-53.71-2.4Z"/>
          <path class="cls-4" d="M214.59,212.6c0,40.57-58.16,50.9-53.71,2.4.33-21.11,53.71-22.81,53.71-2.4Z"/>
        </g>
        <path class="cls-14" d="M230.83,216.48h-1.38s.01-2.47.01-2.47c0-1.16-.92-2.11-2.06-2.12l-7.42-.08c-1.14-.01-2.08.92-2.08,2.08v2.46s-1.4-.01-1.4-.01v-2.46c.02-1.93,1.58-3.49,3.49-3.47l7.42.08c1.91.02,3.45,1.61,3.44,3.54v2.46Z"/>
        <path class="cls-1" d="M263.82,251.64c-5.41-.06-11.08-1.7-16.34-4.88-12-7.26-18.81-20.54-18.21-35.51l.75.04-.75-.04c.21-5.23,3.4-9.44,9.21-12.17,5.03-2.37,11.85-3.51,19.21-3.23,8.1.32,16.05,2.37,21.81,5.63,6.73,3.81,10.22,8.95,10.08,14.88.77,15.07-3.75,26.37-12.71,31.84-3.86,2.35-8.36,3.49-13.06,3.44ZM256.08,197.34c-6.52-.07-12.49,1.03-16.96,3.13-3.68,1.73-8.11,5.02-8.35,10.86-.58,14.4,5.95,27.16,17.47,34.13,9.35,5.66,20.02,6.21,27.85,1.44,8.48-5.17,12.73-15.99,11.99-30.49v-.03s0-.03,0-.03c.17-6.74-4.97-11.08-9.3-13.53-5.56-3.15-13.27-5.13-21.14-5.43-.52-.02-1.04-.03-1.56-.04Z"/>
        <path class="cls-3" d="M182.65,250.46c-5.12-.06-9.98-1.49-14.03-4.3-8.67-6.02-12.61-17.6-11.08-32.59.17-5.93,3.91-10.84,10.82-14.22,5.92-2.89,13.96-4.44,22.06-4.24,13.82.33,27.71,5.77,27.59,17.17h0c-.16,14.98-7.62,27.81-19.98,34.3-5.02,2.64-10.33,3.93-15.39,3.88ZM189.66,196.62c-7.62-.08-15.1,1.4-20.64,4.11-4.45,2.18-9.8,6.18-9.98,12.92v.06c-1.48,14.42,2.22,25.5,10.42,31.19,7.57,5.26,18.26,5.38,27.88.32,11.86-6.23,19.02-18.56,19.17-32.97.06-5.84-4.2-9.41-7.78-11.37-4.7-2.57-11.21-4.08-18.33-4.25-.25,0-.5-.01-.74-.01Z"/>
        <path class="cls-2" d="M251.56,193.37l-57.99-.63c-1.13-.01-2.06.91-2.06,2.06s.91,2.09,2.04,2.1l17.76.19c.54,1.27,1.78,2.17,3.23,2.19l15.7.17c1.45.02,2.7-.86,3.25-2.12l18.05.2c1.13.01,2.06-.91,2.06-2.06,0-1.15-.91-2.09-2.04-2.1Z"/>
        <g>
          <path class="cls-11" d="M246.66,195.26h0l-9.46-.1c-.28,0-.5-.23-.49-.51,0-.28.21-.52.51-.49l9.46.1c.28,0,.5.23.49.51,0,.27-.23.49-.5.49Z"/>
          <path class="cls-11" d="M248.48,195.28h-.22c-.28,0-.5-.23-.5-.51,0-.27.23-.5.5-.5h.22c.28,0,.5.23.5.51,0,.27-.23.5-.5.5Z"/>
        </g>
      </g>
      <path class="cls-10" d="M280.52,350.77c-.56,0-1.13-.06-1.7-.18-4.42-.94-7.25-5.28-6.31-9.71,2.82-13.3-2.7-24.17-2.76-24.28-2.13-3.99-.61-8.93,3.37-11.06,3.99-2.13,8.96-.6,11.09,3.38.34.65,8.4,16.03,4.31,35.35-.82,3.85-4.22,6.49-8,6.49Z"/>
      <path class="cls-12" d="M226.87,298.8s-.07-.03-.11-.05c-1.75,1.98-3.81,5.72-4.71,12.7,1.23.58,3.1,1.39,5.43,2.2.74-7.16,2.85-10.85,4.55-12.7-3.08-1.06-5.09-2.12-5.16-2.15Z"/>
    </g>
  </g>
</svg>