<?xml version="1.0" encoding="UTF-8"?>
<svg xmlns="http://www.w3.org/2000/svg" viewBox="0 0 500 500">
  <defs>
    <style>
      .cls-1 {
        fill: #6f2c05;
      }

      .cls-1, .cls-2, .cls-3, .cls-4, .cls-5, .cls-6, .cls-7 {
        fill-rule: evenodd;
      }

      .cls-1, .cls-2, .cls-3, .cls-4, .cls-5, .cls-6, .cls-7, .cls-8, .cls-9, .cls-10 {
        stroke-width: 0px;
      }

      .cls-2, .cls-8 {
        fill: #272c32;
      }

      .cls-3 {
        fill: #869eb4;
      }

      .cls-4, .cls-10 {
        fill: #e65b0a;
      }

      .cls-5, .cls-9 {
        fill: #fff;
      }

      .cls-6 {
        fill: #b64808;
      }

      .cls-7 {
        fill: #fab892;
      }
    </style>
  </defs>
  <g id="stiker_style" data-name="stiker style">
    <path class="cls-9" d="M431.6,340.22c-.47-5.7-5.48-9.98-11.19-9.58-.35.02-9.67.44-31.84-3.71-12.35-2.31-16.25-8.88-21.19-17.2-2.78-4.69-5.66-9.54-10.15-13.54-.97-.86-2.01-1.69-3.13-2.5,1.28-6.1,2.26-14.53,1.01-23.63-.54-3.9-2.56-7.36-5.7-9.74-3.14-2.38-7.02-3.39-10.92-2.86-.94.13-1.86.35-2.75.65,4.15-33.84,2.03-74.1-12.22-88.7-6.6-6.77-17.29-11.71-31.75-14.7-12.31-2.54-26.95-3.46-41.22-2.58-13.35.82-45.79,4.56-58.65,21.47-11.2,14.73-13.65,51.14-9.71,83.74-6.99.27-13.02,5.53-14.02,12.7-1.26,9.09-.28,17.49,1,23.6-1.14.81-2.2,1.65-3.18,2.52-4.54,3.99-7.45,8.84-10.26,13.53-5,8.33-8.95,14.91-21.5,17.23-22.31,4.13-31.76,3.74-32.22,3.71-5.72-.41-10.71,3.85-11.19,9.57-.48,5.75,3.81,10.82,9.55,11.3.33.03,1.27.09,2.93.09,4.72,0,15.52-.53,34.74-4.09,21.83-4.03,30.14-17.88,35.64-27.05,2.08-3.47,4.05-6.75,6.14-8.59.19-.17.4-.34.61-.51,3.27,1.21,7.04,1.21,10.4-.08,2.11-.81,3.96-2.07,5.44-3.65,2.1,3.66,4.38,6.72,6.83,9.16-.61,3.98-.84,7.95-.7,11.9-8.36,1.91-15.46,5.15-15.46,12.46,0,9.88,12.86,12.49,26.03,14.32,12.69,1.76,29.46,2.72,47.24,2.72s34.55-.97,47.23-2.72c13.17-1.82,26.02-4.43,26.02-14.32,0-7.53-7.55-10.76-16.29-12.65-.13-3.18-.54-7.18-1.53-11.63,1.01-1.06,1.99-2.24,2.94-3.53,2.16-1.45,4.14-3.27,5.87-5.35.6-.32,1.21-.72,1.82-1.22,1.59,1.98,3.71,3.56,6.21,4.52,3.32,1.28,7.06,1.28,10.31.1.18.15.35.29.52.44,2.06,1.83,4,5.11,6.06,8.58,5.45,9.18,13.68,23.05,35.34,27.09,19.04,3.56,29.74,4.09,34.42,4.09,1.53,0,2.46-.06,2.91-.09,5.73-.49,10.01-5.55,9.54-11.29Z"/>
  </g>
  <g id="Bubus">
    <g>
      <path class="cls-3" d="M260.21,332.13c36.02,0,65.26,4.05,65.26,9.04s-29.24,9.04-65.26,9.04-65.27-4.05-65.27-9.04,29.25-9.04,65.27-9.04Z"/>
      <path class="cls-2" d="M317.81,175.01c-21.28-21.8-101.92-19.71-119.53,3.44-17.61,23.15-10.83,119.92,13.87,135.46,18.18,11.44,80.12,12.1,95.83-.78,22.9-18.75,30.05-117.41,9.83-138.12Z"/>
      <path class="cls-5" d="M241.02,276.44s23.04,2.93,42.49,0c15.33-2.32,5.41,10.22-18.87,10.75-24.32.52-38.3-10.33-23.62-10.75Z"/>
      <path class="cls-9" d="M234.93,180.51c-2.05,0-3.84-1.51-4.12-3.6-.31-2.28,1.28-4.38,3.56-4.69,1.1-.15,27.12-3.63,51.87-.55,2.28.28,3.9,2.37,3.62,4.65s-2.37,3.9-4.65,3.62c-23.64-2.94-49.46.5-49.71.53-.19.03-.38.04-.57.04Z"/>
      <path class="cls-5" d="M304.24,191.22c-22.58-6.15-66.48-5.57-91.87,1.75-11.22,3.24-15.99,47.88-7.66,45.77,27.55-6.98,83.66-6.43,108.92,0,7.9,2.01,3.62-43.98-9.39-47.52Z"/>
      <ellipse class="cls-9" cx="302.51" cy="254.2" rx="10.93" ry="10.75"/>
      <path class="cls-5" d="M215.95,243.45c6.03,0,10.93,4.81,10.93,10.75s-4.9,10.75-10.93,10.75-10.93-4.82-10.93-10.75,4.9-10.75,10.93-10.75Z"/>
      <path class="cls-8" d="M300.93,342.22c-.33,0-.66-.02-.99-.06-4.47-.54-7.67-4.59-7.15-9.06.03-.31,1.15-12.34-6.23-23.64-2.47-3.79-1.41-8.86,2.38-11.33,3.79-2.47,8.86-1.41,11.33,2.38,10.81,16.54,8.87,33.79,8.79,34.51-.5,4.16-4.04,7.21-8.12,7.21Z"/>
      <path class="cls-8" d="M219.2,342.4c-3.91,0-7.37-2.81-8.06-6.79-3.37-19.46,5.23-34.53,5.6-35.16,2.28-3.91,7.29-5.23,11.2-2.96,3.89,2.27,5.22,7.25,2.98,11.15-.15.27-5.95,10.87-3.64,24.16.77,4.46-2.21,8.69-6.67,9.47-.47.08-.94.12-1.41.12Z"/>
      <path class="cls-10" d="M103.31,343.6c-1.43,0-2.15-.06-2.25-.06-1.36-.11-2.37-1.31-2.25-2.66s1.31-2.36,2.66-2.25c.09,0,9.8.7,34.23-3.83,16.1-2.97,21.59-12.13,26.9-20.98,2.61-4.36,5.08-8.47,8.69-11.64,10.84-9.54,30.13-12.01,30.95-12.11,1.34-.17,2.58.8,2.75,2.15.17,1.35-.79,2.58-2.15,2.75-.19.02-18.61,2.38-28.29,10.91-3.03,2.66-5.31,6.46-7.72,10.48-5.33,8.87-11.95,19.92-30.24,23.3-18.82,3.48-29.1,3.96-33.29,3.96Z"/>
      <path class="cls-6" d="M205.13,291.85c1.19,4.7.7,8.88-1.09,9.33-1.79.46-4.21-2.99-5.4-7.69-1.19-4.7-.7-8.88,1.09-9.34,1.79-.45,4.21,3,5.4,7.7Z"/>
      <path class="cls-4" d="M231.98,285.6c2.72,10.74-2.11,21.25-10.79,23.45-8.68,2.2-17.94-4.74-20.66-15.48-2.72-10.74,2.12-21.25,10.8-23.45,8.68-2.2,17.93,4.74,20.65,15.48Z"/>
      <rect class="cls-10" x="215.94" y="266.92" width="21.05" height="40.16" transform="translate(-63.53 64.39) rotate(-14.21)"/>
      <path class="cls-9" d="M215.47,274.34c-.67,0-1.27-.45-1.44-1.13-.19-.79.29-1.6,1.08-1.79l10.71-2.63c.79-.2,1.6.29,1.79,1.08s-.29,1.6-1.08,1.79l-10.71,2.63c-.12.03-.24.04-.35.04Z"/>
      <path class="cls-9" d="M209.16,276.02c-.66,0-1.27-.45-1.43-1.12-.2-.79.28-1.6,1.07-1.8l2.07-.52c.79-.2,1.6.28,1.8,1.07.2.79-.28,1.6-1.07,1.8l-2.07.52c-.12.03-.24.04-.36.04Z"/>
      <path class="cls-6" d="M240.83,283.36c2.72,10.74,2.95,19.97.51,20.59-2.44.61-6.64-7.61-9.36-18.35-2.72-10.74-2.95-19.97-.51-20.58,2.44-.62,6.63,7.6,9.36,18.34Z"/>
      <path class="cls-7" d="M249.87,274.6c.5-.13.92-.44,1.18-.88s.33-.96.21-1.45c-.12-.49-.44-.92-.88-1.17-.43-.26-.95-.34-1.45-.22-4.38,1.11-15.01,3.81-15.01,3.81l.94,3.71s10.63-2.69,15.01-3.8Z"/>
      <path class="cls-7" d="M253.91,290.53c.49-.13.91-.44,1.17-.88s.34-.96.22-1.45c-.13-.49-.44-.91-.88-1.17-.44-.26-.96-.34-1.45-.21-4.38,1.11-15.01,3.8-15.01,3.8l.94,3.71s10.63-2.69,15.01-3.8Z"/>
      <path class="cls-8" d="M185.54,304.28c-2.7,0-5.24-1.63-6.28-4.3-.22-.55-5.25-13.76-3.15-28.83.51-3.69,3.92-6.26,7.61-5.75,3.69.51,6.26,3.92,5.75,7.61-1.6,11.5,2.33,22,2.37,22.11,1.32,3.47-.41,7.37-3.88,8.71-.8.31-1.62.45-2.43.45Z"/>
      <path class="cls-10" d="M419.15,343.6c-4.14,0-14.32-.47-32.95-3.96-18.11-3.38-24.66-14.43-29.93-23.31-2.38-4.02-4.63-7.81-7.62-10.47-9.58-8.52-27.79-10.88-27.97-10.9-1.35-.17-2.31-1.4-2.14-2.75.17-1.35,1.4-2.31,2.75-2.14.81.1,19.91,2.56,30.65,12.11,3.56,3.17,6,7.28,8.59,11.64,5.25,8.85,10.69,18.01,26.6,20.98,24.17,4.52,33.77,3.83,33.87,3.83,1.34-.1,2.55.9,2.66,2.26.11,1.36-.89,2.54-2.25,2.66-.1,0-.82.06-2.23.06Z"/>
      <path class="cls-6" d="M318.41,291.85c-1.18,4.7-.7,8.88,1.08,9.33,1.77.46,4.16-2.99,5.34-7.69,1.17-4.7.69-8.88-1.08-9.34-1.77-.45-4.16,3-5.34,7.7Z"/>
      <path class="cls-4" d="M291.84,285.6c-2.69,10.74,2.09,21.25,10.68,23.45,8.59,2.2,17.75-4.74,20.44-15.48,2.69-10.74-2.09-21.25-10.68-23.45-8.59-2.2-17.75,4.74-20.44,15.48Z"/>
      <polygon class="cls-4" points="282.33 303.88 292.09 264.95 312.28 270.12 302.52 309.05 282.33 303.88"/>
      <path class="cls-6" d="M283.09,283.36c-2.69,10.74-2.92,19.97-.5,20.59,2.41.61,6.56-7.61,9.25-18.35,2.69-10.74,2.92-19.97.51-20.58-2.42-.62-6.56,7.6-9.26,18.34Z"/>
      <path class="cls-1" d="M289.16,274.64c.67.13,1.02,1.21.8,2.41-.23,1.21-.96,2.09-1.62,1.96-.67-.12-1.03-1.2-.8-2.41.22-1.21.95-2.08,1.62-1.96Z"/>
      <path class="cls-1" d="M285.2,290.88c.66.13,1.02,1.21.8,2.41-.23,1.21-.96,2.09-1.62,1.96-.67-.12-1.03-1.2-.81-2.41.23-1.21.96-2.08,1.63-1.96Z"/>
      <path class="cls-8" d="M337.78,304.28c-.8,0-1.62-.14-2.42-.45-3.47-1.33-5.21-5.22-3.88-8.7.08-.22,3.93-10.68,2.35-22.14-.51-3.69,2.07-7.09,5.76-7.6,3.69-.51,7.09,2.07,7.6,5.76,2.07,15.06-2.9,28.24-3.12,28.8-1.03,2.68-3.59,4.33-6.3,4.33Z"/>
    </g>
  </g>
</svg>