<?xml version="1.0" encoding="UTF-8"?>
<svg xmlns="http://www.w3.org/2000/svg" viewBox="0 0 500 500">
  <defs>
    <style>
      .cls-1 {
        fill-rule: evenodd;
      }

      .cls-1, .cls-2, .cls-3, .cls-4, .cls-5 {
        stroke-width: 0px;
      }

      .cls-1, .cls-4 {
        fill: #fff;
      }

      .cls-2 {
        fill: #282c33;
      }

      .cls-3 {
        fill: #869eb4;
      }

      .cls-5 {
        fill: #e65b0a;
      }
    </style>
  </defs>
  <g id="stiker_style" data-name="stiker style">
    <path class="cls-4" d="M405.19,175.4c-1.17-3.29-3.65-5.98-6.82-7.4-1.95-.9-4.09-1.29-6.2-1.16-8.5-6.14-17.81-8.48-26.58-6.6-11.24,2.41-18.91,11.76-23.59,19.85-4.46-1.33-9.39-2.27-14.83-2.83.6-.79,1.11-1.64,1.51-2.56,1.52-3.19,1.68-6.88.45-10.18-1.21-3.3-3.73-6-6.94-7.43-1.61-.74-3.36-1.15-5.11-1.2-4.19-4.01-10.44-8.47-17.89-8.97-5.57-.38-10.88,1.54-15.36,5.52-3.3,2.92-5.83,6.66-7.56,11.18-9.63-4-19.96-6.08-30.36-6.08-18.77.09-37.03,6.78-51.42,18.84-2.67,2.24-3.82,5.75-3.13,9.05-12.23,5.52-22.32,17.81-27.88,34.74-.74,2.26-.57,4.64.4,6.7-4.69,5.27-7.72,12.96-8.08,21.74l-.2-.16.18.62c-.01.43-.02.86-.02,1.3,0,8.69,2.58,16.44,6.83,22l.09.3c1.57,5.36,3.64,10.38,6.14,14.94-13.48,2.23-25.38,7.6-37.28,16.65-1.17.89-2.38,1.85-3.46,2.91-18.46.6-23.57,2.43-26.61,5.68-1.72,1.85-2.61,4.22-2.49,6.67.05,1.1.26,2.08.61,2.97-1.16.48-2.12,1.12-2.98,1.97-1.64,1.61-2.54,3.75-2.54,6.03v.19c.08,3.44,1.92,7.76,10.21,8.82,2.56.33,6.24.55,11.27.67,2.87.06,5.34.12,7.49.12,6.81,0,10.34-.55,13.06-3.1l.14-.13c1.23-1.21,2.02-2.71,2.35-4.3,6.49.48,13.93.92,22.31,1.34,0,.12,0,.25,0,.37-.03,2.15.54,5.34,3.45,8.3,5.13,5.22,17.12,10.09,69.66,10.33,3.27,0,6.42.02,9.46.02,28.17,0,46.74-.57,57.85-4.38,35.1-6.01,58.69-25.36,68.25-56.01,1.08-3.06,1.9-6.22,2.45-9.39.43-2.02.78-4.11,1.1-6.23.32.04.65.08.98.1.21.01.42.02.64.02,6.62,0,12.07-5.18,12.4-11.8.53-10.51-1.08-16.6-1.58-18.21-1.4-4.47-5.13-7.6-9.45-8.46-.03-2.41-.11-4.72-.27-6.87-.59-7.91-1.27-16.87-4.36-25.36-1.96-6.59-5.86-12.5-11.06-16.93,2.47-5.37,5.61-9.01,8.82-10.06,3.32-1.09,7.32.37,10.82,2.4.13.79.33,1.57.6,2.31,1.15,3.23,3.6,5.9,6.72,7.36,3.13,1.5,6.77,1.67,10.02.47,3.23-1.17,5.88-3.62,7.31-6.74,1.49-3.1,1.67-6.7.51-9.94ZM304.12,173.63c.41,1.15.97,2.23,1.66,3.21-2.45.12-4.9.3-7.32.54-.85-.73-1.7-1.44-2.56-2.13-.04-5,.95-7.89,2.16-8.25,1.79-.53,3.69.38,5.3,1.64,0,.17-.01.35-.01.52,0,1.56.26,3.08.77,4.47Z"/>
  </g>
  <g id="Bubus">
    <g>
      <path class="cls-3" d="M130.6,331.36c-1.14,1.07-6.69,1-14.9.82-9.62-.23-13.63-.82-13.65-1.68,0-1.4,7.26-1.4,13.69-1.31,9.69.07,16.02,1.03,14.86,2.17Z"/>
      <path class="cls-3" d="M305.56,336.79c-5.63,8.18-32.23,8.44-71.56,8.32-46.07-.21-65.23-4.12-65.14-10.52.14-10.66,34.97-11.25,65.79-11.87,46.41-.85,76.87,5.36,70.91,14.07Z"/>
      <path class="cls-3" d="M280.84,326.02c-6.78,3.99-40.62,3.03-90.63,1.3-58.59-2.04-83.11-4.85-83.26-8.15-.26-5.5,43.99-4.38,83.13-3.38,58.93,1.51,97.91,5.99,90.76,10.23Z"/>
      <path class="cls-2" d="M298.16,341.16c-12.81-27.89-45.16-43.69-57.81-45.16-3.46,1.17-2.16,4.29-6.95,3.73-37.58-4.42-65.06-13.4-97.04,10.91-17.09,12.97,21.46-1.02,55.25,15.47,11.35,5.57,62.5,21.93,106.55,15.05Z"/>
      <line class="cls-4" x1="261.4" y1="282.68" x2="260.5" y2="287.11"/>
      <path class="cls-5" d="M245.93,165.54c-18.84.09-36.93,7.51-50.41,20.68,3.19-1.19,6.57-1.8,9.97-1.8,22.65,0,41,27.03,41,60.38s-18.37,60.32-41.01,60.32c-7.48-.13-14.68-2.92-20.28-7.88,5.56,8.02,12.56,14.94,20.65,20.41,24.62,7.82,28.8-24.64,65.44-24.64,13.92,0,19.01,7.17,28.22,13.12,14.61-15.9,22.65-36.76,22.51-58.35-.05-45.42-34.15-82.24-76.09-82.24Z"/>
      <path class="cls-5" d="M206.21,190.2c-16.24,0-30.17,14.61-36.04,35.4,2.27-1.89,5.13-2.94,8.08-2.98,9.5,0,17.2,11.33,17.2,25.31s-7.69,25.32-17.2,25.32c-2.87-.04-5.65-1.03-7.9-2.82,5.98,20.44,19.79,34.76,35.86,34.76,21.56,0,39.04-25.74,39.04-57.48s-17.48-57.51-39.04-57.51Z"/>
      <ellipse class="cls-5" cx="179.29" cy="250.38" rx="15.54" ry="22.88"/>
      <path class="cls-4" d="M260.5,287.1l3.6-4.49c-14.81,1.41-30.94,14.81-30.94,14.81,16.16-9.42,27.37-10.39,27.37-10.39"/>
      <path class="cls-5" d="M203.48,309.6s-5.38,5.39-2.68,10.78c2.7,5.38,18.67,1.4,26.17-5.39s27.68-22.88,45.17-21.53c17.5,1.35,18.79,12.37,30.94,14.81,6.74,1.4,6.74-6.74,0-9.07-7.65-2.7-12.06-15.18-36.31-13.77-24.24,1.4-43.06,20.14-63.29,24.17Z"/>
      <path class="cls-4" d="M212.95,313.64c-.74,0-1.34-.6-1.34-1.34s.59-1.33,1.31-1.34c.1,0,2.55-.21,7.29-3.76.59-.44,1.44-.32,1.88.27.44.59.32,1.44-.27,1.88-5.59,4.18-8.55,4.3-8.87,4.3Z"/>
      <path class="cls-4" d="M210.29,313.46c-.15.33-.43.59-.77.71-.34.15-.71.15-1.04,0-.33-.15-.58-.43-.71-.77-.23-.7.13-1.47.82-1.74.34-.14.72-.14,1.05,0,.33.14.59.43.71.77.12.34.1.71-.06,1.03Z"/>
      <path class="cls-2" d="M367.82,232.49c-.59-7.86-1.25-16.08-3.98-23.45-2.07-7.19-6.99-13.24-13.61-16.73-7.77-4.74-19.16-7.67-36.02-7.67-5.31-.02-10.61.24-15.89.79-41.24,2.81-41.49,21.76-40.09,52.56.07,1.66.17,3.21.26,4.79.18,4,.19,7.64.38,10.45h-.17v.14c0,2.14.42,4.08.55,5.86.39,11.98.1,38.85-18.12,45l-2.64,2.69c12.66,1.4,46.86,6.35,59.67,34.24,28.29-4.41,53.69-18.39,63.78-50.95.97-2.72,1.7-5.51,2.18-8.36.61-2.87,1.11-5.88,1.49-9.01l.07-.51v-.07c1.75-12.68,2.96-28.81,2.14-39.77Z"/>
      <path class="cls-4" d="M356.46,209.28c4.22,3.38,5.4,10.72,5.4,18.29,0,6.48-1.08,11.87-9.72,10.8-8.63-1.07-53.94-.73-70.17,1.08-9.71,1.08-9.71-21.59-4.31-29.14,6.38-8.94,35.52-8.44,47.49-7.55,15.12,1.1,25.91,2.21,31.31,6.52Z"/>
      <path class="cls-4" d="M335.92,198.04c-.09,0-.18,0-.27,0l-.98-.06q-15.46-.99-33.16-.5l-2.14.06c-2.36.07-4.3-1.79-4.37-4.14-.06-2.35,1.79-4.31,4.14-4.37l2.14-.06q18.08-.5,33.93.51l.98.06c2.34.15,4.12,2.17,3.98,4.52-.14,2.25-2.02,3.98-4.24,3.98Z"/>
      <path class="cls-4" d="M305.55,289.28c-.68,0-1.37-.14-2.03-.43-2.51-1.12-3.64-4.07-2.52-6.59,3.75-8.39,11.4-14.3,20.46-15.8,9.84-1.9,16.93-.2,21.15,1.56,4.73,1.98,7.14,4.48,7.57,4.96,1.84,2.05,1.67,5.2-.38,7.04-2.05,1.84-5.2,1.67-7.04-.38-.18-.18-6.02-6.01-19.47-3.39l-.15.03c-5.78.94-10.65,4.7-13.04,10.04-.83,1.85-2.65,2.95-4.56,2.95Z"/>
      <path class="cls-1" d="M357.3,245.93c4.27,0,7.74,3.47,7.74,7.74s-3.47,7.74-7.74,7.74-7.73-3.47-7.73-7.74,3.46-7.74,7.73-7.74Z"/>
      <path class="cls-1" d="M284.37,247.05c4.88,0,8.84,3.96,8.84,8.84s-3.96,8.85-8.84,8.85-8.85-3.97-8.85-8.85,3.96-8.84,8.85-8.84Z"/>
      <path class="cls-2" d="M374.7,269.23c-.08,0-.15,0-.23,0-2.44-.12-4.32-2.2-4.19-4.64.41-8.04-.83-12.33-.84-12.37-.69-2.33.62-4.8,2.95-5.5,2.33-.71,4.78.58,5.5,2.9.18.57,1.71,5.8,1.23,15.42-.12,2.36-2.07,4.2-4.41,4.2Z"/>
      <path class="cls-2" d="M247,267.58c-2.74,0-5-2.14-5.12-4.89-.03-.69-.18-7.02,3.29-17.65.88-2.69,3.77-4.16,6.46-3.29,2.69.88,4.16,3.77,3.29,6.46-2.89,8.87-2.79,14.04-2.79,14.09.07,2.81-2.14,5.18-4.95,5.28-.06,0-.12,0-.18,0Z"/>
      <path class="cls-5" d="M350.33,193.79c2.81-9.62,13.6-37.5,42.34-12.47l2.21-1.11s-12.15-15.47-27.62-12.15c-12.25,2.63-19.69,17.71-22.19,23.91-.58,1.43.12,3.08,1.54,3.66.33.12.67.19,1.01.19,1.25,0,2.36-.84,2.71-2.03Z"/>
      <path class="cls-5" d="M397.43,181.94c-.54,1.23-1.56,2.18-2.82,2.63-1.25.47-2.64.4-3.84-.19-1.21-.55-2.16-1.56-2.61-2.82-.2-.55-.3-1.13-.3-1.71,0-2.11,1.33-4,3.31-4.71,1.26-.49,2.66-.44,3.88.14,1.22.53,2.16,1.55,2.6,2.81.46,1.26.38,2.65-.22,3.85Z"/>
      <path class="cls-4" d="M395.43,178.82c-.14.32-.41.56-.75.68-.31.13-.68.13-.99,0-.32-.15-.57-.42-.68-.75-.05-.14-.08-.29-.08-.44,0-.55.34-1.03.85-1.22.32-.13.68-.13,1,0,.32.14.57.41.68.75.12.31.11.67-.03.98Z"/>
      <path class="cls-5" d="M321.41,171.35c-.56,1.32-1.65,2.34-3,2.82-1.31.49-2.77.41-4.02-.22-1.28-.58-2.26-1.66-2.73-2.99-.21-.58-.31-1.19-.31-1.8,0-2.21,1.39-4.19,3.46-4.94,1.32-.5,2.79-.45,4.07.16,1.28.55,2.27,1.6,2.74,2.91.5,1.32.42,2.8-.21,4.06Z"/>
      <path class="cls-4" d="M319.33,168.08c-.15.33-.43.59-.77.71-.34.15-.71.15-1.05,0-.32-.15-.57-.43-.7-.77-.23-.7.13-1.47.82-1.74.34-.14.71-.14,1.05,0,.33.14.59.43.71.77.12.34.1.71-.06,1.03Z"/>
      <path class="cls-5" d="M317.25,168.88c0-1.18-14.92-22.2-28.13-10.45-9.35,8.28-8.12,25.14-6.81,33.5.23,1.97,1.91,3.47,3.89,3.47.45,0,.9-.08,1.33-.24,1.88-.82,2.89-2.9,2.39-4.89-1.93-8.14-5.29-27.65,5.88-30.94s19.3,10.77,19.3,10.77l2.15-1.22Z"/>
    </g>
  </g>
</svg>