<?xml version="1.0" encoding="UTF-8"?>
<svg xmlns="http://www.w3.org/2000/svg" viewBox="0 0 500 500">
  <defs>
    <style>
      .cls-1, .cls-2 {
        fill-rule: evenodd;
      }

      .cls-1, .cls-2, .cls-3, .cls-4, .cls-5, .cls-6 {
        stroke-width: 0px;
      }

      .cls-1, .cls-6 {
        fill: #e65b0a;
      }

      .cls-2, .cls-5 {
        fill: #fff;
      }

      .cls-3 {
        fill: #282c33;
      }

      .cls-4 {
        fill: #869eb4;
      }
    </style>
  </defs>
  <g id="stiker_style" data-name="stiker style">
    <path class="cls-5" d="M381.63,158.47c0-25.3-24.53-45.89-54.68-45.89s-54.67,20.59-54.67,45.89c0,4.31.7,8.52,2.05,12.56-8.44-1.13-18.29-1.58-29.71-1.36-29.86.53-48.83,6.79-59.69,19.68-9.83,11.67-10.76,26.46-11.58,39.51-.11,1.71-.21,3.42-.34,5.12-.31,4.1-.39,9.1-.28,14.58-6.79-.14-12.69,4.92-13.45,11.78-.15,1.38-.77,8.91,2.29,21.12,1.48,5.92,6.76,10.05,12.86,10.05.62,0,1.24-.06,1.85-.14,1.43,9.9,3.14,17.92,4.86,21.37,1.17,2.35,2.98,5.96,6.43,9.69-.3,5.34-.17,9.86.15,13.56-4.23,2.24-6.36,5.48-6.36,9.71.05,10,13.13,11.8,20.16,12.77,9.77,1.35,24.14,2.18,43.94,2.56,10.21.19,18.92.32,26.38.32,25.04,0,35.85-1.47,41.09-6.99,2.59-2.74,3.45-6.39,2.3-9.78-1.57-4.64-6-7.13-12.71-8.82.28-3.39.41-7.56.17-12.46,5.53-5.85,8.09-12.63,10-19.18.93-3.18,1.92-7.27,2.88-12.17,1.13.28,2.28.44,3.44.44,6.18,0,11.58-3.96,13.44-9.84.48-1.5,2.81-9.72,2.09-24.1-.19-3.77-1.84-7.24-4.64-9.77-2.48-2.24-5.6-3.49-8.89-3.61.04-.86.09-1.72.13-2.59.6-13.27,1.22-26.85-1.82-38.53,2.51.29,5.06.44,7.64.44,30.15,0,54.68-20.59,54.68-45.89Z"/>
  </g>
  <g id="Bubus">
    <path class="cls-4" d="M307.11,348.85c-4.72,4.97-27.61,4.81-61.51,4.17-39.68-.75-56.23-3.42-56.25-7.37,0-6.57,29.97-6.49,56.54-6.43,39.93.1,66.23,4.34,61.22,9.63Z"/>
    <path class="cls-3" d="M204.11,349.32c.67,0,1.35-.09,2.02-.29,3.86-1.11,6.09-5.13,5.01-8.99-.08-.29-2.43-9.51-.08-25.45.59-3.99-2.17-7.7-6.15-8.28-3.99-.59-7.7,2.17-8.29,6.15-2.84,19.22.13,30.37.48,31.58.92,3.2,3.84,5.28,7.01,5.28Z"/>
    <path class="cls-3" d="M244.77,177.67c69.68-1.32,70.27,22.56,68.37,64.42-1.32,28.92-5.26,49.96-8.13,59.77-4.22,14.46-10.94,29.19-58.36,29.19s-54.72-14.6-58.36-21.89c-3.64-7.3-8.96-52.45-7.3-74.58,1.99-26.67-.64-55.76,63.78-56.91Z"/>
    <path class="cls-3" d="M286.1,349.32c-.67,0-1.35-.09-2.02-.29-3.86-1.11-6.09-5.13-5.01-8.99.08-.29,2.43-9.51.08-25.45-.59-3.99,2.17-7.7,6.15-8.28,3.99-.59,7.7,2.17,8.29,6.15,2.84,19.22-.13,30.37-.48,31.58-.92,3.2-3.84,5.28-7.01,5.28Z"/>
    <path class="cls-5" d="M231.92,309.98c-20.96,0-30.23-15.04-30.62-15.68-1.87-3.11-.86-7.15,2.25-9.02,3.09-1.86,7.11-.87,8.99,2.2.32.5,6.15,9.35,19.38,9.35,18.26,0,24.29-9.2,24.34-9.3,1.87-3.11,5.91-4.12,9.02-2.26,3.11,1.87,4.12,5.9,2.26,9.02-.44.73-2.92,4.58-8.55,8.33-5.03,3.35-13.81,7.35-27.07,7.35Z"/>
    <path class="cls-2" d="M193.51,259.18c5.08,0,9.2,4.13,9.2,9.2s-4.12,9.21-9.2,9.21-9.21-4.13-9.21-9.21,4.13-9.2,9.21-9.2Z"/>
    <path class="cls-2" d="M280.28,260.5c5.81,0,10.52,4.71,10.52,10.51s-4.71,10.52-10.52,10.52-10.52-4.71-10.52-10.52,4.72-10.51,10.52-10.51Z"/>
    <path class="cls-3" d="M174.43,283.51c-2.36,0-4.5-1.6-5.1-3.98-2.78-11.12-2.17-17.6-2.1-18.3.32-2.89,2.93-4.96,5.81-4.64,2.88.32,4.95,2.9,4.65,5.77-.02.18-.45,5.46,1.84,14.62.71,2.82-1.01,5.67-3.83,6.38-.43.11-.86.16-1.28.16Z"/>
    <path class="cls-3" d="M319.01,284.37c-.61,0-1.23-.09-1.84-.29-3.2-1.01-4.98-4.42-3.99-7.62.05-.19,1.73-6.08,1.18-17.03-.17-3.36,2.42-6.23,5.79-6.4,3.36-.18,6.23,2.42,6.4,5.79.67,13.29-1.48,20.51-1.73,21.29-.82,2.6-3.22,4.26-5.81,4.26Z"/>
    <path class="cls-5" d="M193.49,210.54c-5.12,4.1-6.57,13.05-6.57,22.35,0,7.89,1.31,14.46,11.83,13.14,10.52-1.31,65.74-.88,85.46,1.32,11.83,1.31,11.83-26.3,5.26-35.5-7.78-10.89-43.27-10.24-57.85-9.2-18.4,1.31-31.55,2.63-38.13,7.89Z"/>
    <path class="cls-5" d="M218.53,196.82c-2.71,0-4.99-2.11-5.17-4.86-.18-2.86,1.99-5.31,4.85-5.49l2.13-.13q18.7-1.17,41.65-.53l1.38.04c2.86.08,5.11,2.46,5.04,5.32s-2.48,5.12-5.32,5.04l-1.38-.04q-22.48-.62-40.72.52l-2.13.13c-.11,0-.22.01-.33.01Z"/>
    <path class="cls-1" d="M326.95,120.58c25.76,0,46.68,16.98,46.68,37.89s-20.92,37.89-46.68,37.89-46.67-16.98-46.67-37.89,20.91-37.89,46.67-37.89Z"/>
    <path class="cls-5" d="M357.94,139.35c-.3,0-.61-.11-.85-.34l-1-.94c-.5-.47-.52-1.25-.05-1.75.47-.5,1.25-.52,1.75-.05l1,.94c.5.47.52,1.25.05,1.75-.24.26-.57.39-.9.39Z"/>
    <path class="cls-5" d="M353.7,135.81c-.25,0-.5-.07-.72-.23-2.45-1.74-5.1-3.21-7.88-4.38-.63-.26-.93-.99-.66-1.62.26-.63.99-.93,1.62-.66,2.95,1.23,5.76,2.8,8.36,4.64.56.4.69,1.17.29,1.72-.24.34-.62.52-1.01.52Z"/>
    <path class="cls-6" d="M295.61,177.75l-5.06,14.66c-.08.22-.12.46-.12.7,0,1.18.97,2.15,2.14,2.15.41,0,.81-.12,1.16-.34l15.99-10.13-14.11-7.04Z"/>
    <path class="cls-2" d="M306.58,159.26c2.9,0,5.25,2.36,5.25,5.26s-2.35,5.26-5.25,5.26-5.26-2.36-5.26-5.26,2.35-5.26,5.26-5.26Z"/>
    <circle class="cls-5" cx="321.04" cy="164.52" r="5.26"/>
    <circle class="cls-5" cx="335.5" cy="164.52" r="5.26"/>
  </g>
</svg>