<?xml version="1.0" encoding="UTF-8"?>
<svg xmlns="http://www.w3.org/2000/svg" viewBox="0 0 500 500">
  <defs>
    <style>
      .cls-1 {
        fill-rule: evenodd;
      }

      .cls-1, .cls-2, .cls-3, .cls-4, .cls-5, .cls-6, .cls-7 {
        stroke-width: 0px;
      }

      .cls-1, .cls-5 {
        fill: #fff;
      }

      .cls-2 {
        fill: #282c33;
      }

      .cls-3 {
        fill: #869eb4;
      }

      .cls-4 {
        fill: #efd89e;
      }

      .cls-6 {
        fill: #eacd8c;
      }

      .cls-7 {
        fill: #e65b0a;
      }
    </style>
  </defs>
  <g id="stiker_style" data-name="stiker style">
    <path class="cls-5" d="M341.69,267.48c0-5.36-4.37-9.73-9.73-9.73-.38,0-.75.02-1.13.07-2.33.24-4.68.52-7.04.82.37-7.28.51-15.28.01-21.96-.12-1.61-.22-3.24-.32-4.86-.79-12.5-1.67-26.67-11.12-37.88-10.42-12.38-28.59-18.38-57.16-18.89-15.1-.28-27.4.63-37.33,2.89.83-2.62,1.27-5.37,1.27-8.19,0-9.89-5.33-19.05-13.92-23.94-6.78-4.03-14.71-5.24-22.37-3.41-7.18,1.42-13.72,5.27-18.49,10.94-6.28,7.64-6.57,14.58-5.67,19.1.68,3.73,2.72,7.03,5.73,9.26,3.18,2.39,7.23,3.25,11.11,2.36.01,1.34.19,2.68.53,3.98l1.15,5.21c.56,3.57,2.23,6.87,4.74,9.44-.41.82-.77,1.66-1.05,2.56-1.29,4.18-.86,8.56,1.08,12.2-.83,8.15-.53,17.27-.07,27.35.23,5.12.56,10.17.98,15.12-2.09-.09-4.2-.16-6.32-.23h-.59c-5.04-.01-9.13,4.09-9.13,9.13,0,2.7,1.18,5.24,3.25,6.99,3.42,2.87,6.64,6.43,9.63,10.63l-1.08.54c-4.44,2.22-7.2,6.68-7.2,11.64,0,7.17,5.84,13.01,13,13.01,2.02-.02,4.04-.47,5.83-1.37l1.3-.65c3.36,9.04,5.32,17.21,6.49,22.1l.34,1.42c.05.19.1.37.15.55-5.75,1.64-9.57,4.04-11,8.29-1.14,3.37-.28,7,2.29,9.69,5.07,5.35,15.44,6.77,39.44,6.77,7.11,0,15.41-.12,25.13-.31,18.88-.36,32.59-1.15,41.92-2.44,6.82-.94,19.51-2.69,19.53-12.58,0-2.92-1.05-5.37-3.13-7.33,2.08-2.07,3.33-4.93,3.28-7.97-.03-2.33.37-6.04,2.07-11.59.55.07,1.11.11,1.67.11h0c7.17,0,13.01-5.84,13.01-13.01,0-3.48-1.35-6.75-3.81-9.2l-.91-.91c4.63-8.75,9.4-16.33,12.11-20.48,1-1.57,1.54-3.38,1.54-5.24Z"/>
  </g>
  <g id="Bubus">
    <g>
      <path class="cls-3" d="M195.65,346.15c4.49,4.74,26.3,4.59,58.61,3.97,37.81-.71,53.59-3.26,53.6-7.02,0-6.26-28.55-6.19-53.87-6.13-38.06.09-63.13,4.13-58.34,9.17Z"/>
      <path class="cls-2" d="M255.05,183.03c-66.4-1.25-66.96,21.5-65.15,61.39,1.26,27.56,5.01,47.61,7.75,56.95,4.02,13.78,10.43,27.81,55.61,27.81s52.14-13.91,55.61-20.86c3.47-6.95,8.54-49.98,6.96-71.06-1.89-25.42.61-53.13-60.78-54.23Z"/>
      <path class="cls-2" d="M293.53,343.57c-3.82,0-6.95-3.15-6.95-6.97,0-.44.04-.87.12-1.3q2.01-10.24.28-21.89l13.78-2.09-6.88,1.02,6.89-.95c2.01,13.62,1.99,14.36-.39,26.55-.64,3.27-3.54,5.65-6.87,5.64Z"/>
      <path class="cls-2" d="M215.66,346.6c-3.08,0-5.81-2.05-6.67-5.01-.33-1.15-3.16-11.76-.45-30.07.5-3.4,3.45-5.95,6.89-5.95,3.82,0,6.97,3.14,6.97,6.97,0,.34-.03.68-.07,1.01-2.28,15.43,0,24.13,0,24.22.18.62.27,1.27.27,1.92,0,3.81-3.13,6.95-6.95,6.95h0l.04-.04Z"/>
      <path class="cls-1" d="M303.9,260.71c4.85,0,8.77,3.93,8.77,8.77s-3.92,8.77-8.77,8.77-8.77-3.93-8.77-8.77,3.93-8.77,8.77-8.77Z"/>
      <path class="cls-1" d="M221.22,261.96c5.53,0,10.03,4.49,10.03,10.02s-4.5,10.02-10.03,10.02-10.02-4.49-10.02-10.02,4.49-10.02,10.02-10.02Z"/>
      <path class="cls-5" d="M303.9,214.35c4.89,3.91,6.26,12.44,6.26,21.3,0,7.52-1.25,13.78-11.28,12.53-10.02-1.25-62.64-.84-81.43,1.25-11.28,1.25-11.28-25.06-5.01-33.83,7.42-10.37,41.23-9.76,55.12-8.77,17.53,1.25,30.06,2.51,36.33,7.52Z"/>
      <path class="cls-5" d="M280.06,201.29h-.31l-1.38-.09q-17.8-1.13-38.57-.56h-2.17c-.12,0-.23.01-.35.01-2.71,0-4.93-2.23-4.93-4.94s2.23-4.94,4.93-4.94c.03,0,.05,0,.08,0h2.17q21.21-.58,39.46.58l1.38.09c2.57.18,4.59,2.35,4.59,4.92s-2.21,4.92-4.9,4.94h-.02Z"/>
      <path class="cls-7" d="M185.08,191.79l-1.25-5.66c-.35-1.27-.4-2.61-.12-3.9.35-1.03,1.05-1.92,1.96-2.51.9-.59,1.85-1.09,2.83-1.5,1.05-.44,2.05-.99,2.98-1.63,1.41-.84,2.53-2.09,3.21-3.58.59-1.5.69-3.14.3-4.7-.34-1.58-1.33-2.95-2.73-3.76-1.43-.9-3.17-1.2-4.81-.81-1.46.29-2.85.92-4.02,1.84-1.37,1.19-2.51,2.6-3.39,4.18l-.65,1.05c-1.85,3.22-3.72,5.02-5.6,5.42-1.59.38-3.27.03-4.57-.95-1.42-1.05-2.37-2.61-2.67-4.35-.83-4.1.5-8.28,3.99-12.53,3.58-4.26,8.54-7.16,14.01-8.21,5.66-1.39,11.64-.49,16.65,2.51,6.13,3.46,9.94,9.98,9.94,17.02,0,8.04-4.96,15.29-12.44,18.21v.26c.62,2.28.44,4.71-.51,6.88-1.25,2.23-3.61,3.61-6.18,3.61-1.41,0-2.8-.43-3.97-1.22-1.63-1.49-2.68-3.5-2.97-5.69Z"/>
      <path class="cls-7" d="M188.32,211.63c-.5-2.08-.09-4.28,1.11-6.05,1.17-1.8,3.02-3.05,5.13-3.46.55-.12,1.11-.18,1.68-.18,3.75,0,7.03,2.65,7.8,6.33.48,2.09.08,4.29-1.11,6.08-1.11,1.81-2.93,3.09-5.01,3.51-4.35.9-8.67-1.92-9.59-6.26v.04Z"/>
      <path class="cls-5" d="M190.8,207.2c-.09-.38-.02-.79.2-1.12.21-.33.55-.56.94-.64.1-.02.2-.03.31-.03.7,0,1.3.49,1.44,1.17.09.38.02.79-.2,1.12-.2.34-.54.57-.93.65-.8.16-1.59-.36-1.77-1.15Z"/>
      <path class="cls-5" d="M170.22,166.71h-.29c-.57-.13-.97-.64-.97-1.22,0-.1,0-.19.03-.28.78-3.07,2.55-5.81,5.01-7.79.22-.19.51-.29.8-.29.69,0,1.26.57,1.26,1.25,0,.37-.17.73-.45.96-2.05,1.64-3.51,3.9-4.16,6.44-.15.55-.66.94-1.22.93Z"/>
      <path class="cls-6" d="M331.73,265.76c.08-.01.15-.02.23-.02.95,0,1.73.78,1.73,1.73,0,.33-.1.65-.27.93-6.34,9.71-25.65,40.83-25.41,59.51.03,1.4-.93,2.64-2.29,2.97-14.85,3.76-20.51,6.67-21.83,7.42.29-24.1,5.48-64.81,5.48-64.81h.3c13.8-3.68,27.86-6.26,42.06-7.73Z"/>
      <path class="cls-4" d="M289.37,273.46s-5.17,40.7-5.48,64.81c-.07,0,0,.09-.1.1-.09.06-.2.09-.3.07-2.19-.29-22.73-2.76-37.58,1.1-7.2-36.47-14.23-66.4-14.23-66.4h-.08c1.85-.2,38.24-4.02,57.81.29.1.03-.04.03-.04.03Z"/>
      <path class="cls-6" d="M245.99,339.59c-.07.01-.15.01-.22,0-11.59-3.41-23.59-5.22-35.67-5.39-1.85.01-3.48-1.25-3.93-3.04-2.5-10.31-9.83-43.77-30.92-61.49-.26-.22-.4-.53-.4-.87,0-.63.51-1.14,1.14-1.14.03,0,.05,0,.07,0,36.34,1.09,54.23,5.21,55.47,5.51h.22s7.05,29.98,14.24,66.41Z"/>
      <path class="cls-2" d="M184.46,303.62h0c-2.75,0-5.01-2.26-5.01-5.01,0-1.9,1.08-3.64,2.78-4.48l8.15-4.07c.69-.35,1.46-.53,2.24-.53,2.75,0,5.02,2.26,5.02,5.01,0,1.9-1.08,3.64-2.78,4.48l-8.15,4.07c-.69.35-1.46.53-2.24.53Z"/>
      <path class="cls-2" d="M319.75,308.31c-1.33,0-2.6-.53-3.54-1.47l-4.39-4.39c-.93-.94-1.46-2.22-1.46-3.55,0-2.75,2.26-5.01,5.01-5.01,1.33,0,2.61.53,3.55,1.47l4.38,4.39c.94.94,1.46,2.22,1.46,3.55,0,2.75-2.26,5.01-5,5.01h0Z"/>
    </g>
  </g>
</svg>