<?xml version="1.0" encoding="UTF-8"?>
<svg xmlns="http://www.w3.org/2000/svg" viewBox="0 0 500 500">
  <defs>
    <style>
      .cls-1, .cls-2 {
        fill-rule: evenodd;
      }

      .cls-1, .cls-2, .cls-3, .cls-4, .cls-5, .cls-6, .cls-7, .cls-8, .cls-9, .cls-10, .cls-11, .cls-12 {
        stroke-width: 0px;
      }

      .cls-1, .cls-8 {
        fill: #272c32;
      }

      .cls-2, .cls-12 {
        fill: #fff;
      }

      .cls-3 {
        fill: #f9b52e;
      }

      .cls-4 {
        fill: #727477;
      }

      .cls-5 {
        fill: #517f91;
      }

      .cls-6 {
        fill: #282c33;
      }

      .cls-7 {
        fill: #86abbd;
      }

      .cls-9 {
        fill: #0f2d49;
      }

      .cls-10 {
        fill: #16406d;
      }

      .cls-11 {
        fill: #a7bbd8;
      }
    </style>
  </defs>
  <g id="stiker_style" data-name="stiker style">
    <path class="cls-12" d="M412.65,208.46c-11.8,0-23.37,2.79-33.8,8.12l-35.19-33.76c-5.61-5.28-12.93-8.06-20.64-7.85-8.62.24-16.55,4.3-21.8,10.92-2.29-13.73-6.45-29.3-13.9-36.67l-.13-.13c-16.37-15.47-50.86-13.35-61.04-12.33-20.39,2.04-45.54,8.99-54.96,22.35-4.6,6.53-6.01,18.75-5.42,32.95-1.09-1.97-2.64-3.67-4.55-4.97-3.23-2.2-7.13-3.02-10.98-2.29-3.85.73-7.18,2.91-9.38,6.14-2.2,3.23-3.02,7.13-2.29,10.98,2.42,12.77,9.42,22.41,10.21,23.47,1.7,2.27,4.02,3.98,6.64,4.95l8.42,16.32c-13.49-19.04-35.69-31.5-60.75-31.5-2.54,0-5.18.14-7.86.43-2.68-.28-5.32-.43-7.86-.43-41.02,0-74.39,33.37-74.39,74.39s33.37,74.39,74.39,74.39c2.54,0,5.18-.14,7.86-.43,2.68.29,5.32.43,7.86.43,16.93,0,33.5-5.84,46.65-16.45,11.03-8.9,19.33-20.84,23.83-34.16l27.08,3.63,1.48.21,99.6-6.56c12.49-.81,22.55-10.02,24.48-22.39l6.32-40.72,10.63,8.75c-3.25,8.47-4.9,17.39-4.9,26.6,0,41.02,33.37,74.39,74.39,74.39s74.39-33.37,74.39-74.39-33.37-74.39-74.39-74.39ZM99.09,273.41c-8.1-1.09-15.58,4.63-16.67,12.74-.53,3.93.51,7.82,2.91,10.97,2.41,3.15,5.89,5.18,9.82,5.7l33.99,4.56c-6.02,13.52-18.52,23.52-33.34,26.13-21.29-3.75-37.2-22.62-37.2-44.38s15.91-40.63,37.21-44.38c17.56,3.08,31.38,16.21,35.74,33l-32.46-4.35ZM413.24,327.49c-24.85,0-45.06-20.22-45.06-45.06,0-1.79.1-3.57.31-5.33l25.86,21.29c4.62,5.29,11.25,8.3,18.32,8.3.86,0,1.73-.05,2.59-.14,11.46-1.21,20.54-10.42,21.6-21.89.79-8.57-2.99-16.91-9.91-21.94l-24.94-23.93c3.66-.94,7.44-1.42,11.24-1.42,24.85,0,45.06,20.22,45.06,45.06s-20.22,45.06-45.06,45.06ZM305.9,225.58l-2.32,14.97c.47-5.73.65-11.35.66-16.36.24.22.49.43.74.63l.92.76ZM299.5,266.8c-.29-.21-.57-.42-.84-.62.73-2.03,1.37-4.18,1.93-6.41l-1.09,7.03ZM183.45,284.72l-6.2-.83c-.49-6.52-1.83-12.81-3.9-18.76l10.1,19.59Z"/>
  </g>
  <g id="Bubus">
    <g>
      <path class="cls-6" d="M293.52,287.95c-1.55.06-3.13-.4-4.47-1.4q-8.42-6.33-19.77-9.88l2.03-6.73,2.1-6.71-2.1,6.71,2.17-6.68c13.27,4.16,13.94,4.5,23.98,12.04,3.1,2.33,3.74,6.74,1.41,9.85-1.33,1.77-3.32,2.73-5.36,2.81Z"/>
      <g>
        <path class="cls-5" d="M87.35,229.89c-32.96,0-59.69,26.72-59.69,59.69s26.72,59.69,59.69,59.69,59.69-26.72,59.69-59.69-26.72-59.69-59.69-59.69ZM87.95,342.22c-29.31,0-53.06-23.76-53.06-53.06s23.76-53.06,53.06-53.06,53.06,23.76,53.06,53.06-23.76,53.06-53.06,53.06Z"/>
        <path class="cls-9" d="M87.35,223.18c-36.67,0-66.39,29.72-66.39,66.39s29.72,66.39,66.39,66.39,66.39-29.72,66.39-66.39-29.72-66.39-66.39-66.39ZM88.01,348.13c-32.6,0-59.03-26.43-59.03-59.03s26.43-59.03,59.03-59.03,59.03,26.43,59.03,59.03-26.43,59.03-59.03,59.03Z"/>
      </g>
      <g>
        <path class="cls-7" d="M103.07,229.89c-32.96,0-59.69,26.72-59.69,59.69s26.72,59.69,59.69,59.69,59.69-26.72,59.69-59.69-26.72-59.69-59.69-59.69ZM103.67,342.22c-29.31,0-53.06-23.76-53.06-53.06s23.76-53.06,53.06-53.06,53.06,23.76,53.06,53.06-23.76,53.06-53.06,53.06Z"/>
        <path class="cls-10" d="M103.07,223.18c-36.67,0-66.39,29.72-66.39,66.39s29.72,66.39,66.39,66.39,66.39-29.72,66.39-66.39-29.72-66.39-66.39-66.39ZM103.73,348.13c-32.6,0-59.03-26.43-59.03-59.03s26.43-59.03,59.03-59.03,59.03,26.43,59.03,59.03-26.43,59.03-59.03,59.03Z"/>
      </g>
      <path class="cls-11" d="M202.42,309.16l-.67-.09-105.53-14.15c-3.74-.5-6.37-3.95-5.87-7.68.5-3.74,3.98-6.36,7.68-5.87l104.85,14.06,97.43-6.42c2.25-.15,4.13-1.86,4.47-4.09l14.69-94.67,96.83,85.7c2.83,2.5,3.09,6.82.59,9.65-2.5,2.82-6.82,3.09-9.65.59l-78.09-69.12-10.85,69.95c-1.35,8.64-8.38,15.07-17.1,15.64l-98.79,6.51Z"/>
      <path class="cls-3" d="M203.74,294.93c-3.69,0-7.1-2.06-8.81-5.37l-44-85.33c-.86-1.68-.21-3.74,1.47-4.61,1.68-.87,3.74-.21,4.6,1.47l44,85.33c.56,1.09,1.7,1.75,2.94,1.66l87.76-5.95c1.87-.09,3.52,1.3,3.64,3.18.13,1.88-1.3,3.52-3.18,3.65l-87.76,5.95c-.22.01-.45.02-.67.02Z"/>
      <path class="cls-8" d="M160.5,223.29c-2.02,0-4.02-.92-5.32-2.66-.27-.36-6.64-8.98-8.75-20.17-.68-3.61,1.69-7.09,5.3-7.77,3.61-.68,7.09,1.69,7.77,5.3,1.53,8.08,6.3,14.63,6.35,14.69,2.17,2.95,1.56,7.11-1.38,9.3-1.19.89-2.59,1.31-3.97,1.31Z"/>
      <path class="cls-8" d="M297.79,196.73c1.29-1.56,3.27-2.5,5.45-2.39.45.02,11.15.63,21.11,6.15,3.21,1.78,4.38,5.83,2.59,9.04-1.78,3.21-5.83,4.38-9.04,2.59-7.19-3.99-15.28-4.49-15.36-4.5-3.66-.21-6.47-3.34-6.27-7,.08-1.48.64-2.83,1.52-3.89Z"/>
      <circle class="cls-11" cx="412.65" cy="282.4" r="11.98"/>
      <g>
        <path class="cls-7" d="M412.65,223.18c-32.96,0-59.69,26.72-59.69,59.69s26.72,59.69,59.69,59.69,59.69-26.72,59.69-59.69-26.72-59.69-59.69-59.69ZM413.24,335.51c-29.31,0-53.06-23.76-53.06-53.06s23.76-53.06,53.06-53.06,53.06,23.76,53.06,53.06-23.76,53.06-53.06,53.06Z"/>
        <path class="cls-10" d="M412.65,216.48c-36.67,0-66.39,29.72-66.39,66.39s29.72,66.39,66.39,66.39,66.39-29.72,66.39-66.39-29.72-66.39-66.39-66.39ZM413.31,341.43c-32.6,0-59.03-26.43-59.03-59.03s26.43-59.03,59.03-59.03,59.03,26.43,59.03,59.03-26.43,59.03-59.03,59.03Z"/>
      </g>
      <circle class="cls-11" cx="323.99" cy="203.65" r="16.94"/>
      <path class="cls-6" d="M237.02,303.71c-2.29.08-4.57-.95-6-2.95-.16-.21-5.63-7.56-19.02-15.48-3.34-1.98-4.45-6.28-2.47-9.63,1.97-3.34,6.28-4.45,9.63-2.47,16.12,9.53,22.67,18.49,23.36,19.48,2.23,3.18,1.45,7.56-1.73,9.79-1.15.81-2.46,1.22-3.76,1.27Z"/>
      <g>
        <path class="cls-1" d="M281.69,154.92c-20.24-19.13-89.94-11.08-103.97,8.82-11.67,16.57,4.02,98.76,19.41,112.81,21.12,19.28,74.95,3.49,85.39-1.41,20.43-8.3,16.31-103.26-.83-120.22Z"/>
        <path class="cls-2" d="M280.64,173.64c-14.7-6.83-69.53-4.3-83.76,7.2-7.82,6.32-6.25,36.78,3.55,34.56,22.84-5.15,71.14-9.49,85.02-9.27,6.94.12,4.24-28.3-4.81-32.5Z"/>
        <path class="cls-12" d="M214.19,166.47c-2.44,0-4.69-1.6-5.39-4.06-.86-2.98.86-6.09,3.83-6.95,1.02-.29,25.26-7.17,51.82-3.46,3.07.43,5.21,3.27,4.79,6.34s-3.26,5.22-6.34,4.79c-24.12-3.36-46.93,3.07-47.16,3.13-.52.15-1.04.22-1.55.22Z"/>
        <path class="cls-2" d="M196.93,231.95c-.27-1.73.82-7.96,6.51-9.97,5.2-1.84,10.93,2.78,11.32,4.72.29,1.5-3.95-.72-10.34.9-5.16,1.31-7.04,7.22-7.49,4.35Z"/>
        <path class="cls-2" d="M290.14,223.74c.08-1.86-1.41-8.33-6.49-9.85-4.65-1.39-9.18,4.09-9.34,6.19-.12,1.62,3.66-1.58,9.08-.57,4.77.89,6.63,7.32,6.76,4.24Z"/>
        <path class="cls-2" d="M249.91,241.48c-27.96,2.05-33.6-7.29-38.4-2.47-3.88,3.9-1.51,19.78,16.42,28.83,12.08,6.1,31.18,3.97,41.28-2.97,8.78-6.04,18.22-20.06,12.86-33.11-2.14-5.22-12.52,8.29-32.17,9.73Z"/>
      </g>
      <rect class="cls-10" x="313.18" y="204.77" width="21.62" height="6.32" rx="2.68" ry="2.68"/>
      <path class="cls-4" d="M412.66,298.71c-4.91,0-9.55-2.18-12.68-6.02l-89.93-74.02c-4.49-3.7-7.09-9.02-7.14-14.6h0c0-.29,0-.58.01-.88.36-11.02,9.28-19.89,20.31-20.2,5.58-.16,10.88,1.86,14.93,5.68l83.66,80.26c4.9,3.34,7.6,9.09,7.05,15.02-.71,7.69-6.79,13.86-14.47,14.67-.59.06-1.17.09-1.75.09ZM323.84,184.89c-.18,0-.36,0-.54,0-10.02.28-18.12,8.34-18.45,18.36,0,.27-.01.53-.01.8h0c.04,5.02,2.39,9.81,6.44,13.15l90.07,74.15.06.08c3.09,3.84,7.87,5.83,12.8,5.31,6.77-.71,12.14-6.16,12.77-12.95.49-5.26-1.92-10.37-6.29-13.31l-.13-.1-83.71-80.31c-3.54-3.34-8.15-5.16-13.02-5.16Z"/>
    </g>
  </g>
</svg>