<?xml version="1.0" encoding="UTF-8"?>
<svg xmlns="http://www.w3.org/2000/svg" viewBox="0 0 500 500">
  <defs>
    <style>
      .cls-1 {
        fill-rule: evenodd;
      }

      .cls-1, .cls-2, .cls-3, .cls-4, .cls-5, .cls-6 {
        stroke-width: 0px;
      }

      .cls-1, .cls-5 {
        fill: #fff;
      }

      .cls-2 {
        fill: #282c33;
      }

      .cls-3 {
        fill: #869eb4;
      }

      .cls-4 {
        fill: #272c32;
      }

      .cls-6 {
        fill: #e65b0a;
      }
    </style>
  </defs>
  <g id="stiker_style" data-name="stiker style">
    <path class="cls-5" d="M357.94,147.85c-4.61-7.23-11.73-12.28-20.06-14.24-7.68-2.14-15.93-1.59-23.33,1.58-9.78,4.32-13.41,10.85-14.73,15.6-1.13,3.83-.77,7.89,1.01,11.46,1.87,3.74,5.26,6.44,9.3,7.43.38.1.77.18,1.17.24-.92,1.58-1.59,3.32-1.98,5.11l-1.48,5.81c-.46,1.4-.73,2.84-.84,4.29-1.4-2.21-3.04-4.31-4.95-6.28-12.09-12.41-33.26-17.65-68.67-16.98-71.5,1.28-73.64,35.24-75.36,62.52-.12,1.83-.23,3.65-.37,5.46-.5,6.73-.4,15.96.14,25.86-.47-.17-.95-.31-1.44-.43-3.81-.93-7.76-.32-11.11,1.72-3.35,2.04-5.7,5.26-6.63,9.07-3.09,12.7-.68,24.41-.39,25.7,1.47,6.68,7.5,11.53,14.33,11.53,1.06,0,2.12-.12,3.16-.34,2.66-.58,4.97-1.87,6.83-3.6,1.17,6.48,2.44,11.52,3.7,14.04,1.24,2.48,3.14,6.28,6.77,10.21-.55,6.37-.05,10.22,1.49,18.25-8.23,1.96-12.2,4.67-13.71,8.94-1.21,3.43-.37,7.13,2.27,9.91,5.24,5.51,16.04,6.98,41.08,6.98,7.46,0,16.17-.13,26.38-.32,19.8-.37,34.17-1.21,43.94-2.56,7.03-.97,20.11-2.77,20.16-12.81,0-1.09-.2-3.05-1.4-5.11.79-3.7,1.95-11.3,1.41-22.2,6.22-6.48,8.78-13.84,10.69-20.38.3-1.03.61-2.15.92-3.35,1.43.92,3.03,1.62,4.78,2.01,1.04.23,2.1.34,3.16.34,6.84,0,12.87-4.85,14.33-11.53.29-1.29,2.7-13-.39-25.7-.93-3.81-3.28-7.03-6.63-9.07-2.51-1.53-5.35-2.25-8.22-2.13.42-5.1.77-10.46,1.03-16.07.23-5.14.46-10.21.53-15.15,3.87.63,7.89-.14,11.26-2.19,3.88-2.26,6.73-6.04,7.82-10.4,1.1-4.22.47-8.58-1.49-12.25,1.59-1.39,2.95-3.01,4.01-4.81,9.84-1.14,18.77-7.18,23.32-16.21,4.82-9.56,4.12-21.03-1.81-29.94Z"/>
  </g>
  <g id="Bubus">
    <g>
      <path class="cls-3" d="M168.88,355.2c4.72,4.97,27.61,4.81,61.51,4.17,39.68-.75,56.23-3.42,56.25-7.37,0-6.57-29.97-6.49-56.54-6.43-39.93.1-66.23,4.34-61.22,9.63Z"/>
      <path class="cls-2" d="M233.53,169.86c-68.57,1.23-65.77,32.19-67.89,60.58-1.76,23.55,3.9,71.61,7.77,79.38,1.45,2.9,3.44,6.89,8,10.74-1.11,8.67-.69,11.31,1.46,22.33.71,3.65,3.96,6.31,7.67,6.3,4.26-.01,7.76-3.52,7.76-7.78,0-.49-.04-.98-.14-1.46-1.11-5.68-1.67-8.54-1.71-11.58,8.88,2.83,21.34,4.75,39.08,4.75,15.66,0,27.15-1.51,35.68-4.05.12,8.77-1.12,13.57-1.12,13.64-.2.7-.3,1.42-.3,2.14,0,4.26,3.51,7.77,7.76,7.77h.01l-.04-.04c3.44,0,6.49-2.29,7.45-5.6.32-1.11,2.7-10.05,1.43-25.55,6.69-5.57,9.23-12.5,11.24-19.37,3.05-10.44,7.25-32.83,8.65-63.62,2.02-44.56,1.4-69.97-72.78-68.57Z"/>
      <path class="cls-1" d="M178.95,256.63c-5.4,0-9.79,4.39-9.79,9.8,0,5.41,4.39,9.8,9.79,9.8,5.4,0,9.79-4.39,9.79-9.8,0-5.41-4.39-9.8-9.79-9.8Z"/>
      <path class="cls-1" d="M271.32,258.03c-6.18,0-11.19,5.02-11.19,11.2s5.02,11.2,11.19,11.2c6.18,0,11.2-5.02,11.2-11.2,0-6.18-5.03-11.2-11.2-11.2Z"/>
      <path class="cls-5" d="M178.95,204.85c-5.46,4.37-7,13.9-7,23.79,0,8.4,1.4,15.4,12.6,14,11.19-1.4,69.97-.94,90.97,1.4,12.59,1.4,12.59-27.99,5.59-37.79-8.28-11.59-46.05-10.9-61.58-9.8-19.59,1.4-33.58,2.8-40.58,8.4Z"/>
      <path class="cls-5" d="M205.59,190.25h.35s1.54-.1,1.54-.1q19.89-1.26,43.08-.63h2.42c.13,0,.26.01.39.01,3.02,0,5.51-2.49,5.51-5.51,0-3.03-2.49-5.51-5.51-5.51-.03,0-.06,0-.09,0h-2.42q-23.7-.64-44.09.64l-1.54.1c-2.87.2-5.12,2.62-5.12,5.5,0,3.01,2.47,5.49,5.47,5.51h.02Z"/>
      <path class="cls-1" d="M215.93,291.57c-6.48,1.18-10.56,8.66-9.1,16.7,1.47,8.04,7.92,13.6,14.39,12.42,6.48-1.18,10.56-8.66,9.1-16.7-1.47-8.04-7.92-13.6-14.39-12.42Z"/>
      <path class="cls-6" d="M315.52,183.1l1.6-6.28c.28-1.45.91-2.8,1.82-3.95.87-.85,2.02-1.38,3.22-1.51,1.19-.14,2.39-.16,3.58-.08,1.27.09,2.54.05,3.79-.13,1.83-.13,3.57-.81,5-1.96,1.34-1.2,2.26-2.79,2.66-4.54.46-1.75.15-3.61-.84-5.12-.97-1.62-2.56-2.78-4.39-3.23-1.61-.45-3.3-.51-4.94-.19-1.95.5-3.8,1.34-5.48,2.48l-1.17.72c-3.47,2.28-6.23,3.14-8.31,2.6-1.77-.42-3.27-1.61-4.09-3.25-.88-1.76-1.04-3.79-.47-5.67,1.23-4.51,4.65-8.01,10.28-10.49,5.72-2.45,12.11-2.86,18.1-1.15,6.34,1.45,11.86,5.36,15.35,10.86,4.38,6.53,4.9,14.95,1.36,21.97-4.04,8.02-12.63,12.76-21.57,11.91l-.13.26c-.52,2.59-1.92,4.93-3.95,6.61-2.37,1.6-5.43,1.79-7.98.5-1.41-.71-2.58-1.83-3.35-3.22-.87-2.3-.91-4.84-.1-7.16Z"/>
      <path class="cls-6" d="M308.78,204.53c.56-2.32,2.07-4.31,4.16-5.48,2.06-1.21,4.54-1.53,6.85-.87.61.16,1.2.38,1.75.66,3.75,1.89,5.69,6.18,4.61,10.24-.57,2.33-2.08,4.32-4.16,5.5-2.02,1.25-4.47,1.61-6.76.98-4.79-1.29-7.68-6.27-6.43-11.07l-.02.04Z"/>
      <path class="cls-4" d="M314.18,295.3c-.48,0-.96-.05-1.44-.16-3.6-.79-5.88-4.35-5.1-7.95.04-.17,1.66-8.1-.28-16.07-.87-3.59,1.33-7.2,4.91-8.08,3.59-.88,7.2,1.33,8.08,4.91,2.7,11.11.45,21.64.35,22.09-.69,3.12-3.45,5.25-6.52,5.25Z"/>
      <path class="cls-4" d="M152.56,295.3c-3.07,0-5.84-2.13-6.52-5.25-.1-.44-2.35-10.97.35-22.09.87-3.59,4.48-5.79,8.08-4.91,3.59.87,5.79,4.49,4.91,8.08-1.95,8.01-.3,15.98-.28,16.05.79,3.61-1.49,7.17-5.09,7.96-.48.11-.97.16-1.44.16Z"/>
    </g>
    <g>
      <path class="cls-5" d="M312.55,202.38c.11-.44.39-.81.79-1.03.39-.23.85-.28,1.29-.16.11.03.23.07.33.13.71.36,1.07,1.18.85,1.94-.11.44-.39.81-.78,1.03-.38.24-.85.3-1.28.18-.89-.25-1.43-1.19-1.19-2.09Z"/>
      <path class="cls-5" d="M312.75,150.58l-.3-.15c-.51-.43-.65-1.15-.35-1.74.05-.1.11-.19.17-.27,2.39-2.71,5.61-4.57,9.14-5.3.32-.07.66-.03.96.12.7.36.98,1.23.63,1.93-.19.38-.55.65-.96.74-2.93.6-5.59,2.13-7.57,4.37-.44.48-1.15.61-1.72.3Z"/>
    </g>
  </g>
</svg>