<?xml version="1.0" encoding="UTF-8"?>
<svg xmlns="http://www.w3.org/2000/svg" xmlns:xlink="http://www.w3.org/1999/xlink" viewBox="0 0 500 500">
  <defs>
    <style>
      .cls-1 {
        fill: url(#Dégradé_sans_nom_10-12);
      }

      .cls-1, .cls-2, .cls-3, .cls-4, .cls-5, .cls-6, .cls-7, .cls-8, .cls-9, .cls-10, .cls-11, .cls-12, .cls-13, .cls-14, .cls-15, .cls-16, .cls-17, .cls-18, .cls-19, .cls-20, .cls-21, .cls-22, .cls-23 {
        stroke-width: 0px;
      }

      .cls-2 {
        fill: url(#Dégradé_sans_nom_10-13);
      }

      .cls-3 {
        fill: url(#Dégradé_sans_nom_10-10);
      }

      .cls-4 {
        fill: url(#Dégradé_sans_nom_10-11);
      }

      .cls-5 {
        fill: url(#Dégradé_sans_nom_10-8);
      }

      .cls-6 {
        fill: url(#Dégradé_sans_nom_10-7);
      }

      .cls-7 {
        fill: url(#Dégradé_sans_nom_10-5);
      }

      .cls-8 {
        fill: url(#Dégradé_sans_nom_10-6);
      }

      .cls-9 {
        fill: url(#Dégradé_sans_nom_10-2);
      }

      .cls-10 {
        fill: url(#Dégradé_sans_nom_10-3);
      }

      .cls-11 {
        fill: url(#Dégradé_sans_nom_10-4);
      }

      .cls-12 {
        fill: url(#Dégradé_sans_nom_10-9);
      }

      .cls-13 {
        fill: #f8f8f8;
        opacity: .1;
      }

      .cls-14, .cls-15, .cls-16 {
        fill-rule: evenodd;
      }

      .cls-14, .cls-18 {
        fill: #343a41;
      }

      .cls-15 {
        fill: #869eb4;
      }

      .cls-16, .cls-20 {
        fill: #fff;
      }

      .cls-17 {
        fill: #4e3713;
      }

      .cls-19 {
        fill: #352000;
      }

      .cls-21 {
        fill: #ffac00;
      }

      .cls-22 {
        fill: #e9e2d7;
      }

      .cls-23 {
        fill: url(#Dégradé_sans_nom_10);
      }
    </style>
    <linearGradient id="Dégradé_sans_nom_10" data-name="Dégradé sans nom 10" x1="107.02" y1="263.32" x2="161.82" y2="263.32" gradientUnits="userSpaceOnUse">
      <stop offset="0" stop-color="#fff"/>
      <stop offset="0" stop-color="#e1e1e1"/>
      <stop offset="1" stop-color="#e1e1e1" stop-opacity="0"/>
    </linearGradient>
    <linearGradient id="Dégradé_sans_nom_10-2" data-name="Dégradé sans nom 10" x1="1250.23" y1="287.65" x2="1327.94" y2="309.64" gradientTransform="translate(1420.97) rotate(-180) scale(1 -1)" xlink:href="#Dégradé_sans_nom_10"/>
    <linearGradient id="Dégradé_sans_nom_10-3" data-name="Dégradé sans nom 10" x1="1250.54" y1="286.55" x2="1328.25" y2="308.54" gradientTransform="translate(1420.97) rotate(-180) scale(1 -1)" xlink:href="#Dégradé_sans_nom_10"/>
    <linearGradient id="Dégradé_sans_nom_10-4" data-name="Dégradé sans nom 10" x1="1251.47" y1="283.27" x2="1329.18" y2="305.27" gradientTransform="translate(1420.97) rotate(-180) scale(1 -1)" xlink:href="#Dégradé_sans_nom_10"/>
    <linearGradient id="Dégradé_sans_nom_10-5" data-name="Dégradé sans nom 10" x1="1252.77" y1="278.69" x2="1330.48" y2="300.68" gradientTransform="translate(1420.97) rotate(-180) scale(1 -1)" xlink:href="#Dégradé_sans_nom_10"/>
    <linearGradient id="Dégradé_sans_nom_10-6" data-name="Dégradé sans nom 10" x1="1255.04" y1="270.66" x2="1332.75" y2="292.65" gradientTransform="translate(1420.97) rotate(-180) scale(1 -1)" xlink:href="#Dégradé_sans_nom_10"/>
    <linearGradient id="Dégradé_sans_nom_10-7" data-name="Dégradé sans nom 10" x1="1252.07" y1="308.95" x2="1319.89" y2="328.15" gradientTransform="translate(1420.97) rotate(-180) scale(1 -1)" xlink:href="#Dégradé_sans_nom_10"/>
    <linearGradient id="Dégradé_sans_nom_10-8" data-name="Dégradé sans nom 10" x1="1252.8" y1="307.21" x2="1323.28" y2="327.15" gradientTransform="translate(1420.97) rotate(-180) scale(1 -1)" xlink:href="#Dégradé_sans_nom_10"/>
    <linearGradient id="Dégradé_sans_nom_10-9" data-name="Dégradé sans nom 10" x1="1254.3" y1="303.94" x2="1325.87" y2="324.19" gradientTransform="translate(1420.97) rotate(-180) scale(1 -1)" xlink:href="#Dégradé_sans_nom_10"/>
    <linearGradient id="Dégradé_sans_nom_10-10" data-name="Dégradé sans nom 10" x1="1255.92" y1="300.12" x2="1328.43" y2="320.64" gradientTransform="translate(1420.97) rotate(-180) scale(1 -1)" xlink:href="#Dégradé_sans_nom_10"/>
    <linearGradient id="Dégradé_sans_nom_10-11" data-name="Dégradé sans nom 10" x1="1261.38" y1="294.9" x2="1329.73" y2="314.25" gradientTransform="translate(1420.97) rotate(-180) scale(1 -1)" xlink:href="#Dégradé_sans_nom_10"/>
    <linearGradient id="Dégradé_sans_nom_10-12" data-name="Dégradé sans nom 10" x1="1258.04" y1="247.76" x2="1271.26" y2="251.5" gradientTransform="translate(1420.97) rotate(-180) scale(1 -1)" xlink:href="#Dégradé_sans_nom_10"/>
    <linearGradient id="Dégradé_sans_nom_10-13" data-name="Dégradé sans nom 10" x1="1231.16" y1="259.74" x2="1266.72" y2="269.8" gradientTransform="translate(1420.97) rotate(-180) scale(1 -1)" xlink:href="#Dégradé_sans_nom_10"/>
  </defs>
  <g id="stiker_style" data-name="stiker style">
    <path class="cls-20" d="M378.98,311.94c-.59-4.01-2.71-7.54-5.97-9.95-3.25-2.41-7.24-3.4-11.22-2.8-2.54.38-4.89,1.37-6.89,2.88,5.09-16.14,8.36-37.2,9.92-55.66,1.56-18.48,3.78-63.09-9.29-78.36-13.04-15.23-44.99-20.82-70.55-20.97-15.21-.1-29.78,1.6-42.17,4.88-14.53,3.85-25.27,9.65-31.93,17.24l-.12.14c-5.39,6.44-9.24,17.83-11.43,33.84-1.86,13.61-2.44,30.33-1.61,47.07.03.56.06,1.12.09,1.68-1.06-.65-2.2-1.29-3.43-1.88-.13-1.05-.28-2.08-.44-3.09l-.54-3.47c-1.17-7.46-7.51-12.88-15.06-12.88h-8.56l.02-5.77c0-1.08,0-2.16,0-3.24,0-1.79.29-3.79.6-5.9l.21-1.46c.07-.54.11-1.08.11-1.61,0-8.44-9.5-18.3-36.26-18.3s-36.26,9.86-36.26,18.3c0,1.1.15,2.2.45,3.26.75,2.68.84,5.85.82,8.88l-.33,37.47c-.06,7.91-.11,16.41-.1,25.01l-.02,18.72v.39c.03.47.01,1.19,0,1.94-.11,3.86-.28,10.25,4.78,14.38,3.97,3.69,8.79,5.4,13.01,6.58l.1.03c5.29,1.41,11.13,2.13,17.42,2.13h.21c6.45-.06,12.18-.8,17.54-2.29.52-.15,1.03-.3,1.55-.46.95-.17,1.85-.49,2.68-.95,1.86-.72,3.5-1.52,5.04-2.45,2.08-1.28,3.67-2.61,4.98-4.17,2.27-2.67,3.43-5.91,3.29-9.18l-.04-11.75h8.57c7.67,0,14.18-5.74,15.12-13.36l.43-3.43c2.56.23,5.07-.29,7.32-1.46.88,5.32,1.91,10.38,3.08,15.09,3.35,13.48,7.72,23.46,13,29.75-.28,4.88-.28,9.17,0,12.91-5.4,1.85-10.88,5.13-10.88,11.52,0,10.05,13.21,12.89,25.6,14.76,12.51,1.89,29.04,2.93,46.54,2.93s34.03-1.04,46.54-2.93c12.39-1.87,25.6-4.71,25.6-14.76,0-6.45-5.55-9.71-10.92-11.54.13-3.71-.05-7.44-.55-11.18,1.91-1.5,3.66-3.12,5.23-4.85,1.7-1.87,3.29-4.27,4.78-7.06.94,6.7-1.02,13.35-1.02,13.35-2.5,7.93,1.91,16.44,9.83,18.97,1.49.48,3.04.72,4.6.72,6.61,0,12.4-4.23,14.41-10.53.43-1.33,4.11-13.43,2.09-27.12ZM173.48,275.39c-.02.17-.04.33-.06.49l-.33,2.68h-3.57c0-2.47.01-4.93.02-7.37,1.04,1.57,2.37,2.99,3.94,4.19ZM169.64,253.04v-.84h.63c-.22.27-.43.55-.63.84Z"/>
  </g>
  <g id="Bubus">
    <path class="cls-18" d="M194.37,275.41c2.7.27,4.9-1.54,6.22-3.92h0c1.41-2.55,1.06-5.73-.92-7.86-2.9-3.1-8.01-7.12-16.02-8.92-3.96-.89-7.9,1.71-8.59,5.76-.64,3.72,1.88,7.34,5.56,8.18,6.89,1.58,8.81,3.34,10.31,4.4"/>
    <path class="cls-15" d="M278.38,341.5c-35.41,0-64.14,4.34-64.14,9.68s28.73,9.69,64.14,9.69c35.4,0,64.14-4.35,64.14-9.69,0-5.34-28.74-9.68-64.14-9.68Z"/>
    <path class="cls-18" d="M234.57,352.52c-3.79,0-7.27-2.51-8.34-6.34-1.32-4.72-1.65-11.77-1.01-20.95.31-4.42.74-7.71.76-7.85.63-4.74,4.99-8.09,9.72-7.45,4.74.63,8.08,4.98,7.45,9.72h0s-.38,2.93-.66,6.79c-.71,10.07.14,14.09.41,15.08,1.28,4.61-1.41,9.39-6.02,10.67-.78.22-1.56.32-2.33.32Z"/>
    <path class="cls-18" d="M321.95,355.97c-.59,0-1.2-.06-1.8-.19-4.68-.99-7.67-5.59-6.68-10.27,2.98-14.07-2.86-25.57-2.91-25.68-2.26-4.22-.65-9.44,3.57-11.7,4.22-2.25,9.48-.64,11.74,3.58.36.68,8.89,16.96,4.56,37.39-.86,4.07-4.46,6.87-8.47,6.87Z"/>
    <path class="cls-14" d="M216.91,174.46c23.33-26.61,112.44-24.72,132.55-1.23,16.75,19.57,6.68,125.4-11.11,145-24.42,26.9-94.39,13.34-108.18,8.38-26.83-8.06-32.93-128.66-13.27-152.15Z"/>
    <path class="cls-16" d="M220.46,198.01c17.77-10.38,87.43-13.71,106.79-.87,10.65,7.07,12.29,45.78-.37,44.16-29.49-3.81-91.1-3.54-108.64-1.61-8.77.97-8.73-35.29,2.22-41.68Z"/>
    <path class="cls-20" d="M240.21,182.58c-3.23,0-6.16-2.21-6.94-5.49-.91-3.83,1.46-7.68,5.3-8.59,33.18-7.86,64.49-1.83,65.8-1.57,3.86.77,6.38,4.52,5.61,8.38-.77,3.86-4.52,6.38-8.38,5.61-.38-.07-29.72-5.66-59.75,1.45-.55.13-1.11.19-1.65.19Z"/>
    <path class="cls-18" d="M362.48,341.59c-.72,0-1.45-.11-2.17-.34-3.75-1.2-5.82-5.2-4.63-8.94.04-.14,2.56-8.42,1.28-17.11-.58-3.9,2.12-7.52,6.01-8.1,3.89-.58,7.52,2.11,8.1,6.01,1.79,12.09-1.65,23.05-1.79,23.51-.97,3.03-3.77,4.97-6.79,4.97Z"/>
    <path class="cls-20" d="M250.72,290.87l12.27,11.22c2.37,2.17,6.01,2.17,8.38,0l16.99-15.58c.81-.75.19-2.1-.9-1.97l-36.1,4.37c-.96.12-1.35,1.31-.63,1.97Z"/>
    <path class="cls-16" d="M227,251.03c6.55,0,11.87,5.32,11.87,11.87s-5.32,11.86-11.87,11.86-11.86-5.31-11.86-11.86,5.31-11.87,11.86-11.87Z"/>
    <circle class="cls-20" cx="313.79" cy="262.9" r="10.79"/>
    <path class="cls-13" d="M107.59,211.95c0-4.69,12.03-8.49,26.88-8.49,14.85,0,26.88,3.8,26.88,8.49,0,.14-.01.27-.03.4.01.12.03.23.03.36v66.05s0,18.25,0,18.25v15.1s-.01.06-.01.09c0,.08.01.15.01.23,0,5.81-12.03,10.53-26.88,10.53s-26.88-4.71-26.88-10.53c0-.08.01-.15.01-.23,0-.03-.01-.06-.01-.09v-15.1s0-18.25,0-18.25v-66.05c0-.12.02-.24.03-.36-.02-.13-.03-.27-.03-.4Z"/>
    <path class="cls-23" d="M107.53,211.95c0-1.31.91-2.39,1.87-3.15.97-.79,2.1-1.38,3.23-1.89,2.29-1,4.71-1.66,7.15-2.18,4.89-1.01,9.89-1.46,14.88-1.5,4.99-.03,10.01.33,14.93,1.32,2.46.5,4.89,1.18,7.21,2.22,1.16.53,2.28,1.16,3.28,2.02.5.43.95.94,1.28,1.56.33.61.5,1.36.39,2.08v-.12c.1,4.27.03,8.35.04,12.53l-.04,12.48-.19,24.96c-.02,8.32-.1,16.64-.04,24.96l.08,25v-.05c.1,1.39-.53,2.74-1.4,3.74-.86,1.03-1.94,1.83-3.06,2.52-2.26,1.36-4.73,2.27-7.24,2.97-5.03,1.39-10.25,1.94-15.45,1.99-5.2.01-10.43-.51-15.49-1.86-2.52-.69-5.02-1.57-7.31-2.93-1.14-.69-2.24-1.48-3.14-2.54-.9-1.03-1.57-2.43-1.48-3.91v.1s-.02-.17-.02-.17v-.1s0-.19,0-.19v-.39s0-.78,0-.78v-1.56s0-3.12,0-3.12v-6.24s.02-12.48.02-12.48c0-8.32.04-16.64.1-24.96l.24-24.96.18-24.97h0s-.03-.4-.03-.4ZM107.64,211.95l.03.4h0s0,.01,0,.01c-.02,8.3.02,16.64.11,24.95l.24,24.96c.06,8.32.11,16.64.1,24.96l.02,24.89v.1c-.07,1.13.43,2.24,1.21,3.15.77.93,1.79,1.68,2.85,2.33,2.15,1.3,4.58,2.18,7.03,2.86,4.93,1.35,10.09,1.87,15.22,1.92,5.13.01,10.3-.47,15.26-1.79,2.47-.66,4.91-1.53,7.1-2.82,1.09-.65,2.12-1.4,2.93-2.35.82-.93,1.37-2.11,1.3-3.32v-.05s.12-24.92.12-24.92c.05-8.32-.02-16.64-.04-24.96l-.19-24.96-.07-24.91v-.11s0-.01,0-.01c.17-1.04-.48-2.08-1.35-2.85-.88-.78-1.95-1.39-3.05-1.91-2.22-1.02-4.61-1.69-7.02-2.25-4.83-1.07-9.81-1.53-14.77-1.59-4.97-.04-9.96.27-14.84,1.24-2.43.5-4.85,1.14-7.13,2.12-1.13.5-2.25,1.07-3.22,1.84-.95.75-1.83,1.79-1.84,3.05Z"/>
    <g>
      <path class="cls-21" d="M112.56,221.23h43.82c2.74,0,4.97,2.23,4.97,4.97v54.19h-53.76v-54.19c0-2.74,2.23-4.97,4.97-4.97Z" transform="translate(268.93 501.63) rotate(-180)"/>
      <rect class="cls-21" x="110.02" y="274.86" width="48.89" height="27.04" rx="4.97" ry="4.97" transform="translate(268.93 576.76) rotate(-180)"/>
      <rect class="cls-21" x="112.46" y="286.8" width="44.01" height="24.34" rx="4.97" ry="4.97" transform="translate(268.93 597.94) rotate(-180)"/>
    </g>
    <g>
      <path class="cls-19" d="M122.81,249.34s2.58-7.24,10.77-6.15c0,0-1.06,7.2-10.77,6.15Z"/>
      <path class="cls-19" d="M130.96,253.13c-1.44,2.48-6.46,3.06-6.46,3.06v-5.3h5.19s1.27,2.24,1.27,2.24Z"/>
      <path class="cls-19" d="M131.72,260.41l-2.74,1.97c-.89-.46-2.66-4.68-2.66-4.68l2.83-1.7,2.58,4.41Z"/>
      <path class="cls-19" d="M132.9,261.73c.84-.31,1.56,1.01,1.56,1.01h0s.72-1.33,1.56-1.02c.84.31,2.58.89.89,3.37-1.69,2.48-2.45,2.75-2.45,2.75h0s-.76-.26-2.45-2.74c-1.69-2.48.04-3.06.89-3.37Z"/>
      <path class="cls-19" d="M131.3,254.22c.64-.5,3.16,2.32,3.16,2.32h0s2.52-2.84,3.16-2.33-.42,4.1-3.16,6.66h0c-2.74-2.55-3.8-6.14-3.16-6.65Z"/>
      <path class="cls-19" d="M135.35,243.18c8.19-1.08,10.77,6.15,10.77,6.15-9.71,1.05-10.77-6.15-10.77-6.15Z"/>
      <path class="cls-19" d="M137.97,253.12l1.27-2.25h5.19v5.3s-5.02-.58-6.46-3.06Z"/>
      <path class="cls-19" d="M139.79,255.99l2.83,1.7s-1.77,4.22-2.66,4.68l-2.74-1.97,2.58-4.41Z"/>
      <path class="cls-19" d="M137.81,249.83s.2,1.7-3.34,4.8h0c-3.55-3.09-3.34-4.79-3.34-4.79,2.95-1.35,3.34-5.15,3.34-5.15h0s.39,3.78,3.34,5.14Z"/>
    </g>
    <path class="cls-21" d="M112.46,309.66c0,4.28,9.85,7.76,22,7.76,12.15,0,22-3.47,22-7.76"/>
    <path class="cls-17" d="M112.46,309.66c.63,3.93,6.55,5.2,9.83,6.04,9.1,1.85,25.01,2.17,32.73-3.46.74-.67,1.4-1.53,1.45-2.58.06,1.06-.54,2.04-1.26,2.79-7.56,6.51-23.81,6.33-33.11,4.05-3.33-.99-9.4-2.69-9.64-6.83h0Z"/>
    <path class="cls-17" d="M110.02,298.54c.64,4.34,7.3,5.84,10.91,6.76,4.44.95,8.99,1.36,13.54,1.33,6.76-.05,13.75-.66,19.99-3.42,1.94-.94,4.24-2.3,4.46-4.67.03,2.44-2.32,4.04-4.22,5.13-10.2,4.88-23.07,4.88-33.95,2.42-3.7-1.09-10.43-2.96-10.72-7.55h0Z"/>
    <path class="cls-17" d="M107.59,265.38c.64,4.75,8.05,6.47,11.99,7.47,4.88,1.05,9.89,1.51,14.9,1.47,7.44-.06,15.14-.73,21.99-3.79,2.13-1.04,4.67-2.54,4.89-5.16.02,2.68-2.56,4.43-4.66,5.62-11.08,5.31-25.49,5.33-37.31,2.64-4.03-1.17-11.49-3.26-11.8-8.26h0Z"/>
    <g>
      <path class="cls-17" d="M107.59,225.34c0,5.23,12.03,9.47,26.88,9.47,14.85,0,26.88-4.24,26.88-9.47v-9.47c0-5.23-12.03-9.47-26.88-9.47-14.85,0-26.88,4.24-26.88,9.47v9.47Z"/>
      <path class="cls-22" d="M107.59,224.76c0,5.23,12.03,9.47,26.88,9.47,14.85,0,26.88-4.24,26.88-9.47v-9.47c0-5.23-12.03-9.47-26.88-9.47s-26.88,4.24-26.88,9.47v9.47Z"/>
    </g>
    <path class="cls-17" d="M134.47,222.91c-15.85,0-28.26-4.52-28.26-10.3s12.41-10.3,28.26-10.3,28.26,4.52,28.26,10.3-12.41,10.3-28.26,10.3ZM134.47,203.37c-14.74,0-27.2,4.23-27.2,9.24s12.46,9.24,27.2,9.24,27.2-4.23,27.2-9.24-12.46-9.24-27.2-9.24Z"/>
    <g>
      <path class="cls-9" d="M161.32,279.99c-3.37.29-7.46,1.46-8.97,4.83.27,2.08-.07,4.17-.32,6.24-.32,3.44-.36,6.88.12,10.31.07.65.37,1.75-.42,2.06,0,0,0,.17,0,.17.24.05.54-.01.75-.2.58-.47.74-1.5.79-2.03.57-4.11.43-8.27-.13-12.37-.17-1.37-.23-2.75-.07-4.12l-.04.16c.97-1.18,2.66-1.65,3.96-2.47,0,0,2.18-1.15,2.18-1.15.73-.4,1.47-.79,2.2-1.26l-.05-.17h0Z"/>
      <path class="cls-10" d="M152.73,285.29c-3.43-1.45-8.32-1.94-11.37.57-1.01.9-1.69,2.16-1.83,3.56-.34,2.53-.46,5.08-.45,7.62.08,2.54.28,5.08.84,7.62h.17c1.06-5.06,1.02-10.16.39-15.25-.19-1.16.28-2.43,1.24-3.13,1.01-.78,2.28-.56,3.47-.6,2.51-.06,4.96-.11,7.51-.23,0,0,.04-.17.04-.17h0Z"/>
      <path class="cls-11" d="M140.07,288.11c-.53-1.06-1.17-2.04-1.85-3l-.33-.03c-2.41-.26-4.8-.22-7.19.19-1.28.08-2.63.32-3.46,1.4-.83.84-.9,2.5-1.08,3.62-.27,2.38-.49,4.78-.49,7.17.03,2.4.14,4.8.57,7.21h.17c1.26-5.3,1.38-10.74.92-16.14-.11-1.98,1.59-2.84,3.37-2.42,2.39.41,4.78.45,7.19.19,0,0-.46-.21-.46-.21.79.76,1.61,1.5,2.51,2.14l.13-.11h0Z"/>
      <path class="cls-7" d="M126.4,288.12c-.32-1.13-.77-2.2-1.26-3.26-1.22-.45-2.45-.85-3.7-1.17-1.21-.24-2.49-.6-3.73-.36-1.31.32-2.35,1.34-2.69,2.63-.21,1.12-.28,2.52-.44,3.63-.19,2.38-.32,4.76-.24,7.14.1,1.26-.03,2.61.61,3.78.66,1.24,1.99,2.04,3.24,1.98l.03-.17c-1.63-.73-2.4-2.17-2.18-3.81.14-1.78.17-3.57.08-5.35-.06-1.19-.09-2.38-.21-3.57-.07-1.01-.39-2.52-.3-3.5.15-1.35,1.69-2.31,2.95-1.77l.8.32c1.67.67,3.43,1,5.19,1.31l-.37-.29c.64.9,1.31,1.76,2.08,2.56,0,0,.15-.09.15-.09h0Z"/>
      <path class="cls-8" d="M115.33,286.62c.36-2.6-.46-6.43-3.56-6.89-.95-.2-2.15-.53-2.55-1.5l-.71-2.13c.2,2.29.22,4.73-.15,7-.53,4.83-.53,9.7.49,14.47h.17c.36-1.61.55-3.22.69-4.82.27-3.22.15-6.44-.2-9.65-.21-1.61-.38-3.22-.28-4.82l-.58.04c.12.58.39,1.01.76,1.43.53.6,1.2,1.03,1.92,1.34.64.22,1,.37,1.48.83,1.14,1.24,1.72,3.08,2.35,4.71h.17Z"/>
    </g>
    <g>
      <path class="cls-6" d="M161.32,304.58c-3.37.2-7.46,1.01-8.97,3.32.27,1.43-.07,2.87-.32,4.29-.32,2.36-.36,4.73.12,7.09.07.45.37,1.21-.42,1.42,0,0,0,.12,0,.12.24.04.54,0,.75-.14.58-.32.74-1.03.79-1.4.57-2.83.43-5.69-.13-8.51-.17-.95-.23-1.89-.07-2.84l-.04.11c.97-.81,2.66-1.14,3.96-1.7,0,0,2.18-.79,2.18-.79.73-.27,1.47-.55,2.2-.87l-.05-.11h0Z"/>
      <path class="cls-5" d="M152.73,308.22c-3.43-1-8.32-1.34-11.37.39-1.01.62-1.69,1.49-1.83,2.45-.34,1.74-.46,3.49-.45,5.24.08,1.75.28,3.5.84,5.24h.17c1.06-3.48,1.02-6.99.39-10.49-.19-.8.28-1.67,1.24-2.16,1.01-.54,2.28-.39,3.47-.41,2.51-.04,4.96-.08,7.51-.16l.04-.12h0Z"/>
      <path class="cls-12" d="M140.07,310.16c-.53-.73-1.17-1.4-1.85-2.06l-.33-.02c-2.41-.18-4.8-.15-7.19.13-1.28.05-2.63.22-3.46.96-.83.58-.9,1.72-1.08,2.49-.27,1.64-.49,3.29-.49,4.94.03,1.65.14,3.3.57,4.96h.17c1.26-3.65,1.38-7.39.92-11.1-.11-1.36,1.59-1.96,3.37-1.66,2.39.28,4.78.31,7.19.13,0,0-.46-.15-.46-.15.79.52,1.61,1.03,2.51,1.47l.13-.08h0Z"/>
      <path class="cls-3" d="M126.4,310.17c-.32-.78-.77-1.51-1.26-2.24-1.22-.31-2.45-.58-3.7-.8-1.21-.16-2.49-.41-3.73-.25-1.31.22-2.35.92-2.69,1.81-.21.77-.28,1.73-.44,2.49-.19,1.63-.32,3.27-.24,4.91.1.87-.03,1.8.61,2.6.66.86,1.99,1.4,3.24,1.36l.03-.12c-1.63-.5-2.4-1.49-2.18-2.62.14-1.23.17-2.45.08-3.68-.06-.82-.09-1.64-.21-2.46-.07-.69-.39-1.73-.3-2.41.15-.93,1.69-1.59,2.95-1.22l.8.22c1.67.46,3.43.69,5.19.9l-.37-.2c.64.62,1.31,1.21,2.08,1.76l.15-.06h0Z"/>
      <path class="cls-4" d="M115.33,309.14c.36-1.79-.46-4.42-3.56-4.74-.95-.14-2.15-.36-2.55-1.03l-.71-1.47c.2,1.57.22,3.25-.15,4.82-.53,3.32-.53,6.67.49,9.96h.17c.36-1.11.55-2.21.69-3.32.27-2.21.15-4.43-.2-6.64-.21-1.11-.38-2.21-.28-3.32l-.58.03c.12.4.39.7.76.99.53.41,1.2.71,1.92.92.64.15,1,.26,1.48.57,1.14.85,1.72,2.12,2.35,3.24h.17Z"/>
    </g>
    <path class="cls-1" d="M156.31,224.41s5.39,30.83,0,50.44c0,0-4.69-42.88,0-50.44Z"/>
    <path class="cls-2" d="M160.58,292.17h17.57c3.65,0,6.74-2.72,7.19-6.35l1.17-9.39c1.17-9.39,1.02-18.91-.45-28.26l-.54-3.46c-.55-3.52-3.59-6.12-7.15-6.12h-17.77s.63,5.61.63,5.61h14.05c2.82,0,5.22,2.05,5.66,4.84h0c1.45,9.21,1.6,18.58.45,27.84l-.58,4.68c-.36,2.87-2.79,5.02-5.68,5.02h-13.89s-.63,5.61-.63,5.61Z"/>
    <path class="cls-18" d="M178.08,255.99s5.63.84,7.74,1.52c2.49.8,2.99,14.55-2.69,13.6-5.68-.95-12.19-7.49-5.05-15.12Z"/>
  </g>
</svg>