<?xml version="1.0" encoding="UTF-8"?>
<svg xmlns="http://www.w3.org/2000/svg" viewBox="0 0 500 500">
  <defs>
    <style>
      .cls-1, .cls-2, .cls-3, .cls-4, .cls-5, .cls-6, .cls-7 {
        stroke-width: 0px;
      }

      .cls-1, .cls-2, .cls-3, .cls-4, .cls-7 {
        fill-rule: evenodd;
      }

      .cls-1, .cls-5 {
        fill: #343a41;
      }

      .cls-2 {
        fill: #869eb4;
      }

      .cls-3 {
        fill: #ffac00;
      }

      .cls-4, .cls-6 {
        fill: #fff;
      }

      .cls-7 {
        fill: #1e2021;
        opacity: .3;
      }
    </style>
  </defs>
  <g id="stiker_style" data-name="stiker style">
    <path class="cls-6" d="M349.82,228.14c-.02-1.36-.1-2.67-.24-3.95l-.09-.58c-7.2-37.89-23.61-59.91-38.69-72.55,3.82-2.34,6.58-3.18,8.09-3.08,4.05.29,7.6-2.37,8.5-6.31.89-3.93-1.18-7.86-4.94-9.35-2.6-1.02-7.91-2.57-14.27-1.45-4.27.75-9.93,2.9-15.14,8.59-15.75-7.74-33.35-10.43-51.33-7.79-12.79,1.88-25.03,6.32-36.17,13.08.35-.89.7-1.74,1.05-2.54,1.56-3.58.36-7.79-2.85-10.01-3.22-2.22-7.59-1.86-10.41.89-3.71,3.64-6.34,7.18-8.15,10.55-2.31-2.9-6.33-3.9-9.74-2.38-3.57,1.59-5.53,5.51-4.65,9.35,1.85,7.96,4.92,13.45,8.25,17.23-11.67,14.2-23.53,36-25.7,67.15-3.94.96-7.52,3.05-10.48,6.19-2.77,2.93-3.09,7.45-.76,10.74.66.94,1.49,1.71,2.42,2.29-1.54,4.66-1.63,9.42-.83,13.5.8,3.98,4.33,6.77,8.36,6.56,1.25-.05,2.43-.38,3.47-.93.25,1.4.51,2.81.79,4.21l.19.75c6.91,22.72,2.59,30.68-.55,36.5-3.92,7.25-6.59,14.67,3.75,25.69,3.75,3.99,13.5,7.4,24.27,10.11-.1.57-.15,1.16-.15,1.79,0,9.85,12.68,12.59,24.57,14.38,11.84,1.79,27.49,2.78,44.06,2.78s32.21-.99,44.06-2.78c11.89-1.8,24.57-4.54,24.57-14.38,0-.26,0-.51-.03-.76,2.14-.91,4.15-1.88,6.04-2.93.12.04.25.08.37.12,1.46.47,2.96.7,4.49.7,6.44,0,12.08-4.12,14.04-10.25.41-1.27,3.92-12.79,1.99-25.84-.11-.72-.27-1.44-.49-2.16-.86-7.6-3.74-15.98-8.58-24.93l-.16-.27c-2.85-4.8.95-16.36,4.31-26.56.23-.7.46-1.41.69-2.11,1.29,2.14,3.54,3.63,6.19,3.9,4.03.4,7.7-2.15,8.72-6.08,2.13-8.16.7-19.09-8.82-27.06Z"/>
  </g>
  <g id="Bubus">
    <g>
      <path class="cls-3" d="M342.42,225.29c-27.54-144.85-206.62-93.7-177.5,50.85,14.22,46.78-14.88,41.71,1.38,59.04,12.55,13.38,216.39,47.65,166.33-44.85-8.64-14.58,12.24-43.77,9.79-65.03Z"/>
      <path class="cls-3" d="M342.42,225.29c-27.54-144.85-206.62-93.7-177.5,50.85,14.22,46.78-14.88,41.71,1.38,59.04,12.55,13.38,216.39,47.65,166.33-44.85-8.64-14.58,12.24-43.77,9.79-65.03Z"/>
      <path class="cls-7" d="M253.21,343.4c-33.47,0-60.63,4.1-60.63,9.15s27.16,9.16,60.63,9.16c33.46,0,60.63-4.11,60.63-9.16s-27.17-9.15-60.63-9.15Z"/>
      <path class="cls-5" d="M211.8,352.03c-3.58,0-6.87-2.37-7.88-5.99-1.25-4.47-1.57-11.13-.95-19.81.29-4.18.7-7.29.72-7.42.59-4.48,4.72-7.64,9.2-7.04,4.48.6,7.63,4.71,7.04,9.2-.01.11-.37,2.83-.62,6.42-.67,9.52.13,13.32.39,14.26,1.22,4.36-1.33,8.87-5.69,10.09-.74.21-1.48.3-2.21.3Z"/>
      <path class="cls-5" d="M294.4,355.29c-.56,0-1.13-.06-1.7-.18-4.42-.94-7.25-5.28-6.31-9.71,2.82-13.3-2.7-24.17-2.76-24.28-2.13-3.99-.61-8.93,3.37-11.06,3.99-2.13,8.96-.6,11.09,3.38.34.65,8.4,16.03,4.31,35.35-.82,3.85-4.22,6.49-8,6.49Z"/>
      <path class="cls-1" d="M195.1,183.71c22.05-25.15,106.29-23.37,125.3-1.16,15.83,18.5,6.31,118.54-10.5,137.07-23.08,25.43-89.23,12.61-102.26,7.92-25.36-7.62-31.13-121.62-12.54-143.83Z"/>
      <path class="cls-4" d="M205.84,195.31c16.8-9.81,82.65-12.96,100.95-.82,10.07,6.68,11.62,43.28-.35,41.74-27.88-3.6-86.12-3.35-102.7-1.52-8.29.92-8.25-33.36,2.1-39.4Z"/>
      <path class="cls-6" d="M217.14,191.39c-3.05,0-5.82-2.09-6.56-5.19-.86-3.62,1.38-7.26,5.01-8.12,31.37-7.43,60.96-1.73,62.2-1.48,3.65.72,6.03,4.27,5.31,7.92-.72,3.65-4.27,6.03-7.92,5.31-.35-.07-28.1-5.35-56.48,1.38-.52.12-1.05.18-1.56.18Z"/>
      <path class="cls-5" d="M332.71,341.69c-.68,0-1.37-.1-2.05-.32-3.54-1.13-5.5-4.91-4.38-8.46.05-.17,2.42-7.98,1.21-16.17-.54-3.68,2-7.11,5.68-7.66,3.68-.55,7.11,2,7.66,5.68,1.69,11.43-1.56,21.79-1.7,22.23-.92,2.87-3.57,4.69-6.42,4.69Z"/>
      <path class="cls-5" d="M180.47,339.95c-2.08,0-4.03-1.27-4.8-3.34-3.9-10.46-2.93-20.91-2.89-21.35.28-2.82,2.78-4.88,5.6-4.6,2.81.28,4.87,2.78,4.6,5.59h0c0,.08-.76,8.61,2.29,16.78.99,2.65-.36,5.6-3.01,6.59-.59.22-1.19.32-1.79.32Z"/>
      <circle class="cls-6" cx="219.93" cy="274.85" r="2.79"/>
      <circle class="cls-6" cx="281.12" cy="274.85" r="2.79"/>
      <path class="cls-4" d="M233.77,314.33s10.09-4.73,19.72-3.03l6.36,1.33-26.08,1.7Z"/>
      <path class="cls-3" d="M306.65,164.02c-21.89-17.46-48.8-20.12-60.11-5.94-.39.49-.76,1-1.1,1.52-10.37-1.79-22.81-.53-35.18,4.24-26.13,10.07-42.02,31.95-35.5,48.87,6.52,16.93,32.99,22.49,59.11,12.42,10.07-3.88,18.61-9.52,24.94-15.95,2.12,2.15,4.4,4.22,6.87,6.19,21.89,17.46,48.8,20.12,60.11,5.94,11.31-14.18,2.74-39.83-19.15-57.29Z"/>
      <path class="cls-3" d="M293.12,156.09s16.61-17.51,27.91-15.81c0,0-17.98-9.04-27.91,15.81Z"/>
      <path class="cls-3" d="M332.95,228.23s19.01,14.87,18.4,26.27c0,0,7.28-18.76-18.4-26.27Z"/>
      <path class="cls-3" d="M172.55,242.32s-19.89,13.66-19.99,25.08c0,0-6.1-19.17,19.99-25.08Z"/>
      <path class="cls-3" d="M174.21,248.77s-19.63-5.82-26.51.35c0,0,7.93-14.54,26.51-.35Z"/>
      <path class="cls-3" d="M179.12,147.99s13.37,20.09,24.79,20.35c0,0-19.26,5.83-24.79-20.35Z"/>
      <path class="cls-3" d="M200.43,138.29s-10.2,21.87-4.48,31.76c0,0-15-13.41,4.48-31.76Z"/>
      <path class="cls-2" d="M253.21,343.4c-33.47,0-60.63,4.1-60.63,9.15s27.16,9.16,60.63,9.16c33.46,0,60.63-4.11,60.63-9.16s-27.17-9.15-60.63-9.15Z"/>
      <path class="cls-5" d="M211.8,352.03c-3.58,0-6.87-2.37-7.88-5.99-1.25-4.47-1.57-11.13-.95-19.81.29-4.18.7-7.29.72-7.42.59-4.48,4.72-7.64,9.2-7.04,4.48.6,7.63,4.71,7.04,9.2-.01.11-.37,2.83-.62,6.42-.67,9.52.13,13.32.39,14.26,1.22,4.36-1.33,8.87-5.69,10.09-.74.21-1.48.3-2.21.3Z"/>
      <path class="cls-5" d="M294.4,355.29c-.56,0-1.13-.06-1.7-.18-4.42-.94-7.25-5.28-6.31-9.71,2.82-13.3-2.7-24.17-2.76-24.28-2.13-3.99-.61-8.93,3.37-11.06,3.99-2.13,8.96-.6,11.09,3.38.34.65,8.4,16.03,4.31,35.35-.82,3.85-4.22,6.49-8,6.49Z"/>
      <path class="cls-1" d="M195.1,183.71c22.05-25.15,106.29-23.37,125.3-1.16,15.83,18.5,6.31,118.54-10.5,137.07-23.08,25.43-89.23,12.61-102.26,7.92-25.36-7.62-31.13-121.62-12.54-143.83Z"/>
      <path class="cls-4" d="M205.84,195.31c16.8-9.81,82.65-12.96,100.95-.82,10.07,6.68,11.62,43.28-.35,41.74-27.88-3.6-86.12-3.35-102.7-1.52-8.29.92-8.25-33.36,2.1-39.4Z"/>
      <path class="cls-6" d="M217.14,191.39c-3.05,0-5.82-2.09-6.56-5.19-.86-3.62,1.38-7.26,5.01-8.12,31.37-7.43,60.96-1.73,62.2-1.48,3.65.72,6.03,4.27,5.31,7.92-.72,3.65-4.27,6.03-7.92,5.31-.35-.07-28.1-5.35-56.48,1.38-.52.12-1.05.18-1.56.18Z"/>
      <path class="cls-5" d="M332.71,341.69c-.68,0-1.37-.1-2.05-.32-3.54-1.13-5.5-4.91-4.38-8.46.05-.17,2.42-7.98,1.21-16.17-.54-3.68,2-7.11,5.68-7.66,3.68-.55,7.11,2,7.66,5.68,1.69,11.43-1.56,21.79-1.7,22.23-.92,2.87-3.57,4.69-6.42,4.69Z"/>
      <path class="cls-5" d="M180.47,339.95c-2.08,0-4.03-1.27-4.8-3.34-3.9-10.46-2.93-20.91-2.89-21.35.28-2.82,2.78-4.88,5.6-4.6,2.81.28,4.87,2.78,4.6,5.59h0c0,.08-.76,8.61,2.29,16.78.99,2.65-.36,5.6-3.01,6.59-.59.22-1.19.32-1.79.32Z"/>
      <circle class="cls-6" cx="219.93" cy="274.85" r="2.79"/>
      <circle class="cls-6" cx="281.12" cy="274.85" r="2.79"/>
      <path class="cls-4" d="M233.77,314.33s10.09-4.73,19.72-3.03l6.36,1.33-26.08,1.7Z"/>
      <path class="cls-3" d="M306.65,164.02c-21.89-17.46-48.8-20.12-60.11-5.94-.39.49-.76,1-1.1,1.52-10.37-1.79-22.81-.53-35.18,4.24-26.13,10.07-42.02,31.95-35.5,48.87,6.52,16.93,32.99,22.49,59.11,12.42,10.07-3.88,18.61-9.52,24.94-15.95,2.12,2.15,4.4,4.22,6.87,6.19,21.89,17.46,48.8,20.12,60.11,5.94,11.31-14.18,2.74-39.83-19.15-57.29Z"/>
      <path class="cls-3" d="M293.12,156.09s16.61-17.51,27.91-15.81c0,0-17.98-9.04-27.91,15.81Z"/>
      <path class="cls-3" d="M332.95,228.23s19.01,14.87,18.4,26.27c0,0,7.28-18.76-18.4-26.27Z"/>
      <path class="cls-3" d="M172.55,242.32s-19.89,13.66-19.99,25.08c0,0-6.1-19.17,19.99-25.08Z"/>
      <path class="cls-3" d="M174.21,248.77s-19.63-5.82-26.51.35c0,0,7.93-14.54,26.51-.35Z"/>
      <path class="cls-3" d="M179.12,147.99s13.37,20.09,24.79,20.35c0,0-19.26,5.83-24.79-20.35Z"/>
      <path class="cls-3" d="M200.43,138.29s-10.2,21.87-4.48,31.76c0,0-15-13.41,4.48-31.76Z"/>
    </g>
  </g>
</svg>