<?xml version="1.0" encoding="UTF-8"?>
<svg xmlns="http://www.w3.org/2000/svg" viewBox="0 0 500 500">
  <defs>
    <style>
      .cls-1 {
        fill: #282c33;
      }

      .cls-1, .cls-2, .cls-3 {
        stroke-width: 0px;
      }

      .cls-2 {
        fill: #869eb4;
      }

      .cls-3 {
        fill: #fff;
      }
    </style>
  </defs>
  <g id="stiker_style" data-name="stiker style">
    <path class="cls-3" d="M356.32,145.17c-2.4-2.81-5.75-4.51-9.44-4.8-3.69-.28-7.26.88-10.07,3.28-2.78,2.38-4.48,5.69-4.79,9.28-.07.51-.78,5.31-4.3,12.91-.08.18-.14.37-.22.55-8.07-18-26.71-32.26-75.22-30.11-36.75,1.6-58.36,8.38-70.05,21.99-4.22,4.92-6.92,10.46-8.56,16.46-1.28-2.44-2.94-6.04-4.57-10.9-1.25-3.74-3.89-6.77-7.42-8.52-3.53-1.76-7.53-2.03-11.27-.78-7.72,2.59-11.89,10.98-9.3,18.69,5.09,15.18,10.75,22.51,11.8,23.78,2.76,3.4,6.86,5.39,11.24,5.46l7.61.12c.37,6.02,1.04,12.23,1.72,18.53,3.37,31.19,9.2,55.27,13.54,67.44,2.24,6.18,5.11,13.13,11.12,19.18-.49,12.84,1.36,20.58,1.77,22.13.31,1.14.74,2.21,1.27,3.23-5.08,2.38-9.05,5.92-9.05,11.37,0,11.49,17.67,14.52,26.16,15.98,13.02,2.24,30.23,3.47,48.47,3.47s35.45-1.23,48.47-3.47c8.49-1.46,26.16-4.5,26.16-15.98,0-9.24-11.43-13.01-20.33-14.89.47-1.2.81-2.47.98-3.8l.2-1.53c1.09-8.43,1.2-9.94.95-21.98,4.86-5.04,6.99-9.99,8.35-13.17,4.64-10.82,6.73-63.84,3.44-87.25-.25-1.86-.48-3.73-.71-5.6-.53-4.31-1.09-8.79-1.91-13.26,2.23,1.56,4.87,2.42,7.65,2.47.08,0,.16,0,.24,0,5.38,0,10.29-3.13,12.55-8.03,5.78-12.5,6.64-20.71,6.75-22.21.29-3.68-.88-7.26-3.28-10.07ZM231.55,326.71c.1-1.66-.05-3.33-.47-4.97,0-.03-.02-.08-.03-.15,8.66,1.08,18.78,1.25,30.6.51,10.9-.67,20.59-1.97,28.96-3.87-.07.58-.15,1.2-.24,1.9l-.2,1.55c-.18,1.37-.15,2.72.01,4.03-7.41-.46-15.29-.71-23.38-.71-12.58,0-24.68.59-35.24,1.69Z"/>
  </g>
  <g id="Bubus">
    <g>
      <ellipse id="Oval" class="cls-2" cx="266.79" cy="344.48" rx="66.64" ry="11.45"/>
      <path id="Fill_1" data-name="Fill 1" class="cls-1" d="M252.65,144.28c-77.19,3.35-76.2,29.8-71.2,76,3.45,31.92,9.3,54.91,13.11,65.58,5.67,15.69,14.09,31.53,66.59,28.27,52.5-3.25,59.54-19.93,63.07-28.17s6.29-58.64,2.87-83.02c-3.99-29.5-3.08-61.82-74.45-58.65"/>
      <path id="Fill_3" data-name="Fill 3" class="cls-1" d="M305.99,331.84c-.3,0-.6-.03-.9-.07-4.43-.57-7.57-4.62-7-9.05l.2-1.55q1-7.76.65-23.5l-.04-1.99c-.14-4.47,3.38-8.2,7.84-8.33,4.47-.14,8.2,3.38,8.33,7.84,0,.04,0,.09,0,.13l.04,1.99c.37,16.64.38,16.96-.78,25.93l-.2,1.53c-.52,4.09-4.03,7.13-8.15,7.06"/>
      <path id="Fill_5" data-name="Fill 5" class="cls-1" d="M215.36,333.82c-3.62-.07-6.76-2.52-7.7-6.02-.36-1.34-3.43-13.74.07-35,.73-4.41,4.89-7.4,9.3-6.67,4.41.73,7.4,4.89,6.67,9.3h0c-2.94,17.84-.43,28.12-.4,28.23,1.15,4.32-1.42,8.75-5.74,9.9-.72.19-1.46.28-2.21.27"/>
      <path id="Fill_7" data-name="Fill 7" class="cls-3" d="M309.86,171.24c6.21,4.49,8.36,14.63,8.83,25.28.4,9.05-.81,16.66-13.19,15.69-12.38-.97-76.95,2.39-99.98,5.92-13.78,2.12-15.07-26.66-7.83-37.57,8.55-12.88,43.74-15.44,67.12-16.41,21.62-.87,37.07,1.44,45.05,7.09"/>
      <path id="Fill_9" data-name="Fill 9" class="cls-3" d="M229.91,159.19c-2.04-.05-3.66-1.74-3.62-3.78.04-1.77,1.33-3.26,3.07-3.56,17.23-2.89,34.77-3.51,52.17-1.85,2.04.13,3.58,1.9,3.45,3.94-.13,2.04-1.9,3.58-3.94,3.45-.07,0-.15-.01-.22-.02-16.75-1.6-33.64-1-50.23,1.78-.22.04-.45.06-.68.05"/>
      <path id="Fill_15" data-name="Fill 15" class="cls-1" d="M340.19,177.48c-3.22-.06-5.79-2.72-5.73-5.94.01-.81.2-1.61.54-2.34,4.42-9.57,4.99-15.43,5-15.49.25-3.21,3.06-5.61,6.27-5.36,3.21.25,5.61,3.06,5.36,6.27-.06.78-.72,7.97-6.04,19.47-.97,2.1-3.09,3.43-5.4,3.39"/>
      <g id="Group_19" data-name="Group 19">
        <g id="Group_19-2" data-name="Group 19-2">
          <path id="Fill_17" data-name="Fill 17" class="cls-1" d="M164.29,194.49c-2.01-.03-3.89-.95-5.16-2.51-.58-.7-5.73-7.28-10.43-21.28-1.19-3.54.72-7.37,4.26-8.56,3.54-1.19,7.37.72,8.56,4.26,3.91,11.66,8.08,17.04,8.12,17.09,2.34,2.9,1.89,7.15-1.01,9.5-1.23,1-2.77,1.53-4.36,1.5"/>
        </g>
      </g>
      <path id="Fill_20" data-name="Fill 20" class="cls-3" d="M312.94,224.14c-5.58-3.02-12.53.99-14.76,8.19-.53,1.67,1,2.93,2.25,1.9,2.4-2.21,5.77-3.03,8.91-2.16,2.47.85,4.46,2.73,5.44,5.16.64,1.48,2.64.84,2.94-.94,0-.28.04-.55.11-.82.53-4.8-1.33-9.4-4.89-11.32"/>
      <path id="Fill_22" data-name="Fill 22" class="cls-3" d="M223.01,236.52v-.14c-1.99-6.12-8.23-9.89-14.06-8.5-6.41,1.53-10.16,8.43-8.34,15.24.07.23.13.45.2.68.28,1.19,1.48,1.93,2.67,1.64.63-.15,1.16-.56,1.45-1.13,1.43-2.89,4.02-5.02,7.13-5.88,2.66-.69,5.49-.39,7.94.86.27.13.57.2.87.2,1.23.01,2.24-.96,2.27-2.19,0-.27-.04-.54-.13-.79"/>
      <path id="Fill_24" data-name="Fill 24" class="cls-3" d="M297.23,247.09c-28.88,17.17-54.93,9.86-67.52,5.63-17.79-5.97-14.63,38.02,19.21,42.47,37.81,5.04,49.31-14.89,54.2-25.54,4.33-9.46,5.16-29.14-5.89-22.56"/>
    </g>
  </g>
</svg>