<?xml version="1.0" encoding="UTF-8"?>
<svg xmlns="http://www.w3.org/2000/svg" viewBox="0 0 500 500">
  <defs>
    <style>
      .cls-1, .cls-2 {
        opacity: .2;
      }

      .cls-1, .cls-3, .cls-4, .cls-5, .cls-6, .cls-7, .cls-8, .cls-9, .cls-10 {
        stroke-width: 0px;
      }

      .cls-1, .cls-4, .cls-9 {
        fill: #fff;
      }

      .cls-3, .cls-4 {
        fill-rule: evenodd;
      }

      .cls-3, .cls-6 {
        fill: #343a41;
      }

      .cls-5 {
        fill: #604012;
      }

      .cls-7 {
        fill: #492f0d;
      }

      .cls-8 {
        fill: #869eb4;
      }

      .cls-10 {
        fill: #fdae00;
      }
    </style>
  </defs>
  <g id="stiker_style" data-name="stiker style">
    <path class="cls-9" d="M409.64,194.13c-2.7-4.63-8.69-6.19-13.3-3.45l-52.61,31.23c-3.93-.2-11.05,5.33-14.39,7.02-10.97-2.62-12.4,2.97-23.26,8.72v-8.9c.61-5.41-1.3-8.37-7.04-7.97.93-55.39-18.93-83.37-86.01-83.14-84.93-3.28-98.29,31.25-90.09,101.49-20.59-15.2-33.17,23.23-33.74,29.42-3.63,19.97,26.6,25.95,30.71,5.91.09-.4,1.54-6.94,5.37-12.58,4.85,27.4,3.86,37.99,16.99,57.61-2.61,3.2-6.15,6.02-7.59,10.04-32.01,1.71-44.94,7.04-34.05,21.94,4.23,3.63,12.02,6.41,36.31,8.18,24.46,1.74,72.08,2.81,101.86,2.91,19.53-1.58,62.61,4.15,64.59-13.73.34-9.2-9.98-12.58-20.08-14.29,1.3-6.37,1.6-10.46,1.09-17.4,9.39-13.24,9.04-24.6,12.27-48.46,14.98,8.79,43.08-12.89,43.63-20.33,3.2-2.21,11.72-5.92,13.47-9.52,0,0,52.61-31.23,52.61-31.23,4.61-2.58,6.13-9.02,3.25-13.48Z"/>
  </g>
  <g id="Bubus">
    <g>
      <g id="OMBRE">
        <path class="cls-8" d="M105.82,345.31c7.37,6.32,44.19,7.49,98.76,8.73,63.86,1.46,90.61-.8,90.8-5.6.3-7.99-47.89-9.68-90.64-11.18-64.24-2.27-106.75,1.32-98.91,8.05Z"/>
      </g>
      <g id="AUTRE_BRAS" data-name="AUTRE BRAS">
        <path class="cls-6" d="M101.54,278.39c.5.21,1.03.38,1.59.48,4.14.78,8.12-1.93,8.92-6.07.04-.2,1.88-9.26,7.49-16.77,2.52-3.38,1.83-8.17-1.55-10.69-3.38-2.53-8.16-1.83-10.69,1.55-7.82,10.47-10.17,22.55-10.26,23.06-.68,3.59,1.28,7.07,4.5,8.44Z"/>
      </g>
      <g id="CORPS">
        <path class="cls-6" d="M212.88,145.56c-84.76-1.32-85.37,27.72-82.9,78.63,1.72,35.17,6.6,60.74,10.13,72.66,5.19,17.57,13.43,35.45,71.1,35.26,57.67-.19,66.49-17.97,70.89-26.86,4.4-8.89,10.68-63.82,8.58-90.73-2.53-32.44.56-67.82-77.8-68.97Z"/>
        <path class="cls-6" d="M264.6,347.9c-4.87-.19-8.71-4.35-8.53-9.21.02-.56.09-1.11.22-1.66q3.03-12.96,1.4-27.9l17.68-2.02-8.82.97,8.83-.89c1.91,17.46,1.87,18.41-1.74,33.84-.97,4.14-4.78,7.03-9.03,6.87Z"/>
        <path class="cls-6" d="M175.15,299.85c3.22,2.26,4.56,6.41,3.29,10.13-.5,1.44-5.34,14.6-21.6,31.73-3.02,3.19-7.97,3.68-11.56,1.16-3.99-2.81-4.97-8.4-2.16-12.38.25-.35.53-.69.82-1.01,13.71-14.44,17.71-25.2,17.77-25.29.27-.78.65-1.52,1.13-2.2,2.8-3.98,8.38-4.96,12.36-2.16h0s-.07.02-.07.02Z"/>
      </g>
      <g id="BRAS_BAGUETTE" data-name="BRAS BAGUETTE">
        <path class="cls-6" d="M331.79,240.24c-.28-.49-.62-.96-1.01-1.4-2.93-3.25-7.94-3.52-11.2-.6-.16.14-7.39,6.47-16.77,9.15-4.22,1.2-6.66,5.6-5.46,9.82,1.2,4.22,5.6,6.66,9.82,5.46,13.07-3.73,22.63-12.25,23.03-12.61,2.82-2.54,3.4-6.65,1.6-9.82Z"/>
        <g>
          <rect class="cls-7" x="338.14" y="214.1" width="69.51" height="3.68" rx="1.68" ry="1.68" transform="translate(-57.99 220.61) rotate(-30.7)"/>
          <rect class="cls-5" x="319.08" y="235.91" width="29.75" height="6.31" rx="2.87" ry="2.87" transform="translate(-75.24 203.97) rotate(-30.7)"/>
        </g>
      </g>
      <g id="FONT">
        <path class="cls-9" d="M274.63,180.33c6.26,4.81,8.05,15.34,8.08,26.29.03,9.29-1.54,17.03-14.34,15.53-12.79-1.51-79.95-.77-103.93,1.89-14.38,1.59-14.49-30.91-6.53-41.77,9.41-12.85,52.58-12.23,70.32-11.07,22.39,1.47,38.38,2.97,46.4,9.13Z"/>
        <g>
          <path class="cls-9" d="M224.71,184.62c-1.07,0-2.13-.25-3.11-.76-2.02-1.06-3.36-3.06-3.56-5.33l-.38-4.21-15.36,8.01c-3.28,1.71-7.33.44-9.04-2.84-1.71-3.28-.44-7.33,2.84-9.04l24.23-12.63c1.98-1.03,4.35-1.01,6.31.06,1.96,1.07,3.26,3.05,3.46,5.28l.35,3.82,16.7-9.47c3.22-1.83,7.31-.69,9.13,2.52,1.83,3.22.7,7.31-2.52,9.13l-25.74,14.59c-1.02.58-2.16.87-3.3.87Z"/>
          <path class="cls-6" d="M250.44,156.63c2.33,0,4.6,1.22,5.83,3.4,1.83,3.22.7,7.31-2.52,9.13l-25.74,14.59c-1.02.58-2.16.87-3.3.87-1.07,0-2.13-.25-3.11-.76-2.02-1.06-3.36-3.06-3.56-5.33l-.38-4.21-15.36,8.01c-.99.52-2.05.76-3.09.76-2.42,0-4.75-1.31-5.95-3.6-1.71-3.28-.44-7.33,2.84-9.04l24.23-12.63c.97-.51,2.03-.76,3.1-.76s2.21.27,3.21.82c1.96,1.07,3.26,3.05,3.46,5.28l.34,3.82,16.7-9.47c1.04-.59,2.18-.87,3.3-.87M250.44,152.74c-1.82,0-3.62.48-5.21,1.38l-11.66,6.61c-.79-2.65-2.59-4.91-5.07-6.26-1.55-.85-3.31-1.3-5.08-1.3s-3.39.41-4.89,1.2l-24.23,12.63c-2.51,1.31-4.35,3.51-5.2,6.21-.85,2.7-.6,5.56.71,8.07,1.83,3.51,5.43,5.69,9.39,5.69,1.69,0,3.38-.42,4.89-1.2l10.33-5.38c.7,2.95,2.64,5.47,5.38,6.91,1.51.79,3.21,1.21,4.91,1.21,1.83,0,3.63-.48,5.22-1.38l25.74-14.59c2.46-1.39,4.23-3.66,4.98-6.39.75-2.72.4-5.58-.99-8.04-1.88-3.31-5.41-5.36-9.21-5.36h0Z"/>
        </g>
      </g>
      <g id="YEUX">
        <path class="cls-4" d="M162.9,246.55c-.03-2.72,2.99-12.07,12.19-13.92,8.4-1.7,16.22,6.66,16.39,9.73.12,2.37-5.92-1.97-16.11-.86-8.23.89-12.41,9.58-12.47,5.06Z"/>
        <path class="cls-4" d="M256.02,238.61c.73-2.17,5.68-8.77,13.37-7.78,7.02.9,10.8,9.63,10.08,12.1-.56,1.91-4.07-3.15-12.32-5-6.66-1.5-12.33,4.27-11.12.67Z"/>
      </g>
      <g id="LUNETTES">
        <g>
          <path class="cls-10" d="M288.13,224.43c-2.12-2.67-6.13-6.12-8.54-8.11-.64-.54-1.26-1.06-1.92-1.54-.01-.02-.04-.04-.04-.04-2.33-1.71-4.89-3.05-7.64-3.97-2.74-.93-5.64-1.42-8.66-1.42-8.13,0-15.48,3.61-20.79,9.43-2.59,2.62-4.81,5.51-7.1,8.32-2.91,3.56-4.62,1.82-7.53,1.82-.05,0-.08,0-.13.01-3.09.04-4.95,1.67-8.08-1.84-2.5-2.81-4.93-5.69-7.74-8.32-5.8-5.82-13.93-9.43-22.81-9.43-6.58,0-13.1,1.98-17.89,5.4,0,0,.05.01.05.02-.72.49-1.37,1.01-2.04,1.54-2.63,1.98-7.14,5.45-9.45,8.12-3.44,3.97-10.96,4.23-10.96,4.23v8.19s4.5-.26,5.95,1.46c.85,1.02,1.78,5.9,3.3,11.02.46,1.82,1.12,3.57,1.88,5.26.71,1.67,1.54,3.22,2.48,4.5h.01c5.74,8.67,15.6,14.41,26.78,14.41,13,0,24.18-7.73,29.22-18.84,0-.01.01-.01.02-.02.02-.05.05-.08.07-.12,2.3-3.91,4.62-14.61,5.66-16.32.91-1.48,2.99-1.78,3.56-1.84h.13s2.42.13,3.39,1.85c.96,1.7,3.08,12.4,5.18,16.31.02.05.05.08.07.12.01.01.01.02.01.04,4.62,11.11,14.85,18.84,26.76,18.84,10.23,0,19.25-5.74,24.51-14.42.87-1.26,1.6-2.81,2.25-4.49.7-1.7,1.26-3.44,1.7-5.28,1.38-5.1,2.16-9.98,2.95-10.99,1.32-1.72,5.32-1.46,5.32-1.46v-8.2s-6.77-.26-9.92-4.23ZM187.26,269.13c-15.31,0-27.71-12.41-27.71-27.71s12.4-27.71,27.71-27.71,27.7,12.4,27.7,27.71-12.4,27.71-27.7,27.71ZM261.34,269.13c-14.01,0-25.36-12.41-25.36-27.71s11.35-27.71,25.36-27.71,25.35,12.4,25.35,27.71-11.35,27.71-25.35,27.71Z"/>
          <path class="cls-1" d="M214.95,241.43c0,15.3-12.4,27.71-27.7,27.71s-27.71-12.41-27.71-27.71,12.4-27.71,27.71-27.71,27.7,12.4,27.7,27.71Z"/>
        </g>
        <g class="cls-2">
          <path class="cls-9" d="M286.69,241.43c0,15.3-11.35,27.71-25.35,27.71s-25.36-12.41-25.36-27.71,11.35-27.71,25.36-27.71,25.35,12.4,25.35,27.71Z"/>
        </g>
      </g>
      <g>
        <path id="BOUCHE" class="cls-3" d="M226.67,258.94c2.08-1.25,4.3-2.3,6.55-3.2,4.01-1.6,8.84-2.97,13.14-1.83,2.87.76,6.04,3.4,6.13,6.61.1,3.8-4.25,6.42-7.16,7.93-.58.3-1.17.59-1.78.84,0,0,5.39-1.9,7.59,1.07.88,1.18.89,2.84.69,4.24-.37,2.62-1.29,5.48-3.73,6.87-3.38,1.92-7.57-.4-10.61-2-1.49-.79-2.99-1.57-4.38-2.53"/>
        <path id="BOUCHE-2" data-name="BOUCHE" class="cls-9" d="M226.62,258.85c5.84-4.57,13.72-8.75,21.36-6.28,3.03,1.18,5.92,3.84,6.22,7.34.27,5.78-5.93,8.56-10.59,9.49-.01.02-.08-.21-.09-.21,6.16-3.53,11.32.11,9.67,7.06-2.05,9.52-10.03,8.73-16.45,3.75-1.28-.88-2.58-1.81-3.7-2.93l.16-.24c2.78,1.17,5.73,2.36,8.52,3.33,2.48.79,5.11,1.02,6.78-1.1.72-.91,1.19-2.16,1.52-3.5.61-2.58.99-5.02-2.04-5.86-1.4-.4-3.14-.38-4.77-.27,2.56-2.15,6.14-4.3,7.32-7.34.95-2.69-1.51-5.16-3.9-6.19-6.56-2.13-13.59.98-19.92,3.14,0,0-.11-.19-.11-.19h0Z"/>
      </g>
    </g>
  </g>
</svg>