<?xml version="1.0" encoding="UTF-8"?>
<svg xmlns="http://www.w3.org/2000/svg" viewBox="0 0 500 500">
  <defs>
    <style>
      .cls-1 {
        fill: #e66863;
        isolation: isolate;
        opacity: .4;
      }

      .cls-1, .cls-2, .cls-3, .cls-4, .cls-5, .cls-6, .cls-7, .cls-8, .cls-9, .cls-10, .cls-11, .cls-12, .cls-13, .cls-14 {
        stroke-width: 0px;
      }

      .cls-15 {
        opacity: .41;
      }

      .cls-2, .cls-3, .cls-4 {
        fill-rule: evenodd;
      }

      .cls-2, .cls-10 {
        fill: #24272c;
      }

      .cls-3 {
        fill: #869eb4;
      }

      .cls-4, .cls-14 {
        fill: #fff;
      }

      .cls-5 {
        fill: #f3a530;
      }

      .cls-6 {
        fill: #f2f5ff;
      }

      .cls-7 {
        fill: #763f38;
      }

      .cls-8 {
        fill: #181a1e;
      }

      .cls-9 {
        fill: #ad1447;
      }

      .cls-11 {
        fill: #c8d2ec;
      }

      .cls-12 {
        fill: #aa5318;
      }

      .cls-13 {
        fill: #f1f93b;
      }
    </style>
  </defs>
  <g id="stiker_style" data-name="stiker style">
    <g>
      <path class="cls-14" d="M408.37,194.75c-.35-.25-.73-.47-1.12-.66-3.48-1.7-7.48-1.72-10.98-.07l-10.97,4.9c-.93.01-1.86.04-2.79.08,1.32-2.23,2.6-4.49,3.81-6.8,2.17-3.74,3.73-7.77,4.64-12,.03-.16.06-.32.09-.48.88-5.8-.36-11.73-3.51-16.68-1.28-2.01-3.39-3.35-5.75-3.65-2.37-.3-4.74.47-6.48,2.11l-36.73,34.49c-2.54,2.14-5,4.37-7.37,6.67-1.14-14.06-3.97-27.23-10.02-34.19-6.25-7.2-16.62-12.26-28.54-15.63,20.63-2.36,30.54-7.01,32.94-15.38.33-1.14.38-2.31.21-3.42.04-.54.05-1.09.01-1.63.02-10.58-14.01-14.28-19.38-15.69-9.5-2.5-21.56-4.06-30-4.93-.04,0-.08,0-.12-.01l-6.67-.59c-.23-.02-.47-.03-.7-.03h-3.56l-5.63-.38c-.79-.26-1.63-.41-2.49-.41h-6.87c-.31,0-.62.02-.93.06-.96-.41-2.01-.64-3.1-.64h-10.79c-1.28,0-2.52.32-3.63.88h-10.99c-.1,0-.2,0-.3,0-13.4.5-24.31,1.6-32.43,3.26-5.33,1.09-21.45,4.38-22.06,16.33-.08.91-.07,1.83.04,2.73.06.49.17.97.31,1.44,2.19,6.92,9.79,11.25,25.41,14.48,5.63,1.17,11.68,2.04,17.27,2.69-15.49,3.82-27.63,10.03-34.69,18.13-.03.04-.07.08-.1.12-4.41,5.25-7.63,13.63-9.83,23.86l-34.2-32.19c-1.71-1.61-4.05-2.39-6.38-2.12-2.34.26-4.44,1.54-5.75,3.5-3.37,5.03-4.64,11.08-3.59,17.03.01.07.02.13.04.2.87,4.3,2.46,8.39,4.7,12.16,1.22,2.28,2.51,4.51,3.84,6.72-.86-.04-1.73-.06-2.59-.08l-11.03-4.89c-3.45-1.64-7.53-1.61-10.95.1-.24.12-.48.25-.71.4-3.67,2.32-5.85,6.46-5.68,10.8,0,.08,0,.17.01.25.17,2.49.85,4.87,2.01,7.07,5.51,11.56,14.98,20.44,26.49,25.23-1.32,4.36-1.02,9,.87,13.19,2.12,4.7,6.13,8.38,11,10.08.08.03.16.05.24.08,1,.31,2.01.59,3.02.82-.11,1.82.08,3.66.55,5.47-.61,1.46-1.17,2.94-1.67,4.44-1.88,5.56-3.01,11.19-3.46,16.79-.14-.2-.27-.41-.42-.61-4.19-5.73-11.48-8.41-18.35-6.84-4.26.51-15.44,3.87-24.52,24.29-.03.08-.07.16-.1.24-.17.42-.37.83-.58,1.22-.65,1.18-.99,2.51-.99,3.85,0,3.84,2.49,6.16,3.41,6.99.04.04.08.09.11.13,12.12,13.47,22.04,15.77,27.4,15.77,1.29,0,2.31-.13,3.04-.28,4.47-.6,8.34-2.84,11.1-6.03.22.25.44.5.68.74,2.83,2.78,6.54,4.33,10.49,4.4,8.25,12.61,20.6,22.66,35.95,27.85.26.09.52.16.78.22,3.23.74,6.06,2.71,7.86,5.47.68,2.21.48,4.61-.56,6.68-.1.19-.19.41-.28.61-.01.04-.03.07-.04.1-1.83,4.61-.51,9.71,2.91,12.91-3.57,2.28-5.56,5.24-5.56,9.24,0,9.5,11.27,13.14,28.19,15.69,14.16,2.13,32.91,3.3,52.81,3.3s38.68-1.17,52.86-3.3c16.95-2.54,28.24-6.19,28.24-15.69s-11.28-13.16-28.23-15.73c-14.23-2.16-33-3.35-52.88-3.35s-38.63,1.19-52.83,3.35c-1.01.15-1.99.31-2.96.47,1.54-3.91,2.3-8.06,2.28-12.22l19.26-23.86c4.63.44,9.42.76,14.22.91,1.93.06,3.81.08,5.67.08,5.88,0,11.39-.3,16.57-.87,0,4.6.47,9.2,1.4,13.73,1.67,7.73,8.36,13.19,16.27,13.28h.09c.28,0,.56-.01.84-.04l1.86-.2c.26-.03.52-.07.78-.12l.36-.08c4.36-.99,8.07-3.62,10.45-7.41,2.35-3.74,3.12-8.15,2.18-12.46-1.17-6.21-.7-12.52,1.33-18.45,2.73-1.92,5.17-4.06,7.32-6.41,5.17-5.62,9.38-15.92,12.69-28.23,1.82.38,3.68.59,5.57.59,1.55,0,3.12-.13,4.69-.4.5-.09,1-.22,1.48-.4,8.05-3.06,13.72-9.66,15.81-17.41,1.15.13,2.32.2,3.49.17.21,0,.42-.02.63-.04,6.99-.69,12.93-5.45,15.14-12.11.02-.06.04-.12.06-.18.63-2.06.86-4.17.74-6.25,1.01-.23,2.02-.5,3.02-.82.09-.03.17-.05.26-.08,4.87-1.7,8.88-5.37,11-10.08,1.89-4.19,2.19-8.83.87-13.19,11.54-4.8,21.03-13.71,26.53-25.3,1.13-2.24,1.77-4.65,1.89-7.16,0-.05,0-.11,0-.16.12-4.16-1.84-8.08-5.24-10.49ZM156.65,281.85c1.14,3.39,2.99,6.52,5.4,9.17l-6.99.98c.15-3.43.69-6.84,1.59-10.16ZM171.91,313.37s0-.05,0-.07c1.1,2.91,2.26,5.55,3.48,7.93-.76,1.38-1.37,2.85-1.8,4.39-.11.39-.19.8-.24,1.2-.15,1.29-.21,2.58-.18,3.87-2.54-1.93-4.88-4.13-6.98-6.57,3.2-2.56,5.36-6.38,5.7-10.76ZM251.43,131.86c.4.06.81.1,1.22.1h6.87c.4,0,.79-.04,1.18-.1h7.17l5.52.52c-6.5.29-14.02.41-22.67.26-.05,0-.09,0-.14,0h-7.06l-9.61-.48c-.13,0-.27,0-.4,0h-6.92c-1.08-.09-2.11-.19-3.14-.29h27.97Z"/>
      <path class="cls-14" d="M91.44,128.08c1.96,5.58,5.83,10.33,10.91,13.35.29.17.57.32.87.45.22.11.79.51,1.21.81.71.5,1.58,1.12,2.55,1.66.61.35,1.23.66,1.85.99,2.97,1.67,6.11,3,9.35,3.98,2.92.97,5.9,1.73,8.93,2.26.08.01.15.03.23.04.17.03.45.08.78.14,2.18.39,4.08.73,5.81.73,2.05,0,3.85-.48,5.57-1.92.45-.38.84-.81,1.19-1.28.05-.06.11-.12.15-.19.04-.05.07-.1.11-.16.02-.03.05-.06.07-.09.31-.42.6-.86.9-1.29.29-.42.59-.83.87-1.25.32-.48.63-.96.94-1.44.27-.42.56-.85.82-1.27.31-.49.6-1,.9-1.5.25-.43.52-.85.76-1.28.3-.52.58-1.05.86-1.57.23-.42.47-.84.69-1.27.29-.55.56-1.11.84-1.67.2-.41.41-.81.61-1.22.29-.61.56-1.23.84-1.85.16-.37.34-.73.5-1.09.31-.71.59-1.43.88-2.15.11-.29.24-.57.35-.85.39-1.01.77-2.03,1.12-3.05,1.38-3.69,2.16-7.56,2.33-11.49,0-.12,0-.25,0-.37,0-.01,0-.02,0-.03,0-.01,0-.03,0-.04,0-.07,0-.14,0-.22-.12-7.34-3.8-14.15-9.88-18.28-.41-.28-.84-.51-1.28-.71-.08-.03-.16-.06-.24-.09-2.98-1.64-6.32-2.44-9.74-2.34h-.09c-4.25,0-8.35,1.51-11.58,4.28-.16.14-.32.29-.48.44-1.91,1.93-3.48,4.12-4.66,6.5-1.02-.3-2.05-.54-3.11-.71-.14-.02-.29-.04-.43-.06-6.29-.67-12.56,1.42-17.19,5.73-.08.07-.15.14-.22.21-4.77,4.79-6.74,11.85-5.14,18.42.06.26.14.51.22.76Z"/>
      <path class="cls-14" d="M403.83,307.83c-.44-3.22-1.79-6.22-3.84-8.64-2.39-2.87-5.74-4.8-9.43-5.42-.32-.05-.65-.09-.97-.1-1.55-.07-3.09.04-4.6.3-.25-.46-.52-.91-.8-1.35-.05-.07-.09-.14-.14-.21-2.97-4.31-7.65-7.16-12.84-7.81-.04,0-.09-.01-.13-.02-5.86-.64-11.64,1.92-15.1,6.69-.17.23-.33.48-.47.73-2.31,4.05-3.26,8.81-2.68,13.44.13,1.56.36,3.13.7,4.66.02.1.04.2.06.3.01.09.02.19.04.27.47,2.98,1.33,5.86,2.54,8.62.87,2.18,1.88,4.31,3.05,6.35,2.09,4.64,4.88,7.19,8.31,7.61.03,0,.07,0,.1.01.3.03.6.05.9.05,0,0,0,0,0,0h0c.16,0,.32,0,.48-.01,6.71-.4,13.3-1.82,19.58-4.21,2.94-1.07,5.71-2.56,8.21-4.44.08-.06.17-.13.25-.2,0,0,.01-.01.02-.02,0,0,.02-.01.02-.02.04-.04.08-.08.13-.11,4.72-3.95,7.21-9.94,6.66-16.08-.01-.13-.03-.25-.04-.38Z"/>
      <path class="cls-14" d="M138.44,384.84c-.05-.6-.13-1.19-.24-1.79-.08-.59-.19-1.18-.34-1.75-.08-.32-.2-.62-.3-.93-.08-.25-.15-.5-.24-.74-.14-.37-.32-.73-.49-1.08-.08-.17-.15-.34-.23-.5-.19-.35-.4-.69-.62-1.02-.1-.16-.19-.32-.29-.47-.21-.3-.44-.59-.68-.87-.14-.17-.27-.35-.42-.52-.21-.24-.45-.46-.68-.69-.19-.19-.38-.39-.59-.57-.21-.18-.43-.35-.65-.52-.26-.2-.51-.41-.78-.59-.2-.14-.41-.26-.61-.38-.23-.14-.45-.3-.69-.43-.1-.05-.2-.1-.3-.15-.04-.02-.08-.05-.12-.07-.07-.04-.15-.06-.22-.1-.02,0-.04-.02-.05-.02-.48-.22-.97-.4-1.48-.52-2.14-.51-4.39-.53-6.53-.07-2.98.53-5.66,2.1-7.64,4.5-.42.53-.81,1.08-1.16,1.65-4.1.23-7.94,2.18-10.55,5.34-.07.09-.14.18-.21.27-2.84,3.76-3.49,8.8-1.71,13.15.14.35.31.68.5,1.01,1.98,3.38,5.08,5.95,8.76,7.26l1.08.45c.39.26.8.5,1.25.69,2.55,1.11,5.25,1.78,8.03,2.01.22.02.43.03.65.03h.8c.86.07,1.72.11,2.58.11,1.03,0,2.06-.05,3.08-.15.06,0,.11-.02.17-.03.15-.02.3-.05.45-.07.19-.03.39-.07.58-.12.15-.04.29-.08.43-.13.19-.06.37-.12.55-.2.14-.05.27-.11.41-.18.18-.08.35-.17.52-.27.13-.07.26-.14.38-.22.17-.11.33-.22.49-.34.12-.09.23-.17.34-.26.16-.13.31-.27.45-.42.1-.1.2-.19.3-.29.16-.17.3-.34.44-.52.07-.09.15-.18.22-.27.2-.28.39-.58.56-.89,2.17-4.05,3.69-8.39,4.52-12.81.36-1.82.46-3.65.31-5.48,0-.01,0-.02,0-.03Z"/>
    </g>
  </g>
  <g id="Bubus">
    <g>
      <g>
        <g>
          <path class="cls-11" d="M384.91,207.86l14.72-6.57c1.3-.63,2.82-.63,4.12,0,1.21.85,1.91,2.25,1.86,3.73-.07,1.4-.44,2.77-1.08,4.02-6.19,13.14-18.58,22.29-32.97,24.33,5.48,2.47,7.93,8.92,5.46,14.4-1.23,2.72-3.52,4.82-6.34,5.81-4.22,1.31-8.66,1.75-13.05,1.28,3.66,2.39,5.3,6.91,4.02,11.09-1.22,3.67-4.49,6.29-8.34,6.67-4,.08-7.91-1.2-11.09-3.63,2.42,8.87-2.3,18.13-10.89,21.39-9.26,1.6-18.35-3.58-21.68-12.36-1.92-4.83-2.4-10.11-1.37-15.21,1.08-4.86,2.97-9.5,5.59-13.74,15.47-27.06,44.7-43.28,75.85-42.09"/>
          <path class="cls-6" d="M314.07,289.2c-8.41-15.51-8.74-34.15-.88-49.94,7.86-14.21,18.27-26.85,30.71-37.29l36.89-34.64c2.11,3.32,2.95,7.3,2.35,11.19-.74,3.45-2.04,6.77-3.83,9.81-8.85,16.97-21.03,31.99-35.81,44.15,3.01,0,6,.53,8.83,1.57,3.07.81,5.6,2.98,6.87,5.89.89,4.41-1.34,8.86-5.4,10.79-5.91,3.5-12.82,4.91-19.62,4.02,6.04,2.47,9.93,8.39,9.81,14.91-.52,5.71-3.4,10.94-7.95,14.42-6.59,4.02-14.29,5.81-21.98,5.1Z"/>
          <path class="cls-6" d="M369.51,221.3c1.79-1.4,3.21-3.22,4.12-5.3.88-2.11.5-4.54-.98-6.28-2.25-1.76-5.22-2.31-7.95-1.47-10.35,1.85-19.72,7.26-26.49,15.31-1.79,2.25-1.42,5.52.83,7.31.32.25.66.47,1.03.64,4.64,1.11,9.52.73,13.93-1.08,5.78-1.86,11.07-4.97,15.5-9.13Z"/>
        </g>
        <g>
          <path class="cls-11" d="M121.07,207.86l-14.82-6.57c-1.27-.63-2.76-.63-4.02,0-1.27.8-2.02,2.22-1.96,3.73.1,1.41.5,2.78,1.18,4.02,6.19,13.14,18.58,22.29,32.97,24.33-5.48,2.47-7.93,8.92-5.46,14.4,1.23,2.72,3.52,4.82,6.34,5.81,4.18,1.31,8.59,1.75,12.95,1.28-3.62,2.42-5.22,6.93-3.92,11.09,1.27,3.67,4.57,6.24,8.44,6.57,4.03.08,7.97-1.2,11.19-3.63-2.52,8.88,2.23,18.2,10.89,21.39,9.21,1.48,18.2-3.73,21.49-12.46,1.83-4.78,2.31-9.98,1.37-15.01-1.17-4.83-3.06-9.46-5.59-13.74-15.5-27.08-44.77-43.3-75.95-42.09"/>
          <path class="cls-6" d="M191.52,289.2c8.46-15.5,8.79-34.16.88-49.94-7.8-14.25-18.22-26.9-30.71-37.29l-36.8-34.64c-2.2,3.28-3.04,7.29-2.35,11.19.7,3.47,2,6.79,3.83,9.81,9,16.91,21.31,31.82,36.21,43.86-2.98,0-5.94.53-8.73,1.57-3.08.84-5.63,2.99-6.97,5.89-.89,4.41,1.34,8.86,5.4,10.79,5.91,3.48,12.82,4.9,19.62,4.02-5.82,2.64-9.5,8.52-9.32,14.91.47,5.7,3.32,10.94,7.85,14.42,6.31,3.93,13.68,5.81,21.1,5.4Z"/>
          <path class="cls-6" d="M136.38,221.3c-1.76-1.4-3.15-3.22-4.02-5.3-.93-2.09-.59-4.53.88-6.28,2.29-1.76,5.28-2.31,8.05-1.47,10.32,1.85,19.66,7.27,26.39,15.31,1.83,2.15,1.57,5.37-.58,7.19-.36.31-.76.56-1.19.76-4.64,1.11-9.52.73-13.93-1.08-5.8-1.88-11.12-4.99-15.6-9.13Z"/>
        </g>
        <path class="cls-2" d="M180.53,174.98c23.65-27.08,113.92-25.12,134.62-1.28,17.07,19.62,6.77,127.56-11.28,147.18-24.82,27.28-95.86,13.54-109.89,8.44-27.08-7.65-33.46-130.5-13.44-154.34Z"/>
        <path class="cls-4" d="M282.58,254.76c-6.66-.11-12.16,5.21-12.26,11.87-.11,6.66,5.21,12.16,11.87,12.26,6.66.11,12.16-5.21,12.26-11.87,0-.06,0-.13,0-.19,0-6.59-5.28-11.96-11.87-12.07Z"/>
        <path class="cls-14" d="M228.51,314.32c-13.33.24-26.23-4.68-36.01-13.74-2.9-2.85-2.94-7.51-.09-10.41.03-.03.06-.06.09-.09,2.77-3.02,7.46-3.24,10.5-.49,23.25,21.59,55.14,1.77,56.42.88,3.47-2.22,8.08-1.21,10.3,2.26,2.22,3.47,1.21,8.08-2.26,10.3-11.71,7.25-25.18,11.15-38.95,11.28Z"/>
        <circle class="cls-14" cx="184.85" cy="264.77" r="10.99"/>
        <path class="cls-4" d="M184.06,198.93c18.05-10.6,88.9-13.93,108.52-.88,10.89,7.16,12.56,46.51,0,44.84-36.7-3.38-73.6-3.93-110.39-1.67-9.22.98-9.22-35.81,1.86-42.29Z"/>
        <path class="cls-14" d="M204.18,183.23c-4.01,0-7.26-3.26-7.25-7.27,0-3.36,2.31-6.28,5.58-7.06,21.96-4.83,44.65-5.36,66.82-1.57,3.93.79,6.51,4.59,5.79,8.54-.79,3.93-4.61,6.47-8.54,5.69-20.06-3.33-40.57-2.83-60.44,1.47l-1.96.2Z"/>
        <path class="cls-10" d="M195.44,349.25c-2.41,0-4.72-1-6.38-2.75-5.66-4.48-8.59-11.57-7.75-18.74.93-3.37,3.25-6.19,6.38-7.75-.34-3.47,1.39-6.81,4.42-8.54,4.11-2.42,9.4-1.05,11.82,3.05.02.03.03.06.05.09,2.35,3.77,3.12,8.32,2.16,12.66-.87,2.54-2.56,4.71-4.81,6.18l.78.88c3.44,3.38,3.49,8.91.11,12.35-.04.04-.07.07-.11.11-1.81,1.68-4.21,2.56-6.67,2.45ZM188.77,323.64"/>
        <path class="cls-10" d="M284.64,363.47c-4.12-.04-7.67-2.94-8.54-6.97-2.66-12.85-1.04-26.22,4.61-38.07,2.28-4.28,7.59-5.91,11.87-3.63,4.28,2.28,5.91,7.59,3.63,11.87-3.6,8.2-4.63,17.3-2.94,26.1,1.07,4.7-1.87,9.38-6.57,10.46-.07.02-.13.03-.2.04l-1.86.2Z"/>
        <g>
          <path class="cls-10" d="M142.95,324.62c-4.06.03-7.38-3.24-7.42-7.3-.02-2.65,1.39-5.11,3.69-6.44,5.26-3.67,11.45-5.78,17.86-6.08,4.06.26,7.13,3.76,6.87,7.82,0,.01,0,.02,0,.03-.3,3.85-3.5,6.83-7.36,6.87-3.51.7-6.85,2.1-9.81,4.12-1.16.67-2.48,1.01-3.83.98Z"/>
          <g>
            <path class="cls-7" d="M196.82,381.33h-.98c-1.91-.76-2.85-2.93-2.09-4.84,0-.02.02-.04.03-.06,2.16-4.28,2.41-9.27.69-13.74-2.9-4.98-7.73-8.53-13.34-9.81-32.34-10.94-49.68-46.03-38.74-78.37,3.74-11.06,10.54-20.83,19.61-28.19,4.79-4.31,7.39-10.54,7.06-16.97-.35-3.11-2.45-5.74-5.4-6.77-1.91-.85-2.79-3.08-1.96-5,.79-1.9,2.97-2.81,4.87-2.02.04.02.09.04.13.06,5.34,2.11,9.1,6.96,9.81,12.66.72,9.09-2.92,17.98-9.81,23.94-23.08,19.03-26.36,53.17-7.33,76.25,6.37,7.72,14.74,13.52,24.21,16.77,7.64,2.01,14.1,7.09,17.86,14.03,2.52,6.34,2.31,13.44-.59,19.62-.65,1.62-2.29,2.62-4.02,2.45Z"/>
            <g>
              <path class="cls-7" d="M115.38,309.41c-.88-.09-1.58-.79-1.67-1.67-.17-.96.48-1.88,1.44-2.04.04,0,.09-.01.13-.02l157.58-22.18c1.04-.07,1.96.65,2.16,1.67.12,1.05-.62,2.01-1.67,2.16l-156.99,22.08h-.98Z"/>
              <path class="cls-9" d="M119.01,325.6c5.39-.57,9.3-5.39,8.73-10.78-.02-.23-.06-.47-.1-.7-.4-3.24-2.38-6.08-5.3-7.56,4.37-3.2,5.32-9.34,2.12-13.71-2.42-3.3-6.62-4.76-10.56-3.65,0,0-9.81,0-18.54,19.62-.29.71-.61,1.39-.98,2.06,0,.59,1.08,1.18,1.47,1.77,14.03,15.6,23.16,12.95,23.16,12.95Z"/>
            </g>
            <path class="cls-9" d="M199.27,369.75h0c-.24-.22-.27-.59-.05-.83.02-.02.03-.04.05-.05l67.31-83.4-96.45-64.56c-.37-.07-.61-.43-.54-.81s.43-.61.81-.54c.17.03.32.13.42.27l97.24,65.15-68.19,84.48c-.15.17-.36.28-.59.29Z"/>
          </g>
          <ellipse class="cls-10" cx="142.96" cy="317.19" rx="5.3" ry="6.87" transform="translate(-117.14 86.11) rotate(-24.12)"/>
        </g>
        <path class="cls-8" d="M286.3,302.05h-1.08c-7.98-1.23-15.6-4.14-22.37-8.54-3.48-1.99-4.69-6.43-2.69-9.91s6.43-4.69,9.91-2.69c.33.19.64.4.93.63,4.97,3.12,10.5,5.22,16.29,6.18,3.96.65,6.64,4.38,5.99,8.34-.56,3.44-3.49,5.99-6.97,6.08v-.1Z"/>
        <g>
          <path class="cls-5" d="M275.61,119.74l-6.67-.59h-3.83l-7.26-.49h-36.89c-20.8.78-46.61,3.43-46.8,12.17-.05.39-.05.79,0,1.18,2.55,8.05,31.99,11.77,51.61,13.05h24.43c15.9,0,64.37,0,67.61-11.28.06-.36.06-.72,0-1.08.49-6.77-22.18-10.89-42.19-12.95ZM250.39,141.04h-7.26l-9.81-.49h-7.26c-28.75-2.16-43.96-6.87-46.12-9.81.37-.36.8-.66,1.28-.88,12.84-4.24,26.31-6.26,39.84-5.99h47.2l7.26.69c12.23.53,24.28,3.15,35.62,7.75.4.28.76.61,1.08.98-2.45,3.63-22.86,8.44-61.82,7.75Z"/>
          <path class="cls-12" d="M317.9,135.25c-3.24,11.28-51.71,11.48-67.61,11.28h-17.17l-7.36-1.47c-19.62-1.28-49.06-5-51.12-13.74,2.06-.69,4.81-1.77,5.59-1.86h1.18c-.47.22-.9.52-1.28.88,2.16,2.65,17.37,7.36,46.12,9.81h7.26l9.81.49h7.26c39.25.69,58.87-4.12,62.01-6.97-.32-.37-.68-.7-1.08-.98l6.38,2.55Z"/>
          <g class="cls-15">
            <path class="cls-13" d="M248.72,123.47h-11.68c-.17-1.97-.66-3.89-1.47-5.69h10.79c.78,1.96,1.57,3.83,2.35,5.69Z"/>
          </g>
          <g class="cls-15">
            <path class="cls-13" d="M259.52,123.96h-6.87c-.3-.67-.57-1.36-.78-2.06-.57-1.14-1.07-2.32-1.47-3.53h6.87l2.26,5.59Z"/>
          </g>
        </g>
      </g>
      <g>
        <path class="cls-9" d="M147.27,114.25c-.13,3.12-.76,6.2-1.86,9.13-2.59,7.51-6.29,14.59-10.99,21-8.25-.48-16.28-2.86-23.45-6.97-1.57-.88-2.94-2.16-4.51-2.85-3.48-2.07-6.12-5.3-7.46-9.13-.95-3.91.2-8.04,3.04-10.89,2.93-2.73,6.91-4.05,10.89-3.63,3.77.61,7.23,2.48,9.81,5.3-.38-4.95,1.41-9.82,4.91-13.34,1.83-1.56,4.17-2.4,6.57-2.35,2.29-.1,4.55.52,6.48,1.77,4.05,2.65,6.51,7.13,6.57,11.97Z"/>
        <path class="cls-1" d="M147.27,114.25c-.13,3.12-.76,6.2-1.86,9.13-2.59,7.51-6.29,14.59-10.99,21,0,.49-5.2-.59-5.99-.69l-5.89-1.47c-3.92-.95-7.66-2.5-11.09-4.61.69.59,3.63,0,4.42-.59,1.35-.48,2.67-1.07,3.92-1.77,2.28-1.15,4.48-2.47,6.57-3.92,4.13-2.92,7.28-7.02,9.03-11.77,1.55-6.26,1.28-12.83-.78-18.94,2.17.23,4.28.8,6.28,1.67,3.97,2.69,6.36,7.17,6.38,11.97Z"/>
        <path class="cls-1" d="M109.29,115.62c-1.84.35-3.48,1.36-4.61,2.85-1.12,1.48-1.52,3.39-1.08,5.2.24,1.11,1.01,2.03,2.06,2.45.85.31,1.81.04,2.35-.69v-3.53c0-1.08,1.37-1.18,2.26-1.18s1.86,0,2.75.59c.89.27,1.86.04,2.55-.59.44-.72.44-1.63,0-2.35-.21-.64-.58-1.22-1.08-1.67-.49-.04-.98-.04-1.47,0-1.17-.57-2.43-.94-3.73-1.08Z"/>
      </g>
      <g>
        <path class="cls-9" d="M391.98,318.24c-1.88,1.42-3.97,2.54-6.18,3.34-5.53,2.12-11.36,3.38-17.27,3.73-3.65-4.97-6.1-10.71-7.16-16.78-.29-1.29-.49-2.6-.59-3.92-.41-2.98.17-6.02,1.67-8.63,1.78-2.45,4.74-3.76,7.75-3.43,2.94.37,5.58,1.98,7.26,4.42,1.61,2.5,2.3,5.48,1.96,8.44,2.62-2.54,6.17-3.89,9.81-3.73,1.8.3,3.44,1.24,4.61,2.65,1.11,1.31,1.83,2.91,2.06,4.61.32,3.57-1.15,7.06-3.92,9.32Z"/>
        <path class="cls-1" d="M391.98,318.24c-1.88,1.42-3.97,2.54-6.18,3.34-5.53,2.12-11.36,3.38-17.27,3.73-.49,0-2.16-3.24-2.35-3.73-.8-1.31-1.49-2.69-2.06-4.12-1.34-2.65-2.23-5.5-2.65-8.44,0,.59,1.96,1.86,2.45,2.16.87.57,1.79,1.06,2.75,1.47,1.73.81,3.54,1.43,5.4,1.86,3.69,1.02,7.6.85,11.19-.49,4.4-2.15,8.06-5.57,10.5-9.81.88,1.38,1.57,2.86,2.06,4.42.44,3.65-1,7.27-3.83,9.62Z"/>
        <path class="cls-1" d="M372.94,297.34c-1.07-.89-2.44-1.35-3.83-1.28-1.39-.01-2.69.69-3.43,1.86-.55.65-.73,1.54-.49,2.35.28.81,1.15,1.24,1.96.98.88,0,1.18-1.47,2.06-1.67.7-.14,1.4.17,1.77.78.35.56.65,1.15.88,1.77.34.64.96,1.07,1.67,1.18.69-.08,1.25-.59,1.37-1.28.1-.49.1-.99,0-1.47.06-.36.06-.72,0-1.08-.5-.84-1.17-1.58-1.96-2.16Z"/>
      </g>
      <g>
        <path class="cls-9" d="M130.29,384.28c.3,1.49.3,3.02,0,4.51-.69,3.7-1.95,7.28-3.73,10.6-3.91.38-7.84-.19-11.48-1.67l-2.35-.98c-1.98-.66-3.65-2.02-4.71-3.83-.72-1.76-.46-3.78.69-5.3,1.22-1.47,3-2.36,4.91-2.45,1.89-.07,3.74.56,5.2,1.77-.38-2.27.23-4.59,1.67-6.38.74-.9,1.79-1.5,2.94-1.67,1.03-.25,2.11-.25,3.14,0,2.08,1.05,3.48,3.08,3.73,5.4Z"/>
        <path class="cls-1" d="M130.29,384.28c.3,1.49.3,3.02,0,4.51-.69,3.7-1.95,7.28-3.73,10.6h-5.69c-1.89-.15-3.75-.62-5.49-1.37,0,0,1.67-.49,2.06-.59l1.67-1.08c1.01-.67,1.97-1.42,2.85-2.26,1.75-1.66,2.95-3.82,3.43-6.18.34-3.08-.24-6.18-1.67-8.93,1.01-.13,2.03-.13,3.04,0,1.97,1.08,3.29,3.06,3.53,5.3Z"/>
        <path class="cls-1" d="M112.63,387.71c-1.76.56-2.73,2.43-2.17,4.19,0,0,0,.02,0,.03.23.48.66.84,1.18.98.51.13,1.03-.18,1.18-.69v-1.67c.13-.43.54-.71.98-.69.42-.1.86-.1,1.28,0,.45.08.92-.11,1.18-.49.23-.36.23-.82,0-1.18-.15-.3-.39-.54-.69-.69h-.88c-.69-.08-1.4-.01-2.06.2Z"/>
      </g>
    </g>
    <path class="cls-3" d="M264.67,384.59c-40.33,0-73,5-73,11.09s32.67,10.99,73,10.99,73.1-4.91,73.1-10.99-32.77-11.09-73.1-11.09Z"/>
  </g>
</svg>