<?xml version="1.0" encoding="UTF-8"?>
<svg xmlns="http://www.w3.org/2000/svg" viewBox="0 0 500 500">
  <defs>
    <style>
      .cls-1 {
        opacity: .18;
      }

      .cls-2 {
        opacity: .67;
      }

      .cls-3 {
        fill: #495bc6;
      }

      .cls-3, .cls-4, .cls-5, .cls-6, .cls-7, .cls-8, .cls-9, .cls-10, .cls-11 {
        stroke-width: 0px;
      }

      .cls-4 {
        fill: #869eb4;
      }

      .cls-5 {
        fill: #3a3d42;
      }

      .cls-6 {
        fill: #0e074e;
      }

      .cls-7 {
        fill: #1c1c1c;
      }

      .cls-8 {
        fill: #4047bb;
      }

      .cls-9 {
        fill: #24272d;
      }

      .cls-10 {
        fill: #f1f4fd;
      }

      .cls-11 {
        fill: #fff;
      }
    </style>
  </defs>
  <g id="stiker_style" data-name="stiker style">
    <path class="cls-11" d="M402.89,151.68c.58-6.45-1.38-12.74-5.52-17.72-4.15-4.99-10-8.07-16.46-8.66-1.22-.11-2.46-.13-3.68-.06l-5.04.15h-.86l-.12.03-72.15,2.11h-.14c-13.92.67-25.48,11.62-26.88,25.48l-6.46,81.53c-.27-1.69-.53-3.4-.78-5.1-4-26.7-8.96-59.93-79.4-55.37-34.89,2.24-55.3,9.14-66.19,22.36-12.88,15.64-10.11,37.22-7.16,60.07.53,4.74,1.19,9.46,1.94,14.17-1.54-.27-3.13-.31-4.73-.06-3.8.59-7.15,2.62-9.43,5.73-2.27,3.11-3.2,6.91-2.62,10.69,1.24,8.22,3.78,16.15,7.54,23.56,2.47,4.87,7.39,7.89,12.87,7.89h0c2.24,0,4.49-.54,6.49-1.56.3-.15.59-.33.88-.5.38,1.18.75,2.36,1.14,3.54l.13.35c2.02,5.17,4.55,10.96,9.25,16.18-.65,3.73-1.64,7.4-2.97,10.95-.21.56-.38,1.13-.53,1.7-5.24,1.59-9.55,4.05-11,8.57-1.08,3.37-.19,7.01,2.38,9.73,5.72,6.06,17.88,7.36,41.32,7.36,7.52,0,16.21-.13,26.22-.29l3.05-.05c20.45-.38,35.96-1.28,46.12-2.68,5.18-.72,13.53-1.87,17.91-6.14,6.44,4.4,18.34,5.41,39.02,5.41,7.52,0,16.21-.13,26.22-.29l3.05-.05c20.45-.38,35.96-1.28,46.12-2.68,7.27-1,20.81-2.88,20.81-13.04,0-4.97-2.97-8-6.43-9.87.27-1.14.47-2.29.59-3.45l15.52-189.99ZM251.68,347.63c.12-4.19.05-8.4-.22-12.61,2.8-2.18,4.95-4.42,6.65-6.57l-.7,8.88c-.31,3.54.16,7.07,1.33,10.36-1.05.6-1.98,1.3-2.8,2.09-1.33-.91-2.8-1.61-4.26-2.15Z"/>
  </g>
  <g id="Bubus">
    <g>
      <g id="Phone">
        <path class="cls-4" d="M325.87,348.09c-42,0-69.65,4.52-64.36,10.11,5.28,5.6,29.04,5.06,64.63,4.52,41.69-.77,59.08-3.62,59.08-7.72,0-7.05-31.53-6.96-59.34-6.91Z"/>
        <g>
          <path class="cls-7" d="M359.28,358.45c10.28.29,19.05-7.38,20.13-17.61l15.5-189.84c.82-8.97-5.78-16.91-14.75-17.73-.86-.08-1.72-.09-2.58-.03l-73.22,2.14c-10.1.47-18.33,8.26-19.36,18.32l-14.64,184.46c-.8,9.19,6,17.3,15.19,18.1.39.03.79.05,1.19.06l72.53,2.12Z"/>
          <path class="cls-9" d="M354.04,358.3c10.26.29,19.01-7.38,20.08-17.58l15.46-189.58c.83-8.95-5.76-16.88-14.71-17.71-.86-.08-1.72-.09-2.57-.03l-73.02,2.14c-10.08.48-18.29,8.26-19.3,18.29l-14.6,184.21c-.81,9.18,5.98,17.27,15.15,18.08.39.03.79.06,1.18.06l72.34,2.12Z"/>
          <path class="cls-10" d="M298.94,139.72l4.26-.12c.77-.04,1.45.48,1.61,1.24l.86,4.1c.4,1.92,2.15,3.27,4.11,3.16l46.79-1.21c2.13-.09,4.01-1.44,4.76-3.44l1.56-4.23c.3-.79,1.04-1.32,1.88-1.35l7.17-.2c6.86-.45,12.79,4.74,13.24,11.6.04.66.03,1.32-.03,1.98l-15.42,189.36c-.81,7.81-7.5,13.69-15.36,13.47l-72.35-2.04c-7.04-.1-12.67-5.89-12.57-12.94,0-.32.02-.64.05-.95l14.63-184.42c.77-7.69,7.07-13.66,14.8-14.01Z"/>
        </g>
      </g>
      <g>
        <polygon class="cls-3" points="296.31 271.84 290.21 267.56 308.04 242.56 314.14 246.84 296.31 271.84"/>
        <path class="cls-8" d="M307.77,242.94l-1.7,15.2,7.79-10.93s-3.65-2.05-6.1-4.28Z"/>
        <g class="cls-1">
          <path class="cls-6" d="M305.52,230.81c-1.17-5.25-1.23-10.69-.18-15.96.99-5.08,2.87-10.46,6.14-14.57,1.34-1.72,2.93-3.23,4.71-4.49-14.13,7.23-19.72,24.54-12.49,38.67,1.73,3.39,4.12,6.39,7.02,8.85-2.53-3.75-4.22-8.14-5.21-12.5Z"/>
        </g>
        <path class="cls-5" d="M277.17,294.09l-2.63-1.84c-1.72-1.2-2.15-3.57-.95-5.29,0-.01.02-.02.02-.03l18.28-25.62c.2-.28.6-.35.88-.15l7.88,5.53c.28.2.35.59.16.87,0,0,0,0,0,0l-18.28,25.62c-1.24,1.72-3.63,2.13-5.37.91Z"/>
        <polygon class="cls-3" points="297.72 271.96 288.8 265.71 289.56 264.64 298.48 270.9 297.72 271.96"/>
        <polygon class="cls-3" points="295.85 274.47 286.93 268.21 287.69 267.15 296.6 273.41 295.85 274.47"/>
        <path class="cls-8" d="M310.92,246.6c-.08-.05-.15-.11-.22-.16-13.87-9.87-17.12-29.11-7.26-42.99,9.94-13.93,29.46-17.23,43.52-7.37.08.05.15.11.22.16,13.87,9.87,17.12,29.11,7.26,42.99-9.94,13.93-29.46,17.23-43.52,7.37ZM352.25,237.4c8.86-12.69,5.75-30.15-6.94-39.01-12.78-8.96-30.52-5.96-39.55,6.7-.05.07-.1.14-.14.2-8.86,12.69-5.75,30.15,6.94,39.01,12.78,8.96,30.52,5.96,39.55-6.7.05-.07.1-.14.14-.2Z"/>
        <path class="cls-6" d="M300.24,219.45c.95-15.71,14.62-27.71,30.47-26.75,15.85.96,27.97,14.52,27.02,30.23-.95,15.71-14.62,27.71-30.47,26.75-15.85-.96-27.97-14.52-27.02-30.23ZM327.29,249.14c15.55.94,28.96-10.83,29.89-26.24.93-15.41-10.95-28.72-26.5-29.66-15.55-.94-28.96,10.83-29.89,26.24-.93,15.41,10.95,28.72,26.5,29.66h0Z"/>
        <g class="cls-2">
          <path class="cls-11" d="M318.19,199.76c3.38-2.39,7.69-3.44,11.81-3.23,3.55.18,7.49,1.59,9.63,4.61.32.46-.06,1.27-.68.98-2.87-1.35-5.76-2.38-8.94-2.5-3.64-.13-6.91,1.27-10.15,2.72-1.53.68-3.13-1.54-1.66-2.57Z"/>
        </g>
      </g>
      <g id="Loupe">
        <path class="cls-9" d="M287.27,287.76c-.67,0-1.34-.13-1.97-.38-6.2-2.29-11.93-5.66-16.94-9.97-2.07-2.08-2.06-5.44.02-7.51,2.08-2.07,5.44-2.06,7.51.02.03.03.05.05.08.08,3.96,3.26,8.45,5.8,13.28,7.52,2.72,1.09,4.05,4.18,2.96,6.9-.81,2.02-2.76,3.34-4.93,3.34h0Z"/>
      </g>
      <path class="cls-4" d="M193.55,351.84c-42,0-69.65,4.52-64.36,10.11,5.28,5.6,29.04,5.06,64.63,4.52,41.69-.77,59.08-3.62,59.08-7.72,0-7.05-31.53-6.96-59.34-6.91Z"/>
      <path class="cls-9" d="M185.88,182.06c-73.07,4.7-71.57,29.77-65.92,73.49,2.34,21.05,6.94,41.79,13.73,61.85,5.77,14.74,14.03,29.59,63.68,25.45,49.64-4.15,56.02-20.05,59.2-28.02,3.19-7.97,4.78-55.69,1.13-78.68-4.51-27.86-4.29-58.46-71.82-54.09Z"/>
      <path class="cls-9" d="M235.84,358.96c-.16,0-.33,0-.5-.02-4.22-.27-7.42-3.91-7.15-8.13.54-8.36.13-16.76-1.21-25.04-.69-4.17,2.13-8.11,6.3-8.8,4.17-.69,8.11,2.13,8.8,6.3,0,.02,0,.03,0,.05,1.53,9.41,1.99,18.96,1.38,28.48-.26,4.03-3.6,7.16-7.63,7.16Z"/>
      <path class="cls-9" d="M147.19,360.56c-4.23,0-7.66-3.44-7.65-7.67,0-.91.16-1.81.48-2.66,3.18-8.51,4.65-17.55,4.34-26.63-.13-4.23,3.19-7.76,7.41-7.89,4.21-.13,7.74,3.17,7.89,7.38.38,11.07-1.42,22.1-5.3,32.48-1.11,3-3.98,4.99-7.17,4.99Z"/>
      <path class="cls-9" d="M117.58,310.48c-2.42,0-4.63-1.36-5.72-3.51-3.37-6.64-5.66-13.78-6.77-21.14-.54-3.5,1.86-6.78,5.36-7.32,3.5-.54,6.78,1.86,7.32,5.36,0,.01,0,.03,0,.04.91,6.01,2.77,11.84,5.52,17.25,1.6,3.16.34,7.02-2.82,8.62-.9.45-1.89.69-2.89.69h0Z"/>
    </g>
  </g>
</svg>