<?xml version="1.0" encoding="UTF-8"?>
<svg xmlns="http://www.w3.org/2000/svg" xmlns:xlink="http://www.w3.org/1999/xlink" viewBox="0 0 500 500">
  <defs>
    <style>
      .cls-1 {
        fill: url(#Dégradé_sans_nom_4);
      }

      .cls-1, .cls-2, .cls-3, .cls-4, .cls-5, .cls-6, .cls-7, .cls-8, .cls-9, .cls-10, .cls-11, .cls-12, .cls-13, .cls-14, .cls-15, .cls-16, .cls-17, .cls-18 {
        stroke-width: 0px;
      }

      .cls-2 {
        fill: #ac2f78;
        opacity: .3;
      }

      .cls-2, .cls-3 {
        isolation: isolate;
      }

      .cls-3 {
        fill: #32318e;
      }

      .cls-3, .cls-19 {
        opacity: .4;
      }

      .cls-4, .cls-5, .cls-6, .cls-7 {
        fill-rule: evenodd;
      }

      .cls-4, .cls-14 {
        fill: #272c32;
      }

      .cls-5 {
        fill: #869eb4;
      }

      .cls-6, .cls-16 {
        fill: #c8d2ec;
      }

      .cls-7, .cls-17 {
        fill: #fff;
      }

      .cls-8 {
        fill: #f46e75;
      }

      .cls-9 {
        fill: #f7b46f;
      }

      .cls-10 {
        fill: #fad99f;
      }

      .cls-11 {
        fill: #4c52bb;
      }

      .cls-12 {
        fill: #708bf1;
      }

      .cls-13 {
        fill: #5863c5;
      }

      .cls-15 {
        fill: #ca8548;
      }

      .cls-18 {
        fill: #fceccb;
      }
    </style>
    <linearGradient id="Dégradé_sans_nom_4" data-name="Dégradé sans nom 4" x1="106.62" y1="1393.99" x2="203.53" y2="1376.94" gradientTransform="translate(0 1542) scale(1 -1)" gradientUnits="userSpaceOnUse">
      <stop offset="0" stop-color="#ffec34"/>
      <stop offset="1" stop-color="#ff9c51"/>
    </linearGradient>
  </defs>
  <g id="stiker_style" data-name="stiker style">
    <path class="cls-17" d="M402.7,261.97s-.08-.05-.12-.07c-6.11-3.6-14.03-1.65-17.8,4.32-.99,1.45-2.07,2.82-3.24,4.11-.07-1.29-.15-2.46-.22-3.43-1.11-15.64-3.38-30.44-6.58-42.8-3.72-14.37-8.46-24.45-14.09-29.98-.08-.08-.16-.15-.24-.22-1.08-8.12-3.07-16.14-5.92-23.82-.06-.16-.12-.31-.19-.47-5.33-12.02-12.99-22.58-22.76-31.38-.11-.1-.22-.2-.34-.29-9.41-7.56-20.63-12.84-32.44-15.28-.53-.11-1.07-.17-1.61-.17h-2.34c-1.32,0-2.62.1-3.86.28-2.54.38-4.92,1.14-7.08,2.27-1.08.56-2.11,1.22-3.05,1.95-.48.37-.94.76-1.38,1.17-3.92,3.63-6.17,8.66-6.36,14.14-.02.58-.02,1.17.01,1.78.11,2.36.6,4.73,1.46,7.06.64,1.73,1.48,3.42,2.51,5.04.68,1.08,1.46,2.14,2.31,3.17,1.71,2.05,3.75,3.97,6.02,5.65,5.46,4.11,12.38,6.68,19.07,9.16,4.96,1.84,10.08,3.74,13.17,5.87-18.89-1.13-40.44,1.39-58.96,7.2-3.7-4.31-7.67-8.37-11.87-12.1-.13-.11-.26-.22-.39-.33-10.25-8.02-21.71-13.88-34.13-17.47,0-.26,0-.52,0-.77,0-31.54-25.66-57.19-57.19-57.19s-57.19,25.66-57.19,57.19,25.66,57.19,57.19,57.19c9.14,0,18.15-2.2,26.24-6.38,6.62.48,13.6-.72,20.37-1.89,5.84-1.01,11.86-2.05,16.04-1.56,2.73.47,5.4,1.14,8.01,2.01-.71.83-1.36,1.68-1.94,2.54-7.87,11.59-6.57,37.64-2.76,61.59-1.47-.41-3.03-.58-4.65-.46-.3.02-.59.05-.88.1-.14.02-.28.04-.42.07-3.7.73-7.31,1.84-10.77,3.31-.79-.66-1.6-1.29-2.41-1.89l-2.16-1.59c-.26-.19-.54-.37-.82-.53l-1.72-.97c-11.97-8.79-27.14-12.1-41.7-9.08-.05.01-.1.02-.15.03-14.36,3.27-26.53,12.62-33.38,25.66l-7.3,13.28c-1.65.88-2.78,2.02-3.52,3.03-.78,1.05-1.76,2.81-2.02,5.26l-2.09,1.5c-4.03,2.65-7.67,5.84-10.85,9.47-.11.13-.22.26-.33.4-.96,1.26-1.81,2.62-2.53,4.09-8.2,16.94,7.23,33.66,22.65,46.08-2.47.4-4.77.85-6.87,1.35-4.26,1.03-17.23,4.15-17.23,14.15s13.94,13.44,18.52,14.46c8.44,1.88,19.65,2.91,31.56,2.91s23.18-1.02,31.58-2.87c4.6-1.01,18.58-4.09,18.58-14.5,0-3.39-1.46-6.29-4.35-8.66.5-1.15.95-2.32,1.37-3.51.68-1.09,1.1-2.34,1.19-3.67,0-.09.01-.18.02-.27,2.39-.87,3.96-2.33,4.97-3.68.7-.94,1.42-2.25,1.81-3.94l11.07-10.76c2.16-2.12,4.12-4.43,5.85-6.9,2.63.86,5.39,1.32,8.17,1.34.69,1.13,1.63,2.14,2.77,2.97.05.03.1.07.14.1,1.3.9,2.74,1.53,4.28,1.87.07.02.15.03.22.05,4.53.89,9.22.58,13.6-.87.09-.02.18-.04.27-.06.58-.14,1.15-.3,1.71-.49,1.91,2.91,3.83,5.22,5.78,6.99.82.74,1.67,1.45,2.54,2.12-1.01,1.19-2.11,2.3-3.31,3.33-3.88,3.16-5.96,7.78-5.96,12.51-2.32,2.07-3.48,4.58-3.48,7.52,0,9.95,12.67,12.73,24.55,14.56,11.79,1.81,27.44,2.81,44.07,2.81s32.32-.99,44.02-2.77c12.73-1.95,24.51-5.06,24.51-14.6,0-4.5-2.62-7.57-6.73-9.76,4.64-6.24,6.65-14.04,5.53-21.83-.02-.11-.04-.23-.06-.34-.55-2.91-1.56-5.71-2.99-8.28,5.11-10.44,7.23-25.33,7.97-39.16.09,0,.18.02.27.03.12,0,.25,0,.37,0,.05,0,.09,0,.14,0,2.47-.04,4.87-.77,6.96-2.09.05-.03.09-.06.14-.09,7.02-4.66,12.88-10.62,17.41-17.73.03-.05.07-.11.1-.16,3.71-6.13,1.75-14.15-4.35-17.9ZM194.74,323.17c-4.07-4.34-9.42-7.13-15.14-8.09,0-1.56-.09-3.12-.26-4.68-.09-.82-.3-1.62-.62-2.36-.13-.35-.28-.7-.46-1.03-.02-.08-.04-.15-.06-.23-.01-.41-.04-.81-.09-1.22-.15-1.25-.59-2.4-1.23-3.39-.01-.03-.03-.06-.04-.08-2.23-5.79-6.4-10.61-11.83-13.67-.25-.14-.5-.27-.76-.38-4.61-1.98-9.62-2.55-14.53-1.68-.52.01-1.04.08-1.55.2-1.43.33-2.85.75-4.23,1.26,4.14-4.62,9.67-7.84,15.9-9.15,8.95-1.88,18.28.19,25.64,5.73l2.16,1.59c.06.05.12.09.19.13l.91.63c-.92,3.58-.47,7.48,1.52,10.87,1.77,3.06,4.63,5.25,8.05,6.16,1.03.28,2.08.42,3.12.45.59,2.01.99,4.08,1.17,6.18.54,6.34-.96,12.56-4.2,17.86-.76-1.92-1.99-3.63-3.64-5.1ZM340.9,363.18c-3.79-.34-7.8-.61-11.98-.82,4.02-.85,8.02-1.84,11.99-2.97-.15,1.26-.16,2.54-.02,3.79Z"/>
  </g>
  <g id="Bubus">
    <g>
      <circle class="cls-1" cx="155.07" cy="156.53" r="49.19"/>
      <path class="cls-5" d="M309.4,369.89c33.45,0,60.53,4.03,60.53,9.37s-27.08,9.37-60.53,9.37-60.62-4.12-60.62-9.37,27.17-9.37,60.62-9.37Z"/>
      <path class="cls-5" d="M141.95,373.92c23.33,0,42.17,4.03,42.17,9.37s-18.74,9.37-42.17,9.37-42.07-4.12-42.07-9.37,18.83-9.37,42.07-9.37Z"/>
      <path class="cls-7" d="M241.09,339.62c-3.18,1.14-6.61,1.4-9.93.75-.54-.12-1.05-.34-1.5-.66-1.69-1.22-1.12-3.37,3.37-6.37-2.56.83-5.2,1.4-7.87,1.69-4.28.64-8.65-.22-12.37-2.44-7.12-4.78-2.25-19.58,12.56-18.08-6.84-6.47-7.5-13.59-5.62-16.02,3.84-4.97,10.68-2.81,14.43,0,1.28,1.37,2.44,2.84,3.47,4.4,5.81,6.31,10.27,13.74,13.12,21.83,1.57,6.6-2.51,13.21-9.1,14.78-.18.04-.36.08-.55.12Z"/>
      <g class="cls-19">
        <path class="cls-6" d="M241.09,339.62c-3.18,1.14-6.61,1.4-9.93.75-.54-.12-1.05-.34-1.5-.66-1.69-1.22-1.12-3.37,3.37-6.37-2.56.83-5.2,1.4-7.87,1.69-2.06-6.09,3.47-15.46,15.27-14.34-6.84-6.37-7.5-13.59-5.62-15.93.78-.83,1.74-1.47,2.81-1.87,5.81,6.31,10.27,13.74,13.12,21.83,1.57,6.6-2.51,13.21-9.1,14.78-.18.04-.36.08-.55.12Z"/>
      </g>
      <g>
        <path class="cls-14" d="M355.03,199.82c-24.74-22.3-108.04-11.15-124.62,13.12-13.68,20.15,7.21,118.06,25.95,134.93,2.47,2.25,5.29,4.08,8.34,5.43-2.26,4.63-5.45,8.75-9.37,12.09-3.51,2.8-4.1,7.91-1.31,11.43,1.48,2.03,3.86,3.22,6.37,3.19,1.82,0,3.6-.59,5.06-1.69,6.56-5.6,11.73-12.66,15.09-20.61,23.3,1.64,46.68-1.55,68.68-9.37h0c2.34,1.5,3.37,2.81,3.47,3.47-.17,1.66-.9,3.21-2.06,4.4-2.85,3.49-2.33,8.62,1.15,11.47.02.02.04.04.07.05,1.49,1.12,3.29,1.75,5.15,1.78,2.48-.03,4.81-1.17,6.37-3.09,4.36-4.76,6.35-11.23,5.43-17.62-.65-3.48-2.24-6.72-4.59-9.37,17.43-24.55,9.93-120.87-9.18-139.61Z"/>
        <path class="cls-14" d="M398.5,268.79c-2.43-1.43-5.57-.64-7.03,1.78-3.18,4.71-7.22,8.77-11.9,11.99-2.33,1.63-2.9,4.85-1.27,7.18.92,1.31,2.39,2.12,3.98,2.19,1-.02,1.97-.31,2.81-.84,6.05-4.01,11.19-9.25,15.09-15.37,1.44-2.38.69-5.48-1.69-6.93Z"/>
      </g>
      <g>
        <path class="cls-17" d="M318.95,308.42c-33.54,2.44-40.38-8.71-46.1-2.9s-1.78,23.71,19.68,34.58c16.15,6.76,34.55,5.43,49.57-3.56,10.59-7.21,21.93-24.08,15.46-39.73-2.53-6.28-14.99,9.93-38.6,11.62Z"/>
        <path class="cls-17" d="M359.43,269.35c-5.53-2.53-11.71,2.06-13.21,9.37,0,1.69,1.22,2.72,2.34,1.59,2.03-2.31,5.13-3.38,8.15-2.81,2.48.59,4.55,2.28,5.62,4.59.75,1.31,2.62.56,2.62-1.22.05-.28.05-.56,0-.84.35-4.33-1.79-8.47-5.53-10.68Z"/>
        <path class="cls-17" d="M274.35,292.59c1.13-.13,1.94-1.16,1.8-2.29,0-.05-.01-.1-.02-.15.03-.22.03-.44,0-.66h0c-2.11-5.67-8.23-8.77-14.06-7.12-6.1,2.58-8.96,9.61-6.38,15.71,0,0,0,.02.01.03v.56c.34,1.09,1.5,1.69,2.58,1.35.65-.2,1.15-.71,1.35-1.35,1.03-2.9,3.24-5.21,6.09-6.37,2.43-.98,5.16-.98,7.59,0,.3.21.67.31,1.03.28Z"/>
        <path class="cls-17" d="M258.8,274.78c33.57-6.93,67.62-11.26,101.85-12.93,8.34,0,4.5-34.11-6.47-38.98-17.8-7.87-83.58-3.56-100.45,10.49-9.18,7.4-6.75,43.95,5.06,41.42Z"/>
        <path class="cls-17" d="M274.07,215.38c.68.1,1.38.1,2.06,0,18.27-5.15,37.33-6.83,56.22-4.97,3.7.44,7.06-2.2,7.5-5.9.44-3.7-2.2-7.06-5.9-7.5-20.81-2.15-41.84-.28-61.94,5.53-3.52,1.22-5.39,5.06-4.17,8.58.91,2.64,3.35,4.44,6.14,4.54l.09-.28Z"/>
      </g>
      <path class="cls-4" d="M395.79,273.19c-3.5,5.44-8.1,10.1-13.49,13.68"/>
      <path class="cls-7" d="M265.73,217.44c-3.47,5.34-10.49-3.84-19.96-10.21-1.97-1.31-4.22-2.72-6.56-4.03-6.3-3.57-13.19-6.01-20.33-7.21-11.06-1.41-27.08,4.87-38.89,3.19-21.64-3.09-26.7-25.67-9.28-32.61l4.31-1.41h0c9.99-2.67,20.45-3.12,30.64-1.31,13.03,3.11,25.24,8.99,35.79,17.24,6.66,5.93,12.63,12.6,17.8,19.86,2.53,4.22,8.53,13.49,6.47,16.49Z"/>
      <g class="cls-19">
        <path class="cls-6" d="M239.31,203.2c-6.33-3.58-13.25-6.02-20.43-7.21-11.06-1.41-27.08,4.87-38.89,3.19-21.64-3.09-26.7-25.67-9.28-32.61l4.31-1.41h0c9.88-.15,19.69,1.8,28.77,5.72,11.97,6.12,22.49,14.75,30.83,25.3,1.69,2.26,3.25,4.6,4.69,7.03Z"/>
      </g>
      <path class="cls-7" d="M350.72,210.32c-5.06,2.34-6.65-7.4-11.43-16.3-3.23-5.98-7.3-11.47-12.09-16.3-1.45-1.47-3.01-2.82-4.69-4.03-8.25-5.9-23.61-8.53-32.33-15.09-14.9-11.06-10.31-28.11,4.59-28.11h2.34c10.63,2.19,20.59,6.88,29.05,13.68,8.87,7.99,15.96,17.76,20.8,28.67,2.67,7.23,4.53,14.75,5.53,22.39.37,4.59,1.03,13.96-1.78,15.09Z"/>
      <g class="cls-19">
        <path class="cls-6" d="M327.2,177.71c-1.45-1.47-3.01-2.82-4.69-4.03-8.25-5.9-23.61-8.53-32.33-15.09-14.9-11.06-10.31-28.11,4.59-28.11,8.19,4.77,15.33,11.14,20.99,18.74,5.56,8.7,9.44,18.36,11.43,28.48Z"/>
      </g>
      <g>
        <g>
          <path class="cls-9" d="M182.34,366.89c.03-.41.03-.81,0-1.22.84-2.34,1.59-4.69,2.34-6.75l-32.98-24.74-33.26-24.74-5.81,4.12-1.03.75h0c-3.48,2.27-6.64,5.02-9.37,8.15h0c-.65.85-1.21,1.76-1.69,2.72h0c-4.22,8.71-.47,20.99,26.89,41.32,27.36,20.33,40.29,20.43,46.85,13.87h0c.99-.75,1.9-1.59,2.72-2.53h0c2.24-3.45,3.97-7.21,5.15-11.15l.19.19Z"/>
          <path class="cls-10" d="M111.59,314.33c-3.48,2.27-6.64,5.02-9.37,8.15.94,8.71,9.37,20.33,30.92,36.54,21.55,16.21,35.23,20.61,43.85,18.74,2.24-3.45,3.97-7.21,5.15-11.15-7.96-.94-20.15-6.75-39.26-20.99-19.11-14.24-28.11-23.99-31.3-31.3Z"/>
        </g>
        <path class="cls-9" d="M214.95,309.45c-1.05-12.69-7.54-24.31-17.8-31.86l-2.16-1.59-2.16-1.22c-10.2-7.66-23.21-10.56-35.7-7.96-12.09,2.75-22.36,10.66-28.11,21.64l-11.43,20.8,4.03,2.06,10.96-21.08c5.19-9.97,14.58-17.09,25.58-19.4,11.21-2.36,22.89.24,32.05,7.12l2.16,1.59,2.16,1.5c9.18,6.84,15.01,17.27,16.02,28.67.95,11.21-3.17,22.25-11.24,30.08l-17.05,16.68,3.28,3.19,17.05-16.58c8.95-8.79,13.49-21.14,12.37-33.64Z"/>
        <ellipse class="cls-10" cx="153.23" cy="332.24" rx="10.21" ry="44.41" transform="translate(-204.85 257.1) rotate(-53.39)"/>
        <g>
          <path class="cls-15" d="M125.84,315.36c.99-2.21,2.25-4.29,3.75-6.18-3.56-1.41-6-1.69-6.84-.66-.84,1.03,0,3.56,2.9,6.84h.19Z"/>
          <path class="cls-15" d="M181.4,351.99c-1.02.77-2.09,1.49-3.19,2.16,3.09,1.12,5.34,1.31,6.09,0,.75-1.31,0-2.25-1.03-4.12l-.75.56-1.12,1.41Z"/>
          <path class="cls-18" d="M143.92,296.33c-1.81.87-3.53,1.9-5.15,3.09h0c1.63-1.17,3.35-2.2,5.15-3.09Z"/>
          <path class="cls-18" d="M143.17,300.93c2.13.98,4.32,1.82,6.56,2.53,6.46,1.98,13.21,2.8,19.96,2.44-1.46-4.45-4.54-8.2-8.62-10.49-3.34-1.43-7.04-1.79-10.59-1.03-2.66,1.92-5.11,4.12-7.31,6.56Z"/>
          <path class="cls-18" d="M131.55,306.74h0l-1.87,2.53h0c.66-.94,1.22-1.78,1.87-2.53Z"/>
          <path class="cls-18" d="M148.61,312.26c-3.8-.71-7.53-1.75-11.15-3.09-.6.99-1.14,2.02-1.59,3.09,5.61,2.81,11.06,5.93,16.3,9.37,6.48.37,12.97-.36,19.21-2.16.29-2.74.29-5.5,0-8.25-7.46,1.78-15.18,2.13-22.77,1.03Z"/>
          <path class="cls-18" d="M149.54,335.31c.54-1.2,1.27-2.31,2.16-3.28h0c.64-.7,1.33-1.36,2.06-1.97-2.31.18-4.63.18-6.93,0-2.25.14-4.5.14-6.75,0,2.72,2.25,5.62,4.59,8.81,6.93h0c.13-.59.35-1.16.66-1.69Z"/>
          <path class="cls-18" d="M133.33,318.17c4.34,1.61,8.83,2.77,13.4,3.47,1.87,0,3.65,0,5.43.47-5.24-3.6-10.68-6.88-16.3-9.84-.96,1.92-1.8,3.89-2.53,5.9Z"/>
          <path class="cls-18" d="M129.68,309.17h0c-.82,1.04-1.58,2.14-2.25,3.28.66-1.22,1.5-2.16,2.25-3.28Z"/>
          <path class="cls-8" d="M169.78,305.89h0c.05.44.05.88,0,1.31v-1.31Z"/>
          <path class="cls-8" d="M171.19,311.61c-.04-.28-.04-.56,0-.84-.05.28-.05.56,0,.84Z"/>
          <path class="cls-8" d="M132.11,305.99l-.66.66h.56l.09-.66Z"/>
          <path class="cls-8" d="M137.64,300.64c-.85.64-1.67,1.32-2.44,2.06.7-.68,1.45-1.31,2.25-1.87l.19-.19Z"/>
          <path class="cls-8" d="M134.55,303.83l-.75.84h0l.75-.84Z"/>
          <path class="cls-8" d="M132.02,306.17h-.56s.37.09.56,0Z"/>
          <path class="cls-8" d="M137.46,300.83c-.79.57-1.55,1.19-2.25,1.87l-.66,1.12-.66.75c1.1-1.33,2.29-2.58,3.56-3.75Z"/>
          <path class="cls-13" d="M143.17,300.93c-1.92,2.16-3.64,4.48-5.15,6.93-.22.32-.41.67-.56,1.03,3.61,1.44,7.34,2.57,11.15,3.37,7.43,1.4,15.06,1.4,22.49,0-.05-.28-.05-.56,0-.84-.25-1.2-.56-2.39-.94-3.56.05-.44.05-.88,0-1.31-6.74.37-13.5-.46-19.96-2.44-2.41-.9-4.76-1.96-7.03-3.19Z"/>
          <path class="cls-13" d="M157.79,326.04l.84.66c1.74-.91,3.56-1.66,5.43-2.25,2.23-.65,4.52-1.09,6.84-1.31v-3.09h0c-6.09,1.75-12.42,2.47-18.74,2.16l5.62,3.84Z"/>
          <path class="cls-13" d="M153.95,329.79c1.44-1.2,3.01-2.24,4.69-3.09l-.84-.66-5.62-4.4c-1.78,0-3.56,0-5.43-.47-4.57-.67-9.06-1.8-13.4-3.37-.39,1.45-.71,2.92-.94,4.4,2.25,2.25,4.97,4.59,7.87,7.03,2.25.14,4.5.14,6.75,0,2.29.37,4.61.56,6.93.56Z"/>
          <path class="cls-18" d="M143.17,300.93c2.2-2.44,4.65-4.63,7.31-6.56h-.56c-1.57.36-3.11.86-4.59,1.5l-1.41.47c-1.77.89-3.46,1.93-5.06,3.09,1.4.6,2.84,1.1,4.31,1.5Z"/>
          <path class="cls-2" d="M143.17,300.93c2.2-2.44,4.65-4.63,7.31-6.56h-.56c-1.57.36-3.11.86-4.59,1.5l-1.41.47c-1.77.89-3.46,1.93-5.06,3.09,1.4.6,2.84,1.1,4.31,1.5Z"/>
          <path class="cls-18" d="M137.46,308.89c-1.97-.66-3.94-1.31-5.9-2.16-.66.75-1.22,1.59-1.87,2.44,2.12.81,4.18,1.75,6.18,2.81.46-1.07.99-2.1,1.59-3.09Z"/>
          <path class="cls-2" d="M137.46,308.89c-1.97-.66-3.94-1.31-5.9-2.16-.66.75-1.22,1.59-1.87,2.44,2.12.81,4.18,1.75,6.18,2.81.46-1.07.99-2.1,1.59-3.09Z"/>
          <path class="cls-18" d="M129.68,309.17c-.75,1.12-1.59,2.06-2.34,3.28-.55.94-1.05,1.91-1.5,2.9,2.44,1.07,4.95,2.01,7.5,2.81.73-2.02,1.57-3.99,2.53-5.9-2-1.16-4.06-2.19-6.18-3.09Z"/>
          <path class="cls-2" d="M129.68,309.17c-.75,1.12-1.59,2.06-2.34,3.28-.55.94-1.05,1.91-1.5,2.9,2.44,1.07,4.95,2.01,7.5,2.81.73-2.02,1.57-3.99,2.53-5.9-2-1.16-4.06-2.19-6.18-3.09Z"/>
          <path class="cls-8" d="M138.77,299.71h0l-1.03.84h0l1.03-.84Z"/>
          <path class="cls-2" d="M138.77,299.71h0l-1.03.84h0l1.03-.84Z"/>
          <path class="cls-8" d="M133.43,304.58h0l-1.22,1.31h0l1.22-1.31Z"/>
          <path class="cls-2" d="M133.43,304.58h0l-1.22,1.31h0l1.22-1.31Z"/>
          <path class="cls-11" d="M138.02,307.86c1.51-2.46,3.24-4.78,5.15-6.93-1.34-.42-2.66-.92-3.94-1.5h0l-1.31,1.12c-1.43,1.15-2.78,2.4-4.03,3.75l-1.41,1.59-.47.56c1.97.84,3.94,1.5,5.9,2.16.01-.25.05-.5.09-.75Z"/>
          <path class="cls-11" d="M125.84,315.36h0c2.08,2.5,4.3,4.88,6.65,7.12.23-1.48.54-2.95.94-4.4-2.58-.76-5.11-1.67-7.59-2.72Z"/>
          <path class="cls-12" d="M186.65,347.21c1.02-1.17,1.9-2.46,2.62-3.84-.72,1.38-1.6,2.67-2.62,3.84Z"/>
          <path class="cls-12" d="M183.65,350.4l2.16-2.25c-.67.76-1.39,1.48-2.16,2.16v.09Z"/>
          <path class="cls-12" d="M190.77,339.44c-.34,1.12-.74,2.21-1.22,3.28.47-1.07.88-2.16,1.22-3.28Z"/>
          <path class="cls-12" d="M185.43,344.31c2.06-1.54,3.92-3.33,5.53-5.34.8-2.6.74-5.4-.19-7.96,1.31,3.84-.66,8.71-5.34,13.31Z"/>
          <path class="cls-12" d="M182.9,350.96l.75-.56h0l-.75.56Z"/>
          <path class="cls-12" d="M178.5,354.15h0c1.1-.66,2.16-1.38,3.19-2.16l-3.19,2.16Z"/>
          <path class="cls-12" d="M170.53,325.85h0v1.03c10.12-2.25,18.74,0,20.43,4.4-4.23-6.54-12.06-9.79-19.68-8.15v.75l-.75,1.97Z"/>
          <path class="cls-12" d="M165.57,328.19c1.59-.56,3.09-.94,4.59-1.31v-1.03c-3.03,1.22-6.17,2.16-9.37,2.81l1.12.84c1.18-.53,2.41-.96,3.65-1.31Z"/>
          <path class="cls-12" d="M151.79,336.63c2.97-3.24,6.71-5.69,10.87-7.12l-1.12-.84c-2.37.56-4.78.94-7.21,1.12-.73.61-1.42,1.27-2.06,1.97-.39,1.59-.55,3.23-.47,4.87Z"/>
          <path class="cls-12" d="M149.54,335.31c.54-1.2,1.27-2.31,2.16-3.28-.89.97-1.62,2.08-2.16,3.28Z"/>
          <path class="cls-12" d="M158.63,326.69l2.53,1.97c3.2-.65,6.34-1.59,9.37-2.81v-2.72c-2.32.22-4.61.66-6.84,1.31-1.75.61-3.44,1.36-5.06,2.25Z"/>
          <path class="cls-12" d="M158.63,326.69c-1.67.85-3.24,1.89-4.69,3.09,2.43-.18,4.84-.56,7.21-1.12l-2.53-1.97Z"/>
          <path class="cls-16" d="M177.09,342.53c1.59,1.69,3.09,3.19,4.22,4.59,1.46-.81,2.84-1.75,4.12-2.81,4.69-4.59,6.65-9.37,5.15-13.02.84,2.06-4.5,6.56-13.49,11.24Z"/>
          <path class="cls-16" d="M181.4,347.12c-1.12-1.41-2.62-2.9-4.22-4.59l-4.5,2.25-7.03,2.9c2.06,1.22,4.03,2.34,5.9,3.28,3.29-.6,6.45-1.74,9.37-3.37l.47-.47Z"/>
          <path class="cls-16" d="M170.16,326.88c-.37,1.88-.87,3.72-1.5,5.53-.19.32-.35.67-.47,1.03h0c-.05.22-.05.44,0,.66l.84.66c11.71-4.5,20.8-5.81,21.83-3.47-2.34-4.78-10.59-6.65-20.71-4.4Z"/>
          <path class="cls-16" d="M168.47,334.85h0l-.84-.66-.56,1.22,1.41-.56Z"/>
          <path class="cls-16" d="M162.66,329.5c1.78,1.41,3.56,2.81,5.15,4.22h.75c.12-.36.27-.71.47-1.03.63-1.8,1.13-3.65,1.5-5.53-1.5,0-3,.75-4.59,1.31-1.11.27-2.21.62-3.28,1.03Z"/>
          <path class="cls-16" d="M151.79,336.63c.15.58.33,1.14.56,1.69,5.22-.81,10.3-2.36,15.09-4.59-1.59-1.41-3.37-2.81-5.15-4.22-4.02,1.49-7.63,3.93-10.49,7.12Z"/>
          <path class="cls-16" d="M167.91,334.1c-.05-.22-.05-.44,0-.66h0v.66Z"/>
          <path class="cls-16" d="M167.35,335.31h0l.56-1.22h0l-.56,1.22Z"/>
          <path class="cls-16" d="M167.91,334.1v-.66h-.75l.75.66Z"/>
          <path class="cls-16" d="M167.35,335.31l.56-1.22h-.47c-4.79,2.23-9.87,3.78-15.09,4.59-.04.25-.04.5,0,.75l2.9,2.06c3.81-2.46,7.86-4.54,12.09-6.18Z"/>
          <path class="cls-12" d="M168.75,334.75c3.19,2.72,6,5.34,8.34,7.78,9.37-4.69,14.34-9.37,13.49-11.24-.84-1.87-10.12-1.03-21.83,3.47Z"/>
          <path class="cls-12" d="M167.35,335.31l-1.5,3.37-.84,1.69c-.47.75-.84,1.59-1.31,2.25h0c-.66.94-1.31,1.97-1.97,2.81l4.12,2.53,7.03-2.9,4.5-2.25c-2.34-2.44-5.15-5.06-8.34-7.78h0l-1.69.28Z"/>
          <path class="cls-12" d="M159.57,343.93l1.87,1.22c.66-.84,1.31-1.87,1.97-2.81-.75.66-2.53,1.03-3.84,1.59Z"/>
          <path class="cls-12" d="M163.69,342.25c.47-.66.84-1.5,1.31-2.25-.48.82-1.01,1.6-1.59,2.34l.28-.09Z"/>
          <path class="cls-12" d="M167.35,335.31h0l-1.5,3.37,1.5-3.37Z"/>
          <path class="cls-12" d="M165,340.37l.84-1.31,1.5-3.37c-4.15,1.54-8.13,3.49-11.9,5.81l4.12,2.81c1.31-.56,2.62-.94,3.84-1.59.58-.74,1.12-1.53,1.59-2.34Z"/>
          <path class="cls-2" d="M189.65,342.72v.66c0,.19-.19-.47,0-.66Z"/>
          <path class="cls-2" d="M186.65,347.21l-.84.94.84-.94Z"/>
          <path class="cls-15" d="M182.9,350.96l-1.12,1.03,1.12-1.03Z"/>
          <path class="cls-2" d="M182.9,350.96l-1.12,1.03,1.12-1.03Z"/>
          <path class="cls-18" d="M149.07,336.44c-.04-.37-.04-.75,0-1.12-.04.37-.04.75,0,1.12Z"/>
          <path class="cls-2" d="M149.07,336.44c-.04-.37-.04-.75,0-1.12-.04.37-.04.75,0,1.12Z"/>
          <path class="cls-12" d="M189.65,342.72c.44-1.07.82-2.16,1.12-3.28h0c-1.61,2.01-3.46,3.8-5.53,5.34-1.18,1.18-2.46,2.25-3.84,3.19.73.9,1.42,1.84,2.06,2.81.76-.67,1.48-1.39,2.16-2.16l.84-.94c1.02-1.17,1.9-2.46,2.62-3.84,0,0,.37-.94.56-1.12Z"/>
          <path class="cls-3" d="M189.65,342.72c.44-1.07.82-2.16,1.12-3.28h0c-1.61,2.01-3.46,3.8-5.53,5.34-1.18,1.18-2.46,2.25-3.84,3.19.73.9,1.42,1.84,2.06,2.81.76-.67,1.48-1.39,2.16-2.16l.84-.94c1.02-1.17,1.9-2.46,2.62-3.84,0,0,.37-.94.56-1.12Z"/>
          <path class="cls-12" d="M173.81,352.18c1.52.75,3.09,1.41,4.69,1.97l3.28-2.16,1.12-1.03.75-.66c-.64-.97-1.33-1.91-2.06-2.81-1.91,1.48-3.95,2.8-6.09,3.94l-1.69.75Z"/>
          <path class="cls-3" d="M173.81,352.18c1.52.75,3.09,1.41,4.69,1.97l3.28-2.16,1.12-1.03.75-.66c-.64-.97-1.33-1.91-2.06-2.81-1.91,1.48-3.95,2.8-6.09,3.94l-1.69.75Z"/>
          <path class="cls-12" d="M151.89,331.75h0c-.89.97-1.62,2.08-2.16,3.28-.04.37-.04.75,0,1.12h0l.56.47,1.12.84,1.03-1.22c-.39-1.47-.58-2.98-.56-4.5Z"/>
          <path class="cls-3" d="M151.89,331.75h0c-.89.97-1.62,2.08-2.16,3.28-.04.37-.04.75,0,1.12h0l.56.47,1.12.84,1.03-1.22c-.39-1.47-.58-2.98-.56-4.5Z"/>
          <path class="cls-16" d="M181.4,347.49c1.38-.94,2.66-2.01,3.84-3.19-1.28,1.06-2.66,2.01-4.12,2.81l.28.37Z"/>
          <path class="cls-3" d="M181.4,347.49c1.38-.94,2.66-2.01,3.84-3.19-1.28,1.06-2.66,2.01-4.12,2.81l.28.37Z"/>
          <path class="cls-16" d="M180.75,347.59c-2.92,1.63-6.08,2.77-9.37,3.37l2.34,1.22,1.69-.75c2.14-1.14,4.18-2.45,6.09-3.94h0l-.75.09Z"/>
          <path class="cls-3" d="M180.75,347.59c-2.92,1.63-6.08,2.77-9.37,3.37l2.34,1.22,1.69-.75c2.14-1.14,4.18-2.45,6.09-3.94h0l-.75.09Z"/>
          <path class="cls-16" d="M151.79,336.63l-1.03,1.22.94.66h.66c-.24-.61-.43-1.23-.56-1.87Z"/>
          <path class="cls-3" d="M151.79,336.63l-1.03,1.22.94.66h.66c-.24-.61-.43-1.23-.56-1.87Z"/>
          <path class="cls-16" d="M151.7,338.5l.84.56c-.04-.25-.04-.5,0-.75l-.84.19Z"/>
          <path class="cls-2" d="M151.7,338.5l.84.56c-.04-.25-.04-.5,0-.75l-.84.19Z"/>
        </g>
      </g>
      <path class="cls-14" d="M216.63,277.59c-6.4,1.26-12.46,3.85-17.8,7.59-2.62,1.98-3.35,5.6-1.69,8.43,1.45,2.51,4.66,3.36,7.17,1.91.21-.12.41-.26.61-.41,3.94-2.66,8.36-4.51,13.02-5.43,3.23-.7,5.38-3.75,4.97-7.03-.23-3.04-2.88-5.33-5.93-5.1-.12,0-.23.02-.35.04Z"/>
    </g>
  </g>
</svg>