<?xml version="1.0" encoding="UTF-8"?>
<svg xmlns="http://www.w3.org/2000/svg" viewBox="0 0 500 500">
  <defs>
    <style>
      .cls-1, .cls-2, .cls-3 {
        fill-rule: evenodd;
      }

      .cls-1, .cls-2, .cls-3, .cls-4, .cls-5, .cls-6 {
        stroke-width: 0px;
      }

      .cls-1, .cls-5 {
        fill: #272c32;
      }

      .cls-2, .cls-4 {
        fill: #869eb4;
      }

      .cls-3, .cls-6 {
        fill: #fff;
      }
    </style>
  </defs>
  <g id="stiker_style" data-name="stiker style">
    <path class="cls-6" d="M448.7,179c-.38-.18-.77-.33-1.17-.45-.99-.29-2-.48-3.03-.55-6.07-.75-12.07,2.63-14.75,8.43-1.02,2.22-2.25,4.29-3.67,6.2-2.93-17.23-7.96-35.27-16.53-42.78-6.51-5.75-16.58-9.51-29.94-11.18-11.47-1.44-24.79-1.24-38.53.58-25.36,3.35-56.63,13.23-68.36,30.94-.1.16-.2.31-.29.48-4.41,7.79-5.84,19.79-5.88,31.85-.75-.38-1.55-.66-2.37-.82-1.05-2.29-2.97-4.05-5.37-4.88-3.9-1.36-8.11.06-10.46,3.21-2.73-1.23-5.94-1.09-8.57.42-.51.29-.97.66-1.4,1.05-.18-10.82-1.59-21.2-5.37-28.05-.09-.16-.18-.31-.28-.46-5.35-8.3-14.9-15.46-28.39-21.3-11.49-4.97-25.31-8.72-39.96-10.83-24.43-3.52-55.77-2.77-70.49,9.91-12.14,10.48-17.26,41.26-19.37,61.95-6.01-3.27-13.75-2.08-18.43,3.24-.05.06-.1.12-.15.18-5.65,6.82-9.78,14.58-12.26,23.09-.03.09-.05.19-.08.28-1.99,7.88,2.78,16.01,10.63,18.12.37.1.75.17,1.14.22.6.07,1.2.11,1.81.11.44,0,.89-.02,1.33-.06,6.46-.18,12.01-4.4,13.9-10.66.12-.39.25-.77.38-1.15-.03,22.7,2.41,45.4,9.41,55.78.59.89,1.22,1.76,1.89,2.62-1.19,1.9-2.57,3.69-4.14,5.33-3.19,2.69-5.2,6.44-5.67,10.6-.49,4.29.71,8.51,3.37,11.9,1.84,2.41,4.29,4.21,7.03,5.27-3.4,1.94-5.77,4.73-5.77,8.87,0,10.18,14.4,12.22,23.01,13.44,10.76,1.53,24.99,2.37,40.07,2.37s29.3-.84,40.07-2.37c8.61-1.22,23.01-3.26,23.01-13.44,0-2.61-.95-4.68-2.51-6.35.31-.35.6-.71.89-1.08.15-.19.29-.39.42-.6,3.56-5.56,4.77-12.13,3.53-18.48,3.15-3.67,6.16-8.4,9.08-14.27,7.28-14.66,13.67-36.02,17.69-58.74,1.12.34,2.29.54,3.48.57.25.01.5.02.74.02,1.97,0,3.93-.45,5.7-1.32.17-.09.35-.18.51-.28,2.81-1.64,5.41-3.56,7.79-5.72.18.03.35.07.53.09.3.03.6.04.9.04.47,0,.93-.05,1.39-.12,1.76,1.45,3.63,2.78,5.61,3.97.05.03.1.06.15.09,2.01,1.16,4.29,1.76,6.6,1.76.13,0,.26,0,.39,0,.94-.04,1.87-.19,2.76-.42,3.92,22.03,10.13,42.95,17.28,57.72,3.02,6.25,6.15,11.28,9.4,15.17-1.26,6.41-.03,13.05,3.55,18.66.13.2.27.4.41.58.27.35.55.69.83,1.02-1.44,1.64-2.29,3.65-2.29,6.16,0,9.39,11.74,11.85,22.75,13.41,10.56,1.5,24.59,2.33,39.49,2.33s28.97-.8,39.52-2.24c8.55-1.17,22.86-3.14,22.86-13.29,0-4.13-2.31-6.93-5.84-8.91,2.61-1.02,4.94-2.69,6.76-4.93,5.66-6.98,4.64-17.24-2.25-22.97-1.5-1.34-2.84-2.85-4.05-4.45.78-.98,1.52-1.99,2.2-3.03,8.97-13.76,10.16-48.86,8.29-77.11-.03-.45-.06-.92-.1-1.4.27.04.54.09.82.12.41.04.81.05,1.22.05,3.42,0,6.8-1.29,9.42-3.62.06-.05.11-.1.17-.15,6.08-5.74,10.94-12.6,14.45-20.39.04-.08.07-.17.11-.25,3.03-7.37-.06-15.75-7.03-19.07ZM401.18,331.54c-10.72-1.56-24.55-2.42-39.03-2.42-8.1,0-15.94.25-23.12.72-.02-.19-.03-.37-.05-.56,7.36-.07,15.66-.45,24.11-1.44,11-1.28,20.63-3.37,28.88-6.25,2.69,3.6,5.78,6.93,9.21,9.95ZM101.71,332.95c3.47-3.27,6.54-6.87,9.19-10.74,8.59,3.07,18.72,5.29,30.35,6.62,8.57.98,16.97,1.37,24.43,1.44-.06.37-.11.74-.14,1.12-7.32-.48-15.31-.73-23.57-.73-15.08,0-29.3.84-40.07,2.37-.1.01-.2.03-.3.04.03-.04.07-.08.11-.12Z"/>
  </g>
  <g id="Bubus">
    <g>
      <path class="cls-2" d="M362.14,337.12c-29.98,0-54.24,3.49-54.24,7.81s24.26,7.74,54.24,7.74,54.38-3.28,54.38-7.53-24.47-8.02-54.38-8.02Z"/>
      <g>
        <path class="cls-1" d="M279.39,174.61c18.2-27.47,102.28-38.69,124.86-18.75,18.61,16.31,24.33,119.22,10.39,140.62-19.17,29.35-87.15,25.17-100.88,23.84-26.49-4.11-49.57-118.87-34.37-145.71Z"/>
        <path class="cls-3" d="M286.15,198.1c15.27-11.15,80.52-25.93,100.6-16.38,11.09,5.16,18.2,41.83,4.6,42.32-34.57,2.1-68.93,6.88-102.76,14.29-6.69,2.23-11.5-32.49-2.44-40.23Z"/>
        <path class="cls-5" d="M311.53,198.73c-7.5-1.75-12.16-9.25-10.4-16.75.84-3.57,3.04-6.67,6.15-8.62,13.73-5.32,28.37-7.9,43.09-7.6,7.7.19,13.79,6.59,13.59,14.29-.19,7.7-6.59,13.79-14.29,13.59-10.61-.1-21.16,1.67-31.16,5.23-2.28.66-4.72.61-6.97-.14Z"/>
        <path class="cls-6" d="M311.95,191.69c-2.76-.02-5.24-1.66-6.34-4.18-1.46-3.5.15-7.53,3.63-9.06,12.77-4.86,26.36-7.23,40.02-6.97,3.85,0,6.97,3.12,6.97,6.97s-3.12,6.97-6.97,6.97c-11.56-.64-23.14.84-34.16,4.39-.84.92-1.93,1.57-3.14,1.88Z"/>
        <path class="cls-5" d="M322.47,339.84h-.84c-5.47-.07-10.6-2.64-13.94-6.97-2.89-4.53-3.55-10.12-1.81-15.2.91-3.16,2.25-6.19,3.97-8.99,1.98-4.17,6.97-5.95,11.15-3.97,4.17,1.98,5.95,6.97,3.97,11.15-.31.65-.7,1.26-1.17,1.81-.8,1.42-1.45,2.91-1.95,4.46v1.05h1.32c4.62.23,8.18,4.16,7.95,8.78-.23,4.62-4.16,8.18-8.78,7.95l.14-.07Z"/>
        <path class="cls-5" d="M267.61,238.05c-.93,0-1.84-.23-2.65-.7-6.4-3.87-11.58-9.48-14.92-16.17-.94-2.77.55-5.78,3.33-6.71,2.4-.81,5.04.19,6.29,2.39,2.35,4.7,5.97,8.64,10.46,11.36,2.39,1.45,3.22,4.52,1.88,6.97-.84,1.68-2.52,2.78-4.39,2.86Z"/>
        <path class="cls-5" d="M412.16,329.37c-1.87-.01-3.51-2.03-4.98-3.19-9.17-7.8-15.66-18.29-18.54-29.98-.87-4.62,2.16-9.06,6.78-9.94.06-.01.13-.02.19-.03,4.54-.9,8.96,2.02,9.9,6.55,1.73,8.36,6.1,15.94,12.48,21.61,3.62,2.93,4.18,8.25,1.24,11.87-1.6,1.97-4,3.12-6.54,3.12l-.53-.02Z"/>
        <path class="cls-3" d="M386.96,230.03c5.87.5,10.22,5.66,9.72,11.53-.5,5.87-5.66,10.22-11.53,9.72-5.53-.47-9.78-5.11-9.76-10.66.26-6.12,5.44-10.86,11.55-10.6,0,0,.01,0,.02,0Z"/>
        <path class="cls-3" d="M296.26,243.77c5.68-.45,10.65,3.8,11.1,9.48.39,5.01-2.88,9.57-7.75,10.81-5.68.45-10.65-3.8-11.1-9.48-.39-5.01,2.88-9.57,7.75-10.81Z"/>
        <path class="cls-3" d="M343.18,276.46c32.14-4.39,37.72-16.45,44.69-11.71,4.18,2.72,6.97,18.89-11.85,32.77-14.73,9.27-32.51,12.35-49.5,8.58-11.92-3.49-25.31-14.57-23.77-28.79-.28-7.11,16.87,1.81,40.44-.84Z"/>
      </g>
      <path class="cls-3" d="M251.57,210.02c1.88-.84,1.67-.7,3-4.88.23-.65.94-1,1.6-.77.36.13.65.41.77.77,1.6,4.46,2.79,6.48,5.37,4.39.69-.05,1.29.47,1.34,1.16,0,.1,0,.2-.01.3-.77,3.28-.56,6.97,2.72,7.53.44.11.77.46.84.91.05.42-.11.83-.42,1.12-3.76,3-4.74,5.02-3.76,7.67.25.36.25.83,0,1.19-.36.23-.82.23-1.19,0-3.7-1.05-4.39-.63-6.97,2.23-.19.48-.68.76-1.19.7-.51-.03-.95-.36-1.12-.84-1.6-4.95-1.95-7.32-4.67-6.97-.39.02-.78-.13-1.05-.42-.2-.35-.2-.77,0-1.12,1.19-2.79-.98-3.7-5.23-4.25-.48-.07-.87-.43-.98-.91-.14-.49.02-1.01.42-1.32,2.36-1.84,3.29-4.98,2.3-7.81-.08-.48.08-.98.42-1.32.43-.25.96-.25,1.39,0,1.6,3.7,4.53,2.09,6.41,2.65Z"/>
      <ellipse class="cls-4" cx="141.97" cy="346.46" rx="55.08" ry="7.81"/>
      <g>
        <path class="cls-1" d="M225.98,177.33c-18.61-28.86-104.16-40.09-126.89-20.5-18.89,16.31-24.68,119.22-10.25,140.62,19.45,29.35,88.54,25.17,102.48,23.84,26.63-3.83,48.73-118.52,34.65-143.97Z"/>
        <path class="cls-3" d="M219.15,199.43c-15.55-12.55-81.5-25.93-102.42-16.38-11.29,5.16-18.48,41.83-4.74,42.32,35.16,1.97,70.12,6.63,104.58,13.94,6.9,2.58,12.13-32.14,2.58-39.88Z"/>
        <path class="cls-6" d="M194.54,176.57c-18.14-7.34-31.19-7.09-50.75-7.4-3.85,0-6.97-3.12-6.97-6.97s3.12-6.97,6.97-6.97c21.44-.14,42.72,3.71,62.75,11.36,3.47,1.67,4.93,5.84,3.26,9.31-1.11,2.31-2.86,4.45-5.98,3.94,0,0-8.42-2.88-9.27-3.26Z"/>
        <path class="cls-5" d="M182.27,341.16c-4.62.23-8.55-3.33-8.78-7.95-.23-4.62,3.33-8.55,7.95-8.78h1.39c.05-.3.05-.61,0-.91-.44-1.55-1.1-3.03-1.95-4.39-3.08-3.49-2.75-8.82.74-11.91,3.49-3.08,8.82-2.75,11.91.74.52.59.96,1.25,1.3,1.96,1.75,2.82,3.12,5.87,4.04,9.06,1.78,5.04,1.14,10.62-1.74,15.13-3.35,4.31-8.48,6.88-13.94,6.97l-.91.07Z"/>
        <path class="cls-5" d="M237.98,239.51c-1.89,0-3.64-1.02-4.6-2.65-1.27-2.49-.39-5.55,2.02-6.97,4.59-2.69,8.31-6.63,10.74-11.36.94-2.77,3.94-4.26,6.71-3.33,2.77.94,4.26,3.94,3.33,6.71-.11.32-.25.64-.42.93-3.4,6.74-8.68,12.36-15.2,16.17-.8.39-1.69.56-2.58.49Z"/>
        <path class="cls-5" d="M58.03,249.9c-.58.07-1.16.07-1.74,0-3.68-.99-5.88-4.74-4.95-8.44,2.16-7.4,5.81-14.28,10.74-20.22,2.52-2.86,6.86-3.17,9.76-.7,2.86,2.52,3.17,6.86.7,9.76-3.55,4.31-6.21,9.29-7.81,14.64-.89,2.95-3.61,4.96-6.69,4.95Z"/>
        <path class="cls-5" d="M90.94,330.71c-2.72.13-5.33-1.1-6.97-3.28-2.85-3.59-2.26-8.8,1.32-11.66.02-.02.05-.04.07-.05,5.81-5.95,9.72-13.5,11.22-21.68,1.32-4.47,6.02-7.01,10.49-5.69,3.97,1.18,6.5,5.07,5.97,9.18-2.56,11.51-8.56,21.97-17.22,29.98-1.21,1.6-2.93,2.74-4.88,3.21Z"/>
        <path class="cls-3" d="M100.35,244.12c.59-5.54,5.17-9.79,10.74-9.97,5.77-.61,11.04,3.3,12.13,8.99,0,1.88-4.53-2.02-11.29-2.02-6.55.07-11.92,6.55-11.57,3Z"/>
        <path class="cls-3" d="M215.53,262.1c1.37-5.19-.53-10.7-4.81-13.94-4.45-1.16-9.13.71-11.57,4.6-.63,1.88,4.81-.84,11.02,2.02,6.2,2.86,4.18,11.02,5.37,7.32Z"/>
        <path class="cls-3" d="M162.19,271.31c-32.63-4.53-38-18.75-45.18-14.43-4.39,3.49-7.67,23.22,11.02,39.39,14.39,10.73,33.03,13.96,50.2,8.71,12.34-4.53,27.89-18.48,25.31-35.7-1.05-6.9-17.08,6.2-41.34,2.02Z"/>
      </g>
      <path class="cls-5" d="M443.71,185.98c.52.02,1.04.1,1.54.25,3.1,1.48,4.47,5.4,3.07,8.81-3.06,6.8-7.37,12.88-12.65,17.86-2.67,2.38-6.57,2.06-8.75-.73-2.14-2.83-1.74-7.04.9-9.47,3.82-3.63,6.94-8.02,9.19-12.93,1.25-2.7,3.97-4.24,6.7-3.79Z"/>
    </g>
  </g>
</svg>