<?xml version="1.0" encoding="UTF-8"?>
<svg xmlns="http://www.w3.org/2000/svg" viewBox="0 0 500 500">
  <defs>
    <style>
      .cls-1, .cls-2, .cls-3, .cls-4, .cls-5 {
        fill-rule: evenodd;
      }

      .cls-1, .cls-2, .cls-3, .cls-4, .cls-5, .cls-6, .cls-7, .cls-8, .cls-9, .cls-10, .cls-11, .cls-12, .cls-13, .cls-14 {
        stroke-width: 0px;
      }

      .cls-1, .cls-7 {
        fill: #282c33;
      }

      .cls-2 {
        fill: #e5e5e5;
      }

      .cls-3, .cls-13 {
        fill: #fff;
      }

      .cls-4 {
        fill: #efe4e7;
      }

      .cls-5 {
        fill: #c1c1c1;
      }

      .cls-6 {
        fill: #f9f4de;
      }

      .cls-8 {
        fill: #869eb4;
      }

      .cls-9 {
        fill: #3b1a2d;
      }

      .cls-10 {
        fill: #ff6780;
      }

      .cls-11 {
        fill: #ff8724;
      }

      .cls-12 {
        fill: #ffa336;
      }

      .cls-14 {
        fill: #f27720;
      }
    </style>
  </defs>
  <g id="stiker_style" data-name="stiker style">
    <g>
      <path class="cls-13" d="M423.69,135.78c-.59-3.91-3.96-6.8-7.91-6.8h-.04c-19.33.09-37.68,7.5-51.57,20.38-.82-.28-4.07-1.18-7.11.89-1.49-2.79-4.3-3.72-5.41-3.98-5.43-17.84-17.32-33.28-33.66-43.05-3.4-2.04-7.79-1.27-10.3,1.8-2.51,3.07-2.4,7.51.27,10.45,8.56,9.41,11.68,22.36,8.35,34.63-.7,2.59-.6,5.39,1.17,7.41,1.71,1.95,3.76,2.98,6.3,2.72.3.1.81.36,1.33,1.06.89,1.22,2.79,5.17,1.17,15.55,0,.02,0,.04,0,.05-3.48.86-6.81,2.41-9.77,4.62-.08.06-.16.12-.24.19-.89.72-1.72,1.49-2.48,2.28-.32-6.7-1.46-13.32-3.39-19.74-3.44-13.69-9.39-26.39-17.69-37.77-4.97-7.05-10.69-13.25-17.03-18.45l-.16-.14c-.77-.67-1.55-1.34-2.35-1.98-.45-.36-.93-.67-1.42-.92-15.09-10.99-30.07-14.39-40.24-15.26-13.42-1.16-26.27,1.53-34.41,7.19-7.7,5.35-10.81,13.1-8.33,20.73.08.24.16.49.25.73-23.25,14.46-37.7,39.38-38.55,67.03-1.1-1.3-2.33-2.54-3.74-3.68-.08-.07-.16-.13-.24-.19-5.83-4.37-13.02-6.2-20.23-5.16-7.21,1.04-13.59,4.82-17.96,10.65-2.33,3.11-3.99,6.75-4.82,10.54-.14.49-.26.97-.37,1.46-.47.86-.79,1.82-.91,2.83-.81,6.37.83,12.47,4.61,17.16,3.48,4.33,8.62,7.26,14.29,8.22,2.83,18.67,11.81,31.76,25.9,37.82-3.34,15.73-8.43,28.88-12.28,38.8-1.73,4.46-3.23,8.33-4.18,11.49-2.26,6.43-3.41,13.15-3.41,19.98-.14,1.1-.18,2.12-.12,3.11.48,7.48,4.23,14.36,10.58,19.36,11.08,8.75,29.24,11.48,51.13,7.7,4.94-.85,9.83-2.21,14.87-4.13,5.4,2.04,10.68,3.85,16.06,5.51l.72.25c.4.14.8.28,1.24.42,5.22,1.7,10.66,2.93,16.16,3.66.64.1,1.27.17,1.91.25-2.27-.02-4.56-.03-6.86-.03-26.46,0-51.39,1.22-70.18,3.44-23.18,2.74-35.74,6.12-35.74,16.12s12.56,13.39,35.74,16.12c18.8,2.22,43.72,3.44,70.18,3.44s51.39-1.22,70.18-3.44c23.18-2.74,35.74-6.12,35.74-16.12s-12.56-13.39-35.74-16.12c-12.8-1.51-28.45-2.56-45.49-3.08,8.96-.91,17.38-3.5,25.39-7.82,20.67,7.9,37.67,5.33,48.51,1.61,13.71-4.7,18.52-14.17,19.44-20.36.08-.24.14-.49.2-.74.18-.82.65-3.73-.21-8.18.13-.04.26-.08.39-.12h7.07c.55.09,1.1.12,1.67.09l10.15-.51c1.16-.06,2.25-.36,3.23-.86l1.02-.09c1.51-.12,3.01-.25,4.49-.4,2.82-.29,5.27-2.04,6.46-4.61.67-1.45.91-3.04.73-4.59v-4.12l.59-7.37,1.11-15.91,1.93-26.16c0-.08.01-.17.01-.25l.88-20.18c.3-1.9-.05-3.88-1.03-5.59-1.05-1.81-2.7-3.07-4.57-3.64l-1.28-.54c-1.05-.44-2.16-.67-3.26-.62-.03-.07-.06-.13-.08-.19-.34-1.61-1-2.87-1.41-3.65-.05-.1-.11-.2-.15-.29-.51-1.23-1.1-2.44-1.74-3.59-.77-1.43-1.6-2.79-2.43-4.13-.63-1.13-1.34-2.23-2.09-3.24-1-1.36-2.06-2.68-3.17-3.95l.05-3.79c.04-2.58-1.17-5.02-3.25-6.55l-2.33-1.72c-.12-.09-.25-.18-.38-.26l-2.61-1.7c.22-1.9.22-3.86-.02-5.85-.12-1.03-.44-2-.92-2.87-.11-.49-.24-.97-.37-1.46-.14-.66-.31-1.31-.5-1.95,1.71-1.03,3.62-1.71,5.64-1.97,2.9-.38,5.37-2.31,6.43-5.04,3.84-9.89,7.47-12.36,8.84-12.96.74-.32,1.27-.3,1.55-.24,2.05,1.53,4.33,1.69,6.8.88,2.56-.83,4.07-3.22,4.78-5.82,3.39-12.41,12.76-22.06,25.06-25.81,3.8-1.16,6.17-4.93,5.57-8.85ZM362.24,241.93s-.1,0-.15,0h-.71c-1.83,0-3.52.62-4.87,1.66-.71.06-1.42.22-2.09.47h-.59l-.14-.07c-1.06-.53-2.22-.81-3.4-.83-.88-.33-1.82-.52-2.81-.52-.04,0-.08,0-.12,0-.38,0-.74.05-1.1.1h-.81c-.14-.01-.29-.02-.43-.03-1.01-.45-2.11-.68-3.23-.68h-.71c-.76,0-1.49.11-2.19.3h-1.1c1.88-4.52,3.23-9.57,4.06-15.12,1.91-.33,3.77-.88,5.54-1.64.47.24.93.5,1.39.77l2.04,1.36,1.56,1.27,1.94,1.76c1.15,1.18,2.25,2.42,3.29,3.7l2.09,2.88c.68,1.11,1.33,2.17,1.84,3.2l.71,1.41Z"/>
      <path class="cls-13" d="M107.01,139.78l4.92-4.01h0s-4.91,4.05-4.91,4.05c2.03,3.03,5.86,4.31,9.3,3.1.83-.3,1.75-.2,2.5.25l.81,1c1.55,1.91,3.85,2.96,6.21,2.96.89,0,1.8-.15,2.67-.46,3.19-1.13,5.33-4.15,5.33-7.54,0-.69-.09-2.29-.77-4.35.13-.61.44-1.16.9-1.6,2.71-2.56,3.3-6.65,1.42-9.87-.06-.11-.03-.24.09-.31,3.98-1.76,5.82-6.38,4.15-10.39-1.39-3.34-.78-7.11,1.59-9.84,2.7-3.11,2.6-7.76-.23-10.75-2.83-2.99-7.47-3.34-10.72-.82-7.64,5.94-13.02,14.16-15.46,23.34-.87.53-1.77,1.3-2.45,2.38-1.24.13-2.29.56-3.09,1.02-9.48-2.21-19.48-1.18-28.47,3.1-3.67,1.75-5.48,5.98-4.16,9.83,1.32,3.85,5.28,6.1,9.26,5.22,1.43-.29,7.13-.82,8.93,1.89,1.25,1.88,3.24,3.14,5.47,3.47,2.23.34,4.5-.29,6.25-1.71.14-.11.34-.09.45.05Z"/>
    </g>
  </g>
  <g id="Bubus">
    <g>
      <ellipse class="cls-8" cx="232.8" cy="390.98" rx="97.93" ry="11.57"/>
      <g>
        <g>
          <path class="cls-3" d="M297.44,216.34c15.42,0,12.58-19.28,23.85-28.41l11.37,4.57s15.53,68.4-37.14,68.4l1.93-44.55Z"/>
          <path class="cls-5" d="M334.38,204.16c1.73,19.48,0,56.32-38.87,56.32l1.32-31.15c2.44,4.25,7.73,5.93,12.18,3.86,12.48-5.18,12.89-28.01,12.89-28.01l12.48-1.01Z"/>
          <path class="cls-3" d="M165.52,216.34c-15.42,0-12.58-19.28-23.85-28.41l-11.47,4.57s-15.42,68.4,37.24,68.4l-1.93-44.55Z"/>
          <path class="cls-5" d="M128.58,204.16c-1.73,19.48.1,56.73,38.87,56.73l-1.32-31.15c-2.44,4.25-7.73,5.93-12.18,3.86-12.58-5.18-12.89-28.01-12.89-28.01l-12.48-1.42Z"/>
          <path class="cls-3" d="M141.67,187.93c-8.52-6.38-20.61-4.64-26.99,3.88-1.7,2.28-2.88,4.9-3.45,7.69-6.49,22.02,26.38,29.33,30.44,4.57v-16.14Z"/>
          <path class="cls-2" d="M110.11,202.84c-2.44,19.28,27.3,24.66,31.46,1.22v-2.13c-6.82,8.89-19.56,10.57-28.46,3.75-1.09-.84-2.1-1.79-3-2.83Z"/>
          <path class="cls-5" d="M336.21,328.98l4.67,8.12,2.13,5.89s0,10.15-14.21,15.02c-14.21,4.87-38.05,6.49-65.76-14.31-27.7-20.8-42.21,8.12-75.7,13.9-33.49,5.78-51.45-5.38-52.36-19.69s35.82-31.66,35.82-31.66l165.41,22.73Z"/>
          <path class="cls-3" d="M231.89,113.95h0c-40.54.28-73.3,33.13-73.47,73.67v45.87c0,39.98-16.34,71.03-20.3,84.33-2.32,6.5-3.32,13.4-2.94,20.3,10.15-21.61,34.4,5.58,89.81,22.02,55.41,16.44,69.82-22.33,90.21-27.5,10.56-3.75,22.3.51,28.01,10.15,0,0,2.44-11.26-14.82-27.7-17.25-16.44-22.53-51.35-22.53-58.86v-68.6c-.17-40.74-33.24-73.67-73.98-73.67Z"/>
          <path class="cls-2" d="M160.85,333.45c18.36,6.7,38.92.15,50.03-15.93,22.43-28.21,28.72-43.94,28.72-42.01s-.51,4.57-6.7,45.77c-6.19,41.2,20.3,42.62,20.3,42.62-9.87.45-19.73-.89-29.12-3.96-21.88-7.25-43.24-16-63.93-26.18l.71-.3ZM310.94,333.45c-28.01-28.82-23.04-66.47-14.61-134.86,2.78-18.68.72-37.76-5.99-55.41,9.79,12.75,15.1,28.37,15.12,44.45v68.8c0,7.51,5.38,42.32,22.53,58.86,17.15,16.54,14.82,27.7,14.82,27.7-5.71-9.64-17.45-13.89-28.01-10.15-1.39.37-2.75.84-4.06,1.42l.2-.81Z"/>
          <path class="cls-3" d="M227.62,134.75c-13.79,1.91-26.96-6.34-31.26-19.59-7.51-23.04,83.82-39.48,107.47,56.42,0,0-16.24-48.2-76.21-36.84Z"/>
          <path class="cls-4" d="M268.11,112.12c18.52,15.01,31.17,36.06,35.72,59.47-2.21-5.74-5.33-11.08-9.23-15.83-3.7-17.1-13.03-32.46-26.49-43.64Z"/>
        </g>
        <path class="cls-1" d="M283.03,205.38c-.43-5.5-4.23-10.16-9.54-11.67-5.71-.85-11.28,2.22-13.6,7.51,0,1.83,4.87-1.52,13.09,0s9.84,7.81,10.05,4.16Z"/>
        <path class="cls-1" d="M181.05,206.29c-.43-4.69,1.9-9.21,5.99-11.57,4.97-2.13,10.15,3.45,11.06,5.68s-4.26-1.32-10.15.51c-5.89,1.83-6.39,9.23-6.9,5.38Z"/>
        <path class="cls-1" d="M226.1,220.3c30.44-.91,34.91-11.47,40.59-6.9,5.68,4.57,3.86,20.8-14.21,32.47-13.68,7.49-30.11,8.01-44.24,1.42-10.15-5.38-21.61-19.28-17.35-33.69,1.62-5.68,14.11,7.61,35.21,6.7Z"/>
        <path class="cls-12" d="M382.58,249.63h0c.09.16.09.35,0,.51l-.91,20.9-.81,10.76-1.12,15.42-1.12,15.93-.61,7.61v5.18h0c.07.16.07.35,0,.51h0c-4.97.51-10.15.81-15.63,1.12h-38.87c-1.66.11-3.32.11-4.97,0-1.26-.08-2.52-.25-3.75-.51h0v-2.74l-3.35-22.83-2.13-17.25-2.13-17.25-.91-7.51-.91-7.51h.91c.11-.33.32-.61.61-.81.33-.1.68-.1,1.01,0h1.22l.81.51h.51c.17-.53.66-.9,1.22-.91l.71-.51c.26-.1.55-.1.81,0,.22-.11.49-.11.71,0h1.73c-.06-.16-.06-.34,0-.51.23-.09.48-.09.71,0h.71l1.42.81.51.51h0c.02-.24.02-.47,0-.71.3-.38.74-.64,1.22-.71h0c.46-.01.9.17,1.22.51h0l.51.51h0v-.61h0c.23-.1.48-.1.71,0h1.32c.4.19.78.43,1.12.71h0l.51-.61h.61c.26-.1.55-.1.81,0h1.32l.51.51h.71l.61-.51c.3-.09.62-.09.91,0h.81c.52.19,1,.46,1.42.81h0l.81-.61c.23-.05.48-.05.71,0h7c.42.32.8.69,1.12,1.12h0l1.22-.71c.27-.05.54-.05.81,0h1.01c.51.1,1,.3,1.42.61v.51h2.64l1.83,1.01h4.67l.61-.61h4.97c.32.13.59.34.81.61h.61l.81-.61h2.74v.51h1.01c.15-.28.41-.5.71-.61.3-.07.61-.07.91,0h.81c.44.12.86.33,1.22.61l.51.51h0v.51c-.04-.17-.04-.34,0-.51.33-.45.74-.83,1.22-1.12h1.32l.51.61h.81l1.32-1.01h.61l4.57-2.13Z"/>
        <path class="cls-11" d="M382.48,249.63h0c.05.16.05.34,0,.51l-.81,20.9-.81,10.76-1.12,15.42-1.22,15.93-.51,7.61v5.18h0c.07.16.07.35,0,.51h0l-6.8.61v-6.49l2.13-35.72c.61-11.26,1.32-22.63,1.93-34h0v-.51c.33-.45.74-.83,1.22-1.12.26-.09.55-.09.81,0h.61l.51.61h.81l1.32-1.01h0l1.93.81Z"/>
        <path class="cls-11" d="M361.37,249.93h.71s.51,0,.71.61h1.42l.81-.51h2.03c.23-.06.48-.06.71,0v.51h.51c.15-.28.41-.5.71-.61h1.73c.45.04.87.22,1.22.51v.51l-.61,10.15.2,36.23-1.83,30.44-10.15.51v-7.41l.91-36.43.91-34.5Z"/>
        <path class="cls-11" d="M360.36,263.83l-.91,36.53c0,9.23,0,18.57-.71,27.81h-9.54v-10.76l-.91-35.72c0-10.15-.51-20.3-.81-31.05h0v.51h2.64l1.83.91h4.06l.61.51v-.51h0l.61-.51h0v13.8l3.15-1.52Z"/>
        <path class="cls-11" d="M341.08,250.03h.71c.39.32.73.7,1.01,1.12h0l1.32-.41h2.54c0,6.39,0,12.79.51,19.08l.91,36.02.61,22.73h-13.4v-10.15l-1.52-36.43c0-10.15-.81-20.9-1.32-31.36h0l.51.51h.81c.19-.22.44-.4.71-.51h1.62l1.42.81h.51l.71-.61h2.33v-.81Z"/>
        <path class="cls-11" d="M331.54,250.74h0c0,4.06,0,8.22.51,12.28,0,12.08.91,24.15,1.42,36.23l1.22,29.33h-12.18c0-2.84-.61-5.78-.81-8.73l-3.35-35.62-3.04-32.17h0v-.51c-.04-.17-.04-.34,0-.51.23-.09.48-.09.71,0h.71c.52.23,1,.54,1.42.91h.51v-.61s.71-.81,1.22-.81h0c.45.04.88.21,1.22.51h0l.51.51h0v-.61h2.03c.46.13.88.38,1.22.71h0v-.61h2.13l4.57-.3Z"/>
        <path class="cls-11" d="M313.17,250.74h1.42c0,4.97.91,10.15,1.32,14.82l3.65,35.92c.91,8.93,1.73,17.86,2.54,26.79h-1.32c-2.77.19-5.55.19-8.32,0h0c-1.11-.2-2.2-.5-3.25-.91-1.05-.31-2.05-.79-2.94-1.42-.15-.21-.15-.5,0-.71l-3.96-20.8-.81-3.96c-1.73-9.44-3.55-18.98-5.38-28.41l-.81-4.47-2.54-13.5v-.51h2.23c.03-1.41,1.05-2.6,2.44-2.84h.81c.23-.05.48-.05.71,0h0v.51h0l.51-.61h0l.81-.51h.51l1.42.51h2.33c.14-.31.35-.59.61-.81h2.13l.91.51h.61l2.84.41.71-.51h.81v.51Z"/>
        <path class="cls-14" d="M302.31,250.74l1.42.51h.51c.37.07.75.07,1.12,0l1.83,15.02,4.26,34.5,3.35,26.49h-2.23l-3.25-.81c-1.04-.38-2.03-.89-2.94-1.52-.15-.21-.15-.5,0-.71l-3.96-20.8-.81-3.96-2.94-15.83-.71-2.44-1.93-10.15-.81-4.47-2.54-13.5M292.67,252.57h2.23c0-.61.81-1.32,1.52-1.42h.81c.23-.05.48-.05.71,0h0v.51h.51l3.04-.91h.51l-9.34,1.83Z"/>
        <path class="cls-6" d="M368.27,296.41h0c.25.22.28.61.05.86-.02.02-.03.04-.05.05h0c.04.2.04.41,0,.61h-.51c.11.22.11.49,0,.71l-2.03,1.01h-1.22c-.03-.17-.03-.34,0-.51h0c-.3.24-.72.24-1.01,0-.22-.26-.22-.65,0-.91,1.93-.71,3.55-1.93,5.48-2.64h0c.19-.11.42-.11.61,0l-1.32.81Z"/>
        <path class="cls-6" d="M357.31,300.36h0c.24-.17.57-.17.81,0,.22.26.22.65,0,.91h0c.22-.11.49-.11.71,0,.05.4.05.81,0,1.22.08.2.08.41,0,.61-1.01.49-2.07.9-3.15,1.22-.61.1-1.22.1-1.83,0-.57.15-1.16.15-1.73,0-.06-.16-.06-.34,0-.51h0c-.17.04-.34.04-.51,0-.14-.29-.14-.63,0-.91h0c-.05-.17-.05-.34,0-.51-.04-.17-.04-.34,0-.51h0c-.15-.21-.15-.5,0-.71h1.01c1.6-.02,3.2-.19,4.77-.51h0c.16-.09.35-.09.51,0l-.61-.3Z"/>
        <path class="cls-6" d="M338.03,299.96h7s.71,0,.61.81c.09.19.09.42,0,.61h0s.71,0,.61.71c-.1.71,0,0,0,0,.06.16.06.34,0,.51h0s0,.51-.61.51c-2.13.2-4.27.2-6.39,0,0,0-.61,0-.61-.61s0,0,0,0h0c-.17-.24-.17-.57,0-.81h0c-.19-.28-.19-.64,0-.91h0c-.39,0-.71-.32-.71-.71,0-.39.32-.71.71-.71l-.61.61Z"/>
        <path class="cls-6" d="M324.43,295.09h0c-.32-.1-.66.08-.76.4-.07.22,0,.45.15.61h0c-.22.17-.27.49-.1.71.03.04.06.07.1.1h0c-.16-.09-.35-.09-.51,0h0c-.09.19-.09.42,0,.61h0c-.1.23-.1.48,0,.71.77.58,1.62,1.02,2.54,1.32l2.64.81h1.73c.28.16.63.16.91,0v-.51h0c.22-.17.27-.49.1-.71-.03-.04-.06-.07-.1-.1h0c.21-.23.21-.58,0-.81h0c-1.86-1.43-3.95-2.53-6.19-3.25l-.51.1Z"/>
        <path class="cls-10" d="M348.89,310.41h3.65c1.39.24,2.75.61,4.06,1.12l1.83.71h.71l1.22.51h.81M361.17,313.25h0l-1.42.81-1.01.61-1.12.61-2.03.81c-2.02.63-4.09,1.07-6.19,1.32h-13.6c-.36.1-.75.1-1.12,0h0v-1.83c.47-.52,1.02-.97,1.62-1.32h0c1.16-.8,2.38-1.51,3.65-2.13l3.75-1.42c1.3-.32,2.62-.49,3.96-.51l13.5,3.04Z"/>
        <path class="cls-7" d="M364.82,267.79h2.03c2.36.77,4.4,2.31,5.78,4.36,1.51,2.22,2.35,4.83,2.44,7.51h0M374.56,279.16h0c-.3-.8-.71-1.55-1.22-2.23l-1.83-.91-1.01-.61h-3.86v.51l-.61,1.12c-.23.56-.44,1.14-.61,1.73v1.22c-.3,1.06-.9,2.01-1.73,2.74-.5.35-1.04.62-1.62.81-.4.1-.82.1-1.22,0h-1.32c-.36-.3-.64-.68-.81-1.12-.5-.93-.75-1.98-.71-3.04-.1-1.11-.1-2.23,0-3.35v-1.42c.19-.64.46-1.26.81-1.83.63-1.29,1.53-2.43,2.64-3.35.89-.79,1.98-1.31,3.15-1.52l9.94,11.26Z"/>
        <path class="cls-7" d="M323.83,268.4h-2.03c-2.34.81-4.36,2.34-5.78,4.36-1.51,2.22-2.35,4.83-2.44,7.51.04.32.29.57.61.61.11-.19.11-.42,0-.61h0c.3-.8.71-1.55,1.22-2.23.39-.49.83-.93,1.32-1.32l1.01-.61h4.57l.51.61c.25.31.45.65.61,1.01.25.59.45,1.2.61,1.83v1.22c.33,1.02.92,1.93,1.73,2.64.47.39,1.03.67,1.62.81.4.09.82.09,1.22,0h1.73c.38-.28.66-.67.81-1.12.5-.93.75-1.98.71-3.04.1-1.11.1-2.23,0-3.35v-1.42c-.7-1.99-1.89-3.77-3.45-5.18-.89-.79-1.98-1.31-3.15-1.52l-1.42-.2Z"/>
        <path class="cls-7" d="M345.14,278.85h0c.61,0,1.12.71,1.52,1.12l.61,1.12v.71l.61,1.01c.38.71.69,1.46.91,2.23.26.65.26,1.38,0,2.03-.26.63-.85,1.06-1.52,1.12-.68-.05-1.3-.38-1.73-.91l-.91-1.32c-.12.54-.33,1.05-.61,1.52-.18.35-.42.66-.71.91h-2.03c-.4-.23-.72-.59-.91-1.01,0-.17,0-.34,0-.51v-.61c-.05-.51-.05-1.02,0-1.52,0-.81.61-1.73.91-2.44.43-.89.94-1.74,1.52-2.54l.91-.81h.91l.51-.1Z"/>
        <path class="cls-9" d="M346.66,280.27h0c-.19-.11-.42-.11-.61,0h0c-.25.22-.28.61-.05.86.02.02.03.04.05.05.2.43.44.83.71,1.22h0c0,.51,0,1.12.71,1.73.24.17.57.17.81,0,.37-.14.58-.53.51-.91-.37-1.19-.92-2.32-1.62-3.35l-.51.41Z"/>
        <path class="cls-9" d="M346.76,280.58c.43.43.8.91,1.12,1.42.29.58.5,1.19.61,1.83h0c-.26.22-.65.22-.91,0,.06-.44.06-.88,0-1.32-.22-.46-.53-.88-.91-1.22h0c-.05-.16-.05-.34,0-.51h.51l-.41-.2Z"/>
        <path class="cls-9" d="M347.17,280.47c.44.62.78,1.31,1.01,2.03.31.75.51,1.53.61,2.33,0,0,0,.71-.61.81h-.51c-.03-.17-.03-.34,0-.51h0c-.17-.84-.44-1.66-.81-2.44h0c-.18-.41-.42-.78-.71-1.12-.24-.3-.24-.72,0-1.01h0c.19-.09.42-.09.61,0l.41-.1Z"/>
        <path class="cls-9" d="M346.66,280.27h-.61c-.22.26-.22.65,0,.91.31.38.58.79.81,1.22.23.52.4,1.07.51,1.62h0c0,.39.32.71.71.71.41-.05.71-.4.71-.81-.11-.73-.31-1.45-.61-2.13-.28-.61-.62-1.18-1.01-1.73h0l-.51.2Z"/>
        <path class="cls-9" d="M346.76,280.17c.3.35.58.72.81,1.12.28.42.51.86.71,1.32.38.94.62,1.93.71,2.94,0,.39-.32.71-.71.71-.39,0-.71-.32-.71-.71.04-.27.04-.54,0-.81-.11-.67-.32-1.32-.61-1.93-.3-.53-.64-1.04-1.01-1.52h0v-.51c-.05-.16-.05-.34,0-.51.16-.09.35-.09.51,0h0l.3-.1Z"/>
        <path class="cls-9" d="M346.76,280.27h-.61c-.24.3-.24.72,0,1.01h0c.29.33.53.71.71,1.12.26.55.47,1.13.61,1.73-.05.17-.05.34,0,.51v.51h.51s.71,0,.61-.81c-.11-.87-.31-1.72-.61-2.54l-.41-.61-.81-.91Z"/>
        <path class="cls-9" d="M346.86,280.17l.71.81.51,1.01c.3.72.5,1.47.61,2.23,0,.41-.3.76-.71.81-.39,0-.71-.32-.71-.71-.05-.2-.05-.41,0-.61-.11-.46-.28-.91-.51-1.32-.1-.39-.31-.74-.61-1.01h0v-1.01h.61l.1-.2Z"/>
        <path class="cls-7" d="M375.68,284.33h0v.51h0c-.53,1.44-1.24,2.81-2.13,4.06h0c-.92,1.41-2.05,2.68-3.35,3.75-1.6,1.25-3.29,2.38-5.07,3.35-2.68,1.26-5.51,2.18-8.42,2.74h0c-2.81.5-5.67.73-8.52.71h-3.86c-4.55-.1-9.06-.86-13.4-2.23h0c-2.71-1.03-5.3-2.36-7.71-3.96-1.55-1.05-2.98-2.28-4.26-3.65-1.05-1.31-2-2.7-2.84-4.16,0-.34-.27-.61-.61-.61h-.61c-.22.26-.22.65,0,.91-.03,3.94.48,7.87,1.52,11.67.81,3.85,2.29,7.52,4.36,10.86,1.38,1.94,2.98,3.71,4.77,5.28,1.63,1.34,3.4,2.49,5.28,3.45,3.78,1.97,7.93,3.14,12.18,3.45h2.84c3.44.06,6.87-.46,10.15-1.52,2.04-.61,3.99-1.5,5.78-2.64,1.87-1.15,3.58-2.55,5.07-4.16,1.78-1.77,3.35-3.75,4.67-5.89,1.23-2.12,2.21-4.36,2.94-6.7,1.55-4.67,2.2-9.6,1.93-14.51h0l-.71-.71ZM368.37,295.8h0ZM327.07,300.77h-.61c-.04-.3-.04-.61,0-.91-.12-.71-.12-1.43,0-2.13v-.91c1.6.96,3.3,1.74,5.07,2.33l-.71.91c-.32.39-.7.73-1.12,1.01h-.71l-1.93-.3ZM365.53,301.38h-.61l-.91-1.12-.61-.91,1.12-.51,3.15-1.62v.61c.1.71.1,1.42,0,2.13v1.62h-.51l-1.62-.2ZM354.17,304.02h-.61l-.61-.61s-.51-.91-.71-1.52h0c.91.1,1.83.1,2.74,0,.54.05,1.08.05,1.62,0v2.33l-.51.61h0l-1.93-.81ZM341.99,304.83h-.91c-.29-.22-.53-.5-.71-.81-.35-.53-.62-1.11-.81-1.73v-1.01l4.97.51c-.15.77-.39,1.52-.71,2.23-.13.29-.3.57-.51.81h-1.32ZM354.88,311.93h0c1.65.49,3.24,1.14,4.77,1.93l1.73,1.12c-.74.5-1.52.94-2.33,1.32-2.2,1.05-4.52,1.83-6.9,2.33h0c-1.96.21-3.93.21-5.89,0h-2.54c-2.72-.24-5.41-.78-8.02-1.62l1.12-1.32c.89-.88,1.88-1.66,2.94-2.33h0c1.35-.77,2.78-1.38,4.26-1.83,1.76-.45,3.56-.69,5.38-.71,1.88.04,3.75.27,5.58.71l-.1.41Z"/>
        <g>
          <path class="cls-7" d="M300.49,258.76c0,.39.32.71.71.71.39,0,.71-.32.71-.71h0v-.51h0v-2.84h0v-2.74h0v-.91h0l.61-2.54h0v-.61h0c.22-.89.5-1.77.81-2.64h0c.32-1.15.72-2.27,1.22-3.35h0l.61-1.52h0l.61-1.52h0v-.51h0c.51-1.12,1.12-2.23,1.73-3.35h0c1.26-2.18,2.65-4.28,4.16-6.29l1.32-1.73h0c1.82-2.16,3.86-4.14,6.09-5.89h0l1.12-.81h0c1.99-1.42,4.14-2.61,6.39-3.55,2.37-.99,4.86-1.67,7.41-2.03,2.53-.3,5.08-.3,7.61,0,2.51.37,4.97,1.05,7.31,2.03,1.44.61,2.83,1.32,4.16,2.13h0l2.44,1.62h0l.91.71,1.22,1.01h0l2.23,2.03h0c1.43,1.45,2.79,2.98,4.06,4.57l.61.81h0l1.83,2.54c.81,1.32,1.62,2.64,2.33,4.06h0l1.52,3.04h0c.21.39.38.79.51,1.22h0l.71,1.62h0c.61,1.52,1.12,3.04,1.62,4.67h0c.91,3.34,1.62,6.73,2.13,10.15h0c.05.51.05,1.02,0,1.52v.51h1.01v-1.93h0c-.43-3.61-1.18-7.18-2.23-10.66h0c0-1.42-.91-2.94-1.42-4.36h0c0-.91-.71-1.93-1.12-2.84h0c-.41-1.01-.89-1.99-1.42-2.94h0c-.71-1.32-1.52-2.64-2.33-3.96h0c-.48-.88-1.02-1.73-1.62-2.54h0c-1.45-1.98-3.04-3.84-4.77-5.58h0l.1-7h0l-2.33-1.73h0l-2.64-1.73h0l-4.06-2.03-.71,1.22.71-1.22c-2.46-1.03-5.06-1.71-7.71-2.03-1.35-.1-2.71-.1-4.06,0h-4.06c-2.58.41-5.1,1.13-7.51,2.13l-2.84,1.32.91,1.12c-.34-.34-.65-.71-.91-1.12h-.61l-3.25,2.03h0c-2.76,1.96-5.28,4.25-7.51,6.8h0c-2.2,2.61-4.14,5.43-5.78,8.42h0l-1.62,3.25h0v.61h0c-.5,1.06-.94,2.14-1.32,3.25h0c0,1.12-.81,2.23-1.12,3.35h0v.51h0c0,.91-.51,1.83-.71,2.64h0v.71h0c-.05.81-.05,1.62,0,2.44h0v1.01h0c-.23,1.04-.4,2.09-.51,3.15h0v1.01h0v2.64h0l-3.25,3.15ZM328.49,213.3,306.78,236.94"/>
          <path class="cls-7" d="M325.14,213.19l.91,1.12c-.34-.34-.65-.71-.91-1.12Z"/>
        </g>
        <path class="cls-3" d="M321.29,187.93c8.52-6.38,20.61-4.64,26.99,3.88,1.7,2.28,2.88,4.9,3.45,7.69,6.49,22.02-26.38,29.33-30.44,4.57v-16.14Z"/>
        <path class="cls-2" d="M352.85,202.84c2.33,19.28-27.4,24.66-31.46,1.22v-2.13c6.82,8.89,19.56,10.57,28.46,3.75,1.09-.84,2.1-1.79,3-2.83Z"/>
        <path class="cls-7" d="M359.75,166.62c-.09-2.31.26-4.62,1.01-6.8,2.54-8.42-2.23,3.96-3.25,4.97s-1.73-1.42-3.86-1.93-3.86,1.12-4.26,0c-.41-1.12,1.62-14.51,0-5.89-.43,2.35-1.32,4.6-2.64,6.6-1.56-22.13-13.84-42.09-32.88-53.48,10.35,11.38,14.18,27.26,10.15,42.11,0,0,14.21,0,10.15,25.88,6.59,5.06,9.97,13.28,8.83,21.51v5.68-.81.81l3.45-7.51c3.38-6.6,9.79-11.12,17.15-12.08,9.54-24.56,21.72-17.35,21.72-17.35,4.09-14.98,15.59-26.82,30.44-31.36-22.4.11-43.32,11.18-56.02,29.63Z"/>
      </g>
      <path class="cls-7" d="M121.38,124.1c-.71-.48-1.27-1.15-1.62-1.93-1.52-2.74,0,1.73,0,2.33s-1.12,0-2.13.91-1.32,1.73-1.93,1.52-3.75-3.65-1.93-1.12c.53.71.85,1.55.91,2.44-9.63-4.58-20.81-4.58-30.44,0,0,0,11.97-2.64,17.25,5.28,3.56-2.9,8.8-2.37,11.71,1.19.17.2.32.42.47.64,3.43-1.21,7.23-.64,10.15,1.52l.71.61,1.32,1.62h0s0-1.22-.81-2.94c-.23-3.31,1.03-6.55,3.45-8.83-2.3-3.92-.98-8.95,2.93-11.25.27-.16.54-.3.82-.42-2.55-6.12-1.41-13.16,2.94-18.16-8.26,6.42-13.31,16.13-13.8,26.59Z"/>
    </g>
  </g>
</svg>