<?xml version="1.0" encoding="UTF-8"?>
<svg xmlns="http://www.w3.org/2000/svg" viewBox="0 0 500 500">
  <defs>
    <style>
      .cls-1 {
        opacity: .1;
      }

      .cls-1, .cls-2 {
        fill: #e6eef2;
      }

      .cls-1, .cls-2, .cls-3, .cls-4, .cls-5, .cls-6, .cls-7, .cls-8 {
        stroke-width: 0px;
      }

      .cls-2 {
        opacity: .09;
      }

      .cls-3, .cls-4, .cls-5 {
        fill-rule: evenodd;
      }

      .cls-3, .cls-6 {
        fill: #343a41;
      }

      .cls-4 {
        fill: #96adc0;
      }

      .cls-5, .cls-8 {
        fill: #fff;
      }

      .cls-7 {
        fill: #7e8a9a;
      }
    </style>
  </defs>
  <g id="stiker_style" data-name="stiker style">
    <path class="cls-8" d="M364.28,293.39c-1.28-8.64-9.35-14.64-18-13.36-2.84.42-5.44,1.59-7.61,3.34,2.75-13.38,4.67-27.86,5.79-41.12,1.71-20.23,4.15-69.08-10.03-85.66-14.17-16.56-49.09-22.63-77.04-22.8-16.67-.13-32.63,1.75-46.2,5.35-15.84,4.2-27.53,10.5-34.74,18.73l-.12.14c-10.79,12.89-13.72,41.56-14.4,61.32-.11.02-.22.03-.32.05-8.94,1.43-13.54,3.75-14.37,4.21l-4.1,2.23-.43,25.06,2.92-.93c-.87,1.61-1.41,3.39-1.6,5.27-.14,1.47-1.25,14.79,3.83,28.43,2.03,5.44,7.29,9.09,13.09,9.09,1.67,0,3.32-.3,4.88-.88.62-.23,1.21-.5,1.78-.81,3.85,18.39,9.19,31.62,15.91,39.45-.4,6.68-.32,12.32.23,17.06-6.02,1.95-12.21,5.41-12.21,12.18,0,9.37,10.99,12.95,27.49,15.45,13.73,2.08,31.88,3.22,51.1,3.22s37.37-1.14,51.1-3.22c16.5-2.49,27.49-6.08,27.49-15.45,0-6.82-6.24-10.25-12.16-12.16.37-5.05.2-10.16-.52-15.28,2.21-1.71,4.22-3.55,6.01-5.53h0c4.32-4.76,8.02-12.59,11.12-22.1-.27,4.87-1.38,8.62-1.38,8.62-2.63,8.31,1.99,17.23,10.29,19.87,1.57.5,3.19.75,4.83.75,6.92,0,12.99-4.43,15.1-11.03.46-1.45,4.47-14.62,2.27-29.48Z"/>
  </g>
  <g id="Bubus">
    <g>
      <path class="cls-4" d="M250.12,349.07c-38.97,0-70.59,4.77-70.59,10.65,0,5.88,31.62,10.67,70.59,10.67,38.96,0,70.59-4.79,70.59-10.67,0-5.88-31.63-10.65-70.59-10.65Z"/>
      <path class="cls-6" d="M201.9,359.12c-4.17,0-8-2.76-9.18-6.97-1.45-5.2-1.82-12.96-1.11-23.06.34-4.87.82-8.49.84-8.64.69-5.22,5.48-8.89,10.71-8.2,5.22.69,8.89,5.48,8.2,10.7h0s-.42,3.23-.72,7.48c-.78,11.08.15,15.51.45,16.6,1.41,5.07-1.55,10.33-6.62,11.75-.86.24-1.72.35-2.57.35Z"/>
      <path class="cls-6" d="M298.08,362.92c-.65,0-1.32-.07-1.99-.21-5.15-1.09-8.44-6.15-7.35-11.3,3.28-15.48-3.14-28.14-3.21-28.27-2.48-4.64-.72-10.39,3.93-12.88,4.64-2.48,10.43-.7,12.92,3.94.4.75,9.78,18.66,5.02,41.15-.95,4.49-4.91,7.56-9.32,7.56Z"/>
      <path class="cls-3" d="M182.46,163.15c25.67-29.28,123.75-27.21,145.89-1.35,18.43,21.54,7.35,138.02-12.23,159.59-26.87,29.61-103.89,14.68-119.06,9.22-29.53-8.87-36.25-141.6-14.6-167.46Z"/>
      <path class="cls-5" d="M186.38,189.06c19.56-11.42,96.23-15.09,117.54-.95,11.72,7.78,13.53,50.39-.41,48.6-32.46-4.19-100.27-3.9-119.57-1.77-9.65,1.07-9.61-38.84,2.45-45.87Z"/>
      <path class="cls-8" d="M208.12,172.08c-3.56,0-6.78-2.43-7.63-6.04-1-4.22,1.61-8.45,5.83-9.45,36.52-8.65,70.98-2.01,72.43-1.73,4.25.84,7.02,4.97,6.18,9.23-.84,4.25-4.97,7.02-9.22,6.18-.5-.1-32.76-6.21-65.76,1.6-.61.14-1.22.21-1.82.21Z"/>
      <path class="cls-3" d="M157.93,256.57s-1.09,11.17,3.02,22.19"/>
      <path class="cls-6" d="M160.95,284.73c-2.42,0-4.7-1.48-5.59-3.88-4.54-12.18-3.41-24.35-3.36-24.86.32-3.28,3.24-5.69,6.52-5.36,3.28.32,5.67,3.23,5.36,6.51h0c0,.1-.88,10.02,2.67,19.54,1.15,3.09-.42,6.52-3.51,7.67-.69.26-1.39.38-2.08.38Z"/>
      <path class="cls-6" d="M346.92,325.91c-.79,0-1.6-.12-2.39-.37-4.12-1.32-6.4-5.72-5.1-9.84.05-.17,2.82-9.27,1.41-18.83-.63-4.29,2.33-8.28,6.62-8.92,4.29-.63,8.28,2.33,8.92,6.62,1.97,13.3-1.81,25.37-1.98,25.88-1.06,3.34-4.15,5.47-7.48,5.47Z"/>
      <path class="cls-5" d="M277.6,258.95c-7.21,0-11.78-2.27-11.78,0,0,2.27,5.84,4.11,13.05,4.11,7.21,0,13.06-1.84,13.06-4.11,0-2.27-7.13,0-14.34,0Z"/>
      <path class="cls-5" d="M277.6,264.52c-7.21,0-11.78-2.27-11.78,0,0,2.27,5.84,4.11,13.05,4.11,7.21,0,13.06-1.84,13.06-4.11,0-2.27-7.13,0-14.34,0Z"/>
      <path class="cls-5" d="M199.52,258.95c-7.21,0-11.78-2.27-11.78,0,0,2.27,5.84,4.11,13.05,4.11,7.21,0,13.06-1.84,13.06-4.11s-7.13,0-14.34,0Z"/>
      <path class="cls-5" d="M199.52,264.52c-7.21,0-11.78-2.27-11.78,0,0,2.27,5.84,4.11,13.05,4.11,7.21,0,13.06-1.84,13.06-4.11s-7.13,0-14.34,0Z"/>
      <path class="cls-8" d="M219.68,291.27l13.5,12.35c2.61,2.39,6.61,2.39,9.22,0l18.7-17.15c.9-.82.21-2.31-1-2.16l-39.73,4.8c-1.06.13-1.48,1.44-.69,2.17Z"/>
      <g>
        <path class="cls-1" d="M225.2,241.32c-2.09-4.26-7.27-7.95-20.8-10.69-13.53-2.73-27.14-.74-33.52,2.69-4.75,2.56-6.61,9.76-7.25,13.28-.31,4.82-.27,15.41,2.14,23.02,2.53,8.13,6.92,12.66,14.69,15.15,7.75,2.49,17.97,2.66,25.37.4,7.98-2.44,13.9-9.01,16.66-18.48,3.07-10.51,3.9-20.94,2.94-24.92-.11-.13-.18-.28-.23-.44Z"/>
        <path class="cls-2" d="M310.59,236.35c-6.26-3.72-19.81-6.29-33.41-4.14-13.61,2.14-18.93,5.6-21.15,9.78-.09.15-.16.29-.25.43-1.1,3.93-.63,14.38,2.07,25.01,2.45,9.61,8.13,16.41,16.02,19.19,7.3,2.58,17.48,2.86,25.37.7,7.89-2.16,12.38-6.48,15.2-14.49,2.64-7.51,3.07-18.07,2.93-22.92-.53-3.55-2.15-10.82-6.79-13.57Z"/>
        <path class="cls-7" d="M321.42,239.24c-2.9-.06-5.24-.6-5.23-1.18.01-.59,2.36-1.01,5.26-.94,2.89.06,5.22.58,5.21,1.17-.01.59-2.33,1.01-5.25.94h0ZM314.44,272.84c-2.81,7.98-7.36,12.34-15.19,14.49-7.84,2.15-18.06,1.88-25.37-.7-7.89-2.78-13.58-9.59-16.02-19.19-2.71-10.63-3.17-21.09-2.07-25.01.07-.14.16-.28.25-.43,2.22-4.18,7.54-7.65,21.15-9.78,13.61-2.15,27.15.42,33.41,4.14,4.65,2.75,6.26,10.02,6.79,13.57.13,4.84-.3,15.41-2.93,22.92h-.01ZM222.47,266.68c-2.76,9.49-8.69,16.04-16.66,18.48-7.39,2.26-17.56,2.1-25.37-.4-7.81-2.5-12.16-7.02-14.69-15.13-2.38-7.62-2.45-18.19-2.14-23.03.67-3.53,2.51-10.72,7.25-13.27,6.38-3.44,20-5.43,33.53-2.69,13.51,2.73,18.71,6.42,20.8,10.69.07.15.15.3.23.44.96,3.97.14,14.4-2.94,24.91ZM159.93,235.73c-2.89-.06-5.22-.6-5.21-1.18s2.34-1.02,5.25-.96,5.24.6,5.23,1.18-2.36,1.02-5.26.96ZM318.45,230.65c-8-1.64-35.51-5.49-53.14-2.46-17.15,2.94-15.55,7.31-15.41,8.99-2.75-1.93-6.03-2.68-9.21-2.75-3.18-.07-6.49.5-9.3,2.35.2-1.65,1.92-5.97-15.11-9.65-17.52-3.79-45.38-1.12-53.41.16-8.05,1.29-11.82,3.34-11.82,3.34l-.16,9.26c2.1-.67,4.4.17,5.67,2.07,2.03,2.78,2.56,5.15,5.04,6.21-.19,5.46.13,14.97,2.34,22.06,2.71,8.68,7.62,13.75,15.94,16.4,4.23,1.3,8.62,2,13.03,2.05,4.53.16,9.05-.38,13.41-1.62,8.6-2.63,14.96-9.65,17.93-19.78,2.68-9.19,3.6-18.19,3.24-23.42.68.23,1.43,0,1.91-.56h.08c.13-.12.27-.27.38-.42,1.01-1.09,4.24-3.87,10.77-3.73,6.54.14,9.65,3.06,10.61,4.19.11.17,0,.31.11.44h-.22c.58.59,1.41.84,2.2.64-.55,5.21.25,14.25,2.62,23.55,2.6,10.25,8.76,17.54,17.28,20.54,4.33,1.43,8.83,2.17,13.37,2.2,4.41.13,8.82-.37,13.1-1.49,8.38-2.29,13.47-7.14,16.47-15.7,2.47-6.99,3.08-16.49,3.07-21.95,2.52-.93,2.91-3.3,5.03-5.99,2.52-3.19,5.43-1.83,5.43-1.83l.16-9.26s-3.43-2.2-11.43-3.84Z"/>
      </g>
    </g>
  </g>
</svg>