<?xml version="1.0" encoding="UTF-8"?>
<svg xmlns="http://www.w3.org/2000/svg" xmlns:xlink="http://www.w3.org/1999/xlink" viewBox="0 0 500 500">
  <defs>
    <style>
      .cls-1 {
        opacity: .5;
      }

      .cls-1, .cls-2, .cls-3, .cls-4, .cls-5, .cls-6, .cls-7, .cls-8, .cls-9, .cls-10, .cls-11 {
        stroke-width: 0px;
      }

      .cls-1, .cls-9 {
        fill: #454230;
      }

      .cls-2, .cls-3 {
        fill-rule: evenodd;
      }

      .cls-2, .cls-5 {
        fill: #343a41;
      }

      .cls-3, .cls-11 {
        fill: #fff;
      }

      .cls-4 {
        fill: url(#Dégradé_sans_nom_14);
        mix-blend-mode: darken;
        opacity: .2;
      }

      .cls-12 {
        isolation: isolate;
      }

      .cls-6 {
        fill: #807c5f;
      }

      .cls-7 {
        fill: #898864;
      }

      .cls-8 {
        fill: #9a9674;
      }

      .cls-10 {
        fill: #cbe5e4;
      }
    </style>
    <linearGradient id="Dégradé_sans_nom_14" data-name="Dégradé sans nom 14" x1="308.38" y1="309.49" x2="324.4" y2="337.29" gradientUnits="userSpaceOnUse">
      <stop offset="0" stop-color="#413b94"/>
      <stop offset="1" stop-color="#413b94" stop-opacity="0"/>
    </linearGradient>
  </defs>
  <g class="cls-12">
    <g id="stiker_style" data-name="stiker style">
      <path class="cls-11" d="M360.45,231.29c.3-1.9.31-3.82.02-5.71-.45-2.93-1.72-5.66-3.53-7.94.48-1.16.84-2.38,1.04-3.64.95-5.77-.91-10.92-2.73-15.31-.02-.06-.05-.12-.07-.18,1.33-3.78,1.54-7.59,1.53-10.69,0-1.88-.11-3.67-.33-5.38,1.2-2.77,1.84-5.76,1.82-8.68v-.34c-.39-7.72-5.94-14.1-12.94-15.49-.99-3.37-2.68-6.46-5.02-9.05-3.64-4.02-8.52-6.87-14.55-8.5-2.53-5.55-7.46-10.22-13.47-12.44-2.68-.99-5.51-1.57-8.51-1.74-.36-3.33-1.69-6.61-3.98-9.71-4.89-6.65-16.31-10.27-26.23-4.52l-.29.18c-2.78,1.78-4.9,4.3-6.23,7.15-8.52-1.19-17.09-.19-24.64,2.89-9.23-4.51-20.65-1.58-24.54-.35-5.31,1.54-12.01,3.99-17.03,9.27-.34.36-.67.73-.99,1.12-.97.15-1.93.37-2.85.65-.59.18-1.18.39-1.76.62-.78-.46-1.61-.87-2.48-1.25-7.57-3.3-19.26-.69-24.95,9.28l-.16.3c-2.72,5.28-2.41,11.4.31,16.1-3.29,2.9-5.77,6.84-7.18,11.54-2.51,8.32-1.28,17.7,3.27,24.57,2.54,3.75,6.24,6.61,10.51,8.28-2.09,10.62-2.97,22.06-3.3,31.7-7.59,1.53-11.44,3.78-13.41,7.55-4.71,8.97-3.28,20.13-2.24,28.28.19,1.48.37,2.87.49,4.15.3,3.06,1.39,5.93,3.11,8.37-1.21,2.53-2.41,5.1-3.6,7.68-26.49,57.56-21.27,67.36-19.31,71.04,3.74,7.04,13.21,12.97,28.95,18.14,10.72,3.52,20.89,5.52,21.97,5.73l6.73,1.34,4.71-12.88-.6-.34c.31-.01.62-.03.94-.04l.12.43,6.89-.87c.34-.04.69-.09,1.03-.14,2.32.33,4.68.17,6.93-.45,1.86-.52,3.58-1.33,5.14-2.43.1-.03.2-.07.29-.1,8.13-2.83,15.13-4.78,22.83-5.09,2.29.08,4.54.29,6.88.64,7.47,1.12,14.81,2.93,22.59,4.85,4.6,1.13,9.35,2.31,14.1,3.32,1.65.35,3.35.58,5.1.69,1.55.9,3.24,1.55,5,1.92,3.66.77,7.48.28,10.71-1.25-.79,3.78-1.37,6.11-1.39,6.16l-2.34,9.25,9.51.7c.2.01,3.08.22,7.2.22,2.68,0,5.88-.09,9.2-.37,13.56-1.16,21.84-4.98,25.31-11.67,4.73-9.13,4.72-37.37,3.2-54.51l-.1-1.1c-.74-8.33-1.3-14.58-2.83-19.64,3.68-3.57,5.87-8.59,5.74-13.94-.4-16.1.14-20.3.32-21.21.84-4.35.56-8.27-.85-11.74,2.15-2.08,3.89-4.61,5.01-7.41l.12-.32c2.26-6.43.41-13.42-4.15-17.68ZM177.47,150.45l-.83-1.1c.55-.31,1.18-.48,1.85-.51-.34.51-.68,1.05-1.02,1.61Z"/>
    </g>
    <g id="Bubus">
      <g>
        <path class="cls-8" d="M172.32,281.68c-4.43-.5-7.9-4.03-8.33-8.46-.76-7.76-3.42-19.77.86-27.93,4.07-7.74,70.25-6.24,80.99-5.81,95.69,3.87,109.45,12.91,106.63,27.43-.74,3.84-.68,14.27-.46,22.92.17,6.76-5.87,11.99-12.54,10.87l-167.15-19.03Z"/>
        <ellipse class="cls-6" cx="259.45" cy="256.43" rx="10.49" ry="88.67" transform="translate(-16.36 495.16) rotate(-85.54)"/>
        <path class="cls-7" d="M343.65,355.32c-7.96-1.38-16.67.98-24.5,3.87-10.31,3.79-21.08,8.44-31.78,6.18-12.37-2.62-24.65-6.38-37.16-8.26-4.34-.65-8.29-.88-12.06-.74-8.1.29-15.44,2.3-24.34,5.54-3.64,1.33-7.41,2.24-11.22,2.74-3.54.47-7.14.59-10.71.37-13.2-.78-26.21-6.15-36.07-15.4-1.24-1.15-1.84-2.89-1.6-4.6,1.98-13.98,4.79-27.83,8.38-41.43,3.6-13.6,8.01-26.98,13.18-40.03l1.7-4.3.55-1.38h1.31s135.37-.64,135.37-.64c0,0,12.15,12.26,20.01,38.4,7.84,26.14,13.3,54.16,13.3,54.16,1.08,2.99-1.35,6.04-4.36,5.52Z"/>
        <path class="cls-6" d="M193.69,365.02c-13.84-.78-27.48-6.15-37.81-15.4-1.3-1.15-1.93-2.89-1.68-4.6,2.08-13.98,5.02-27.83,8.79-41.43,3.78-13.6,8.4-26.98,13.82-40.03l1.79-4.3c.26-.48.52-.94.78-1.38.37-.65.74-1.26,1.11-1.86,0,0,.01.64.05,1.85.31,11.04,2.4,68.98,13.15,107.16Z"/>
        <path class="cls-5" d="M184.07,346.74c-2.04,0-4.06-.84-5.52-2.49-8.31-9.44-11.48-20.84-11.61-21.32-1.07-3.91,1.24-7.95,5.16-9.02,3.92-1.06,7.94,1.24,9.01,5.13.04.15,2.5,8.71,8.47,15.5,2.68,3.04,2.38,7.69-.66,10.37-1.4,1.23-3.13,1.83-4.85,1.83Z"/>
        <path class="cls-6" d="M242.2,356.36c-8.49.29-16.18,2.3-25.52,5.54-3.81,1.33-7.77,2.24-11.76,2.74-6.53-24.23-5.7-86.54-3.92-98.68,0,0,11.25,59.19,41.2,90.39Z"/>
        <path class="cls-2" d="M190.9,181.38c24.03-27.38,115.76-25.45,136.46-1.26,17.24,20.15,6.87,129.1-11.44,149.28-25.14,27.7-97.17,13.73-111.37,8.63-27.62-8.3-33.89-132.46-13.66-156.64Z"/>
        <g>
          <path class="cls-5" d="M313.8,193.81c-.01-2.02-.66-3.78-1.72-5.32-.93-.45-1.89-.82-2.89-1.08-1.29,2.9,1.45,6.71,4.61,6.4Z"/>
          <path class="cls-5" d="M283.67,184.97c-.18,2.74,3.03,5.37,5.42,4,.9-3.1.41-6.26-.97-9.11-2.3.81-4.29,2.72-4.45,5.12Z"/>
          <path class="cls-5" d="M346.96,239.15s-.06-.01-.09-.02c3.77-2.88,6.43-7.62,5.7-12.32-.6-3.86-4.02-7.24-7.77-7.63,2.67-.82,4.82-3.58,5.29-6.47.61-3.73-.78-7.46-2.22-10.95-.46-1.1-.94-2.22-1.5-3.29.11-.17.22-.34.32-.52,1.72-3.03,2.03-6.64,2.03-10.13,0-5.82-1.29-12.48-6.31-15.42-1.57-.92-3.34-1.2-5.08-1.01,1.89-5.82,1.12-12.57-3.02-17.15-3.77-4.17-9.2-6.16-14.85-7-.68-5.19-4.92-9.93-10-11.81-6.35-2.34-13.46-1.17-19.89.92-1.12.36-2.25.78-3.35,1.27-3.42-4.55-9.11-7.7-14.75-9.26-9.85-2.72-20.89-1.94-29.76,2.97-5.28-4.93-14.83-4.01-21.58-1.85-4.97,1.44-10,3.38-13.56,7.13-.95,1-1.77,2.17-2.41,3.42-1.65-.15-3.32,0-4.87.48-5.75,1.78-9.95,6.67-13.38,11.62-1.88,2.71-3.68,5.71-4.4,8.87-1.58-.17-3.19,0-4.67.61-9.98,4.23-11.95,19.29-6.25,27.92,4.45,6.55,14.41,8.52,21.02,4.15l-1.17,5.96c4.92-2.72,7.7-8.83,6.52-14.33-.25-1.16-.66-2.35-.38-3.5.28-1.17,1.2-2.08,2.14-2.84,5.98-4.86,14.19-6.61,21.73-5.15-.02-.06-.06-.11-.08-.17,6.02-5.45,13.69-9.06,21.72-10.24,6.13-.9,14,.9,15.53,6.75,6.73-1.26,13.69-1.9,20.07.39,4.45,1.6,8.4,5.1,10.42,9.28.33-.12.67-.21,1.01-.28,2.69-.55,5.47.09,8.14.75,5.5,1.36,11.84,3.87,14.82,8.17,5.02,2.41,8.86,7.29,9.81,12.79l-3.47.85c-5.86,5.51-3.87,16.88,3.51,20.09-3.55,1.08-7.4,2.72-7.97,6.97-.36,2.69.91,5.31,3.02,7.01,4.44,3.58,10.13,3.12,15.44,2.6-4.21,2.29-4.75,8.8-1.61,12.42,3.14,3.61,8.76,4.34,13.22,2.61,2.32-.9,4.36-2.34,6.13-4.09,3.55-3.51,1.7-9.72-3.21-10.61Z"/>
          <path class="cls-5" d="M230.28,177.99c-2.93-2.09-6.31-3.46-9.83-4.14,1.55,3.6,6.17,5.57,9.83,4.14Z"/>
          <path class="cls-5" d="M244.08,175.65c4.41,7.1,14.84,3.32,13.68-4.96-.03-.18-.09-.34-.14-.51-1.16.22-2.31.45-3.46.7-3.71.79-7.7,1.83-10.08,4.78Z"/>
        </g>
        <path class="cls-3" d="M291.33,262.14c-8.54,0-15.48,6.94-15.48,15.48,0,8.54,6.94,15.47,15.48,15.47,8.54,0,15.47-6.93,15.47-15.47,0-8.54-6.93-15.48-15.47-15.48Z"/>
        <path class="cls-3" d="M205.98,262.14c-7.28,0-13.19,5.91-13.19,13.19,0,7.28,5.91,13.18,13.19,13.18,7.28,0,13.18-5.9,13.18-13.18,0-7.28-5.9-13.19-13.18-13.19Z"/>
        <path class="cls-3" d="M194.81,205.54c18.31-10.68,90.02-14.11,109.95-.89,10.97,7.28,12.64,47.14-.38,45.46-30.36-3.92-93.8-3.65-111.86-1.66-9.02,1-8.97-36.33,2.29-42.91Z"/>
        <path class="cls-3" d="M209.33,329.61s-.41,3.21-.72,7.55c-.41,5.84-.62,13.73.72,18.54"/>
        <path class="cls-5" d="M209.33,364.62c-3.9,0-7.49-2.58-8.59-6.52-1.35-4.84-1.69-12.1-1.02-21.56.32-4.54.75-7.91.77-8.06.63-4.89,5.1-8.33,9.98-7.71,4.88.63,8.33,5.1,7.71,9.98h0s-.39,3.04-.67,7.04c-.74,10.38.13,14.5.41,15.52,1.32,4.74-1.45,9.66-6.2,10.99-.8.22-1.61.33-2.4.33Z"/>
        <path class="cls-3" d="M295.46,326.8s7.66,14.34,3.83,32.44"/>
        <path class="cls-5" d="M299.3,368.17c-.61,0-1.23-.06-1.85-.19-4.82-1.02-7.9-5.75-6.88-10.57,3.06-14.49-2.94-26.33-3-26.45-2.32-4.34-.66-9.72,3.68-12.04,4.35-2.32,9.76-.65,12.08,3.69.38.7,9.13,17.45,4.69,38.49-.89,4.2-4.59,7.08-8.72,7.08Z"/>
        <path class="cls-11" d="M221.04,190.35c-3.33,0-6.34-2.27-7.14-5.65-.94-3.95,1.51-7.9,5.45-8.84,34.16-8.1,66.39-1.88,67.75-1.62,3.98.79,6.57,4.65,5.78,8.63-.79,3.98-4.65,6.56-8.63,5.78-.39-.08-30.6-5.83-61.51,1.5-.57.14-1.14.2-1.7.2Z"/>
        <path class="cls-11" d="M250.52,326.8h-12.04c-2.66,0-4.86-2.06-5.03-4.71l-1.22-11.82c-.36-5.4,3.52-10.16,8.89-10.9l2.76-.38c6.19-.84,11.69,3.97,11.69,10.21v12.55c0,2.79-2.26,5.05-5.05,5.05Z"/>
        <path class="cls-8" d="M188.79,377.12s-38.88-7.33-45.5-19.79c-4.14-7.78,7.93-38.76,19.52-63.94,3.17-6.88,6.29-13.33,9.05-18.75,3.32-6.55,6.1-11.6,7.72-14.1,0,0-.93,12.07-1.49,28.47-.14,3.9-.25,8.04-.33,12.33-.57,31.21.87,69.9,11.03,75.79Z"/>
        <path class="cls-8" d="M170.87,273.37l8.71-17.67s-1.45,15.73,21.54,45.98c7.46,9.82,15.97,19.82,25.41,27.11l19.38,14.4c.26.25-.06.66-.37.47l-22.41-14.05c-19.3-10.4-36.4-22.97-48.15-41.48l-4.89-4.65c-2.01-3.17-1.7-7.29.77-10.11Z"/>
        <path class="cls-8" d="M346.91,375.15c-5.01,9.65-34.02,7.53-34.02,7.53,0,0,3.21-12.69,4.87-27.53,1.44-12.93,1.69-27.5-2.4-36.76-3.44-7.8-14.54-6.88-25.5,1.29-3.66,2.72-7.72,5.45-11.88,8.03-.01.01-.03.02-.04.03h-.01c-10.97,6.87-22.46,12.84-27.97,15.62-.44.22-.81-.37-.44-.66,13.53-10.88,70.2-56.84,80.84-71.74,7.73-10.81,2.46,10.42,9.68,22.42.53.86,1.11,1.68,1.78,2.43,3.86,4.39,6.24,16.07,7.42,29.23,1.81,20.37.71,44.26-2.33,50.12Z"/>
        <path class="cls-4" d="M277.98,327.7c4.16-2.58,8.22-5.3,11.88-8.03,10.96-8.17,22.05-9.08,25.5-1.29,4.08,9.26,3.83,23.83,2.4,36.76,2.22-.13,4.61-.42,6.96-.95,6.07-1.35,18.24-17.71,24.53-29.17-1.18-13.16-1.71-20.41-5.56-24.8,0,0-14.98-12.59-65.69,27.47Z"/>
        <path class="cls-9" d="M287.04,322.01c12.84-12.44,40.19-36.32,57.84-38.24-16.82,3.05-44.06,26.85-57.84,38.24h0Z"/>
        <path class="cls-9" d="M299.48,313.27c4.56-3.25,9.38-6.1,14.34-8.7,4.99-2.45,10.13-5.09,15.72-5.77-1.35.38-2.66.8-3.95,1.34-8.76,3.7-17.61,8.87-26.11,13.12h0Z"/>
        <g>
          <path class="cls-1" d="M248.79,343.9c4.14-3.84,8.32-7.68,13.16-10.67-3.86,4.14-8.14,8.02-13.16,10.67h0Z"/>
          <path class="cls-1" d="M248.79,343.9c4.38-3.57,8.79-7.13,13.81-9.8-4.12,3.88-8.64,7.48-13.81,9.8h0Z"/>
          <path class="cls-1" d="M248.82,343.88c4.66-3.2,9.35-6.39,14.57-8.63-4.42,3.53-9.22,6.75-14.57,8.63h0Z"/>
        </g>
        <g>
          <path class="cls-1" d="M246.57,344.02c-5.02-2.65-9.29-6.53-13.16-10.67,4.84,2.99,9.01,6.83,13.16,10.67h0Z"/>
          <path class="cls-1" d="M246.57,344.02c-5.18-2.32-9.69-5.92-13.81-9.8,5.02,2.67,9.43,6.24,13.81,9.8h0Z"/>
          <path class="cls-1" d="M246.55,344c-5.35-1.89-10.15-5.1-14.57-8.63,5.22,2.25,9.91,5.44,14.57,8.63h0Z"/>
        </g>
        <path class="cls-9" d="M167,289.58c5.27-3.77,11.57,3.32,14.93,6.92,3.88,4.46,7.94,8.76,12.32,12.72,6.51,5.98,13.66,11.34,21.12,16.1,2.5,1.59,5.08,3.03,7.77,4.29-11.03-4.46-20.73-11.77-29.62-19.59-4.36-4.06-8.46-8.38-12.23-12.98-3.19-3.62-8.98-10.75-14.29-7.46h0Z"/>
        <path class="cls-5" d="M303.18,160.59c-4.59-3.23-99.78-4.19-110.1.97-4.8,2.4-9.29,13.46-12.72,24.61.69,2.99,2.2,5.83,3.79,8.4,3.05,4.95,6.78,9.84,11.89,11.62,1.38.48,2.86.63,4.33.48.57,1.25,1.29,2.42,2.14,3.42,3.16,3.75,7.64,5.69,12.05,7.13,5.99,2.16,14.48,3.08,19.17-1.85,7.89,4.91,17.69,5.69,26.45,2.97,5.01-1.56,10.07-4.71,13.1-9.26.98.49,1.99.91,2.98,1.27,5.72,2.09,12.03,3.27,17.67.92,4.51-1.87,8.28-6.62,8.89-11.81,5.03-.84,9.85-2.83,13.2-7,3.42-4.26,4.25-10.4,2.99-15.92-5.12-5.6-12.86-13.87-15.82-15.96Z"/>
        <path class="cls-5" d="M275.51,206.03c3.69,5.85,12.72,18.44,20.41,12.03,5.17-4.28,5.78-11.7,4.67-18.03,2.1,6.88,1.83,16.01-4.49,20.77-8.89,6.66-19.88-5.15-25.12-11.76,0,0,4.54-3.01,4.54-3.01h0Z"/>
        <path class="cls-5" d="M216.65,206.55c-7.84-.93-23.39-1.7-22.02,9.84.65,5.7,9.08,9.75,14.05,6.73,3.06-1.62,5.89-7.27,1.35-8.9,1.29.36,2.5,1.31,2.72,2.71.46,4.28-3.32,8.03-7.41,8.61-5.58.55-12.17-2.83-13.39-8.65-2.34-10.91,8.11-14.86,16.98-15.58,2.78-.26,5.45-.34,8.33-.17l-.61,5.41h0Z"/>
        <path class="cls-5" d="M275.08,140.87c6.06-1.99,15.06-5.34,17.24-11.74.58-2.08-.19-4.53-1.26-6.34-2.44-4.07-8.77-4.64-12.84-2.73-2.17,1.17-3.78,3.38-4.11,5.86-.41,2.66.65,5.51,3.82,5.22-1.32.21-2.82-.16-3.59-1.34-2.19-3.7-.3-8.69,3.18-10.91,4.85-2.81,12.25-2.46,15.77,2.33,6.65,8.96-1.23,16.89-9.01,21.21-2.42,1.39-4.82,2.56-7.51,3.61l-1.68-5.18h0Z"/>
        <path class="cls-5" d="M183.62,165.73c5.29-5.85,14.93-18.09,4.73-23.65-5.03-2.77-13.21,1.76-13.63,7.56-.49,3.43,2.56,8.99,6.47,6.26-1.03.84-2.52,1.28-3.78.65-3.75-2.1-4.62-7.36-2.73-11.03,2.78-4.87,9.35-8.28,14.81-5.91,10.25,4.41,7.42,15.22,2.87,22.87-1.4,2.41-2.88,4.64-4.68,6.89l-4.06-3.63h0Z"/>
        <path class="cls-5" d="M332.33,160.83c-1.64,7.72-3.84,23.14,7.78,22.83,5.74-.13,10.54-8.15,8-13.37-1.29-3.22-6.72-6.5-8.74-2.17.47-1.25,1.53-2.37,2.95-2.46,4.3-.06,7.69,4.05,7.89,8.17.04,5.61-3.93,11.86-9.84,12.54-11.08,1.33-14.05-9.44-13.96-18.34,0-2.79.16-5.46.59-8.31l5.33,1.11h0Z"/>
        <path class="cls-5" d="M345.42,227.52c-4.44,6.53-12.29,19.98-1.42,24.08,5.36,2.05,12.84-3.56,12.45-9.36.02-3.47-3.77-8.55-7.28-5.31.91-.98,2.32-1.62,3.66-1.16,4,1.57,5.59,6.65,4.23,10.54-2.08,5.21-8.12,9.5-13.85,7.89-10.77-2.95-9.45-14.05-6-22.25,1.05-2.58,2.21-4.99,3.69-7.47l4.52,3.04h0Z"/>
        <path class="cls-10" d="M247.72,347.81c-.47.66-1.46.67-1.94.02l-4.97-6.65c-1.1-1.36-.91-3.4.44-4.69l2.01-1.92c2.12-2.03,5.39-2.06,7.29-.07l1.94,2.02c1.15,1.21,1.18,3.13.07,4.52l-4.84,6.77Z"/>
      </g>
    </g>
  </g>
</svg>