<?xml version="1.0" encoding="UTF-8"?>
<svg xmlns="http://www.w3.org/2000/svg" viewBox="0 0 500 500">
  <defs>
    <style>
      .cls-1, .cls-2, .cls-3, .cls-4 {
        fill-rule: evenodd;
      }

      .cls-1, .cls-2, .cls-3, .cls-4, .cls-5, .cls-6 {
        stroke-width: 0px;
      }

      .cls-1, .cls-5 {
        fill: #272c32;
      }

      .cls-2 {
        fill: #869eb4;
      }

      .cls-3, .cls-6 {
        fill: #fff;
      }

      .cls-4 {
        fill: #b6b6b6;
      }
    </style>
  </defs>
  <g id="stiker_style" data-name="stiker style">
    <path class="cls-6" d="M382.23,242.64c-.43-1.34-1.04-2.56-1.81-3.66l2.03-1.5-12.56-28.44-12.64,2.51c-.91-.94-1.86-1.85-2.84-2.71l1.78-12.72-29-11.29-6.93,10.81c-1.39-.05-2.77-.04-4.16.02l-8.16-10.36-4.31,1.93c-2.31-13.28-5.9-22.88-10.72-28.64l-.13-.15c-18.66-21.21-62.62-22.61-75.63-22.52-26.05.16-58.61,5.85-71.89,21.34-12.26,14.3-11.36,53.87-9.91,74.83-.06-.01-.11-.03-.17-.04-.37-.06-.73-.12-1.09-.15-3.98-.41-7.88.75-10.98,3.27-3.07,2.49-4.99,6.02-5.43,9.94-1.21,9.18-.51,18.34,2.05,27.15,1.82,6.51,7.69,10.94,14.4,10.94.17,0,.33,0,.5,0,1.41-.04,2.8-.26,4.14-.66.39-.11.78-.23,1.13-.36.86-.31,1.67-.71,2.44-1.16,3.53,15.21,8.31,28.29,14.41,34.95,1.62,1.78,3.42,3.46,5.4,5.01-.6,4.49-.75,9.01-.45,13.53-5.54,1.85-11.27,5.17-11.27,11.69,0,10.11,13.41,12.99,25.99,14.89,12.78,1.93,29.65,3,47.5,3s34.74-1.06,47.54-3c12.59-1.9,26.02-4.78,26.02-14.89,0-6.44-5.62-9.77-11.19-11.66.64-5.18.75-10.41.32-15.62,2.83-3.44,5.4-7.94,7.69-13.46l17.17,6.41,7.04-10.47c1.42.05,2.85.05,4.27-.02l8.21,10.42,27.55-12.76-2.51-12.53c.95-.94,1.87-1.92,2.75-2.93l12.71,1.86,11.12-28.99-2.45-1.65c2.5-3.37,3.4-7.86,2.03-12.15ZM329.33,252.99c-1.12,2.9-3.3,5.2-6.14,6.46l-.11.05c-5.78,2.54-12.54-.04-15.17-5.76l-.11-.25c-2.57-5.86.08-12.73,5.94-15.33,2.84-1.26,6.01-1.34,8.91-.22,2.9,1.12,5.2,3.3,6.46,6.14,1.26,2.84,1.34,6.01.22,8.91Z"/>
  </g>
  <g id="Bubus">
    <g>
      <path class="cls-4" d="M326.43,293.03c-3.95.52-7.96.52-11.91,0l-6.13,9.13-16.79-6.27,1.32-10.66c-3.14-2.44-5.92-5.3-8.29-8.5l-10.87,2.16-7.39-16.72,8.85-6.97c-.52-3.95-.52-7.96,0-11.91l-9.2-6.13,6.55-17.07,10.94,1.6c2.35-3.22,5.12-6.13,8.22-8.64l-2.09-10.8,15.88-7.11,6.97,8.85c3.95-.52,7.96-.52,11.91,0l5.99-9.34,17,6.62-1.53,10.94c3.16,2.3,6,5.02,8.43,8.08l10.87-2.16,7.39,16.72-8.85,6.55c.56,3.95.56,7.96,0,11.91l9.2,6.2-6.55,17.07-10.94-1.6c-2.31,3.22-5.03,6.12-8.08,8.64l2.16,10.8-16.09,7.45-6.97-8.85ZM326.43,266.76c9.92-4.4,14.39-16.01,9.99-25.93-4.4-9.92-16.01-14.39-25.93-9.99-9.92,4.4-14.39,16.01-9.99,25.93,0,0,0,.02.01.02,4.36,9.89,15.92,14.37,25.81,10.01.03-.02.07-.03.1-.05Z"/>
      <path class="cls-1" d="M286.79,163.72c-23.9-27.17-114.89-25.22-135.44-1.25-17.14,20-6.97,128.12,11.36,148.12,24.94,27.52,96.42,13.93,110.5,8.57,27.38-8.22,33.65-131.47,13.59-155.43Z"/>
      <path class="cls-2" d="M223.95,336.3c36.16,0,65.56,4.46,65.56,9.89s-29.4,9.89-65.56,9.89-65.49-4.46-65.49-9.89,29.33-9.89,65.49-9.89Z"/>
      <path class="cls-3" d="M184.1,243.91c6.7,0,12.12,5.43,12.12,12.12,0,6.7-5.43,12.12-12.12,12.12-6.67,0-12.08-5.39-12.12-12.05,0-6.71,5.42-12.15,12.12-12.19Z"/>
      <path class="cls-6" d="M238.51,303.83c-13.75-.28-27.17-4.3-38.81-11.63-3.22-2.57-3.74-7.26-1.17-10.48,2.28-2.85,6.28-3.64,9.47-1.85,6.3,3.76,13.17,6.47,20.34,8.01,12.86,3.46,26.6.13,36.44-8.85,3.16-2.63,7.87-2.2,10.5.96,2.44,2.94,2.27,7.24-.4,9.98-9.85,9.18-22.9,14.16-36.37,13.86Z"/>
      <circle class="cls-6" cx="282.4" cy="254.02" r="11.01"/>
      <path class="cls-3" d="M283.1,187.69c-18.11-10.52-89.04-13.93-109.03-.77-10.94,6.97-12.61,46.75,0,45.08,36.9-3.43,74-3.96,110.98-1.6,9.34.98,9.27-35.74-1.95-42.71Z"/>
      <path class="cls-6" d="M262.96,172.01h-1.67c-20.1-4.31-40.82-4.8-61.1-1.46-3.85.77-7.59-1.73-8.36-5.57-.77-3.85,1.73-7.59,5.57-8.36,22.3-3.84,45.14-3.29,67.23,1.6,3.96.46,6.8,4.05,6.34,8.01-.46,3.96-4.05,6.8-8.01,6.34h0v-.56Z"/>
      <path class="cls-5" d="M268.75,345.63c-.82-.01-1.64-.13-2.44-.35-4.69-1.32-7.42-6.18-6.13-10.87.94-5.08,1.09-10.27.42-15.4,0-3.97-.63-6.97-.63-6.97-.63-4.89,2.81-9.36,7.7-10s9.36,2.81,10,7.7h0s.49,3.48.84,8.01c.76,7.14.41,14.36-1.05,21.39-1.1,3.88-4.67,6.54-8.71,6.48Z"/>
      <path class="cls-5" d="M362.59,253.32c-2.12.05-4.23-.33-6.2-1.11-2.74-1.41-3.82-4.77-2.41-7.51,1.26-2.45,4.12-3.61,6.73-2.74,2.33.41,4.72.24,6.97-.49,2.91-.92,6.01.68,6.93,3.59.92,2.91-.68,6.01-3.59,6.93-2.73.85-5.57,1.3-8.43,1.32Z"/>
      <path class="cls-5" d="M134.42,275.19c-3.22.12-6.1-1.98-6.97-5.09-2.27-7.8-2.89-15.99-1.81-24.04.4-3.83,3.82-6.61,7.65-6.21.19.02.38.05.58.08,3.98.61,6.74,4.3,6.2,8.29-.72,5.86-.29,11.79,1.25,17.49,1.32,3.61-.53,7.61-4.14,8.94-.19.07-.39.13-.59.19-.7.22-1.43.33-2.16.35Z"/>
      <path class="cls-5" d="M179.43,349.11c-4.15-.03-7.73-2.92-8.64-6.97-2.62-12.92-.98-26.34,4.67-38.25,2.31-4.31,7.67-5.93,11.98-3.62,4.31,2.31,5.93,7.67,3.62,11.98-3.71,8.21-4.73,17.37-2.93,26.2.98,4.83-2.13,9.54-6.96,10.52,0,0,0,0,0,0-.57.11-1.16.15-1.74.14Z"/>
      <path class="cls-6" d="M349.01,227.68c-.68-.04-1.3-.4-1.67-.98-1.68-2.58-3.7-4.92-5.99-6.97-.81-.86-.81-2.21,0-3.07.84-.85,2.21-.85,3.05-.01,0,0,0,0,.01.01,2.64,2.19,4.99,4.72,6.97,7.52.68,1,.43,2.36-.56,3.07-.53.36-1.18.51-1.81.42Z"/>
      <path class="cls-6" d="M336.26,216.25c-.32.07-.65.07-.98,0-6.46-3.25-13.72-4.53-20.9-3.69-1.19.19-2.32-.62-2.51-1.81-.19-1.19.62-2.32,1.81-2.51h0c8.14-.98,16.38.47,23.69,4.18,1.06.56,1.49,1.85.98,2.93-.5.64-1.28.98-2.09.91Z"/>
    </g>
  </g>
</svg>