<?xml version="1.0" encoding="UTF-8"?>
<svg xmlns="http://www.w3.org/2000/svg" viewBox="0 0 500 500">
  <defs>
    <style>
      .cls-1 {
        fill: #343a41;
      }

      .cls-1, .cls-2 {
        fill-rule: evenodd;
      }

      .cls-1, .cls-2, .cls-3, .cls-4 {
        stroke-width: 0px;
      }

      .cls-2, .cls-4 {
        fill: #fff;
      }

      .cls-3 {
        fill: #869eb4;
      }
    </style>
  </defs>
  <g id="stiker_style" data-name="stiker style">
    <g>
      <path class="cls-4" d="M330.67,337.96c.28-3.45.15-6.84-.3-11.76,5.48-5.79,7.58-11.41,8.91-14.99,4.22-11.35,3.98-65.88-.4-89.77-.35-1.92-.68-3.86-1.01-5.79-4.5-26.27-9.99-58.43-69.29-58.43-5.4,0-11.25.27-17.58.83-37.66,3.31-59.52,11.24-70.89,25.72-13.42,17.09-9.87,40.31-6.11,64.89,4.95,32.26,12.02,56.64,16.99,68.69,1.67,4.06,3.6,8.26,6.32,12.25-1.51,1.83-3.13,3.65-4.84,5.45l-.09.09c-.53.57-1,1.16-1.43,1.76-.07.1-.12.2-.19.29-17.42,2.83-28.76,6.94-28.76,16.39,0,10.16,13.11,14.15,32.79,17.01,17.09,2.48,39.74,3.85,63.76,3.85s46.67-1.37,63.76-3.85c19.68-2.86,32.79-6.84,32.79-17.01,0-8.65-9.49-12.82-24.45-15.64Z"/>
      <path class="cls-4" d="M167.99,180.47c6.79-4.84,8.39-14.32,3.62-21.05-.04-.06-4.04-5.94-5.16-12.72-.66-4-2.84-7.5-6.13-9.86-3.3-2.36-7.31-3.29-11.3-2.63-4,.66-7.51,2.84-9.87,6.13-2.36,3.29-3.29,7.31-2.63,11.31,2.26,13.64,9.49,24.12,10.31,25.28,2.9,4.08,7.61,6.35,12.41,6.35,1.98,0,3.98-.39,5.88-1.2,1.01-.43,1.97-.97,2.87-1.61Z"/>
      <path class="cls-4" d="M354.19,135.15h0c-1.01-.41-2.08-.71-3.16-.89-8.2-1.38-16.01,4.15-17.45,12.33-.09.45-1.45,7.2-5.35,12.65-4.87,6.8-3.3,16.29,3.5,21.16,2.61,1.87,5.66,2.85,8.81,2.85.83,0,1.67-.07,2.51-.21,4-.66,7.5-2.84,9.86-6.13,8.09-11.3,10.35-23.79,10.58-25.17,1.17-6.97-2.74-13.94-9.29-16.58Z"/>
    </g>
  </g>
  <g id="Bubus">
    <g>
      <ellipse id="Oval" class="cls-3" cx="258.57" cy="353.59" rx="88.55" ry="12.85"/>
      <g>
        <path class="cls-1" d="M251.7,166.02c-79.26,6.97-77.03,34.14-69.79,81.43,5.01,32.67,12.04,56.07,16.49,66.86,2.2,5.34,4.72,10.67,9.13,15.19-2.36,3.26-5.39,7-9.25,11.06-.27.3-.53.61-.77.95-2.63,3.74-1.72,8.99,2.03,11.62,3.37,2.37,8.02,1.91,10.85-1.09,4.83-5.09,8.59-9.8,11.48-13.91,9.99,3.34,24.51,4.56,46.32,2.23,16.76-1.79,28.93-4.72,37.85-8.16.19,4.8-.46,7.57-2.3,15.46-.12.51-.19,1.03-.21,1.55-.17,4.57,3.44,8.47,8.01,8.65,3.98.16,7.56-2.56,8.47-6.45,3.13-13.39,3.4-15.17,2.01-28.3,6.3-5.43,8.34-10.89,9.76-14.69,3.25-8.72,3.8-60.62-.77-85.54-5.5-30.04-6.04-63.37-79.31-56.87Z"/>
        <path class="cls-1" d="M158.56,148c-.65-3.91-4.34-6.55-8.24-5.9-3.91.64-6.55,4.34-5.9,8.24,2,12.1,8.65,21.55,8.94,21.94,1.99,2.79,5.61,3.73,8.64,2.44.47-.2.92-.45,1.36-.76,3.22-2.29,3.97-6.76,1.69-9.98-.11-.16-5.04-7.29-6.48-15.98Z"/>
        <path class="cls-1" d="M351.2,142.57c-.47-.19-.97-.33-1.5-.42-3.9-.65-7.59,1.97-8.25,5.86-.03.18-1.59,8.72-6.72,15.88-2.3,3.22-1.56,7.7,1.65,10,3.22,2.31,7.7,1.57,10-1.65,7.14-9.97,9.12-21.36,9.2-21.84.57-3.38-1.33-6.61-4.39-7.84Z"/>
      </g>
      <g>
        <path class="cls-2" d="M310.92,235.06c12.1.17,12.82-7.22,11.89-15.89-1.09-10.21-3.78-19.88-10.09-23.76-8.08-4.98-23.16-4.83-44.21-4.04-16.68.63-57.04,4.23-64.59,17.14-6.38,10.91-3.14,41.25,10.13,38.37,22.13-4.81,84.77-11.99,96.86-11.82Z"/>
        <path class="cls-2" d="M231.68,188.1c.14-.01.27-.03.41-.06l2.58-.28q24.66-3.29,46.01-4.26l1.65-.07.37-.04h.02c3.2-.35,5.56-3.2,5.23-6.3-.32-2.97-2.98-5.21-6.07-5.09l-1.65.07q-21.89,1-47.09,4.36l-2.58.28s-.06,0-.09,0c-3.22.34-5.6,3.2-5.27,6.32.33,3.12,3.26,5.41,6.49,5.06Z"/>
        <path class="cls-2" d="M241.08,261.37c-.45-2.85-8.57-9.9-16.24-7.49-8.41,2.62-10.33,11.64-10.03,14.18.49,4.21,3.55-4.31,11.15-5.93,9.41-2.02,15.47,1.45,15.13-.75Z"/>
        <path class="cls-2" d="M312.7,243.08c-7.28-.19-11.26,6.46-11.73,8.55-.78,3.48,3.95-2.46,10.32-1.71,7.89.93,11.65,5.32,11.99,3.48.43-2.38-3.94-10.17-10.58-10.33Z"/>
        <path class="cls-2" d="M315.02,272.5c-2.74-2.47-6.97-2.25-9.44.49-9.6,10.65-22.55,15.1-38.55,13.21-12.61-1.48-22.44-6.49-22.54-6.54-3.28-1.69-7.3-.42-9,2.85-1.7,3.27-.43,7.31,2.84,9.01,7.98,4.15,21.02,8.4,35.1,8.4s29.86-4.45,42.07-17.99c2.47-2.74,2.25-6.97-.49-9.44Z"/>
      </g>
    </g>
  </g>
</svg>