<?xml version="1.0" encoding="UTF-8"?>
<svg xmlns="http://www.w3.org/2000/svg" viewBox="0 0 500 500">
  <defs>
    <style>
      .cls-1 {
        fill: #262c32;
      }

      .cls-1, .cls-2, .cls-3 {
        fill-rule: evenodd;
      }

      .cls-1, .cls-2, .cls-3, .cls-4 {
        stroke-width: 0px;
      }

      .cls-2 {
        fill: #869eb4;
      }

      .cls-3, .cls-4 {
        fill: #fff;
      }
    </style>
  </defs>
  <g id="stiker_style" data-name="stiker style">
    <path class="cls-4" d="M373.61,227.55v-.02c-.58-.96-1.27-1.85-2.04-2.67-5.87-6.22-15.71-6.51-21.87-.71-.05.05-5.64,5.14-12.65,7.33-5.69,1.78-9.63,6.55-10.64,12.05-.43-15.57-1.59-30.98-3.46-41.16-.38-2.04-.73-4.1-1.08-6.16-2.64-15.38-5.62-32.8-18.6-45.22-14.4-13.77-37.69-18.72-73.3-15.56-39.95,3.51-63.12,11.88-75.11,27.17-14.12,17.99-10.36,42.54-6.37,68.53.37,2.4.75,4.76,1.14,7.08-1.45-.16-2.92-.12-4.4.14-4.16.74-7.77,3.09-10.16,6.62-8.31,12.28-10.5,25.72-10.72,27.19-1.11,7.34,2.86,14.37,9.66,17.09,1.06.43,2.17.73,3.31.92.82.13,1.64.2,2.46.2,3.23,0,6.38-1.02,9.05-2.97,3.42-2.49,5.66-6.19,6.29-10.32,0-.04.4-2.3,1.41-5.35,3.52,14.2,7.11,25.23,10.02,32.27,2,4.86,4.34,9.87,7.84,14.52-1.96,2.45-4.09,4.88-6.37,7.28l-.09.1c-.54.59-1.03,1.19-1.47,1.82-1.28,1.82-2.17,3.84-2.64,5.94-13.22,1.84-18.93,4.73-20.92,10.13-1.32,3.59-.41,7.49,2.45,10.45,8.15,8.4,31.19,9.67,90.12,10.94,8.99.19,17.25.29,24.75.29,14.82,0,26.69-.38,35.45-1.13,10.1-.87,25.35-2.19,25.77-13.1.22-6.27-4.36-9.75-9.07-11.75,2.31-10.45,2.47-14.34,1.29-25.85,6.05-6.21,8.32-12.29,9.75-16.14,2.44-6.54,3.47-26.67,3.15-47.73.09.4.18.79.3,1.19,1.23,3.97,3.94,7.22,7.61,9.16,2.26,1.19,4.71,1.79,7.19,1.79,1.56,0,3.12-.24,4.65-.71,13.88-4.34,23.6-13.34,24.65-14.34,5.25-4.97,6.36-13.08,2.65-19.29ZM279.61,331.19c-.18.82-.38,1.73-.62,2.75-2.81-.21-5.72-.4-8.69-.58,3.26-.66,6.36-1.39,9.31-2.17Z"/>
  </g>
  <g id="Bubus">
    <g>
      <path class="cls-2" d="M235.86,339.87c-55.02-2.02-91.44,1.9-84.76,8.79,6.28,6.48,37.82,7.51,84.55,8.51,54.69,1.18,77.61-1.28,77.8-6.22.29-8.24-40.98-9.74-77.58-11.08Z"/>
      <g>
        <path class="cls-1" d="M230.68,143.41c-84.36,7.4-81.98,36.27-74.28,86.51,5.33,34.71,12.81,59.57,17.55,71.03,2.5,6.07,5.41,12.14,10.76,17.14-2.65,3.79-6.18,8.28-10.88,13.22-.29.32-.57.65-.82,1.01-2.8,3.98-1.83,9.55,2.16,12.35,3.58,2.51,8.53,2.02,11.55-1.16,5.97-6.27,10.38-12,13.62-16.83,10.58,3.21,25.67,4.31,47.89,1.94,17.75-1.89,30.66-4.98,40.14-8.62.52,6.77-.05,9.23-2.3,18.85-.13.54-.2,1.1-.22,1.65-.18,4.85,3.66,9,8.52,9.19,4.24.17,8.05-2.72,9.02-6.85,3.51-14.96,3.65-16.27,1.89-32.33,6.9-5.83,9.11-11.73,10.63-15.82,3.46-9.27,4.05-64.4-.82-90.87-5.85-31.91-6.43-67.32-84.41-60.41Z"/>
        <path class="cls-1" d="M152.25,247.53c-3.43-2.47-8.15-1.6-10.54,1.93-7.42,10.96-9.36,23.38-9.44,23.9-.56,3.69,1.49,7.18,4.73,8.48.5.2,1.03.35,1.59.44,4.12.66,7.99-2.24,8.64-6.49.03-.2,1.57-9.52,6.89-17.38,2.39-3.54,1.55-8.41-1.87-10.87Z"/>
        <path class="cls-1" d="M366.75,231.66c-.28-.46-.61-.9-.99-1.31-2.85-3.02-7.6-3.16-10.63-.31-.15.13-6.86,6.32-15.68,9.08-3.97,1.24-6.19,5.48-4.95,9.46,1.24,3.99,5.46,6.2,9.43,4.96,12.3-3.85,21.16-12.16,21.53-12.51,2.62-2.48,3.07-6.4,1.29-9.37Z"/>
      </g>
      <g>
        <path class="cls-3" d="M295.38,215.24c12.81.18,13.57-7.66,12.59-16.86-1.16-10.84-4-21.1-10.68-25.22-8.55-5.29-24.52-5.12-46.79-4.29-17.65.67-60.37,4.49-68.36,18.19-6.75,11.58-3.32,43.78,10.73,40.72,23.42-5.1,89.72-12.72,102.52-12.55Z"/>
        <path class="cls-3" d="M211.45,165.83c.15-.01.29-.03.44-.05l2.77-.2q26.47-2.64,49.33-2.88l1.77-.02.4-.03h.02c3.44-.26,6.06-3.24,5.82-6.61-.23-3.22-3-5.74-6.3-5.73l-1.77.02q-23.43.26-50.49,2.95l-2.77.2s-.07,0-.1,0c-3.46.25-6.11,3.25-5.87,6.63.24,3.38,3.29,5.96,6.75,5.71Z"/>
        <path class="cls-3" d="M220.21,241.01c-.49-2.8-9.27-9.72-17.58-7.36-9.1,2.57-11.18,11.43-10.86,13.92.53,4.13,3.84-4.23,12.07-5.82,10.19-1.98,16.74,1.42,16.37-.74Z"/>
        <path class="cls-3" d="M297.23,222.82c-7.56-.18-11.7,6.21-12.19,8.22-.81,3.34,4.11-2.37,10.73-1.64,8.2.9,12.11,5.11,12.46,3.34.45-2.29-4.1-9.77-11-9.93Z"/>
        <path class="cls-3" d="M292.51,248.67c-10.85,12.3-25.49,17.44-43.56,15.26-14.25-1.71-25.36-7.49-25.47-7.55-3.7-1.96-8.25-.48-10.17,3.29-1.93,3.78-.49,8.44,3.21,10.41,9.02,4.79,23.76,9.7,39.67,9.7s33.75-5.14,47.55-20.78c2.79-3.17,2.54-8.05-.56-10.9-3.1-2.86-7.87-2.6-10.66.57Z"/>
      </g>
    </g>
  </g>
</svg>