<?xml version="1.0" encoding="UTF-8"?>
<svg xmlns="http://www.w3.org/2000/svg" viewBox="0 0 500 500">
  <defs>
    <style>
      .cls-1 {
        fill: #282c32;
      }

      .cls-1, .cls-2, .cls-3, .cls-4, .cls-5, .cls-6 {
        stroke-width: 0px;
      }

      .cls-2 {
        fill: #45474b;
      }

      .cls-3 {
        fill: #859cb2;
      }

      .cls-4 {
        fill: #021ca1;
      }

      .cls-5 {
        fill: #fff;
      }

      .cls-6 {
        fill: #e8220f;
      }
    </style>
  </defs>
  <g id="stiker_style" data-name="stiker style">
    <path class="cls-5" d="M359.17,308.11c5,.46-30.53-196.5-28.86-206.79-.65-6.16-7-9.75-12.94-8.09-22.7-12.42-36.9-15.05-48.33-13.02l-.17-1.07c-52.98,26.55-66.52,37.79-132.18,13.96,6.85,43.69,14.41,92.92,19.54,126.65,11.63,3.44,24.27,6.44,34.94,7.75-31.82,16.23-23.09,55.06-17.97,86.74-11.12-10.22-33.38-20.59-35.3,4.3,4.68,16.76,31.58,30.69,41.04,22.98,4.64,21.43,14.27,33.05,12.07,52.34-15.18,4.72-16.27,10-10.82,19.04,5.6,5.89,18.04,7.47,45.38,7.47,23.12-2.72,95.84,6.35,99.09-16.53-.34-7.25-5.62-10.47-13.15-12.34,1.31-24.62,16.39-11.43,16.34-55.55.03-2.96.1-9.33.1-12.2,4.22,1.98,9.14,1.69,13.14-.86,11.45,13.46,23.48-.06,18.08-14.81ZM324.92,276.54c-4.94-28.08-6.48-59.41-61.87-61.89,23.99-12.62,25.1-20.06,62.27-.75-1.99,8.28,20.61,84.79,1.96,85.2-.52-8.85-1.32-16.63-2.36-22.56Z"/>
  </g>
  <g id="Bubus">
    <g>
      <path class="cls-3" d="M185.99,407.41c5.24,5.52,30.73,5.34,68.26,4.63,44.03-.84,62.39-3.81,62.41-8.18,0-7.32-33.26-7.22-62.68-7.14-44.32.13-73.51,4.82-67.99,10.69Z"/>
      <g>
        <path class="cls-1" d="M173.1,323.21c-.06-.02-6.49-2.66-16.24-10.94-2.82-2.38-7.03-2.04-9.41.77-2.4,2.81-2.05,7.03.77,9.41,11.39,9.68,19.17,12.86,20.02,13.2,2.23.87,4.65.45,6.43-.89.96-.72,1.75-1.7,2.21-2.91,1.35-3.43-.35-7.31-3.79-8.64Z"/>
        <path class="cls-1" d="M352.03,295.15c-2.43-2-6.06-1.66-8.09.78-.04.05-3.98,4.71-13.26,10.48-2.7,1.68-3.53,5.23-1.84,7.93.23.39.51.73.82,1.03,1.86,1.85,4.79,2.27,7.11.81,10.91-6.79,15.58-12.36,16.08-12.96,2-2.46,1.63-6.05-.82-8.07Z"/>
        <path class="cls-1" d="M315.03,328.28l-.12.6c.06,0,.11,0,.17,0-.03-.35-.05-.6-.05-.6Z"/>
        <path class="cls-2" d="M350.98,320.01c-1.2.27-2.78.17-2.97-1.36,0,0-30.09-215.71-30.09-215.71-.13-.96.54-1.85,1.49-1.98,1.2-.27,2.78-.17,2.97,1.36,0,0,30.09,215.71,30.09,215.71.13.96-.54,1.85-1.49,1.98Z"/>
        <path class="cls-1" d="M348.96,293.93s-4.07,10.89,1.33,9.74c5.4-1.15.8-9.47-1.33-9.74Z"/>
        <path class="cls-5" d="M278.95,196.78c-13.96,5.58-25.56,18.68-55.76,23l-14.42-106.8c28.78-4.39,40.34-16.81,53.79-22.49,4.07,25.9,12.12,77.46,16.39,106.29Z"/>
        <path class="cls-6" d="M333.5,209.32c-28.8-16.59-42.56-17.32-54.55-12.54-.01.01-.04.01-.06.03-4.32-28.78-12.49-80.25-16.63-106.19.1-.04.19-.08.29-.13,12.19-5.15,25.9-4.75,55.34,12.2l15.6,106.62Z"/>
        <path class="cls-1" d="M317.04,277.92c-4.98-28.62-5.37-60.24-73.18-54.75-73.35,5.93-71.38,31.77-64.84,76.79,4.53,31.09,10.95,53.4,15.03,63.69,1.46,3.66,3.05,7.32,5.36,10.69-1.85,18.75.97,29.68,1.1,30.18.96,3.57,4.18,5.9,7.68,5.89.68,0,1.37-.07,2.04-.25,4.26-1.11,6.8-5.45,5.72-9.72-.01-.08-1.26-5.14-1.19-14.31,9.25,3.53,22.88,5,43.78,2.89,12.45-1.25,22.17-3.22,29.79-5.61-.17,2.86-.71,5.9-1.68,11.24-.79,4.33,2.08,8.48,6.43,9.27.49.08.97.14,1.44.12,3.78,0,7.13-2.72,7.84-6.57,1.92-10.54,2.44-13.84,1.72-21.14,7-4.57,10.12-9.47,11.94-13.46.29-.64.54-1.25.78-1.83,1.1-2.76,1.79-7.87,2.24-13.26.01-.15.03-.29.03-.43,0-.06,0-.12.01-.21.03-.19.04-.37.06-.57v-.06c.68-9.11.69-18.54.8-18.54.17-17.17-.65-37.31-2.89-50.06Z"/>
        <g>
          <path class="cls-5" d="M208.09,297.22c20.92-4.54,79.89-10.95,91.29-10.64,11.4.31,12.08-7.05,11.21-15.74-1.03-10.22-3.57-19.91-9.51-23.87-7.62-5.07-21.82-5.1-41.67-4.58-15.71.42-53.75,3.53-60.87,16.35-6.02,10.83-2.97,41.2,9.54,38.48Z"/>
          <path class="cls-5" d="M296.09,312.99s-.01.03,0,.04c-.47,1.6,1,2.8,2.17,1.77,2.45-2.13,5.53-3.05,8.43-2.18,2.37.7,4.17,2.47,5.23,4.8.65,1.4,2.53.75,2.79-.94.04-.26.08-.51.1-.77.48-4.64-1.42-8.96-4.77-10.75-5.35-2.84-11.89,1.15-13.95,8.02Z"/>
          <path class="cls-1" d="M315.29,331.38c-.04-.34-.16-1.7-.22-2.51-.05,0-.11.01-.17,0-1.27.02-2.14-.79-2.85-1.04-.97-.34-1.61-.57-2.83,10.46-1.22,11.01-4.71,19.72-4.71,19.72-1.58,3.26.49,2.69,1.65,2.09,1.14-.61,2.07-.57,2.52-.63,0,0,2.31-4.36,2.61-5.91.31-1.54.08-1.38.28-3.8.2-2.4.71-3.22.73-4.09.01-.88,2.21-4.42,2.01-7.02-.22-2.62,1.02-6.77.96-7.27Z"/>
          <path class="cls-5" d="M295.48,327.02c-27.14,16.78-51.99,10.25-64.01,6.45-16.98-5.39-13.28,36.31,18.93,40,35.98,4.12,46.57-14.93,51.04-25.13,3.97-9.05,4.43-27.74-5.96-21.31Z"/>
          <path class="cls-5" d="M224.84,318.18s-.02-.08-.04-.12c-1.99-5.78-7.96-9.25-13.48-7.84-6.06,1.56-9.51,8.18-7.66,14.61.06.22.12.43.19.63.66,1.9,3.09,2.17,3.94.43,1.32-2.71,3.66-4.84,6.67-5.69,2.59-.75,5.23-.43,7.56.69,1.67.8,3.43-.87,2.82-2.69Z"/>
          <path class="cls-1" d="M316.43,328.51c-.5.24-.95.36-1.35.37.06.8.17,2.16.22,2.51.06.5-1.18,4.65-.96,7.27.2,2.6-2,6.14-2.01,7.02-.02.87-.53,1.69-.73,4.09-.2,2.42.03,2.26-.28,3.8-.31,1.55-2.61,5.91-2.61,5.91.44-.06.93,1.41,2.6,2.43,1.64,1,2.08-1.6,2.14-1.21h.01c.14-.13,1.29-1.3,1.97-3.38.73-2.22.65-2.84,1.18-4.54.54-1.69,2.57-4.45,2.46-5.32-.04-.3.09-1.19.28-2.23.28-4.23.46-9.12.54-14.37.02-.95.04-1.91.04-2.89-.67-1.08-1.72-.32-3.5.54Z"/>
          <path class="cls-5" d="M228.74,239.53c.32,0,.64-.02.97-.08.2-.04,20.51-3.55,43.2-2.22,3.05.2,5.67-2.16,5.86-5.2.17-3.06-2.16-5.69-5.21-5.86-23.96-1.41-44.9,2.21-45.77,2.36-3.02.53-5.03,3.4-4.51,6.43.48,2.68,2.82,4.58,5.46,4.57Z"/>
          <g>
            <path class="cls-6" d="M222.11,367.65s-4.55-8.19-7.13-18.98c-2.58-10.77-3.19-10.48-4.11-10.02-.67.35-1.43,1.25-2.69,1.4-.04.01-.1.01-.17.01.04.81.1,2.17.1,2.5,0,.5,1.74,4.48,1.86,7.09.13,2.62,2.75,5.86,2.87,6.72.13.87.74,1.62,1.24,3.98.5,2.36.25,2.23.75,3.73.5,1.5,3.33,5.54,3.33,5.54.46,0,1.37-.15,2.58.31,1.22.44,3.35.75,1.37-2.29Z"/>
            <path class="cls-4" d="M213.6,371.45h-.01c-.15-.12-1.44-1.14-2.37-3.12-1-2.12-1-2.73-1.74-4.36-.75-1.61-3.11-4.11-3.11-4.97s-2-6.36-2-6.84-1.86-4.73-1.86-6.59c0-1.64.25-4.08.31-4.66-.32,2.29-1.08,1.89-2.42,3.07-1.37,1.22-1.37-1.05-1.37,3.5s4.11,16.55,10.48,23.83c6.37,7.29,4.1.61,4.1.15Z"/>
            <path class="cls-5" d="M213.6,371.44h0s0,.01-.01,0h.01Z"/>
            <path class="cls-5" d="M214.82,364.09c-.5-1.5-.25-1.37-.75-3.73-.5-2.36-1.11-3.11-1.24-3.98-.13-.86-2.75-4.09-2.87-6.72-.12-2.61-1.86-6.59-1.86-7.09,0-.33-.06-1.69-.1-2.5-.4.03-.86-.03-1.39-.19-2.28-.76-3.48-1.53-3.79.9,0,0,0,.04-.01.12-.06.58-.31,3.03-.31,4.66,0,1.86,1.86,6.09,1.86,6.59s2,5.97,2,6.84,2.36,3.36,3.11,4.97c.74,1.62.74,2.23,1.74,4.36.93,1.99,2.22,3,2.37,3.11h.01c.01-.4.78,2.12,2.28.93,1.53-1.22,1.83-2.73,2.28-2.73,0,0-2.83-4.04-3.33-5.54Z"/>
          </g>
          <path class="cls-4" d="M315.29,331.38c-.04-.34-.16-1.7-.22-2.51-.05,0-.11.01-.17,0-1.27.02-2.14-.79-2.85-1.04-.97-.34-1.61-.57-2.83,10.46-1.22,11.01-4.71,19.72-4.71,19.72-1.58,3.26.49,2.69,1.65,2.09,1.14-.61,2.07-.57,2.52-.63,0,0,2.31-4.36,2.61-5.91.31-1.54.08-1.38.28-3.8.2-2.4.71-3.22.73-4.09.01-.88,2.21-4.42,2.01-7.02-.22-2.62,1.02-6.77.96-7.27Z"/>
          <path class="cls-5" d="M316.43,328.51c-.5.24-.95.36-1.35.37.06.8.17,2.16.22,2.51.06.5-1.18,4.65-.96,7.27.2,2.6-2,6.14-2.01,7.02-.02.87-.53,1.69-.73,4.09-.2,2.42.03,2.26-.28,3.8-.31,1.55-2.61,5.91-2.61,5.91.44-.06.93,1.41,2.6,2.43,1.64,1,2.08-1.6,2.14-1.21h.01c.14-.13,1.29-1.3,1.97-3.38.73-2.22.65-2.84,1.18-4.54.54-1.69,2.57-4.45,2.46-5.32-.04-.3.09-1.19.28-2.23.28-4.23.46-9.12.54-14.37.02-.95.04-1.91.04-2.89-.67-1.08-1.72-.32-3.5.54Z"/>
        </g>
        <path class="cls-6" d="M316.6,352.78c.49-1.51,2.17-3.9,2.43-5-.44,5.39-1.14,10.49-2.24,13.26-.24.58-.49,1.19-.78,1.83-2,.25-4.25-.74-4.25-.74v-.03c1.25.28,1.61-1.76,1.68-1.4h.01c.12-.14,1.29-1.3,1.96-3.39.74-2.22.65-2.85,1.18-4.54Z"/>
        <path class="cls-4" d="M208.77,112.98c-.94.14-1.9.28-2.87.4-18.3,2.36-39.2-1.75-59.26-8.49,6.05,38.68,12.27,79.28,16.74,108.58,19.71,5.6,40.17,8.85,58.12,6.54.57-.07,1.14-.15,1.69-.22l-14.42-106.8Z"/>
      </g>
    </g>
  </g>
</svg>