<?xml version="1.0" encoding="UTF-8"?>
<svg xmlns="http://www.w3.org/2000/svg" viewBox="0 0 500 500">
  <defs>
    <style>
      .cls-1 {
        fill: #353535;
      }

      .cls-1, .cls-2, .cls-3, .cls-4, .cls-5, .cls-6 {
        fill-rule: evenodd;
      }

      .cls-1, .cls-2, .cls-3, .cls-4, .cls-5, .cls-6, .cls-7, .cls-8 {
        stroke-width: 0px;
      }

      .cls-2, .cls-7 {
        fill: #262c32;
      }

      .cls-3, .cls-8 {
        fill: #fff;
      }

      .cls-4 {
        fill: #8a8a8a;
      }

      .cls-5 {
        fill: #b4b4b4;
      }

      .cls-6 {
        fill: #859cb2;
      }
    </style>
  </defs>
  <g id="stiker_style" data-name="stiker style">
    <path class="cls-8" d="M356.9,172.33c3.03-12.42-1.92-24.54-12.91-31.63-12.2-7.88-28.31-7.45-39.22,1.03-8.25,6.17-10.31,13.11-10.55,17.91-.05.69-.05,1.38,0,2.08-12.72-2.75-26.58-3.63-38.29-3.31-13.75.38-47.38,3.13-62.57,20.45l-.12.14c-9.92,11.86-12.9,40.74-12.4,66.46-.11,0-.22-.01-.33-.01h-24.34c-3.53,0-6.87,1.45-9.32,4.06-.64.52-1.22,1.1-1.74,1.73-2.41,2.93-3.38,6.75-2.68,10.47,1.47,7.67,4.18,21.86,6.48,33.93-1.56,2.87-2.19,6.39-1.67,9.99.64,4.37,2.88,8.11,5.98,10.41,2.05,4.36,6.49,7.29,11.5,7.29h23.17c3.04,0,5.95-1.09,8.24-3.05.89,1.41,1.8,2.7,2.76,3.85-.27,4.92-.23,9.17.12,12.84-5.1,1.82-10.09,5-10.09,11.08,0,9.74,12.42,12.44,24.06,14.2,11.51,1.74,26.72,2.7,42.82,2.7s31.3-.96,42.81-2.7c11.64-1.76,24.05-4.45,24.05-14.2,0-6.14-5.04-9.3-10.07-11.08.21-3.72.07-7.47-.41-11.23,1.67-1.33,3.19-2.77,4.57-4.28,5.2-5.73,9.08-16.12,11.9-26.99,1.4.93,2.98,1.64,4.7,2.04,1.09.25,2.21.38,3.32.38,6.77,0,12.58-4.6,14.14-11.19.3-1.27,2.85-12.74.01-25.25-1.59-7-8.02-11.66-14.97-11.29.87-10.77,1.2-21.41.91-30.92,1.75-2.53,2.78-5.59,2.96-8.93v-.27c.1-4.32-1.3-8.24-3.89-11.24,1.18-1.5,2.08-3.23,2.69-5.12,8.97-3.26,16.03-10.87,18.38-20.36Z"/>
  </g>
  <g id="Bubus">
    <g>
      <path class="cls-6" d="M255.79,339.16c-32.49,0-58.87,3.99-58.87,8.89,0,4.9,26.38,8.89,58.87,8.89,32.48,0,58.86-3.99,58.86-8.89s-26.38-8.89-58.86-8.89Z"/>
      <path class="cls-7" d="M321.02,183.01c-18.47-21.56-100.24-23.29-121.66,1.12-16.9,20.21-13.05,118.63,7.74,137.06-.03.43-.07.87-.1,1.32-.6,8.42-.29,14.89.92,19.22.98,3.52,4.17,5.82,7.65,5.82.71,0,1.42-.09,2.14-.29,4.23-1.18,6.7-5.56,5.53-9.79-.22-.8-.85-3.77-.55-10.77,16.24,3.43,44.16,6.82,65.69,1.45.53,3.72.62,8.18-.39,12.96-.91,4.29,1.83,8.51,6.13,9.42.56.12,1.11.17,1.66.17,3.68,0,6.98-2.56,7.77-6.3,1.81-8.56,1.17-16.33-.1-22.3,2.78-1.7,5.26-3.7,7.37-6.03,16.33-17.99,25.57-115.11,10.2-133.07Z"/>
      <ellipse class="cls-8" cx="232.37" cy="306.22" rx="8.77" ry="10.08"/>
      <path class="cls-3" d="M291.58,256.2c-6.01,0-10.88,4.88-10.88,10.89s4.87,10.88,10.88,10.88,10.89-4.87,10.89-10.88-4.88-10.89-10.89-10.89Z"/>
      <circle class="cls-8" cx="203.3" cy="265.26" r="9.9"/>
      <path class="cls-3" d="M202.64,205.75c16.31-9.52,80.24-12.58,98.01-.8,9.78,6.49,11.27,42.02-.34,40.52-27.07-3.49-83.61-3.25-99.71-1.48-8.05.89-8.01-32.39,2.04-38.25Z"/>
      <path class="cls-8" d="M220.76,191.59c.5,0,1.01-.06,1.52-.18,27.6-6.54,54.58-1.39,54.84-1.34,3.54.69,6.99-1.61,7.69-5.16.7-3.55-1.6-6.99-5.15-7.69-1.21-.24-29.94-5.78-60.4,1.44-3.52.83-5.69,4.36-4.86,7.88.71,3.01,3.4,5.04,6.36,5.04Z"/>
      <path class="cls-4" d="M151.53,259.05c-.27-1.38.1-2.81.99-3.89.9-1.08,2.23-1.71,3.64-1.71,6.89,0,18.32,0,24.34,0,2.3,0,4.27,1.67,4.65,3.94,1.77,10.49,6.59,39.18,8.63,51.28.22,1.37-.16,2.77-1.06,3.83-.89,1.06-2.21,1.67-3.6,1.67-6.59,0-17.4,0-23.16,0-2.26,0-4.2-1.61-4.63-3.83-1.98-10.38-7.47-39.09-9.8-51.29Z"/>
      <path class="cls-5" d="M150.29,260.21c-.26-1.38.11-2.81,1-3.89.89-1.09,2.23-1.71,3.64-1.71,6.89,0,18.32,0,24.33,0,2.31,0,4.27,1.66,4.66,3.93,1.77,10.49,6.58,39.18,8.62,51.29.23,1.37-.16,2.77-1.05,3.83-.9,1.06-2.21,1.67-3.6,1.67-6.6,0-17.41,0-23.16,0-2.26,0-4.21-1.6-4.63-3.84-1.99-10.38-7.48-39.08-9.81-51.28Z"/>
      <path class="cls-2" d="M158.94,297.14c-2.62.39-4.31,3.67-3.78,7.33.53,3.67,3.09,6.33,5.7,5.95,2.61-.38,4.3-3.66,3.78-7.32-.53-3.67-3.09-6.34-5.7-5.96Z"/>
      <path class="cls-1" d="M178.97,257.67c-1.17.18-1.93,1.49-1.71,2.89.21,1.42,1.35,2.42,2.51,2.23,1.16-.17,1.93-1.48,1.71-2.89-.22-1.42-1.35-2.42-2.51-2.23Z"/>
      <path class="cls-1" d="M175.82,259.65c-.36.06-.59.46-.52.88.07.43.41.73.77.67.35-.06.58-.45.51-.87-.07-.43-.41-.73-.76-.68Z"/>
      <path class="cls-7" d="M336.67,288.9c2.96,0,5.65-2.02,6.36-5.03.1-.43,2.48-10.71,0-21.64-.8-3.53-4.3-5.73-7.83-4.93-3.53.8-5.74,4.31-4.93,7.83,1.79,7.88.04,15.66.03,15.74-.81,3.52,1.38,7.03,4.89,7.85.5.12,1,.17,1.5.17Z"/>
      <g>
        <path class="cls-8" d="M314.42,208.33c.45-11.33,17.53-10.77,17.31.56-.63,11.53-17.34,10.87-17.3-.6v.04Z"/>
        <path class="cls-8" d="M316.17,186.74c.27-11.36-.84-11.66,10.62-14.23,10.82-3.83,5.16-18.49-5.57-13.6-4.17,1.87-8.71,9.14-12.82,8.65-3.8.03-6.53-3.81-6.2-7.41.19-4.5,2.66-8.52,7.42-12.06,16.37-12.8,44.89.29,39.51,22.34-2.08,8.4-9.14,14.7-17.73,15.81.58,12.34-16.24,13.33-15.22.5Z"/>
      </g>
    </g>
  </g>
</svg>