<?xml version="1.0" encoding="UTF-8"?>
<svg xmlns="http://www.w3.org/2000/svg" viewBox="0 0 500 500">
  <defs>
    <style>
      .cls-1 {
        opacity: .15;
      }

      .cls-1, .cls-2, .cls-3, .cls-4, .cls-5, .cls-6, .cls-7, .cls-8, .cls-9, .cls-10 {
        fill-rule: evenodd;
      }

      .cls-1, .cls-2, .cls-3, .cls-4, .cls-5, .cls-6, .cls-7, .cls-8, .cls-9, .cls-10, .cls-11, .cls-12 {
        stroke-width: 0px;
      }

      .cls-2 {
        fill: #8392a3;
      }

      .cls-3, .cls-11 {
        fill: #343a41;
      }

      .cls-4 {
        fill: #617bd4;
      }

      .cls-5 {
        fill: #95a2b5;
      }

      .cls-6 {
        fill: #869eb4;
      }

      .cls-7 {
        fill: #e45b0b;
      }

      .cls-8, .cls-12 {
        fill: #fff;
      }

      .cls-9 {
        fill: #e4e4e4;
      }

      .cls-10 {
        fill: #a1aec5;
      }
    </style>
  </defs>
  <g id="stiker_style" data-name="stiker style">
    <path class="cls-12" d="M443.32,272.87c4.17-3.02,4.31-9.87.31-13.06.04-6.14-7.6-10.27-12.72-6.95-2.88-.86-6.04-.12-8.25,2.03-1.21-.75-2.46-1.47-3.73-2.18-3.36-20.01.99-31.9-9.16-38.92,10,2.11,14.82-10.84,6.7-16.56,5.95-8.77-4.41-18.79-12.97-12.6-6.39-8.22-19.06-1.73-15.95,8.27-10,3.49-7.72,17.64,2.85,17.84l.22,1.25c-7.88.69-26.5-1.75-27.16,11.34-.71-.08-1.44-.08-2.17.03-4.59-4.08-12.68-1.15-13.62,4.89-4.46,2.54-5.33,9.32-1.68,12.94-7.48,2.3-13.52,5.98-17.63,10.88-2.26-1.24-4.75-1.76-7.19-1.62,1.71-28.56,2.62-68.17-12.37-88.72-33.31-34.06-150.56-30.77-150.73,21.34-.33-13.49-2.55-39.15-22.41-35.64-27.53,6.99-51.33,28.36-70.47,48.83-7.19,8.76-23.28,21.04-14.16,33.48,15.74,13.49,44.2,20.23,69.61,13.53,2.46,2.26,5.58,3.78,8.96,4.27,9.82,9.01,18.54,17.97,30.7,14.85,4.77,25.59,8.38,44.83,22.32,55.98-.56,4.24-.71,8.47-.45,12.66-5.35,1.83-10.8,5.08-10.8,11.47,1.45,19.27,51.83,16.24,71.02,17.52,19.31-1.31,69.41,1.82,71.02-17.51,0-6.33-5.41-9.61-10.84-11.48.42-4.04.47-8.79.15-14.33,7.64-9.13,12.25-24.83,15.03-39.86,1.61.94,3.28,1.82,5.04,2.63,7.79,39.21,106.52,73.22,127.22,27,3.34-11.57,2.03-22.4-6.68-33.63ZM156.86,231.73c-3.58-2.08-6.3-6.72-10.15-8.8-.12-.22-.25-.45-.38-.66,4.89-7.44,8.31-15.72,10.16-24.3-.71,12.19-.24,24.63.37,33.76Z"/>
  </g>
  <g id="Bubus">
    <g>
      <path class="cls-6" d="M242.39,333c34.78,0,63.02,4.26,63.02,9.52s-28.24,9.52-63.02,9.52-63.02-4.26-63.02-9.52,28.23-9.52,63.02-9.52Z"/>
      <path class="cls-11" d="M302.79,167.03c-22.93-26.13-110.47-24.29-130.23-1.2-16.46,19.22-6.56,123.2,10.91,142.46,2.26,2.49,4.92,4.63,7.9,6.46-1.36,6.39-2.05,14.7-.11,23.87.85,4.01,4.38,6.75,8.32,6.75.58,0,1.17-.06,1.77-.19,4.6-.97,7.54-5.49,6.57-10.09-1.08-5.12-.98-9.89-.41-13.88,23.05,5.75,52.94,2.12,70.32-1.55.22,5.18.01,9.37-.59,11.54-1.25,4.53,1.41,9.22,5.94,10.47.76.21,1.52.31,2.27.31,3.73,0,7.16-2.47,8.2-6.25,1.28-4.64,1.61-11.56.97-20.56-.03-.49-.07-.96-.11-1.42,22.27-19.73,26.38-125.1,8.29-146.73Z"/>
      <path class="cls-11" d="M340.5,276.56c-.26,0-.53-.02-.8-.06-.45-.07-11.23-1.76-20.79-8.37-2.42-1.67-3.02-4.99-1.35-7.41,1.67-2.42,4.99-3.02,7.41-1.35,7.46,5.16,16.24,6.58,16.33,6.6,2.9.45,4.9,3.17,4.45,6.07-.4,2.63-2.67,4.52-5.25,4.52Z"/>
      <path class="cls-11" d="M155.4,255.25c-.95,0-1.91-.19-2.83-.6-.18-.08-1.84-.83-4.23-2.24-3.88-2.28-9.5-6.2-14.2-11.83-2.48-2.97-2.08-7.39.89-9.87,2.97-2.48,7.39-2.08,9.87.89,3.42,4.09,7.63,7.01,10.57,8.74,1.68.99,2.8,1.5,2.81,1.5,3.52,1.59,5.1,5.73,3.52,9.26-1.17,2.6-3.72,4.15-6.4,4.15Z"/>
      <path class="cls-8" d="M204.07,244.18c6.43,0,11.66,5.22,11.66,11.66s-5.23,11.66-11.66,11.66-11.65-5.22-11.65-11.66,5.22-11.66,11.65-11.66Z"/>
      <path class="cls-12" d="M256.36,301.81c-15.2,0-29.31-5.82-37.32-10.97-3.34-2.14-4.3-6.59-2.16-9.92,2.14-3.33,6.58-4.3,9.91-2.16.18.11,8.53,5.34,19.6,7.67,13.95,2.94,25.74.07,35.04-8.53,2.91-2.69,7.45-2.51,10.15.4,2.69,2.91,2.51,7.46-.4,10.15-10.72,9.91-23.09,13.37-34.82,13.37Z"/>
      <path class="cls-8" d="M298.59,243.28c5.85,0,10.6,4.75,10.6,10.6s-4.75,10.6-10.6,10.6-10.6-4.75-10.6-10.6,4.75-10.6,10.6-10.6Z"/>
      <path class="cls-8" d="M299.29,190.16c-17.47-10.2-85.91-13.47-104.93-.85-10.47,6.94-12.07,44.98.36,43.38,28.98-3.74,89.52-3.48,106.75-1.58,8.61.95,8.56-34.68-2.18-40.95Z"/>
      <path class="cls-12" d="M279.88,175.01c-.53,0-1.08-.06-1.62-.19-29.67-7.03-58.41-1.49-58.7-1.43-3.8.75-7.48-1.72-8.24-5.52-.75-3.8,1.72-7.48,5.52-8.24,1.29-.26,32.05-6.18,64.65,1.54,3.77.89,6.1,4.67,5.2,8.44-.76,3.22-3.64,5.39-6.81,5.39Z"/>
      <g>
        <path class="cls-10" d="M123.22,231.1c.08,4.85,4.07,8.71,8.92,8.63,4.85-.08,8.71-4.07,8.63-8.92-.08-4.85-4.07-8.71-8.92-8.63s-8.71,4.07-8.63,8.92"/>
        <path class="cls-5" d="M133.35,226.16c1.61-1.82,3.14-3.81,4.68-5.94,9.77-13.51,13.93-30.7,11.27-46.95-1.11-6.78-2.48-20.02-11.96-17.99-16.49,3.53-32.8,15.83-45.52,26.33-7.39,6.1-14.29,12.78-20.61,19.96-4.83,5.49-10.09,10.49-13.89,16.78-1.27,2.1-1.53,4.48.05,6.51.94,1.21,2.28,2.06,3.64,2.81,19.19,10.53,55.54,17.41,72.35-1.5"/>
        <path class="cls-8" d="M111.64,173.21c.19,0,.39-.07.54-.2,1.02-.87,4.79-3.13,6.16-3.93.4-.23.53-.74.3-1.14-.23-.4-.74-.53-1.14-.3-.21.12-5.07,2.96-6.41,4.1-.35.3-.39.83-.09,1.18.17.19.4.29.63.29"/>
        <path class="cls-8" d="M144.46,170.66s.09,0,.14-.01c.45-.08.76-.51.69-.96-.59-3.55-3.16-10.35-6.7-10.74-2.97-.33-14.42,4.78-15.71,5.36-.42.19-.61.68-.42,1.11.19.42.68.61,1.11.42,4.73-2.13,12.95-5.42,14.84-5.22,2.07.23,4.56,5.31,5.23,9.36.07.41.42.7.82.7"/>
      </g>
      <path class="cls-3" d="M140.58,234.52c1.84,2.32,1.82,5.4-.04,6.87-1.86,1.47-4.86.78-6.69-1.54-1.84-2.32-1.82-5.4.04-6.87s4.85-.78,6.69,1.54Z"/>
      <path class="cls-5" d="M396.55,255.43c30.82,10.27,51.37,32.02,45.87,48.53-5.51,16.52-35,21.59-65.81,11.32-30.82-10.27-51.37-32.02-45.86-48.53,5.51-16.52,35-21.59,65.8-11.32Z"/>
      <path class="cls-10" d="M396.98,251.77c30.82,10.27,51.37,32.02,45.86,48.53-5.5,16.52-34.98,21.59-65.8,11.32-30.82-10.27-51.37-32.02-45.86-48.53,5.5-16.52,34.98-21.59,65.8-11.32Z"/>
      <path class="cls-2" d="M398.78,258.46c-.29-.66-.94-1.08-1.66-1.08h-37.34c-.61,0-1.19.31-1.52.83-.34.52-.4,1.17-.15,1.73,3.48,7.83,13.9,31.26,16.26,36.58.29.66.95,1.08,1.66,1.08h37.34c.62,0,1.2-.31,1.53-.83.33-.52.38-1.17.13-1.73-3.47-7.83-13.89-31.26-16.26-36.58Z"/>
      <path class="cls-4" d="M408.14,224.46c-.23-2.5-2.32-4.41-4.82-4.41h-27.08c-1.37,0-2.67.57-3.59,1.58-.92,1.01-1.37,2.36-1.25,3.71,1.24,13.28,4.44,47.82,5.58,60.09.23,2.49,2.32,4.4,4.82,4.4h26.99c1.36,0,2.66-.57,3.58-1.58.93-1.01,1.37-2.35,1.25-3.71-1.21-13.28-4.37-47.82-5.49-60.09Z"/>
      <path class="cls-9" d="M408.18,224.97c-.17-1.7-1.6-3-3.31-3-1.16,0-2.61,0-4.23,0,.28.76.2,1.62-.25,2.3-.47.71-1.26,1.13-2.11,1.14-3.74,0-9.26.01-12.01.02-1.02,0-1.93-.61-2.33-1.55-.28-.65-.58-1.36-.8-1.88h-4.67c-.94,0-1.83.41-2.46,1.1-.62.7-.93,1.62-.84,2.56,1.17,11.75,4.84,48.49,5.92,59.27.17,1.7,1.59,3,3.31,2.99l26.3-.04c.95,0,1.83-.4,2.46-1.09.63-.69.93-1.62.85-2.55-1.16-11.75-4.77-48.49-5.82-59.27Z"/>
      <path class="cls-7" d="M362.8,231.46c-.11-.15-.31-.21-.49-.14l-3.65,1.3-2.37-3c-.12-.15-.31-.21-.49-.14-.18.07-.29.23-.28.42l.14,3.79-3.69,1.33c-.18.06-.29.23-.28.42,0,.19.12.35.31.41l3.66,1.11.16,4.01c.01.19.12.35.31.4.09.03.19.02.27,0,.08-.03.16-.09.21-.16l2.27-3.25,3.79,1.08c.18.06.36-.01.48-.17.1-.16.09-.36-.02-.51l-2.42-3.2,2.12-3.18c.1-.16.09-.36-.02-.51Z"/>
      <path class="cls-7" d="M438.58,266.3c.03-.19-.05-.37-.22-.46l-3.4-1.87.67-3.76c.04-.19-.04-.37-.22-.46-.17-.09-.36-.06-.5.07l-2.74,2.62-3.44-1.87c-.17-.09-.36-.07-.5.07-.15.13-.18.33-.1.5l1.6,3.47-2.9,2.78c-.14.13-.17.33-.09.5.04.09.11.15.19.2.07.04.17.06.26.05l3.94-.46,1.7,3.55c.08.17.26.27.45.24.19-.02.33-.16.37-.35l.78-3.94,3.78-.53c.19-.03.33-.16.37-.35Z"/>
      <path class="cls-7" d="M409.94,190.98c-.27-.27-.66-.33-1-.16l-6.86,3.54-5.5-5.29c-.27-.26-.66-.33-1-.14-.33.18-.52.53-.46.91l1.31,7.45-6.95,3.62c-.33.17-.52.53-.46.91.06.38.35.66.73.72l7.53,1.22,1.39,7.89c.06.38.35.65.73.71.19.03.37,0,.52-.08.17-.08.29-.21.37-.38l3.63-7.04,7.78,1.12c.37.06.73-.13.89-.46.17-.34.1-.73-.17-1l-5.64-5.68,3.34-6.86c.17-.34.08-.74-.19-1Z"/>
      <path class="cls-1" d="M379.41,285.44c-1.13-12.27-4.34-46.81-5.57-60.09-.12-1.36.32-2.71,1.24-3.71.93-1.01,2.22-1.58,3.59-1.58h-2.43c-1.37,0-2.67.57-3.59,1.58-.92,1.01-1.37,2.36-1.25,3.71,1.24,13.28,4.44,47.82,5.58,60.09.23,2.49,2.32,4.4,4.82,4.4h2.44c-2.5,0-4.59-1.91-4.83-4.4Z"/>
    </g>
  </g>
</svg>