<?xml version="1.0" encoding="UTF-8"?>
<svg xmlns="http://www.w3.org/2000/svg" viewBox="0 0 500 500">
  <defs>
    <style>
      .cls-1 {
        fill: #282c33;
      }

      .cls-1, .cls-2, .cls-3, .cls-4, .cls-5 {
        stroke-width: 0px;
      }

      .cls-2 {
        fill: #343a41;
      }

      .cls-3 {
        fill: #869eb4;
      }

      .cls-4 {
        fill: #fff;
      }

      .cls-5 {
        fill: #e65b0a;
      }
    </style>
  </defs>
  <g id="stiker_style" data-name="stiker style">
    <path class="cls-4" d="M382.89,262.88c.13-1.03-5.88-36.9-21.91-35.39,7.45-64.68-13.41-93.05-88.75-89.71-91.24,4.13-80.34,44.91-83.65,89.39-7.57-5.1-16.1-7.93-24.68-8.07-7.29-20.4-38.47-5.1-30.79,13.11-4.9,5.11-8.78,11.5-11.31,18.7-11.9,5.24-13.52,26.04-2.27,32.57.62,3.38,1.51,6.7,2.63,9.92-11.94,15.3-.91,22.92,19.44,34.18,3.53,1.76,7.8,1.93,11.4.56,6.29,2.7,12.83,3.9,19.33,3.52-5.53,1.99-8.88,5.54-8.98,10.99.98,19.71,62.87,14.91,91.28,17.51,30.46-.16,81.37,4.94,96.48-5.79,8.51-9.12,2.07-17.42-12.04-20.08.44-4.38.68-10.01.32-16.83,12.57-14.63,12.44-24.82,16.55-43.58,8.66,11.55,28.83,3.5,26.95-11ZM204.1,314.07c.58.72,1.22,1.44,1.91,2.18-.05,4.49.16,8.34.47,11.53-9.41.24-16.58.7-22.1,1.37,7.73-2.89,14.52-8.12,19.72-15.07Z"/>
  </g>
  <g id="Bubus">
    <g>
      <path class="cls-3" d="M345.96,348.26c-6.91,5.81-40.9,5.23-91.12,3.91-58.84-1.55-83.41-4.98-83.49-9.65-.13-7.78,44.32-7.2,83.63-6.68,59.25.78,98.32,6.24,90.98,12.42Z"/>
      <path class="cls-2" d="M272.39,145.77c-76.21,1.44-73.09,35.77-75.45,67.33-1.96,26.17,4.31,79.57,8.63,88.2,1.57,3.14,3.72,7.44,8.53,11.62-.56,14.05,1.59,22.14,1.9,23.24,1.09,3.78,4.54,6.25,8.29,6.25.79,0,1.59-.11,2.39-.34,4.56-1.31,7.2-6.06,5.92-10.62-.04-.17-.89-3.47-1.2-9.46,9.85,3.1,23.64,5.21,43.21,5.21,17.41,0,30.19-1.68,39.67-4.51.11,9.6-1.26,14.95-1.32,15.17-1.28,4.56,1.36,9.31,5.92,10.62.8.23,1.6.34,2.39.34,3.75,0,7.2-2.46,8.29-6.25.35-1.23,2.99-11.16,1.59-28.38,7.44-6.19,10.26-13.89,12.49-21.51,3.39-11.61,8.06-36.49,9.61-70.7,2.25-49.52,1.56-77.76-80.87-76.2Z"/>
      <g>
        <path class="cls-5" d="M205.59,266.78c-5.82-26.25-27.95-43.68-49.43-38.92-.39.09-.77.2-1.16.3,1.85-2.74,2.12-6.04.39-8.37-2.33-3.14-7.41-3.32-11.33-.4s-5.21,7.83-2.88,10.97c.91,1.22,2.24,1.99,3.75,2.31-7.52,5-13.14,12.99-16.12,22.52,3.98.52,7.27,4.51,7.62,9.58.04.6.03,1.19-.01,1.77-.14-4.72-2.91-8.65-6.84-9.22-4.53-.66-8.87,3.4-9.7,9.06-.82,5.66,2.18,10.79,6.71,11.45.06,0,.13,0,.19.02.23,2.05.56,4.11,1.02,6.18,5.82,26.25,27.95,43.68,49.43,38.92s34.18-29.9,28.36-56.16Z"/>
        <path class="cls-4" d="M137.58,252.52c-.2,0-.4-.04-.6-.13-.73-.33-1.04-1.19-.71-1.91,2.86-6.27,7.06-11.54,12.14-15.22.64-.47,1.55-.32,2.01.32.47.64.32,1.55-.32,2.01-4.68,3.39-8.56,8.26-11.21,14.08-.24.53-.77.84-1.31.84Z"/>
        <path class="cls-4" d="M200.41,267.93c-4.27-19.25-20.11-32.12-35.38-28.73-15.28,3.39-24.2,21.74-19.93,40.99,4.27,19.25,20.11,32.12,35.38,28.73,15.28-3.39,24.2-21.74,19.93-40.99ZM183.52,274.82c-.51.54-1.21.84-1.94.84-.19,0-.38-.02-.58-.06l-14.31-3.18c-1.43-.32-2.34-1.74-2.02-3.17s1.74-2.34,3.17-2.02l9.85,2.19c-3.49-10.83-7.7-20.4-7.75-20.51-.59-1.34.02-2.91,1.36-3.5,1.34-.59,2.91.02,3.5,1.36.23.51,5.58,12.7,9.32,25.49.26.9.03,1.88-.61,2.56Z"/>
      </g>
      <circle class="cls-4" cx="211.74" cy="259.3" r="10.89"/>
      <circle class="cls-4" cx="305.05" cy="260.86" r="12.44"/>
      <path class="cls-1" d="M147.94,321.07c-.93,0-1.88-.21-2.77-.65-12.13-6.04-17.49-11.56-18.06-12.17-2.35-2.51-2.22-6.44.28-8.79,2.5-2.34,6.41-2.22,8.76.26.13.14,4.54,4.59,14.56,9.57,3.08,1.53,4.33,5.27,2.79,8.34-1.09,2.18-3.29,3.45-5.57,3.45Z"/>
      <path class="cls-2" d="M367.73,271.47c-3.68,0-6.81-2.79-7.17-6.52-.03-.24-.89-7.45-6.48-19.14-1.72-3.6-.2-7.9,3.4-9.62,3.59-1.72,7.9-.2,9.62,3.4,6.78,14.18,7.74,23.05,7.83,24.02.36,3.97-2.57,7.48-6.54,7.84-.22.02-.44.03-.66.03Z"/>
      <path class="cls-4" d="M211.74,184.65c-6.07,4.86-7.78,15.44-7.78,26.44,0,9.33,1.56,17.11,14,15.55,12.44-1.56,77.7-1.04,101.09,1.56,14,1.56,14-31.1,6.22-41.99-9.2-12.88-51.18-12.12-68.43-10.89-21.77,1.56-37.32,3.11-45.1,9.33Z"/>
      <path class="cls-4" d="M241.33,168.44c-3.21,0-5.9-2.49-6.11-5.74-.21-3.38,2.35-6.29,5.73-6.5l1.71-.11q22.65-1.44,48.98-.71l2.69.07c3.38.09,6.05,2.91,5.96,6.29-.09,3.38-2.93,6.04-6.29,5.95l-2.7-.07q-25.77-.71-47.87.69l-1.71.11c-.13,0-.26.01-.39.01Z"/>
      <path class="cls-4" d="M284.84,291.96c-.15,0-.29,0-.44-.01l-55.99-3.11c-4.29-.24-7.57-3.91-7.33-8.19.24-4.29,3.9-7.55,8.19-7.33l55.99,3.11c4.29.24,7.57,3.91,7.33,8.19-.23,4.14-3.66,7.34-7.76,7.34Z"/>
    </g>
  </g>
</svg>