<?xml version="1.0" encoding="UTF-8"?>
<svg id="Bubus" xmlns="http://www.w3.org/2000/svg" viewBox="0 0 500 500">
  <defs>
    <style>
      .cls-1, .cls-2, .cls-3, .cls-4 {
        fill-rule: evenodd;
      }

      .cls-1, .cls-2, .cls-3, .cls-4, .cls-5, .cls-6, .cls-7, .cls-8 {
        stroke-width: 0px;
      }

      .cls-1, .cls-6 {
        fill: #272c32;
      }

      .cls-2 {
        fill: #ad4517;
      }

      .cls-3 {
        fill: #e65b0a;
      }

      .cls-4, .cls-7 {
        fill: #fff;
      }

      .cls-5 {
        fill: #71bcc9;
      }

      .cls-8 {
        fill: #69bac9;
      }
    </style>
  </defs>
  <rect class="cls-8" x="217.57" y="50.26" width="82.03" height="279.01"/>
  <rect class="cls-5" x="303.72" y="113.63" width="69.12" height="272.57"/>
  <rect class="cls-8" x="130.98" y="84.23" width="82.03" height="279.01"/>
  <path class="cls-3" d="M147.23,334.27c27.73-15.08,157.79-16.14,202.33.93,44.55,17.08,71.52,64.94,71.73,90.18-.26,24.36-341.44,19.45-342.04.3-.55-29.76,40.24-76.34,67.97-91.41Z"/>
  <polygon class="cls-4" points="250.3 429.68 269.78 429.57 266.37 402.43 253.65 402.4 250.3 429.68"/>
  <polygon class="cls-4" points="254.09 363.98 263.32 363.97 261.94 347.46 255.47 347.61 254.09 363.98"/>
  <path class="cls-2" d="M165.2,334.43c13.84-4.89,25.58-7.13,26.2-5,.62,2.13-10.11,7.84-23.95,12.73-13.84,4.89-25.58,7.13-26.2,5-.62-2.14,10.11-7.84,23.94-12.73Z"/>
  <path class="cls-1" d="M169.74,253.19c-12.57-6.71-48.73,7.14-53.55,20.69-4.83,13.54,11.34,57.3,24.6,60.56,9.76,2.4,37.84-7.19,43.2-15.67,7.81-12.35-2.31-59.21-14.25-65.58Z"/>
  <path class="cls-7" d="M156.89,255.77c2.86.19,4.09,6,.13,6.46-1.47.12-1.75.18-2.58.31-6.7,1.08-13.24,3.74-19.02,7.6,0,0-4.56.99-4.44-2.89.09-2.89,3.92-4.3,7.17-5.92,5.89-2.94,12.14-5.2,18.58-5.56h.16Z"/>
  <path class="cls-4" d="M167.25,263.19c-5.19.36-12.32,2.16-19.5,4.74-8.08,2.91-16.23,6.81-21.78,10.75-4.63,3.29-.75,24.74,2.73,22.44,11.51-7.64,36.94-16.35,49.22-17.4,3.84-.33-4.32-20.96-10.67-20.53Z"/>
  <path class="cls-6" d="M182.37,318.4c3.19.67,5.02,5.6,5.59,9.38.45,2.98-2.47,6.07-5.24,4.69-2.45-1.21-2.15-4.94-3.96-7.38,0,0-.85-1.28-.82-2.7.05-2.39,2.02-4.43,4.43-3.99Z"/>
  <path class="cls-6" d="M147.61,328.76c1.96-.1,3.81,1.81,3.93,4.18.11,1.91.58,3.8,1.3,5.54,0,0,.77,2.62-.29,4.33-1.4,2.23-4.84,2.05-6.11-.72-1.18-2.73-1.87-5.69-2.07-8.67-.16-2.32,1-4.48,3.25-4.66Z"/>
  <path class="cls-6" d="M112.89,288.92c1.85.1,3.17,1.93,3.11,4.15-.06,3.38.82,6.79,2.67,9.48,0,0,.51.88.6,1.7.32,3.12-3.87,5.6-6.18,1.92-2.55-4.06-4.02-9.22-3.49-14.12.02-.17.05-.35.09-.52.38-1.53,1.47-2.63,3.2-2.61Z"/>
  <path class="cls-6" d="M182.16,257.39c2,.12,3.32,2.31,4.4,4.47,1.71,3.42,3.06,7.35,2.72,11.2-.34,3.76-6.73,5-7.02-.72-.19-3.14-1.3-6.2-3.02-8.73,0,0-1.53-6.31,2.92-6.22Z"/>
  <path class="cls-4" d="M147.26,313.82s11.16-1.12,19.2-6.78c6.34-4.47,5.05,8.03-5.79,12.37-10.85,4.35-19.93-2.88-13.41-5.59Z"/>
  <path class="cls-4" d="M173.54,287.67c2.72-.96,5.59.49,6.39,3.24.8,2.75-.76,5.77-3.48,6.73-2.73.96-5.59-.49-6.39-3.24-.8-2.75.76-5.76,3.48-6.73Z"/>
  <path class="cls-4" d="M134.42,301.5c2.73-.96,5.59.49,6.39,3.24.8,2.75-.76,5.76-3.48,6.73-2.73.96-5.59-.49-6.39-3.24-.8-2.75.76-5.77,3.48-6.73Z"/>
  <path class="cls-2" d="M347.06,335.55c7.47,2.78,13.24,5.98,12.89,7.13s-6.69-.17-14.16-2.95c-7.47-2.79-13.24-5.98-12.89-7.14.35-1.15,6.69.18,14.16,2.96Z"/>
  <path class="cls-1" d="M372.16,302.69c-3.53-7.39-23.35-14.2-29.4-10-6.05,4.2-11.75,29.04-6.91,35.18,3.56,4.51,18.61,10.31,23.42,8.51,7.01-2.61,16.24-26.66,12.89-33.69Z"/>
  <path class="cls-7" d="M352.48,294.86c4.22.51,8.55,2.41,12.68,4.52,0,0,.71.37.81,1.03.17,1.1-.79,1.81-2.38,1.02-3.67-1.79-7.54-3.12-11.44-4.01,0,0-2.1-2.68.33-2.56Z"/>
  <path class="cls-4" d="M368.16,306.17c-5.04-3.59-15.79-7.43-22.53-7.91-2.98-.21-7.54,10.54-5.35,10.77,7.25.75,20.88,5.99,26.55,9.9,1.77,1.22,4.22-10.69,1.32-12.76Z"/>
  <path class="cls-6" d="M356.43,332.63c3.33.19,2.97,9.29-.29,9.32-1.41.02-2.23-1.67-1.82-3.38.58-2.59-.74-6.01,2.11-5.94Z"/>
  <path class="cls-6" d="M338.65,324.58c1.76.07,2.79,2.5,1.54,4.28-1.04,1.51-1.23,3.69-2.39,4.88-1.54,1.57-4.62-.07-3.3-3.77.87-2.43,2.06-5.41,4.16-5.39Z"/>
  <path class="cls-6" d="M335.9,297.99c1.2.06,1.74,1.66.84,3-1.43,2.19-1.04,5.47-2.11,6.38-1.1.92-2.59-.45-2.23-2.98.43-3.04,2.08-6.41,3.51-6.4Z"/>
  <path class="cls-6" d="M375.22,308.98c2.31.13,1.51,6.25-.63,8.98-.1.13-.22.24-.35.33-.15.09-.31.16-.48.2-1.26.27-2.05-1.4-1.21-2.98.55-1.06.92-2.25,1.08-3.47.2-1.58.14-3.08,1.59-3.06Z"/>
  <path class="cls-4" d="M344.68,321.17s5.2,3.47,10.36,3.86c4.07.3-.14,5.3-6.13,3.34-6-1.96-7.86-8.34-4.22-7.2Z"/>
  <path class="cls-4" d="M363.77,319.09c1.47.55,2.3,2.2,1.85,3.69-.45,1.48-2.01,2.25-3.48,1.7-1.47-.55-2.3-2.2-1.85-3.69.45-1.48,2.01-2.24,3.48-1.7Z"/>
  <path class="cls-4" d="M342.67,311.23c1.47.54,2.3,2.2,1.85,3.68-.45,1.49-2.01,2.25-3.48,1.7-1.47-.55-2.3-2.2-1.85-3.69.45-1.48,2.01-2.24,3.48-1.69Z"/>
  <path class="cls-2" d="M261.45,377.26c29.11-.46,52.79,1.7,52.83,4.81.05,3.12-23.55,6.01-52.67,6.46-29.11.46-52.79-1.7-52.83-4.81-.05-3.12,23.55-6.01,52.67-6.46Z"/>
  <path class="cls-1" d="M324.53,157.45c-24.89-25.28-117.73-21.38-137.61,6.19-19.88,27.58-10.37,141.4,18.35,159.26,21.14,13.14,92.48,12.8,110.36-2.64,26.04-22.49,32.55-138.78,8.9-162.81Z"/>
  <path class="cls-7" d="M268.3,153.64c6.43-.02,12.9.15,19.29.62,5.3.4,9.08,5.87,5.14,9.63-2.64,2.52-7.4,1.85-12,1.63-15.79-.73-31.76-.08-47.44,1.79,0,0-4.78.1-6.84-2.49-2.49-3.14-.11-8.16,4.56-8.95,4.62-.78,9.92-1.04,15.11-1.39,7.38-.51,14.8-.8,22.18-.84Z"/>
  <path class="cls-4" d="M312.35,178.66c-26.11-6.84-76.67-5.36-105.78,3.71-12.86,4.01-17.58,56.67-8.03,54.03,31.62-8.72,96.25-9.07,125.46-1.95,9.13,2.22,3.4-51.85-11.65-55.79Z"/>
  <path class="cls-6" d="M299.3,317.73c6.08.35,9.69,8.28,11.67,16.13,1.01,4.01,1.67,8.19,1.57,12.38,0,0-.26,4.32-2.57,7.08-3.25,3.88-9.19,4.11-12.66.38-1.77-1.9-2.84-4.64-2.9-7.46-.02-.92.02,0,0-.86-.16-4.07-1.29-8.11-3.13-11.55,0,0-1.76-3.66-1.24-7.29.67-4.72,4.41-8.61,8.57-8.81.45-.02.56,0,.7,0Z"/>
  <path class="cls-6" d="M215.78,315.87c5.71.24,10.35,7.5,8.34,14.07-1.01,3.28-1.3,5.11-1.61,7.19-.47,3.11-.67,6.28-.54,9.43,0,0,0,2.79-.81,4.85-2.11,5.38-8.54,7.81-13.01,4.61-2.72-1.95-4.23-5.76-4.34-9.44-.03-1.05-.03-2.09-.02-3.14.13-7.08,1.16-14.22,3.31-20.79,0,0,1.28-3.33,3.44-5.01,1.54-1.19,3.42-1.79,5.24-1.77Z"/>
  <path class="cls-6" d="M159,191.35c4.05.27,7.34,4.81,6.23,9.34-.97,3.94-2.03,8.46-1.17,12.76.81,4.05,2.73,7.87,5.67,10.51,0,0,3.14,3.5,2.46,7.28-.9,5-7.07,7.81-11.16,4.03-9.71-8.96-13.14-24.84-8.8-38.5.99-3.11,3.16-5.35,6.5-5.43.09,0,.18.01.28.01Z"/>
  <path class="cls-6" d="M361.75,175.63c1.3.1,1.72.26,2.48.58,6.65,2.86,5.9,14.74,3.95,24.93-1.68,8.75-4.94,17.34-9.92,24.13,0,0-4.03,4.1-8.09,2.97-5-1.39-7.68-8.89-4.36-13.69,5.77-8.35,8.34-19.14,7.66-29.61,0,0,.11-4.32,2.23-6.71,1.34-1.5,3.18-2.44,5.09-2.59.62-.05.76-.02.95-.01Z"/>
  <path class="cls-4" d="M233.5,280.23s26.63,6.08,48.93-.76c17.59-5.4,6.57,22.52-21.37,24.13-27.99,1.6-44.45-22.17-27.55-23.37Z"/>
  <path class="cls-4" d="M311.27,240.19c6.95-.11,12.67,5.47,12.78,12.46s-5.45,12.75-12.4,12.86c-6.95.1-12.67-5.48-12.78-12.47-.1-6.98,5.45-12.74,12.4-12.85Z"/>
  <path class="cls-4" d="M211.58,241.74c6.95-.11,12.67,5.48,12.78,12.46.1,6.99-5.45,12.75-12.4,12.86s-12.67-5.48-12.78-12.47c-.1-6.98,5.45-12.74,12.4-12.85Z"/>
</svg>