<?xml version="1.0" encoding="UTF-8"?>
<svg id="Bubus" xmlns="http://www.w3.org/2000/svg" viewBox="0 0 500 500">
  <defs>
    <style>
      .cls-1 {
        stroke-width: 0px;
      }

      .cls-1, .cls-2, .cls-3, .cls-4, .cls-5, .cls-6, .cls-7 {
        fill: none;
        stroke-linecap: round;
      }

      .cls-1, .cls-3, .cls-4, .cls-5, .cls-6, .cls-7 {
        stroke-linejoin: round;
      }

      .cls-1, .cls-7 {
        stroke: #393f45;
      }

      .cls-2 {
        stroke: #282c33;
        stroke-miterlimit: 10;
        stroke-width: 13.08px;
      }

      .cls-3 {
        stroke: #272c32;
        stroke-width: 13.49px;
      }

      .cls-4 {
        stroke-width: 2.47px;
      }

      .cls-4, .cls-6 {
        stroke: #fff;
      }

      .cls-8 {
        opacity: .41;
      }

      .cls-8, .cls-9, .cls-10, .cls-11, .cls-12, .cls-13, .cls-14, .cls-15, .cls-16, .cls-17, .cls-18, .cls-19, .cls-20 {
        stroke-width: 0px;
      }

      .cls-8, .cls-9, .cls-10, .cls-13 {
        fill: #e1ebf0;
      }

      .cls-8, .cls-11, .cls-12, .cls-13, .cls-14, .cls-15, .cls-16 {
        fill-rule: evenodd;
      }

      .cls-5 {
        stroke: #c1431f;
        stroke-width: 3.29px;
      }

      .cls-6 {
        stroke-width: 8.33px;
      }

      .cls-7 {
        stroke-width: .02px;
      }

      .cls-9 {
        opacity: .1;
      }

      .cls-10 {
        opacity: .09;
      }

      .cls-11, .cls-17 {
        fill: #272c32;
      }

      .cls-12 {
        fill: #313131;
      }

      .cls-14, .cls-20 {
        fill: #e65b0a;
      }

      .cls-15, .cls-19 {
        fill: #fff;
      }

      .cls-16 {
        fill: #ece3d9;
      }

      .cls-18 {
        fill: #6b7889;
      }
    </style>
  </defs>
  <path class="cls-13" d="M491.14,186.98c0-18.45-14.96-33.41-33.41-33.41H35.49c-7.64,0-14.97,3.04-20.37,8.44-5.4,5.4-8.44,12.73-8.44,20.37v207.02h484.46v-202.42Z"/>
  <path class="cls-11" d="M307.42,194.8c-21.27-21.79-101.92-19.71-119.53,3.45-17.61,23.15-10.83,119.92,13.88,135.46,18.18,11.44,80.11,12.09,95.83-.78,22.9-18.75,30.05-117.41,9.82-138.13Z"/>
  <path class="cls-6" d="M225.08,193.73s26.3-3.59,50.8-.54"/>
  <path class="cls-15" d="M294.25,208.41c-22.59-5.78-66.49-5.24-91.88,1.65-11.22,3.04-15.99,45-7.66,43.02,27.55-6.57,83.66-6.04,108.93,0,7.89,1.89,3.61-41.34-9.39-44.67Z"/>
  <path class="cls-15" d="M289.22,259.8c6.03,0,10.93,4.44,10.93,9.9s-4.9,9.89-10.93,9.89-10.93-4.43-10.93-9.89,4.9-9.9,10.93-9.9Z"/>
  <path class="cls-15" d="M205.09,259.77c6.03,0,10.93,4.4,10.93,9.82s-4.9,9.83-10.93,9.83-10.93-4.4-10.93-9.83,4.9-9.82,10.93-9.82Z"/>
  <path class="cls-11" d="M202.35,278.88s-.15-.07-.19-.05c-.03.03-.05.19-.03.22.02.05.13.05.15.05.05,0,.1-.18.07-.22Z"/>
  <path class="cls-15" d="M202.18,278.96s.02.01.01.02c0,.01-.01.02-.02.02-.01-.01-.01-.02-.01-.02,0-.01.01-.02.02-.02Z"/>
  <path class="cls-19" d="M202.29,279.04s.01.01.01.02h-.01s-.03.01-.05.01c-.02-.01-.04-.02-.05-.03s-.01-.01,0-.02h.01s.02.02.03.02c.01.01.03.01.04,0h.02Z"/>
  <path class="cls-15" d="M202.32,278.99s.02.01.01.02c0,.01-.01.02-.02.01,0,0-.01-.01-.01-.02,0,0,.01-.01.02-.01Z"/>
  <path class="cls-15" d="M202.34,278.91s-.12-.05-.16-.03c-.01,0-.03.06-.01.06.04.01.14.03.16.04.01,0,.02-.05.01-.07Z"/>
  <path class="cls-19" d="M202.27,278.85s.04,0,.05.01c.01,0,.01.02.01.02h-.02s-.05-.02-.08-.02c-.01,0-.02-.01-.01-.02h.01s.03,0,.04.01Z"/>
  <path class="cls-15" d="M202.28,279.09h0s-.01.03-.01.03"/>
  <path class="cls-17" d="M202.28,279.07s0,.01,0,.02,0,.03,0,.04h-.01s-.01,0-.01-.01.01-.02.01-.04c0-.01.01-.01.01-.01Z"/>
  <path class="cls-15" d="M202.16,279.05s-.02.02-.02.05"/>
  <path class="cls-17" d="M202.16,279.04s.01.02.01.02c-.01.01-.02.03-.02.04h0s-.01.01-.02.01v-.02s.01-.03.02-.04h0s.01-.01.01-.01Z"/>
  <path class="cls-15" d="M215.64,297.01c-.6-.29-.96-.92-.91-1.59.05-.66.51-1.23,1.15-1.42,14.44-.1,51.83.28,66.8-.27.7-.12,1.39.28,1.64.94.25.67-.01,1.41-.62,1.78-22.58,13.77-43.47,12.46-68.06.56Z"/>
  <path class="cls-9" d="M236.41,258.71c-1.79-3.31-6.13-6.12-17.36-8.04-11.23-1.91-22.47-.12-27.7,2.68-3.89,2.09-5.33,7.77-5.81,10.55-.19,3.79,0,12.1,2.1,18.03,2.21,6.34,5.91,9.82,12.37,11.64,6.45,1.82,14.91,1.78,21-.12,6.57-2.05,11.37-7.31,13.52-14.79,2.39-8.3,2.93-16.5,2.08-19.61-.09-.1-.15-.22-.2-.34Z"/>
  <path class="cls-10" d="M306.99,253.36c-5.23-2.81-16.48-4.6-27.7-2.68-11.23,1.91-15.58,4.72-17.36,8.04-.07.12-.13.23-.2.34-.85,3.1-.32,11.3,2.07,19.6,2.16,7.5,6.96,12.74,13.53,14.79,6.08,1.9,14.5,1.95,21,.12,6.5-1.83,10.15-5.3,12.37-11.63,2.08-5.94,2.28-14.24,2.1-18.04-.49-2.78-1.93-8.46-5.81-10.54Z"/>
  <path class="cls-18" d="M315.99,255.44c-2.4,0-4.34-.38-4.34-.84s1.94-.83,4.34-.83,4.33.37,4.33.83-1.91.83-4.33.83h0ZM310.69,281.94c-2.21,6.31-5.91,9.81-12.36,11.63-6.46,1.82-14.92,1.78-21-.12-6.57-2.05-11.37-7.3-13.53-14.79-2.39-8.3-2.92-16.5-2.07-19.6.06-.11.13-.22.2-.34,1.78-3.32,6.13-6.13,17.36-8.04,11.23-1.92,22.47-.13,27.7,2.68,3.89,2.08,5.32,7.76,5.81,10.54.18,3.8-.03,12.1-2.1,18.04h-.01ZM234.51,278.66c-2.15,7.5-6.96,12.74-13.52,14.79-6.08,1.9-14.5,1.95-21,.12-6.5-1.83-10.16-5.3-12.37-11.63-2.08-5.94-2.29-14.24-2.1-18.04.5-2.78,1.92-8.46,5.81-10.54,5.23-2.81,16.47-4.6,27.7-2.68,11.22,1.91,15.57,4.72,17.36,8.04.06.12.13.23.2.34.85,3.1.32,11.3-2.08,19.6ZM182.32,255.43c-2.39,0-4.33-.38-4.33-.84s1.92-.84,4.33-.84,4.34.38,4.34.84-1.94.84-4.34.84ZM313.41,248.75c-6.64-1.15-29.46-3.71-44-1.03-14.15,2.6-12.76,6-12.62,7.32-2.3-1.47-5.03-2-7.66-2s-5.36.5-7.66,2c.14-1.3,1.5-4.72-12.64-7.32-14.55-2.68-37.56-.11-44.19,1.03-6.64,1.15-9.73,2.82-9.73,2.82v7.27c1.73-.56,3.64.06,4.72,1.53,1.72,2.15,2.19,4,4.26,4.79-.08,4.29.32,11.75,2.25,17.28,2.37,6.77,6.5,10.66,13.42,12.6,3.52.95,7.16,1.42,10.81,1.39,3.75.05,7.48-.45,11.07-1.5,7.08-2.21,12.24-7.83,14.55-15.83,2.09-7.26,2.72-14.34,2.35-18.44.57.17,1.18-.02,1.57-.47h.07c.11-.1.22-.22.31-.34.82-.87,3.45-3.11,8.86-3.11s8.03,2.24,8.84,3.11c.09.13,0,.24.1.34h-.18c.49.46,1.18.64,1.83.47-.38,4.1.41,11.18,2.5,18.44,2.3,8,7.5,13.62,14.59,15.83,3.6,1.05,7.34,1.55,11.09,1.5,3.65.03,7.29-.44,10.82-1.39,6.9-1.94,11.04-5.83,13.4-12.6,1.94-5.53,2.31-13,2.23-17.28,2.07-.77,2.36-2.64,4.08-4.79,2.04-2.55,4.47-1.53,4.47-1.53v-7.27s-2.87-1.67-9.51-2.82Z"/>
  <path class="cls-1" d="M202.38,279h0"/>
  <path class="cls-7" d="M202.35,279.04s.02-.01.03-.03"/>
  <path class="cls-12" d="M182.32,253.76c2.39,0,4.34.37,4.34.83s-1.95.84-4.34.84-4.33-.37-4.33-.84,1.94-.83,4.33-.83Z"/>
  <path class="cls-12" d="M315.99,253.76c2.39,0,4.34.37,4.34.83s-1.95.84-4.34.84-4.33-.37-4.33-.84,1.94-.83,4.33-.83Z"/>
  <path class="cls-15" d="M488.81,331.95c0-2.61-1.04-5.12-2.89-6.97s-4.36-2.89-6.98-2.89H14.41c-2.62,0-5.13,1.04-6.98,2.89s-2.89,4.36-2.89,6.97v61.52h484.27v-61.52Z"/>
  <path class="cls-8" d="M488.94,331.69c0-5.53-4.48-10.02-10.02-10.02H14.7c-5.54,0-10.02,4.49-10.02,10.02v32c0,5.54,4.48,10.03,10.02,10.03h464.22c5.54,0,10.02-4.49,10.02-10.03v-32Z"/>
  <polygon class="cls-16" points="280.88 327.67 215.03 327.67 199.05 361.9 303.37 361.9 280.88 327.67"/>
  <path class="cls-2" d="M186.1,322.39s5.72,5.42,19.04,11.84"/>
  <path class="cls-14" d="M123.55,342.3c7.99,0,14.69,5.38,14.69,8.88s-6.49,6.34-14.48,6.34-14.47-2.84-14.47-6.34,6.27-8.88,14.26-8.88Z"/>
  <path class="cls-5" d="M123.99,345.54s-1.33-28.34,28.84-51.11"/>
  <path class="cls-14" d="M163.61,286.3c-1.58-1.97-4.46-2.29-6.44-.71-2.23,1.78-5.09,4.07-7.32,5.85-1.98,1.58-2.3,4.46-.72,6.44.25.31.5.63.75.94,1.58,1.98,4.46,2.3,6.44.72,2.23-1.79,5.09-4.08,7.33-5.86,1.97-1.58,2.29-4.46.71-6.44-.25-.31-.5-.63-.75-.94Z"/>
  <path class="cls-14" d="M372.02,341.5c-7.39,0-13.58,5.38-13.58,8.88s6,6.34,13.38,6.34,13.39-2.84,13.39-6.34-5.8-8.88-13.19-8.88Z"/>
  <path class="cls-5" d="M371.61,344.75s1.24-28.35-26.68-51.12"/>
  <path class="cls-14" d="M334.67,285.9c.76-1.03,1.91-1.69,3.18-1.83,1.27-.14,2.53.25,3.5,1.09,2.03,1.75,4.5,3.89,6.44,5.57,1.82,1.56,2.12,4.26.69,6.19-.17.23-.35.47-.52.7-.76,1.03-1.91,1.69-3.18,1.83-1.27.14-2.54-.25-3.5-1.08-2.03-1.76-4.51-3.9-6.44-5.57-1.82-1.57-2.12-4.27-.69-6.19.17-.24.35-.47.52-.71Z"/>
  <path class="cls-14" d="M340.7,132.84c25.76,0,46.68,16.97,46.68,37.89s-20.92,37.89-46.68,37.89-46.67-16.98-46.67-37.89,20.91-37.89,46.67-37.89Z"/>
  <line class="cls-4" x1="370.69" y1="149.43" x2="371.69" y2="150.36"/>
  <path class="cls-4" d="M359.33,142.31c2.87,1.2,5.59,2.71,8.12,4.51"/>
  <path class="cls-20" d="M309.36,190l-5.06,14.66c-.08.23-.12.47-.12.71,0,1.17.97,2.14,2.14,2.14.41,0,.81-.12,1.16-.34l15.99-10.12-14.11-7.05Z"/>
  <path class="cls-15" d="M320.33,171.52c2.9,0,5.25,2.35,5.25,5.25s-2.35,5.26-5.25,5.26-5.26-2.35-5.26-5.26,2.35-5.25,5.26-5.25Z"/>
  <path class="cls-15" d="M334.79,171.52c2.9,0,5.26,2.35,5.26,5.25s-2.36,5.26-5.26,5.26-5.26-2.35-5.26-5.26,2.36-5.25,5.26-5.25Z"/>
  <path class="cls-15" d="M349.25,171.52c2.9,0,5.26,2.35,5.26,5.25s-2.36,5.26-5.26,5.26-5.26-2.35-5.26-5.26,2.36-5.25,5.26-5.25Z"/>
  <path class="cls-11" d="M288.92,298.17s-5.77-7.72-7.65-17.66"/>
  <path class="cls-3" d="M288.92,298.17s-5.77-7.72-7.65-17.66"/>
</svg>