<?xml version="1.0" encoding="UTF-8"?>
<svg id="Bubus" xmlns="http://www.w3.org/2000/svg" xmlns:xlink="http://www.w3.org/1999/xlink" viewBox="0 0 500 500">
  <defs>
    <style>
      .cls-1 {
        opacity: .13;
      }

      .cls-1, .cls-2 {
        isolation: isolate;
      }

      .cls-1, .cls-2, .cls-3, .cls-4, .cls-5, .cls-6, .cls-7, .cls-8, .cls-9, .cls-10, .cls-11, .cls-12, .cls-13, .cls-14, .cls-15 {
        fill-rule: evenodd;
        stroke-width: 0px;
      }

      .cls-16 {
        mask: url(#mask);
      }

      .cls-2 {
        opacity: .15;
      }

      .cls-3 {
        fill: #282c32;
      }

      .cls-4 {
        fill: #949494;
      }

      .cls-5 {
        fill: #dadada;
      }

      .cls-6 {
        fill: #fff;
      }

      .cls-7 {
        fill: #f08534;
      }

      .cls-8 {
        fill: #f0a733;
      }

      .cls-9 {
        fill: #fdb440;
      }

      .cls-10 {
        fill: #fddf66;
      }

      .cls-11 {
        fill: #978671;
      }

      .cls-12 {
        fill: #b5b5b5;
      }

      .cls-13 {
        fill: #ecd574;
      }

      .cls-14 {
        fill: #f8e591;
      }

      .cls-15 {
        opacity: .1;
      }

      .cls-17 {
        mask: url(#mask-1);
      }
    </style>
    <mask id="mask" x="40.6" y="342" width="436.85" height="74.75" maskUnits="userSpaceOnUse">
      <g id="mask-2">
        <polygon id="path-1" class="cls-6" points="40.6 342 477.45 342 477.45 416.75 40.6 416.75 40.6 342"/>
      </g>
    </mask>
    <mask id="mask-1" x="81.19" y="79.09" width="342.01" height="55.49" maskUnits="userSpaceOnUse">
      <g id="mask-6">
        <polygon id="path-5" class="cls-6" points="81.19 79.09 423.2 79.09 423.2 134.58 81.19 134.58 81.19 79.09"/>
      </g>
    </mask>
  </defs>
  <g class="cls-16">
    <path id="Fill-5" class="cls-15" d="M404.72,357c-16.45,0-31.62,1.68-43.8,4.51-20.6-11.63-60.67-19.51-106.74-19.51-55.37,0-102.08,11.4-116.72,26.98-9.95-3.85-25.3-6.32-42.53-6.32-30.01,0-54.33,7.48-54.33,16.72s24.33,16.71,54.33,16.71c17.23,0,32.57-2.47,42.53-6.32,14.64,15.58,61.35,26.98,116.72,26.98,46.07,0,86.14-7.89,106.74-19.51,12.18,2.83,27.35,4.51,43.8,4.51,40.17,0,72.73-10.02,72.73-22.37s-32.56-22.37-72.73-22.37"/>
  </g>
  <path class="cls-12" d="M321.17,362.66h0c0,8.7-30.17,15.75-67.38,15.75s-67.38-7.05-67.38-15.75l-6.66,15.75c0,8.7,36.83,18.41,74.04,18.41s74.04-9.71,74.04-18.41l-6.66-15.75Z"/>
  <path id="Fill-896" class="cls-5" d="M321.17,362.66c0,8.7-30.17,15.75-67.38,15.75s-67.38-7.05-67.38-15.75,30.17-15.75,67.38-15.75,67.38,7.05,67.38,15.75"/>
  <path class="cls-12" d="M253.79,352.73c-12.68,0-22.96-2.4-22.96-5.37v9.76c0,2.96,10.28,5.37,22.96,5.37s22.96-2.4,22.96-5.37v-9.76c0,2.96-10.28,5.37-22.96,5.37Z"/>
  <path class="cls-5" d="M262.64,342.42V121.38h-17.69v221.03c-8.29.81-14.12,2.72-14.12,4.95,0,2.96,10.28,5.37,22.96,5.37s22.96-2.4,22.96-5.37c0-2.23-5.83-4.14-14.12-4.95Z"/>
  <path id="Fill-21" class="cls-12" d="M494.14,296.1c0,11.85-23.89,53.63-91.8,53.63-71.62,0-91.8-41.78-91.8-53.63s41.1-21.45,91.8-21.45,91.8,9.6,91.8,21.45"/>
  <path class="cls-4" d="M333.11,310.18c-14.05-3.77-22.57-8.69-22.57-14.08,0,0,0,0,0-.02,0,0,0,.01,0,.02,0,11.85,20.17,53.63,91.8,53.63,37.05,0,61-12.44,75.11-25.67-14.47,9.35-35.14,16.63-63.49,16.63-43.84,0-68.38-15.65-80.84-30.51Z"/>
  <path id="Fill-25" class="cls-5" d="M494.14,296.1c0,11.85-41.1,21.45-91.8,21.45s-91.8-9.6-91.8-21.45,41.1-21.45,91.8-21.45,91.8,9.6,91.8,21.45"/>
  <path id="Fill-1" class="cls-3" d="M465.13,253.99l-4.09-7.88s-.09.03-.23.13c.07-.05.71-.55.87-2.02.26-2.44,2.47-4.2,4.89-3.94,2.44.26,4.2,2.45,3.94,4.89-.51,4.71-3.21,7.7-5.37,8.82"/>
  <path id="Fill-3" class="cls-3" d="M339.85,247.93c-2.16-1.12-4.86-4.1-5.37-8.82-.26-2.44,1.5-4.63,3.94-4.89,2.43-.26,4.63,1.5,4.89,3.94.16,1.47.79,1.97.87,2.02-.14-.1-.23-.13-.23-.13l-4.09,7.88Z"/>
  <polygon id="Fill-8" class="cls-11" points="192.56 263.65 101.82 102.63 11 259.99 10.31 259.59 101.82 101.01 102.17 101.62 193.26 263.25 192.56 263.65"/>
  <polygon id="Fill-10" class="cls-11" points="493.12 296.35 402.37 135.33 311.56 292.69 310.86 292.29 402.38 133.71 402.72 134.32 493.82 295.95 493.12 296.35"/>
  <path id="Fill-12" class="cls-12" d="M192.91,263.45c0,11.85-23.89,53.63-91.8,53.63-71.62,0-91.8-41.78-91.8-53.63s41.1-21.45,91.8-21.45,91.8,9.6,91.8,21.45"/>
  <path class="cls-4" d="M13.89,256.77c.16-.12.33-.23.5-.35-.17.12-.34.23-.5.35Z"/>
  <path class="cls-4" d="M15.83,255.52c.15-.09.29-.18.45-.27-.16.09-.3.18-.45.27Z"/>
  <path class="cls-4" d="M21.16,252.92s0,0,0-.01c-.09.04-.16.07-.25.11.08-.03.17-.07.25-.1Z"/>
  <path class="cls-4" d="M12.67,257.71c-.11.09-.23.18-.33.27.1-.09.22-.18.33-.27Z"/>
  <path class="cls-4" d="M18.48,254.1s.08-.04.11-.05c-.04.02-.08.03-.11.05Z"/>
  <path class="cls-4" d="M10.01,260.85c.07-.13.14-.27.22-.4-.08.13-.15.27-.22.4Z"/>
  <path class="cls-4" d="M31.89,277.53c-14.05-3.77-22.57-8.69-22.57-14.08,0,0,0,0,0-.01,0,0,0,0,0,.01,0,11.85,20.17,53.63,91.8,53.63,37.05,0,61-12.44,75.11-25.67-14.47,9.35-35.14,16.63-63.49,16.63-43.84,0-68.38-15.65-80.84-30.51Z"/>
  <path class="cls-4" d="M9.5,262.16c.03-.13.08-.26.13-.39-.04.13-.09.26-.13.39Z"/>
  <path class="cls-4" d="M10.95,259.44c.06-.08.11-.16.18-.23-.07.08-.12.16-.18.23Z"/>
  <path id="Fill-17" class="cls-5" d="M192.91,263.45c0,11.85-41.1,21.45-91.8,21.45s-91.8-9.6-91.8-21.45,41.1-21.45,91.8-21.45,91.8,9.6,91.8,21.45"/>
  <path id="Fill-19" class="cls-1" d="M162.95,266.71c.92,3.68,1.62,7.38,2.32,10.43-26.17,2.56-50.56,7.18-77.06,4.2-13.02-1.47-25.71-5.55-38.66-6.46-5.97-.42-23.48-2.49-23.47-11.43,0-9.68,33.6-17.53,75.04-17.53,14.73,0,29.38,1.05,43.93,3.32,5.98.93,9.52-.02,12.9,4.82,2.31,3.3,3.83,7.98,5,12.67"/>
  <path class="cls-4" d="M319.71,286.75s.03-.01.04-.02c-.01,0-.03.01-.04.02Z"/>
  <g class="cls-17">
    <path id="Fill-27" class="cls-5" d="M421.66,126.8h0c-12.52,2.26-25.44-.26-36.2-7.05l-22.95-14.5c-22.55-9.75-47.6-12.19-71.61-6.97h0c-24.07,5.24-49.17,2.78-71.76-7.04l-5.59-2.43c-22-9.56-46.4-12.15-69.92-7.42l-23.4,9.2c-11.75,4.62-24.89,4.2-36.32-1.16h0l-2.72,4.2,5.88,3.25c9.52,5.27,20.61,6.98,31.27,4.84l25.29-5.08c23.52-4.72,47.92-2.13,69.92,7.42l5.59,2.43c22.59,9.81,47.7,12.27,71.76,7.04h0c24.01-5.22,49.05-2.79,71.61,6.97l22.91,9.91c10.95,4.74,23.22,5.47,34.66,2.08l3.12-.93-1.55-4.76Z"/>
  </g>
  <path id="Fill-30" class="cls-8" d="M62.43,249.62c.25,1.92.49,3.84.74,5.77,5.12,1.27,10.33,1.77,15.54,1.88,5.04.11,9.85-1.08,14.81-2.06,1.53-.3,1.75-1.17,2.03-2.87.1-.6.5-4.59-.6-4.53l-32.52,1.81Z"/>
  <path id="Fill-32" class="cls-13" d="M94.96,247.8s-.63.03-1.68.09c.76.58.42,3.89.33,4.43-.28,1.7-.5,2.57-2.03,2.87-4.43.88-8.74,1.91-13.2,2.05.11,0,.23.01.34.01,5.03.11,9.85-1.08,14.81-2.06,1.53-.3,1.74-1.17,2.03-2.87.1-.6.5-4.59-.6-4.53"/>
  <path id="Fill-34" class="cls-7" d="M81.33,256.02c-5.21-.11-10.43-.62-15.54-1.88-.2-1.56-.4-3.12-.6-4.68-1.71.1-2.76.15-2.76.15.25,1.92.49,3.84.74,5.77,5.12,1.27,10.33,1.77,15.54,1.88,5.04.11,9.85-1.08,14.81-2.06.82-.16,1.26-.5,1.54-1.03-4.58.94-9.06,1.95-13.73,1.84"/>
  <path id="Fill-36" class="cls-7" d="M80.38,255.04c-.12-.82-.18-1.7-.52-2.43-.12-.25-.48-.23-.53.09-.12.78.01,1.56.11,2.33.09.73.06,1.66.52,2.18.14.15.36.14.45-.07.29-.64.07-1.41-.03-2.1"/>
  <path id="Fill-38" class="cls-9" d="M84.35,255.99c-.13-1.2-.11-2.67-.54-3.77-.13-.34-.58-.33-.72,0-.5,1.22-.28,2.95-.11,4.24.05.35.4.69.69.65.06,0,.13-.02.19-.03.41-.09.55-.66.5-1.09"/>
  <path id="Fill-40" class="cls-9" d="M87.33,254.46c-.08-.64-.21-1.23-.39-1.84-.09-.3-.39-.23-.42.07-.06.61-.09,1.18-.06,1.8.02.49,0,1.02.32,1.34.12.12.32.17.42,0,.27-.43.19-.85.13-1.37"/>
  <path id="Fill-42" class="cls-9" d="M91.36,254.95c-.25-1.13-.39-2.28-.53-3.44-.05-.4-.6-.4-.65,0-.15,1.29-.07,2.51.15,3.79.04.21.2.42.37.46.23.06.34.02.52-.17.14-.15.18-.43.14-.65"/>
  <path id="Fill-44" class="cls-9" d="M93.22,253.21c-.05-.74-.08-1.48-.12-2.22-.03-.49-.64-.67-.73-.12-.13.79-.19,1.54-.15,2.34.03.65-.01,1.48.42,1.92.17.17.41.17.54-.09.28-.56.09-1.21.04-1.83"/>
  <path id="Fill-46" class="cls-9" d="M94.77,252.06c-.1-.76-.24-1.49-.38-2.24-.08-.44-.64-.35-.64.11.01.77.02,1.52.08,2.29.05.64.07,1.17.44,1.66.11.15.33.11.41-.07.26-.59.17-1.11.09-1.75"/>
  <path id="Fill-48" class="cls-7" d="M76.07,254.56c-.03-.64,0-1.56-.41-2-.12-.12-.28-.14-.4,0-.43.5-.33,1.46-.33,2.14,0,.72-.05,1.49.45,1.97.12.11.29.04.39-.06.46-.49.33-1.37.3-2.04"/>
  <path id="Fill-50" class="cls-7" d="M72.66,255.16c0-.82.02-1.7-.2-2.48-.13-.44-.57-.42-.7,0-.26.8-.29,1.73-.28,2.56,0,.34-.22.54.05.83.77.83,1.14-.37,1.14-.91"/>
  <path id="Fill-52" class="cls-7" d="M69.15,254.55c.04-.92-.15-2.15-.25-2.42-.37-1.06-.87,1.11-.87,1.33-.02.44-.1,1.68.3,1.99.58.46.78-.11.82-.91"/>
  <path id="Fill-54" class="cls-7" d="M66.07,253.06c0-.64-.06-1.25-.14-1.88-.06-.44-.65-.44-.71,0-.08.63-.14,1.24-.14,1.88,0,.62-.1,1.32.08,1.9.16.5.67.51.83,0,.18-.58.09-1.28.08-1.9"/>
  <path id="Fill-56" class="cls-7" d="M64.38,253.6c-.13-.8-.17-1.59-.33-2.37-.06-.27-.38-.33-.48-.08-.36.84-.42,1.7-.35,2.65.03.43.06.96.57,1.09.99.26.68-.79.6-1.29"/>
  <path id="Fill-58" class="cls-9" d="M89.35,244.78c1.47.24,5.63.8,6.33,2.76.98,2.72-6.44,4.08-7.62,4.31-2.49.48-5,.77-7.51.88-5.08.23-10.2-.24-15.18-1.55-1.28-.34-2.64-.8-3.14-1.67-.97-1.68,1.88-3.19,4.37-3.82,7.23-1.83,15.26-2.15,22.76-.92"/>
  <path id="Fill-60" class="cls-14" d="M95.68,247.54c-.71-1.97-4.86-2.52-6.33-2.76-3.26-.54-6.62-.76-9.97-.71,2.68.05,5.35.28,7.96.71,1.47.24,5.63.8,6.33,2.76.98,2.72-6.44,4.08-7.62,4.31-2.49.48-5,.77-7.51.88-.49.02-.98.03-1.47.04,1.16.02,2.32.01,3.48-.04,2.51-.11,5.02-.4,7.51-.88,1.19-.23,8.6-1.59,7.62-4.31"/>
  <path id="Fill-62" class="cls-10" d="M87.4,246.03c-5.84-.81-12.09-.6-17.72.6-1.93.41-4.16,1.4-3.4,2.51.39.57,1.45.88,2.45,1.1,3.86.86,7.79,1.16,11.71,1.02,1.93-.07,3.86-.25,5.78-.56.96-.15,6.8-.48,6.21-2.66-.42-1.56-3.94-1.86-5.02-2.01"/>
  <path id="Fill-64" class="cls-8" d="M69.68,247.3c5.63-1.2,11.88-1.41,17.72-.6,1.06.15,4.5.45,5,1.96.06-.19.09-.39.02-.62-.42-1.56-3.94-1.86-5.02-2.01-5.84-.81-12.09-.6-17.72.6-1.85.39-3.94,1.32-3.45,2.37.41-.76,2.01-1.39,3.45-1.7"/>
  <path id="Fill-66" class="cls-8" d="M62.43,243c.25,1.92.49,3.84.74,5.77,5.12,1.27,10.33,1.77,15.54,1.88,5.04.11,9.85-1.08,14.81-2.06,1.53-.3,1.75-1.17,2.03-2.87.1-.6.5-4.59-.6-4.53l-32.52,1.81Z"/>
  <path id="Fill-68" class="cls-13" d="M94.96,241.19s-.63.03-1.68.09c.76.58.42,3.89.33,4.43-.28,1.7-.5,2.57-2.03,2.87-4.43.88-8.74,1.91-13.2,2.05.11,0,.23.01.34.01,5.03.11,9.85-1.08,14.81-2.06,1.53-.3,1.74-1.17,2.03-2.87.1-.6.5-4.59-.6-4.53"/>
  <path id="Fill-70" class="cls-7" d="M81.33,249.41c-5.21-.11-10.43-.62-15.54-1.88-.2-1.56-.4-3.12-.6-4.67-1.71.09-2.76.15-2.76.15.25,1.92.49,3.84.74,5.77,5.12,1.27,10.33,1.77,15.54,1.88,5.04.11,9.85-1.08,14.81-2.06.82-.16,1.26-.5,1.54-1.03-4.58.94-9.06,1.95-13.73,1.84"/>
  <path id="Fill-72" class="cls-7" d="M80.38,248.42c-.12-.82-.18-1.7-.52-2.43-.12-.25-.48-.23-.53.09-.12.78.01,1.56.11,2.33.09.73.06,1.66.52,2.18.14.15.36.14.45-.07.29-.64.07-1.41-.03-2.1"/>
  <path id="Fill-74" class="cls-9" d="M84.35,249.38c-.13-1.2-.11-2.67-.54-3.77-.13-.34-.58-.33-.72,0-.5,1.22-.28,2.95-.11,4.24.05.35.4.69.69.65.06,0,.13-.02.19-.03.41-.09.55-.66.5-1.09"/>
  <path id="Fill-76" class="cls-9" d="M87.33,247.85c-.08-.64-.21-1.23-.39-1.84-.09-.3-.39-.23-.42.07-.06.61-.09,1.18-.06,1.8.02.49,0,1.02.32,1.34.12.12.32.17.42,0,.27-.43.19-.85.13-1.37"/>
  <path id="Fill-78" class="cls-9" d="M91.36,248.34c-.25-1.13-.39-2.28-.53-3.44-.05-.4-.6-.4-.65,0-.15,1.29-.07,2.51.15,3.79.04.21.2.42.37.46.23.06.34.02.52-.17.14-.15.18-.43.14-.65"/>
  <path id="Fill-80" class="cls-9" d="M93.22,246.59c-.05-.74-.08-1.48-.12-2.22-.03-.49-.64-.67-.73-.12-.13.79-.19,1.54-.15,2.34.03.65-.01,1.48.42,1.92.17.17.41.17.54-.09.28-.56.09-1.2.04-1.83"/>
  <path id="Fill-82" class="cls-9" d="M94.77,245.44c-.1-.76-.24-1.49-.38-2.24-.08-.44-.64-.35-.64.11.01.77.02,1.52.08,2.29.05.64.07,1.17.44,1.66.11.15.33.11.41-.07.26-.59.17-1.11.09-1.75"/>
  <path id="Fill-84" class="cls-7" d="M76.07,247.94c-.03-.64,0-1.56-.41-2-.12-.12-.28-.14-.4,0-.43.5-.33,1.46-.33,2.14,0,.72-.05,1.49.45,1.97.12.11.29.04.39-.06.46-.49.33-1.37.3-2.04"/>
  <path id="Fill-86" class="cls-7" d="M72.66,248.54c0-.82.02-1.7-.2-2.48-.13-.44-.57-.42-.7,0-.26.8-.29,1.73-.28,2.56,0,.34-.22.54.05.83.77.83,1.14-.37,1.14-.91"/>
  <path id="Fill-88" class="cls-7" d="M69.15,247.93c.04-.92-.15-2.15-.25-2.42-.37-1.06-.87,1.11-.87,1.33-.02.44-.1,1.68.3,1.99.58.46.78-.11.82-.91"/>
  <path id="Fill-90" class="cls-7" d="M66.07,246.45c0-.64-.06-1.25-.14-1.88-.06-.44-.65-.44-.71,0-.08.63-.14,1.24-.14,1.88,0,.62-.1,1.32.08,1.9.16.5.67.51.83,0,.18-.58.09-1.28.08-1.9"/>
  <path id="Fill-92" class="cls-7" d="M64.38,246.98c-.13-.79-.17-1.59-.33-2.37-.06-.27-.38-.33-.48-.08-.36.84-.42,1.7-.35,2.65.03.43.06.96.57,1.09.99.26.68-.79.6-1.29"/>
  <path id="Fill-94" class="cls-9" d="M89.35,238.17c1.47.24,5.63.8,6.33,2.76.98,2.72-6.44,4.08-7.62,4.31-2.49.48-5,.77-7.51.88-5.08.23-10.2-.24-15.18-1.55-1.28-.34-2.64-.8-3.14-1.67-.97-1.68,1.88-3.19,4.37-3.82,7.23-1.83,15.26-2.15,22.76-.92"/>
  <path id="Fill-96" class="cls-14" d="M95.68,240.93c-.71-1.97-4.86-2.52-6.33-2.76-3.26-.54-6.62-.76-9.97-.71,2.68.05,5.35.28,7.96.71,1.47.24,5.63.8,6.33,2.76.98,2.72-6.44,4.08-7.62,4.31-2.49.48-5,.77-7.51.88-.49.02-.98.03-1.47.04,1.16.02,2.32.01,3.48-.04,2.51-.11,5.02-.4,7.51-.88,1.19-.23,8.6-1.59,7.62-4.31"/>
  <path id="Fill-98" class="cls-10" d="M87.4,239.41c-5.84-.81-12.09-.6-17.72.6-1.93.41-4.16,1.4-3.4,2.51.39.57,1.45.88,2.45,1.1,3.86.86,7.79,1.16,11.71,1.02,1.93-.07,3.86-.25,5.78-.56.96-.15,6.8-.48,6.21-2.66-.42-1.56-3.94-1.86-5.02-2.01"/>
  <path id="Fill-100" class="cls-8" d="M69.68,240.69c5.63-1.2,11.88-1.41,17.72-.6,1.06.15,4.5.45,5,1.95.06-.19.09-.39.02-.61-.42-1.56-3.94-1.86-5.02-2.01-5.84-.81-12.09-.6-17.72.6-1.85.39-3.94,1.32-3.45,2.37.41-.76,2.01-1.39,3.45-1.7"/>
  <path id="Fill-102" class="cls-8" d="M64.99,236.39c.25,1.92.49,3.84.74,5.77,5.12,1.27,10.33,1.77,15.54,1.88,5.03.11,9.85-1.08,14.81-2.06,1.53-.3,1.75-1.17,2.03-2.87.1-.6.5-4.59-.6-4.53l-32.52,1.81"/>
  <path id="Fill-104" class="cls-13" d="M97.51,234.57s-.63.03-1.68.09c.76.58.42,3.89.33,4.43-.28,1.7-.5,2.57-2.03,2.87-4.43.88-8.74,1.91-13.2,2.05.11,0,.23.01.34.01,5.03.11,9.85-1.08,14.81-2.06,1.53-.3,1.75-1.17,2.03-2.87.1-.6.5-4.59-.6-4.53"/>
  <path id="Fill-106" class="cls-7" d="M83.89,242.79c-5.21-.11-10.43-.62-15.54-1.88-.2-1.56-.4-3.12-.6-4.67-1.71.09-2.76.15-2.76.15.25,1.92.49,3.84.74,5.77,5.12,1.27,10.33,1.77,15.54,1.88,5.03.11,9.85-1.08,14.81-2.06.82-.16,1.26-.5,1.54-1.03-4.58.94-9.06,1.95-13.73,1.84"/>
  <path id="Fill-108" class="cls-7" d="M82.93,241.81c-.12-.82-.18-1.7-.52-2.43-.12-.25-.48-.23-.53.09-.12.78.01,1.56.11,2.33.09.73.06,1.66.52,2.18.14.15.36.14.45-.07.29-.64.07-1.41-.03-2.1"/>
  <path id="Fill-110" class="cls-9" d="M86.91,242.76c-.13-1.2-.11-2.67-.54-3.77-.13-.34-.58-.33-.72,0-.5,1.22-.28,2.95-.11,4.24.05.35.4.69.69.65.06,0,.13-.02.19-.03.41-.09.55-.66.5-1.09"/>
  <path id="Fill-112" class="cls-9" d="M89.89,241.23c-.08-.64-.21-1.23-.39-1.84-.09-.3-.39-.23-.42.07-.06.61-.09,1.18-.06,1.8.02.49,0,1.02.32,1.34.12.12.32.17.42,0,.27-.43.19-.85.13-1.37"/>
  <path id="Fill-114" class="cls-9" d="M93.91,241.72c-.25-1.13-.39-2.28-.53-3.44-.05-.4-.6-.4-.65,0-.15,1.29-.07,2.51.15,3.79.04.21.2.42.37.46.23.06.34.02.52-.17.14-.15.18-.43.14-.65"/>
  <path id="Fill-116" class="cls-9" d="M95.77,239.98c-.05-.74-.08-1.48-.12-2.22-.03-.49-.64-.67-.73-.12-.13.79-.19,1.54-.15,2.34.03.65-.01,1.48.42,1.92.17.17.41.17.54-.09.28-.56.09-1.2.04-1.83"/>
  <path id="Fill-118" class="cls-9" d="M97.33,238.83c-.1-.76-.24-1.49-.38-2.24-.08-.44-.64-.35-.64.11.01.77.02,1.52.08,2.29.05.64.07,1.17.44,1.66.11.15.33.11.41-.07.26-.59.17-1.11.09-1.75"/>
  <path id="Fill-120" class="cls-7" d="M78.63,241.33c-.03-.64,0-1.56-.42-2-.12-.12-.28-.14-.4,0-.43.5-.33,1.46-.33,2.14,0,.72-.05,1.49.45,1.97.12.11.29.04.39-.06.46-.49.33-1.37.3-2.04"/>
  <path id="Fill-122" class="cls-7" d="M75.21,241.93c0-.82.02-1.7-.2-2.48-.13-.44-.57-.42-.7,0-.26.8-.29,1.73-.28,2.56,0,.34-.22.54.05.83.77.83,1.14-.37,1.14-.91"/>
  <path id="Fill-124" class="cls-7" d="M71.7,241.32c.04-.92-.15-2.15-.25-2.42-.37-1.06-.87,1.11-.87,1.33-.02.44-.1,1.68.3,1.99.58.46.78-.11.82-.91"/>
  <path id="Fill-126" class="cls-7" d="M68.62,239.84c0-.64-.06-1.25-.14-1.88-.06-.44-.65-.44-.71,0-.08.63-.14,1.24-.14,1.88,0,.62-.1,1.32.08,1.9.16.5.67.51.83,0,.18-.58.09-1.28.08-1.9"/>
  <path id="Fill-128" class="cls-7" d="M66.94,240.37c-.12-.8-.17-1.59-.33-2.37-.05-.27-.38-.33-.48-.08-.36.84-.42,1.7-.35,2.65.03.43.06.96.57,1.09.99.26.68-.79.6-1.29"/>
  <path id="Fill-130" class="cls-9" d="M91.91,231.55c1.47.24,5.63.8,6.33,2.76.98,2.72-6.44,4.08-7.62,4.31-2.49.48-5,.77-7.51.88-5.08.23-10.2-.24-15.18-1.55-1.28-.34-2.64-.8-3.14-1.67-.97-1.68,1.88-3.19,4.37-3.82,7.23-1.83,15.26-2.15,22.76-.92"/>
  <path id="Fill-132" class="cls-14" d="M98.24,234.31c-.71-1.97-4.86-2.52-6.33-2.76-3.26-.54-6.62-.76-9.97-.71,2.68.05,5.35.28,7.96.71,1.47.24,5.63.8,6.33,2.76.98,2.72-6.44,4.08-7.62,4.31-2.49.48-5,.77-7.51.88-.49.02-.98.03-1.47.04,1.16.02,2.32.01,3.48-.04,2.51-.11,5.02-.4,7.51-.88,1.19-.23,8.6-1.59,7.62-4.31"/>
  <path id="Fill-134" class="cls-10" d="M89.95,232.8c-5.84-.81-12.09-.6-17.72.6-1.93.41-4.16,1.4-3.4,2.51.39.57,1.45.88,2.45,1.1,3.86.86,7.79,1.16,11.71,1.02,1.93-.07,3.86-.25,5.78-.56.96-.15,6.8-.48,6.21-2.66-.42-1.56-3.94-1.86-5.02-2.01"/>
  <path id="Fill-136" class="cls-8" d="M72.23,234.08c5.63-1.2,11.88-1.41,17.72-.6,1.06.15,4.5.45,5,1.95.06-.19.09-.39.02-.62-.42-1.56-3.94-1.86-5.02-2.01-5.84-.81-12.09-.6-17.72.6-1.85.39-3.94,1.32-3.45,2.37.41-.76,2.01-1.39,3.45-1.7"/>
  <path id="Fill-138" class="cls-8" d="M62.43,229.77c.25,1.92.49,3.84.74,5.77,5.12,1.27,10.33,1.77,15.54,1.88,5.04.11,9.85-1.08,14.81-2.06,1.53-.3,1.75-1.17,2.03-2.87.1-.6.5-4.59-.6-4.53l-32.52,1.81Z"/>
  <path id="Fill-140" class="cls-13" d="M94.96,227.96s-.63.03-1.68.09c.76.58.42,3.89.33,4.43-.28,1.7-.5,2.57-2.03,2.87-4.43.88-8.74,1.91-13.2,2.05.11,0,.23.01.34.01,5.03.11,9.85-1.08,14.81-2.06,1.53-.3,1.74-1.17,2.03-2.87.1-.6.5-4.59-.6-4.53"/>
  <path id="Fill-142" class="cls-7" d="M81.33,236.18c-5.21-.11-10.43-.62-15.54-1.88-.2-1.56-.4-3.12-.6-4.68-1.71.1-2.76.15-2.76.15.25,1.92.49,3.84.74,5.77,5.12,1.27,10.33,1.77,15.54,1.88,5.04.11,9.85-1.08,14.81-2.06.82-.16,1.26-.5,1.54-1.03-4.58.94-9.06,1.95-13.73,1.84"/>
  <path id="Fill-144" class="cls-7" d="M80.38,235.19c-.12-.82-.18-1.7-.52-2.43-.12-.25-.48-.23-.53.09-.12.78.01,1.56.11,2.33.09.73.06,1.66.52,2.18.14.15.36.14.45-.07.29-.64.07-1.41-.03-2.1"/>
  <path id="Fill-146" class="cls-9" d="M84.35,236.15c-.13-1.2-.11-2.67-.54-3.77-.13-.34-.58-.33-.72,0-.5,1.22-.28,2.95-.11,4.24.05.35.4.69.69.65.06,0,.13-.02.19-.03.41-.09.55-.66.5-1.09"/>
  <path id="Fill-148" class="cls-9" d="M87.33,234.62c-.08-.64-.21-1.23-.39-1.84-.09-.3-.39-.23-.42.07-.06.61-.09,1.18-.06,1.8.02.49,0,1.02.32,1.34.12.12.32.17.42,0,.27-.43.19-.85.13-1.37"/>
  <path id="Fill-150" class="cls-9" d="M91.36,235.11c-.25-1.13-.39-2.28-.53-3.44-.05-.4-.6-.4-.65,0-.15,1.29-.07,2.51.15,3.79.04.21.2.42.37.46.23.06.34.02.52-.17.14-.15.18-.43.14-.65"/>
  <path id="Fill-152" class="cls-9" d="M93.22,233.37c-.05-.74-.08-1.48-.12-2.22-.03-.49-.64-.67-.73-.12-.13.79-.19,1.54-.15,2.34.03.65-.01,1.48.42,1.92.17.17.41.17.54-.09.28-.56.09-1.21.04-1.83"/>
  <path id="Fill-154" class="cls-9" d="M94.77,232.21c-.1-.76-.24-1.49-.38-2.24-.08-.44-.64-.35-.64.11.01.77.02,1.52.08,2.29.05.64.07,1.17.44,1.66.11.15.33.11.41-.07.26-.59.17-1.11.09-1.75"/>
  <path id="Fill-156" class="cls-7" d="M76.07,234.71c-.03-.64,0-1.56-.41-2-.12-.12-.28-.14-.4,0-.43.5-.33,1.46-.33,2.14,0,.72-.05,1.49.45,1.97.12.11.29.04.39-.06.46-.49.33-1.37.3-2.04"/>
  <path id="Fill-158" class="cls-7" d="M72.66,235.31c0-.82.02-1.7-.2-2.48-.13-.44-.57-.42-.7,0-.26.8-.29,1.73-.28,2.56,0,.34-.22.54.05.83.77.83,1.14-.37,1.14-.91"/>
  <path id="Fill-160" class="cls-7" d="M69.15,234.71c.04-.92-.15-2.15-.25-2.42-.37-1.06-.87,1.11-.87,1.33-.02.44-.1,1.68.3,1.99.58.46.78-.11.82-.91"/>
  <path id="Fill-162" class="cls-7" d="M66.07,233.22c0-.64-.06-1.25-.14-1.88-.06-.44-.65-.44-.71,0-.08.63-.14,1.24-.14,1.88,0,.62-.1,1.32.08,1.9.16.5.67.5.83,0,.18-.58.09-1.28.08-1.9"/>
  <path id="Fill-164" class="cls-7" d="M64.38,233.75c-.13-.79-.17-1.59-.33-2.37-.06-.27-.38-.33-.48-.08-.36.84-.42,1.7-.35,2.65.03.43.06.96.57,1.09.99.26.68-.79.6-1.29"/>
  <path id="Fill-166" class="cls-9" d="M89.35,224.94c1.47.24,5.63.8,6.33,2.76.98,2.72-6.44,4.08-7.62,4.31-2.49.48-5,.77-7.51.88-5.08.23-10.2-.24-15.18-1.55-1.28-.34-2.64-.8-3.14-1.67-.97-1.68,1.88-3.19,4.37-3.82,7.23-1.83,15.26-2.15,22.76-.92"/>
  <path id="Fill-168" class="cls-14" d="M95.68,227.7c-.71-1.97-4.86-2.52-6.33-2.76-3.26-.54-6.62-.76-9.97-.71,2.68.05,5.35.28,7.96.71,1.47.24,5.63.8,6.33,2.76.98,2.72-6.44,4.08-7.62,4.31-2.49.48-5,.77-7.51.88-.49.02-.98.03-1.47.04,1.16.02,2.32.01,3.48-.04,2.51-.11,5.02-.4,7.51-.88,1.19-.23,8.6-1.59,7.62-4.31"/>
  <path id="Fill-170" class="cls-10" d="M87.4,226.19c-5.84-.81-12.09-.6-17.72.6-1.93.41-4.16,1.4-3.4,2.51.39.57,1.45.88,2.45,1.1,3.86.86,7.79,1.16,11.71,1.02,1.93-.07,3.86-.25,5.78-.56.96-.15,6.8-.48,6.21-2.66-.42-1.56-3.94-1.86-5.02-2.01"/>
  <path id="Fill-172" class="cls-8" d="M69.68,227.46c5.63-1.2,11.88-1.41,17.72-.6,1.06.15,4.5.45,5,1.96.06-.19.09-.39.02-.62-.42-1.56-3.94-1.86-5.02-2.01-5.84-.81-12.09-.6-17.72.6-1.85.39-3.94,1.32-3.45,2.37.41-.76,2.01-1.39,3.45-1.7"/>
  <path id="Fill-174" class="cls-8" d="M59.88,223.16c.25,1.92.49,3.84.74,5.77,5.12,1.27,10.33,1.77,15.54,1.88,5.03.11,9.85-1.08,14.81-2.06,1.53-.3,1.75-1.17,2.03-2.87.1-.6.5-4.59-.6-4.53l-32.53,1.81Z"/>
  <path id="Fill-176" class="cls-13" d="M92.4,221.35s-.63.03-1.68.09c.76.58.42,3.89.33,4.43-.28,1.7-.5,2.57-2.03,2.87-4.43.88-8.74,1.91-13.2,2.05.11,0,.23.01.34.01,5.03.11,9.85-1.08,14.81-2.06,1.53-.3,1.74-1.17,2.03-2.87.1-.6.5-4.59-.6-4.53"/>
  <path id="Fill-178" class="cls-7" d="M78.78,229.56c-5.21-.11-10.43-.62-15.54-1.88-.2-1.56-.4-3.12-.6-4.67-1.71.09-2.76.15-2.76.15.25,1.92.49,3.84.74,5.77,5.12,1.27,10.33,1.77,15.54,1.88,5.03.11,9.85-1.08,14.81-2.06.82-.16,1.26-.5,1.54-1.03-4.58.94-9.06,1.95-13.73,1.84"/>
  <path id="Fill-180" class="cls-7" d="M77.82,228.58c-.12-.82-.18-1.7-.52-2.43-.12-.25-.48-.22-.53.09-.12.78.01,1.56.11,2.33.09.73.06,1.66.52,2.18.14.15.36.14.45-.07.29-.64.07-1.41-.03-2.1"/>
  <path id="Fill-182" class="cls-9" d="M81.8,229.53c-.13-1.2-.11-2.67-.54-3.77-.13-.34-.58-.33-.72,0-.5,1.22-.28,2.95-.11,4.24.05.35.4.69.69.65.06,0,.13-.02.19-.03.41-.09.55-.66.5-1.09"/>
  <path id="Fill-184" class="cls-9" d="M84.78,228.01c-.08-.64-.21-1.23-.39-1.84-.09-.3-.39-.23-.42.07-.06.61-.09,1.18-.06,1.8.02.49,0,1.02.32,1.34.12.12.32.17.42,0,.27-.43.19-.85.13-1.37"/>
  <path id="Fill-186" class="cls-9" d="M88.8,228.49c-.25-1.13-.39-2.28-.53-3.44-.05-.4-.6-.4-.65,0-.15,1.29-.07,2.51.15,3.79.04.21.2.42.37.46.23.06.34.02.52-.17.14-.15.18-.43.14-.65"/>
  <path id="Fill-188" class="cls-9" d="M90.66,226.75c-.05-.74-.08-1.48-.12-2.22-.03-.49-.64-.67-.73-.12-.13.79-.19,1.54-.15,2.34.03.65-.01,1.48.42,1.92.17.17.41.17.54-.09.28-.56.09-1.2.04-1.83"/>
  <path id="Fill-190" class="cls-9" d="M92.22,225.6c-.1-.76-.24-1.49-.38-2.24-.08-.44-.64-.35-.64.11.01.77.02,1.52.08,2.29.05.64.07,1.17.44,1.66.11.15.33.11.41-.07.26-.59.17-1.11.09-1.75"/>
  <path id="Fill-192" class="cls-7" d="M73.52,228.1c-.03-.64,0-1.56-.42-2-.12-.12-.28-.14-.4,0-.43.5-.33,1.46-.33,2.14,0,.72-.05,1.49.45,1.97.12.11.29.04.39-.06.46-.49.33-1.37.3-2.04"/>
  <path id="Fill-194" class="cls-7" d="M70.1,228.7c0-.82.02-1.7-.2-2.48-.13-.44-.57-.42-.7,0-.26.8-.29,1.73-.28,2.56,0,.34-.22.54.05.83.77.83,1.14-.37,1.14-.91"/>
  <path id="Fill-196" class="cls-7" d="M66.59,228.09c.04-.92-.15-2.15-.25-2.42-.37-1.06-.87,1.11-.87,1.33-.02.44-.1,1.68.3,1.99.58.46.78-.11.82-.91"/>
  <path id="Fill-198" class="cls-7" d="M63.51,226.61c0-.64-.06-1.25-.14-1.88-.06-.44-.65-.44-.71,0-.08.63-.14,1.24-.14,1.88,0,.62-.1,1.32.08,1.9.16.5.67.51.83,0,.18-.58.09-1.28.08-1.9"/>
  <path id="Fill-200" class="cls-7" d="M61.83,227.14c-.12-.79-.17-1.59-.33-2.37-.06-.27-.38-.33-.48-.08-.36.84-.42,1.7-.35,2.65.03.43.06.96.57,1.09.99.26.68-.79.6-1.29"/>
  <path id="Fill-202" class="cls-9" d="M86.8,218.32c1.47.24,5.63.8,6.33,2.76.98,2.72-6.44,4.08-7.62,4.31-2.49.48-5,.77-7.51.88-5.08.23-10.2-.24-15.18-1.55-1.28-.34-2.64-.8-3.14-1.67-.97-1.68,1.88-3.19,4.37-3.82,7.23-1.83,15.26-2.15,22.76-.92"/>
  <path id="Fill-204" class="cls-14" d="M93.13,221.08c-.71-1.97-4.86-2.52-6.33-2.76-3.26-.54-6.62-.76-9.98-.71,2.68.05,5.35.28,7.96.71,1.47.24,5.63.8,6.33,2.76.98,2.72-6.44,4.08-7.62,4.31-2.49.48-5,.77-7.51.88-.49.02-.98.03-1.47.04,1.16.02,2.32.01,3.48-.04,2.51-.11,5.02-.4,7.51-.88,1.19-.23,8.6-1.59,7.62-4.31"/>
  <path id="Fill-206" class="cls-10" d="M84.84,219.57c-5.84-.81-12.09-.6-17.72.6-1.93.41-4.16,1.4-3.4,2.51.39.57,1.45.88,2.45,1.1,3.86.86,7.79,1.16,11.71,1.02,1.93-.07,3.86-.25,5.78-.56.96-.15,6.8-.48,6.21-2.66-.42-1.56-3.94-1.86-5.02-2.01"/>
  <path id="Fill-208" class="cls-8" d="M67.12,220.85c5.63-1.2,11.88-1.41,17.72-.6,1.06.15,4.5.45,5,1.95.06-.19.09-.39.02-.61-.42-1.56-3.94-1.86-5.02-2.01-5.84-.81-12.09-.6-17.72.6-1.85.39-3.94,1.32-3.45,2.37.41-.76,2.01-1.39,3.45-1.7"/>
  <path id="Fill-210" class="cls-8" d="M62.43,216.54c.25,1.92.49,3.84.74,5.77,5.12,1.27,10.33,1.77,15.54,1.88,5.04.11,9.85-1.08,14.81-2.06,1.53-.3,1.75-1.17,2.03-2.87.1-.6.5-4.59-.6-4.53l-32.52,1.81Z"/>
  <path id="Fill-212" class="cls-13" d="M94.96,214.73s-.63.03-1.68.09c.76.58.42,3.89.33,4.43-.28,1.7-.5,2.57-2.03,2.87-4.43.88-8.74,1.91-13.2,2.05.11,0,.23.01.34.01,5.03.11,9.85-1.08,14.81-2.06,1.53-.3,1.74-1.17,2.03-2.87.1-.6.5-4.59-.6-4.53"/>
  <path id="Fill-214" class="cls-7" d="M81.33,222.95c-5.21-.11-10.43-.62-15.54-1.88-.2-1.56-.4-3.12-.6-4.67-1.71.09-2.76.15-2.76.15.25,1.92.49,3.84.74,5.77,5.12,1.27,10.33,1.77,15.54,1.88,5.04.11,9.85-1.08,14.81-2.06.82-.16,1.26-.5,1.54-1.03-4.58.94-9.06,1.95-13.73,1.84"/>
  <path id="Fill-216" class="cls-7" d="M80.38,221.97c-.12-.82-.18-1.7-.52-2.43-.12-.25-.48-.23-.53.09-.12.78.01,1.56.11,2.33.09.73.06,1.66.52,2.18.14.15.36.14.45-.07.29-.64.07-1.41-.03-2.1"/>
  <path id="Fill-218" class="cls-9" d="M84.35,222.92c-.13-1.2-.11-2.67-.54-3.77-.13-.34-.58-.33-.72,0-.5,1.22-.28,2.95-.11,4.24.05.35.4.69.69.65.06,0,.13-.02.19-.03.41-.09.55-.66.5-1.09"/>
  <path id="Fill-220" class="cls-9" d="M87.33,221.39c-.08-.64-.21-1.23-.39-1.84-.09-.3-.39-.23-.42.07-.06.61-.09,1.18-.06,1.8.02.49,0,1.02.32,1.34.12.12.32.17.42,0,.27-.43.19-.85.13-1.37"/>
  <path id="Fill-222" class="cls-9" d="M91.36,221.88c-.25-1.13-.39-2.28-.53-3.44-.05-.4-.6-.4-.65,0-.15,1.29-.07,2.51.15,3.79.04.21.2.42.37.46.23.06.34.02.52-.17.14-.15.18-.43.14-.65"/>
  <path id="Fill-224" class="cls-9" d="M93.22,220.14c-.05-.74-.08-1.48-.12-2.22-.03-.49-.64-.67-.73-.12-.13.79-.19,1.54-.15,2.34.03.65-.01,1.48.42,1.92.17.17.41.17.54-.09.28-.56.09-1.2.04-1.83"/>
  <path id="Fill-226" class="cls-9" d="M94.77,218.98c-.1-.76-.24-1.49-.38-2.24-.08-.44-.64-.35-.64.11.01.77.02,1.52.08,2.29.05.64.07,1.17.44,1.66.11.15.33.11.41-.07.26-.59.17-1.11.09-1.75"/>
  <path id="Fill-228" class="cls-7" d="M76.07,221.48c-.03-.64,0-1.56-.41-2-.12-.12-.28-.14-.4,0-.43.5-.33,1.46-.33,2.14,0,.72-.05,1.49.45,1.97.12.11.29.04.39-.06.46-.49.33-1.37.3-2.04"/>
  <path id="Fill-230" class="cls-7" d="M72.66,222.09c0-.82.02-1.7-.2-2.48-.13-.44-.57-.42-.7,0-.26.8-.29,1.73-.28,2.56,0,.34-.22.54.05.83.77.83,1.14-.37,1.14-.91"/>
  <path id="Fill-232" class="cls-7" d="M69.15,221.48c.04-.92-.15-2.15-.25-2.42-.37-1.06-.87,1.11-.87,1.33-.02.44-.1,1.68.3,1.99.58.46.78-.11.82-.91"/>
  <path id="Fill-234" class="cls-7" d="M66.07,219.99c0-.64-.06-1.25-.14-1.88-.06-.44-.65-.44-.71,0-.08.63-.14,1.24-.14,1.88,0,.62-.1,1.32.08,1.9.16.5.67.51.83,0,.18-.58.09-1.28.08-1.9"/>
  <path id="Fill-236" class="cls-7" d="M64.38,220.52c-.13-.8-.17-1.59-.33-2.37-.06-.27-.38-.33-.48-.08-.36.84-.42,1.7-.35,2.65.03.43.06.96.57,1.09.99.26.68-.79.6-1.29"/>
  <path id="Fill-238" class="cls-9" d="M89.35,211.71c1.47.24,5.63.8,6.33,2.76.98,2.72-6.44,4.08-7.62,4.31-2.49.48-5,.77-7.51.88-5.08.23-10.2-.24-15.18-1.55-1.28-.34-2.64-.8-3.14-1.67-.97-1.68,1.88-3.19,4.37-3.82,7.23-1.83,15.26-2.15,22.76-.92"/>
  <path id="Fill-240" class="cls-14" d="M95.68,214.47c-.71-1.97-4.86-2.52-6.33-2.76-3.26-.54-6.62-.76-9.97-.71,2.68.05,5.35.28,7.96.71,1.47.24,5.63.8,6.33,2.76.98,2.72-6.44,4.08-7.62,4.31-2.49.48-5,.77-7.51.88-.49.02-.98.03-1.47.04,1.16.02,2.32.01,3.48-.04,2.51-.11,5.02-.4,7.51-.88,1.19-.23,8.6-1.59,7.62-4.31"/>
  <path id="Fill-242" class="cls-10" d="M87.4,212.96c-5.84-.81-12.09-.6-17.72.6-1.93.41-4.16,1.4-3.4,2.51.39.57,1.45.88,2.45,1.1,3.86.86,7.79,1.16,11.71,1.02,1.93-.07,3.86-.25,5.78-.56.96-.15,6.8-.48,6.21-2.66-.42-1.56-3.94-1.86-5.02-2.01"/>
  <path id="Fill-244" class="cls-8" d="M69.68,214.23c5.63-1.2,11.88-1.41,17.72-.6,1.06.15,4.5.45,5,1.95.06-.19.09-.39.02-.62-.42-1.56-3.94-1.86-5.02-2.01-5.84-.81-12.09-.6-17.72.6-1.85.39-3.94,1.32-3.45,2.37.41-.76,2.01-1.39,3.45-1.7"/>
  <path id="Fill-246" class="cls-8" d="M64.99,209.93c.25,1.92.49,3.84.74,5.77,5.12,1.27,10.33,1.77,15.54,1.88,5.03.11,9.85-1.08,14.81-2.06,1.53-.3,1.75-1.17,2.03-2.87.1-.6.5-4.59-.6-4.53l-32.52,1.81"/>
  <path id="Fill-248" class="cls-13" d="M97.51,208.12s-.63.03-1.68.09c.76.58.42,3.89.33,4.43-.28,1.7-.5,2.57-2.03,2.87-4.43.88-8.74,1.91-13.2,2.05.11,0,.23.01.34.01,5.03.11,9.85-1.08,14.81-2.06,1.53-.3,1.75-1.17,2.03-2.87.1-.6.5-4.59-.6-4.53"/>
  <path id="Fill-250" class="cls-7" d="M83.89,216.33c-5.21-.11-10.43-.62-15.54-1.88-.2-1.56-.4-3.12-.6-4.67-1.71.09-2.76.15-2.76.15.25,1.92.49,3.84.74,5.77,5.12,1.27,10.33,1.77,15.54,1.88,5.03.11,9.85-1.08,14.81-2.06.82-.16,1.26-.5,1.54-1.03-4.58.94-9.06,1.95-13.73,1.84"/>
  <path id="Fill-252" class="cls-7" d="M82.93,215.35c-.12-.82-.18-1.7-.52-2.43-.12-.25-.48-.23-.53.09-.12.78.01,1.56.11,2.33.09.73.06,1.66.52,2.18.14.15.36.14.45-.07.29-.64.07-1.41-.03-2.1"/>
  <path id="Fill-254" class="cls-9" d="M86.91,216.3c-.13-1.2-.11-2.67-.54-3.77-.13-.34-.58-.33-.72,0-.5,1.22-.28,2.95-.11,4.24.05.35.4.69.69.65.06,0,.13-.02.19-.03.41-.09.55-.66.5-1.09"/>
  <path id="Fill-256" class="cls-9" d="M89.89,214.78c-.08-.64-.21-1.23-.39-1.84-.09-.3-.39-.23-.42.07-.06.61-.09,1.18-.06,1.8.02.49,0,1.02.32,1.34.12.12.32.17.42,0,.27-.43.19-.85.13-1.37"/>
  <path id="Fill-258" class="cls-9" d="M93.91,215.27c-.25-1.13-.39-2.28-.53-3.44-.05-.4-.6-.4-.65,0-.15,1.29-.07,2.51.15,3.79.04.21.2.42.37.46.23.06.34.02.52-.17.14-.15.18-.43.14-.65"/>
  <path id="Fill-260" class="cls-9" d="M95.77,213.52c-.05-.74-.08-1.48-.12-2.22-.03-.49-.64-.67-.73-.12-.13.79-.19,1.54-.15,2.34.03.65-.01,1.48.42,1.92.17.17.41.17.54-.09.28-.56.09-1.21.04-1.83"/>
  <path id="Fill-262" class="cls-9" d="M97.33,212.37c-.1-.76-.24-1.49-.38-2.24-.08-.44-.64-.35-.64.11.01.77.02,1.52.08,2.29.05.64.07,1.17.44,1.66.11.15.33.11.41-.07.26-.59.17-1.11.09-1.75"/>
  <path id="Fill-264" class="cls-7" d="M78.63,214.87c-.03-.64,0-1.56-.42-2-.12-.12-.28-.14-.4,0-.43.5-.33,1.46-.33,2.14,0,.72-.05,1.49.45,1.97.12.11.29.04.39-.06.46-.49.33-1.37.3-2.04"/>
  <path id="Fill-266" class="cls-7" d="M75.21,215.47c0-.82.02-1.7-.2-2.48-.13-.44-.57-.42-.7,0-.26.8-.29,1.73-.28,2.56,0,.34-.22.54.05.83.77.83,1.14-.37,1.14-.91"/>
  <path id="Fill-268" class="cls-7" d="M71.7,214.86c.04-.92-.15-2.15-.25-2.42-.37-1.06-.87,1.11-.87,1.33-.02.44-.1,1.68.3,1.99.58.46.78-.11.82-.91"/>
  <path id="Fill-270" class="cls-7" d="M68.62,213.38c0-.64-.06-1.25-.14-1.88-.06-.44-.65-.44-.71,0-.08.63-.14,1.24-.14,1.88,0,.62-.1,1.32.08,1.9.16.5.67.5.83,0,.18-.58.09-1.28.08-1.9"/>
  <path id="Fill-272" class="cls-7" d="M66.94,213.91c-.12-.79-.17-1.59-.33-2.37-.05-.27-.38-.33-.48-.08-.36.84-.42,1.7-.35,2.65.03.43.06.96.57,1.09.99.26.68-.79.6-1.29"/>
  <path id="Fill-274" class="cls-9" d="M91.91,205.09c1.47.24,5.63.8,6.33,2.76.98,2.72-6.44,4.08-7.62,4.31-2.49.48-5,.77-7.51.88-5.08.23-10.2-.24-15.18-1.55-1.28-.34-2.64-.8-3.14-1.67-.97-1.68,1.88-3.19,4.37-3.82,7.23-1.83,15.26-2.15,22.76-.92"/>
  <path id="Fill-276" class="cls-14" d="M98.24,207.86c-.71-1.97-4.86-2.52-6.33-2.76-3.26-.54-6.62-.76-9.97-.71,2.68.05,5.35.28,7.96.71,1.47.24,5.63.8,6.33,2.76.98,2.72-6.44,4.08-7.62,4.31-2.49.48-5,.77-7.51.88-.49.02-.98.03-1.47.04,1.16.02,2.32.01,3.48-.04,2.51-.11,5.02-.4,7.51-.88,1.19-.23,8.6-1.59,7.62-4.31"/>
  <path id="Fill-278" class="cls-10" d="M89.95,206.34c-5.84-.81-12.09-.6-17.72.6-1.93.41-4.16,1.4-3.4,2.51.39.57,1.45.88,2.45,1.1,3.86.86,7.79,1.16,11.71,1.02,1.93-.07,3.86-.25,5.78-.56.96-.15,6.8-.48,6.21-2.66-.42-1.56-3.94-1.86-5.02-2.01"/>
  <path id="Fill-280" class="cls-8" d="M72.23,207.62c5.63-1.2,11.88-1.41,17.72-.6,1.06.15,4.5.45,5,1.95.06-.19.09-.39.02-.62-.42-1.56-3.94-1.86-5.02-2.01-5.84-.81-12.09-.6-17.72.6-1.85.39-3.94,1.32-3.45,2.37.41-.76,2.01-1.39,3.45-1.7"/>
  <path id="Fill-282" class="cls-8" d="M62.43,203.32c.25,1.92.49,3.84.74,5.77,5.12,1.27,10.33,1.77,15.54,1.88,5.04.11,9.85-1.08,14.81-2.06,1.53-.3,1.75-1.17,2.03-2.87.1-.6.5-4.59-.6-4.53l-32.52,1.81Z"/>
  <path id="Fill-284" class="cls-13" d="M94.96,201.5s-.63.03-1.68.09c.76.58.42,3.89.33,4.43-.28,1.7-.5,2.57-2.03,2.87-4.43.88-8.74,1.91-13.2,2.05.11,0,.23.01.34.01,5.03.11,9.85-1.08,14.81-2.06,1.53-.3,1.74-1.17,2.03-2.87.1-.6.5-4.59-.6-4.53"/>
  <path id="Fill-286" class="cls-7" d="M81.33,209.72c-5.21-.11-10.43-.62-15.54-1.88-.2-1.56-.4-3.12-.6-4.67-1.71.09-2.76.15-2.76.15.25,1.92.49,3.84.74,5.77,5.12,1.27,10.33,1.77,15.54,1.88,5.04.11,9.85-1.08,14.81-2.06.82-.16,1.26-.5,1.54-1.03-4.58.94-9.06,1.95-13.73,1.84"/>
  <path id="Fill-288" class="cls-7" d="M80.38,208.74c-.12-.82-.18-1.7-.52-2.43-.12-.25-.48-.22-.53.09-.12.78.01,1.56.11,2.33.09.73.06,1.66.52,2.18.14.15.36.14.45-.07.29-.64.07-1.41-.03-2.1"/>
  <path id="Fill-290" class="cls-9" d="M84.35,209.69c-.13-1.2-.11-2.67-.54-3.77-.13-.34-.58-.33-.72,0-.5,1.22-.28,2.95-.11,4.24.05.35.4.69.69.65.06,0,.13-.02.19-.03.41-.09.55-.66.5-1.09"/>
  <path id="Fill-292" class="cls-9" d="M87.33,208.16c-.08-.64-.21-1.23-.39-1.84-.09-.3-.39-.23-.42.07-.06.61-.09,1.18-.06,1.8.02.49,0,1.02.32,1.34.12.12.32.17.42,0,.27-.43.19-.85.13-1.37"/>
  <path id="Fill-294" class="cls-9" d="M91.36,208.65c-.25-1.13-.39-2.28-.53-3.44-.05-.4-.6-.4-.65,0-.15,1.29-.07,2.51.15,3.79.04.21.2.42.37.46.23.06.34.02.52-.17.14-.15.18-.43.14-.65"/>
  <path id="Fill-296" class="cls-9" d="M93.22,206.91c-.05-.74-.08-1.48-.12-2.22-.03-.49-.64-.67-.73-.12-.13.79-.19,1.54-.15,2.34.03.65-.01,1.48.42,1.92.17.17.41.17.54-.09.28-.56.09-1.2.04-1.83"/>
  <path id="Fill-298" class="cls-9" d="M94.77,205.76c-.1-.76-.24-1.49-.38-2.24-.08-.44-.64-.35-.64.11.01.77.02,1.52.08,2.29.05.64.07,1.17.44,1.66.11.15.33.11.41-.07.26-.59.17-1.11.09-1.75"/>
  <path id="Fill-300" class="cls-7" d="M76.07,208.26c-.03-.64,0-1.56-.41-2-.12-.12-.28-.14-.4,0-.43.5-.33,1.46-.33,2.14,0,.72-.05,1.49.45,1.97.12.11.29.04.39-.06.46-.49.33-1.37.3-2.04"/>
  <path id="Fill-302" class="cls-7" d="M72.66,208.86c0-.82.02-1.7-.2-2.48-.13-.44-.57-.42-.7,0-.26.8-.29,1.73-.28,2.56,0,.34-.22.54.05.83.77.83,1.14-.37,1.14-.91"/>
  <path id="Fill-304" class="cls-7" d="M69.15,208.25c.04-.92-.15-2.15-.25-2.42-.37-1.06-.87,1.11-.87,1.33-.02.44-.1,1.68.3,1.99.58.46.78-.11.82-.91"/>
  <path id="Fill-306" class="cls-7" d="M66.07,206.76c0-.64-.06-1.25-.14-1.88-.06-.44-.65-.44-.71,0-.08.63-.14,1.24-.14,1.88,0,.62-.1,1.32.08,1.9.16.5.67.51.83,0,.18-.58.09-1.28.08-1.9"/>
  <path id="Fill-308" class="cls-7" d="M64.38,207.3c-.13-.79-.17-1.59-.33-2.37-.06-.27-.38-.33-.48-.08-.36.84-.42,1.7-.35,2.65.03.43.06.96.57,1.09.99.26.68-.79.6-1.29"/>
  <path id="Fill-310" class="cls-9" d="M89.35,198.48c1.47.24,5.63.8,6.33,2.76.98,2.72-6.44,4.08-7.62,4.31-2.49.48-5,.77-7.51.88-5.08.23-10.2-.24-15.18-1.55-1.28-.34-2.64-.8-3.14-1.67-.97-1.68,1.88-3.19,4.37-3.82,7.23-1.83,15.26-2.15,22.76-.92"/>
  <path id="Fill-312" class="cls-14" d="M95.68,201.24c-.71-1.97-4.86-2.52-6.33-2.76-3.26-.54-6.62-.76-9.97-.71,2.68.05,5.35.28,7.96.71,1.47.24,5.63.8,6.33,2.76.98,2.72-6.44,4.08-7.62,4.31-2.49.48-5,.77-7.51.88-.49.02-.98.03-1.47.04,1.16.02,2.32.01,3.48-.04,2.51-.11,5.02-.4,7.51-.88,1.19-.23,8.6-1.59,7.62-4.31"/>
  <path id="Fill-314" class="cls-10" d="M87.4,199.73c-5.84-.81-12.09-.6-17.72.6-1.93.41-4.16,1.4-3.4,2.51.39.57,1.45.88,2.45,1.1,3.86.86,7.79,1.16,11.71,1.02,1.93-.07,3.86-.25,5.78-.56.96-.15,6.8-.48,6.21-2.66-.42-1.56-3.94-1.86-5.02-2.01"/>
  <path id="Fill-316" class="cls-8" d="M69.68,201c5.63-1.2,11.88-1.41,17.72-.6,1.06.15,4.5.45,5,1.95.06-.19.09-.39.02-.62-.42-1.56-3.94-1.86-5.02-2.01-5.84-.81-12.09-.6-17.72.6-1.85.39-3.94,1.32-3.45,2.37.41-.76,2.01-1.39,3.45-1.7"/>
  <path id="Fill-318" class="cls-8" d="M59.88,196.7c.25,1.92.49,3.84.74,5.77,5.12,1.27,10.33,1.77,15.54,1.88,5.03.11,9.85-1.08,14.81-2.06,1.53-.3,1.75-1.17,2.03-2.87.1-.6.5-4.59-.6-4.53l-32.53,1.81Z"/>
  <path id="Fill-320" class="cls-13" d="M92.4,194.89s-.63.03-1.68.09c.76.58.42,3.89.33,4.43-.28,1.7-.5,2.57-2.03,2.87-4.43.88-8.74,1.91-13.2,2.05.11,0,.23.01.34.01,5.03.11,9.85-1.08,14.81-2.06,1.53-.3,1.74-1.17,2.03-2.87.1-.6.5-4.59-.6-4.53"/>
  <path id="Fill-322" class="cls-7" d="M78.78,203.11c-5.21-.11-10.43-.62-15.54-1.88-.2-1.56-.4-3.12-.6-4.67-1.71.09-2.76.15-2.76.15.25,1.92.49,3.84.74,5.77,5.12,1.27,10.33,1.77,15.54,1.88,5.03.11,9.85-1.08,14.81-2.06.82-.16,1.26-.5,1.54-1.03-4.58.94-9.06,1.95-13.73,1.84"/>
  <path id="Fill-324" class="cls-7" d="M77.82,202.12c-.12-.82-.18-1.7-.52-2.43-.12-.25-.48-.23-.53.09-.12.78.01,1.56.11,2.33.09.73.06,1.66.52,2.18.14.15.36.14.45-.07.29-.64.07-1.41-.03-2.1"/>
  <path id="Fill-326" class="cls-9" d="M81.8,203.08c-.13-1.2-.11-2.67-.54-3.77-.13-.34-.58-.33-.72,0-.5,1.22-.28,2.95-.11,4.24.05.35.4.69.69.65.06,0,.13-.02.19-.03.41-.09.55-.66.5-1.09"/>
  <path id="Fill-328" class="cls-9" d="M84.78,201.55c-.08-.64-.21-1.23-.39-1.84-.09-.3-.39-.23-.42.07-.06.61-.09,1.18-.06,1.8.02.49,0,1.02.32,1.34.12.12.32.17.42,0,.27-.43.19-.85.13-1.37"/>
  <path id="Fill-330" class="cls-9" d="M88.8,202.04c-.25-1.13-.39-2.28-.53-3.44-.05-.4-.6-.4-.65,0-.15,1.29-.07,2.51.15,3.79.04.21.2.42.37.46.23.06.34.02.52-.17.14-.15.18-.43.14-.65"/>
  <path id="Fill-332" class="cls-9" d="M90.66,200.29c-.05-.74-.08-1.48-.12-2.22-.03-.49-.64-.67-.73-.12-.13.79-.19,1.54-.15,2.34.03.65-.01,1.48.42,1.92.17.18.41.17.54-.09.28-.56.09-1.21.04-1.83"/>
  <path id="Fill-334" class="cls-9" d="M92.22,199.14c-.1-.76-.24-1.49-.38-2.24-.08-.44-.64-.35-.64.11.01.77.02,1.52.08,2.29.05.64.07,1.17.44,1.66.11.15.33.11.41-.07.26-.59.17-1.11.09-1.75"/>
  <path id="Fill-336" class="cls-7" d="M73.52,201.64c-.03-.64,0-1.56-.42-2-.12-.12-.28-.14-.4,0-.43.5-.33,1.46-.33,2.14,0,.72-.05,1.49.45,1.97.12.11.29.04.39-.06.46-.49.33-1.37.3-2.04"/>
  <path id="Fill-338" class="cls-7" d="M70.1,202.24c0-.82.02-1.7-.2-2.48-.13-.44-.57-.42-.7,0-.26.8-.29,1.73-.28,2.56,0,.34-.22.54.05.83.77.83,1.14-.37,1.14-.91"/>
  <path id="Fill-340" class="cls-7" d="M66.59,201.63c.04-.92-.15-2.15-.25-2.42-.37-1.06-.87,1.11-.87,1.33-.02.44-.1,1.68.3,1.99.58.46.78-.11.82-.91"/>
  <path id="Fill-342" class="cls-7" d="M63.51,200.15c0-.64-.06-1.25-.14-1.88-.06-.44-.65-.44-.71,0-.08.63-.14,1.24-.14,1.88,0,.62-.1,1.32.08,1.9.16.5.67.51.83,0,.18-.58.09-1.28.08-1.9"/>
  <path id="Fill-344" class="cls-7" d="M61.83,200.68c-.12-.8-.17-1.59-.33-2.37-.06-.27-.38-.33-.48-.08-.36.84-.42,1.7-.35,2.65.03.43.06.96.57,1.09.99.26.68-.79.6-1.29"/>
  <path id="Fill-346" class="cls-9" d="M86.8,191.87c1.47.24,5.63.8,6.33,2.76.98,2.72-6.44,4.08-7.62,4.31-2.49.48-5,.77-7.51.88-5.08.23-10.2-.24-15.18-1.55-1.28-.34-2.64-.8-3.14-1.67-.97-1.68,1.88-3.19,4.37-3.82,7.23-1.83,15.26-2.15,22.76-.92"/>
  <path id="Fill-348" class="cls-14" d="M93.13,194.63c-.71-1.97-4.86-2.52-6.33-2.76-3.26-.54-6.62-.76-9.98-.71,2.68.05,5.35.28,7.96.71,1.47.24,5.63.8,6.33,2.76.98,2.72-6.44,4.08-7.62,4.31-2.49.48-5,.77-7.51.88-.49.02-.98.03-1.47.04,1.16.02,2.32.01,3.48-.04,2.51-.11,5.02-.4,7.51-.88,1.19-.23,8.6-1.59,7.62-4.31"/>
  <path id="Fill-350" class="cls-10" d="M84.84,193.11c-5.84-.81-12.09-.6-17.72.6-1.93.41-4.16,1.4-3.4,2.51.39.57,1.45.88,2.45,1.1,3.86.86,7.79,1.16,11.71,1.02,1.93-.07,3.86-.25,5.78-.56.96-.15,6.8-.48,6.21-2.66-.42-1.56-3.94-1.86-5.02-2.01"/>
  <path id="Fill-352" class="cls-8" d="M67.12,194.39c5.63-1.2,11.88-1.41,17.72-.6,1.06.15,4.5.45,5,1.95.06-.19.09-.39.02-.62-.42-1.56-3.94-1.86-5.02-2.01-5.84-.81-12.09-.6-17.72.6-1.85.39-3.94,1.32-3.45,2.37.41-.76,2.01-1.39,3.45-1.7"/>
  <path id="Fill-354" class="cls-8" d="M62.43,190.09c.25,1.92.49,3.84.74,5.77,5.12,1.27,10.33,1.77,15.54,1.88,5.04.11,9.85-1.08,14.81-2.06,1.53-.3,1.75-1.17,2.03-2.87.1-.6.5-4.59-.6-4.53l-32.52,1.81Z"/>
  <path id="Fill-356" class="cls-13" d="M94.96,188.27s-.63.03-1.68.09c.76.58.42,3.89.33,4.43-.28,1.7-.5,2.57-2.03,2.87-4.43.88-8.74,1.91-13.2,2.05.11,0,.23.01.34.01,5.03.11,9.85-1.08,14.81-2.06,1.53-.3,1.74-1.17,2.03-2.87.1-.6.5-4.59-.6-4.53"/>
  <path id="Fill-358" class="cls-7" d="M81.33,196.49c-5.21-.11-10.43-.62-15.54-1.88-.2-1.56-.4-3.12-.6-4.67-1.71.09-2.76.15-2.76.15.25,1.92.49,3.84.74,5.77,5.12,1.27,10.33,1.77,15.54,1.88,5.04.11,9.85-1.08,14.81-2.06.82-.16,1.26-.5,1.54-1.03-4.58.94-9.06,1.95-13.73,1.84"/>
  <path id="Fill-360" class="cls-7" d="M80.38,195.51c-.12-.82-.18-1.7-.52-2.43-.12-.25-.48-.23-.53.09-.12.78.01,1.56.11,2.33.09.73.06,1.66.52,2.18.14.15.36.14.45-.07.29-.64.07-1.41-.03-2.1"/>
  <path id="Fill-362" class="cls-9" d="M84.35,196.46c-.13-1.2-.11-2.67-.54-3.77-.13-.34-.58-.33-.72,0-.5,1.22-.28,2.95-.11,4.24.05.35.4.69.69.65.06,0,.13-.02.19-.03.41-.09.55-.66.5-1.09"/>
  <path id="Fill-364" class="cls-9" d="M87.33,194.93c-.08-.64-.21-1.23-.39-1.84-.09-.3-.39-.23-.42.07-.06.61-.09,1.18-.06,1.8.02.49,0,1.02.32,1.34.12.12.32.17.42,0,.27-.43.19-.85.13-1.37"/>
  <path id="Fill-366" class="cls-9" d="M91.36,195.42c-.25-1.13-.39-2.28-.53-3.44-.05-.4-.6-.4-.65,0-.15,1.29-.07,2.51.15,3.79.04.21.2.42.37.46.23.06.34.02.52-.17.14-.15.18-.43.14-.65"/>
  <path id="Fill-368" class="cls-9" d="M93.22,193.68c-.05-.74-.08-1.48-.12-2.22-.03-.49-.64-.67-.73-.12-.13.79-.19,1.54-.15,2.34.03.65-.01,1.48.42,1.92.17.17.41.17.54-.09.28-.56.09-1.21.04-1.83"/>
  <path id="Fill-370" class="cls-9" d="M94.77,192.53c-.1-.76-.24-1.49-.38-2.24-.08-.44-.64-.35-.64.11.01.77.02,1.52.08,2.29.05.64.07,1.17.44,1.66.11.15.33.11.41-.07.26-.59.17-1.11.09-1.75"/>
  <path id="Fill-372" class="cls-7" d="M76.07,195.03c-.03-.64,0-1.56-.41-2-.12-.12-.28-.14-.4,0-.43.5-.33,1.46-.33,2.14,0,.72-.05,1.49.45,1.97.12.11.29.04.39-.06.46-.49.33-1.37.3-2.04"/>
  <path id="Fill-374" class="cls-7" d="M72.66,195.63c0-.82.02-1.7-.2-2.48-.13-.44-.57-.42-.7,0-.26.8-.29,1.73-.28,2.56,0,.34-.22.54.05.83.77.83,1.14-.37,1.14-.91"/>
  <path id="Fill-376" class="cls-7" d="M69.15,195.02c.04-.92-.15-2.15-.25-2.42-.37-1.06-.87,1.11-.87,1.33-.02.44-.1,1.68.3,1.99.58.46.78-.11.82-.91"/>
  <path id="Fill-378" class="cls-7" d="M66.07,193.54c0-.64-.06-1.25-.14-1.88-.06-.44-.65-.44-.71,0-.08.63-.14,1.24-.14,1.88,0,.62-.1,1.32.08,1.9.16.5.67.5.83,0,.18-.58.09-1.28.08-1.9"/>
  <path id="Fill-380" class="cls-7" d="M64.38,194.07c-.13-.79-.17-1.59-.33-2.37-.06-.27-.38-.33-.48-.08-.36.84-.42,1.7-.35,2.65.03.43.06.96.57,1.09.99.26.68-.79.6-1.29"/>
  <path id="Fill-382" class="cls-9" d="M89.35,185.25c1.47.24,5.63.8,6.33,2.76.98,2.72-6.44,4.08-7.62,4.31-2.49.48-5,.77-7.51.88-5.08.23-10.2-.24-15.18-1.55-1.28-.34-2.64-.8-3.14-1.67-.97-1.68,1.88-3.19,4.37-3.82,7.23-1.83,15.26-2.15,22.76-.92"/>
  <path id="Fill-384" class="cls-14" d="M95.68,188.01c-.71-1.97-4.86-2.52-6.33-2.76-3.26-.54-6.62-.76-9.97-.71,2.68.05,5.35.28,7.96.71,1.47.24,5.63.8,6.33,2.76.98,2.72-6.44,4.08-7.62,4.31-2.49.48-5,.77-7.51.88-.49.02-.98.03-1.47.04,1.16.02,2.32.01,3.48-.04,2.51-.11,5.02-.4,7.51-.88,1.19-.23,8.6-1.59,7.62-4.31"/>
  <path id="Fill-386" class="cls-10" d="M87.4,186.5c-5.84-.81-12.09-.6-17.72.6-1.93.41-4.16,1.4-3.4,2.51.39.57,1.45.88,2.45,1.1,3.86.86,7.79,1.16,11.71,1.02,1.93-.07,3.86-.25,5.78-.56.96-.15,6.8-.48,6.21-2.66-.42-1.56-3.94-1.86-5.02-2.01"/>
  <path id="Fill-388" class="cls-8" d="M69.68,187.78c5.63-1.2,11.88-1.41,17.72-.6,1.06.15,4.5.45,5,1.95.06-.19.09-.39.02-.62-.42-1.56-3.94-1.86-5.02-2.01-5.84-.81-12.09-.6-17.72.6-1.85.39-3.94,1.32-3.45,2.37.41-.76,2.01-1.39,3.45-1.7"/>
  <path id="Fill-390" class="cls-8" d="M83.11,266.15c.25,1.92.49,3.84.74,5.77,5.12,1.27,10.33,1.77,15.54,1.88,5.03.11,9.85-1.08,14.81-2.06,1.53-.3,1.75-1.17,2.03-2.87.1-.6.5-4.59-.6-4.53l-32.53,1.81Z"/>
  <path id="Fill-392" class="cls-13" d="M115.63,264.34s-.63.03-1.68.09c.76.58.42,3.89.33,4.43-.28,1.7-.5,2.57-2.03,2.87-4.43.88-8.74,1.91-13.2,2.05.11,0,.23.01.34.01,5.03.11,9.85-1.08,14.81-2.06,1.53-.3,1.74-1.17,2.03-2.87.1-.6.5-4.59-.6-4.53"/>
  <path id="Fill-394" class="cls-7" d="M102.01,272.56c-5.21-.11-10.43-.62-15.54-1.88-.2-1.56-.4-3.12-.6-4.67-1.71.09-2.76.15-2.76.15.25,1.92.49,3.84.74,5.77,5.12,1.27,10.33,1.77,15.54,1.88,5.03.11,9.85-1.08,14.81-2.06.82-.16,1.26-.5,1.54-1.03-4.58.94-9.06,1.95-13.73,1.84"/>
  <path id="Fill-396" class="cls-7" d="M101.05,271.57c-.12-.82-.18-1.7-.52-2.43-.12-.25-.48-.23-.53.09-.12.78.01,1.56.11,2.33.09.73.06,1.66.52,2.18.14.15.36.14.45-.07.29-.64.07-1.41-.03-2.1"/>
  <path id="Fill-398" class="cls-9" d="M105.03,272.53c-.13-1.2-.11-2.67-.54-3.77-.13-.34-.58-.33-.72,0-.5,1.22-.28,2.95-.11,4.24.05.35.4.69.69.65.06,0,.13-.02.19-.03.41-.09.55-.66.5-1.09"/>
  <path id="Fill-400" class="cls-9" d="M108,271c-.08-.64-.21-1.23-.39-1.84-.09-.3-.39-.23-.42.07-.06.61-.09,1.18-.06,1.8.02.49,0,1.02.32,1.34.12.12.32.17.42,0,.27-.43.19-.85.13-1.37"/>
  <path id="Fill-402" class="cls-9" d="M112.03,271.49c-.25-1.13-.39-2.28-.53-3.44-.05-.4-.6-.4-.65,0-.15,1.29-.07,2.51.15,3.79.04.21.2.42.37.46.23.06.34.02.52-.17.14-.15.18-.43.14-.65"/>
  <path id="Fill-404" class="cls-9" d="M113.89,269.74c-.05-.74-.08-1.48-.12-2.22-.03-.49-.64-.67-.73-.12-.13.79-.19,1.54-.15,2.34.03.65-.01,1.48.42,1.92.17.17.41.17.54-.09.28-.56.09-1.21.04-1.83"/>
  <path id="Fill-406" class="cls-9" d="M115.45,268.59c-.1-.76-.24-1.49-.38-2.24-.08-.44-.64-.35-.64.11.01.77.02,1.52.08,2.29.05.64.07,1.17.44,1.66.11.15.33.11.41-.07.26-.59.17-1.11.09-1.75"/>
  <path id="Fill-408" class="cls-7" d="M96.75,271.09c-.03-.64,0-1.56-.41-2-.12-.12-.28-.14-.4,0-.43.5-.33,1.46-.33,2.14,0,.72-.05,1.49.45,1.97.12.11.29.04.39-.06.46-.49.33-1.37.3-2.04"/>
  <path id="Fill-410" class="cls-7" d="M93.33,271.69c0-.82.02-1.7-.2-2.48-.13-.44-.57-.42-.7,0-.26.8-.29,1.73-.28,2.56,0,.34-.22.54.05.83.77.83,1.14-.37,1.14-.91"/>
  <path id="Fill-412" class="cls-7" d="M89.82,271.08c.04-.92-.15-2.15-.25-2.42-.37-1.06-.87,1.11-.88,1.33-.02.44-.1,1.68.3,1.99.58.46.78-.11.82-.91"/>
  <path id="Fill-414" class="cls-7" d="M86.74,269.6c0-.64-.06-1.25-.14-1.88-.06-.44-.65-.44-.71,0-.08.63-.14,1.24-.14,1.88,0,.62-.1,1.32.08,1.9.16.5.67.5.83,0,.18-.58.09-1.28.08-1.9"/>
  <path id="Fill-416" class="cls-7" d="M85.06,270.13c-.12-.8-.17-1.59-.33-2.37-.05-.27-.38-.33-.48-.08-.36.84-.42,1.7-.35,2.65.03.43.06.96.57,1.09.99.26.68-.79.6-1.29"/>
  <path id="Fill-418" class="cls-9" d="M110.03,261.32c1.47.24,5.63.8,6.33,2.76.98,2.72-6.44,4.08-7.62,4.31-2.49.48-5,.77-7.51.88-5.08.23-10.2-.24-15.18-1.55-1.28-.34-2.64-.8-3.14-1.67-.97-1.68,1.88-3.19,4.37-3.82,7.23-1.83,15.26-2.15,22.76-.92"/>
  <path id="Fill-420" class="cls-14" d="M116.36,264.08c-.71-1.97-4.86-2.52-6.33-2.76-3.26-.54-6.62-.76-9.97-.71,2.68.05,5.35.28,7.96.71,1.47.24,5.63.8,6.33,2.76.98,2.72-6.44,4.08-7.62,4.31-2.49.48-5,.77-7.51.88-.49.02-.98.03-1.47.04,1.16.02,2.32.01,3.48-.04,2.51-.11,5.02-.4,7.51-.88,1.19-.23,8.6-1.59,7.62-4.31"/>
  <path id="Fill-422" class="cls-10" d="M108.07,262.56c-5.84-.81-12.09-.6-17.72.6-1.93.41-4.16,1.4-3.4,2.51.39.57,1.45.88,2.45,1.1,3.86.86,7.79,1.16,11.71,1.02,1.93-.07,3.86-.25,5.78-.56.96-.15,6.8-.48,6.21-2.66-.42-1.56-3.94-1.86-5.02-2.01"/>
  <path id="Fill-424" class="cls-8" d="M90.35,263.84c5.63-1.2,11.88-1.41,17.72-.6,1.06.15,4.5.45,5,1.95.06-.19.09-.39.02-.62-.42-1.56-3.94-1.86-5.02-2.01-5.84-.81-12.09-.6-17.72.6-1.85.39-3.94,1.32-3.45,2.37.41-.76,2.01-1.39,3.45-1.7"/>
  <path id="Fill-426" class="cls-8" d="M83.11,259.54c.25,1.92.49,3.84.74,5.77,5.12,1.27,10.33,1.77,15.54,1.88,5.03.11,9.85-1.08,14.81-2.06,1.53-.3,1.75-1.17,2.03-2.87.1-.6.5-4.59-.6-4.53l-32.53,1.81Z"/>
  <path id="Fill-428" class="cls-13" d="M115.63,257.72s-.63.03-1.68.09c.76.58.42,3.89.33,4.43-.28,1.7-.5,2.57-2.03,2.87-4.43.88-8.74,1.91-13.2,2.05.11,0,.23.01.34.01,5.03.11,9.85-1.08,14.81-2.06,1.53-.3,1.74-1.17,2.03-2.87.1-.6.5-4.59-.6-4.53"/>
  <path id="Fill-430" class="cls-7" d="M102.01,265.94c-5.21-.11-10.43-.62-15.54-1.88-.2-1.56-.4-3.12-.6-4.67-1.71.09-2.76.15-2.76.15.25,1.92.49,3.84.74,5.77,5.12,1.27,10.33,1.77,15.54,1.88,5.03.11,9.85-1.08,14.81-2.06.82-.16,1.26-.5,1.54-1.03-4.58.94-9.06,1.95-13.73,1.84"/>
  <path id="Fill-432" class="cls-7" d="M101.05,264.96c-.12-.82-.18-1.7-.52-2.43-.12-.25-.48-.23-.53.09-.12.78.01,1.56.11,2.33.09.73.06,1.66.52,2.18.14.15.36.14.45-.07.29-.64.07-1.41-.03-2.1"/>
  <path id="Fill-434" class="cls-9" d="M105.03,265.91c-.13-1.2-.11-2.67-.54-3.77-.13-.34-.58-.33-.72,0-.5,1.22-.28,2.95-.11,4.24.05.35.4.69.69.65.06,0,.13-.02.19-.03.41-.09.55-.66.5-1.09"/>
  <path id="Fill-436" class="cls-9" d="M108,264.38c-.08-.64-.21-1.23-.39-1.84-.09-.3-.39-.23-.42.07-.06.61-.09,1.18-.06,1.8.02.49,0,1.02.32,1.34.12.12.32.17.42,0,.27-.43.19-.85.13-1.37"/>
  <path id="Fill-438" class="cls-9" d="M112.03,264.87c-.25-1.13-.39-2.28-.53-3.44-.05-.4-.6-.4-.65,0-.15,1.29-.07,2.51.15,3.79.04.21.2.42.37.46.23.06.34.02.52-.17.14-.15.18-.43.14-.65"/>
  <path id="Fill-440" class="cls-9" d="M113.89,263.13c-.05-.74-.08-1.48-.12-2.22-.03-.49-.64-.67-.73-.12-.13.79-.19,1.54-.15,2.34.03.65-.01,1.48.42,1.92.17.17.41.17.54-.09.28-.56.09-1.21.04-1.83"/>
  <path id="Fill-442" class="cls-9" d="M115.45,261.98c-.1-.76-.24-1.49-.38-2.24-.08-.44-.64-.35-.64.11.01.77.02,1.52.08,2.29.05.64.07,1.17.44,1.66.11.15.33.11.41-.07.26-.59.17-1.11.09-1.75"/>
  <path id="Fill-444" class="cls-7" d="M96.75,264.48c-.03-.64,0-1.56-.41-2-.12-.12-.28-.14-.4,0-.43.5-.33,1.46-.33,2.14,0,.72-.05,1.49.45,1.97.12.11.29.04.39-.06.46-.49.33-1.37.3-2.04"/>
  <path id="Fill-446" class="cls-7" d="M93.33,265.08c0-.82.02-1.7-.2-2.48-.13-.44-.57-.42-.7,0-.26.8-.29,1.73-.28,2.56,0,.34-.22.54.05.83.77.83,1.14-.37,1.14-.91"/>
  <path id="Fill-448" class="cls-7" d="M89.82,264.47c.04-.92-.15-2.15-.25-2.42-.37-1.06-.87,1.11-.88,1.33-.02.44-.1,1.68.3,1.99.58.46.78-.11.82-.91"/>
  <path id="Fill-450" class="cls-7" d="M86.74,262.99c0-.64-.06-1.25-.14-1.88-.06-.44-.65-.44-.71,0-.08.63-.14,1.24-.14,1.88,0,.62-.1,1.32.08,1.9.16.5.67.5.83,0,.18-.58.09-1.28.08-1.9"/>
  <path id="Fill-452" class="cls-7" d="M85.06,263.52c-.12-.79-.17-1.59-.33-2.37-.05-.27-.38-.33-.48-.08-.36.84-.42,1.7-.35,2.65.03.43.06.96.57,1.09.99.26.68-.79.6-1.29"/>
  <path id="Fill-454" class="cls-9" d="M110.03,254.7c1.47.24,5.63.8,6.33,2.76.98,2.72-6.44,4.08-7.62,4.31-2.49.48-5,.77-7.51.88-5.08.23-10.2-.24-15.18-1.55-1.28-.34-2.64-.8-3.14-1.67-.97-1.68,1.88-3.19,4.37-3.82,7.23-1.83,15.26-2.15,22.76-.92"/>
  <path id="Fill-456" class="cls-14" d="M116.36,257.46c-.71-1.97-4.86-2.52-6.33-2.76-3.26-.54-6.62-.76-9.97-.71,2.68.05,5.35.28,7.96.71,1.47.24,5.63.8,6.33,2.76.98,2.72-6.44,4.08-7.62,4.31-2.49.48-5,.77-7.51.88-.49.02-.98.03-1.47.04,1.16.02,2.32.01,3.48-.04,2.51-.11,5.02-.4,7.51-.88,1.19-.23,8.6-1.59,7.62-4.31"/>
  <path id="Fill-458" class="cls-10" d="M108.07,255.95c-5.84-.81-12.09-.6-17.72.6-1.93.41-4.16,1.4-3.4,2.51.39.57,1.45.88,2.45,1.1,3.86.86,7.79,1.16,11.71,1.02,1.93-.07,3.86-.25,5.78-.56.96-.15,6.8-.48,6.21-2.66-.42-1.56-3.94-1.86-5.02-2.01"/>
  <path id="Fill-460" class="cls-8" d="M90.35,257.23c5.63-1.2,11.88-1.41,17.72-.6,1.06.15,4.5.45,5,1.95.06-.19.09-.39.02-.62-.42-1.56-3.94-1.86-5.02-2.01-5.84-.81-12.09-.6-17.72.6-1.85.39-3.94,1.32-3.45,2.37.41-.76,2.01-1.39,3.45-1.7"/>
  <path id="Fill-462" class="cls-8" d="M80.55,252.92c.25,1.92.5,3.84.74,5.77,5.12,1.27,10.33,1.77,15.54,1.88,5.03.11,9.85-1.08,14.81-2.06,1.53-.3,1.74-1.17,2.03-2.87.1-.6.5-4.59-.6-4.53l-32.53,1.81Z"/>
  <path id="Fill-464" class="cls-13" d="M113.08,251.11s-.63.03-1.68.09c.76.58.42,3.89.33,4.43-.28,1.7-.5,2.57-2.03,2.87-4.43.88-8.74,1.91-13.2,2.05.11,0,.23.01.34.01,5.03.11,9.85-1.08,14.81-2.06,1.53-.3,1.74-1.17,2.03-2.87.1-.6.5-4.59-.6-4.53"/>
  <path id="Fill-466" class="cls-7" d="M99.45,259.33c-5.21-.11-10.43-.62-15.54-1.88-.2-1.56-.4-3.12-.6-4.67-1.71.09-2.76.15-2.76.15.25,1.92.49,3.84.74,5.77,5.12,1.27,10.33,1.77,15.54,1.88,5.03.11,9.85-1.08,14.81-2.06.82-.16,1.26-.5,1.54-1.03-4.58.94-9.06,1.95-13.73,1.84"/>
  <path id="Fill-468" class="cls-7" d="M98.49,258.34c-.12-.82-.18-1.7-.52-2.43-.12-.25-.48-.23-.53.09-.12.78.01,1.56.11,2.33.09.73.06,1.66.52,2.18.14.15.36.14.45-.07.29-.64.07-1.41-.03-2.1"/>
  <path id="Fill-470" class="cls-9" d="M102.47,259.3c-.13-1.2-.11-2.67-.54-3.77-.13-.34-.58-.33-.72,0-.5,1.22-.28,2.95-.11,4.24.05.35.4.69.69.65.06,0,.13-.02.19-.03.41-.09.55-.66.5-1.09"/>
  <path id="Fill-472" class="cls-9" d="M105.45,257.77c-.08-.64-.21-1.23-.39-1.84-.09-.3-.39-.23-.42.07-.06.61-.09,1.18-.06,1.8.02.49,0,1.02.32,1.34.12.12.32.17.42,0,.27-.43.19-.85.13-1.37"/>
  <path id="Fill-474" class="cls-9" d="M109.48,258.26c-.25-1.13-.39-2.28-.53-3.44-.05-.4-.6-.4-.65,0-.15,1.29-.07,2.51.15,3.79.04.21.2.42.37.46.23.06.34.02.52-.17.14-.15.18-.43.14-.65"/>
  <path id="Fill-476" class="cls-9" d="M111.34,256.52c-.05-.74-.08-1.48-.12-2.22-.03-.49-.64-.67-.73-.12-.13.79-.19,1.54-.15,2.34.03.65-.01,1.48.42,1.92.17.17.41.17.54-.09.28-.56.09-1.21.04-1.83"/>
  <path id="Fill-478" class="cls-9" d="M112.89,255.36c-.1-.76-.24-1.49-.38-2.24-.08-.44-.64-.35-.64.11.01.77.02,1.52.08,2.29.05.64.07,1.17.44,1.66.11.15.33.11.41-.07.26-.59.17-1.11.09-1.75"/>
  <path id="Fill-480" class="cls-7" d="M94.19,257.86c-.03-.64,0-1.56-.41-2-.12-.12-.28-.14-.4,0-.43.5-.33,1.46-.33,2.14,0,.72-.05,1.49.45,1.97.12.11.29.04.39-.06.46-.49.33-1.37.3-2.04"/>
  <path id="Fill-482" class="cls-7" d="M90.77,258.46c0-.82.02-1.7-.2-2.48-.13-.44-.57-.42-.7,0-.26.8-.29,1.73-.28,2.56,0,.34-.22.54.05.83.77.83,1.14-.37,1.14-.91"/>
  <path id="Fill-484" class="cls-7" d="M87.27,257.86c.04-.92-.15-2.15-.25-2.42-.37-1.06-.87,1.11-.87,1.33-.02.44-.1,1.68.3,1.99.58.46.78-.11.82-.91"/>
  <path id="Fill-486" class="cls-7" d="M84.19,256.37c0-.64-.06-1.25-.14-1.88-.06-.44-.65-.44-.71,0-.08.63-.14,1.24-.14,1.88,0,.62-.1,1.32.08,1.9.16.5.67.51.83,0,.18-.58.09-1.28.08-1.9"/>
  <path id="Fill-488" class="cls-7" d="M82.5,256.9c-.13-.79-.17-1.59-.33-2.37-.06-.27-.38-.33-.48-.08-.36.84-.42,1.7-.35,2.65.03.43.06.96.57,1.09.99.26.68-.79.6-1.29"/>
  <path id="Fill-490" class="cls-9" d="M107.47,248.09c1.47.24,5.63.8,6.33,2.76.98,2.72-6.44,4.08-7.62,4.31-2.49.48-5,.77-7.51.88-5.08.23-10.2-.24-15.18-1.55-1.28-.34-2.64-.8-3.14-1.67-.97-1.68,1.88-3.19,4.37-3.82,7.23-1.83,15.26-2.15,22.76-.92"/>
  <path id="Fill-492" class="cls-14" d="M113.8,250.85c-.71-1.97-4.86-2.52-6.33-2.76-3.26-.54-6.62-.76-9.97-.71,2.68.05,5.35.28,7.96.71,1.47.24,5.63.8,6.33,2.76.98,2.72-6.44,4.08-7.62,4.31-2.49.48-5,.77-7.51.88-.49.02-.98.03-1.47.04,1.16.02,2.32.01,3.48-.04,2.51-.11,5.02-.4,7.51-.88,1.19-.23,8.6-1.59,7.62-4.31"/>
  <path id="Fill-494" class="cls-10" d="M105.51,249.34c-5.84-.81-12.09-.6-17.72.6-1.93.41-4.16,1.4-3.4,2.51.39.57,1.45.88,2.45,1.1,3.86.86,7.79,1.16,11.71,1.02,1.93-.07,3.86-.25,5.78-.56.96-.15,6.8-.48,6.21-2.66-.42-1.56-3.94-1.86-5.02-2.01"/>
  <path id="Fill-496" class="cls-8" d="M87.79,250.61c5.63-1.2,11.88-1.41,17.72-.6,1.06.15,4.5.45,5,1.95.06-.19.09-.39.02-.62-.42-1.56-3.94-1.86-5.02-2.01-5.84-.81-12.09-.6-17.72.6-1.85.39-3.94,1.32-3.45,2.37.41-.76,2.01-1.39,3.45-1.7"/>
  <path id="Fill-498" class="cls-8" d="M83.11,246.31c.25,1.92.49,3.84.74,5.77,5.12,1.27,10.33,1.77,15.54,1.88,5.03.11,9.85-1.08,14.81-2.06,1.53-.3,1.75-1.17,2.03-2.87.1-.6.5-4.59-.6-4.53l-32.53,1.81Z"/>
  <path id="Fill-500" class="cls-13" d="M115.63,244.5s-.63.03-1.68.09c.76.58.42,3.89.33,4.43-.28,1.7-.5,2.57-2.03,2.87-4.43.88-8.74,1.91-13.2,2.05.11,0,.23.01.34.01,5.03.11,9.85-1.08,14.81-2.06,1.53-.3,1.74-1.17,2.03-2.87.1-.6.5-4.59-.6-4.53"/>
  <path id="Fill-502" class="cls-7" d="M102.01,252.71c-5.21-.11-10.43-.62-15.54-1.88-.2-1.56-.4-3.12-.6-4.67-1.71.09-2.76.15-2.76.15.25,1.92.49,3.84.74,5.77,5.12,1.27,10.33,1.77,15.54,1.88,5.03.11,9.85-1.08,14.81-2.06.82-.16,1.26-.5,1.54-1.03-4.58.94-9.06,1.95-13.73,1.84"/>
  <path id="Fill-504" class="cls-7" d="M101.05,251.73c-.12-.82-.18-1.7-.52-2.43-.12-.25-.48-.23-.53.09-.12.78.01,1.56.11,2.33.09.73.06,1.66.52,2.18.14.15.36.14.45-.07.29-.64.07-1.41-.03-2.1"/>
  <path id="Fill-506" class="cls-9" d="M105.03,252.68c-.13-1.2-.11-2.67-.54-3.77-.13-.34-.58-.33-.72,0-.5,1.22-.28,2.95-.11,4.24.05.35.4.69.69.65.06,0,.13-.02.19-.03.41-.09.55-.66.5-1.09"/>
  <path id="Fill-508" class="cls-9" d="M108,251.16c-.08-.64-.21-1.23-.39-1.84-.09-.3-.39-.23-.42.07-.06.61-.09,1.18-.06,1.8.02.49,0,1.02.32,1.34.12.12.32.17.42,0,.27-.43.19-.85.13-1.37"/>
  <path id="Fill-510" class="cls-9" d="M112.03,251.64c-.25-1.13-.39-2.28-.53-3.44-.05-.4-.6-.4-.65,0-.15,1.29-.07,2.51.15,3.79.04.21.2.42.37.46.23.06.34.02.52-.17.14-.15.18-.43.14-.65"/>
  <path id="Fill-512" class="cls-9" d="M113.89,249.9c-.05-.74-.08-1.48-.12-2.22-.03-.49-.64-.67-.73-.12-.13.79-.19,1.54-.15,2.34.03.65-.01,1.48.42,1.92.17.17.41.17.54-.09.28-.56.09-1.21.04-1.83"/>
  <path id="Fill-514" class="cls-9" d="M115.45,248.75c-.1-.76-.24-1.49-.38-2.24-.08-.44-.64-.35-.64.11.01.77.02,1.52.08,2.29.05.64.07,1.17.44,1.66.11.15.33.11.41-.07.26-.59.17-1.11.09-1.75"/>
  <path id="Fill-516" class="cls-7" d="M96.75,251.25c-.03-.64,0-1.56-.41-2-.12-.12-.28-.14-.4,0-.43.5-.33,1.46-.33,2.14,0,.72-.05,1.49.45,1.97.12.11.29.04.39-.06.46-.49.33-1.37.3-2.04"/>
  <path id="Fill-518" class="cls-7" d="M93.33,251.85c0-.82.02-1.7-.2-2.48-.13-.44-.57-.42-.7,0-.26.8-.29,1.73-.28,2.56,0,.34-.22.54.05.83.77.83,1.14-.37,1.14-.91"/>
  <path id="Fill-520" class="cls-7" d="M89.82,251.24c.04-.92-.15-2.15-.25-2.42-.37-1.06-.87,1.11-.88,1.33-.02.44-.1,1.68.3,1.99.58.46.78-.11.82-.91"/>
  <path id="Fill-522" class="cls-7" d="M86.74,249.76c0-.64-.06-1.25-.14-1.88-.06-.44-.65-.44-.71,0-.08.63-.14,1.24-.14,1.88,0,.62-.1,1.32.08,1.9.16.5.67.5.83,0,.18-.58.09-1.28.08-1.9"/>
  <path id="Fill-524" class="cls-7" d="M85.06,250.29c-.12-.79-.17-1.59-.33-2.37-.05-.27-.38-.33-.48-.08-.36.84-.42,1.7-.35,2.65.03.43.06.96.57,1.09.99.26.68-.79.6-1.29"/>
  <path id="Fill-526" class="cls-9" d="M110.03,241.47c1.47.24,5.63.8,6.33,2.76.98,2.72-6.44,4.08-7.62,4.31-2.49.48-5,.77-7.51.88-5.08.23-10.2-.24-15.18-1.55-1.28-.34-2.64-.8-3.14-1.67-.97-1.68,1.88-3.19,4.37-3.82,7.23-1.83,15.26-2.15,22.76-.92"/>
  <path id="Fill-528" class="cls-14" d="M116.36,244.23c-.71-1.97-4.86-2.52-6.33-2.76-3.26-.54-6.62-.76-9.97-.71,2.68.05,5.35.28,7.96.71,1.47.24,5.63.8,6.33,2.76.98,2.72-6.44,4.08-7.62,4.31-2.49.48-5,.77-7.51.88-.49.02-.98.03-1.47.04,1.16.02,2.32.01,3.48-.04,2.51-.11,5.02-.4,7.51-.88,1.19-.23,8.6-1.59,7.62-4.31"/>
  <path id="Fill-530" class="cls-10" d="M108.07,242.72c-5.84-.81-12.09-.6-17.72.6-1.93.41-4.16,1.4-3.4,2.51.39.57,1.45.88,2.45,1.1,3.86.86,7.79,1.16,11.71,1.02,1.93-.07,3.86-.25,5.78-.56.96-.15,6.8-.48,6.21-2.66-.42-1.56-3.94-1.86-5.02-2.01"/>
  <path id="Fill-532" class="cls-8" d="M90.35,244c5.63-1.2,11.88-1.41,17.72-.6,1.06.15,4.5.45,5,1.95.06-.19.09-.39.02-.61-.42-1.56-3.94-1.86-5.02-2.01-5.84-.81-12.09-.6-17.72.6-1.85.39-3.94,1.32-3.45,2.37.41-.76,2.01-1.39,3.45-1.7"/>
  <path id="Fill-534" class="cls-8" d="M86.99,239.69c.25,1.92.49,3.84.74,5.77,5.12,1.27,10.33,1.77,15.54,1.88,5.03.11,9.85-1.08,14.81-2.06,1.53-.3,1.75-1.17,2.03-2.87.1-.6.5-4.59-.6-4.53l-32.53,1.81Z"/>
  <path id="Fill-536" class="cls-13" d="M119.51,237.88s-.63.03-1.68.09c.76.58.42,3.89.33,4.43-.28,1.7-.5,2.57-2.03,2.87-4.43.88-8.74,1.91-13.2,2.05.11,0,.23.01.34.01,5.03.11,9.85-1.08,14.81-2.06,1.53-.3,1.74-1.17,2.03-2.87.1-.6.5-4.59-.6-4.53"/>
  <path id="Fill-538" class="cls-7" d="M105.89,246.1c-5.21-.11-10.43-.62-15.54-1.88-.2-1.56-.4-3.12-.6-4.67-1.71.09-2.76.15-2.76.15.25,1.92.49,3.84.74,5.77,5.12,1.27,10.33,1.77,15.54,1.88,5.04.11,9.85-1.08,14.81-2.06.82-.16,1.26-.5,1.54-1.03-4.58.94-9.06,1.95-13.73,1.84"/>
  <path id="Fill-540" class="cls-7" d="M104.93,245.12c-.12-.82-.18-1.7-.52-2.43-.12-.25-.48-.23-.53.09-.12.78.01,1.56.11,2.33.09.73.06,1.66.52,2.18.13.15.36.14.45-.07.29-.64.07-1.41-.03-2.1"/>
  <path id="Fill-542" class="cls-9" d="M108.91,246.07c-.13-1.2-.11-2.67-.54-3.77-.13-.34-.58-.33-.72,0-.5,1.22-.28,2.95-.11,4.24.05.35.4.69.69.65.06,0,.13-.02.19-.03.41-.09.55-.66.5-1.09"/>
  <path id="Fill-544" class="cls-9" d="M111.89,244.54c-.08-.64-.21-1.23-.39-1.84-.09-.3-.4-.23-.42.07-.06.61-.09,1.18-.06,1.8.02.49,0,1.02.32,1.34.12.12.32.17.42,0,.28-.43.19-.85.13-1.37"/>
  <path id="Fill-546" class="cls-9" d="M115.91,245.03c-.25-1.13-.39-2.28-.53-3.44-.05-.4-.6-.4-.65,0-.15,1.29-.07,2.51.15,3.79.04.21.2.42.37.46.23.06.34.02.52-.17.14-.15.18-.43.14-.65"/>
  <path id="Fill-548" class="cls-9" d="M117.77,243.29c-.05-.74-.08-1.48-.12-2.22-.03-.49-.64-.67-.73-.12-.13.79-.19,1.54-.15,2.34.03.65-.01,1.48.42,1.92.17.17.41.17.54-.09.28-.56.09-1.21.04-1.83"/>
  <path id="Fill-550" class="cls-9" d="M119.33,242.13c-.1-.76-.24-1.49-.38-2.24-.08-.44-.64-.35-.64.11.01.77.02,1.52.08,2.29.05.64.07,1.17.44,1.66.11.15.33.11.41-.07.26-.59.17-1.11.09-1.75"/>
  <path id="Fill-552" class="cls-7" d="M100.63,244.63c-.03-.64,0-1.56-.41-2-.12-.12-.28-.14-.4,0-.43.5-.33,1.46-.33,2.14,0,.72-.05,1.49.45,1.97.12.11.29.04.39-.06.46-.49.33-1.37.3-2.04"/>
  <path id="Fill-554" class="cls-7" d="M97.21,245.24c0-.82.02-1.7-.2-2.48-.13-.44-.57-.42-.7,0-.26.8-.29,1.73-.28,2.56,0,.34-.22.54.05.83.77.83,1.14-.37,1.14-.91"/>
  <path id="Fill-556" class="cls-7" d="M93.7,244.63c.04-.92-.15-2.15-.25-2.42-.37-1.06-.87,1.11-.87,1.33-.02.44-.1,1.68.3,1.99.58.46.78-.11.82-.91"/>
  <path id="Fill-558" class="cls-7" d="M90.62,243.14c0-.64-.06-1.25-.14-1.88-.06-.44-.65-.44-.71,0-.08.63-.14,1.24-.14,1.88,0,.62-.1,1.32.08,1.9.16.5.67.5.83,0,.18-.58.09-1.28.08-1.9"/>
  <path id="Fill-560" class="cls-7" d="M88.94,243.67c-.13-.79-.17-1.59-.33-2.37-.06-.27-.38-.33-.48-.08-.36.84-.42,1.7-.35,2.65.03.43.06.96.57,1.09.99.26.68-.79.6-1.29"/>
  <path id="Fill-562" class="cls-9" d="M113.91,234.86c1.47.24,5.63.8,6.33,2.76.98,2.72-6.44,4.08-7.62,4.31-2.49.48-5,.77-7.51.88-5.08.23-10.2-.24-15.18-1.55-1.28-.34-2.64-.8-3.14-1.67-.97-1.68,1.88-3.19,4.37-3.82,7.23-1.83,15.26-2.15,22.76-.92"/>
  <path id="Fill-564" class="cls-14" d="M120.24,237.62c-.71-1.97-4.86-2.52-6.33-2.76-3.26-.54-6.62-.76-9.97-.71,2.68.05,5.35.28,7.96.71,1.47.24,5.63.8,6.33,2.76.98,2.72-6.44,4.08-7.62,4.31-2.49.48-5,.77-7.51.88-.49.02-.98.03-1.47.04,1.16.02,2.32.01,3.48-.04,2.51-.11,5.02-.4,7.51-.88,1.19-.23,8.6-1.59,7.62-4.31"/>
  <path id="Fill-566" class="cls-10" d="M111.95,236.11c-5.84-.81-12.09-.6-17.72.6-1.93.41-4.16,1.4-3.4,2.51.39.57,1.45.88,2.45,1.1,3.86.86,7.79,1.16,11.71,1.02,1.93-.07,3.86-.25,5.78-.56.96-.15,6.8-.48,6.21-2.66-.42-1.56-3.94-1.86-5.02-2.01"/>
  <path id="Fill-568" class="cls-8" d="M94.23,237.38c5.63-1.2,11.88-1.41,17.72-.6,1.06.15,4.5.45,5,1.95.06-.19.09-.39.02-.62-.42-1.56-3.94-1.86-5.02-2.01-5.84-.81-12.09-.6-17.72.6-1.85.39-3.94,1.32-3.45,2.37.41-.76,2.01-1.39,3.45-1.7"/>
  <path id="Fill-570" class="cls-8" d="M83.11,233.08c.25,1.92.49,3.84.74,5.77,5.12,1.27,10.33,1.77,15.54,1.88,5.03.11,9.85-1.08,14.81-2.06,1.53-.3,1.75-1.17,2.03-2.87.1-.6.5-4.59-.6-4.53l-32.53,1.81Z"/>
  <path id="Fill-572" class="cls-13" d="M115.63,231.27s-.63.03-1.68.09c.76.58.42,3.89.33,4.43-.28,1.7-.5,2.57-2.03,2.87-4.43.88-8.74,1.91-13.2,2.05.11,0,.23.01.34.01,5.03.11,9.85-1.08,14.81-2.06,1.53-.3,1.74-1.17,2.03-2.87.1-.6.5-4.59-.6-4.53"/>
  <path id="Fill-574" class="cls-7" d="M102.01,239.48c-5.21-.11-10.43-.62-15.54-1.88-.2-1.56-.4-3.12-.6-4.67-1.71.09-2.76.15-2.76.15.25,1.92.49,3.84.74,5.77,5.12,1.27,10.33,1.77,15.54,1.88,5.03.11,9.85-1.08,14.81-2.06.82-.16,1.26-.5,1.54-1.03-4.58.94-9.06,1.95-13.73,1.84"/>
  <path id="Fill-576" class="cls-7" d="M101.05,238.5c-.12-.82-.18-1.7-.52-2.43-.12-.25-.48-.23-.53.09-.12.78.01,1.56.11,2.33.09.73.06,1.66.52,2.18.14.15.36.14.45-.07.29-.64.07-1.41-.03-2.1"/>
  <path id="Fill-578" class="cls-9" d="M105.03,239.45c-.13-1.2-.11-2.67-.54-3.77-.13-.34-.58-.33-.72,0-.5,1.22-.28,2.95-.11,4.24.05.35.4.69.69.65.06,0,.13-.02.19-.03.41-.09.55-.66.5-1.09"/>
  <path id="Fill-580" class="cls-9" d="M108,237.93c-.08-.64-.21-1.23-.39-1.84-.09-.3-.39-.23-.42.07-.06.61-.09,1.18-.06,1.8.02.49,0,1.02.32,1.34.12.12.32.17.42,0,.27-.43.19-.85.13-1.37"/>
  <path id="Fill-582" class="cls-9" d="M112.03,238.42c-.25-1.13-.39-2.28-.53-3.44-.05-.4-.6-.4-.65,0-.15,1.29-.07,2.51.15,3.79.04.21.2.42.37.46.23.06.34.02.52-.17.14-.15.18-.43.14-.65"/>
  <path id="Fill-584" class="cls-9" d="M113.89,236.67c-.05-.74-.08-1.48-.12-2.22-.03-.49-.64-.67-.73-.12-.13.79-.19,1.54-.15,2.34.03.65-.01,1.48.42,1.92.17.17.41.17.54-.09.28-.56.09-1.21.04-1.83"/>
  <path id="Fill-586" class="cls-9" d="M115.45,235.52c-.1-.76-.24-1.49-.38-2.24-.08-.44-.64-.35-.64.11.01.77.02,1.52.08,2.29.05.64.07,1.17.44,1.66.11.15.33.11.41-.07.26-.59.17-1.11.09-1.75"/>
  <path id="Fill-588" class="cls-7" d="M96.75,238.02c-.03-.64,0-1.56-.41-2-.12-.12-.28-.14-.4,0-.43.5-.33,1.46-.33,2.14,0,.72-.05,1.49.45,1.97.12.11.29.04.39-.06.46-.49.33-1.37.3-2.04"/>
  <path id="Fill-590" class="cls-7" d="M93.33,238.62c0-.82.02-1.7-.2-2.48-.13-.44-.57-.42-.7,0-.26.8-.29,1.73-.28,2.56,0,.34-.22.54.05.83.77.83,1.14-.37,1.14-.91"/>
  <path id="Fill-592" class="cls-7" d="M89.82,238.01c.04-.92-.15-2.15-.25-2.42-.37-1.06-.87,1.11-.88,1.33-.02.44-.1,1.68.3,1.99.58.46.78-.11.82-.91"/>
  <path id="Fill-594" class="cls-7" d="M86.74,236.53c0-.64-.06-1.25-.14-1.88-.06-.44-.65-.44-.71,0-.08.63-.14,1.24-.14,1.88,0,.62-.1,1.32.08,1.9.16.5.67.51.83,0,.18-.58.09-1.28.08-1.9"/>
  <path id="Fill-596" class="cls-7" d="M85.06,237.06c-.12-.79-.17-1.59-.33-2.37-.05-.27-.38-.33-.48-.08-.36.84-.42,1.7-.35,2.65.03.43.06.96.57,1.09.99.26.68-.79.6-1.29"/>
  <path id="Fill-598" class="cls-9" d="M110.03,228.24c1.47.24,5.63.8,6.33,2.76.98,2.72-6.44,4.08-7.62,4.31-2.49.48-5,.77-7.51.88-5.08.23-10.2-.24-15.18-1.55-1.28-.34-2.64-.8-3.14-1.67-.97-1.68,1.88-3.19,4.37-3.82,7.23-1.83,15.26-2.15,22.76-.92"/>
  <path id="Fill-600" class="cls-14" d="M116.36,231.01c-.71-1.97-4.86-2.52-6.33-2.76-3.26-.54-6.62-.76-9.97-.71,2.68.05,5.35.28,7.96.71,1.47.24,5.63.8,6.33,2.76.98,2.72-6.44,4.08-7.62,4.31-2.49.48-5,.77-7.51.88-.49.02-.98.03-1.47.04,1.16.02,2.32.01,3.48-.04,2.51-.11,5.02-.4,7.51-.88,1.19-.23,8.6-1.59,7.62-4.31"/>
  <path id="Fill-602" class="cls-10" d="M108.07,229.49c-5.84-.81-12.09-.6-17.72.6-1.93.41-4.16,1.4-3.4,2.51.39.57,1.45.88,2.45,1.1,3.86.86,7.79,1.16,11.71,1.02,1.93-.07,3.86-.25,5.78-.56.96-.15,6.8-.48,6.21-2.66-.42-1.56-3.94-1.86-5.02-2.01"/>
  <path id="Fill-604" class="cls-8" d="M90.35,230.77c5.63-1.2,11.88-1.41,17.72-.6,1.06.15,4.5.45,5,1.95.06-.19.09-.39.02-.61-.42-1.56-3.94-1.86-5.02-2.01-5.84-.81-12.09-.6-17.72.6-1.85.39-3.94,1.32-3.45,2.37.41-.76,2.01-1.39,3.45-1.7"/>
  <path id="Fill-606" class="cls-8" d="M43.2,267.41c.25,1.92.49,3.84.74,5.77,5.12,1.27,10.33,1.77,15.54,1.88,5.03.11,9.85-1.08,14.81-2.06,1.53-.3,1.74-1.17,2.03-2.87.1-.6.5-4.59-.6-4.53l-32.52,1.81Z"/>
  <path id="Fill-608" class="cls-13" d="M75.73,265.6s-.63.03-1.68.09c.76.58.42,3.89.33,4.43-.28,1.7-.5,2.57-2.03,2.87-4.43.88-8.74,1.91-13.2,2.05.11,0,.23.01.34.01,5.03.11,9.85-1.08,14.81-2.06,1.53-.3,1.75-1.17,2.03-2.87.1-.6.5-4.59-.6-4.53"/>
  <path id="Fill-610" class="cls-7" d="M62.11,273.82c-5.21-.11-10.43-.62-15.54-1.88-.2-1.56-.4-3.12-.6-4.67-1.71.09-2.76.15-2.76.15.25,1.92.49,3.84.74,5.77,5.12,1.27,10.33,1.77,15.54,1.88,5.03.11,9.85-1.08,14.81-2.06.82-.16,1.26-.5,1.54-1.03-4.58.94-9.06,1.95-13.73,1.84"/>
  <path id="Fill-612" class="cls-7" d="M61.15,272.84c-.12-.82-.18-1.7-.52-2.43-.12-.25-.48-.23-.53.09-.12.78.01,1.56.11,2.33.09.73.06,1.66.52,2.18.13.15.36.14.45-.07.29-.64.07-1.41-.03-2.1"/>
  <path id="Fill-614" class="cls-9" d="M65.12,273.79c-.13-1.2-.11-2.67-.54-3.77-.13-.34-.58-.33-.72,0-.5,1.22-.28,2.95-.11,4.24.05.35.4.69.69.65.06,0,.13-.02.19-.03.41-.09.55-.66.5-1.09"/>
  <path id="Fill-616" class="cls-9" d="M68.1,272.26c-.08-.64-.21-1.23-.39-1.84-.08-.3-.39-.23-.42.07-.06.61-.09,1.18-.06,1.8.02.49,0,1.02.32,1.34.12.12.32.17.42,0,.28-.43.19-.85.13-1.37"/>
  <path id="Fill-618" class="cls-9" d="M72.13,272.75c-.25-1.13-.39-2.28-.53-3.44-.05-.4-.6-.4-.65,0-.15,1.29-.07,2.51.15,3.79.04.21.2.42.37.46.23.06.34.02.52-.17.14-.15.18-.43.14-.65"/>
  <path id="Fill-620" class="cls-9" d="M73.99,271.01c-.05-.74-.08-1.48-.12-2.22-.03-.49-.64-.67-.73-.12-.13.79-.19,1.54-.15,2.34.03.65-.01,1.48.42,1.92.17.17.41.17.54-.09.28-.56.09-1.21.04-1.83"/>
  <path id="Fill-622" class="cls-9" d="M75.54,269.85c-.1-.76-.24-1.49-.38-2.24-.08-.44-.64-.35-.64.11.01.77.02,1.52.08,2.29.05.64.07,1.17.44,1.66.11.15.33.11.41-.07.26-.59.17-1.11.09-1.75"/>
  <path id="Fill-624" class="cls-7" d="M56.84,272.35c-.03-.64,0-1.56-.41-2-.12-.12-.28-.14-.4,0-.43.5-.33,1.46-.33,2.14,0,.72-.05,1.49.45,1.97.12.11.29.04.39-.06.46-.49.33-1.37.3-2.04"/>
  <path id="Fill-626" class="cls-7" d="M53.43,272.96c0-.82.02-1.7-.2-2.48-.13-.44-.57-.42-.7,0-.26.8-.29,1.73-.28,2.56,0,.34-.22.54.05.83.77.83,1.14-.37,1.14-.91"/>
  <path id="Fill-628" class="cls-7" d="M49.92,272.35c.04-.92-.15-2.15-.25-2.42-.37-1.06-.87,1.11-.87,1.33-.02.44-.1,1.68.3,1.99.58.46.78-.11.82-.91"/>
  <path id="Fill-630" class="cls-7" d="M46.84,270.86c0-.64-.06-1.25-.14-1.88-.06-.44-.65-.44-.71,0-.08.63-.14,1.24-.14,1.88,0,.62-.1,1.32.08,1.9.16.5.67.5.83,0,.18-.58.09-1.28.08-1.9"/>
  <path id="Fill-632" class="cls-7" d="M45.15,271.39c-.13-.79-.17-1.59-.33-2.37-.06-.27-.38-.33-.48-.08-.36.84-.42,1.7-.35,2.65.03.43.06.96.57,1.09.99.26.68-.79.6-1.29"/>
  <path id="Fill-634" class="cls-9" d="M70.12,262.58c1.47.24,5.63.8,6.33,2.76.98,2.72-6.44,4.08-7.62,4.31-2.49.48-5,.77-7.51.88-5.08.23-10.2-.24-15.18-1.55-1.28-.34-2.64-.8-3.14-1.67-.97-1.68,1.88-3.19,4.37-3.82,7.23-1.83,15.26-2.15,22.76-.92"/>
  <path id="Fill-636" class="cls-14" d="M76.45,265.34c-.71-1.97-4.86-2.52-6.33-2.76-3.26-.54-6.62-.76-9.98-.71,2.68.05,5.35.28,7.96.71,1.47.24,5.63.8,6.33,2.76.98,2.72-6.44,4.08-7.62,4.31-2.49.48-5,.77-7.51.88-.49.02-.98.03-1.47.04,1.16.02,2.32.01,3.48-.04,2.51-.11,5.02-.4,7.51-.88,1.19-.23,8.6-1.59,7.62-4.31"/>
  <path id="Fill-638" class="cls-10" d="M68.17,263.83c-5.84-.81-12.09-.6-17.72.6-1.93.41-4.16,1.4-3.4,2.51.39.57,1.45.88,2.45,1.1,3.86.86,7.79,1.16,11.71,1.02,1.93-.07,3.86-.25,5.78-.56.96-.15,6.8-.48,6.21-2.66-.42-1.56-3.94-1.86-5.02-2.01"/>
  <path id="Fill-640" class="cls-8" d="M50.45,265.1c5.63-1.2,11.88-1.41,17.72-.6,1.06.15,4.5.45,5,1.95.06-.19.09-.39.02-.62-.42-1.56-3.94-1.86-5.02-2.01-5.84-.81-12.09-.6-17.72.6-1.85.39-3.94,1.32-3.45,2.37.41-.76,2.01-1.39,3.45-1.7"/>
  <path id="Fill-642" class="cls-8" d="M43.2,260.8c.25,1.92.49,3.84.74,5.77,5.12,1.27,10.33,1.77,15.54,1.88,5.03.11,9.85-1.08,14.81-2.06,1.53-.3,1.74-1.17,2.03-2.87.1-.6.5-4.59-.6-4.53l-32.52,1.81Z"/>
  <path id="Fill-644" class="cls-13" d="M75.73,258.99s-.63.03-1.68.09c.76.58.42,3.89.33,4.44-.28,1.7-.5,2.57-2.03,2.87-4.43.88-8.74,1.91-13.2,2.05.11,0,.23.01.34.01,5.03.11,9.85-1.08,14.81-2.06,1.53-.3,1.75-1.17,2.03-2.87.1-.6.5-4.59-.6-4.53"/>
  <path id="Fill-646" class="cls-7" d="M62.11,267.2c-5.21-.11-10.43-.62-15.54-1.88-.2-1.56-.4-3.12-.6-4.67-1.71.09-2.76.15-2.76.15.25,1.92.49,3.84.74,5.77,5.12,1.27,10.33,1.77,15.54,1.88,5.03.11,9.85-1.08,14.81-2.06.82-.16,1.26-.5,1.54-1.03-4.58.94-9.06,1.95-13.73,1.84"/>
  <path id="Fill-648" class="cls-7" d="M61.15,266.22c-.12-.82-.18-1.7-.52-2.43-.12-.25-.48-.22-.53.09-.12.78.01,1.56.11,2.33.09.73.06,1.66.52,2.18.13.15.36.14.45-.07.29-.64.07-1.41-.03-2.1"/>
  <path id="Fill-650" class="cls-9" d="M65.12,267.17c-.13-1.2-.11-2.67-.54-3.77-.13-.34-.58-.33-.72,0-.5,1.22-.28,2.95-.11,4.24.05.35.4.69.69.65.06,0,.13-.02.19-.03.41-.09.55-.66.5-1.09"/>
  <path id="Fill-652" class="cls-9" d="M68.1,265.65c-.08-.64-.21-1.23-.39-1.84-.08-.3-.39-.23-.42.07-.06.61-.09,1.18-.06,1.8.02.49,0,1.02.32,1.34.12.12.32.17.42,0,.28-.43.19-.85.13-1.37"/>
  <path id="Fill-654" class="cls-9" d="M72.13,266.14c-.25-1.13-.39-2.28-.53-3.44-.05-.4-.6-.4-.65,0-.15,1.29-.07,2.51.15,3.79.04.21.2.42.37.46.23.06.34.02.52-.17.14-.15.18-.43.14-.65"/>
  <path id="Fill-656" class="cls-9" d="M73.99,264.39c-.05-.74-.08-1.48-.12-2.22-.03-.49-.64-.67-.73-.12-.13.79-.19,1.54-.15,2.34.03.65-.01,1.48.42,1.92.17.17.41.17.54-.09.28-.56.09-1.21.04-1.83"/>
  <path id="Fill-658" class="cls-9" d="M75.54,263.24c-.1-.76-.24-1.49-.38-2.24-.08-.44-.64-.35-.64.11.01.77.02,1.52.08,2.29.05.64.07,1.17.44,1.66.11.15.33.11.41-.07.26-.59.17-1.11.09-1.75"/>
  <path id="Fill-660" class="cls-7" d="M56.84,265.74c-.03-.64,0-1.56-.41-2-.12-.12-.28-.14-.4,0-.43.5-.33,1.46-.33,2.14,0,.72-.05,1.49.45,1.97.12.11.29.04.39-.06.46-.49.33-1.37.3-2.04"/>
  <path id="Fill-662" class="cls-7" d="M53.43,266.34c0-.82.02-1.7-.2-2.48-.13-.44-.57-.42-.7,0-.26.8-.29,1.73-.28,2.56,0,.34-.22.54.05.83.77.83,1.14-.37,1.14-.91"/>
  <path id="Fill-664" class="cls-7" d="M49.92,265.73c.04-.92-.15-2.15-.25-2.42-.37-1.06-.87,1.11-.87,1.33-.02.44-.1,1.68.3,1.99.58.46.78-.11.82-.91"/>
  <path id="Fill-666" class="cls-7" d="M46.84,264.25c0-.64-.06-1.25-.14-1.88-.06-.44-.65-.44-.71,0-.08.63-.14,1.24-.14,1.88,0,.62-.1,1.32.08,1.9.16.5.67.51.83,0,.18-.58.09-1.28.08-1.9"/>
  <path id="Fill-668" class="cls-7" d="M45.15,264.78c-.13-.8-.17-1.59-.33-2.37-.06-.27-.38-.33-.48-.08-.36.84-.42,1.7-.35,2.65.03.43.06.96.57,1.09.99.26.68-.79.6-1.29"/>
  <path id="Fill-670" class="cls-9" d="M70.12,255.96c1.47.24,5.63.8,6.33,2.76.98,2.72-6.44,4.08-7.62,4.31-2.49.48-5,.77-7.51.88-5.08.23-10.2-.24-15.18-1.55-1.28-.34-2.64-.8-3.14-1.67-.97-1.68,1.88-3.19,4.37-3.82,7.23-1.83,15.26-2.15,22.76-.92"/>
  <path id="Fill-672" class="cls-14" d="M76.45,258.73c-.71-1.97-4.86-2.52-6.33-2.76-3.26-.54-6.62-.76-9.98-.71,2.68.05,5.35.28,7.96.71,1.47.24,5.63.8,6.33,2.76.98,2.72-6.44,4.08-7.62,4.31-2.49.48-5,.77-7.51.88-.49.02-.98.03-1.47.04,1.16.02,2.32.01,3.48-.04,2.51-.11,5.02-.4,7.51-.88,1.19-.23,8.6-1.59,7.62-4.31"/>
  <path id="Fill-674" class="cls-10" d="M68.17,257.21c-5.84-.81-12.09-.6-17.72.6-1.93.41-4.16,1.4-3.4,2.51.39.57,1.45.88,2.45,1.1,3.86.86,7.79,1.16,11.71,1.02,1.93-.07,3.86-.25,5.78-.56.96-.15,6.8-.48,6.21-2.66-.42-1.56-3.94-1.86-5.02-2.01"/>
  <path id="Fill-676" class="cls-8" d="M50.45,258.49c5.63-1.2,11.88-1.41,17.72-.6,1.06.15,4.5.45,5,1.95.06-.19.09-.39.02-.62-.42-1.56-3.94-1.86-5.02-2.01-5.84-.81-12.09-.6-17.72.6-1.85.39-3.94,1.32-3.45,2.37.41-.76,2.01-1.39,3.45-1.7"/>
  <path id="Fill-678" class="cls-8" d="M40.65,254.19c.25,1.92.49,3.84.74,5.77,5.12,1.27,10.33,1.77,15.54,1.88,5.03.11,9.85-1.08,14.81-2.06,1.53-.3,1.74-1.17,2.03-2.87.1-.6.5-4.59-.6-4.53l-32.52,1.81"/>
  <path id="Fill-680" class="cls-13" d="M73.17,252.37s-.63.03-1.68.09c.76.58.42,3.89.33,4.43-.28,1.7-.5,2.57-2.03,2.87-4.43.88-8.74,1.91-13.2,2.05.11,0,.23.01.34.01,5.03.11,9.85-1.08,14.81-2.06,1.53-.3,1.74-1.17,2.03-2.87.1-.6.5-4.59-.6-4.53"/>
  <path id="Fill-682" class="cls-7" d="M59.55,260.59c-5.21-.11-10.43-.62-15.54-1.88-.2-1.56-.4-3.12-.6-4.67-1.71.09-2.76.15-2.76.15.25,1.92.49,3.84.74,5.77,5.12,1.27,10.33,1.77,15.54,1.88,5.03.11,9.85-1.08,14.81-2.06.82-.16,1.26-.5,1.54-1.03-4.58.94-9.06,1.95-13.73,1.84"/>
  <path id="Fill-684" class="cls-7" d="M58.59,259.61c-.12-.82-.18-1.7-.52-2.43-.12-.25-.48-.23-.53.09-.12.78.01,1.56.11,2.33.09.73.06,1.66.52,2.18.14.15.36.14.45-.07.29-.64.07-1.41-.03-2.1"/>
  <path id="Fill-686" class="cls-9" d="M62.57,260.56c-.13-1.2-.11-2.67-.54-3.77-.13-.34-.58-.33-.72,0-.5,1.22-.28,2.95-.11,4.24.05.35.4.69.69.65.06,0,.13-.02.19-.03.41-.09.55-.66.5-1.09"/>
  <path id="Fill-688" class="cls-9" d="M65.55,259.03c-.08-.64-.21-1.23-.39-1.84-.08-.3-.39-.23-.42.07-.06.61-.09,1.18-.06,1.8.02.49,0,1.02.32,1.34.12.12.32.17.42,0,.27-.43.19-.85.13-1.37"/>
  <path id="Fill-690" class="cls-9" d="M69.57,259.52c-.25-1.13-.39-2.28-.53-3.44-.05-.4-.6-.4-.65,0-.15,1.29-.07,2.51.15,3.79.04.21.2.42.37.46.23.06.34.02.52-.17.14-.15.18-.43.14-.65"/>
  <path id="Fill-692" class="cls-9" d="M71.43,257.78c-.05-.74-.08-1.48-.12-2.22-.03-.49-.64-.67-.73-.12-.13.79-.19,1.54-.15,2.34.03.65-.01,1.48.42,1.92.17.17.41.17.54-.09.28-.56.09-1.21.04-1.83"/>
  <path id="Fill-694" class="cls-9" d="M72.99,256.63c-.1-.76-.24-1.49-.38-2.24-.08-.44-.64-.35-.64.11.01.77.02,1.52.08,2.29.05.64.07,1.17.44,1.66.11.15.33.11.41-.07.26-.59.17-1.11.09-1.75"/>
  <path id="Fill-696" class="cls-7" d="M54.29,259.13c-.03-.64,0-1.56-.42-2-.12-.12-.28-.14-.4,0-.43.5-.33,1.46-.33,2.14,0,.72-.05,1.49.45,1.97.12.11.29.04.39-.06.46-.49.33-1.37.3-2.04"/>
  <path id="Fill-698" class="cls-7" d="M50.87,259.73c0-.82.02-1.7-.2-2.48-.13-.44-.57-.42-.7,0-.26.8-.29,1.73-.28,2.56,0,.34-.22.54.05.83.77.83,1.14-.37,1.14-.91"/>
  <path id="Fill-700" class="cls-7" d="M47.36,259.12c.04-.92-.15-2.15-.25-2.42-.37-1.06-.87,1.11-.87,1.33-.02.44-.1,1.68.3,1.99.58.46.78-.11.82-.91"/>
  <path id="Fill-702" class="cls-7" d="M44.28,257.63c0-.64-.06-1.25-.14-1.88-.06-.44-.65-.44-.71,0-.08.63-.14,1.24-.14,1.88,0,.62-.1,1.32.08,1.9.16.5.67.51.83,0,.18-.58.09-1.28.08-1.9"/>
  <path id="Fill-704" class="cls-7" d="M42.6,258.17c-.12-.8-.17-1.59-.33-2.37-.06-.27-.38-.33-.48-.08-.36.84-.42,1.7-.35,2.65.03.43.06.96.57,1.09.99.26.68-.79.6-1.29"/>
  <path id="Fill-706" class="cls-9" d="M67.57,249.35c1.47.24,5.63.8,6.33,2.76.98,2.72-6.44,4.08-7.62,4.31-2.49.48-5,.77-7.51.88-5.08.23-10.2-.24-15.18-1.55-1.28-.34-2.64-.8-3.14-1.67-.97-1.68,1.88-3.19,4.37-3.82,7.23-1.83,15.26-2.15,22.76-.92"/>
  <path id="Fill-708" class="cls-14" d="M73.9,252.11c-.71-1.97-4.86-2.52-6.33-2.76-3.26-.54-6.62-.76-9.98-.71,2.68.05,5.35.28,7.96.71,1.47.24,5.63.8,6.33,2.76.98,2.72-6.44,4.08-7.62,4.31-2.49.48-5,.77-7.51.88-.49.02-.98.03-1.47.04,1.16.02,2.32.01,3.48-.04,2.51-.11,5.02-.4,7.51-.88,1.19-.23,8.6-1.59,7.62-4.31"/>
  <path id="Fill-710" class="cls-10" d="M65.61,250.6c-5.84-.81-12.09-.6-17.72.6-1.93.41-4.16,1.4-3.4,2.51.39.57,1.45.88,2.45,1.1,3.86.86,7.79,1.16,11.71,1.02,1.93-.07,3.86-.25,5.78-.56.96-.15,6.8-.48,6.21-2.66-.42-1.56-3.94-1.86-5.02-2.01"/>
  <path id="Fill-712" class="cls-8" d="M47.89,251.87c5.63-1.2,11.88-1.41,17.72-.6,1.06.15,4.5.45,5,1.95.06-.19.09-.39.02-.62-.42-1.56-3.94-1.86-5.02-2.01-5.84-.81-12.09-.6-17.72.6-1.85.39-3.94,1.32-3.45,2.37.41-.76,2.01-1.39,3.45-1.7"/>
  <path id="Fill-714" class="cls-8" d="M43.2,247.57c.25,1.92.49,3.84.74,5.77,5.12,1.27,10.33,1.77,15.54,1.88,5.03.11,9.85-1.08,14.81-2.06,1.53-.3,1.74-1.17,2.03-2.87.1-.6.5-4.59-.6-4.53l-32.52,1.81Z"/>
  <path id="Fill-716" class="cls-13" d="M75.73,245.76s-.63.03-1.68.09c.76.58.42,3.89.33,4.43-.28,1.7-.5,2.57-2.03,2.87-4.43.88-8.74,1.91-13.2,2.05.11,0,.23.01.34.01,5.03.11,9.85-1.08,14.81-2.06,1.53-.3,1.75-1.17,2.03-2.87.1-.6.5-4.59-.6-4.53"/>
  <path id="Fill-718" class="cls-7" d="M62.11,253.98c-5.21-.11-10.43-.62-15.54-1.88-.2-1.56-.4-3.12-.6-4.67-1.71.09-2.76.15-2.76.15.25,1.92.49,3.84.74,5.77,5.12,1.27,10.33,1.77,15.54,1.88,5.03.11,9.85-1.08,14.81-2.06.82-.16,1.26-.5,1.54-1.03-4.58.94-9.06,1.95-13.73,1.84"/>
  <path id="Fill-720" class="cls-7" d="M61.15,252.99c-.12-.82-.18-1.7-.52-2.43-.12-.25-.48-.23-.53.09-.12.78.01,1.56.11,2.33.09.73.06,1.66.52,2.18.13.15.36.14.45-.07.29-.64.07-1.41-.03-2.1"/>
  <path id="Fill-722" class="cls-9" d="M65.12,253.95c-.13-1.2-.11-2.67-.54-3.77-.13-.34-.58-.33-.72,0-.5,1.22-.28,2.95-.11,4.24.05.35.4.69.69.65.06,0,.13-.02.19-.03.41-.09.55-.66.5-1.09"/>
  <path id="Fill-724" class="cls-9" d="M68.1,252.42c-.08-.64-.21-1.23-.39-1.84-.08-.3-.39-.23-.42.07-.06.61-.09,1.18-.06,1.8.02.49,0,1.02.32,1.34.12.12.32.17.42,0,.28-.43.19-.85.13-1.37"/>
  <path id="Fill-726" class="cls-9" d="M72.13,252.91c-.25-1.13-.39-2.28-.53-3.44-.05-.4-.6-.4-.65,0-.15,1.29-.07,2.51.15,3.79.04.21.2.42.37.46.23.06.34.02.52-.17.14-.15.18-.43.14-.65"/>
  <path id="Fill-728" class="cls-9" d="M73.99,251.16c-.05-.74-.08-1.48-.12-2.22-.03-.49-.64-.67-.73-.12-.13.79-.19,1.54-.15,2.34.03.65-.01,1.48.42,1.92.17.17.41.17.54-.09.28-.56.09-1.21.04-1.83"/>
  <path id="Fill-730" class="cls-9" d="M75.54,250.01c-.1-.76-.24-1.49-.38-2.24-.08-.44-.64-.35-.64.11.01.77.02,1.52.08,2.29.05.64.07,1.17.44,1.66.11.15.33.11.41-.07.26-.59.17-1.11.09-1.75"/>
  <path id="Fill-732" class="cls-7" d="M56.84,252.51c-.03-.64,0-1.56-.41-2-.12-.12-.28-.14-.4,0-.43.5-.33,1.46-.33,2.14,0,.72-.05,1.49.45,1.97.12.11.29.04.39-.06.46-.49.33-1.37.3-2.04"/>
  <path id="Fill-734" class="cls-7" d="M53.43,253.11c0-.82.02-1.7-.2-2.48-.13-.44-.57-.42-.7,0-.26.8-.29,1.73-.28,2.56,0,.34-.22.54.05.83.77.83,1.14-.37,1.14-.91"/>
  <path id="Fill-736" class="cls-7" d="M49.92,252.5c.04-.92-.15-2.15-.25-2.42-.37-1.06-.87,1.11-.87,1.33-.02.44-.1,1.68.3,1.99.58.46.78-.11.82-.91"/>
  <path id="Fill-738" class="cls-7" d="M46.84,251.02c0-.64-.06-1.25-.14-1.88-.06-.44-.65-.44-.71,0-.08.63-.14,1.24-.14,1.88,0,.62-.1,1.32.08,1.9.16.5.67.5.83,0,.18-.58.09-1.28.08-1.9"/>
  <path id="Fill-740" class="cls-7" d="M45.15,251.55c-.13-.79-.17-1.59-.33-2.37-.06-.27-.38-.33-.48-.08-.36.84-.42,1.7-.35,2.65.03.43.06.96.57,1.09.99.26.68-.79.6-1.29"/>
  <path id="Fill-742" class="cls-9" d="M70.12,242.74c1.47.24,5.63.8,6.33,2.76.98,2.72-6.44,4.08-7.62,4.31-2.49.48-5,.77-7.51.88-5.08.23-10.2-.24-15.18-1.55-1.28-.34-2.64-.8-3.14-1.67-.97-1.68,1.88-3.19,4.37-3.82,7.23-1.83,15.26-2.15,22.76-.92"/>
  <path id="Fill-744" class="cls-14" d="M76.45,245.5c-.71-1.97-4.86-2.52-6.33-2.76-3.26-.54-6.62-.76-9.98-.71,2.68.05,5.35.28,7.96.71,1.47.24,5.63.8,6.33,2.76.98,2.72-6.44,4.08-7.62,4.31-2.49.48-5,.77-7.51.88-.49.02-.98.03-1.47.04,1.16.02,2.32.01,3.48-.04,2.51-.11,5.02-.4,7.51-.88,1.19-.23,8.6-1.59,7.62-4.31"/>
  <path id="Fill-746" class="cls-10" d="M68.17,243.98c-5.84-.81-12.09-.6-17.72.6-1.93.41-4.16,1.4-3.4,2.51.39.57,1.45.88,2.45,1.1,3.86.86,7.79,1.16,11.71,1.02,1.93-.07,3.86-.25,5.78-.56.96-.15,6.8-.48,6.21-2.66-.42-1.56-3.94-1.86-5.02-2.01"/>
  <path id="Fill-748" class="cls-8" d="M50.45,245.26c5.63-1.2,11.88-1.41,17.72-.6,1.06.15,4.5.45,5,1.95.06-.19.09-.39.02-.62-.42-1.56-3.94-1.86-5.02-2.01-5.84-.81-12.09-.6-17.72.6-1.85.39-3.94,1.32-3.45,2.37.41-.76,2.01-1.39,3.45-1.7"/>
  <path id="Fill-750" class="cls-8" d="M119.5,264.42c.25,1.92.49,3.84.74,5.77,5.12,1.27,10.33,1.77,15.54,1.88,5.03.11,9.85-1.08,14.81-2.06,1.53-.3,1.74-1.17,2.03-2.87.1-.6.5-4.59-.6-4.53l-32.53,1.81Z"/>
  <path id="Fill-752" class="cls-13" d="M152.02,262.6s-.63.03-1.68.09c.76.58.42,3.89.33,4.44-.28,1.7-.5,2.57-2.03,2.87-4.43.88-8.74,1.91-13.2,2.05.11,0,.23.01.34.01,5.03.11,9.85-1.08,14.81-2.06,1.53-.3,1.74-1.17,2.03-2.87.1-.6.5-4.59-.6-4.53"/>
  <path id="Fill-754" class="cls-7" d="M138.4,270.82c-5.21-.11-10.43-.62-15.54-1.88-.2-1.56-.4-3.12-.6-4.67-1.71.09-2.76.15-2.76.15.25,1.92.49,3.84.74,5.77,5.12,1.27,10.33,1.77,15.54,1.88,5.03.11,9.85-1.08,14.81-2.06.82-.16,1.26-.5,1.54-1.03-4.58.94-9.06,1.95-13.73,1.84"/>
  <path id="Fill-756" class="cls-7" d="M137.44,269.84c-.12-.82-.18-1.7-.52-2.43-.12-.25-.48-.22-.53.09-.12.78.01,1.56.11,2.33.09.73.06,1.66.52,2.18.13.15.36.14.45-.07.29-.64.07-1.41-.03-2.1"/>
  <path id="Fill-758" class="cls-9" d="M141.42,270.79c-.13-1.2-.11-2.67-.54-3.77-.13-.34-.58-.33-.72,0-.5,1.22-.28,2.95-.11,4.24.05.35.4.69.69.65.06,0,.13-.02.19-.03.41-.09.55-.66.5-1.09"/>
  <path id="Fill-760" class="cls-9" d="M144.4,269.26c-.08-.64-.21-1.23-.39-1.84-.08-.3-.39-.23-.42.07-.06.61-.09,1.18-.06,1.8.02.49,0,1.02.32,1.34.12.12.32.17.42,0,.28-.43.19-.85.13-1.37"/>
  <path id="Fill-762" class="cls-9" d="M148.42,269.75c-.25-1.13-.39-2.28-.53-3.44-.05-.4-.6-.4-.65,0-.15,1.29-.07,2.51.15,3.79.04.21.2.42.37.46.23.06.34.02.52-.17.14-.15.18-.43.14-.65"/>
  <path id="Fill-764" class="cls-9" d="M150.28,268.01c-.05-.74-.08-1.48-.12-2.22-.03-.49-.64-.67-.73-.12-.13.79-.19,1.54-.15,2.34.03.65-.01,1.48.42,1.92.17.17.41.17.54-.09.28-.56.09-1.21.04-1.83"/>
  <path id="Fill-766" class="cls-9" d="M151.84,266.86c-.1-.76-.24-1.49-.38-2.24-.08-.44-.64-.35-.64.11.01.77.02,1.52.08,2.29.05.64.07,1.17.44,1.66.11.15.33.11.41-.07.26-.59.17-1.11.09-1.75"/>
  <path id="Fill-768" class="cls-7" d="M133.14,269.36c-.03-.64,0-1.56-.41-2-.12-.12-.28-.14-.4,0-.43.5-.33,1.46-.33,2.14,0,.72-.05,1.49.45,1.97.12.11.29.04.39-.06.46-.49.33-1.37.3-2.04"/>
  <path id="Fill-770" class="cls-7" d="M129.72,269.96c0-.82.02-1.7-.2-2.48-.13-.44-.57-.42-.7,0-.26.8-.29,1.73-.28,2.56,0,.34-.22.54.05.83.77.83,1.14-.37,1.14-.91"/>
  <path id="Fill-772" class="cls-7" d="M126.21,269.35c.04-.92-.15-2.15-.25-2.42-.37-1.06-.87,1.11-.87,1.33-.02.44-.1,1.68.3,1.99.58.46.78-.11.82-.91"/>
  <path id="Fill-774" class="cls-7" d="M123.13,267.86c0-.64-.06-1.25-.14-1.88-.06-.44-.65-.44-.71,0-.08.63-.14,1.24-.14,1.88,0,.62-.1,1.32.08,1.9.16.5.67.51.83,0,.18-.58.09-1.28.08-1.9"/>
  <path id="Fill-776" class="cls-7" d="M121.45,268.4c-.13-.8-.17-1.59-.33-2.37-.06-.27-.38-.33-.48-.08-.36.84-.42,1.7-.35,2.65.03.43.06.96.57,1.09.99.26.68-.79.6-1.29"/>
  <path id="Fill-778" class="cls-9" d="M146.42,259.58c1.47.24,5.63.8,6.33,2.76.98,2.72-6.44,4.08-7.62,4.31-2.49.48-5,.77-7.51.88-5.08.23-10.2-.24-15.18-1.55-1.28-.34-2.64-.8-3.14-1.67-.97-1.68,1.88-3.19,4.37-3.82,7.23-1.83,15.26-2.15,22.76-.92"/>
  <path id="Fill-780" class="cls-14" d="M152.75,262.34c-.71-1.97-4.86-2.52-6.33-2.76-3.26-.54-6.62-.76-9.98-.71,2.68.05,5.35.28,7.96.71,1.47.24,5.63.8,6.33,2.76.98,2.72-6.44,4.08-7.62,4.31-2.49.48-5,.77-7.51.88-.49.02-.98.03-1.47.04,1.16.02,2.32.01,3.48-.04,2.51-.11,5.02-.4,7.51-.88,1.19-.23,8.6-1.59,7.62-4.31"/>
  <path id="Fill-782" class="cls-10" d="M144.46,260.83c-5.84-.81-12.09-.6-17.72.6-1.93.41-4.16,1.4-3.4,2.51.39.57,1.45.88,2.45,1.1,3.86.86,7.79,1.16,11.71,1.02,1.93-.07,3.86-.25,5.78-.56.96-.15,6.8-.48,6.21-2.66-.42-1.56-3.94-1.86-5.02-2.01"/>
  <path id="Fill-784" class="cls-8" d="M126.74,262.1c5.63-1.2,11.88-1.41,17.72-.6,1.06.15,4.5.45,5,1.95.06-.19.09-.39.02-.62-.42-1.56-3.94-1.86-5.02-2.01-5.84-.81-12.09-.6-17.72.6-1.85.39-3.94,1.32-3.45,2.37.41-.76,2.01-1.39,3.45-1.7"/>
  <path id="Fill-786" class="cls-8" d="M122.05,257.8c.25,1.92.49,3.84.74,5.77,5.12,1.27,10.33,1.77,15.54,1.88,5.03.11,9.85-1.08,14.81-2.06,1.53-.3,1.75-1.17,2.03-2.87.1-.6.5-4.59-.6-4.53l-32.52,1.81"/>
  <path id="Fill-788" class="cls-13" d="M154.58,255.99s-.63.03-1.68.09c.76.58.42,3.89.33,4.43-.28,1.7-.5,2.57-2.03,2.87-4.43.88-8.74,1.91-13.2,2.05.11,0,.23.01.34.01,5.03.11,9.85-1.08,14.81-2.06,1.53-.3,1.74-1.17,2.03-2.87.1-.6.5-4.59-.6-4.53"/>
  <path id="Fill-790" class="cls-7" d="M140.95,264.21c-5.21-.11-10.43-.62-15.54-1.88-.2-1.56-.4-3.12-.6-4.67-1.71.09-2.76.15-2.76.15.25,1.92.49,3.84.74,5.77,5.12,1.27,10.33,1.77,15.54,1.88,5.03.11,9.85-1.08,14.81-2.06.82-.16,1.26-.5,1.54-1.03-4.58.94-9.06,1.95-13.73,1.84"/>
  <path id="Fill-792" class="cls-7" d="M140,263.22c-.12-.82-.18-1.7-.52-2.43-.12-.25-.48-.23-.53.09-.12.78.01,1.56.11,2.33.09.73.06,1.66.52,2.18.14.15.36.14.45-.07.29-.64.07-1.41-.03-2.1"/>
  <path id="Fill-794" class="cls-9" d="M143.97,264.17c-.13-1.2-.11-2.67-.54-3.77-.13-.34-.58-.33-.72,0-.5,1.22-.28,2.95-.11,4.24.05.35.4.69.69.65.06,0,.13-.02.19-.03.41-.09.55-.66.5-1.09"/>
  <path id="Fill-796" class="cls-9" d="M146.95,262.65c-.08-.64-.21-1.23-.39-1.84-.09-.3-.39-.23-.42.07-.06.61-.09,1.18-.06,1.8.02.49,0,1.02.32,1.34.12.12.32.17.42,0,.27-.43.19-.85.13-1.37"/>
  <path id="Fill-798" class="cls-9" d="M150.98,263.14c-.25-1.13-.39-2.28-.53-3.44-.05-.4-.6-.4-.65,0-.15,1.29-.07,2.51.15,3.79.04.21.2.42.37.46.23.06.34.02.52-.17.14-.15.18-.43.14-.65"/>
  <path id="Fill-800" class="cls-9" d="M152.84,261.39c-.05-.74-.08-1.48-.12-2.22-.03-.49-.64-.67-.73-.12-.13.79-.19,1.54-.15,2.34.03.65-.01,1.48.42,1.92.17.17.41.17.54-.09.28-.56.09-1.2.04-1.83"/>
  <path id="Fill-802" class="cls-9" d="M154.39,260.24c-.1-.76-.24-1.49-.38-2.24-.08-.44-.64-.35-.64.11.01.77.02,1.52.08,2.29.05.64.07,1.17.44,1.66.11.15.33.11.41-.07.26-.59.17-1.11.09-1.75"/>
  <path id="Fill-804" class="cls-7" d="M135.69,262.74c-.03-.64,0-1.56-.41-2-.12-.12-.28-.14-.4,0-.43.5-.33,1.46-.33,2.14,0,.72-.05,1.49.45,1.97.12.11.29.04.39-.06.46-.49.33-1.37.3-2.04"/>
  <path id="Fill-806" class="cls-7" d="M132.28,263.34c0-.82.02-1.7-.2-2.48-.13-.44-.57-.42-.7,0-.26.8-.29,1.73-.28,2.56,0,.34-.22.54.05.83.77.83,1.14-.37,1.14-.91"/>
  <path id="Fill-808" class="cls-7" d="M128.77,262.73c.04-.92-.15-2.15-.25-2.42-.37-1.06-.87,1.11-.87,1.33-.02.44-.1,1.68.3,1.99.58.46.78-.11.82-.91"/>
  <path id="Fill-810" class="cls-7" d="M125.69,261.25c0-.64-.06-1.25-.14-1.88-.06-.44-.65-.44-.71,0-.08.63-.14,1.24-.14,1.88,0,.62-.1,1.32.08,1.9.16.5.67.51.83,0,.18-.58.09-1.28.08-1.9"/>
  <path id="Fill-812" class="cls-7" d="M124,261.78c-.12-.8-.17-1.59-.33-2.37-.06-.27-.38-.33-.48-.08-.36.84-.42,1.7-.35,2.65.03.43.06.96.57,1.09.99.26.68-.79.6-1.29"/>
  <path id="Fill-814" class="cls-9" d="M148.97,252.96c1.47.24,5.63.8,6.33,2.76.98,2.72-6.44,4.08-7.62,4.31-2.49.48-5,.77-7.51.88-5.08.23-10.2-.24-15.18-1.55-1.28-.34-2.64-.8-3.14-1.67-.97-1.68,1.88-3.19,4.37-3.82,7.23-1.83,15.26-2.15,22.76-.92"/>
  <path id="Fill-816" class="cls-14" d="M155.3,255.73c-.71-1.97-4.86-2.52-6.33-2.76-3.26-.54-6.62-.76-9.97-.71,2.68.05,5.35.28,7.96.71,1.47.24,5.63.8,6.33,2.76.98,2.72-6.44,4.08-7.62,4.31-2.49.48-5,.77-7.51.88-.49.02-.98.03-1.47.04,1.16.02,2.32.01,3.48-.04,2.51-.11,5.02-.4,7.51-.88,1.19-.23,8.6-1.59,7.62-4.31"/>
  <path id="Fill-818" class="cls-10" d="M147.02,254.21c-5.84-.81-12.09-.6-17.72.6-1.93.41-4.15,1.4-3.4,2.51.39.57,1.45.88,2.45,1.1,3.86.86,7.8,1.16,11.71,1.02,1.93-.07,3.86-.25,5.78-.56.96-.15,6.8-.48,6.21-2.66-.42-1.56-3.94-1.86-5.02-2.01"/>
  <path id="Fill-820" class="cls-8" d="M129.3,255.49c5.63-1.2,11.88-1.41,17.72-.6,1.06.15,4.5.45,4.99,1.95.06-.19.09-.39.02-.62-.42-1.56-3.94-1.86-5.02-2.01-5.84-.81-12.09-.6-17.72.6-1.85.39-3.94,1.32-3.45,2.37.41-.76,2.01-1.39,3.45-1.7"/>
  <path id="Fill-822" class="cls-8" d="M119.5,251.19c.25,1.92.49,3.84.74,5.77,5.12,1.27,10.33,1.77,15.54,1.88,5.03.11,9.85-1.08,14.81-2.06,1.53-.3,1.74-1.17,2.03-2.87.1-.6.5-4.59-.6-4.53l-32.53,1.81Z"/>
  <path id="Fill-824" class="cls-13" d="M152.02,249.37s-.63.03-1.68.09c.76.58.42,3.89.33,4.43-.28,1.7-.5,2.57-2.03,2.87-4.43.88-8.74,1.91-13.2,2.05.11,0,.23.01.34.01,5.03.11,9.85-1.08,14.81-2.06,1.53-.3,1.74-1.17,2.03-2.87.1-.6.5-4.59-.6-4.53"/>
  <path id="Fill-826" class="cls-7" d="M138.4,257.59c-5.21-.11-10.43-.62-15.54-1.88-.2-1.56-.4-3.12-.6-4.67-1.71.09-2.76.15-2.76.15.25,1.92.49,3.84.74,5.77,5.12,1.27,10.33,1.77,15.54,1.88,5.03.11,9.85-1.08,14.81-2.06.82-.16,1.26-.5,1.54-1.03-4.58.94-9.06,1.95-13.73,1.84"/>
  <path id="Fill-828" class="cls-7" d="M137.44,256.61c-.12-.82-.18-1.7-.52-2.43-.12-.25-.48-.23-.53.09-.12.78.01,1.56.11,2.33.09.73.06,1.66.52,2.18.13.15.36.14.45-.07.29-.64.07-1.41-.03-2.1"/>
  <path id="Fill-830" class="cls-9" d="M141.42,257.56c-.13-1.2-.11-2.67-.54-3.77-.13-.34-.58-.33-.72,0-.5,1.22-.28,2.95-.11,4.24.05.35.4.69.69.65.06,0,.13-.02.19-.03.41-.09.55-.66.5-1.09"/>
  <path id="Fill-832" class="cls-9" d="M144.4,256.03c-.08-.64-.21-1.23-.39-1.84-.08-.3-.39-.23-.42.07-.06.61-.09,1.18-.06,1.8.02.49,0,1.02.32,1.34.12.12.32.17.42,0,.28-.43.19-.85.13-1.37"/>
  <path id="Fill-834" class="cls-9" d="M148.42,256.52c-.25-1.13-.39-2.28-.53-3.44-.05-.4-.6-.4-.65,0-.15,1.29-.07,2.51.15,3.79.04.21.2.42.37.46.23.06.34.02.52-.17.14-.15.18-.43.14-.65"/>
  <path id="Fill-836" class="cls-9" d="M150.28,254.78c-.05-.74-.08-1.48-.12-2.22-.03-.49-.64-.67-.73-.12-.13.79-.19,1.54-.15,2.34.03.65-.01,1.48.42,1.92.17.17.41.17.54-.09.28-.56.09-1.21.04-1.83"/>
  <path id="Fill-838" class="cls-9" d="M151.84,253.63c-.1-.76-.24-1.49-.38-2.24-.08-.44-.64-.35-.64.11.01.77.02,1.52.08,2.29.05.64.07,1.17.44,1.66.11.15.33.11.41-.07.26-.59.17-1.11.09-1.75"/>
  <path id="Fill-840" class="cls-7" d="M133.14,256.13c-.03-.64,0-1.56-.41-2-.12-.12-.28-.14-.4,0-.43.5-.33,1.46-.33,2.14,0,.72-.05,1.49.45,1.97.12.11.29.04.39-.06.46-.49.33-1.37.3-2.04"/>
  <path id="Fill-842" class="cls-7" d="M129.72,256.73c0-.82.02-1.7-.2-2.48-.13-.44-.57-.42-.7,0-.26.8-.29,1.73-.28,2.56,0,.34-.22.54.05.83.77.83,1.14-.37,1.14-.91"/>
  <path id="Fill-844" class="cls-7" d="M126.21,256.12c.04-.92-.15-2.15-.25-2.42-.37-1.06-.87,1.11-.87,1.33-.02.44-.1,1.68.3,1.99.58.46.78-.11.82-.91"/>
  <path id="Fill-846" class="cls-7" d="M123.13,254.64c0-.64-.06-1.25-.14-1.88-.06-.44-.65-.44-.71,0-.08.63-.14,1.24-.14,1.88,0,.62-.1,1.32.08,1.9.16.5.67.5.83,0,.18-.58.09-1.28.08-1.9"/>
  <path id="Fill-848" class="cls-7" d="M121.45,255.17c-.13-.79-.17-1.59-.33-2.37-.06-.27-.38-.33-.48-.08-.36.84-.42,1.7-.35,2.65.03.43.06.96.57,1.09.99.26.68-.79.6-1.29"/>
  <path id="Fill-850" class="cls-9" d="M146.42,246.35c1.47.24,5.63.8,6.33,2.76.98,2.72-6.44,4.08-7.62,4.31-2.49.48-5,.77-7.51.88-5.08.23-10.2-.24-15.18-1.55-1.28-.34-2.64-.8-3.14-1.67-.97-1.68,1.88-3.19,4.37-3.82,7.23-1.83,15.26-2.15,22.76-.92"/>
  <path id="Fill-852" class="cls-14" d="M152.75,249.11c-.71-1.97-4.86-2.52-6.33-2.76-3.26-.54-6.62-.76-9.98-.71,2.68.05,5.35.28,7.96.71,1.47.24,5.63.8,6.33,2.76.98,2.72-6.44,4.08-7.62,4.31-2.49.48-5,.77-7.51.88-.49.02-.98.03-1.47.04,1.16.02,2.32.01,3.48-.04,2.51-.11,5.02-.4,7.51-.88,1.19-.23,8.6-1.59,7.62-4.31"/>
  <path id="Fill-854" class="cls-10" d="M144.46,247.6c-5.84-.81-12.09-.6-17.72.6-1.93.41-4.16,1.4-3.4,2.51.39.57,1.45.88,2.45,1.1,3.86.86,7.79,1.16,11.71,1.02,1.93-.07,3.86-.25,5.78-.56.96-.15,6.8-.48,6.21-2.66-.42-1.56-3.94-1.86-5.02-2.01"/>
  <path id="Fill-856" class="cls-8" d="M126.74,248.88c5.63-1.2,11.88-1.41,17.72-.6,1.06.15,4.5.45,5,1.95.06-.19.09-.39.02-.62-.42-1.56-3.94-1.86-5.02-2.01-5.84-.81-12.09-.6-17.72.6-1.85.39-3.94,1.32-3.45,2.37.41-.76,2.01-1.39,3.45-1.7"/>
  <path id="Fill-858" class="cls-8" d="M119.5,244.57c.25,1.92.49,3.84.74,5.77,5.12,1.27,10.33,1.77,15.54,1.88,5.03.11,9.85-1.08,14.81-2.06,1.53-.3,1.74-1.17,2.03-2.87.1-.6.5-4.59-.6-4.53l-32.53,1.81Z"/>
  <path id="Fill-860" class="cls-13" d="M152.02,242.76s-.63.03-1.68.09c.76.58.42,3.89.33,4.44-.28,1.7-.5,2.57-2.03,2.87-4.43.88-8.74,1.91-13.2,2.05.11,0,.23.01.34.01,5.03.11,9.85-1.08,14.81-2.06,1.53-.3,1.74-1.17,2.03-2.87.1-.6.5-4.59-.6-4.53"/>
  <path id="Fill-862" class="cls-7" d="M138.4,250.98c-5.21-.11-10.43-.62-15.54-1.88-.2-1.56-.4-3.12-.6-4.67-1.71.09-2.76.15-2.76.15.25,1.92.49,3.84.74,5.77,5.12,1.27,10.33,1.77,15.54,1.88,5.03.11,9.85-1.08,14.81-2.06.82-.16,1.26-.5,1.54-1.03-4.58.94-9.06,1.95-13.73,1.84"/>
  <path id="Fill-864" class="cls-7" d="M137.44,249.99c-.12-.82-.18-1.7-.52-2.43-.12-.25-.48-.22-.53.09-.12.78.01,1.56.11,2.33.09.73.06,1.66.52,2.18.13.15.36.14.45-.07.29-.64.07-1.41-.03-2.1"/>
  <path id="Fill-866" class="cls-9" d="M141.42,250.95c-.13-1.2-.11-2.67-.54-3.77-.13-.34-.58-.33-.72,0-.5,1.22-.28,2.95-.11,4.24.05.35.4.69.69.65.06,0,.13-.02.19-.03.41-.09.55-.66.5-1.09"/>
  <path id="Fill-868" class="cls-9" d="M144.4,249.42c-.08-.64-.21-1.23-.39-1.84-.08-.3-.39-.23-.42.07-.06.61-.09,1.18-.06,1.8.02.49,0,1.02.32,1.34.12.12.32.17.42,0,.28-.43.19-.85.13-1.37"/>
  <path id="Fill-870" class="cls-9" d="M148.42,249.91c-.25-1.13-.39-2.28-.53-3.44-.05-.4-.6-.4-.65,0-.15,1.29-.07,2.51.15,3.79.04.21.2.42.37.46.23.06.34.02.52-.17.14-.15.18-.43.14-.65"/>
  <path id="Fill-872" class="cls-9" d="M150.28,248.17c-.05-.74-.08-1.48-.12-2.22-.03-.49-.64-.67-.73-.12-.13.79-.19,1.54-.15,2.34.03.65-.01,1.48.42,1.92.17.17.41.17.54-.09.28-.56.09-1.21.04-1.83"/>
  <path id="Fill-874" class="cls-9" d="M151.84,247.01c-.1-.76-.24-1.49-.38-2.24-.08-.44-.64-.35-.64.11.01.77.02,1.52.08,2.29.05.64.07,1.17.44,1.66.11.15.33.11.41-.07.26-.59.17-1.11.09-1.75"/>
  <path id="Fill-876" class="cls-7" d="M133.14,249.51c-.03-.64,0-1.56-.41-2-.12-.12-.28-.14-.4,0-.43.5-.33,1.46-.33,2.14,0,.72-.05,1.49.45,1.97.12.11.29.04.39-.06.46-.49.33-1.37.3-2.04"/>
  <path id="Fill-878" class="cls-7" d="M129.72,250.11c0-.82.02-1.7-.2-2.48-.13-.44-.57-.42-.7,0-.26.8-.29,1.73-.28,2.56,0,.34-.22.54.05.83.77.83,1.14-.37,1.14-.91"/>
  <path id="Fill-880" class="cls-7" d="M126.21,249.51c.04-.92-.15-2.15-.25-2.42-.37-1.06-.87,1.11-.87,1.33-.02.44-.1,1.68.3,1.99.58.46.78-.11.82-.91"/>
  <path id="Fill-882" class="cls-7" d="M123.13,248.02c0-.64-.06-1.25-.14-1.88-.06-.44-.65-.44-.71,0-.08.63-.14,1.24-.14,1.88,0,.62-.1,1.32.08,1.9.16.5.67.51.83,0,.18-.58.09-1.28.08-1.9"/>
  <path id="Fill-884" class="cls-7" d="M121.45,248.55c-.13-.79-.17-1.59-.33-2.37-.06-.27-.38-.33-.48-.08-.36.84-.42,1.7-.35,2.65.03.43.06.96.57,1.09.99.26.68-.79.6-1.29"/>
  <path id="Fill-886" class="cls-9" d="M146.42,239.74c1.47.24,5.63.8,6.33,2.76.98,2.72-6.44,4.08-7.62,4.31-2.49.48-5,.77-7.51.88-5.08.23-10.2-.24-15.18-1.55-1.28-.34-2.64-.8-3.14-1.67-.97-1.68,1.88-3.19,4.37-3.82,7.23-1.83,15.26-2.15,22.76-.92"/>
  <path id="Fill-888" class="cls-14" d="M152.75,242.5c-.71-1.97-4.86-2.52-6.33-2.76-3.26-.54-6.62-.76-9.98-.71,2.68.05,5.35.28,7.96.71,1.47.24,5.63.8,6.33,2.76.98,2.72-6.44,4.08-7.62,4.31-2.49.48-5,.77-7.51.88-.49.02-.98.03-1.47.04,1.16.02,2.32.01,3.48-.04,2.51-.11,5.02-.4,7.51-.88,1.19-.23,8.6-1.59,7.62-4.31"/>
  <path id="Fill-890" class="cls-10" d="M144.46,240.98c-5.84-.81-12.09-.6-17.72.6-1.93.41-4.16,1.4-3.4,2.51.39.57,1.45.88,2.45,1.1,3.86.86,7.79,1.16,11.71,1.02,1.93-.07,3.86-.25,5.78-.56.96-.15,6.8-.48,6.21-2.66-.42-1.56-3.94-1.86-5.02-2.01"/>
  <path id="Fill-892" class="cls-8" d="M126.74,242.26c5.63-1.2,11.88-1.41,17.72-.6,1.06.15,4.5.45,5,1.95.06-.19.09-.39.02-.61-.42-1.56-3.94-1.86-5.02-2.01-5.84-.81-12.09-.6-17.72.6-1.85.39-3.94,1.32-3.45,2.37.41-.76,2.01-1.39,3.45-1.7"/>
  <path class="cls-12" d="M271.13,152.35v-62.04c0,2.24-7.76,4.05-17.34,4.05s-17.34-1.82-17.34-4.05h0s0,0,0,0v62.04h0,0c0,2.24,7.76,4.05,17.34,4.05s17.34-1.81,17.34-4.05h0s0,0,0,0Z"/>
  <polygon class="cls-12" points="271.13 90.31 271.13 90.31 271.13 90.31 271.13 90.31"/>
  <path id="Fill-904" class="cls-5" d="M271.13,90.31c0,2.24-7.76,4.05-17.34,4.05s-17.34-1.81-17.34-4.05,7.76-4.05,17.34-4.05,17.34,1.81,17.34,4.05"/>
  <path id="Fill-908" class="cls-6" d="M428.1,207.92c-.07,0-.14,0-.21,0l-.97-.07q-13.71-.91-29.63-.53l-1.64.04s-.05,0-.07,0c-1.65,0-3.01-1.32-3.05-2.98-.04-1.68,1.29-3.08,2.98-3.12l1.64-.04q16.19-.39,30.18.54l.97.06c1.68.11,2.95,1.57,2.84,3.25-.11,1.61-1.45,2.85-3.04,2.85"/>
  <path id="Fill-909" class="cls-3" d="M343.78,238.08c0,2.23-2.05,4.04-4.58,4.04s-4.58-1.81-4.58-4.04,2.05-4.04,4.58-4.04,4.58,1.81,4.58,4.04"/>
  <path id="Fill-910" class="cls-3" d="M461.2,244.13c0,2.23,2.05,4.04,4.58,4.04s4.58-1.81,4.58-4.04-2.05-4.04-4.58-4.04-4.58,1.81-4.58,4.04"/>
  <path id="Fill-911" class="cls-2" d="M469.61,297.79c.92,3.68,1.62,7.38,2.32,10.43-26.17,2.56-50.56,7.18-77.06,4.2-13.02-1.47-25.71-5.55-38.66-6.46-5.97-.42-23.48-2.49-23.47-11.43,0-9.68,33.6-17.53,75.04-17.53,14.73,0,29.38,1.05,43.93,3.32,5.98.93,9.52-.02,12.9,4.82,2.31,3.3,3.83,7.98,5,12.67"/>
  <path id="Fill-912" class="cls-3" d="M407.19,197.51c-50.72-1.12-51.21,16.25-49.93,46.74.88,21.03,3.7,36.38,5.77,43.53,3.04,10.53,7.9,21.27,42.42,21.38,34.52.12,39.87-10.47,42.55-15.78,2.68-5.31,6.64-38.16,5.49-54.27-1.39-19.43.6-40.55-46.3-41.59"/>
  <path id="Fill-913" class="cls-6" d="M413.85,286.17c-16.65,0-23.15-9.76-23.43-10.19-1.17-1.82-.65-4.24,1.16-5.42,1.82-1.17,4.24-.65,5.42,1.16.18.26,5.15,7.28,18.79,6.56,10.17-.54,14.22-8.04,14.39-8.36,1-1.9,3.36-2.66,5.27-1.67,1.91.99,2.68,3.31,1.71,5.23-.24.48-6.14,11.84-20.95,12.62-.81.04-1.59.06-2.36.06"/>
  <path id="Fill-914" class="cls-6" d="M434.38,254.85c-.15-3.69,2.72-6.82,6.41-6.98,3.7-.15,6.82,2.72,6.98,6.42.15,3.69-2.72,6.82-6.41,6.97-3.7.16-6.82-2.71-6.98-6.41"/>
  <path id="Fill-915" class="cls-6" d="M380.63,250.13c4.17-.67,8.11,2.16,8.78,6.33.67,4.18-2.16,8.11-6.34,8.78-4.17.67-8.11-2.17-8.78-6.34-.67-4.17,2.16-8.1,6.34-8.78"/>
  <path id="Fill-916" class="cls-6" d="M443.88,217.12c3.79,2.93,4.94,9.42,5.06,16.19.09,5.74-.78,10.57-8.45,9.72-7.67-.86-47.82.16-62.19,2-8.57,1.1-8.93-19-4.27-25.78,5.53-8.02,31.37-7.98,42-7.41,13.41.73,23,1.55,27.85,5.28"/>
  <path id="Fill-917" class="cls-3" d="M449.61,313.19c-1.09,0-2.19-.34-3.14-1.03q-6.41-4.72-15.01-7.33l1.48-5.1,1.54-5.08-1.54,5.08,1.6-5.07c10.06,3.05,10.57,3.3,18.21,8.93,2.36,1.74,2.87,5.07,1.13,7.43-1.04,1.41-2.65,2.16-4.28,2.16"/>
  <path id="Fill-918" class="cls-3" d="M398.28,318c-1.65,0-3.27-.76-4.31-2.2-.12-.16-4.31-5.68-14.49-11.56-2.54-1.47-3.41-4.72-1.94-7.26,1.47-2.54,4.72-3.41,7.26-1.94,12.25,7.09,17.26,13.81,17.79,14.56,1.71,2.39,1.15,5.7-1.23,7.41-.94.67-2.01.99-3.08.99"/>
</svg>