<?xml version="1.0" encoding="UTF-8"?>
<svg xmlns="http://www.w3.org/2000/svg" viewBox="0 0 500 500">
  <defs>
    <style>
      .cls-1 {
        fill: #272c32;
      }

      .cls-1, .cls-2, .cls-3, .cls-4, .cls-5 {
        fill-rule: evenodd;
      }

      .cls-1, .cls-2, .cls-3, .cls-4, .cls-5, .cls-6, .cls-7, .cls-8, .cls-9, .cls-10, .cls-11, .cls-12, .cls-13, .cls-14, .cls-15 {
        stroke-width: 0px;
      }

      .cls-2 {
        fill: #353535;
      }

      .cls-3, .cls-13 {
        fill: #fff;
      }

      .cls-4 {
        fill: #b6b6b6;
      }

      .cls-5 {
        fill: #8b8b8b;
      }

      .cls-7 {
        fill: #798c28;
      }

      .cls-8 {
        fill: #7babef;
      }

      .cls-9 {
        fill: #282c33;
      }

      .cls-10 {
        fill: #7c2b0f;
      }

      .cls-11 {
        fill: #3f2913;
      }

      .cls-12 {
        fill: #a03d12;
      }

      .cls-14 {
        fill: #ffe780;
      }

      .cls-15 {
        fill: #f2651d;
      }
    </style>
  </defs>
  <g id="stiker_style" data-name="stiker style">
    <path class="cls-13" d="M358.81,245.32c-.46-.55-.97-1.06-1.53-1.53-2.33-2.53-5.59-3.97-9.06-3.97h-22.16c-.87,0-1.71.1-2.53.27.27-4.55.39-8.73.3-12.25-.04-1.7-.06-3.41-.09-5.11-.17-13.03-.37-27.8-9.58-39.9-10.17-13.36-28.74-20.53-58.43-22.58-15.18-1.04-27.46-.78-37.5.81-8.12-.51-37.54-1.08-43.57,16.6-2.37,6.94-5.55,11.92-8.92,17.18-.46.73-.93,1.45-1.39,2.17l-.06.1c-1.34,2.12-2.4,3.91-3.35,5.61-5.43,9.26-12.39,21.8-14.78,29.11-1.48,4.53-.95,8.85,1.28,12.19-.98,3.97-2.07,9.28-2.45,14.54-.88,1.37-1.44,2.93-1.62,4.59-.3,2.82.52,5.6,2.3,7.81,1.59,1.96,3.76,3.27,6.21,3.75.04,2.68.08,4.99.04,5.99-.33,9.03,7.72,15.11,15.06,17.74.16.61.29,1.05.37,1.31,1.13,3.59,3.58,6.52,6.92,8.26,3.33,1.74,7.15,2.08,10.73.95,1.12-.35,2.18-.84,3.15-1.44,5.24,7.49,13.37,12.85,24.66,16.31,6.87,5.35,9.92,9.51,10.11,9.78,2.84,4.26,7.58,6.79,12.71,6.79,2.94,0,5.8-.85,8.28-2.45,3.34-2.16,5.56-5.42,6.49-9,13.55.37,24.68-.61,33.81-2.99,5.08,1.86,5.86,2.5,12.29,7.72,2.71,2.2,6.12,3.41,9.6,3.41,4.63,0,8.95-2.06,11.87-5.66,2.57-3.17,3.75-7.15,3.32-11.22-.32-3.03-1.51-5.84-3.41-8.13.47.05.95.09,1.43.09h21.09c4.77,0,9.01-2.76,11.04-6.89,2.89-2.21,4.98-5.74,5.57-9.83.49-3.34-.07-6.61-1.47-9.31l5.85-30.6c.71-3.64-.24-7.35-2.61-10.19Z"/>
  </g>
  <g id="Bubus">
    <g>
      <path class="cls-12" d="M171.12,201.28s-14.06,22.98-17.35,33.04c-3.29,10.06,12.17,8.25,12.17,8.25l9.7-28.46-4.53-12.84Z"/>
      <path class="cls-15" d="M218.61,169.09v86.16l-25.8,44.46-22.5-8.62s-10.61-3.45-10.36-10.12c.25-6.66-1.97-44.17,4.69-67.36,4.61-12.01,12.67-18.92,17.6-33.39,4.62-13.56,36.37-11.13,36.37-11.13"/>
      <g>
        <path class="cls-12" d="M152.93,264.35c-.65-10.09,3.73-23.64,3.91-24.21l2.1.69c-.04.14-4.43,13.72-3.81,23.38l-2.21.14Z"/>
        <circle class="cls-12" cx="153.96" cy="264.27" r="2.63"/>
      </g>
      <path class="cls-12" d="M176.97,251.62c-.95.28-2.24.62-4.01,1.04-5.49,1.3-9.42-1.93-9.42-1.93-.02-.34.27-.61.6-.57,1.37.14,4.71.38,7.66.57,1.76.12,3.39.22,4.35.28.38.02.69.27.81.6Z"/>
      <g>
        <polygon class="cls-8" points="169.52 267.35 166.07 267.75 163.54 245.94 166.98 245.54 167.07 246.26 167.09 246.48 167.29 248.18 167.31 248.4 167.51 250.09 167.54 250.31 167.73 252.01 167.76 252.23 169.52 267.35"/>
        <rect class="cls-6" x="165.62" y="246.35" width="1.47" height=".22" transform="translate(-28.53 21.88) rotate(-6.93)"/>
        <polygon class="cls-6" points="167.31 248.4 165.87 248.58 165.85 248.36 167.29 248.18 167.31 248.4"/>
        <rect class="cls-6" x="166.09" y="250.18" width="1.44" height=".22" transform="translate(-30.1 22.92) rotate(-7.21)"/>
        <polygon class="cls-6" points="167.76 252.23 166.34 252.41 166.32 252.19 167.73 252.01 167.76 252.23"/>
      </g>
      <g>
        <path class="cls-11" d="M173.04,248.16c-.32.07-.58-.06-.73-.16l.05-.09.11-.19c.13-.21.46-.16.5.09l.04.2.03.15Z"/>
        <path class="cls-14" d="M173.33,249.96c-.78.13-1.51-.16-1.95-.4,0-.03.02-.05.03-.07l.06-.1.84-1.39c.15.1.41.23.73.16l.3,1.6v.04s.01.08,0,.11v.05Z"/>
        <path class="cls-7" d="M170.54,261.43c-.03.13-.17.22-.3.21l-1.45-.2c-.16-.02-.27-.18-.23-.34l2.82-11.53c.45.24,1.17.53,1.95.4l-2.79,11.46Z"/>
      </g>
      <path class="cls-10" d="M177.03,252.01l-1.18,18.65c-.11,1.65-1.67,2.82-3.28,2.43l-6.12-1.45c-1.16-.28-2-1.29-2.06-2.48l-.85-18.43s3.93,3.22,9.42,1.93c1.76-.42,3.06-.76,4.01-1.04.05.12.07.25.06.39Z"/>
      <g>
        <path class="cls-9" d="M255.18,168.22c-69.27-4.76-71.05,18.96-71.23,60.72-.13,28.81,2.75,49.97,5.12,59.87,3.49,14.58,9.45,29.58,56.63,31.93,47.19,2.36,55.18-11.78,59.18-18.87,4-7.09,11.51-51.74,10.96-73.85-.66-26.66,3.39-55.39-60.65-59.81Z"/>
        <path class="cls-9" d="M306.14,329.07c-1.6,0-3.22-.53-4.56-1.62q-8.46-6.86-20.06-10.98l2.36-6.88,2.43-6.85-2.43,6.85,2.5-6.83c13.56,4.81,14.24,5.19,24.33,13.37,3.12,2.53,3.61,7.12,1.08,10.23-1.44,1.77-3.54,2.7-5.65,2.7Z"/>
        <path class="cls-9" d="M235.66,332.39c-2.37,0-4.69-1.16-6.09-3.28-.15-.23-5.53-8.04-19.07-16.73-3.38-2.17-4.36-6.67-2.19-10.05s6.67-4.36,10.05-2.19c16.29,10.46,22.72,19.98,23.4,21.03,2.18,3.37,1.21,7.87-2.16,10.05-1.22.79-2.59,1.17-3.94,1.17Z"/>
        <path class="cls-13" d="M256.85,310.81c-.14,0-.27,0-.41,0-20.17-.12-28.93-14.56-29.3-15.18-1.47-2.49-.65-5.7,1.84-7.18,2.48-1.47,5.68-.66,7.16,1.81.3.48,6.35,9.98,20.36,10.06.12,0,.23,0,.35,0,18.55,0,24.87-9.4,25.13-9.8,1.51-2.47,4.71-3.22,7.18-1.72,2.47,1.51,3.24,4.76,1.73,7.23-.37.61-9.28,14.77-34.04,14.77Z"/>
        <path class="cls-3" d="M287.43,275.44c.03-5.06,4.15-9.15,9.21-9.13,5.06.03,9.16,4.15,9.13,9.22-.03,5.06-4.15,9.15-9.21,9.12-5.06-.02-9.16-4.15-9.13-9.21Z"/>
        <path class="cls-3" d="M214.25,265.57c5.75-.65,10.94,3.47,11.6,9.22.65,5.75-3.47,10.95-9.23,11.61-5.75.65-10.94-3.48-11.6-9.23-.65-5.75,3.47-10.94,9.23-11.6Z"/>
        <path class="cls-13" d="M302.95,221.68c4.99,4.24,6.16,13.19,5.89,22.45-.24,7.86-1.74,14.41-12.17,12.75-10.43-1.66-65.39-2.82-85.14-1.22-11.79.95-11-26.54-4.2-35.51,8.07-10.61,43.4-8.92,57.89-7.45,18.29,1.85,31.34,3.59,37.73,8.99Z"/>
        <path class="cls-13" d="M282.3,206.31c-.19,0-.39-.01-.59-.03l-1.33-.15q-18.65-2.12-40.38-2.6l-2.24-.05c-2.85-.06-5.11-2.43-5.04-5.28.06-2.85,2.42-5.09,5.28-5.04l2.24.05q22.2.5,41.31,2.67l1.33.15c2.83.32,4.87,2.88,4.55,5.71-.3,2.63-2.53,4.58-5.12,4.58Z"/>
        <path class="cls-5" d="M352.44,252.91c.24-1.26-.1-2.55-.91-3.54-.81-.98-2.03-1.56-3.31-1.56h-22.16c-2.09,0-3.88,1.51-4.23,3.58-1.61,9.56-5.99,35.68-7.85,46.7-.21,1.25.14,2.52.95,3.49.81.96,2.02,1.52,3.28,1.52h21.09c2.06,0,3.84-1.47,4.22-3.49,1.81-9.46,6.81-35.58,8.93-46.7Z"/>
        <path class="cls-4" d="M353.56,253.97c.25-1.26-.09-2.56-.91-3.54-.81-.99-2.02-1.56-3.31-1.56h-22.16c-2.09,0-3.89,1.51-4.23,3.58-1.61,9.55-6,35.67-7.86,46.7-.2,1.25.14,2.52.96,3.48.81.96,2.02,1.52,3.28,1.52h21.09c2.06,0,3.83-1.47,4.22-3.49,1.8-9.45,6.8-35.58,8.92-46.69Z"/>
        <path class="cls-1" d="M345.69,287.59c2.38.34,3.92,3.34,3.43,6.67-.49,3.34-2.81,5.76-5.19,5.42-2.38-.34-3.92-3.33-3.43-6.67.49-3.33,2.81-5.76,5.19-5.42Z"/>
        <path class="cls-2" d="M327.46,251.66c1.06.17,1.76,1.35,1.56,2.63-.2,1.29-1.23,2.2-2.29,2.03-1.06-.17-1.76-1.34-1.56-2.63.2-1.29,1.23-2.2,2.29-2.03Z"/>
        <path class="cls-2" d="M330.32,253.46c.32.05.53.41.47.8-.05.39-.37.67-.69.62-.33-.05-.54-.41-.48-.8.06-.39.37-.66.7-.62Z"/>
      </g>
      <path class="cls-12" d="M186.62,294.36c-1.01.06-2.04-.2-2.95-.78-2.28-1.48-2.94-4.53-1.46-6.82,6.53-10.08,8.15-20.76,4.82-31.74-2.57-8.47-7.25-14.01-7.3-14.06-1.78-2.06-1.55-5.16.5-6.95,2.06-1.78,5.18-1.55,6.96.5.24.28,5.91,6.9,9.14,17.22,3.02,9.64,4.45,24.47-5.85,40.38-.89,1.37-2.35,2.16-3.87,2.24Z"/>
      <path class="cls-9" d="M182.63,301.31c-3.2,1.01-6.61-.77-7.62-3.98-.25-.78-2.37-8-1.62-21.26.19-3.35,3.06-5.91,6.41-5.72,3.35.19,5.91,3.06,5.72,6.41-.63,11.11,1.06,16.86,1.08,16.92,1.01,3.2-.77,6.61-3.98,7.62Z"/>
    </g>
  </g>
</svg>