<?xml version="1.0" encoding="UTF-8"?>
<svg xmlns="http://www.w3.org/2000/svg" viewBox="0 0 500 500">
  <defs>
    <style>
      .cls-1, .cls-2, .cls-3 {
        fill-rule: evenodd;
      }

      .cls-1, .cls-2, .cls-3, .cls-4, .cls-5, .cls-6, .cls-7, .cls-8, .cls-9, .cls-10, .cls-11 {
        stroke-width: 0px;
      }

      .cls-1, .cls-9 {
        fill: #272c32;
      }

      .cls-2 {
        fill: #869eb4;
      }

      .cls-3, .cls-11 {
        fill: #fff;
      }

      .cls-5 {
        fill: #755844;
      }

      .cls-6 {
        fill: #774724;
      }

      .cls-7 {
        fill: #282c33;
      }

      .cls-8 {
        fill: #492914;
      }

      .cls-10 {
        fill: #1e2126;
      }
    </style>
  </defs>
  <g id="stiker_style" data-name="stiker style">
    <path class="cls-11" d="M379.6,134.6l-1.52-.99c-3.67-2.38-8.58-1.37-11.01,2.27-1.37,2.06-17.03,25.7-33.6,50.72l-27.28,41.19c-1.45.8-2.76,1.88-3.81,3.17-1.71,2-5.76,5.85-10.41,8.08.06-11.43-.58-22.43-1.87-31.86-2.08-15.22-5.75-26.06-10.9-32.21l-.12-.14c-17.4-19.83-58.27-21.13-70.42-21.06-24.24.15-54.56,5.47-66.97,19.97h0c-12.46,14.56-10.36,56.88-8.88,74.4.64,7.59,1.59,15.64,2.85,23.58-7.4-1.34-14.76,3.15-16.82,10.53-3.55,12.7-1.5,24.57-1.26,25.87,1.29,6.98,7.38,12.05,14.48,12.05.89,0,1.78-.08,2.65-.24,5.26-.96,9.34-4.62,11.13-9.28,1.96,4.43,4.12,8.12,6.51,10.75,1.44,1.59,3.04,3.08,4.79,4.47-.54,4.17-.66,8.33-.38,12.45-8.16,2.04-14.28,5.42-14.28,12.21,0,9.93,13.08,12.56,26.47,14.4,12.97,1.78,30.11,2.76,48.28,2.76s35.32-.98,48.29-2.76c13.4-1.84,26.47-4.47,26.47-14.4,0-8-8.47-11.26-18.77-13.18.35-3.73.38-8.03.09-13.12,4.99-6.01,9.11-15.46,12.27-28.16,2.45-9.83,4.25-21.27,5.31-33.54,1.95,1.08,4.16,1.67,6.41,1.67,1.85,0,3.73-.39,5.51-1.22.4-.18.79-.38,1.22-.59,4.42-2.2,8.68-5.12,12.67-8.67,1.23-1.09,2.4-2.22,3.5-3.35,2.35-1.71,4.08-4.3,4.87-7.33.77-2.62.72-5.31-.08-7.78,18.76-29.5,51.7-81.28,56.51-88.85,0,0,0,0,0,0l.5-.79c2.35-3.7,1.28-8.61-2.4-11Z"/>
  </g>
  <g id="Bubus">
    <path class="cls-2" d="M217.21,341.36c36.85,0,66.76,4.11,66.76,9.16s-29.91,9.16-66.76,9.16-66.75-4.11-66.75-9.16,29.91-9.16,66.75-9.16Z"/>
    <g>
      <path class="cls-9" d="M256.36,348.42c-.73,0-1.47-.1-2.21-.3-4.36-1.22-6.9-5.73-5.69-10.09.26-.93,1.05-4.71.38-14.24-.26-3.7-.61-6.43-.61-6.46-.58-4.48,2.59-8.59,7.07-9.17,4.49-.58,8.59,2.59,9.17,7.07.02.13.42,3.23.71,7.4.62,8.81.32,15.29-.94,19.79-1.01,3.62-4.3,5.99-7.88,5.99Z"/>
      <path class="cls-9" d="M173.75,351.68c-3.79,0-7.19-2.64-8-6.5-4.08-19.32,3.96-34.69,4.31-35.34,2.13-3.99,7.09-5.5,11.08-3.37,3.98,2.12,5.49,7.06,3.39,11.04-.15.29-5.54,11.09-2.75,24.28.93,4.42-1.9,8.77-6.32,9.7-.57.12-1.14.18-1.7.18Z"/>
      <path class="cls-10" d="M316.48,242.53c-.14.18-1.98,2.42-5.1,5.19-.58-.22-2.19-.99-1.76-2.36.54-1.67,1.26-3.02.32-4.65-1.43-2.42-.76-4.63.27-5.99h0c1.74-.87,3.89-.7,5.5.6,2.19,1.78,2.54,5,.76,7.21Z"/>
      <path class="cls-1" d="M273.05,180.1c-22.06-25.14-106.29-23.37-125.3-1.16-15.83,18.5-6.31,118.54,10.5,137.07,23.08,25.43,89.22,12.61,102.26,7.92,25.36-7.62,31.12-121.62,12.54-143.83Z"/>
      <path class="cls-3" d="M178.07,254.33c6.19,0,11.22,5.03,11.22,11.22s-5.03,11.21-11.22,11.21-11.21-5.02-11.21-11.21,5.02-11.22,11.21-11.22Z"/>
      <path class="cls-11" d="M228.39,309.77c-14.63,0-28.2-5.6-35.91-10.55-3.21-2.06-4.14-6.34-2.08-9.55,2.06-3.21,6.33-4.14,9.53-2.08.17.1,8.2,5.14,18.86,7.38,13.42,2.83,24.76.06,33.71-8.21,2.8-2.59,7.17-2.42,9.76.39,2.59,2.8,2.42,7.17-.39,9.76-10.31,9.53-22.22,12.86-33.5,12.86Z"/>
      <circle class="cls-11" cx="269.01" cy="263.67" r="10.2"/>
      <path class="cls-3" d="M269.69,202.36c-16.81-9.81-82.66-12.96-100.96-.82-10.07,6.68-11.61,43.28.35,41.74,27.88-3.6,86.13-3.35,102.71-1.52,8.28.92,8.24-33.36-2.1-39.4Z"/>
      <path class="cls-9" d="M132.04,312.16c-3.19,0-6.01-2.26-6.62-5.5-.08-.45-2.01-11.14,1.1-22.26,1-3.59,4.73-5.68,8.31-4.68,3.59,1,5.68,4.72,4.68,8.31-2.24,8.02-.84,16.11-.82,16.19.65,3.66-1.77,7.17-5.43,7.83-.41.07-.82.11-1.22.11Z"/>
      <path class="cls-7" d="M310.21,234.71c-1.03,1.36-1.7,3.58-.27,5.99.95,1.63.23,2.98-.32,4.65-.43,1.38,1.18,2.14,1.76,2.36-2.74,2.44-6.47,5.27-10.92,7.49-.34.17-.68.34-1.02.5-2.57,1.19-5.62.08-6.82-2.49-1.19-2.57-.03-5.63,2.49-6.81,7.87-3.66,13.35-10.27,13.41-10.33.47-.59,1.06-1.05,1.7-1.37Z"/>
      <g>
        <path class="cls-6" d="M373.73,140.32l1.52.99c-2.88,4.54-69.07,108.59-70.02,110.09-.64.98-1.96,1.26-2.94.62-.98-.64-1.26-1.96-.63-2.94.92-1.36,69.15-104.39,72.06-108.76Z"/>
        <polygon class="cls-4" points="373.73 140.32 375.25 141.31 374.75 142.1 373.21 141.1 373.73 140.32"/>
        <path class="cls-5" d="M307.47,240.33l3.4,2.21-5.64,8.86c-.32.49-.81.81-1.34.92-.53.12-1.11.03-1.6-.29-.98-.64-1.26-1.96-.63-2.94l5.8-8.76Z"/>
        <path class="cls-8" d="M309.93,241.96c11.64-19.46,24.14-38.73,37.18-57.28-11.64,19.46-24.15,38.72-37.18,57.28Z"/>
      </g>
      <path class="cls-7" d="M313.43,244.55s-4.99.27-3.81-5.73,5.34-4.44,7.18-1.86.07,7.64-3.36,7.6Z"/>
    </g>
  </g>
</svg>