<?xml version="1.0" encoding="UTF-8"?>
<svg xmlns="http://www.w3.org/2000/svg" viewBox="0 0 500 500">
  <defs>
    <style>
      .cls-1 {
        fill: #282c33;
      }

      .cls-1, .cls-2, .cls-3, .cls-4 {
        stroke-width: 0px;
      }

      .cls-2 {
        fill: #859cb2;
      }

      .cls-3 {
        fill: #fff;
      }

      .cls-4 {
        fill: #e65b0a;
      }
    </style>
  </defs>
  <g id="stiker_style" data-name="stiker style">
    <path class="cls-3" d="M374.52,236.58c-.27-12.91-17.81-18.87-25.9-8.81-4.52,4.15-1.96,9.53-5.03,13.52,4.43-91.41-38.4-102.87-125.92-96.56-1.56-1.37-3.42-2.37-5.45-2.93-.51-10.87-14.42-16.85-22.71-9.6-1.87,1.52-6.83,4.39-10.19,3.55-2.9-.72-6.08-4.84-8.73-11.31-4.47-11.97-22.93-11.01-26.17,1.3-13-1.2-20.04,17.01-9.33,24.79,1.88,1.52,5.73,5.77,5.63,9.22.58,6.05-14.51,11.76-15.03,19.82-1.44,6.88,3.18,14.2,9.94,15.92.42,10.48,13.72,16.63,21.96,10.2-.37,10.76.07,24.13,1.05,36.06-20.44-4.36-22.96,38.31-22.68,40.08-.26,14.26,19.17,20.85,27.82,9.86,3.16,18.9,8.28,34.59,18.06,45.08-.25,6.85-.35,13.16.09,18.67-14.14,2.94-21.52,10.32-13.97,20.5,7.4,10.8,59.65,8.06,84.73,7.83,25.6-2.16,78.54,2.6,79.87-17.41.02-6.21-4.52-9.58-9.07-11.45,1.43-7.83,1.83-12.21,1.17-19.25,15.17-17.99,12.73-30.49,17.28-64.63,12.14,3.24,32.08-8.85,32.58-34.43ZM172.76,162.76c-2.27,2.27-4.27,4.74-6,7.44.96-2.85,1.52-5.79,1.68-8.81,1.4.55,2.84,1.01,4.32,1.37Z"/>
  </g>
  <g id="Bubus">
    <g>
      <path class="cls-2" d="M173.77,370.43c6.04,6.37,35.4,6.16,78.77,5.33,50.82-.96,72.01-4.38,72.02-9.43.02-8.42-38.38-8.32-72.34-8.23-51.18.13-84.87,5.56-78.45,12.33Z"/>
      <path class="cls-1" d="M335.28,224.11c-2.55-34.17.82-71.33-81.68-72.89-89.23-1.68-89.98,28.89-87.55,82.5,3.42,43.84,5.22,83.11,23.92,99.83-.96,23.4-.82,39.56,13.21,37.1,4.94-1.38,7.84-6.53,6.49-11.48-.02-.08-1.55-5.89-1.43-16.42,18.93,6.88,72.59,6.1,89.96-.83-.05,3.65-.73,7.09-2.06,13.92-1.18,5.69,3.38,11.17,9.18,11.12,4.38,0,8.3-3.11,9.17-7.57,2.59-13.23,3.09-16.43,1.77-26.82,5.52-4.65,7.92-9.46,9.67-12.96,4.67-9.34,11.46-67.15,9.34-95.49Z"/>
      <g>
        <path class="cls-3" d="M318.86,188.91c6.95,5.56,8.9,17.67,8.9,30.25,0,10.68-1.78,19.58-16.02,17.8-14.24-1.78-88.91-1.19-115.68,1.78-16.02,1.78-16.02-32.23-7.12-44.68,10.53-14.74,51.26-15.92,78.3-15.82,24.98.09,42.71,3.56,51.61,10.68Z"/>
        <path class="cls-3" d="M287.3,170.69c-.14,0-.28,0-.43-.01l-1.85-.12q-23.92-1.52-51.82-.75l-2.92.08c-3.7.07-6.71-2.79-6.81-6.45-.1-3.66,2.79-6.71,6.45-6.81l2.92-.08q28.51-.78,53.03.77l1.85.12c3.65.23,6.43,3.38,6.2,7.04-.22,3.51-3.14,6.21-6.61,6.21Z"/>
        <path class="cls-1" d="M346.77,263.8c-6.93.15-9.35-9.78-2.97-12.78.23-.12,9.92-5.1,9.3-13.14-.29-3.71,2.49-6.94,6.2-7.23,3.69-.27,6.95,2.49,7.23,6.2.61,18.63-16.21,26.78-19.76,26.96Z"/>
        <path class="cls-1" d="M151.77,289.28c-4.24,0-7.72-3.37-7.81-7.62-.02-1.05-.05-10.71,5.55-26.78,1.42-4.07,5.87-6.23,9.95-4.81,4.07,1.42,6.23,5.87,4.81,9.95-4.67,13.41-4.68,21.3-4.68,21.38.02,4.29-3.42,7.83-7.71,7.88h-.1Z"/>
        <ellipse class="cls-3" cx="266.13" cy="305.42" rx="19.97" ry="15.31" transform="translate(-106.77 463.7) rotate(-71.93)"/>
      </g>
      <path class="cls-4" d="M139.36,188.02c-1.88,0-3.73-.9-4.87-2.56-1.84-2.68-1.15-6.35,1.53-8.19,8.25-5.65,12.52-11.46,12.7-17.26.27-8.69-8.56-15.66-8.65-15.73-2.56-1.99-3.04-5.69-1.06-8.26,1.98-2.57,5.66-3.06,8.23-1.09.56.43,13.64,10.6,13.25,25.33-.26,9.82-6.25,18.81-17.82,26.73-1.02.7-2.18,1.03-3.32,1.03Z"/>
      <path class="cls-3" d="M147.43,143.97c-.63,0-1.22-.37-1.47-.99-.64-1.59-1.92-2.88-3.5-3.53-.81-.34-1.19-1.26-.85-2.07.34-.81,1.26-1.19,2.07-.85,2.36.98,4.26,2.9,5.22,5.27.33.81-.06,1.73-.88,2.06-.19.08-.4.12-.59.12Z"/>
      <path class="cls-4" d="M180.57,155.68c-1.91,0-3.88-.21-5.89-.7-9.54-2.32-17.08-10.07-22.39-23.05-1.23-3.01.21-6.45,3.22-7.68,3.01-1.23,6.45.21,7.69,3.22,3.79,9.25,8.57,14.65,14.21,16.04,8.45,2.09,17.11-5.07,17.19-5.14,2.49-2.08,6.2-1.77,8.29.71,2.09,2.48,1.8,6.17-.67,8.28-.46.39-9.92,8.32-21.66,8.32Z"/>
      <path class="cls-4" d="M204.17,203.59c-1.24,0-2.5-.39-3.56-1.21-.56-.43-13.64-10.6-13.25-25.33.26-9.82,6.25-18.81,17.82-26.73,2.68-1.84,6.35-1.15,8.19,1.53,1.84,2.68,1.15,6.35-1.53,8.19-8.25,5.65-12.52,11.46-12.7,17.26-.27,8.69,8.56,15.66,8.65,15.73,2.56,1.99,3.04,5.69,1.06,8.26-1.16,1.51-2.91,2.3-4.67,2.3Z"/>
      <path class="cls-4" d="M190.12,213.49c-2.32,0-4.52-1.38-5.46-3.66-3.79-9.25-8.57-14.65-14.21-16.04-8.44-2.09-17.11,5.07-17.19,5.14-2.49,2.08-6.2,1.77-8.29-.71-2.09-2.48-1.8-6.17.67-8.28.53-.46,13.23-11.1,27.55-7.63,9.54,2.32,17.08,10.07,22.39,23.05,1.23,3.01-.21,6.45-3.22,7.68-.73.3-1.49.44-2.23.44Z"/>
      <path class="cls-3" d="M202.96,158.56c-.36,0-.72-.12-1.01-.37-.67-.56-.76-1.56-.2-2.23,1.82-2.19,3.61-3.47,5.82-4.18.84-.26,1.72.19,1.99,1.03.27.83-.19,1.72-1.03,1.99-1.64.52-2.89,1.45-4.34,3.19-.31.37-.76.57-1.22.57Z"/>
      <path class="cls-3" d="M196.77,165.45c-.34,0-.69-.11-.98-.34-.69-.54-.81-1.54-.27-2.22.14-.17.25-.33.37-.49.31-.42.62-.84,1.17-1.43.59-.64,1.6-.68,2.24-.09.64.59.68,1.6.09,2.24-.45.49-.7.82-.95,1.17-.13.18-.27.36-.43.56-.31.4-.78.61-1.25.61Z"/>
      <path class="cls-3" d="M232.98,278.45c-1.08,0-2.15-.41-2.98-1.23-13.92-13.92-29.79-12.55-30.46-12.47-2.3.21-4.37-1.45-4.61-3.76-.24-2.31,1.43-4.37,3.73-4.61.83-.09,20.43-1.97,37.29,14.89,1.64,1.64,1.64,4.31,0,5.95-.82.82-1.9,1.23-2.98,1.23Z"/>
      <path class="cls-3" d="M295.08,275.08c-1.22,0-2.43-.53-3.26-1.54-1.47-1.8-1.21-4.45.59-5.92,17.52-14.36,27.78-13.45,28.88-13.29,2.3.31,3.92,2.43,3.6,4.74-.31,2.27-2.35,3.85-4.63,3.62-.36-.05-8.27-.23-22.52,11.45-.78.64-1.73.95-2.67.95Z"/>
    </g>
  </g>
</svg>