<?xml version="1.0" encoding="UTF-8"?>
<svg xmlns="http://www.w3.org/2000/svg" viewBox="0 0 500 500">
  <defs>
    <style>
      .cls-1 {
        fill: #282c33;
      }

      .cls-1, .cls-2, .cls-3, .cls-4 {
        stroke-width: 0px;
      }

      .cls-2 {
        fill: #869eb4;
      }

      .cls-3 {
        fill: #fff;
      }

      .cls-4 {
        fill: #e65b0a;
      }
    </style>
  </defs>
  <g id="stiker_style" data-name="stiker style">
    <path class="cls-3" d="M392.83,274.05c-3.06-22.74-3.55-32.4-18.5-34.83-.95-27.81,2.48-54.82-15.23-78.08-20.9-32.91-138.37-32.22-158.53-4.56-16.58,17.02-15.79,42.77-14.55,70.16-7.25-3.95-15.08-6.04-22.91-6.06-7.04-22.11-41.19-6.09-32.33,13.81-5.54,5.67-9.93,12.83-12.73,20.94-13.25,5.79-14.53,27.92-2.43,34.82.71,3.97,1.76,7.88,3.11,11.65-13.45,15.69-1,24.81,20.8,36.64,3.79,1.89,8.38,2.02,12.21.46,18.53,8.38,40.26,3.26,53.32-12.28,1.78,2.61,3.94,5.21,6.62,7.66-16.69,3.01-25.44,9.89-17.02,21.34,6.27,6.21,20.62,7.99,51.74,7.99,22.96-2.08,127.04,4.94,125.23-18.35.05-7.53-6.59-10.91-12.4-12.55-.33-1.39-.82-2.73-1.48-4,9.63-13.25,8.99-18.6,12.64-40.98,9.7,6.38,23.72-2.18,22.45-13.78Z"/>
  </g>
  <g id="Bubus">
    <g>
      <path class="cls-2" d="M200.29,350.03c6.52,6.45,38.32,6.13,85.3,5.13,55.05-1.17,78.01-4.72,78.04-9.86.06-8.56-41.54-8.32-78.32-8.1-55.44.32-91.95,5.97-85.02,12.83Z"/>
      <path class="cls-1" d="M356.6,315.48c4.75-9.5,11.65-68.25,9.49-97.05-2.59-34.73.83-72.5-83.01-74.08-90.69-1.71-91.45,29.36-88.97,83.84,1.71,37.64,6.84,65.02,10.57,77.79,2.85,9.75,6.58,19.62,18.15,26.85-.8,1.61-1.76,3.45-2.93,5.69-2.42,4.65-.61,10.36,4.04,12.79,1.4.73,2.89,1.07,4.37,1.07,3.44,0,6.76-1.87,8.45-5.12,1.5-2.87,2.72-5.23,3.73-7.3,10.02,2.53,23.05,4,40.15,4,23.92,0,39.99-2.85,50.98-6.9,1.33,2.83,2.32,4.47,2.6,4.91,1.8,2.85,4.86,4.41,8,4.41,1.71,0,3.45-.46,5.02-1.44,4.43-2.75,5.8-8.59,3.09-13.04-.02-.04-.92-1.54-2.18-4.47,4.65-4.34,6.84-8.7,8.46-11.96Z"/>
      <path class="cls-3" d="M349.32,184.39c7.06,5.65,9.04,17.96,9.04,30.75,0,10.85-1.81,19.9-16.28,18.09s-90.36-1.21-117.56,1.81c-16.28,1.81-16.28-32.75-7.23-45.41,10.7-14.98,52.1-16.18,79.58-16.08,25.39.09,43.41,3.62,52.45,10.85Z"/>
      <path class="cls-3" d="M317.25,165.87c-.14,0-.29,0-.43-.01l-1.88-.12q-24.31-1.54-52.67-.76l-2.97.08c-3.77.05-6.82-2.83-6.92-6.55s2.83-6.82,6.55-6.92l2.96-.08q28.97-.79,53.89.79l1.88.12c3.71.24,6.53,3.44,6.3,7.15-.23,3.57-3.19,6.31-6.72,6.31Z"/>
      <path class="cls-1" d="M378.02,281.98c-3.55,0-6.56-2.75-6.82-6.35-.9-12.41-3.64-18.76-3.67-18.82-1.51-3.44.03-7.48,3.46-9.02,3.43-1.54,7.45-.04,9.01,3.38.38.84,3.76,8.6,4.84,23.47.27,3.77-2.56,7.05-6.33,7.32-.17.01-.34.02-.51.02Z"/>
      <g>
        <path class="cls-3" d="M247.85,249.73c-1.34-1.34-3.5-1.34-4.84,0l-6.99,6.99-6.99-6.99c-1.34-1.34-3.5-1.34-4.84,0-1.34,1.34-1.34,3.5,0,4.84l6.99,6.99-6.99,6.99c-1.34,1.34-1.34,3.5,0,4.84.67.67,1.54,1,2.42,1s1.75-.33,2.42-1l6.99-6.99,6.99,6.99c.67.67,1.54,1,2.42,1s1.75-.33,2.42-1c1.34-1.34,1.34-3.5,0-4.84l-6.99-6.99,6.99-6.99c1.34-1.34,1.34-3.5,0-4.84Z"/>
        <path class="cls-3" d="M347.8,257.28l6.14-6.14c1.34-1.34,1.34-3.5,0-4.84-1.34-1.34-3.5-1.34-4.84,0l-6.14,6.14-6.14-6.14c-1.34-1.34-3.5-1.34-4.84,0-1.34,1.34-1.34,3.5,0,4.84l6.14,6.14-6.14,6.14c-1.34,1.34-1.34,3.5,0,4.84.67.67,1.54,1,2.42,1s1.75-.33,2.42-1l6.14-6.14,6.14,6.14c.67.67,1.54,1,2.42,1s1.75-.33,2.42-1c1.34-1.34,1.34-3.5,0-4.84l-6.14-6.14Z"/>
      </g>
      <circle class="cls-3" cx="291.63" cy="305.19" r="13.69"/>
      <g>
        <path class="cls-4" d="M209.58,272.35c-6.4-28.89-30.75-48.06-54.38-42.82-.43.1-.85.22-1.27.33,2.04-3.02,2.33-6.65.43-9.21-2.57-3.45-8.15-3.65-12.47-.44-4.32,3.21-5.74,8.61-3.17,12.06,1,1.34,2.46,2.19,4.12,2.54-8.28,5.5-14.46,14.3-17.74,24.78,4.38.58,8,4.96,8.38,10.54.05.66.03,1.31-.01,1.95-.15-5.2-3.2-9.52-7.52-10.15-4.99-.73-9.76,3.74-10.67,9.97-.91,6.23,2.4,11.87,7.39,12.6.07.01.14,0,.21.02.25,2.25.62,4.52,1.12,6.8,6.4,28.89,30.75,48.06,54.38,42.82,23.63-5.24,37.6-32.9,31.2-61.79Z"/>
        <path class="cls-3" d="M134.76,256.67c-.22,0-.44-.05-.66-.14-.8-.36-1.15-1.3-.79-2.1,3.14-6.9,7.76-12.69,13.36-16.75.71-.51,1.7-.35,2.21.35.51.71.36,1.7-.35,2.22-5.15,3.73-9.41,9.09-12.33,15.49-.27.58-.84.93-1.44.93Z"/>
        <path class="cls-3" d="M203.88,273.62c-4.69-21.18-22.12-35.34-38.93-31.61-16.81,3.72-26.63,23.92-21.93,45.1,4.69,21.18,22.12,35.34,38.93,31.61,16.81-3.72,26.63-23.92,21.93-45.1ZM185.3,281.2c-.56.6-1.33.93-2.13.93-.21,0-.42-.02-.63-.07l-15.74-3.5c-1.58-.35-2.57-1.91-2.22-3.49.35-1.57,1.91-2.57,3.49-2.22l10.83,2.41c-3.84-11.91-8.47-22.45-8.53-22.56-.65-1.48.02-3.2,1.49-3.85,1.48-.65,3.2.02,3.85,1.49.25.56,6.14,13.97,10.26,28.05.29.99.04,2.06-.67,2.82Z"/>
      </g>
      <path class="cls-1" d="M146.15,332.09c-1.03,0-2.07-.23-3.05-.72-13.35-6.65-19.24-12.72-19.87-13.39-2.58-2.76-2.44-7.09.31-9.67,2.75-2.57,7.05-2.44,9.64.28.16.17,5.02,5.05,16.02,10.53,3.38,1.69,4.76,5.79,3.07,9.18-1.2,2.4-3.62,3.79-6.13,3.79Z"/>
    </g>
  </g>
</svg>