<?xml version="1.0" encoding="UTF-8"?>
<svg xmlns="http://www.w3.org/2000/svg" viewBox="0 0 500 500">
  <defs>
    <style>
      .cls-1 {
        fill: #282c33;
      }

      .cls-1, .cls-2, .cls-3, .cls-4 {
        stroke-width: 0px;
      }

      .cls-2 {
        fill: #869eb4;
      }

      .cls-3 {
        fill: #fff;
      }

      .cls-4 {
        fill: #e65b0a;
      }
    </style>
  </defs>
  <g id="stiker_style" data-name="stiker style">
    <path class="cls-3" d="M376.18,319.07c-3.11-23.09-3.63-33.11-18.89-35.4,5.08-97.29-36.44-110.07-130.57-103.39,5.69-27.87,5.91-47.73.65-59.14-12.54-27.18-44.85-39.09-72.03-26.55-27.18,12.54-39.09,44.85-26.56,72.03,5.34,11.58,21,24.53,46.59,38.55-14.37,20.35-10.42,54.08-9.03,81.71-18.8-5.31-22.37,8.65-26.66,32.9-.53,3.97.52,7.91,2.95,11.09,8.93,11.98,27.77,3.99,27.27-10.42,5.46,27.19,3.98,41.11,21.89,60.3-17.11,3.07-26.13,9.86-17.6,21.56,6.36,6.3,20.97,8.11,52.65,8.11,23.35-2.12,129.46,5,127.71-18.57.05-7.61-6.73-11.02-12.63-12.68-.34-1.47-.86-2.9-1.57-4.23,9.92-13.59,9.23-19.09,12.97-42.08,9.78,6.66,24.18-1.97,22.87-13.78Z"/>
  </g>
  <g id="Bubus">
    <g>
      <path class="cls-2" d="M179.81,396.61c6.65,6.59,39.11,6.25,87.06,5.24,56.19-1.19,79.63-4.82,79.66-10.06.06-8.74-42.4-8.49-79.94-8.27-56.59.33-93.85,6.09-86.78,13.09Z"/>
      <path class="cls-1" d="M339.36,361.35c4.85-9.69,11.89-69.66,9.69-99.06-2.65-35.44.85-74-84.73-75.61-92.56-1.75-93.34,29.97-90.82,85.58,1.75,38.42,6.99,66.37,10.79,79.4,2.91,9.96,6.72,20.02,18.52,27.4-.82,1.64-1.8,3.52-2.99,5.81-2.47,4.75-.62,10.58,4.12,13.05,1.43.74,2.95,1.09,4.46,1.09,3.5,0,6.89-1.91,8.62-5.23,1.53-2.93,2.78-5.34,3.81-7.45,10.23,2.58,23.53,4.09,40.98,4.09,24.41,0,40.81-2.91,52.04-7.04,1.35,2.89,2.36,4.56,2.65,5.01,1.84,2.91,4.96,4.5,8.17,4.5,1.75,0,3.52-.47,5.12-1.47,4.52-2.81,5.92-8.77,3.15-13.31-.02-.04-.94-1.57-2.23-4.56,4.75-4.43,6.98-8.88,8.64-12.21Z"/>
      <path class="cls-3" d="M331.93,227.55c7.21,5.77,9.23,18.33,9.23,31.38,0,11.08-1.85,20.31-16.61,18.46s-92.23-1.24-120,1.85c-16.61,1.85-16.61-33.43-7.38-46.35,10.92-15.29,53.18-16.52,81.23-16.42,25.91.09,44.31,3.69,53.54,11.08Z"/>
      <path class="cls-3" d="M299.2,208.64c-.15,0-.29,0-.44-.01l-1.92-.12q-24.81-1.57-53.76-.78l-3.03.08c-3.86.05-6.96-2.89-7.06-6.69s2.89-6.96,6.69-7.06l3.02-.08q29.57-.81,55,.8l1.92.12c3.79.24,6.67,3.51,6.43,7.3-.23,3.64-3.26,6.44-6.86,6.44Z"/>
      <path class="cls-1" d="M361.22,327.15c-3.63,0-6.69-2.8-6.96-6.48-.92-12.66-3.71-19.15-3.74-19.21-1.54-3.51.03-7.64,3.53-9.2,3.5-1.57,7.6-.04,9.2,3.45.39.85,3.84,8.77,4.94,23.95.28,3.85-2.61,7.2-6.46,7.48-.17.01-.35.02-.52.02Z"/>
      <g>
        <path class="cls-3" d="M228.36,294.24c-1.36-1.36-3.58-1.36-4.94,0l-7.14,7.14-7.14-7.14c-1.36-1.36-3.58-1.36-4.94,0-1.36,1.36-1.36,3.57,0,4.94l7.14,7.14-7.14,7.14c-1.36,1.36-1.36,3.57,0,4.94.68.68,1.58,1.02,2.47,1.02s1.79-.34,2.47-1.02l7.14-7.14,7.14,7.14c.68.68,1.58,1.02,2.47,1.02s1.79-.34,2.47-1.02c1.36-1.36,1.36-3.57,0-4.94l-7.14-7.14,7.14-7.14c1.36-1.36,1.36-3.57,0-4.94Z"/>
        <path class="cls-3" d="M330.38,301.95l6.26-6.26c1.36-1.36,1.36-3.57,0-4.94-1.36-1.36-3.58-1.36-4.94,0l-6.26,6.26-6.26-6.26c-1.36-1.36-3.58-1.36-4.94,0-1.36,1.36-1.36,3.57,0,4.94l6.26,6.26-6.26,6.26c-1.36,1.36-1.36,3.57,0,4.94.68.68,1.58,1.02,2.47,1.02s1.79-.34,2.47-1.02l6.26-6.26,6.26,6.26c.68.68,1.58,1.02,2.47,1.02s1.79-.34,2.47-1.02c1.36-1.36,1.36-3.57,0-4.94l-6.26-6.26Z"/>
      </g>
      <circle class="cls-3" cx="273.05" cy="350.85" r="13.97"/>
      <path class="cls-1" d="M154.54,328.75c-.31,0-.62-.02-.93-.06-3.82-.51-6.51-4.03-6-7.85,2.01-15.09,5.93-22.78,6.37-23.61,1.81-3.41,6.04-4.7,9.45-2.89,3.39,1.8,4.69,6.01,2.91,9.41-.1.21-3.22,6.51-4.88,18.95-.47,3.51-3.47,6.06-6.92,6.06Z"/>
      <g>
        <path class="cls-4" d="M220.1,124.5c-10.71-23.21-38.2-33.35-61.41-22.64-23.21,10.71-33.35,38.2-22.64,61.41,7.91,17.15,44.54,36.24,63.13,45.04,5.74,2.72,12.55-.42,14.21-6.55,5.37-19.86,14.63-60.11,6.72-77.26Z"/>
        <path class="cls-3" d="M169.28,106.77c-.87,0-1.66-.6-1.86-1.48-.24-1.03.4-2.06,1.43-2.3,1.09-.25,2.18-.46,3.24-.62,1.06-.16,2.02.57,2.17,1.62.16,1.05-.57,2.02-1.62,2.17-.96.14-1.94.33-2.93.56-.15.03-.29.05-.44.05Z"/>
        <path class="cls-3" d="M190.89,108.02c-.21,0-.43-.04-.64-.11-3.7-1.33-7.57-2.04-11.49-2.13-1.06-.02-1.9-.9-1.87-1.96.02-1.04.88-1.87,1.92-1.87h.04c4.33.1,8.6.89,12.69,2.35,1,.35,1.51,1.45,1.16,2.45-.28.78-1.02,1.27-1.8,1.27Z"/>
        <path class="cls-3" d="M186.06,131.06c-.34,0-.69-.09-1.01-.29-3.84-2.37-8.58-2.67-12.68-.78-.96.45-2.1.02-2.54-.94-.44-.96-.02-2.1.94-2.54,5.27-2.43,11.36-2.06,16.3,1,.9.56,1.18,1.74.62,2.64-.36.59-.99.91-1.63.91Z"/>
      </g>
      <g>
        <path class="cls-3" d="M202.34,130.94c-6.2-13.45-22.13-19.32-35.58-13.12s-19.32,22.13-13.12,35.58c6.2,13.45,22.13,19.32,35.58,13.12,13.45-6.2,19.32-22.13,13.12-35.58ZM187.08,161.88c-10.89,5.02-23.78.27-28.81-10.62s-.27-23.78,10.62-28.81c10.89-5.02,23.78-.27,28.81,10.62,5.02,10.89.27,23.78-10.62,28.81Z"/>
        <path class="cls-3" d="M186.06,131.06c-.34,0-.69-.09-1.01-.29-3.84-2.37-8.58-2.67-12.68-.78-.96.45-2.1.02-2.54-.94-.44-.96-.02-2.1.94-2.54,5.27-2.43,11.36-2.06,16.3,1,.9.56,1.18,1.74.62,2.64-.36.59-.99.91-1.63.91Z"/>
      </g>
    </g>
  </g>
</svg>