<?xml version="1.0" encoding="UTF-8"?>
<svg xmlns="http://www.w3.org/2000/svg" viewBox="0 0 500 500">
  <defs>
    <style>
      .cls-1 {
        isolation: isolate;
        opacity: .2;
      }

      .cls-1, .cls-2, .cls-3, .cls-4, .cls-5, .cls-6, .cls-7, .cls-8, .cls-9, .cls-10 {
        stroke-width: 0px;
      }

      .cls-1, .cls-10 {
        fill: #fff;
      }

      .cls-2 {
        fill: #708bf1;
      }

      .cls-3 {
        fill: #5863c5;
      }

      .cls-4 {
        fill: #869eb4;
      }

      .cls-5 {
        fill: #3d47a7;
      }

      .cls-6 {
        fill: #272c32;
      }

      .cls-7 {
        fill: #a5b8c6;
      }

      .cls-8 {
        fill: #32318e;
      }

      .cls-9 {
        fill: #304558;
      }
    </style>
  </defs>
  <g id="stiker_style" data-name="stiker style">
    <g>
      <path class="cls-10" d="M427.12,276.53c-1-2.66-2.09-7.98-4.4-9.84-6.94-35.4-17.06-64.65-30.14-87.06,3.94-11.66,3.09-27.23,3.02-39.43-4.36,3.87-15.25,12.75-19.03,16.95-12.43-14.18-24.31-21.32-31.86-25.86-6.9-2.78-7.65-7.99-10.92-13.45,18.87-6.07,14.24-35.55,15.09-51.37-11.2,10.41-31.88,23.42-31.06,40.33-4.18-1.22-9.34-2.23-13.61-3.93,4.42-8.65,16.12-21.14,2.82-28.39-11.91-5.83-17.41,12.68-22.26,19.71-15.87-11.57-25.45-11.57-39.07-6.42-21.42-5.11-40.88-13.58-89.07,1.1,0-.23-.12-17.35-.13-17.57-9.44,8.21-21.73,17.94-28.15,28.77-13.12,6.11-26.99,13.79-41.3,22.85-24.55,3.88-13.97,30.05,3.35,18.76,9.28,5.76,11.92,17.35,12.25,26.97l-3.44,2.56c-9.6,7.63,2.96,22.52,12.27,14.25,15.61,3.32,46.1,20.27,56.24,37.93-2.57,3.61-3.51,7.1-1.8,10.95-3.73,18.93-4.69,44.82-2.58,70.67l-3,7.04c-10.17-2.18-21.34,7.11-18.61,17.92,1.28,4.06,3.75,7.71,6.2,11.18-.97,1.81-1.56,6.36-4.58,4.67-1.15-.6-3.18-1.5-3.27-2.74-.34-.58.02-2.27.61-3.17,6.15-15.43-17.47-23.89-22.85-8.33-12.83,31.79,34.05,54.04,50.14,23.65,1.46,0,2.91-.21,4.33-.64,2.83,8.66,6.51,16.54,11.26,22-.31,3.84-.34,7.7-.08,11.54-9.47,1.93-24.06.06-26.5,11.79-.93,8.41,9.07,11,13.32,11.66,29.95,4.76,68.58,5,103.67,4.23,8.86,15.24,102.62,10.98,121.19,7.87,24.52-1.97,24.93-22.23-.14-24.4-10.42-2.01-34.01-3.8-47.98-3.26-8.67-8.84-19.49-6.4-32.16-8.53-.03-2.92-.24-5.83-.63-8.73,12.21-9.49,15.61-21.64,21.03-42.79,8.2,5.7,20.98,1.22,23.8-8.45,2.81-11.66,5.55-25.9-.79-36.75.95.54,1.84,1.07,2.63,1.57-.22,6.36,5.84,10.74,11.85,8.95,6.9-.83,8.22-8.16,6.79-13.84,3.69-5.9,20.56-12.21,27.61-10.49,1.25,3.98,2.49,9.28,6.95,10.82,6.92,3.14,15.19-3.84,12.99-11.28ZM342.61,284.8c.02-.33.05-.67.07-1,.67.24,1.32.49,1.97.73-.68.05-1.36.13-2.04.27Z"/>
      <path class="cls-10" d="M388.59,124.37c1.82.88,3.76,1.32,5.7,1.32,2.15,0,4.29-.54,6.28-1.61,3.23-1.74,5.9-4.78,7.95-9.02l.28-.58.18-.62c2.16-7.33,3.26-14.92,3.27-22.55v-17.58s-13.25,11.53-13.25,11.53c-5.83,5.07-10.91,10.94-15.08,17.45l-.34.58c-3.15,5.95-2.7,10.57-1.78,13.4,1.11,3.39,3.52,6.12,6.79,7.7Z"/>
      <path class="cls-10" d="M130.23,236.78l.3-.62.19-.66c2.14-7.32,3.24-14.89,3.26-22.52l.05-17.25-13.2,11.1c-5.82,4.89-10.9,10.58-15.11,16.92l-.29.43-.23.47c-3.15,6.41-2.56,11.21-1.51,14.1,1.2,3.32,3.63,5.94,6.85,7.38,1.66.75,3.5,1.16,5.38,1.16,5.1,0,10.61-3,14.3-10.51Z"/>
      <path class="cls-10" d="M130.37,274.47l-.25.53c-3.06,6.48-2.44,11.26-1.38,14.13,1.2,3.25,3.6,5.83,6.76,7.24,1.67.75,3.5,1.16,5.39,1.16,5.1,0,10.61-3,14.3-10.51l.29-.59.19-.63c2.22-7.35,3.32-14.97,3.28-22.65l-.08-17.07-13.06,10.98c-5.82,4.89-10.9,10.58-15.11,16.92l-.32.48Z"/>
      <path class="cls-10" d="M79.56,303.2l-.33.49-.25.53c-3.03,6.42-2.41,11.19-1.34,14.06,1.21,3.29,3.64,5.88,6.83,7.31,1.68.75,3.53,1.17,5.43,1.17,5.13,0,10.62-3.04,14.21-10.63l.25-.53.17-.56c2.23-7.34,3.37-14.94,3.39-22.61l.04-17.1-13.15,10.93c-5.88,4.88-11,10.58-15.24,16.94Z"/>
      <path class="cls-10" d="M357.28,351.94l-.3.45-.23.49c-5.09,10.56-1.08,18.33,5.15,21.33,1.82.88,3.76,1.32,5.7,1.32,1.46,0,2.93-.25,4.34-.76,2.84-1.01,6.84-3.57,9.82-9.98l.23-.5.16-.52c2.25-7.34,3.4-14.96,3.4-22.64v-17.11l-13.13,10.98c-5.85,4.89-10.94,10.59-15.14,16.95Z"/>
    </g>
  </g>
  <g id="Bubus">
    <g>
      <path class="cls-7" d="M405.67,411.55c0,3.15-17.45,5.89-41.91,6.9h-20.3c-34.6,0-62.61-3.25-62.61-7.31,0-1.42,3.45-2.74,9.54-3.86-11.37,0-24.25.71-37.75.71-48.41,0-87.68-3.25-87.68-7.31s39.27-7.31,87.68-7.31,87.68,3.25,87.68,7.31c0,1.22-3.45,2.33-9.64,3.35h33.08c23.95,1.62,41.91,4.26,41.91,7.51Z"/>
      <path class="cls-4" d="M363.76,418.45h-31.66c-29.12-.61-51.25-3.55-51.25-7.1,0-1.42,3.45-2.74,9.54-3.86-10.15,0-21.31.61-33.08.71h-4.67c-48.41,0-87.68-3.25-87.68-7.31s39.27-7.31,87.68-7.31,87.68,3.25,87.68,7.31c0,1.22-3.45,2.33-9.64,3.35h33.08c.85,4.69.8,9.51,0,14.21Z"/>
      <g>
        <path class="cls-5" d="M281.96,132.38c-80.27-40.59-150.39-15.42-192.81,0,12.79,0,28.31,31.46,18.87,44.55,15.83.61,61.09,23.44,69.61,49.01,7-5.99,33.89-1.32,60.28,9.23,26.38,10.55,47.69,28.01,48.2,37.34,24.35-11.47,71.95,5.48,83.92,16.74,3.04-15.93,36.43-26.18,45.26-17.05-18.47-41.4-48.71-109.49-133.34-139.84Z"/>
        <path class="cls-8" d="M315.15,166.58c-3.86-9.44-5.18-13.8-21.92-17.35-10.89-3.14-21.35-7.6-31.15-13.29-3.55-2.54-13.8-10.15-27.09-20.3-60.38-14-112.03,4.36-146.23,16.44,10.15,0,21.01,18.16,21.72,32.68,26.59-.81,55.91,2.23,62.31,14.31,27.31,4.19,53.89,12.22,78.95,23.85,25.71,10.07,49.87,23.74,71.75,40.59,13.09-3.65,35.52,15.53,53.28,35.21,10.96-9.34,31.86-13.6,38.56-6.7-12.85-32.57-31.33-62.62-54.6-88.79-23.75-7.92-44.04-13.29-45.56-16.64Z"/>
        <g>
          <path class="cls-2" d="M247.97,147.3c-3.06,4.16-6.46,8.06-10.15,11.67l-25.27,27.5c-10.15,10.76-18.77,20.3-25.07,27.7-3.15,3.55-5.58,6.49-7.31,8.63l-1.83,2.33c0,.61-.71.91-.71.81v-1.01c.44-.95.94-1.87,1.52-2.74,2.03-3.22,4.27-6.3,6.7-9.23,5.89-7.51,14.61-17.56,24.46-28.31s19.08-20.3,25.88-26.99c3.6-3.8,7.54-7.27,11.77-10.35Z"/>
          <path class="cls-2" d="M193.07,121.93s-5.18,2.33-13.19,6.39c-4.06,2.03-8.83,4.57-13.9,7.61-5.07,3.04-10.76,6.49-16.44,10.15-5.68,3.65-11.06,7.92-15.53,11.37l-13.19,9.54c-3.69,3.23-7.66,6.12-11.87,8.63,3.24-3.73,6.84-7.13,10.76-10.15,3.45-3.04,7.61-6.39,12.38-10.15,4.77-3.75,10.15-7.61,15.93-11.47,5.78-3.86,11.37-7.1,16.44-10.15s10.15-5.28,14.41-7.1c4.47-2.26,9.26-3.83,14.21-4.67Z"/>
          <path class="cls-9" d="M173.79,231.73h0c-.7-.47-.92-1.4-.51-2.13,0,0,1.52-2.33,2.84-4.77.44-.73,1.37-1,2.13-.61.73.44,1,1.37.61,2.13-1.42,2.54-2.94,4.77-2.94,4.87-.43.72-1.36.96-2.08.54-.02,0-.03-.02-.05-.03Z"/>
          <path class="cls-9" d="M104.99,180.08l-1.42-2.13,4.36-3.25c.67-.5,1.63-.37,2.13.31.5.67.37,1.62-.3,2.13l-4.77,2.94Z"/>
        </g>
        <path class="cls-2" d="M294.65,167.29c.48,5.16.48,10.36,0,15.53,0,10.15-.71,22.83-1.62,37.34-.91,14.51-2.33,27.81-3.65,37.24-.51,3.79-1.22,7.55-2.13,11.26,0,1.32-.71,2.23-.91,2.94l-.61.91v-4.06c0-1.32.71-6.49,1.22-11.26.81-9.54,1.83-22.63,2.84-37.14,1.01-14.51,1.83-27.81,2.44-37.34.41-5.2,1.22-10.35,2.44-15.42Z"/>
        <path class="cls-2" d="M350.87,190.23c2.72,3.94,4.88,8.24,6.39,12.79,1.81,5.03,3.37,10.14,4.67,15.32,1.52,5.89,2.84,12.38,4.06,19.18,1.22,6.8,2.03,13.5,2.64,19.38s1.12,11.47,1.32,15.93c.58,4.92.58,9.89,0,14.82-1-4.82-1.65-9.7-1.93-14.61-.51-4.47-1.12-10.15-1.83-15.83-.71-5.68-1.73-12.38-2.84-19.18-1.12-6.8-2.54-13.29-3.86-19.08-1.32-5.78-2.74-10.96-4.06-15.32-2.74-8.63-4.97-13.4-4.57-13.4Z"/>
        <path class="cls-9" d="M284.5,279.22c-.67-.28-1.02-1.03-.81-1.73,0,0,.61-2.74,1.52-5.58.24-.81,1.09-1.27,1.89-1.03.01,0,.02,0,.04.01.8.33,1.23,1.19,1.01,2.03-.81,2.64-1.52,5.28-1.52,5.28-.2.81-1.01,1.31-1.83,1.12l-.3-.1Z"/>
        <path class="cls-9" d="M369.13,293.74l-.61-5.38c-.12-.83.46-1.6,1.29-1.72,0,0,.02,0,.03,0,.83-.07,1.57.5,1.73,1.32l.61,5.38-3.04.41Z"/>
        <path class="cls-9" d="M176.43,305.71c-1.47-.35-2.38-1.83-2.02-3.3.05-.19.11-.38.2-.55l125.73-218.69c.51-1.31,1.98-1.95,3.28-1.45.02,0,.04.02.07.03,1.3.6,1.92,2.11,1.42,3.45l-125.33,219.09c-.56,1.29-2.03,1.92-3.35,1.42Z"/>
        <path class="cls-9" d="M135.84,359.9c-9.91-4.06-14.65-15.38-10.59-25.28.14-.34.29-.67.44-1,.97-2.06,3.38-3,5.48-2.13,2.04.92,2.99,3.3,2.13,5.38-2.94,5.42-.93,12.2,4.49,15.13.42.23.85.43,1.29.6,4.74,2.99,11.01,1.57,14-3.17.55-.87.96-1.82,1.23-2.81l19.08-44.75c.92-2.04,3.3-2.99,5.38-2.13,2.08.89,3.08,3.28,2.23,5.38l-19.38,44.85c-3.88,9.67-14.87,14.37-24.55,10.49-.42-.17-.83-.35-1.23-.55Z"/>
        <g>
          <path class="cls-3" d="M330.78,130.05c-3.86-9.34-5.18-13.8-21.92-17.25-10.88-3.22-21.33-7.72-31.15-13.4-14.11-10.15-18.16-7.71-27.7-3.96-11.67,5.48-51.35-35.62-163.38,37.24,21.72-5.58,91.33-9.54,101.48,10.15,27.27,4.21,53.81,12.24,78.85,23.85,25.71,10.07,49.87,23.74,71.75,40.59,21.21-5.78,66.37,47.39,77.33,66.98-23.95-131.52-81.18-131.92-85.24-144.2Z"/>
          <path class="cls-8" d="M188.5,143.04c13.07-14.24,56.23-52.43,66.17-48.51-24.98,10.83-44.76,35.12-66.17,48.51Z"/>
          <path class="cls-3" d="M81.55,136.34s-.61,0-.81-.81c-.36-.76-.05-1.66.71-2.03l5.28-2.44c.76-.36,1.66-.05,2.03.71.41.73.15,1.66-.59,2.07-.04.02-.08.04-.12.06l-4.77,2.44c-.5.43-1.23.43-1.73,0Z"/>
          <path class="cls-3" d="M183.84,148.62l-1.83-2.44,5.58-4.16c.67-.5,1.63-.37,2.13.3s.37,1.63-.3,2.13c0,0,0,0,0,0l-5.58,4.16Z"/>
        </g>
        <g>
          <path class="cls-8" d="M338.69,207.48c-4.77-25.79-.99-58.26-11.26-84.63,14.04,24.23,10.9,58.83,11.26,84.63Z"/>
          <path class="cls-9" d="M417.23,280.44c-.39-.17-.69-.5-.81-.91l-1.83-5.58c-.31-.72.02-1.56.74-1.87.06-.02.11-.04.17-.06.84-.27,1.74.18,2.03,1.01l1.83,5.48c.21.81-.23,1.64-1.01,1.93h-1.12Z"/>
          <path class="cls-9" d="M337.88,214.79l-.91-7c.22-.87,1.11-1.39,1.98-1.17.57.15,1.02.6,1.17,1.17l.81,6.9-3.04.1Z"/>
        </g>
      </g>
      <g>
        <g>
          <path class="cls-6" d="M326.21,211.13c18.16,21.11,7.2,135.68-11.97,156.89-2.58,2.74-5.52,5.13-8.73,7.1,1.84,8.66,1.84,17.62,0,26.28-.9,4.34-4.7,7.46-9.13,7.51h-1.93c-5.07-1.12-8.31-6.07-7.31-11.16.9-5.07.9-10.25,0-15.32-25.68,4.77-52.07,4.22-77.53-1.62-.15,4.17.3,8.34,1.32,12.38,1.41,4.9-1.43,10.02-6.33,11.42-.05.02-.11.03-.16.05-.84.14-1.7.14-2.54,0-4.23,0-7.93-2.82-9.03-6.9-1.58-7.43-1.96-15.08-1.12-22.63v-1.62c-24.35-20.9-28.92-137.2-9.03-161.05,25.27-28.82,121.77-26.79,143.49-1.32Z"/>
          <path class="cls-6" d="M149.54,328.24c-.77-3.44,1.35-6.86,4.77-7.71,2.86-1.66,6.52-.69,8.18,2.17.01.02.02.04.04.06,2.45,5.52,6.25,10.34,11.06,14,2.21,1.81,2.54,5.07.73,7.28-.22.27-.47.52-.73.73-.57.56-1.22,1.04-1.93,1.42-2.24,1.37-5.06,1.37-7.31,0-6.44-4.58-11.55-10.77-14.82-17.96Z"/>
          <path class="cls-6" d="M338.18,301.85c-.92-4.16,1.71-8.28,5.86-9.2,4.16-.92,8.28,1.71,9.2,5.86.08.36.13.73.16,1.1,1.13,8.53.47,17.21-1.93,25.47-1.02,3.17-3.98,5.3-7.31,5.28-.77.11-1.56.11-2.33,0-4.06-1.27-6.33-5.58-5.07-9.64,1.68-6.14,2.16-12.55,1.42-18.87Z"/>
        </g>
        <g>
          <path class="cls-10" d="M291.5,297.39c7.12,0,12.89,5.77,12.89,12.89,0,7.12-5.77,12.89-12.89,12.89-7.12,0-12.89-5.77-12.89-12.89s5.77-12.89,12.89-12.89h0Z"/>
          <path class="cls-10" d="M206.26,334.53c10.41,9.57,25.01,13.14,38.66,9.44,7.58-1.64,14.84-4.48,21.51-8.42,3.51-2.61,8.46-1.89,11.08,1.62,2.61,3.51,1.89,8.46-1.62,11.08-.3.22-.61.42-.93.6-12.35,7.68-26.56,11.85-41.1,12.08-14.2.19-27.93-5.08-38.36-14.71-3.02-3.11-3.02-8.05,0-11.16,2.9-2.96,7.59-3.18,10.76-.51Z"/>
          <circle class="cls-10" cx="187.39" cy="308.15" r="11.67"/>
          <path class="cls-10" d="M301.75,284.81c-38.9-3.6-78.01-4.21-117-1.83-9.54,1.12-9.44-38.16,2.33-45.06,19.28-11.26,94.68-14.82,115.58-.91,11.06,7.61,12.79,49.52-.91,47.8Z"/>
          <path class="cls-10" d="M274.46,219.45c-21.45-3.6-43.39-3.08-64.64,1.52-.6.1-1.22.1-1.83,0-3.56,0-6.67-2.43-7.51-5.89-.95-4.17,1.63-8.33,5.78-9.34,23.35-5.15,47.48-5.7,71.03-1.62,4.22.6,7.15,4.5,6.56,8.72-.6,4.22-4.5,7.15-8.72,6.56-.26-.04-.53-.09-.78-.15l.1.2Z"/>
        </g>
      </g>
      <path class="cls-1" d="M404.25,91.29c0,6.87-1,13.71-2.94,20.3-2.74,5.68-6.29,7-9.23,5.58s-4.16-4.97-1.42-10.15c3.76-5.86,8.34-11.16,13.6-15.73Z"/>
      <path class="cls-1" d="M340.82,83.88c-.02,6.87-1.01,13.7-2.94,20.3-2.74,5.58-6.29,6.9-9.23,5.58s-4.16-5.07-1.42-10.15c3.71-5.9,8.3-11.2,13.6-15.73Z"/>
      <path class="cls-1" d="M387.7,157.55c.04,6.87-.95,13.72-2.94,20.3-2.74,5.68-6.29,7-9.23,5.58s-4.06-4.97-1.42-10.15c3.74-5.88,8.32-11.18,13.6-15.73Z"/>
      <path class="cls-1" d="M148.62,88.75c.05,6.87-.94,13.72-2.94,20.3-2.74,5.68-6.29,7-9.13,5.58s-4.16-4.97-1.52-10.15c3.76-5.86,8.34-11.16,13.6-15.73Z"/>
      <path class="cls-1" d="M125.99,212.96c-.02,6.87-1.01,13.7-2.94,20.3-2.74,5.58-6.29,6.9-9.23,5.58s-4.16-5.07-1.42-10.66c3.79-5.7,8.36-10.82,13.6-15.22Z"/>
      <path class="cls-1" d="M150.96,263.19c.03,6.87-.96,13.71-2.94,20.3-2.74,5.58-6.29,6.9-9.23,5.58s-4.06-5.07-1.42-10.66c3.79-5.7,8.36-10.82,13.6-15.22Z"/>
      <path class="cls-1" d="M99.91,292.42c-.02,6.88-1.04,13.72-3.04,20.3-2.64,5.58-6.19,6.9-9.13,5.58s-4.16-5.07-1.52-10.66c3.81-5.71,8.42-10.84,13.7-15.22Z"/>
      <path class="cls-1" d="M377.56,341.13c0,6.88-1.03,13.72-3.04,20.3-2.64,5.68-6.19,7-9.13,5.58s-4.16-4.97-1.42-10.66c3.77-5.71,8.35-10.84,13.6-15.22Z"/>
    </g>
  </g>
</svg>