<?xml version="1.0" encoding="UTF-8"?>
<svg xmlns="http://www.w3.org/2000/svg" viewBox="0 0 500 500">
  <defs>
    <style>
      .cls-1 {
        fill: #869eb4;
        fill-rule: evenodd;
      }

      .cls-1, .cls-2, .cls-3, .cls-4, .cls-5 {
        stroke-width: 0px;
      }

      .cls-2 {
        fill: #f2f5ff;
      }

      .cls-3 {
        fill: #272c32;
      }

      .cls-4 {
        fill: #dfe6fa;
      }

      .cls-5 {
        fill: #fff;
      }
    </style>
  </defs>
  <g id="stiker_style" data-name="stiker style">
    <path class="cls-5" d="M413.19,230.5l3.32-.36,2.08-2.62c4.76-6,2.96-11.28,1.96-13.27-3.04-6.07-10.87-9.18-26.17-10.4-6.01-.48-11.76-.53-15-.52-6.17-4.06-13.35-6.19-20.67-6.19-.1,0-.2,0-.29,0-1.7-5.16-3.8-9.18-6.37-12.18-11.87-13.85-40.19-22.68-75.75-23.62-4.39-.12-8.71-.1-12.95.03,4.22-.92,7.68-2.11,10.41-3.57,22,1.2,44.27.91,66.22-.85l2.82-.23,2.05-1.94c.93-.88,1.67-1.9,2.21-3.01.91-1.87,1.17-3.62,1-5.25.04.15.08.3.13.45,1.5,4.48,6.66,11.46,24.21,11.46,2.01,0,4.18-.09,6.53-.29h.02c.87-.08,1.71-.16,2.51-.25,8.28-.96,14.15-3.09,17.58-6.38l1.73.32.86-3.95c.59-1.32.92-2.76.98-4.32,0-.08,0-.16,0-.23l1.45-6.66-2.17-.54-.09-.74-2.03-.25c-1.21-1.6-2.75-3.05-4.48-4.31,2.34.54,5.15.85,8.01.85,14.46,0,16.02-7.42,16.02-10.61,0-5.87-5.63-11.8-18.2-11.8-3.24,0-6.07.53-8.39,1.58-4.34,1.96-6.93,5.78-6.93,10.22,0,1.29.31,3.65,2.16,5.81-3.57-1.38-7.25-2.12-10.33-2.12-.14,0-.27,0-.41,0-7.46,0-14.82,1.93-21.32,5.59l-.34.2c-6.59,4.15-8.42,9.61-7.91,14.03-1.14-3.61-4.21-6.6-6.7-9.03-.83-1.1-1.7-1.91-2.56-2.49l-1.12-1.09-.42.16c-12.78-7.22-27.52-9.49-43.08-6.68-2.54-4.25-6.65-7.52-11.98-9.41-8.22-2.91-18.04-2.04-26.2,1.83-15.63-28.63-46.27-37.26-70.07-32.68-20.07,3.86-34.31,16.29-37.64,32.03-6.11.83-12.01,2.89-17.36,6.09l-.57.38c-7.55,5.46-10.15,13.99-6.63,21.72,4.55,10,19.88,18.33,42.94,13.46,28.42,3.26,50.92,4.9,68.24,4.9,1.2,0,2.37,0,3.52-.02-15.93,2.58-29.71,7.11-39.92,13.28-11.54-8.73-25.37-11.27-38.78-6.93-8.38,2.71-14.82,8.09-18.63,15.57-5.78,11.35-4.47,24.96-2.85,33.1-1.31.98-2.61,2.24-3.74,3.84-.47.66-.93,1.43-1.36,2.31-7.21-2.49-15.63-2.74-22.44,3.55-5.6,5.17-6.93,11.78-5.68,18.21-9.71.66-20,4.65-24.41,16.09-.03.06-.05.12-.07.17-1.85,4.29-2.34,8.98-1.41,13.57,1.31,7.52,6.53,13.87,13.64,16.6l.54.18c14.6,4.44,29.66,5.8,44.8,4.07,3.85.46,7.75.82,11.66,1.07.07,1.22.17,2.42.3,3.62l.03.27c.84,5.81,5.06,10.47,10.75,11.88l.32.07c1.66.34,3.34.36,5,.07h.04c3.51-.48,6.64-2.21,8.91-4.9,2.4,16.43,6.84,36.88,14.86,50.47-10.4-.28-23.54.41-28.75,5.08-1.24,1.11-2.15,2.45-2.72,3.9-.95-2.41-3.16-5.27-8.22-7.17-3.12-1.17-6.94-1.83-10.49-1.83s-6.55.63-9.03,1.87c-4.25,2.12-6.79,6.09-6.79,10.63,0,3.3,1.79,10.98,18.32,10.98,2.23,0,5.49-.18,8.41-1.04,4.87-1.43,6.96-4.23,7.85-6.57.45,1.04,1.12,1.99,1.98,2.8,2.03,1.93,4.84,3.59,18.79,4.42,4.95.29,10.42.41,15.63.37.05.43.1.86.16,1.29-6,1.98-12.21,5.49-12.21,12.3,0,9.54,11.35,13.2,28.39,15.76,14.29,2.15,33.21,3.33,53.29,3.33s39.03-1.18,53.34-3.33c17.07-2.56,28.44-6.22,28.44-15.76,0-6.94-6.44-10.43-12.47-12.37.37-5.52.12-11.04-.74-16.49.97-.75,1.92-1.55,2.84-2.38,7.14.29,14.3-.13,21.34-1.26h22.18c10.13.84,20.31.18,30.25-1.96l2.04-.44,1.57-1.38c3.85-3.4,4.7-9.04,2.03-13.42l-.28-.45-.33-.41c-1.71-2.12-3.82-3.87-6.19-5.15-2.22-2.98-6.51-6.42-14.75-9.27l-.52-.16c-6.13-1.66-12.47-1.75-18.52-.32-1.54-2.41-3.87-4.72-7.23-6.61,6.12-.86,11.3-5.11,13.25-11.1l.09-.31c2.76-9.85,3.55-20,2.32-30.15l-.04-.29c-1.39-8.77-9.66-14.88-18.37-13.61l-.29.04c-.47.07-.92.18-1.37.29.96-13.18,1.26-26.2.78-37.96,16.52.97,33.21.55,49.65-1.25Z"/>
  </g>
  <g id="Bubus">
    <g>
      <g>
        <path class="cls-2" d="M305.77,270.77c-.59,14.46-19.81,13.17-19.81,13.17-7.09,4.53-15.05,7.5-23.37,8.71-13.33.35-26.65-1.05-39.61-4.16-4.37,2.33-9.21,3.61-14.16,3.76-4.5-.42-8.88-1.73-12.87-3.86-19.27,3-38.87,3.3-58.23.89-14.26,1.76-28.73.51-42.48-3.66-7.53-3.25-11-11.99-7.75-19.53.04-.09.08-.19.12-.28,6.24-16.64,30.4-9.9,30.4-9.9,0,0-11.39-13.17-2.28-21.59,9.11-8.42,23.67,3.27,23.67,3.27-2.97-13.07,7.82-14.36,7.82-14.36,0,0-12.08-36.94,14.56-45.55,26.64-8.62,48.62,17.82,48.23,36.14,26.74-15.65,54.27,8.22,42.78,38.13,4.95-6.34,14.09-7.47,20.43-2.52,4.48,3.49,6.51,9.27,5.22,14.8,3.96-9.11,26.64-11.09,27.33,4.95.1.52.1,1.06,0,1.58Z"/>
        <path class="cls-4" d="M305.77,270.77c-.59,14.46-19.81,13.17-19.81,13.17-7.09,4.53-15.05,7.5-23.37,8.71-13.33.35-26.65-1.05-39.61-4.16-4.37,2.33-9.21,3.61-14.16,3.76-4.5-.42-8.88-1.73-12.87-3.86-19.27,3-38.87,3.3-58.23.89-14.26,1.76-28.73.51-42.48-3.66-6.52-2.5-10.13-9.48-8.42-16.24,4.54,5.6,11.97,7.97,18.91,6.04,5.25-1.58,9.9-5.64,15.15-6.04,4.19-.34,8.24,1.54,10.69,4.95,1.49-3.76,5.74-5.61,9.51-4.12.76.3,1.46.72,2.08,1.25-3.69-8.33-1.84-18.07,4.65-24.46,1.98-1.94,4.57-3.13,7.33-3.37,2.85-.02,5.62.96,7.82,2.77,5.16,3.3,7.73,9.46,6.44,15.45,5.69-.8,10.94,3.17,11.74,8.85.02.12.03.24.04.36,7.08-3.57,15.57-2.88,21.98,1.78-.65-3.98.43-8.05,2.97-11.19,6.4-8.47,17.2-12.36,27.53-9.9,10.14,2.93,18.18,10.68,21.49,20.7,0,1.19.59,2.87,0,3.56,5.37-2.6,11.84-.77,15.05,4.26,10.49-6.98,22.98-10.32,35.55-9.51Z"/>
      </g>
      <path class="cls-2" d="M249.62,359.6c0,4.16-13.76,5.05-13.76,0s13.76-8.22,13.76,0Z"/>
      <g>
        <path class="cls-2" d="M259.03,348.7c.26,1.72,1.64,3.06,3.37,3.27,6.63,6.04,40.6,8.32,53.18,2.77,13.3,3.38,27.16,3.95,40.7,1.68h23.17c9.44.81,18.96.21,28.22-1.78.93-.83,1.14-2.2.5-3.27-1.47-1.82-3.43-3.2-5.64-3.96,0,0-.79-4.16-11.69-7.92-7.31-1.98-15.11-1.1-21.79,2.48,0,0,1.68-7.23-7.92-11.19-6.11-2.2-12.88-1.51-18.42,1.88-5.34-12.79-18.82-20.19-32.48-17.82-24.76,2.97-22.08,21.89-22.08,21.89,0,0-18.32-6.83-19.81,7.23-6.63-1.29-9.61,1.78-9.31,4.75Z"/>
        <path class="cls-4" d="M259.03,348.7c.26,1.72,1.64,3.06,3.37,3.27,6.63,6.04,40.6,8.32,53.18,2.77,13.3,3.38,27.16,3.95,40.7,1.68h23.17c9.44.81,18.96.21,28.22-1.78.93-.83,1.14-2.2.5-3.27-7.11,2.52-14.87,2.52-21.98,0-3.19-1.43-6.5-2.55-9.9-3.37-3.52-.79-7.16.57-9.31,3.47-4.16-2.88-9.39-3.76-14.26-2.38-1.27.6-2.66.87-4.06.79-2.18,0-3.66-2.38-5.15-3.96-6.49-6.81-17.27-7.07-24.08-.58-.2.19-.39.38-.58.58-12.25,3.92-24.98,6.15-37.83,6.63-7.51.18-14.98-1.14-21.98-3.86Z"/>
      </g>
      <g>
        <path class="cls-1" d="M264.18,385.74c-40.7,0-73.68,5.05-73.68,11.19s32.98,11.09,73.68,11.09,73.78-4.95,73.78-11.09-33.27-11.19-73.78-11.19Z"/>
        <g>
          <path class="cls-3" d="M345.97,190.16c19.21,22.48,7.63,144.18-12.77,166.66-2.71,2.98-5.85,5.55-9.31,7.63,2.13,9.1,2.33,18.54.59,27.73-1,4.65-5.15,7.93-9.9,7.82-.69.1-1.39.1-2.08,0-5.37-1.03-8.89-6.22-7.86-11.59.01-.07.03-.13.04-.2.88-5.25.88-10.6,0-15.84-27.27,5-55.27,4.39-82.29-1.78-.44,4.5-.2,9.04.69,13.47,1.5,5.26-1.54,10.74-6.8,12.24-.04.01-.09.02-.13.04h-2.67c-4.58.17-8.67-2.82-9.9-7.23-1.63-7.95-2.03-16.1-1.19-24.16v-1.58c-26.14-23.17-30.9-146.46-9.9-171.71,27.93-30.7,130.32-28.52,153.49-1.49Z"/>
          <path class="cls-3" d="M160.2,274.93c1.12-3.25,4.67-4.98,7.92-3.86,3.22,1.06,4.98,4.52,3.92,7.75-.02.06-.04.12-.06.18-1.97,6.64-2.64,13.6-1.98,20.5.46,3.36-1.9,6.45-5.26,6.91-.06,0-.13.02-.19.02-.72.15-1.46.15-2.18,0-2.51-.62-4.39-2.69-4.75-5.25-.96-8.83-.09-17.77,2.57-26.24Z"/>
          <path class="cls-3" d="M358.65,286.61c-.7-4.43,2.31-8.59,6.74-9.29.03,0,.06,0,.09-.01,4.5-.65,8.7,2.44,9.41,6.93,1.09,9.06.39,18.25-2.08,27.03-1.1,3.4-4.25,5.71-7.82,5.74-.82.09-1.65.09-2.48,0-4.15-1.33-6.51-5.7-5.35-9.9,1.89-6.66,2.39-13.64,1.49-20.5Z"/>
        </g>
        <g>
          <path class="cls-5" d="M309.04,258.98c7.55-.05,13.71,6.02,13.76,13.57.05,7.55-6.02,13.71-13.57,13.76-7.55.05-13.71-6.02-13.76-13.57,0-.07,0-.13,0-.2,0-7.49,6.07-13.57,13.57-13.57h0Z"/>
          <circle class="cls-5" cx="198.42" cy="270.27" r="12.38"/>
          <path class="cls-5" d="M320.03,252.94c-41.56-3.63-83.33-4.23-124.97-1.78-9.9,1.09-9.9-38.32,2.57-45.26,20.4-11.29,100.51-14.85,122.79-.89,12.28,7.63,13.96,49.61-.4,47.93Z"/>
          <path class="cls-5" d="M290.91,191.75c-22.81-3-45.94-2.57-68.63,1.29h-1.98c-3.46.23-6.67-1.81-7.92-5.05-1.09-3.47,1.68-6.93,6.04-7.72,24.99-4.36,50.51-4.86,75.66-1.49,3.77.14,6.72,3.31,6.58,7.08,0,.18-.02.36-.04.55-1.44,3.96-5.59,6.25-9.7,5.35Z"/>
          <ellipse class="cls-5" cx="246.75" cy="310.38" rx="13.76" ry="16.44"/>
        </g>
      </g>
      <path class="cls-5" d="M393.8,121.04c0,3.07,17.53,3.86,17.53,0s-17.53-6.14-17.53,0Z"/>
      <g>
        <path class="cls-2" d="M339.34,148.97c-22.5,1.8-45.1,2.04-67.64.69-15.05,11.29-80.21,4.06-105.86,1.09-29.51,6.83-44.46-10.99-31.19-20.6,6.18-3.71,13.29-5.56,20.5-5.35-.59-38.22,75.85-50.8,97.15,4.95,11.29-11.29,34.76-9.9,36.34,5.05,15.8-4.4,32.72-2.07,46.74,6.44,4.16,3.37,5.74,6.04,3.96,7.72Z"/>
        <path class="cls-4" d="M339.34,148.97c-22.5,1.8-45.1,2.04-67.64.69-15.05,11.29-80.21,4.06-105.86,1.09-29.51,6.83-44.46-10.99-31.19-20.6-.14,2.3.44,4.59,1.68,6.54,3.35,4.12,8.59,6.22,13.86,5.55,5.19-.82,10.11-2.86,14.36-5.94,1.93-1.59,4.2-2.71,6.63-3.27,4.49.26,8.63,2.51,11.29,6.14,1.94-6.4,8.7-10.01,15.1-8.07s10.01,8.7,8.07,15.1c10.6-2.28,21.49,3.96,32.28,2.97,12.38-1.19,23.57-11.69,35.65-9.01,3.07.69,5.94,2.18,9.01,2.87,3.06.3,6.15.3,9.21,0,9.9,0,19.81,1.29,29.71.69,4.81-.24,9.56-1.25,14.06-2.97,3.96,3.86,5.55,6.54,3.76,8.22Z"/>
      </g>
      <g>
        <path class="cls-2" d="M378.26,150.15c-22.38,1.88-27.53-7.13-18.42-12.87,5.41-3.04,11.52-4.61,17.73-4.56,6.34,0,16.44,4.95,17.03,9.9.4,3.27-3.66,6.44-16.34,7.53Z"/>
        <path class="cls-4" d="M378.26,150.15c-22.38,1.88-27.53-7.13-18.42-12.87,9.41,7.13,24.16,3.66,34.76,5.25.4,3.37-3.66,6.54-16.34,7.63Z"/>
      </g>
      <path class="cls-2" d="M341.12,210.86c-2.28,2.18-20.6-3.47-32.08,10.5,0,3.56,18.12,2.28,18.12,2.28,11.47,2.64,23.39,2.64,34.86,0,16.77,1.1,33.6.74,50.31-1.09,9.9-12.48-35.45-11.19-35.45-11.19-10.47-8.12-25.06-8.32-35.75-.5Z"/>
      <path class="cls-2" d="M165.45,372.37c0,3.56,50.01,4.36,50.01,0s-50.01-7.43-50.01,0Z"/>
      <path class="cls-2" d="M131.58,372.37c0,3.56,19.21,4.36,19.21,0s-19.21-7.43-19.21,0Z"/>
    </g>
  </g>
</svg>