<?xml version="1.0" encoding="UTF-8"?>
<svg xmlns="http://www.w3.org/2000/svg" viewBox="0 0 500 500">
  <defs>
    <style>
      .cls-1 {
        fill: #869eb4;
        fill-rule: evenodd;
      }

      .cls-1, .cls-2, .cls-3, .cls-4, .cls-5, .cls-6, .cls-7 {
        stroke-width: 0px;
      }

      .cls-2 {
        fill: #4c52bb;
      }

      .cls-3 {
        fill: #5863c5;
      }

      .cls-4 {
        fill: #272c32;
      }

      .cls-5 {
        fill: #252575;
      }

      .cls-6 {
        fill: #32318e;
      }

      .cls-7 {
        fill: #fff;
      }
    </style>
  </defs>
  <g id="stiker_style" data-name="stiker style">
    <path class="cls-7" d="M403.36,367.46c-25.1-7.71-30.67-30.06-49.48-44.92l.79-2.23-.94-.48c1.77-5.36,4.29-11.49,1.05-16.83,8.31,7.43,23.15,2.7,25.99-8.05,5.32-16.21,6.52-50.7-19.55-43.24.11-1.54.22-3.08.32-4.61,16.48-1.56,13.4-40.65,2.04-45.77-1.87-31.77-26.34-63.29-61.1-71.32-.62-7.39-5.05-13.62-12.17-15.74-4.62-9.34-14.01-14.67-23.83-12.91-11.95-7.25-26.21,2.44-29.69,14.47-7.81,2.57-10.48,8.13-10.82,16.18-39.56,15.58-53.6,53.94-55.84,76.6-5.65,8.54-13.34,31.56.25,39.51.12,8.16.54,16.32,1.21,24.32-3.99.67-7.52,3.46-9.43,7.23-1.64.03-3.47.12-5.47.27-2.98-14.25-15.36-7.42-23.96-8.85l-5.51-3.4c23.45-15.29,60.03-42.67,9.53-56.81,23.8-9.31,44.28-22.96,41.83-42.04-1.93-26.36-24.58-38.74-48.31-42.23,13.44,33.7,28.64,60.78-11.37,63.2-13.71,2.1-30.78,4.71-35.6,21.18-7.35,22.68,17.01,30.39,34.87,31.02-11.51,11.05-16.11,19.56-11.13,29.88-19.07,1.75-16.22,1.68-21.05,6.75-.14,8.49-2.48,68.65,13.08,67.73,11.66,1.99,53.75,8.24,57.4-6,14.26-1.18,16.05-1.89,21.03-7.34,1.4,7.14,2.15,13.19,2.79,19.81l1.83.17c3.61,5.21,7.16,5.36,10.94,8.34.08,1.07.18,2.14.3,3.2-10.86,2.46-29.12,1.9-30.64,15.43,0,8.77,10.41,11.44,15.41,12.73,64.68,11.74,159.69,11.71,224.32.04,17.85-2.71,22.73-20.41.93-25.26Z"/>
  </g>
  <g id="Bubus">
    <g>
      <g>
        <g>
          <path class="cls-1" d="M290.14,367.41c-65.88,0-119.43,5.61-119.43,12.55s53.55,13.12,119.43,13.12,119.75-6.08,119.75-13.12-53.76-12.55-119.75-12.55Z"/>
          <g>
            <path class="cls-4" d="M344.53,171.31c19.01,22.53,7.7,144.48-12.74,167.11-2.79,2.97-5.99,5.53-9.51,7.6,2.06,9.22,2.19,18.77.38,28.04-.96,4.53-4.88,7.82-9.51,7.98-.7.05-1.39.05-2.09,0-5.18-.83-8.72-5.7-7.89-10.88.05-.3.11-.6.19-.9.93-5.41.93-10.94,0-16.35-27.34,5.05-55.42,4.44-82.51-1.81-.43,4.51-.17,9.06.76,13.5,1.46,5.32-1.63,10.84-6.94,12.36-.92.09-1.84.09-2.76,0-4.43-.08-8.29-3.05-9.51-7.32-1.67-7.94-2.05-16.09-1.14-24.14v-1.71c-26.05-23.1-30.89-146.67-9.51-172.05,26.9-30.7,129.66-28.52,152.75-1.43Z"/>
            <path class="cls-4" d="M164.83,305.44c-2.9,1.27-6.28.12-7.79-2.66-1.9-2.38-1.52-5.85.86-7.75.06-.05.12-.09.18-.14,4.85-3.1,8.86-7.35,11.69-12.36,1.45-2.32,4.5-3.02,6.81-1.57.25.15.48.33.7.53.6.43,1.15.94,1.62,1.52,1.52,1.91,1.85,4.52.86,6.75-3.6,6.38-8.73,11.77-14.92,15.68Z"/>
            <path class="cls-4" d="M358.93,268.08c-.68-4.49,2.4-8.68,6.89-9.36,4.49-.68,8.68,2.4,9.36,6.89,1.22,9.08.5,18.31-2.09,27.09-1.02,3.45-4.19,5.82-7.79,5.8-.82.09-1.65.09-2.47,0-4.36-1.37-6.78-6-5.42-10.36,1.93-6.5,2.45-13.34,1.52-20.06Z"/>
          </g>
          <g>
            <path class="cls-7" d="M309.22,263.23c7.56-.16,13.81,5.84,13.97,13.4.16,7.56-5.84,13.81-13.4,13.97-7.56.16-13.81-5.84-13.97-13.4,0-.09,0-.19,0-.28-.05-7.47,5.93-13.58,13.4-13.69Z"/>
            <circle class="cls-7" cx="198.39" cy="274.54" r="12.45"/>
            <path class="cls-7" d="M320.25,249.73c-41.65-3.85-83.54-4.45-125.28-1.81-10.08,1.05-9.98-40.68,2.57-48.1,20.53-11.98,100.76-15.78,123.57-.95,11.79,8.08,13.69,52.76-.86,50.85Z"/>
            <path class="cls-3" d="M355.8,214.85s7.7-70.25-72.53-80.51c-99.24-12.74-109.22,78.61-104.56,86.88,4.66,8.27,166.92-1.52,177.09-6.37Z"/>
          </g>
        </g>
        <path class="cls-2" d="M267.3,141.85s2.38,15.21-4.28,15.97-11.31,2.38-14.45-4.47c-3.14-6.84,8.65-11.79,7.03-6.56-1.62,5.23-9.7,13.12-16.82,1.05-7.13-12.07-6.84-26.71,4.37-24.24,11.22,2.47,7.51,12.83,1.71,8.65-5.8-4.18,1.05-27.28,13.78-25.19,12.74,2.09,12.83,19.58,7.13,17.78-4.07-2.3-5.5-7.46-3.21-11.53,1.78-3.15,5.36-4.82,8.91-4.16,13.59,1.33,17.01,21.67,11.98,25.76s-13.78-16.35,3.14-13.31,3.42,36.03-7.89,28.52c-11.31-7.51-1.24-12.36.76-9.51s-11.03,17.97-15.4,9.51c-4.37-8.46,3.23-8.27,3.23-8.27Z"/>
        <path class="cls-2" d="M179.18,210.38s30.61-9.51,178.04-2.85c8.94,0,10.27,29.56,3.61,31.56-6.65,2-172.91,7.41-184.98,2.85-12.07-4.56.48-31.27,3.33-31.56Z"/>
        <path class="cls-6" d="M188.31,242.7c.43-10.68,1.61-21.32,3.52-31.84h1.9c-1.89,10.33-3.09,20.78-3.61,31.27l-1.81.57Z"/>
        <path class="cls-6" d="M217.3,243.65c-.76-4.75,1.14-36.03,1.24-37.36h1.9c-.67,11.22-1.81,33.27-1.24,36.98l-1.9.38Z"/>
        <path class="cls-6" d="M254.18,243.46h-1.81c1.34-12.63,1.75-25.34,1.24-38.02h1.9c.51,12.69.06,25.4-1.33,38.02Z"/>
        <path class="cls-6" d="M287.45,242.6h-1.9v-36.88h1.81c0,1.14.29,33.74.1,36.88Z"/>
        <path class="cls-6" d="M344.87,240.42l-1.52-.57c1.04-10.77,1.33-21.6.86-32.41h1.9c.25,11.01-.16,22.02-1.24,32.98Z"/>
        <path class="cls-6" d="M315.87,240.99h-1.81c.46-11.39.08-22.79-1.14-34.13h1.9c1.13,11.34,1.48,22.74,1.05,34.13Z"/>
      </g>
      <path class="cls-7" d="M143.73,138.14c14.83,3.63,25.66,16.35,26.9,31.56,3.8,27.57-68.73,43.54-68.73,43.54,0,0,57.7,4.37,51.71,20.53-5.99,16.16-46.67,30.8-34.98,38.02,0,0-16.63-5.7,7.6-26.24,24.24-20.53-44.49-.86-35.27-32.32,9.22-31.46,87.36,8.17,52.76-75.09Z"/>
      <path class="cls-7" d="M170.82,289.47c-.38-2.64-11.65-1.91-21.1-.82-.53-5.76-1.15-9.64-1.71-9.64-51.8,0-54.09,2.66-54.09,2.66,0,0-1.33,55.04,6.75,56.84,15.37,3.13,31.17,3.51,46.67,1.14,1.3-.14,2.16-2.99,2.72-7.27,7.39.18,16.36-.24,20-2.99,6.65-5.04.76-39.92.76-39.92ZM164.36,322.74c-.64,1.28-7.09,1.32-13.63,1.03.32-8.06.1-17.83-.37-26.24,4.01-.63,8.11-1.37,9.63-1.98,3.33-1.33,5.7,24.52,4.37,27.19Z"/>
      <path class="cls-4" d="M100.29,285.19s46.48-4.18,44.49,0c-3.8,7.89-31.65,22.81-44.49,0Z"/>
      <circle class="cls-4" cx="161.6" cy="301.92" r="6.84"/>
      <g>
        <path class="cls-5" d="M353.42,332.72c-2.43-2.4-6.25-5.39-9.18-7.14-3.47,9.32-8.26,18.09-14.24,26.04,3.4,2.93,6.38,6.42,9.25,9.8,1.98-9.9,7.4-20.87,15.49-27.47-.4-.46-.84-.87-1.33-1.24Z"/>
        <path class="cls-6" d="M382.7,381.39c-.85-.32-1.68-.7-2.47-1.14-4.09-2.57-4.56-8.84-8.56-11.6-3.99-2.76-8.08-1.71-10.65-4.66s-.86-9.98-4.18-13.4-7.22-1.9-10.74-3.42l-1.33-.76c-2.67,4.61-4.47,9.67-5.32,14.92h0c4.47,5.42,8.56,11.03,12.83,16.54,8.15,7.97,20.66,9.42,30.42,3.52Z"/>
        <path class="cls-3" d="M346.1,347.17c3.52,1.52,8.08.67,10.74,3.42,2.66,2.76,1.05,9.51,4.18,13.4s7.41,2.38,10.65,4.66,4.47,9.03,8.56,11.6c.8.44,1.62.82,2.47,1.14,4.68-2.25,9.06-5.1,13.02-8.46h0c-8.41-3.55-15.97-8.87-22.15-15.59-6.46-7.13-11.31-15.68-17.97-22.62l-.67-.57c-4.12,3.49-7.6,7.67-10.27,12.36l1.43.67Z"/>
      </g>
      <path class="cls-6" d="M331.18,323.88c-4.47,2.47-9.51,7.79-13.12,4.28-1.31-2.34-1.87-5.03-1.62-7.7,0-2.76-1.24-5.89-3.61-5.8-1.69.43-3.17,1.44-4.18,2.85-2.97,3.74-6.7,6.82-10.93,9.03-3.77,2.04-8.45,1.3-11.41-1.81-1.91-3.14-3.38-6.53-4.37-10.08-1.43-3.33-4.66-6.27-7.98-4.56-3.33,1.71-4.18,6.37-5.7,10.08-2.54,6.61-8.55,11.27-15.59,12.07-1.61.21-3.24-.27-4.47-1.33-2.28-2.09-2-6.27-2.47-9.51-.95-7.79-8.56-13.97-14.83-9.51-3.38,3.27-5.64,7.53-6.46,12.17-.74,4.67-2.56,9.1-5.32,12.93-3.04,3.52-8.75,4.18-10.17,0-.29-1.54-.29-3.12,0-4.66l.38-15.3c0-2.09,0-4.56-1.33-5.61-1.45-.66-3.14-.44-4.37.57-4.61,3.61-7.76,8.78-8.84,14.54-1.43,5.61-1.71,11.31-2.85,16.92-.04.74-.27,1.46-.67,2.09-1.05,1.05-2.38.57-3.42,0,.57,5.61,5.51,5.8,8.27,8.17,12.07,10.55,127.95,5.04,133.08-.95,6.67-8.62,11.93-18.25,15.59-28.52-4.24-2.16-9.23-2.3-13.59-.38Z"/>
      <path class="cls-3" d="M191.26,345.55c.53-.66.85-1.45.95-2.28,1.14-5.61,1.43-11.31,2.85-16.92,1.17-5.62,4.3-10.64,8.84-14.16,1.23-1.01,2.93-1.23,4.37-.57,1.52,1.05,1.52,3.52,1.33,5.61l-.95,15.49c-.29,1.54-.29,3.12,0,4.66,1.43,3.99,7.13,3.33,10.17,0,2.76-3.83,4.59-8.26,5.32-12.93.82-4.64,3.08-8.89,6.46-12.17,6.27-4.66,13.88,1.52,14.83,9.51.48,3.52,0,7.7,2.47,9.51,1.23,1.06,2.86,1.54,4.47,1.33,7.04-.8,13.05-5.46,15.59-12.07,1.52-3.71,2.47-8.46,5.7-10.08,3.23-1.62,6.56,1.24,7.98,4.56,1.11,3.43,2.68,6.69,4.66,9.7,2.96,3.11,7.63,3.85,11.41,1.81,4.22-2.16,7.94-5.17,10.93-8.84,1.02-1.41,2.5-2.42,4.18-2.85,2.38,0,3.52,3.04,3.61,5.8-.26,2.67.31,5.36,1.62,7.7,3.23,3.52,8.65-1.81,13.12-4.28,4.3-2.04,9.29-2.04,13.59,0,0-5.8,4.66-13.02,3.33-16.63-1.71-5.13-154.37-21.2-164.64-16.63-7.89,3.42,2.09,35.74,4.09,54.66,1.05.1,2.38.86,3.71.1Z"/>
    </g>
  </g>
</svg>