<?xml version="1.0" encoding="UTF-8"?>
<svg xmlns="http://www.w3.org/2000/svg" viewBox="0 0 500 500">
  <defs>
    <style>
      .cls-1 {
        fill: #272c32;
      }

      .cls-1, .cls-2, .cls-3, .cls-4 {
        stroke-width: 0px;
      }

      .cls-2 {
        fill: #c8d2ec;
      }

      .cls-3 {
        fill: #aebcdc;
      }

      .cls-4 {
        fill: #fff;
      }
    </style>
  </defs>
  <g id="stiker_style" data-name="stiker style">
    <path class="cls-4" d="M409.97,298.78c-2.17-7.61-6.45-13.37-12.1-16.52l-.02-.23-1.68-.62c-.85-.38-1.72-.7-2.63-.97l-.52-.19c-11.17-4.13-20.83-4.68-28.9-1.68-1.72-6.37-5.15-9.72-7.67-11.4-4.39-2.92-9.83-3.38-14.62-1.33.2-1.57.39-3.15.58-4.75,1.53-2.63,2.67-5.51,3.63-7.91.16-.4.34-.86.52-1.3,7.61-2.73,14.41-7.62,19.39-14.01l.28-.38c7.28-10.58,2.23-19.71-.49-24.61-.36-.65-.73-1.32-1.05-1.94,3.15-2.1,8.59-5.95,9.77-14.06.96-6.61-1.9-10.28-3.7-11.88-5.27-4.7-12.78-3.03-18.08-1.64-1.92-3.19-5.79-9.58-13.43-9.77-2.26-6.03-5.64-11.36-10.77-15.97.29-.54.53-1.1.72-1.7,1.65-5.1-.67-10.04-6.91-14.69-.19-.69-.41-1.71-.58-2.52-1.31-6.16-3.76-17.61-17.45-21.13-5.79-1.49-9.84-1.84-12.8-2.1-4-.35-4.42-.39-6.8-2.57l-.12-.11c-5.86-5.15-12.71-10-19.12-6.88-3.48,1.69-5.49,5.31-5.25,9.44.44,7.58,9.01,18.85,20.65,23.05.07.34.15.72.21,1.12-1.47-.23-2.96-.44-4.46-.63-5.93-7.74-14.64-12.81-26-15.16.76-.47,1.45-.99,2.06-1.54,3.98-3.58,5.37-8.83,3.55-13.38-1.9-4.74-6.61-7.46-12.59-7.29l-.48.03c-4.92.43-8.95-2.22-15.13-6.59-6.61-4.68-14.79-10.49-25.9-9.56-9.98-.61-17.86,5.27-23.65,9.6l-.29.21c-4.4,2.23-9.78,3.77-15.45,5.4-13.91,3.98-29.67,8.5-36.56,25.32l-.19.45-.13.47c-2.81,10.32,3.21,18.26,7.2,23.51.87,1.15,2.05,2.7,2.76,3.86-8.97,6.69-10.65,13.65-10.37,18.53.31,5.48,3.34,13.18,15.5,19.8l.1.31,3.2,1.35,3.3,1.55c.7.34,1.43.69,2.19,1.03l1.71.8c-.94,5.89-1.67,12.34-2.17,19.18-11.99-5.86-24.31-5.67-35.17.85-20.98,12.59-30.57,45.84-22.86,79.16,3.82,26.58,29.17,42.4,46.93,52.29-7.92,1.59-11.43,7.71-11.37,13.45.05,4.6,1.95,8.55,4.67,11.36-6.64,1.26-15.66,4.58-15.78,14.85,0,6.08.74,14.81,7.16,20.5,4.53,4.01,10.23,5.33,17.51,5.33,5.73,0,12.43-.82,20.31-1.77,3.06-.37,6.33-.77,9.8-1.15,30.88-2.78,131.29-3.27,149.91-2.37l8,.38.02-.49c13.99.26,26.06.25,32.3-2.46l.39-.18c7.8-3.89,7.16-12.47,6.84-16.64l.13-.04c7.1-2.12,18.94-5.66,21.89-19.13,3.75-13.47-3.42-21.55-7.29-25.91-.15-.17-.32-.36-.49-.55.63-.45,1.48-1.01,2.61-1.68l.22-.13c1.59-1.01,3.38-2.03,5.28-3.11,4.56-2.6,9.73-5.55,13.77-9.33l.08-.07c7.96-7.66,8.63-21.53,5.88-31.16ZM334.23,316.95c.92.99,1.94,1.85,3.02,2.55-3.82,11.28-7.16,14.32-12.55,15.59,3.14-5.56,5.77-12.27,8.02-20.01.45.65.95,1.28,1.5,1.87ZM199.49,128.19l.91-.03.88-.24c5.07-1.37,9.1-3.45,12.34-5.12,3.52-1.82,5.73-2.96,8.04-2.96,1.78,0,3.63.68,6.2,2.24-18.12.86-34.93,10.67-43.68,25.7.14-.58.26-1.17.37-1.77l.11-.85c.92-12.92,4.11-16.57,14.83-16.96Z"/>
  </g>
  <g id="Bubus">
    <g>
      <g>
        <path class="cls-1" d="M326.57,166.7c19.75,23.1,7.8,148.11-13.13,171.01-2.92,3.02-6.24,5.61-9.87,7.7,2,9.44,2,19.19,0,28.63-.87,4.75-5.05,8.18-9.87,8.1-.69.1-1.39.1-2.07,0-5.37-.94-8.97-6.05-8.03-11.43.04-.21.08-.42.13-.62,1.13-5.49,1.3-11.14.49-16.69-27.97,5.15-56.7,4.51-84.42-1.88-.44,4.62-.21,9.27.69,13.82,1.56,5.22-1.41,10.73-6.63,12.29-.06.02-.12.04-.18.05-.88.14-1.78.14-2.67,0-4.62.15-8.72-2.93-9.87-7.41-1.73-8.14-2.13-16.51-1.18-24.78v-1.68c-26.66-23.7-31.6-150.08-9.87-176.05,27.65-31.2,132.7-28.83,156.5-1.09Z"/>
        <path class="cls-1" d="M339.8,282.71c-.87-4.55,2.11-8.95,6.66-9.83,4.55-.87,8.95,2.11,9.83,6.66.04.23.08.46.1.7,1.14,9.29.43,18.72-2.07,27.75-1.14,3.45-4.36,5.8-8,5.83-.85.15-1.72.15-2.57,0-4.43-1.36-6.92-6.06-5.55-10.49,0-.02.02-.05.02-.07,1.94-6.66,2.48-13.66,1.58-20.54Z"/>
      </g>
      <g>
        <path class="cls-2" d="M398.55,324.18c7.7-7.01,6.42-30.12-4.94-34.95l-3.36-1.38c-24.59-9.08-35.84,2.07-43.35,27.45s-12.54,26.26-27.25,28.63c-14.71,2.37-9.87-18.86-8.69-27.05s-7.01-11.26-13.43-8.29c-6.42,2.96-13.63,13.53-21.03-1.28-7.41-14.81,1.68-20.54,14.22-32.68,27.25-24.78,35.05-64.38,27.84-82.84s-29.62-23.1-36.93-23.99-2.57-7.01-8.59-19.75c-5.87-10.14-16.53-16.55-28.24-16.98-6.54-.88-13.16-1.11-19.75-.69-21.81,1.98-38.85,19.7-39.99,41.57-1.68,18.27,7.7,25.47,5.13,28.83s-11.26-1.28-15.5,4.74c-7.01,8.69,0,16.29,0,29.62s-9.87,11.16-13.13,3.55c-6.84-13.64-22.21-20.73-37.03-17.08-19.16,6.12-34.06,34.95-25.47,73.76,8.59,38.8,58.65,52.53,59.93,56.77,1.28,4.25-7.5,3.65-18.07,4.64s-5.53,13.23,0,13.63c5.53.39,2.76,8.29.69,9.87s-17.87,0-17.97,8.49c0,23.6,15.21,18.17,48.09,14.71,5.23-.59,10.76-1.09,16.88-1.38,13.03-.69,29.62-1.09,47.3-1.28h85.61s24.68,0,33.57-.79,2.57-12.34,5.53-16.09,16.98,0,21.52-15.11c4.54-15.11-8.99-17.77-9.18-24.59s18.17-12.84,25.57-20.04Z"/>
        <g>
          <path class="cls-2" d="M318.37,378.79c13.8,2.24,27.66-3.63,35.64-15.11,6.71-10.56-4.84-12.14-6.62-27.94s22.91-21.43,36.73-33.37c4.26-3.61,6.53-9.04,6.12-14.61-24.59-9.08-35.84,2.07-43.35,27.45-7.5,25.38-12.54,26.36-27.25,28.73-14.71,2.37-9.87-18.86-8.69-27.05s-7.01-11.26-13.43-8.29c-6.42,2.96-13.63,13.53-21.03-1.28-7.41-14.81,1.68-20.54,14.22-32.68,27.25-24.78,35.05-64.38,27.84-82.84s-29.62-23.1-36.93-23.99-2.57-7.01-8.59-19.75c-5.87-10.14-16.53-16.55-28.24-16.98-12.74,5.23-28.73,13.63-28.04,22.91,1.09,15.3,21.82,36.04,15.5,54.01-6.32,17.97-26.26,27.35-28.14,34.26s7.8,37.92-7.7,44.14-58.55-8.89-47.79,21.82c10.76,30.71,37.03,33.67,24.78,47.69s-38.51,28.93-31.89,38.21c3.26,4.44,16.59,7.6,29.62,9.87,5.23-.59,10.76-1.09,16.88-1.38,13.03-.69,29.62-1.09,47.3-1.28,10.03-4.83,19.7-10.38,28.93-16.59,14.32-10.47,39-7.9,54.11-5.92Z"/>
          <path class="cls-3" d="M141.53,394.09c-6.62-9.28,19.75-24.09,31.89-38.21,12.14-14.12-14.12-16.98-24.78-47.69-10.66-30.71,32.19-15.6,47.79-21.82,15.6-6.22,5.92-37.13,7.7-44.14s21.92-16.29,28.14-34.26c6.22-17.97-14.42-38.71-15.5-54.01-.69-9.28,15.3-17.67,28.04-22.91-6.54-.88-13.16-1.11-19.75-.69-21.81,1.98-38.85,19.7-39.99,41.57-1.68,18.27,7.7,25.47,5.13,28.83s-11.26-1.28-15.5,4.74c-7.01,8.69,0,16.29,0,29.62s-9.87,11.16-13.13,3.55c-6.84-13.64-22.21-20.73-37.03-17.08-19.16,6.12-34.06,34.95-25.47,73.76,8.59,38.8,58.65,52.53,59.93,56.77,1.28,4.25-7.5,3.65-18.07,4.64s-5.53,13.23,0,13.63c5.53.39,2.76,8.29.69,9.87s-17.87,0-17.97,8.49c0,23.6,15.21,18.17,48.09,14.71-13.63-1.78-26.96-4.94-30.21-9.38Z"/>
          <path class="cls-3" d="M320.74,401.3s24.68,0,33.57-.79c8.89-.79,2.57-12.34,5.53-16.09,2.96-3.75,16.98,0,21.52-15.11,4.54-15.11-8.99-17.77-9.18-24.59-.2-6.81,18.96-13.33,26.36-20.54,7.41-7.21,6.42-30.12-4.94-34.95l-3.36-1.38c.41,5.57-1.86,11-6.12,14.61-13.82,11.95-38.41,17.67-36.73,33.37s13.33,17.97,6.62,27.84c-8.06,11.36-21.91,17.11-35.64,14.81-15.11-1.97-39.5-4.54-54.31,5.73-9.24,6.21-18.9,11.76-28.93,16.59,41.57-.1,85.61.49,85.61.49Z"/>
        </g>
      </g>
      <g>
        <path class="cls-4" d="M288.65,260.79c7.74-.05,14.06,6.18,14.12,13.92.05,7.74-6.18,14.06-13.92,14.12s-14.06-6.18-14.12-13.92c0-.03,0-.07,0-.1-.05-7.69,6.13-13.97,13.82-14.02.03,0,.07,0,.1,0Z"/>
        <circle class="cls-4" cx="175.3" cy="272.35" r="12.74"/>
        <path class="cls-4" d="M299.91,246.97c-42.67-3.97-85.59-4.59-128.36-1.88-9.87,1.09-9.87-41.67,2.57-49.37,20.93-12.24,103.08-16.19,125.89-.99,12.93,8.49,14.81,54.11-.1,52.23Z"/>
        <path class="cls-4" d="M270.09,176.08c-23.36-3.89-47.25-3.32-70.4,1.68h-1.97c-3.92,0-7.32-2.7-8.2-6.52-.98-4.44,1.79-8.84,6.22-9.87,25.51-5.62,51.86-6.25,77.61-1.88,4.58.9,7.56,5.34,6.66,9.92-.9,4.58-5.34,7.56-9.92,6.66Z"/>
      </g>
      <ellipse class="cls-4" cx="226.74" cy="315.5" rx="13.43" ry="16.19"/>
      <g>
        <path class="cls-2" d="M243.82,109.53c-5.64.33-11.23-1.31-15.8-4.64-1.99-1.4-3.91-2.92-5.73-4.54-6.27-1.62-12.91-.99-18.76,1.78-9.87,5.83-8.69,14.22-22.71,14.61-14.02.39-24.98,4.84-24.39,16.29.59,11.45-.39,23.3-6.32,27.45-5.92,4.15-5.83,16.88-2.67,26.46l3.16,1.48c2.96,1.38,8.1,3.95,11.45,2.57,1.11-.39,1.88-1.4,1.97-2.57.1-.82.1-1.65,0-2.47-.81-2.58-2.08-4.98-3.75-7.11l-.69-.79c-1.81-1.56-2.64-3.98-2.17-6.32.51-2.08,1.57-3.99,3.06-5.53,3.36-3.36,7.41-5.92,10.47-9.87,2.89-3.36,4.86-7.41,5.73-11.75.5-4.37,1.36-8.7,2.57-12.93,1.16-3.6,3.63-6.62,6.91-8.49,4.2-1.53,8.58-2.53,13.03-2.96,3.86-.92,7.55-2.42,10.96-4.44,2.92-2.18,6.3-3.66,9.87-4.34,4.61.73,9.06,2.26,13.13,4.54,3.36,1.09,8.99,3.75,12.34,1.68,5.23-3.16,4.25-8.69-1.68-8.1Z"/>
        <path class="cls-3" d="M150.12,160.48c5.92-4.15,7.11-16.09,6.52-27.45-.59-11.35,10.47-16.19,24.39-16.19s13.13-8.89,22.51-14.71c5.8-2.72,12.36-3.35,18.56-1.78l-1.38-1.09c-5.38-3.93-11.9-5.98-18.56-5.83-3.39-.12-6.76.52-9.87,1.88-3.65,1.88-6.71,4.64-9.87,6.71-6.08,3.08-12.56,5.31-19.25,6.62-7.01,1.69-13.69,4.57-19.75,8.49-4.55,2.71-8.03,6.89-9.87,11.85-.78,5.63.99,11.31,4.84,15.5,2.47,3.36,8.89,9.87,4.94,14.32-.69.68-1.45,1.27-2.27,1.78-4.05,2.76-8.59,7.21-7.8,12.44.48,2.67,1.83,5.1,3.85,6.91,3.11,2.81,6.6,5.17,10.37,7.01-3.16-9.58-2.17-23.1,2.67-26.46Z"/>
      </g>
      <path class="cls-2" d="M283.71,130.95c6.52,2.37,3.85,4.64,6.81,15.01,2.96,10.37,15.21,10.37,23.5,10.37,2.67.13,5.31-.71,7.41-2.37,1.78-1.68-.99-3.65-5.04-7.11-4.05-3.46-.69-18.07-14.12-21.52-13.43-3.46-15.9,0-23.01-6.52-7.11-6.52-10.86-7.6-11.16-3.36-.3,4.25,9.08,13.13,15.6,15.5Z"/>
      <path class="cls-2" d="M327.85,260.99c-2.21-.78-3.38-3.2-2.6-5.41.18-.51.46-.99.82-1.4,4.04-5.44,6.1-12.09,5.83-18.86.89-11.85,12.44-13.53,13.53-19.16-.49-7.12-2.95-13.96-7.11-19.75-3.16-5.73-7.11-14.22,0-14.81,7.11-.59,7.8,11.45,12.93,10.37,5.13-1.09,16.69-5.73,15.3,3.75-1.38,9.48-12.24,8.49-10.47,15.21s9.87,12.84,3.55,22.02c-4.66,5.98-11.14,10.28-18.46,12.24-2.47,1.58-5.53,19.75-13.33,15.8Z"/>
    </g>
  </g>
</svg>