<?xml version="1.0" encoding="UTF-8"?>
<svg xmlns="http://www.w3.org/2000/svg" xmlns:xlink="http://www.w3.org/1999/xlink" viewBox="0 0 500 500">
  <defs>
    <style>
      .cls-1 {
        clip-path: url(#clippath);
      }

      .cls-2 {
        fill: none;
      }

      .cls-2, .cls-3, .cls-4, .cls-5, .cls-6, .cls-7, .cls-8, .cls-9, .cls-10, .cls-11 {
        stroke-width: 0px;
      }

      .cls-12 {
        opacity: .6;
      }

      .cls-3 {
        fill: #f2f5ff;
      }

      .cls-4 {
        fill: #5863c5;
      }

      .cls-5 {
        fill: #a52626;
      }

      .cls-6 {
        fill: #272c32;
      }

      .cls-7 {
        fill: #24246d;
      }

      .cls-8 {
        fill: #859cb2;
      }

      .cls-9 {
        fill: #32318e;
      }

      .cls-10 {
        fill: #fff;
      }

      .cls-11 {
        fill: #ff3a3a;
      }
    </style>
    <clipPath id="clippath">
      <path class="cls-2" d="M165.8,245.08c3.11,2.16,49.29-30.11,48.75-32.41-2.67-4.27-7.05-7.17-12.02-7.97-4.73,0-42.67,36.19-36.73,40.37Z"/>
    </clipPath>
  </defs>
  <g id="stiker_style" data-name="stiker style">
    <g>
      <path class="cls-10" d="M424.24,425.72c-8.03-1.78-18.47-3.42-30.74-4.83,48.97-42.98,25.71-137.73-28.12-169.52,18.66-23.52,32.25-58.92,37.43-97.69,12.28,4.36,44.26.58,30.65-19.4-1.73-1.75-4.09-3.35-6.64-3.22,15.41-17.47-5.42-37.04-24.31-12.76-1.16-10.56-3.66-24.43-17.41-23.18-14.99,1.5-15.96,15.66-12.02,27.1-10.42-5.02-23.42-1.69-22.15,9.51,4.79,14.29,20.29,13.6,29.82,18.25-8.79,32.1-14.51,65.4-35.48,92.21-5.89-1.78-11.87-2.83-17.89-3.15-.54-4.31-2.9-8.52-5.12-12.22l-.28-.02c-2-3.61-4.43-6.95-7.28-9.97-3.36-93.72-6.31-160.13-109.38-137.65-101.1,17.25-93.34,76.11-58.37,174.18-8.08,13.7-.43,40.15,7.62,54.26-29.55-8.67-52.52-29.3-77.11-46.85,5.19-8.84,13.57-17.36,13.36-28.35-.8-7.75-10.41-11.91-16.63-7.24-3.19,2.6-5.84,5.84-7.98,9.32-3.81-11.25-15.92-20.99-27.29-12.49-10.43,7.51-2.89,19.75,2.03,28.27-9.31-1.62-22.91-3.9-25.91,8.17-2.62,9.35,6.24,15.29,14.48,16.4-7.15,6.8-2.34,19.92,7.66,20.06,11.77-.36,18.85-9.61,25.79-16.93,15.31,14.99,55.67,46.35,92.86,52.95-8.69,25.2-4.99,70.92,12.73,89-20.67,3.49-62.2,3.26-64.1,22.27,0,9.96,12.7,13.42,18.8,15.08,87.59,16.59,219.2,16.59,306.79,0,27.06-5.94,24.62-26.97-5.82-31.59Z"/>
      <path class="cls-10" d="M51.17,186.2c11.74,16.48,34.22-6.98,16.72-18.06-11.14-6.8-24.19,7.46-16.72,18.06Z"/>
      <path class="cls-10" d="M78.73,143.68c-14.48,8.66-1.66,31.84,13.45,24.14,18.41-8.62,3.54-35.54-13.45-24.14Z"/>
      <path class="cls-10" d="M51.19,333.63h-1.45c-12.61-10.51-30.87,5.21-22.32,19.26,13.29,18.76,38.13-1.56,23.77-19.26Z"/>
      <path class="cls-10" d="M323.19,63.78c17.07-.11,17.06-25.98-.06-25.96-17.15,1.28-16.13,25.9.06,25.96Z"/>
      <path class="cls-10" d="M321.97,103.97c-6.26,17.68,19.86,27.73,28.47,11.95,10.49-20.24-21.16-33.35-28.47-11.95Z"/>
      <path class="cls-10" d="M69.67,91.23c17.2,6.55,30.63-21.01,11.84-28.02-17.31-5.93-29.22,20.33-11.84,28.02Z"/>
      <path class="cls-10" d="M425.17,259.96c18.87-.63,18.83-28.01-.09-28.58-18.63.55-18.79,28,.09,28.58Z"/>
      <path class="cls-10" d="M431.17,215.63c-.1-14.67-22.42-14.67-22.47.03.1,14.67,22.42,14.67,22.47-.03Z"/>
      <path class="cls-10" d="M471.07,266.3c-15.71-4.6-24.32,19.25-11.03,27.07,17.35,9.29,30.15-21.43,11.03-27.07Z"/>
      <path class="cls-10" d="M116.69,423.82c3.85-12.14-9.52-22.35-20.2-16.94l-.09.13c-11.84,4.52-10.87,22.95,1.34,26.36,7.59,2.38,16.76-1.54,18.95-9.56Z"/>
    </g>
  </g>
  <g id="Bubus">
    <g>
      <g>
        <g>
          <path class="cls-6" d="M304.24,241.17c8.02-39.28-3.75-132.52-23.67-148.14-27.01-21.47-124.77-3.92-144.35,30.11-13.46,24.56,6.22,116.39,30.95,151.1l137.06-33.07Z"/>
          <g>
            <path class="cls-10" d="M263.02,174.59c7.13-1.25,13.97,3.33,15.53,10.4,1.6,7.28-3,14.49-10.29,16.09-7.28,1.6-14.49-3-16.09-10.29-1.6-7.28,3-14.49,10.29-16.09.19-.04.37-.08.56-.11Z"/>
            <path class="cls-10" d="M184.43,222.39c12.34,7.4,27.58,8.06,40.51,1.76,7.37-3.35,14.13-7.91,19.98-13.5,3.16-3.17,8.29-3.18,11.46-.02,0,0,.01.01.02.02,3.17,3.05,3.26,8.1.21,11.26-.07.07-.14.14-.21.21-10.89,10.28-24.38,17.38-39.02,20.52-14.27,3.07-29.17.5-41.59-7.16-3.81-2.21-5.1-7.08-2.9-10.89.06-.11.13-.21.2-.32,2.59-3.65,7.64-4.51,11.3-1.92.02.01.03.02.05.03Z"/>
            <circle class="cls-10" cx="160.13" cy="206.32" r="12.02"/>
            <path class="cls-10" d="M270.86,164.87c-40.16,4.25-79.94,11.61-118.96,22.01-9.45,2.97-17.28-36.73-6.75-46.05,17.15-15.26,92.5-34.03,116.4-24.17,13.23,5.4,23.5,47.26,9.32,48.21Z"/>
            <path class="cls-10" d="M230.08,108.43c-22.37.74-44.41,5.69-64.95,14.58h-1.76c-3.61.77-7.27-1.09-8.78-4.46-1.74-3.99,0-8.64,3.92-10.53,22.6-9.9,46.9-15.35,71.57-16.07,4.35.07,7.83,3.62,7.83,7.97.37,4.31-2.82,8.11-7.13,8.48-.23.02-.47.03-.7.03Z"/>
          </g>
        </g>
        <ellipse class="cls-8" cx="276.66" cy="442.23" rx="164.2" ry="18.9"/>
        <path class="cls-6" d="M190.51,322.45l-.27.27c-24.65-1.83-48.56-9.22-69.95-21.6-19-11.32-35.44-26.12-53.89-38.13,3.22-4.75,6.3-9.57,9.33-14.54,3.71-4.19,6.19-9.33,7.16-14.85-.11-1.41-1.34-2.47-2.75-2.36-.47.04-.92.2-1.3.47-4.08,3.63-7.11,8.3-8.78,13.5-1.97,4.03-3.84,8.05-5.71,12.08-.74-4.3-1.75-8.55-3.33-12.62-1.19-6.07-3.99-11.72-8.1-16.34-4.46-3.65-13.5,0-10.94,6.35,2.43,5.52,5.28,10.84,8.51,15.93,1.86,3.39,4.08,6.55,6.48,9.58l-12.28-.94c-5.79-1.41-11.73-2.18-17.69-2.3-3.92,0-6.35,5.81-2.16,8.1,5.81,2.39,12.11,3.32,18.36,2.7,4.02.04,8.01-.39,11.96-1.04-2.9,2.46-5.75,4.99-8.99,6.98-3.78,2.3-9.45,3.92-11.75,7.97-.9,1.8-.16,3.99,1.64,4.89.46.23.96.36,1.47.38,5,0,10.26-4.73,13.5-7.97,4.06-3.81,7.69-8.07,10.8-12.69.1-.16,1.01.56,1.35.81,30.52,30.52,81.83,65.22,127.34,56.58.67,0,0-1.08,0-1.21Z"/>
        <path class="cls-10" d="M205.77,268.44c11.21,20.79-46.18,27.01-46.05,93.17s36.59,81.02,129.77,80.34c93.17-.68,122.88-36.59,122.88-88.72s-41.86-109.65-93.31-106.14"/>
        <path class="cls-3" d="M327.43,407.66c-21.07,4.59-42.78,5.41-64.14,2.43-21.72-.92-43.13-5.49-63.33-13.5-15.03-7.18-28.72-16.86-40.51-28.63,2.3,60.36,39.43,74.27,129.63,74.13,92.9,0,122.74-36.46,122.88-88.45-27.01,20.39-51.85,45.1-84.53,54.01Z"/>
        <g>
          <g>
            <path class="cls-9" d="M361.06,423.73l1.35-1.08c-2.96-2.68-6.17-5.08-9.59-7.16-6.64-4.38-13.04-9.11-19.17-14.18-3.96-2.46-6.71-6.48-7.56-11.07.13-2.61.13-5.22,0-7.83-.68-3.78-4.32-6.21-5.94-9.72-2.7-6.21,1.49-13.5-.95-20.12s-8.1-8.1-8.91-13.5c-.81-5.4,6.75-12.29,5.4-18.9-1.35-6.62-7.02-7.7-9.86-12.15-1.93-4.28-3.16-8.84-3.65-13.5-1.84-7.19-6.79-13.18-13.5-16.34-1.67-.62-3.19-1.59-4.46-2.84-2.16-2.7-.95-6.62-.68-9.99.4-5.61-1.97-11.06-6.35-14.58l-1.08-.68-15.39,13.5c12.91,11.25,21.42,26.7,24.04,43.62,2.5,16.78,4.13,33.68,4.86,50.64.68,17.05,5.7,33.64,14.58,48.21,6.24,8.94,14.65,16.14,24.44,20.93,6.02,3.4,13.03,4.63,19.85,3.51,4.59-1.39,8.86-3.69,12.56-6.75Z"/>
            <path class="cls-4" d="M283.82,265.33c0,3.38-1.49,7.29.68,9.99,1.27,1.25,2.79,2.22,4.46,2.84,6.72,3.16,11.67,9.15,13.5,16.34.49,4.67,1.72,9.23,3.65,13.5,2.84,4.46,8.91,7.02,9.86,12.15s-6.35,12.29-5.4,18.9,6.89,8.51,8.91,13.5c2.03,5-1.76,13.5.95,20.12,1.62,3.51,5.27,5.94,5.94,9.72.13,2.61.13,5.22,0,7.83.85,4.59,3.6,8.61,7.56,11.07,6.13,5.07,12.53,9.8,19.17,14.18,3.32,2.09,6.44,4.49,9.32,7.16,6.21-4.14,12.16-8.65,17.82-13.5-26.67-13.04-45.35-38.21-50.1-67.52-2.16-13.5-1.22-27.01-3.65-40.51-4.62-24.69-20.43-45.84-42.81-57.25l-7.29,6.08,1.08.68c4.42,3.55,6.8,9.06,6.35,14.72Z"/>
          </g>
          <g class="cls-12">
            <path class="cls-7" d="M283.68,244l-7.29,6.08-15.39,13.5c12.91,11.25,21.42,26.7,24.04,43.62.81,4.5,1.49,9,2.03,13.5,10.28-11.06,24.16-18.1,39.16-19.85-4.68-24.48-20.37-45.45-42.54-56.85Z"/>
          </g>
        </g>
        <circle class="cls-6" cx="235.34" cy="327.45" r="13.37"/>
        <circle class="cls-6" cx="248.71" cy="384.7" r="13.37"/>
        <path class="cls-6" d="M427.63,139.79c-.27-.29-.59-.53-.94-.71-8.7-.6-17.09,2.78-25.84,1.57,8.03-5.2,20.07-11.75,23.54-20.61-2.34-17.53-22.51,13.2-28.66,17.01-.04-9.82-.98-19.62-3.35-29.17-1.21-7.56-13.5-5.67-13.5,1.89,1.05,10.34,4.59,20.2,10.08,28.97-9.06-3.84-17.49-10.43-27.63-11.01-8.97,3.91,8.61,10.8,12.56,11.34,5.59,2.11,11.17,3.95,16.76,5.71-.04.1-.44,1.6-.47,1.71-6.75,20.93-9.95,41.33-17.51,61.99-8.8,22.98-22.64,43.7-40.51,60.63,0,0,0,1.21.67.95l-.4-.67c40.51-21.88,58.87-81.02,63.33-124.37,0-.37.48-1.11.76-.96,9.98,2.23,21.35,5.75,30.97.69,1.41-1.33,1.47-3.56.13-4.96Z"/>
        <path class="cls-10" d="M58.58,181.34h0c1.12,1.94,3.59,2.61,5.53,1.49.62-.36,1.13-.87,1.49-1.49h0c1.26-2.2.5-5.01-1.7-6.27-2.2-1.26-5.01-.5-6.27,1.7-.81,1.41-.81,3.15,0,4.57h.95Z"/>
        <path class="cls-10" d="M81.13,151.37v1.22c-1.19,2.15-.86,4.82.81,6.62,1.78,1.72,4.48,2.05,6.62.81h1.35c2.82-1.82,3.63-5.58,1.81-8.4-.21-.33-.45-.63-.73-.92-2.37-2.27-6.13-2.18-8.4.19-.3.31-.56.65-.78,1.02l-.68-.54Z"/>
        <path class="cls-10" d="M46.3,341.63h0c-1.27-2-3.44-3.26-5.81-3.38-2.51-.02-4.86,1.25-6.21,3.38h0c-1.28,2.21-1.28,4.94,0,7.16,2.03,3.39,6.42,4.5,9.81,2.47,1.02-.61,1.87-1.46,2.47-2.47,1.28-2.21,1.28-4.94,0-7.16h-.27Z"/>
        <path class="cls-10" d="M319.74,47.93h0c-1.7,1.77-1.7,4.57,0,6.35h0c1.38,1.48,3.56,1.92,5.4,1.08,1.89-.73,3.13-2.56,3.11-4.59-.02-2.76-2.28-4.98-5.04-4.95-1.3.01-2.54.53-3.47,1.44v.68Z"/>
        <path class="cls-10" d="M329.32,106v1.22c-.94,3.69,1.29,7.43,4.98,8.37,1.11.28,2.28.28,3.4,0h1.22c4.02-1.13,6.37-5.3,5.24-9.32-.34-1.22-.98-2.33-1.86-3.24-3.07-2.94-7.95-2.82-10.88.25-.84.88-1.46,1.95-1.81,3.12l-.27-.41Z"/>
        <path class="cls-10" d="M78.84,82.63h0l.68-.81q0-.81,0,0h0c1-.6,1.83-1.43,2.43-2.43,1.68-2.82.76-6.46-2.06-8.15-.33-.2-.68-.36-1.05-.49-4.1-1.12-8.33,1.29-9.45,5.39-.21.75-.3,1.53-.27,2.3.03,2.37,1.46,4.49,3.65,5.4,2.1.74,4.43.27,6.08-1.22Z"/>
        <path class="cls-10" d="M420.74,241.16h0c-1.65,1.61-2.27,4-1.62,6.21h0c.78,2.71,3.26,4.58,6.08,4.59,2.79-.09,5.22-1.93,6.08-4.59h0c.62-2.24-.06-4.63-1.76-6.21h0c-1.21-1.04-2.73-1.66-4.32-1.76-1.61.14-3.12.81-4.32,1.89l-.14-.14Z"/>
        <path class="cls-10" d="M419.93,218.88c1.79,0,3.24-1.46,3.24-3.25,0-1.79-1.45-3.23-3.24-3.24-1.79,0-3.24,1.46-3.24,3.25,0,1.79,1.45,3.23,3.24,3.24Z"/>
        <path class="cls-10" d="M461.79,277.76v2.57c-.2,1.07-.2,2.17,0,3.24.69,2.52,3.29,4,5.81,3.31.76-.21,1.46-.6,2.03-1.15.86-.75,1.55-1.67,2.03-2.7,0-.81,0-1.49.95-2.3.78-2.9-.9-5.9-3.78-6.75-2.89-.71-5.84.94-6.75,3.78h-.27Z"/>
        <path class="cls-10" d="M101.12,414.14h-.95c-2.56.77-4.32,3.13-4.32,5.81.05,2.66,1.79,5,4.32,5.81h.95c3.36,1.01,6.9-.89,7.91-4.24,1.01-3.36-.89-6.9-4.24-7.91-1.19-.36-2.47-.36-3.66,0v.54Z"/>
      </g>
      <g class="cls-1">
        <g>
          <path class="cls-5" d="M214.55,212.67c0,.54-1.89,2.3-5,4.73-.27.27-.54.54-.95.81-2.16,1.62-4.73,3.65-7.56,5.67-.4.27-.95.67-1.35,1.08-1.35.81-2.7,1.89-4.19,2.97-.54.27-1.08.67-1.62,1.08-2.16,1.49-4.32,2.97-6.48,4.32-.4.27-.81.54-1.21.81-.95.68-1.89,1.35-2.84,1.89-.4.27-.81.54-1.21.81-1.22.67-2.43,1.49-3.51,2.16-.67.4-1.22.81-1.89,1.21-1.76.95-3.38,1.89-4.86,2.7h-.14c-3.11,1.76-5.4,2.57-5.94,2.16-1.08-.67-.67-2.43.54-4.86.68-1.35,1.76-2.97,3.11-4.73.27-.41.67-.81,1.08-1.35.68-.81,1.35-1.76,2.16-2.7.4-.41.67-.81,1.08-1.22.67-.67,1.35-1.49,2.02-2.3.41-.41.67-.67.95-1.08,2.03-2.16,4.19-4.32,6.35-6.35.41-.54.95-1.08,1.49-1.49.54-.67,1.21-1.21,1.76-1.76s1.08-.95,1.49-1.35c2.43-2.3,4.73-4.32,6.75-5.94.4-.27.67-.54.95-.81,3.38-2.7,5.94-4.46,7.02-4.46,5,.81,9.32,3.65,12.02,7.97Z"/>
          <path class="cls-11" d="M166.34,240.22c1.89.95,3.65,1.89,5.54,2.7h-.14c-1.76-.81-3.65-1.62-5.4-2.7Z"/>
          <path class="cls-11" d="M175.39,237.11c1.08.67,2.16,1.35,3.24,1.89-.67.4-1.22.81-1.89,1.21-1.35-.95-2.7-1.76-4.19-2.57-1.08-.81-2.03-1.49-3.11-2.16.27-.41.67-.81,1.08-1.35l4.86,2.97Z"/>
          <path class="cls-11" d="M183.35,236.03c-.4.27-.81.54-1.21.81-2.97-1.89-5.94-3.51-8.91-5.13-.14-.14-.4-.27-.54-.27.4-.41.67-.81,1.08-1.22,3.24,1.89,6.48,3.92,9.59,5.81Z"/>
          <path class="cls-11" d="M187.4,233.33c-.4.27-.81.54-1.21.81-3.38-2.02-6.89-4.05-10.4-6.21.41-.41.67-.67.95-1.08,3.51,2.16,7.16,4.32,10.67,6.48Z"/>
          <path class="cls-11" d="M195.51,227.93c-.54.27-1.08.67-1.62,1.08-3.65-2.84-7.16-5.67-10.8-8.51.41-.54.95-1.08,1.49-1.49,3.65,2.97,7.16,5.94,10.8,8.78,0,0,.14,0,.14.14Z"/>
          <path class="cls-11" d="M201.04,223.88c-.4.27-.95.67-1.35,1.08-4.46-2.43-9.05-5-13.37-7.7.54-.54,1.08-.95,1.49-1.35,4.32,2.7,8.78,5.4,13.23,7.97Z"/>
          <path class="cls-11" d="M209.55,217.4c-.27.27-.54.54-.95.81-4.59-2.84-9.32-5.54-14.04-8.24.4-.27.67-.54.95-.81,4.73,2.7,9.32,5.54,14.04,8.24Z"/>
        </g>
      </g>
    </g>
    <g>
      <path class="cls-4" d="M166.88,303.95c.34-.68.34-1.48,0-2.16-1.08-5.27-3.11-10.13-3.78-15.39-1.14-5.25.1-10.73,3.38-14.99.96-1.34,2.54-2.1,4.19-2.03,2.03,0,2.97,2.57,3.78,4.46l5.27,13.5c.45,1.44,1.18,2.77,2.16,3.92,3.24,2.97,8.78,0,10.53-3.51,1.15-4.2,1.15-8.63,0-12.83-1.14-4.25-.51-8.78,1.76-12.56,4.59-5.94,14.99-3.24,19.17,2.97,1.89,2.84,3.24,6.48,6.48,7.56,1.67.54,3.46.54,5.13,0,6.62-2.34,11.13-8.51,11.34-15.53,0-3.65-.95-7.97,1.76-10.4s7.29-1.22,10.26,1.22c2.48,2.78,5.34,5.19,8.51,7.16,4.43,1.41,9.28.44,12.83-2.57,3.37-3.15,6.03-6.97,7.83-11.21.68-1.49,1.49-3.24,3.11-3.78s4.86,1.35,6.08,3.65c1.22,2.3,2.43,5.13,4.86,6.08,4.73,1.89,8.24-4.46,11.88-7.97,3.72-3.27,8.55-5.01,13.5-4.86-1.96-4.65-4.75-8.91-8.24-12.56-3.92-3.65-144.08,25.66-152.86,32.95-8.78,7.29-2.97,34.84,6.75,50.37,2.16-.27,3.78-.27,4.32-1.49Z"/>
      <path class="cls-9" d="M303.67,239c-3.65,3.51-7.16,9.86-11.88,7.97-2.43-.95-3.51-3.78-4.86-6.08-1.35-2.3-3.65-4.59-6.08-3.65s-2.43,2.3-3.11,3.78c-1.8,4.24-4.47,8.06-7.83,11.21-3.55,3.01-8.4,3.98-12.83,2.57-3.17-1.96-6.03-4.37-8.51-7.16-2.97-2.43-7.56-3.78-10.26-1.22-2.7,2.57-1.76,6.75-1.76,10.4-.21,7.02-4.72,13.19-11.34,15.53-1.67.54-3.46.54-5.13,0-3.24-1.08-4.59-4.73-6.48-7.56-4.19-6.21-14.58-8.91-19.17-2.97-2.27,3.77-2.9,8.31-1.76,12.56,1.15,4.2,1.15,8.63,0,12.83-1.76,3.92-7.29,6.48-10.53,3.51-.98-1.15-1.71-2.48-2.16-3.92l-5.27-13.5c-.81-1.89-1.76-4.05-3.78-4.46-1.65-.08-3.23.68-4.19,2.03-3.28,4.25-4.51,9.74-3.38,14.99,0,5.27,2.7,10.13,3.78,15.39.34.68.34,1.48,0,2.16,0,1.22-2.16,1.22-3.65.95,1.99,4.47,5.47,8.1,9.86,10.26,16.74,4.86,142.46-59.68,145.57-66.57,1.4-4.51.86-9.4-1.49-13.5-4.99-.33-9.92,1.27-13.77,4.46Z"/>
    </g>
  </g>
</svg>