<?xml version="1.0" encoding="UTF-8"?>
<svg xmlns="http://www.w3.org/2000/svg" viewBox="0 0 500 500">
  <defs>
    <style>
      .cls-1, .cls-2, .cls-3 {
        fill-rule: evenodd;
      }

      .cls-1, .cls-2, .cls-3, .cls-4, .cls-5, .cls-6, .cls-7, .cls-8, .cls-9 {
        stroke-width: 0px;
      }

      .cls-1, .cls-8 {
        fill: #272c32;
      }

      .cls-2, .cls-6 {
        fill: #869eb4;
      }

      .cls-3, .cls-9 {
        fill: #fff;
      }

      .cls-4 {
        fill: #282c33;
      }

      .cls-5 {
        fill: #345985;
      }

      .cls-7 {
        fill: #2e5072;
      }
    </style>
  </defs>
  <g id="stiker_style" data-name="stiker style">
    <g>
      <path class="cls-9" d="M428.21,244.06c-3.88-.61-7.77.31-10.95,2.61-3.12,2.26-5.2,5.57-5.86,9.36-.07.27-.27.93-.62,1.49-.07.12-.13.21-.18.27-.33.06-.65.15-.97.23,0-.09,0-.2.01-.29.54-14.8,1.14-64.51-13.96-82.72l-.12-.14c-7.04-8.1-18.44-14.29-33.89-18.42-13.21-3.53-28.79-5.36-44.98-5.24-27.2.17-61.18,6.15-74.99,22.42-13.81,16.27-11.44,64.18-9.78,84.01.33,3.91.73,7.93,1.2,12-3.03-.47-6.13,0-8.92,1.43-12.02,6.12-16.93,18.15-17.8,20.49-2.78,7.57,1.11,16.03,8.68,18.87,1.66.62,3.39.94,5.16.94,6.08,0,11.62-3.82,13.79-9.5.45-1.15,2.05-3.63,3.42-4.43,3.23,16,7.66,30.45,13.36,39.23-1.33.79-2.79,1.52-4.35,2.18-8.22,3.48-12.07,13-8.59,21.22,1.05,2.48,2.67,4.6,4.67,6.23-2.45,2.04-3.8,4.59-3.8,7.85,0,9.32,11.02,12.86,27.56,15.3,13.74,2.03,31.92,3.15,51.18,3.15s37.44-1.12,51.17-3.15c16.54-2.44,27.56-5.98,27.56-15.3,0-4.41-2.64-7.36-5.94-9.36,3.82-7.44,4.18-14.15,3.6-18.97-.27-2.27-.8-4.5-1.56-6.67,8.46-13.63,12.83-35.25,15.07-53.36,1.82.79,3.81,1.24,5.9,1.24.88,0,1.76-.08,2.64-.24,14.56-2.64,22.82-14.87,24.55-25.83,1.27-8.05-4.23-15.63-12.26-16.89ZM357.18,356.82c-.08.2-.15.41-.22.61-.7-.07-1.41-.13-2.13-.2.79-.14,1.58-.27,2.35-.42ZM283.36,356.96c-2.25.18-4.44.38-6.57.59.69-.62,1.36-1.25,2.01-1.9,1.49.47,3.02.91,4.56,1.3Z"/>
      <path class="cls-9" d="M182.06,267.4c-2.64-1.21-5.6-1.33-8.32-.32-.61.23-1.19.45-1.75.68,0-2.19-.05-4.19-.17-5.86-.01-.16-.02-.33-.03-.49,2.77-1.26,4.67-3.86,5.09-6.97.3-2.21-.17-4.47-1.32-6.63,3.25-8.35,3.28-18.85,2.68-24.12-1.89-16.84-20.4-20.79-35.6-21.13-22.22-.51-46.9,15.42-55.01,20.65l-1.04.67c-7.8,4.96-13.09,13.96-13.17,22.39v.34s.02.34.02.34c.53,6.85,5.86,12,11.23,14.87-.08,1.8-.14,3.77.18,5.74.06,1.35.14,2.65.22,3.95-1.85.25-3.66.95-5.26,2.14-6.62,4.93-9.58,9.06-10.33,10.21-3.39,5.19-1.94,12.21,3.23,15.64,1.86,1.23,4.03,1.89,6.26,1.89,3.68,0,7.1-1.77,9.22-4.73.44,2.16.88,4.02,1.31,5.52.97,3.44,2.23,6.96,4.57,10.17-.21.25-.43.5-.65.75-1.24,1.41-2.1,3.06-2.56,4.8-2.54,2.33-3.03,5-3.03,6.71,0,2.52.87,4.47,2.25,5.99l-.31.4.61-.08c3.61,3.65,10.19,4.68,13.93,5.27,6.66,1.04,15.43,1.62,24.69,1.62s18.02-.58,24.69-1.62c5.35-.84,16.48-2.58,16.48-11.58,0-4.24-2.52-6.79-5.26-8.34-.17-1.47-.35-2.73-.6-3.93,1.44-1.9,2.27-3.63,2.82-4.78h0c1.21-2.55,2.33-8.39,3.19-15.25,2.17-.17,4.25-1,5.95-2.37.21-.15,1.81-1.26,5-2.44,2.73-1.01,4.9-3.02,6.11-5.66,1.21-2.64,1.33-5.6.32-8.32-1.01-2.73-3.02-4.9-5.66-6.11Z"/>
    </g>
  </g>
  <g id="Bubus">
    <g>
      <path class="cls-1" d="M389.52,180.1c-24.95-28.68-120.22-26.66-141.72-1.32-17.91,21.1-7.14,135.23,11.87,156.37,26.11,29.01,100.92,14.38,115.66,9.04,28.68-8.7,35.21-138.75,14.19-164.09Z"/>
      <path class="cls-2" d="M317.48,363.69c39.04,0,70.73,4.68,70.73,10.44s-31.69,10.45-70.73,10.45-70.74-4.68-70.74-10.45,31.7-10.44,70.74-10.44Z"/>
      <path class="cls-3" d="M385.58,205.5c-19.68-10.29-94.29-14.79-115.17-.94-11.49,7.62-13.25,49.37.4,47.62,31.8-4.11,97.85-2.65,116.77-.56,9.45,1.05,9.67-40.02-2-46.12Z"/>
      <path class="cls-9" d="M362.21,190.46c-.49,0-.99-.05-1.49-.17-29.97-6.75-64.88-1.73-65.23-1.68-3.68.54-7.11-2-7.65-5.69-.54-3.68,2-7.11,5.69-7.65,1.53-.23,37.76-5.43,70.15,1.86,3.63.82,5.92,4.43,5.1,8.06-.71,3.13-3.49,5.26-6.57,5.26Z"/>
      <path class="cls-8" d="M372.3,370.81c-1.88,0-3.76-.64-5.3-1.95-3.44-2.93-3.86-8.1-.93-11.54,2.67-3.13,3.88-5.99,3.62-8.5-.39-3.67-3.88-6.43-3.92-6.46l.08.06,9.59-13.28c.94.68,9.21,6.93,10.5,17.62.6,4.99-.19,12.71-7.39,21.17-1.62,1.9-3.92,2.88-6.24,2.88Z"/>
      <path class="cls-8" d="M220.24,303.35c-.78,0-1.58-.14-2.35-.43-3.47-1.3-5.25-5.14-3.97-8.62.42-1.14,4.36-11.25,13.92-16.12,3.32-1.69,7.38-.37,9.07,2.95,1.69,3.32.37,7.38-2.95,9.07-4.11,2.09-6.73,7.06-7.4,8.8-1.03,2.69-3.6,4.36-6.32,4.36Z"/>
      <path class="cls-8" d="M413.29,279.02c-3.2,0-6.04-2.28-6.63-5.54-.66-3.67,1.77-7.17,5.43-7.84,1.5-.27,3.7-.98,5.52-3.97,1.26-2.07,1.64-4.12,1.64-4.14.58-3.68,4.03-6.16,7.71-5.58,3.68.58,6.19,4.07,5.6,7.75-.96,6.09-5.85,16.99-18.07,19.21-.41.07-.81.11-1.21.11Z"/>
      <path class="cls-8" d="M252.78,361.92c-3.19,0-6.22-1.87-7.54-4.99-1.76-4.16.18-8.97,4.34-10.73,15.33-6.5,17.8-16.65,17.89-17.07l-.03.16,16.1,2.97c-.16.89-1.18,5.6-5.12,11.41-5.04,7.43-12.81,13.52-22.46,17.62-1.04.44-2.13.65-3.19.65Z"/>
      <path class="cls-3" d="M319.23,293.7c-10.14-8.64-25.97-8.39-25.69,13.1.43,32.19,15.89,28.31,29.87,23.52,20.73-7.1,24.25,5.06,36.52-.27,12.26-5.33,11.55-23.25,2.18-30.63-6.18-4.87-12.07,1.11-22.69,1.12-5.47.01-12.63-.39-20.19-6.84Z"/>
      <path class="cls-3" d="M278.27,260.74c-6.87.99-11.66,6.71-10.71,12.76.96,6.06,7.31,10.17,14.18,9.19,6.87-.99,11.66-6.71,10.71-12.76-.96-6.06-7.31-10.18-14.18-9.19Z"/>
      <path class="cls-3" d="M378.08,260.74c-6.86.99-11.66,6.71-10.7,12.76.95,6.06,7.31,10.17,14.17,9.19,6.87-.99,11.67-6.71,10.71-12.76-.96-6.06-7.31-10.18-14.18-9.19Z"/>
      <path class="cls-4" d="M169.46,284.33c-.82,0-1.63-.35-2.2-1.02-1.02-1.21-.88-3.01.32-4.04.29-.25,3.02-2.51,8.94-4.7,1.49-.55,3.15.21,3.7,1.7.55,1.49-.21,3.15-1.7,3.7-4.94,1.83-7.18,3.66-7.2,3.68-.54.45-1.2.67-1.85.67Z"/>
      <ellipse class="cls-6" cx="128.99" cy="324.6" rx="33.17" ry="5.2"/>
      <path class="cls-4" d="M129.56,230.72c-37.44-.74-37.76,12.58-36.74,35.94.71,16.13,2.83,27.87,4.37,33.34,2.27,8.07,5.88,16.28,31.36,16.28s29.41-8.14,31.37-12.21c1.95-4.07,4.81-29.26,3.92-41.6-1.07-14.88.34-31.11-34.28-31.75Z"/>
      <path class="cls-3" d="M135.05,290.74c4.26,0,7.73,3.76,7.73,8.39s-3.47,8.4-7.73,8.4-7.73-3.76-7.73-8.4,3.46-8.39,7.73-8.39Z"/>
      <path class="cls-4" d="M153.27,324.46c-2.03,0-3.76-1.51-3.96-3.57q-.6-6.12-3.47-12.44c-.91-2.01-.02-4.38,1.99-5.29,2.01-.91,4.38-.02,5.29,1.99,3.32,7.32,3.43,7.73,4.14,14.89.22,2.2-1.38,4.19-3.58,4.4-.14.01-.27.02-.41.02Z"/>
      <path class="cls-4" d="M102.44,324.99c-.93,0-1.87-.33-2.63-.99-1.66-1.45-1.83-3.98-.37-5.64,6.02-6.87,7.75-11.94,7.77-11.99.69-2.08,2.94-3.23,5.03-2.55,2.09.68,3.24,2.9,2.58,5-.08.26-2.14,6.56-9.36,14.81-.79.9-1.9,1.36-3.01,1.36Z"/>
      <path class="cls-3" d="M157.11,276.18c-2.73,0-4.95,2.31-4.95,5.14s2.22,5.13,4.95,5.13,4.95-2.3,4.95-5.13-2.22-5.14-4.95-5.14Z"/>
      <path class="cls-3" d="M116.06,282.08c-.37-3.22-3.18-5.52-6.28-5.14-3.1.39-5.32,3.31-4.95,6.52.37,3.22,3.18,5.52,6.28,5.14,3.1-.38,5.32-3.3,4.95-6.52Z"/>
      <path class="cls-4" d="M78.97,293.38c-.63,0-1.27-.18-1.84-.55-1.53-1.02-1.96-3.06-.96-4.6.25-.38,2.58-3.82,8.41-8.16,1.48-1.1,3.57-.8,4.68.68,1.1,1.48.8,3.57-.68,4.68-4.87,3.63-6.8,6.45-6.82,6.48-.65.96-1.71,1.48-2.79,1.48Z"/>
      <path class="cls-9" d="M157.12,249.05c2.75,2.29,3.53,7.29,3.53,12.47,0,4.4-.71,8.07-6.36,7.34-5.65-.74-35.33-.49-45.92.73-6.36.73-6.36-14.67-2.83-19.8,4.18-6.08,23.25-5.72,31.09-5.14,9.89.74,16.96,1.47,20.49,4.4Z"/>
      <path class="cls-9" d="M143.68,241.35c-.06,0-.12,0-.19,0l-1.15-.07q-9.79-.63-21.86-.28l-.76.02c-1.59.01-2.87-1.19-2.92-2.75-.05-1.57,1.19-2.87,2.75-2.92l.76-.02q12.33-.36,22.39.29l1.15.07c1.56.1,2.75,1.45,2.65,3.01-.1,1.5-1.35,2.65-2.83,2.65Z"/>
      <path class="cls-5" d="M91.5,256.1s-10.13-3.89-10.08-9.76c.05-5.87,4.05-12.27,9.46-15.71,5.41-3.44,30.66-20.54,51.58-20.07,20.92.47,27.04,6.97,27.83,14.02.8,7.04-.16,19.93-5,25.15-4.84,5.23-51.67,1.6-51.67,1.6l-22.12,4.77Z"/>
      <path class="cls-7" d="M91.94,256.1s20.49-17.11,48.11-14.82c27.63,2.29,30.39,11.98,28.41,12.85-1.97.86-14.16,6.32-25.43,5.64-11.27-.68-25.37-4.91-32.42-5.56-7.06-.65-18.67,1.89-18.67,1.89Z"/>
    </g>
  </g>
</svg>