<?xml version="1.0" encoding="UTF-8"?>
<svg xmlns="http://www.w3.org/2000/svg" viewBox="0 0 500 500">
  <defs>
    <style>
      .cls-1 {
        opacity: .21;
      }

      .cls-1, .cls-2, .cls-3, .cls-4, .cls-5, .cls-6, .cls-7, .cls-8, .cls-9 {
        stroke-width: 0px;
      }

      .cls-1, .cls-3, .cls-9 {
        fill: #fff;
      }

      .cls-2 {
        fill: #b0c9f4;
      }

      .cls-2, .cls-3 {
        fill-rule: evenodd;
      }

      .cls-4 {
        fill: #7d9daf;
        opacity: .31;
      }

      .cls-5 {
        fill: #7babef;
      }

      .cls-6 {
        fill: #282c33;
      }

      .cls-7 {
        fill: #508ecc;
      }

      .cls-8 {
        fill: #869eb4;
      }
    </style>
  </defs>
  <g id="stiker_style" data-name="stiker style">
    <path class="cls-9" d="M391.79,281.89c-.49-5.49-4.29-9.92-9.25-11.49v-39.56c0-5.51-4.48-9.98-9.98-9.98-1.8,0-3.48.48-4.93,1.32-4.05-64.81-58.05-116.29-123.86-116.29-19,0-37.25,4.2-54.24,12.48-.32.13-.65.27-.96.41l-.3.14c-2.17,1.08-4.36,2.26-6.52,3.51l-.94.63c-37.73,22.27-61.15,63.21-61.15,106.96,0,31.27,11.69,61.15,32.91,84.13,19.36,20.97,45.05,34.52,72.99,38.64v.02c-19.02.43-36.27,1.35-49.23,2.64-7.56.75-13.54,1.62-17.76,2.57-3.69.83-12.33,2.78-12.33,10.66s9.45,10.1,13.99,11.01c5.14,1.03,12.38,1.94,21.51,2.71,18.39,1.56,42.77,2.41,68.65,2.41s50.26-.86,68.65-2.41c9.13-.77,16.37-1.69,21.51-2.71,4.54-.91,13.99-2.8,13.99-11.01,0-6.83-6.14-9.49-13.42-10.96.6-4.01.75-7.11.4-11.27,3.42-3.72,5.21-7.31,6.38-9.66.57-1.13,2.2-4.43,4.29-17.72,6.27-7.41,9.55-15.82,9.79-24.52.2.04.4.1.59.14v65.84c0,5.51,4.48,9.98,9.98,9.98s9.98-4.48,9.98-9.98v-64.74c5.83-1.83,9.82-7.55,9.25-13.87Z"/>
  </g>
  <g id="Bubus">
    <g>
      <ellipse class="cls-8" cx="250.38" cy="368.65" rx="96.15" ry="8.14"/>
      <path class="cls-2" d="M243.76,113.87c64.09,0,116.11,52.03,116.11,116.12s-52.02,116.11-116.11,116.11-116.11-52.03-116.11-116.11,52.03-116.12,116.11-116.12Z"/>
      <path class="cls-5" d="M257.89,288.08c-.41.49-.21.76-.62,1.33-.41.57-.45.33-.82.82-.18.26-.34.53-.48.82-.29.48-.63.92-1.03,1.32-.56.59-1.16,1.14-1.79,1.65-.21.2-.44.39-.68.55-.78.41-1.26,0-1.99.34-.52.24-.96.65-1.23,1.17-.36.72-.52,1.52-.47,2.32-.07,1.25.1,1.33,0,2.33-.05.71-.21,1.41-.48,2.07-.56,1.32-1.22,1.41-1.23,2.33,0,.26,0,.38.06,1.23.02.32.02.64,0,.96,0,.66-.19.78-.13,1.17.06.3.21.58.41.82.35.41.81.72,1.33.88.78.35,1.68.35,2.47,0,.48-.29.42-.59,1.23-2.33.57-1.21.6-1.09,1.1-2.19.67-1.48.55-1.59,1.03-2.54.52-.92,1.1-1.8,1.72-2.65.66-.83,1.19-1.76,1.57-2.75.16-1.32-.71-2.16-.13-3.16.17-.29.51-.68.76-.62.25.05.29.54.47.54.19,0,.47-.84.48-.89.14-.68.16-1.38.07-2.06-.14-1.72-.16-1.11-.35-2.82-.08-.76-.1-1.14-.34-1.23s-.72.33-.93.59Z"/>
      <path class="cls-5" d="M192.58,181.72c-.21.06-.38.21-.46.41-.16.45.36.97.68,1.32.38.36.83.65,1.32.85.55.29.83.44,1.14.36.33-.13.59-.38.74-.7.21-.44,0-.56.21-.98s.36-.37.57-.82c.1-.21.17-.36.1-.46-.06-.11-.59,0-.97,0-.75.18-.76.34-1.21.38-.39.02-.79-.03-1.16-.16-.51-.2-.68-.29-.96-.2Z"/>
      <path class="cls-5" d="M189.42,172.57c-.22-.14-.82.33-1.14.82-.21.34-.33.73-.34,1.13,0,.15,0,.81.21.89.21.08.28-.11.62-.41.26-.18.47-.42.63-.69.08-.26.11-.54.1-.82.01-.58.03-.87-.08-.92Z"/>
      <path class="cls-5" d="M187.16,176.12c-.28.31.18.76-.07,1.33-.12.28-.23.22-.64.71-.42.49-.56.68-.59,1.03-.02.36.28,1.08.69,1.14.41.07.48-.14.76-.38.4-.36.7-.81.88-1.32.24-.63,0-.6.28-1.49.12-.39.24-.66.11-.88-.12-.16-.29-.27-.48-.31-.19-.03-.68-.12-.94.17Z"/>
      <path class="cls-5" d="M205.14,181.18c-.22.03-.38.24-.34.46.04.2.22.35.42.35.05,0,.09,0,.13-.02.12-.05.2-.16.21-.29.01-.02.01-.03.01-.05,0-.24-.19-.44-.43-.45Z"/>
      <path class="cls-5" d="M205.37,182.53c-.07.11-.03.26.07.33.12.06.26.02.34-.08.06-.09.06-.2,0-.29-.06-.05-.12-.07-.19-.07-.09,0-.17.04-.22.11Z"/>
      <path class="cls-5" d="M206.83,181.81s-.39.23-.39.48.26.28.33.57c.06.29-.23.45-.13.7.09.25.31.3.58.41.26.11.49,0,.7.17.54.28.32,1.13.77,1.33.25.08.54-.02.68-.26,0-.13,0-.26-.08-.47-.37-.85-.68-1.05-.59-1.32.14-.24.42-.36.69-.31.3,0,.46.32.53.28.06-.04,0-.29-.14-.5-.23-.36-.58-.62-.97-.76-.72-.32-1.42-.62-1.98-.32Z"/>
      <path class="cls-5" d="M210.13,186.67c0-.07.3,0,.74.24l.54.25c.52.25.89.07,1.63.08.74.01,1.69.28,1.69.46,0,.19-.63.28-.79.31-.46.07-.93.07-1.39,0-.54-.01-1.07-.11-1.58-.31-.51-.33-.84-.92-.84-1.03Z"/>
      <path class="cls-5" d="M317.54,243.81c-.14,0-.22.2-.65,2.03-.19.66-.33,1.34-.41,2.02,0,1.02.38,1.1.41,2.33,0,.25,0,.45.13.58.13.14,1.16,0,1.68-.47.51-.47.82-1.12.86-1.82,0-.78-.34-.96-1.06-2.64-.61-1.35-.71-2.04-.96-2.03Z"/>
      <path class="cls-5" d="M340.16,252.73c-.36-.25-.56-.13-.99-.3-.73-.28-.88-.82-1.17-.76-.29.07-.41.8-.45,1.06-.04.27-.23,2.1.86,2.85.27.18.56.26.69.58.13.32,0,.34,0,.79-.05.34-.05.69,0,1.03.11.44.29.49.65,1.17.17.29.31.6.41.92.23.85-.22,1.25-.28,2.16-.05.91.32.78.54,2.03.18,1.03.18,2.08,0,3.12-.16.65-.24,1.31-.23,1.98.1.88.41,1.02.34,1.72-.07.7-.53.94-.48,1.68,0,.41.18.37.45,1.33.28.95.23,1.15.45,1.32.47.25,1.33-.54,1.41-.62.76-.72.75-1.33,1.5-3.34.53-1.4.97-2.23.69-2.47-.27-.24-.86.26-1.06,0-.19-.27,0-.42.24-1.14.24-.71.33-1.32.07-1.68-.27-.36-.36-.22-.52-.52-.15-.36-.15-.77,0-1.13.32-.9.96-.98.93-1.49-.03-.5-.5-.38-.82-1.05-.2-.58-.29-1.18-.28-1.79.01-.24-.03-.49-.13-.71-.2-.37-.42-.34-.69-.69-.23-.41-.36-.86-.38-1.33-.1-.5,0-.51-.11-.79-.22-1.08-.96-1.12-1.1-2.02-.09-.57.17-.8-.06-1.33-.11-.23-.28-.43-.48-.58Z"/>
      <path class="cls-5" d="M338.03,260.76c-.41.21-.32,1.33.07,1.51.38.19.71-.22.86-.62.04-.13.04-.26,0-.38-.14-.38-.54-.59-.93-.51Z"/>
      <path class="cls-5" d="M338.65,265.71c.15,0,.29.36.35.58.05.23.09.44-.07.55-.15.07-.33.05-.45-.07-.29-.28-.01-1.05.17-1.06Z"/>
      <path class="cls-5" d="M338.72,263.58c-.25.05-.43.29-.39.54.09.18.28.3.48.3.1,0,.19-.03.28-.09.16-.17-.09-.75-.37-.75Z"/>
      <path class="cls-5" d="M337.49,257.38c-.16,0-.25.37-.21.62.09.53.78.88.96.75.19-.13,0-.63-.24-.92-.23-.3-.31-.51-.51-.45Z"/>
      <path class="cls-5" d="M338.93,269.48c-.21,0-.21,1.6,0,1.66.21.05.32-.38.34-.72.03-.34-.22-.95-.34-.94Z"/>
      <path class="cls-5" d="M341.39,276.56c-.42.09-.72.46-.71.89,0,.21.16.22.23.51.08.29-.14.62,0,.97.27.51.84.79,1.41.69.29,0,.38-.2.54-.14.16.07.16.59.56,1,.18.17.4.31.64.38.51.19.81.08.97.3.16.23,0,.32.17.45.14.11.32.13.48.07.33-.16.5-.53.41-.89-.15-.38-.69-.25-1.21-.82-.19-.21-.37-.42-.34-.64.07-.51,1.03-.49,1.32-1.24.06-.15.06-.32,0-.47-.2-.54-1.43-.82-2.15-.39-.49.3-.6.81-.86.76-.27-.05-.18-.33-.48-.76-.3-.42-.53-.72-.98-.67Z"/>
      <path class="cls-5" d="M355.81,249s-.12,0-.65,1.61c-.63,1.86-.59,1.92-.82,2.2-.41.49-.86.7-.92,1.32v.63c-.12.5-.58.75-.86.96-.56.42-.44.77-1.48,3.4-.51,1.32-.75,1.71-.93,1.68-.19-.02-.24-1.07-.48-1.1-.23-.02-.68,1.18-.96,2.31-.45,1.85-.15,1.93-.56,3.85-.33,1-.47,2.06-.41,3.12.07.42.18.83.31,1.23.22.75.34,1.14.58,1.23.24.09,1.11-.34,1.51-.79.92-1.06.39-1.87,1.2-3.6.61-1.33,1.02-1.07,1.32-2.13.31-1.06-.06-2,.59-2.85.3-.39.46-.3.79-.65,1.03-1.08,0-2.48.52-5.29.16-1.01.47-1.99.92-2.91.2-.33.37-.68.52-1.03.5-1.67.09-3.18-.19-3.19Z"/>
      <path class="cls-5" d="M351.7,219.65c-.4,0-.69.86-.76,1.06-.06.2-.51,1.58.24,2.16.21.17.49.23.76.17.54-.2.58-1.19.58-1.4.09-.9-.32-1.99-.82-1.99Z"/>
      <path class="cls-5" d="M242.17,132.58c0-.22,0-.34.76-1.4,1.1-1.68,1.02-1.67,1.2-1.81.89-.72,1.44,0,3.26-.56.83-.43,1.72-.72,2.64-.86.52,0,1.21,0,1.23.21.03.21-.86.53-1.89.89-1.03.36-1.32.37-2.13.71-.61.21-1.18.52-1.68.93-.4.34-.87.75-.82,1.32.05.57.57.85.79,1,.55.35,1.04.37,1.04.47,0,.11-.49.21-1.04.24-1.2.01-3.18-.28-3.36-1.14Z"/>
      <path class="cls-5" d="M239.98,134.39c.21-.26.53-.41.87-.41.27,0,.54.1.74.28.17.22.19.51.07.76-.26.36-.75.47-1.14.27-.37-.17-.65-.6-.54-.9Z"/>
      <path class="cls-5" d="M260.56,124.83c-.29.18-.55.55-.47.82.08.26.78.45,2.13.62.99.13,1.99.16,2.99.11.86,0,.99-.08.99-.14,0-.05-.65-.29-1.81-.64-2.52-.77-3.2-1.19-3.83-.77Z"/>
      <path class="cls-5" d="M267.15,126.88c.19.19.45.3.72.3s.53-.11.72-.3c.06-.12.06-.26,0-.38-.15-.25-.43-.4-.72-.4-.18,0-.36.05-.51.16-.18.14-.27.39-.21.62Z"/>
      <path class="cls-5" d="M235.65,126.02c.17.57,2.51.36,3.33.28.88-.18,1.76-.31,2.65-.39,1.05.17,2.1.29,3.16.35.73,0,1.78-.19,1.79-.41.01-.23-1.06-.49-1.92-.58-1.09-.04-2.18.03-3.25.21-.81.11-1.63.14-2.44.1-1.32-.2-1.85-.74-2.64-.41-.36.18-.76.59-.68.85Z"/>
      <path class="cls-5" d="M176.35,160.75c.09.2,1.02-.17,4.39-1.1.9-.16,1.76-.48,2.54-.96.69-.48.72-.76,1.58-1.33.86-.57,1.41-.62,1.51-1.03.09-.41-.49-.59-.76-1.44-.1-.34-.06-.5.13-2.41.14-1.22.12-1.18.14-1.23.45-1.43,1.94-1.92,1.78-2.33-.16-.41-1.32-.09-1.51-.54-.18-.45.36-.73.28-.82-.08-.09-2.04,1.4-2.19,1.23-.16-.17.5-.73.41-.82-.1-.09-1.53.99-2.2,1.57-1.05.9-1.1,1.09-1.1,1.23,0,.72,1.09.88,1.44,2.07.17.43.15.91-.06,1.32-.28.36-.64.2-1.51.69-.42.24-.68.38-.82.69-.15.3.08.75-.13,1.03-.22.28-.9,0-1.66.41-.1,0-.58.33-.55.62,0,.49,1.56.54,1.57.89.01.34-.87.34-1.98,1.03-.6.4-1.41,1.03-1.3,1.23Z"/>
      <path class="cls-5" d="M174.4,158.18c-.18-.1-.1-.59,0-.88.23-.64.76-1.14,1.41-1.33.29-.07.47,0,.55-.17.08-.17-.47-.66-.38-1.06.09-.39.45-.39,1.23-.68.45-.13.89-.29,1.32-.48.17-.09.36-.21.72-.45,1.04-.69,1.25-.91,1.51-.82.26.12.43.39.41.69-.07.54-.96.42-1.45,1.23-.14.39-.32.77-.51,1.14-.14.21-.3.4-.48.58-.45.42-.97.74-1.55.96-.91.4-.92.23-1.54.56-.63.33-.98.82-1.24.71Z"/>
      <path class="cls-5" d="M181.46,140.27c-.15.53-.49.65-.45.82.04.17,1.32.4,2.75.17,1.44-.09,2.8-.74,3.77-1.81.13-.19.65-.87.41-1.32-.24-.45-.81-.31-1.44-.28-.53,0-1.06.1-1.55.3-.82.36-1.15.85-1.32.72-.18-.14.12-.9-.18-1.1-.29-.2-1.03.29-1.44.79-.22.25-.37.54-.45.86-.1.41-.01.52-.1.85Z"/>
      <path class="cls-5" d="M288.84,128.9c-.12.35,1.51,1.82,3.23,1.68,1.12-.07,1.48-.79,3.24-.97.75-.08,1.32,0,1.32-.08-.9-.27-1.84-.43-2.78-.48-.79-.08-.73,0-3.19-.16-1.56-.09-1.78-.09-1.82.01Z"/>
      <path class="cls-5" d="M182.94,131.44l-4.68,3.66c-4.52,3.49-5.19,3.53-7.73,5.82-1.63,1.48-4.21,4.05-3.97,4.43s4.47-3.02,12-6.43c1.32-.61.81-.32,6.34-2.65,2.9-1.15,5.74-2.48,8.49-3.97,3.6-2.03,2.91-2.23,4.99-3.08,2.45-.99,4.54-1.18,7.36-3.04,1.66-1.1,1.61-1.5,1.6-1.6-.28-1.15-6.12-.65-7.11-.57-2.06.13-4.1.51-6.07,1.14-.8.26-1.58.57-2.34.91-2.07,1.03-4.09,2.12-6.08,3.27-1,.73-1.86,1.4-2.8,2.11Z"/>
      <path class="cls-5" d="M338.47,297.16l-.69.67c-1.54,1.43-3.19,2.71-4.95,3.86-2.99,1.99-3.82,1.99-5.62,3.57-1.55,1.32-1.82,2.1-3.85,4.8-1.82,2.42-3.79,4.71-5.9,6.87-4.41,4.34-8.27,5.82-8.1,6.18.17.35,2.65-.41,6.27-1.92,8.72-6.89,16.41-14.98,22.84-24.03Z"/>
      <path class="cls-5" d="M314.66,157.18c-.46.17-.99.04-1.32-.35-.38-.63.76-1.32.62-2.47-.17-1.39-2.07-1.93-1.85-2.65.11-.34.61-.54.97-.55,1.13,0,2.14,1.63,2.4,3.02.04.96,0,2.63-.83,3h.01ZM293.64,166.2c0,.35-.7.5-.9.54-.77.09-1.55,0-2.29-.25-1.18-.24-1.49-.25-1.82-.08-.3.15-.53.41-.65.72-.27.88.86,1.74.59,2.09-.26.34-.61,0-.67,0-.83-.27-.99-1.32-1.01-1.47-.04-.37.02-.74.16-1.09.16-.42.46-.77.85-1,.54-.25.85.11,2.45.44,1.13.23,1.7.34,2.18,0,.48-.35.48-.49.74-.44.22.08.35.32.3.56l.07-.02ZM268.57,167.1c-.32,0-.63-.05-.93-.16-.59-.17-.88-.25-.9-.41-.01-.16.33-.37.62-.43.41-.06.82.02,1.17.23.3.14.77.33.74.52-.03.19-.74.32-.77.32l.07-.07ZM268.75,170.29c-.1.29-.37.48-.67.49-.39,0-.74-.26-.82-.65,0-.33.33-.4.33-.74s-.75-.7-.72-1.18c0-.25.27-.49.39-.46.12.03.12.33.18.62.16,1.1,1.35,1.36,1.23,1.93h.08ZM265.95,170.29c-.14.08-.32.08-.46,0-.27-.16-.15-.54-.26-1.49-.08-.64-.15-.77,0-1.01.22-.46.82-.66.9-.57s-.5.49-.46,1.06c.04.57.34.42.49.98-.05.33-.01.87-.29,1.04h.08ZM263.3,184.14c-.12.29-.66.41-1.74.62-.81.26-1.68.29-2.5.11-.31-.1-.61-.25-.88-.44-.59-.41-.58-.66-.95-.95-.97-.74-2.24.08-2.81-.65-.14-.2-.26-.43-.33-.67-.06-.23-.09-.47-.1-.7-.11-.97-.37-1.23-.19-1.5.19-.26.39-.12.52-.36.13-.23,0-.27,0-.64-.01-.22-.01-.44,0-.65-.06,0-.12-.02-.16-.07,0-.1.08-.32.13-.3.06.01,0,.13,0,.38.45,0,1.68-.4,1.66-.61-.03-.21-.63,0-1.47-.49-.23-.11-.44-.24-.62-.41-.25-.23-.46-.5-.63-.79-.3-.45-.43-.34-1.39-1.17-.55-.47-.38-.39-1.23-1.16-.29-.25-.55-.52-.79-.82-.14-.16-.26-.35-.36-.54-.27-.72.21-1.33,0-1.58s-.3,0-.65,0c-.48-.13-.83-.58-.84-1.08,0-.23.13-.21.43-.8.31-.58.26-.66.47-.87.22-.19.48-.32.77-.41.28-.08.57-.18.84-.3.27-.15.19-.18.62-.49.44-.32.65-.35.88-.62.08-.14.2-.26.33-.36.15-.09.31-.15.49-.16.72-.08,1.45-.08,2.18,0,.24.02.47.07.7.13.51.11.96.43,1.23.87.17.4-.06.56.13.96.17.3.45.52.77.62.52.13.78-.2,1.09,0,.36.28.45.79.21,1.18-.29.24-1.05-.21-1.6-.55-.94-.55-1.33-1.05-1.7-.92-.15,0-.12.12-.51.49-.4.37-.77.51-1.06.87-.27.29-.42.67-.44,1.06,0,.58.73.7,1.96,1.6,1.23.9,2.04,1.47,2.18,2.32.04.34.16.67.36.95.24.3.62.55.74.46.12-.09,0-.17,0-.38s0-1.07.24-1.21c.24-.13.73.27.9.41.49.43.4.67.82.93.42.26.56.12.77.38.21.27.29.57.16.72-.1.07-.22.1-.33.08-.57-.09-1.14-.06-1.7.08-.27.11-.5.31-.65.57-.19.34-.25.86,0,1,.26.15.37-.13.88-.13s.84.13.9.38c.05.25-.1.33-.28.6-.19.26-.27.28-.25.36.01.07.74,0,1.23.35.49.36.29,1.17.9,2.58.32,1.03.82,1.33.65,1.74l.02-.02ZM239.94,175.23c-.48.41-2.16,1.16-2.65.82-.49-.35-1.92.54-2.09.41-.17-.14-2.02-.11-2.13-.59-.11-.47-1.32-.23-1.4-.68-.08-.45-1.92.1-2.07-.65-.14-.76-3.33-.07-4.63.88-1.17.77-2.61,1-3.97.65-.79-.28-3.22-2.09-2.84-2.33.38-.23,0-1.32.55-1.44.48-.16.76-.65.65-1.14-.1-.38,0-.51.52-.79s0-.69.21-1.14.65.17.93-.13c.27-.3.24-.17.62-.34.38-.18,0-.59,0-1.21s.16-1.11.79-.71c.64.39.8-.39,1.55-.65.75-.27.56,0,.93.41s.51.48,1.4.45c1.23.04,2.46-.13,3.64-.48.6-.36,1.27-.61,1.96-.75,1.32-.41,1.32-.21,2.47-.58,1.15-.37,1.96.06,1.51.27-.45.22-2.16.93-1.79,1.33.37.39,0,.13-.45.51-.45.39-.82.97-3.05.93-2.24-.04-.76-.24-2.48-.79-1.72-.56-1.65.13-1.68.96-.02.83.35,1.96,1.79,1.51,1.44-.45,1.06-.17,1.48-.93.42-.75,1.23.21,2.58-.1,1.35-.32.21.47,2.3,1.23,2.09.75,1.21.79,2.75,2.02,1.55,1.23,1.45.31,2.65,1.14,1.2.83.4,1.51-.08,1.92h.03ZM224.35,280.19c-.29-.57-.52-1.15-.71-1.75l-1.14-1.96-.52-1.75-.41-1.9c.13-.68.13-1.38,0-2.07.4.46.71.99.93,1.55.14.99.18,2,.1,2.99,0,.98-.1,1.18,1.24,1.5,1.33.32.51.41.92,1.69.41,1.28.62.72.82,2.73.2,2.01-.9-.41-1.26-1.02h.03ZM227,264.16l1.32-1.16c.69,0,1.38.13,2.02.38.36.59,1,.94,1.69.93,1.16,0-.97.51-1.21,1.96-.24,1.44-.34.27-.82.79s-.11.48.11.93c.21.45,0,.47-.28.96s-.45.21-1.75.13c-1.29-.07-1.06.39-1.03.44l-.93-1.98-.3-1.79,1.18-1.59ZM233.48,287.75c-.3.72-1.2-.1-.49,1.04.72,1.13,1.15.97,1.15,1.69s-.28,2.31-.99.87-.07-.41-.71-2.26c-.65-1.85-.71-.41-.71-2.65s0-1.8-.31-2.58c-.32-.78-.22-.76-.22-.76.67-.04,1.32.25,1.75.76v2.32s.83.86.53,1.59v-.02ZM354.49,210.31c-.19-1.01-.29-2.05-.29-3.08.56-2.62.3-5.35-.76-7.82-1.72-4.18-2.72-5.38-2.93-7.04-.21-1.65-.77-.82-2.58-3.97-1.82-3.15-1.09-3.13-.88-4.31.22-1.18-.41-.48-1.03-1.03-.62-.56-.69-.48-.69-.21s-.41.62-.62.47c-.32-.49-.6-1.02-.82-1.57l-.75-.82c-.76-.82-1.1-.62-.69-1.33.41-.7.07-.41,0-1.09-.07-.69-.41-1.33-.41-1.99s.75.97,1.16,1.51c.41.54.55,1.03,1.23,2.13.19.29-.21-1.98-.21-1.98l.54.21c.56.21.48,1.32,1.04,2.13.55.8.62,1.23,1.16,1.65.54.42.34.07.34-.34.02-.68-.18-1.35-.55-1.92-.67-1.1-1.23-2.27-1.67-3.48-.96-2.33-.13-2.2-2.75-6.52-2.69-4.55-5.87-8.78-9.47-12.64-2.76-2.65-2.54-2.2-3.97-3.64-1.43-1.44-4.18-3.85-5.97-5.7-1.79-1.85-1.65-1.57-.75-1.32s2.95.62-1.23-2.27c-4.18-2.88-12.24-9.26-12.48-9.6-.24-.35-.74,0-1.39-.54-.93-.61-1.97-1.02-3.07-1.21-1.03-.29-2.01-.74-2.91-1.32-1.53-.19-3.08-.19-4.6,0-3.09.18.67.41,1.6.7.92.29.23.65-.65.68-.83-.11-1.64-.35-2.4-.71-.74-.21-2.91-.56-2.91-.56,0,0-2.21-.72-3.16-1.01-.95-.29-.95-.08-1.32,0-.37.08.21.36,0,.44-.45.01-.89-.02-1.33-.08-.62,0,.16-.36,0-.41-.15-.06-2.23,0-3.75-.11-1.52-.1-1.33-.3-2.07-.85-.74-.54-.67.31-.35.72.31.41.21.54-1.24.57-1.44.02-.56-.13-.35-.28.21-.15.35-.3.54-1.03s-.44-.85-.62-.93c-.42-.19-.87-.3-1.32-.33-1-.12-2-.18-2.99-.18-1.04,0-2.45-.75-3.58-.8-1.12-.05-.3.24-.3.31,0,.06,0,.21-1.83.87-1.82.66-.7-.08-1.55,0-.77.11-1.54.29-2.28.52.31.47.71.88,1.17,1.2.72.46-.38.18-1.32.18-.7-.02-1.4.11-2.04.4-1.2.37,1.44.32,2.83,1.25,1.39.92-.95.23-2.31-.49-1.36-.73-1.55-.16-1.55-.16l-.95.35,1.72.82.1.55-1.44-.47-1.74-.84c-1.12-.55.79.98.79.98l1,1.17,1.09.6,1.32.1,2.19.68,1.49,1.49c-.82-.26-1.63-.58-2.42-.95-.65-.36-.87-.51-1.2-.49-.34.03-.47.16-.44.49.03.33.38.65.44,1.11.05.47-.72.65-.72.65h-1.32s-.57-.51-.36-.82c.21-.3,1.03-.49,1.03-.49.04-.37-.01-.75-.13-1.11-.21-.85-.24-.21-1.63-1.14-1.39-.92-1.41-1.14-1.41-1.14l-.77-1c-.77-1.01-.73-.21-2.28-.9-1.54-.69-.71.08-.84.82-.13.74-.68.77-.11,1.44.57.68.11.39.39.62.75.34,1.53.61,2.34.8,1.11.35,0,.54-.19.62-.9-.18-1.78-.43-2.64-.74-.98-.34-1.98-.61-2.99-.8-.57-.12-1.15-.18-1.72-.18-.55-.04-1.1-.13-1.63-.25-1.01-.13.18.46.85.65.66.18,1.66.33,1.66.33l.13.57-.9.54c-.89.54-.59,0-.92-.77s-1.39.65-1.39.65c0,0-.16,0-1.67.16-1.51.16-.46,0-.7-.72-.24-.71-.18-.08-.49.11-.52.19-1.07.27-1.63.24-.87,0-.21,0-1.8.71-1.58.72-.51.68-.51.68-.09.21-.21.41-.36.59-.28.36-.65.13-2.31-.3-1.67-.44.33-.41.33-.41.31-.22.56-.51.74-.85.18-.46-1.72-.21-1.72-.21l-1.11.59s.33,1.01.43,1.5c.11.49.11.77-1.32,0s-1.03.25-1.23.49-.9.46-1.11.79c-.21.33.67,1.18.67,1.18-.49.05-1,.05-1.49,0-.68-.08-.7-.57-1.7-.93-.99-.35-.67.19-.46.52.21.33.93.6,1.32.82.4.23-.15.28-1.03.28s-.7-.19-1.18-.36c-.47-.17-.7-.33-.79-.62-.09-.29-.38-.3-.38-.85s.33-.18-.16-.79-.6-.33-1.39-.57c-.79-.24-.28-.3,0-.65.28-.34,1.49.8,2.34,1.03.6.18,1.23.25,1.85.22.59,0,1.17-.02,1.75-.08.85-.08.74-.14,1.32-.63.59-.49.28-.43.33-.56.06-.14-.64-.77-.64-.77-.7-.3-1.41-.56-2.13-.77-.91-.38-1.86-.66-2.84-.82-.57-.05-1.13-.13-1.69-.25-.77-.08-.49-.11-1.01-.36-.51-.25,0-.38-.33-.57-.33-.18-1.52.33-1.32-.25s-.46.16-.71.16c-.48-.2-.97-.35-1.47-.44-.88-.08-.41.11-1.03.19-.53.05-1.04.17-1.53.36-.35.19-.76.27-1.16.23-.49,0-.49.77-1.08.71-.6-.07-.11-.28-.52-.47-.41-.18-.46,0-.57,0s-.41.65-.9.72c-.49.06-.13,0-.62,0s-.13.24-.39.46c-.25.22-.48,0-.62-.11-.24-.08-.52-.08-.76,0-.19.08-.65.14-1.01.24-.36.11-.46.21-2.04.82-1.57.61.16.21.68,0,.31-.09.63-.15.95-.16.57-.16,1.14-.3,1.72-.41.28,0-.21.31-.7.49-.49.19-.16,0-.7.36-.26.15-.52.28-.8.38-.87.45-1.68,1.02-2.39,1.7-1.11.95-.93.46-1.18.74s-1.32.54-2.64,1.44c-1.33.9.35,0,.97,0s-1.32.49-1.16.7c.16.21-.49.31-.62-.24-.13-.54-.39.19-.65-.1-.26-.29-.62.28-.62.54s-.49-.08-.95.25c-.47.33-.57.13-.72.54-.14.41-.77-.18-.77.31s-.98.3-.98.3c0,0-.74.44-1.11.68-.37.24-.3.95-.3.95-.19.24-.45.42-.74.52-.49.16-.08.18.16.35.23.18.18.22.16.39-.03.17-.36.18-.85.24-.49.05-.19.35.3.46.49.1.28.1,0,.44-.27.33-.33.07-.7.51-.37.44.6.6.6.6.46.31,1.01.47,1.57.45,1.1,0,.99-.65,1.4-1.1.41-.45.69-.17,1.17-.31.47-.13.38-.38.69-.75.3-.37.21.3.45.65.23.34.1.24-.11.65-.16.26-.24.57-.21.88.05.42.13.83.24,1.23.1.65.17.59.13.93-.04.34-.28.17-.65.21-.37.04,0,.48,0,1.32s.45,0,1.23,0,.41,0,.72-.3c.3-.3,0-.11.13-.66.13-.56.99.13.99.13h1.57c.83,0,.71-1.07.69-1.49-.01-.43.4-.67.56-1.22.16-.56.17-.24.53-.72.35-.47.17-.12.42-.18.25-.07.73-.58.94-.72.19-.13.42-.2.65-.21.44-.08,0-.46,0-.46,0,0,.18-.16.36-.28.17-.12.29-.29.35-.49.11-.25-.25-.51-.25-.51l-.71-.52.21-.98c.28-.39.6-.75.95-1.08.42-.23.81-.5,1.18-.8.39-.34.87-.54,1.39-.57.46-.13.9-.31,1.32-.54.38-.1.76-.24,1.11-.41.21-.16-.1-.49-.16-.71-.05-.23.36-.28.55-.41.18-.14.3.14.67-.24.37-.39.52.63.52.63h2.11s.11.36-.08.49c-.57.21-1.15.39-1.74.53-.63.53-1.35.96-2.12,1.26-.79.18-.74.36-1.11.69-.37.33,0,1.02,0,1.02,0,0-.3.5-.6,1.04-.29.54.43.82.67.94.57.12,1.16.19,1.74.23.59.03.6,0,1.48,0s.4-.07,1.26-.35c.74-.21,1.5-.36,2.26-.48.58.16,1.15.37,1.68.64.64.36-.94.41-1.16.41-.37.1-.72.24-1.06.42-.33.18-.47,0-.99,0s-.79-.16-1.61-.16c-.51,0-1.02.1-1.49.3-.39.08-.73.33-.92.68-.29.39.26.92.67,1.17.41.25,0,.21-.13.43-.16.37-.41.7-.71.96-.63.62-.28,0-.71-.33-.35-.36-.82-.58-1.32-.63-.62,0-1.18,1.24-1.32,1.33-.15.09-.21.57-.21.57-.27.34-.43.74-.49,1.16-.04.23-.04.46,0,.69-.11.18-.31.3-.52.3-.26.03-.51.07-.75.15-.12.21-.22.43-.31.65,0,.13-.17,0-.58.06-.36.03-.72-.01-1.06-.13-.1-.07.17-.62-.69-.71-.86-.1-1.32.71-2.4.92-1.09.21-2.56.7-2.73.7s-.24-.23-.49-.67c-.25-.44-.44-.33-.52-.31-.3.03-.6.09-.9.16-.59.16-.21.08-1.08.49-.87.41-.33.08-.57.08s-.18,0-.82-.3c-.63-.31-.18-.13-.33-.36-.12-.17-.25-.33-.38-.49-.14-.15-.6,0-.82,0s-.11.19-.19.54c-.08.36-.28.36-.77.72s-.49.21-1.41.49c-.93.28-.72.46-.72.46-.2-.12-.42-.21-.65-.25-.48-.13-.51,0-.97.13-.52.15-1.01.38-1.45.7-.67.41-.1.24-.43.85-.33.61-.63.41-1.39.85-.69.51-1.44.92-2.24,1.23-.59.08-.57.13-1.18.18-.6.06-.74,1.06-.74,1.06-.18.3-.4.57-.65.82-.33.31-.67,0-.92,0-.27.03-.51.18-.65.41-.06.26-.14.52-.25.77-.25.54-.16,0-.46-.08-.31-.08-.71,0-.77-.24-.07-.24.08-.21.1-.46.03-.25-.25,0-.71.13s-.19.65-.3,1.16c-.12.52-.24.53-1.17.57-.93.04-.45-.1-.45-.38s-.24-.17-.51-.17c-.45.1-.89.23-1.33.38-.3.07-.79.82-.79.82.36.2.75.33,1.16.39.48,0,.45.55.52.68.05.24.07.48.06.72-.08.3-.08.62,0,.92.14.35.72.63.35.93-.37.3-.07.34-.07.93s-.28-.52-.58-.22c-.3.31,0,.35-.17,1.1-.17.76-.13.66-.24,1.46-.11.79-1.57,2-1.57,2h-.88c-.53-.22-1.09-.39-1.65-.51-.87-.1,0-.18-1.8-.43-.8-.17-1.62-.17-2.42,0l-1.23.83c-.41.55-.85,1.08-1.33,1.57-.46.41-.35,1.08-.62,2-.2.59-.46,1.16-.76,1.7-.31.76-.26.66-1.7,2.21-1.44,1.54,0,1.32-.77,2.15-.76.84.47,1.39,1.55,1.44,1.09.06.68.68.82,1.61.15.92.72.35,1.33,0,.6-.36.46-.26.76-.26.42.12.83.25,1.23.41.63.16.88,0,1.04-.51.15-.52.67-.11.67-.11,0,0,.87-.1.98-.77.11-.66.25-.35.36-.51.46-.18.95-.3,1.44-.36.31-.26.49-.63.51-1.03,0-.62.31-.36.98-.77.68-.41,0-1.32,0-1.8s.26-.1.68-.25c.42-.14.16,0,.16,0v.13h1.18c1.08,0,.41-1.56.41-1.56,0-.26.04-.52.1-.78.11-.36.68-.29.82-.39.15-.11.36-.15.98-.15.34.02.66-.17.82-.46.16-.3.36-.6.52-.8.24-.19.52-.33.82-.42.1-.27.22-.53.35-.78.16-.25,0-.41.16-1.03.16-.63,0-.36.36-.57.32-.19.63-.4.93-.62.62-.47,0,0,.57,0,.35-.02.69.13.92.41l1.44.41c.93.25.63.25.98-.11.36-.36.85-.57,1.11-.87.27-.31.22-.08.77-.44.56-.36.19-.08.46-.44.28-.35.16-.21,1.01-.27.85-.07.79-.44,1.09-.08.23.33.59.55,1,.59.52.11.08.47.08.88.02.45.13.91.33,1.32.28.74.54.85,1.18,1.14.63.29.36.33.9,1.32.54.99.7.33,1.63.41.92.08.49.93,1.08,1.08.6.16.44.24.44.63s0,.64.74.57c.74-.08.77,1.32.77,1.46,0,.15.22.85-.24,1.13-.47.28-.49.3-.66.65-.18.34-.27.2-.34.42-.06.22.19.33.43.28.24-.06.42-.36.87-.53.26-.09.46-.3.53-.56.24-.27.55-.48.9-.59.71-.31.38-.39.38-.39l-.3-.99s-.3-.45-.58-.79c-.28-.35.38-.76.38-.76l1.32.11c.21.24.42.47.65.69.35.3.48.41.69.41s.52-.39.52-.39c0,0,0-.23-1.21-1.5-1.2-1.27-.55-.39-1.1-.69l-1.23-.69c-.04-.26-.04-.53,0-.79.07-.48-.75,0-.75,0-.26-.02-.51-.08-.75-.18-.24-.15-.46-.34-.65-.55-.25-.26-.51-.5-.8-.72-.47-.38,0-.27,0-.51v-.8c0-.49-.23-.41-.79-.71-.56-.22-.85-.83-.67-1.4.22-.59.56-.52,0-1.17-.57-.65.52-.3,1.73-.24,1.2.07.06.65.45,1.17.38.51.34-.39,1.03-.72.69-.33.34-.21.45.35.11.55.17.71.28,1.55.1.83.47.71,1.55.92,1.07.21.62.41,1.16.99.54.59.89.41,1.32.82.44.42.35.28,1.17.8.82.51.34.48.65.75.3.28,0,.41-.31.8-.3.38.11.38-.62.75s-.3,1.03-.13.79c.17-.23.69-.17.41.18-.28.34.21.38.58.88.37.51,0,.28.41.76.41.47.24.41.34.75.11.35.14.35.56.97.42.62.65.34.86.38.33.02.65-.01.97-.1.34-.05.69.02.99.21.34,0,.68.07.99.21.3.39.56.8.79,1.23.23.43.52.21.52-.24s-.11-.41,0-.71c.11-.31.48-.22.45-.55-.07-.29-.2-.56-.38-.79-.3-.43-.58-.87-.82-1.32-.35-.62-1.04-.76-1.21-1.55-.17-.79.65-.62.58-.38-.06.23.31.75,1,.58.68-.17.41-.35.17-.82-.24-.48.51.1.86-.31.34-.41.38-.13.79,0,.41.14.41-.21.69-.37.28-.16.97.31.97.31.33.11.65.25.96.41.25.18.56.24.86.17.55-.07,1.06-.3,1.48-.65.8-.52.22,0,1.1,0h1.92c1.03,0,.58.38.45.45-.13.07-.24,0-.86,0s-.11.98-.13,1.32c-.03.35-1.33.85-1.33.85h-2.02c-1.2,0-.65-.89-.99-.74-.35.14-.48-.12-1.06.5s.11.24.79.27c.69.02.45,0,.41.34-.04.34,0,.29.28.57s.13.21,0,.56c-.13.34-.96.22-.96.22,0,0-.69.3-.45.68.23.37.82,0,1.74.26.93.26.23,1.18.15,1.61-.08.44.18.55,1.08.55s.68.13.98.57c.31.43.39-.11.93.15.54.27,0,.77.59.77s1.14.05,1.7.13c.84.11.27-.25.38-.92.11-.68.7-.6,1.72,0,1.02.59,1.32,1.06,1.6,1.14.54.03,1.09.03,1.63,0,.8-.34,1.58-.74,2.31-1.21,1.01-.51.55,0,1.42.28.87.28.36-.31.93-.54.56-.24,0,.65,0,1.16s0,.38-.22.85c-.21.46-.18.57.26.62.43.05-.28.7,0,1.44.27.74-.19.65-.39,1.21-.51.93-.86,1.94-1.06,2.99-.07,1.02-.46,2-1.11,2.8-.41.38-.65.19-2.13.33-1.48.15-1.44-.08-1.82,0-.39.08-.6-.08-.6-.57s-.59.16-1.23-.16c-.63-.31-.41.11-1.32.11s-.08.38-.57.38-.24,0-1.17.63c-.92.62-.46,0-2.42-.22-1.96-.21-.71.11-2.47-.51-.93-.44-1.98-.58-2.99-.41-1.75,0-.25,0-.41-.93-.16-.92,0,0-.77-.3-.77-.31-.93,0-2.53-.11-1.6-.1-.25-.21-.35-.51-.11-.31-.16-.41-.72-.72-.55-.3-.71,0-1.96,0s-.98.21-2.11.72c-.6.18-1.01.74-1.01,1.36,0,.17.02.33.08.49.13.57.19,1.16.16,1.74,0,.68-1.6,1.33-3.29.41-1.7-.91-1.86-1.32-2.73-1.32-.95-.16-1.76-.78-2.16-1.65-.25-.68-.76-.93-.82-1.14-.8-.25-1.63-.4-2.47-.46l-2.65-.47s-.46-.16-1.14-.41c-.67-.25-.76-.51-1.49-1.8-.73-1.28.87-1.32.87-1.32.42-.55.91-1.05,1.44-1.49,1.24-1.14-.3-.68-.71-1.55-.41-.88.52-.62,1.23-1.33.72-.7-.36-.51-1.03-.21-.68.31-.41.36-.68-.31-.26-.68-1.39.71-1.39.71h-1.74c-.92-.19-1.88-.08-2.73.32-1.39.67-1.17,0-1.8-.41-.62-.41-1.9.35-4.84.41-2.94.05-4.43,2.31-5.49,2.64-1.06.33-1.32.19-1.72-.22-.4-.41-1.61.12-1.61.12,0,0-1.33,0-1.33-1.14s-1.32.28-1.61,1.98c-.29,1.71-2.33,2.5-4.05,3.34-1.72.83-3.02,4.91-3.4,6.61-.54,1.8-1.86,3.26-3.6,3.97-1.14.16-1.98,1.58-2.29,2.58-.3,1.01-.74.8-1.32,1.83-.58,1.03-1.47,2.99-1.91,3.48-.43.49-.38.38-.51.92-.34,1.29-.81,2.54-1.39,3.74-.63,1.15-.86,2.48-.68,3.78.08.67.52,1.75,0,1.85-.51.11-.08.74.11,2.34.1,1.71.04,3.43-.19,5.12-.11.72-.17,1.44-.18,2.16,0,.74-1.32,1.39-.82,2.4.5,1,.95,1.66.59,2.21-.35.54,0,1.74,0,1.74,0,0,.16.54.28,1.18.12.63.52.95.82.74.31-.21.36.16.25.6-.12.38-.06.81.19,1.13.28.52.38.19.65.47.26.27,0,.49.54,1.08.54.6.49,1.11.98,1.32.49.22.51,1.09.74,1.63.22.54.11.39,0,.98-.11.6,0,.36.16.95.16.6.36.7.82,1.12.46.41-.16.64.62.97s.38.24.7.82c.32.59.39.47,1.33,1.14.93.68.95,1.01,1.54,2.26.6,1.26,2.16,1.63,2.81,2.02.65.38.49-.28.59-.49.11-.22.63-.44.63-.44,0,0,.25-.57.71-.62.47-.09.94-.21,1.4-.36.7-.08,1.41,0,2.07.24.32.08.66.1.99.06.45,0,.28,0,1.03.42.75.41.34.1.79.06s.31-.28.52-.65.38-.13.82-.38c.34-.19.66-.41.97-.65.38-.28.86-.37,1.32-.25.45,0,.71-.08.79-.53.08-.45.37-.25.55-.46.17-.21.3-.16.74-.14.24.03.49-.03.7-.15.24-.02.47-.02.71,0,.36,0,.68.27.68-.22s.51-.25.33,0c-.19.26.43,0,.71,0s.31,0,1.33.8c1.01.79.59.82.74,1.06.14.23.27.49.62.27.34-.21-.11.52,0,.96.1.43,0,.21.21.59.21.39.38.41.79.8.41.38.47.33.8.21.33-.12.54,0,.9-.11.35-.1.24-.35.59,0,.36.36.19-.32.36-.49.17-.17.21.17.97.14.75-.04.38-.31.38-.65s.41.54.86.68c.27.07.46.32.46.59,0,.08-.02.16-.05.24-.11.3.58.41,1.2.41s.35.71.76,1.03c.41.31.28.21.17.71-.11.5.11,1.48-.21,1.99-.32.5.06.41-.07,1.13-.04.74,0,1.47.11,2.2-.02,1.25-.32,2.48-.89,3.6-.36.52.54.28.9.65.36.37.49.38,1.14,1.08.65.7.52,1.55,1,1.58.49.02.88.18.88.71s.49.54,1.32,1.42c.71.69,1.35,1.44,1.91,2.26.62.87,0,.71.87,1.69.8,1.18,1.54,2.4,2.21,3.65.67,1.04,1.44,1.66.67,2.48-.76.82.11.62,1.33,1.75,1.21,1.12,1.85,3.81,1.32,4.68s-1.23,1.23-1.32,2.72c-.1,1.5.23,2.99,0,3.82-.24.82.67,2.11.67,2.11.25.82.62,1.6,1.09,2.32,1.66,2.14,3.54,4.11,5.61,5.87,1.39,1.18,1.03,2.65,2.06,4.28,1.03,1.62,2.37,3.4,3.45,4.73,1.09,1.34,1.23.88,2.07,1.7.83.82,3.97,4.27,4.27,4.84.31.57-.62.51,0,1.18.62.66.77,1.13,1.32.97.56-.15.31.11,1.04.47.72.35.51.09,1.13-.27.63-.35.47,0,1.33.21.86.22.21-.41.71-.76.5-.36.46,0,.87.1.28.06.56.13.83.23.3.12.25,0,1.08,0s0,0,.52,0,.3,0,.41-.31c.1-.3.71-.25.71-.25l1.55-.57c.36-.41.69-.85.98-1.32.51-.82.34-1.04,1.2-1.22.86-.17.16-.45.4-.91s.4-.74.75-1.55c.36-.8.43-.96,1.1-1.02.68-.05.24-.35.13-.79-.1-.44.2-.7.72-1.5.51-.79-.09-.52,0-1.45.09-.93,0,0-.52-.56-.51-.55.28-.82.28-.82l.89-.68,1.98-.39.58-.38c.11-.31.15-.64.11-.97-.07-.29-.12-.59-.13-.88.1-.33.17-.66.21-1-.01-.3-.13-.6-.35-.82-.27-.38,0-.27.11-.92s-.69-1.58-.89-2.31c-.2-.72,0-.34.56-.82.55-.47.28-.45.65-.82.44-.44.93-.83,1.48-1.13.79-.48-.72.17.36-.86,1.07-1.04.25-.41,1.69-1.23,1.44-.82,1.85-.68,1.85-.68l1.18-.93,1.14-.87.35-1.32.77-.68c.01-.45-.06-.9-.21-1.32-.25-.87-.46-1.39-.36-4.79.11-3.4,0-.82-.3-2.16-.31-1.33,0,0-.93-.71-.92-.71.1-1.32,0-2.26-.14-.78-.39-1.55-.72-2.26-.04-.54.08-1.08.34-1.55.41-.62-1.64-.41-1.64-.41v-3.71l1.64-1.32c.46-.62.81-1.32,1.04-2.05.11-.72.3-.5,1.22-1.43.93-.93,0,0,.23-.6.22-.59,1.43-.56,1.43-.56,0,0,1.05-.31,1.68-2.07,1.12-1.55,2.38-3,3.77-4.33,3.26-2.5,6.23-5.36,8.85-8.54,3.46-3.7,5.3-8.63,5.12-13.7-.07-1.72-1.51.07-2.13.55-.62.47-2.2.06-3.97.34-1.77.28-3.64.69-3.64.69-1.16.18-2.33.3-3.51.34-1.32,0-1.98-.96-1.98-3.29s-3.7-4.53-3.7-4.53l-4.74-3.16s-.62-1.92-1.1-3.97c-.48-2.05-.56-1.98-2.41-3.36-1.85-1.38-1.78-2.41-1.72-4.6.23-1.22-.33-2.47-1.39-3.11-.88-.67-1.61-1.51-2.15-2.48-.16-.67-.11-.57.3-1.23.41-.66-1.03-1.96-1.03-1.96-.62-.87-1.12-1.82-1.5-2.83-.62-1.65-.57-1.08-1.65-3.75-1.09-2.68-1.96-2.73-2.58-3.97-.62-1.25,3.65,4.48,3.65,3.45.18-1.14.63-2.22,1.32-3.14.63-1.08-.21,1.6-.56,2.84-.36,1.23,1.13,1.32,1.13,1.32l2.94,2.88c.37,1.66,1.16,3.19,2.32,4.43,1.06,1.06,1.91,2.29,2.52,3.66.98,1.85.11,1.65,1.33,3.6,1.21,1.94,2.21,1.74,3.4,3.81.83,1.65,1.78,3.25,2.83,4.79,1.14,1.49.77,1.74.77,2.52-.01,1.22.15,2.43.46,3.6.3.72,1.32,3.65,3.13,3.97,1.82.32,1.39-1.44,2.84-1.6.93.04,1.86-.21,2.64-.71,1.32-.72,1.14-.68,2.01-.63.88.06.98-.25,2.58-1.9,1.6-1.66.98-.68,3.97-.88,2.99-.19,1.46-1.79,1.46-1.79.66-1.02,1.62-1.82,2.75-2.27,2.2-1.1,1.16,0,2.47-.88,1.31-.89.07-1.1.89-1.33.82-.22,1.23,0,1.85-1.32.62-1.32.97-.62,2.41-.75,1.44-.14-.07-.56-.28-2.33-.21-1.78,0-1.33,1.33-.82,1.32.5.21-.89.96-2.82.76-1.93.82-2.65.41-3.16-.68-.56-1.44-1.01-2.26-1.33-1.02-.64-2.08-1.24-3.16-1.78-1.79-.89-.55-.54-1.04-1.33-.41-.7-.65-1.5-.68-2.32-.28-1.51-.48.34-1.23.96-.55.46-1,1.02-1.33,1.66-.54.82,0,.82-.96,1.5-.97.69-.97.41-1.99.22-1.02-.2-1.16.34-2.13.41-.96.06-.75-.63-1.23-1.66-.47-1.03-2.75-2.19-2.75-2.19l-.11-1.82-1.5-1.32c-1.51-1.32-1.04-1.92-1.04-1.92l-1.81-.96c-1-.45-1.98-.97-2.91-1.55-1.89-1.14,0-.82.62-1.33.62-.5.72-.06,2.16.07,1.44.13.89-.24,1.03-1.16.15-.93.62.71,2.2.45,1.57-.27.21.21.96,1.32.76,1.11,1.86,3.16,3.75,3.77,1.89.61,1.68,1.32,1.68,1.32.55.44,1.2.72,1.89.82,1.44.35,1.32.18,3.74-.3,2.43-.48,1.68.24,2.99,2.13,1.31,1.89.72.34,5.05,1.16.79.15,1.32.24,1.66.28,0,0,0,.13.16.27.16.17.38.28.62.28.36,0,.68-.24.78-.59.11-.34.35.35.59.35,1.02-.4,2.08-.67,3.16-.82,1.4-.07,3.23-.72,4.26,0,1.03.71.79,1.32,1.65,1.05.86-.26.69.89,1.33,2.33.1.42.48.71.91.71.3,0,.59-.15.77-.4.05.42.2.81.45,1.16.73.63,1.69.91,2.64.8,1.17-.14.72.13.41.41-.41.52-1.1.75-1.74.58-.93-.28.17,1.32,2.13,3.08,1.95,1.76,1.74.41,3.12.17,1.37-.24.34-1.78.58-2.95.24-1.16.75,1.4.52,2.85-.24,1.44.54,1.78,1.03,3.08.49,1.3,0,2.3,1.68,7.04,1.68,4.73,5.01,15.35,6.18,17.29,1.16,1.95,1.32,1.23,1.98.24s1.48-.89,1.48-.89c0-.41.06-.81.18-1.2.17-.45.21-.72,1.16-1.48.95-.77.13-.55.13-.55,0,0,0-.34-.13-1.65-.13-1.31.3-1.32.3-1.32l.31-1.66c-.06-1.11-.01-2.23.13-3.33.07-1.14,0-2.28-.21-3.4,0-.86.17-.58.79-.58s.52-.69.72-1.17c.2-.47.38.17.65,0,.45-.23.77-.66.86-1.16.11-.51.37-.97.75-1.33.25-.73.54-1.45.86-2.15.25-.52.61-.97,1.06-1.32.51-.48,1.06-.69,1.03-1.33-.03-.63,0-.28.38-.28.26.04.52.02.76-.06.37-.41.7-.85.99-1.33.07-.43.1-.88.11-1.32,0-.79.1-.38.38-.96.2-.39.35-.79.45-1.21.24-.79.69.58.69.58l.82.22.13.56.3.72h1.14l.52-1.32c-.06-.49-.15-.98-.28-1.46-.13-.38.79-1.24.79-1.24l.72.74c.35.79.54,1.64.55,2.51,0,1.32.76.15.76.15.06.28.06.57,0,.84-.11.41,1.1,1.02,1.1,1.02l.62.82.62.76c-.02.48-.08.96-.17,1.44-.17.97,0,1.03.38.58.39-.45.52-.71.52-.3.22.95.49,1.89.82,2.82.33.92,0,1.98-.07,3.08-.06,1.1.21.69.45.82s.8.58.93.54c.13-.04.24-.75.86-1.65.62-.9.69-.62.82-1.58.13-.95.93.65,1.32,1.75.57,1.65.98,3.36,1.21,5.09.37,1.8.44,3.64.21,5.45-.25,2.32-.72,5.1-.82,7.11-.11,2.01,1.18,3.45,1.32,4.11.1.98.1,1.96,0,2.94.03.99.13,1.97.3,2.94.18.97-.15,1.9-.15,2.64.13.8.44,1.56.92,2.21.41.77.82.52,1.18.11.36-.41.25-.67-.21-2.65-.46-1.97-.11-.87.51-3.18.47-1.53.3-3.19-.47-4.58-.45-.93-.72-1.1-1.33-1.33-.6-.22-.34-1.05-.17-2.36.17-1.31-.28-1.17,0-2.5.28-1.34-.17-.28-.51.06-.35.35-.21.07-.45-.92-.24-1,.1-1.33.17-2.13.2-1.14.51-2.26.93-3.34.71-2.41,0-.62,0-1.32.04-.66.24-1.29.58-1.85.24-.39.28.38.28.92s0,.72.23,1.03c.24.32,1.23.18,1.45.59.21.41.58,1.54.58,1.54.12.55.21,1.1.28,1.66.01.63.33,1.21.86,1.57.31.28.39.74.17,1.1l-.39,1.2s.11.89.48.72c.37-.17.28-.35,1.16-1.58.89-1.23.07-1.32.31-2.15.24-.84.65.13,1.32-.97.49-1.02.8-2.11.93-3.23.13-.68.18-1.37.13-2.06-.04-1.01-.16-2.02-.34-3.02-.22-1.1-.28-.75-.89-2.95-.61-1.93-1.38-3.82-2.3-5.62-.29-.96-.33-1.97-.11-2.95.15-.89.35-1.78.6-2.65.1-.76.21-1.39,1.13-1.39s.11.77.98,2.42c.88,1.66.82-1.54.93-3.4.11-1.85,1.1-1.57,2.08-2.64.49-.74.39-1.73-.24-2.36Z"/>
      <path class="cls-4" d="M316.07,139.13c16.39,20.53,25.31,46.05,25.27,72.32,0,63.7-52.42,116.11-116.12,116.11-26.27.04-51.78-8.87-72.32-25.27,22,27.68,55.49,43.83,90.85,43.8,63.7,0,116.11-52.42,116.11-116.12.03-35.35-16.11-68.84-43.79-90.84Z"/>
      <path class="cls-1" d="M137.74,240.08c0-63.7,52.42-116.11,116.12-116.11,28.32-.04,55.7,10.32,76.89,29.11-22-24.95-53.72-39.25-86.99-39.22-63.7,0-116.11,52.42-116.11,116.11-.04,33.27,14.26,64.99,39.21,87-18.79-21.19-29.15-48.57-29.12-76.89Z"/>
      <path class="cls-5" d="M355.67,208.36c-.27,0-.45,1.46-.31,2.81.19,1.79.98,3.47,1.33,3.4.34-.06,0-2.36-.14-3.4-.13-.26-.57-2.84-.88-2.81Z"/>
      <path class="cls-5" d="M359.24,236.91c-.24,0-.46-.85-.52-1.03-.08-.38-.13-.76-.13-1.14v-1.33c-.05-.52-.2-1.02-.45-1.48-.58-1.32.21-2.39.28-4.43.1-1.48-.26-2.95-1.03-4.22-.03.6-.01,1.21.06,1.81v6.62c-.05.83-.01,1.67.14,2.5.22,1.08.45.99.64,1.89.2.9,0,1.07-.23,4.22-.07.74-.11,1.11-.11,1.32.12.96.17,1.92.17,2.89-.17,1-.58.78-.71,1.78-.14,1.01.13,1.17,0,2.58v.39c.55-.77,1-1.61,1.32-2.5.54-3.72.9-7.48,1.07-11.3-.1.82-.29,1.43-.5,1.43Z"/>
      <path class="cls-7" d="M343.16,315.5c-.77,0-1.55-.27-2.18-.82-1.38-1.2-1.51-3.29-.31-4.67,16.84-19.26-3.09-38.02-3.95-38.8-1.34-1.24-1.43-3.33-.2-4.67,1.23-1.34,3.32-1.44,4.67-.21,8.93,8.16,21.36,28.71,4.46,48.04-.65.75-1.57,1.13-2.49,1.13Z"/>
      <path class="cls-6" d="M283.9,200.87c-70.12-1.33-70.72,22.7-68.8,64.83,1.33,29.11,5.3,50.27,8.18,60.14,4.25,14.56,11.01,29.38,58.73,29.38s55.07-14.69,58.73-22.03c3.67-7.35,9.01-52.78,7.35-75.05-2-26.84.64-56.06-64.19-57.27Z"/>
      <path class="cls-6" d="M324.55,370.4c-.46,0-.93-.04-1.4-.14-3.98-.77-6.59-4.6-5.81-8.58q2.11-10.82.29-23.13l7.26-1.13,7.26-1.07-7.26,1.07,7.27-1.01c2.12,14.38,2.11,15.16-.39,28.02-.68,3.51-3.77,5.97-7.22,5.97Z"/>
      <path class="cls-6" d="M242.33,373.63c-3.2,0-6.15-2.11-7.07-5.34-.35-1.22-3.34-12.43-.48-31.78.59-4.01,4.32-6.79,8.34-6.19,4.01.59,6.78,4.33,6.19,8.34-2.4,16.23.05,25.52.08,25.62,1.12,3.9-1.13,7.94-5.03,9.06-.67.19-1.35.29-2.02.29Z"/>
      <path class="cls-9" d="M295.93,333.76c-.17,0-.35,0-.52,0-18.02-.16-30.56-8.3-34.58-15.79-1.73-3.22-.52-7.23,2.7-8.96,3.22-1.73,7.23-.52,8.96,2.7,2.23,4.16,11.67,8.71,23.04,8.81,4.7.03,16.09-.74,20.67-8.92,1.79-3.19,5.82-4.32,9-2.54,3.19,1.79,4.32,5.82,2.54,9-5.59,9.98-17.17,15.68-31.82,15.68Z"/>
      <circle class="cls-9" cx="335.5" cy="292.16" r="9.26"/>
      <path class="cls-3" d="M246.73,284.17c5.8-.69,11.06,3.47,11.75,9.27.69,5.8-3.46,11.07-9.26,11.75-5.8.69-11.07-3.46-11.76-9.26-.69-5.8,3.46-11.07,9.27-11.76Z"/>
      <path class="cls-6" d="M377.02,288.42c-2.83,0-8.41-.35-16.31-2.43-2.83-.75-4.51-3.64-3.77-6.47.75-2.83,3.64-4.51,6.47-3.77,9.29,2.45,14.64,2.05,14.69,2.05,2.92-.25,5.46,1.91,5.72,4.8s-1.85,5.46-4.74,5.74c-.21.02-.9.08-2.06.08Z"/>
      <path class="cls-6" d="M209.17,308.24c-2.6,0-5.01-1.66-5.83-4.27-.25-.78-2.4-8.05-1.74-21.42.17-3.39,3.01-6,6.44-5.83,3.39.17,6,3.05,5.83,6.44-.56,11.15,1.18,17.09,1.2,17.15.97,3.23-.84,6.66-4.07,7.65-.61.19-1.22.28-1.82.28Z"/>
      <path class="cls-9" d="M335.5,233.94c5.16,4.13,6.62,13.14,6.62,22.5,0,7.93-1.32,14.55-11.91,13.23-10.58-1.33-66.15-.89-86,1.32-11.91,1.32-11.91-26.46-5.29-35.72,7.83-10.96,43.54-10.31,58.21-9.27,18.53,1.33,31.76,2.65,38.37,7.94Z"/>
      <path class="cls-9" d="M310.33,220.15c-.11,0-.22,0-.33-.01l-2.15-.13q-18.35-1.15-40.97-.52l-1.4.04s-.1,0-.15,0c-2.81,0-5.13-2.24-5.21-5.07-.08-2.88,2.19-5.28,5.07-5.36l1.4-.04q23.09-.64,41.91.53l2.14.13c2.87.18,5.06,2.65,4.88,5.53-.17,2.76-2.47,4.89-5.2,4.89Z"/>
      <path class="cls-5" d="M372.55,362.49c-1.1,0-1.98-.89-1.98-1.98v-129.67c0-1.1.89-1.98,1.98-1.98s1.98.89,1.98,1.98v129.67c0,1.1-.89,1.98-1.98,1.98Z"/>
      <path class="cls-5" d="M366.65,244.13c-.4,0-.93-.21-1.3-1.15-1.8-4.65,5.83-12.3,6.16-12.62.21-.21.54-.25.8-.1.26.15.38.45.31.74-1.3,4.85-3.79,13.01-5.9,13.12-.02,0-.04,0-.06,0ZM366.77,242.84h0,0ZM370.57,233.37c-2.24,2.69-4.92,6.71-3.99,9.14.05.12.09.2.12.25.86-.6,2.5-4.87,3.86-9.39Z"/>
      <path class="cls-7" d="M217.47,318.15c-.77,0-1.55-.27-2.18-.82-1.38-1.2-1.52-3.29-.31-4.67,16.84-19.27-3.1-38.03-3.96-38.81-1.34-1.24-1.43-3.33-.2-4.67,1.23-1.35,3.32-1.44,4.67-.21,8.94,8.16,21.37,28.71,4.47,48.05-.65.75-1.57,1.13-2.49,1.13Z"/>
    </g>
  </g>
</svg>