<?xml version="1.0" encoding="UTF-8"?>
<svg xmlns="http://www.w3.org/2000/svg" viewBox="0 0 500 500">
  <defs>
    <style>
      .cls-1, .cls-2, .cls-3, .cls-4, .cls-5, .cls-6 {
        fill-rule: evenodd;
      }

      .cls-1, .cls-2, .cls-3, .cls-4, .cls-5, .cls-6, .cls-7, .cls-8, .cls-9, .cls-10, .cls-11, .cls-12, .cls-13 {
        stroke-width: 0px;
      }

      .cls-1, .cls-7 {
        fill: #282c33;
      }

      .cls-2 {
        fill: #869eb4;
      }

      .cls-3 {
        fill: #e25517;
      }

      .cls-4, .cls-13 {
        fill: #e75c0b;
      }

      .cls-5, .cls-11 {
        fill: #a03d12;
      }

      .cls-6 {
        fill: #f2651d;
      }

      .cls-8 {
        fill: #14181e;
      }

      .cls-9 {
        fill: #d3500f;
      }

      .cls-10 {
        fill: #c15323;
      }

      .cls-12 {
        fill: #fff;
      }
    </style>
  </defs>
  <g id="stiker_style" data-name="stiker style">
    <path class="cls-12" d="M386.49,285.75v-40.77c1.51-1.4,2.68-3.29,2.68-6,0-2.02-.67-3.46-1.09-4.34,0-.1,0-.2,0-.31,0-1.8-.59-3.45-1.59-4.79v-37.03c0-3.65-1.4-6.97-3.7-9.47,4.54-13.24,3.76-31.29-2.59-42.84-3.94-7.16-9.76-11.39-16.49-12.09-.83-.29-1.72-.45-2.66-.45h-41.65c-.54-.52-1.13-.99-1.77-1.41-4.63-3.01-10.63-2.29-14.44,1.41h-59.34c-.54-.52-1.13-.99-1.77-1.41-4.63-3.01-10.63-2.29-14.44,1.41h-29.3c-1.08,0-2.11.21-3.04.6-10.63,1.71-18.33,12.16-20.43,28.08-2.06,15.69,1.81,33.9,12.56,41.38v35.95c-.53.2-1.04.46-1.52.77-3,1.95-4.42,5.08-4.21,9.29-1,3.45-.59,6.51-.29,8.76.11.8.23,1.7.21,2.21-.81,3.33-.86,6.66-.74,9.81-.03.12-.06.25-.09.38-.87,3.65-.72,6.66.43,9-.38,5.2-.46,11.6-.23,19.04-.44.75-.84,1.52-1.22,2.29-2.73-1.23-6.44-2.68-11.19-4.02v-40.79c0-6.41-5.22-11.63-11.63-11.63-4.27,0-8.1,2.34-10.12,5.9-3.92,4.01-11.5,13.25-8.12,21.96,1.22,3.15,3.66,5.34,6.61,6.09v20.35c-.81.77-1.53,1.67-2.12,2.69-2.75,4.67-2.75,11.45,0,16.13.6,1.02,1.32,1.92,2.13,2.69v78.18c0,6.41,5.22,11.63,11.63,11.63s11.63-5.22,11.63-11.63v-72.29c1.09.5,1.68.83,1.76.88,1.96,1.24,4.18,1.97,6.48,2.12.77,3.48,1.92,6.93,3.46,10.29,0,.17,0,.35,0,.52-1.12,2.16-1.61,4.7-1.61,8.03,0,4.77.73,7.21,1.47,9.29q.22.63.23.93c.02.58.1,1.16.25,1.73.22,1.19.16,5.08.13,7.18-.07,4.43-.07,6.47.55,8.39.39,1.2,1.06,2.3,1.96,3.19,1.61,1.6,3.42,2.18,4.96,2.39,1.66,4.72,5.78,8.29,10.81,9.17.08,1.26.18,2.43.3,3.51-12.86,2.43-20.53,6.08-20.53,13.86,0,9.42,11.37,12.85,29.72,15.31,15.04,2.02,34.93,3.13,56.03,3.13s40.99-1.11,56.03-3.13c18.34-2.46,29.71-5.88,29.71-15.31,0-7.97-7.43-12.18-27.72-15.05.06-.67.12-1.38.17-2.11h49.74c7.72,0,14-6.28,14-14v-23.52c3.45-1.79,5.81-5.4,5.81-9.55v-42.44c0-4.15-2.36-7.75-5.81-9.55Z"/>
  </g>
  <g id="Bubus">
    <path class="cls-2" d="M264.56,391.52c42.91,0,77.74,4.68,77.74,10.45s-34.83,10.44-77.74,10.44-77.75-4.68-77.75-10.44,34.84-10.45,77.75-10.45Z"/>
    <path class="cls-7" d="M305.36,401.16c-.74,0-1.49-.1-2.23-.32-4.26-1.23-6.73-5.66-5.53-9.93.07-.28,2.69-10.47.08-28.11-.65-4.4,2.39-8.5,6.79-9.16,4.4-.66,8.5,2.39,9.16,6.79,3.15,21.23-.13,33.55-.52,34.88-1.02,3.53-4.24,5.83-7.74,5.83Z"/>
    <path class="cls-7" d="M216.44,401.16c.74,0,1.49-.1,2.23-.32,4.26-1.23,6.73-5.66,5.53-9.93-.07-.28-2.69-10.47-.08-28.11.65-4.4-2.39-8.5-6.79-9.16-4.4-.66-8.5,2.39-9.16,6.79-3.15,21.23.13,33.55.52,34.88,1.02,3.53,4.24,5.83,7.74,5.83Z"/>
    <path class="cls-10" d="M202.52,347.27c-.75,0-1.5-.23-2.15-.71-10.67-7.87-17.36-22-16.63-35.18.61-11.16,6.26-20.38,15.89-25.96,1.74-1.01,3.96-.42,4.96,1.32,1.01,1.74.42,3.96-1.32,4.96-9.54,5.53-11.94,13.97-12.28,20.08-.59,10.83,4.91,22.46,13.69,28.94,1.61,1.19,1.96,3.46.77,5.08-.71.97-1.81,1.48-2.93,1.48Z"/>
    <rect class="cls-9" x="320.38" y="186.51" width="58.11" height="190.3" rx="6" ry="6"/>
    <rect class="cls-13" x="195.45" y="186.51" width="151.08" height="190.3" rx="6" ry="6"/>
    <path class="cls-7" d="M259.69,211.51c76.99-1.45,77.64,24.93,75.54,71.18-7.94,60.92,5,98.19-73.46,98.29-52.4,0-60.46-16.13-64.49-24.19-4.02-8.06-9.89-57.95-8.06-82.4,2.19-29.47-.71-61.54,70.47-62.88Z"/>
    <path class="cls-8" d="M324.38,328.71c-4.83,12.81-15.67,7.67-27.02,6.27-1.46-.37-2.17-3.29-9.46-4.08-7.29-.78-18.25-1.32-21.89-1.32s-11.62-1.57-13.38,0c-1.76,1.57-8.82-.77-13.38-.77h-10.33c-3.54.56-26.99.26-30.4-.46,0,0-7.13-4.13-7.13-4.13,0,0-3.74,7.66-3.01,10.71.72,3.05-1.7.9-1.7,7.4s1.58,6.25,1.7,9.96c.88,3.3,0,13.42.54,15.09.49.49,4.92-.35,6.5,1.45,1.59,1.8.34-.1,3.08,2.53,5.22,4.96,19.09,12.2,25.51,11.11,3.34-.11,18.26.54,19.47.07,1.2-.46,1.12-1.14,4.81.16,6.22,2,10.48,1.37,17.35,1.46,3.96-.08,6.09,1.17,10.94-.27,4.86-1.43,0-1.45,4.84-1.45,7.6.88,13.58,4.17,17.51-3.37l7.98-2.1c1.43.29,2.88-.49,3.4-1.85.92-2.38,5.81-6.23,5.81-6.23l3.67-6.19s2.8-3.69,2.71-5.9c.94-3.81,2.84-12.21,6.7-14.32v-7.38l-4.82-6.39ZM278.37,354.45c-2.32,6.73-9.38,6.74-17.02,6.74-11.99.76-21.35.23-32.5-.25-3.78,0-6.71-5.17-9.59-10.46-2.87-5.28,1.21-4.54,5.04-6.46,4.01-2.44,20.68.7,22.91-4.23,4.74,4.91,12.7,3.73,18.33,4.26,3.84.36,9.47,2.9,12.83,3.27,3.36.36,1.08,4.05,0,7.13Z"/>
    <path class="cls-7" d="M177.75,315.53c-1.08,0-2.18-.3-3.15-.93-.16-.1-5.14-3.17-15.31-5.51-3.13-.72-5.08-3.84-4.36-6.97s3.84-5.08,6.97-4.36c12.34,2.84,18.41,6.68,19.06,7.11,2.68,1.76,3.43,5.37,1.66,8.05-1.12,1.7-2.97,2.62-4.86,2.62Z"/>
    <path class="cls-7" d="M341.72,329.41c-.67,0-1.36-.1-2.04-.32-3.53-1.12-5.5-4.88-4.41-8.42.07-.22,1.92-6.75,1.31-18.83-.19-3.72,2.67-6.88,6.39-7.07,3.73-.2,6.88,2.67,7.07,6.39.74,14.68-1.63,22.67-1.91,23.53-.91,2.87-3.56,4.71-6.42,4.71Z"/>
    <path class="cls-12" d="M203.04,247.82c-7.81,5.23-14.43,43.76,5.81,39.23,11.62-1.46,72.63-.98,94.42,1.45,13.07,1.45,13.07-29.05,5.81-39.22-8.6-12.03-47.81-11.32-63.92-10.17-20.33,1.45-34.86,2.9-42.12,8.71Z"/>
    <path class="cls-12" d="M230.68,232.74c-3,0-5.52-2.33-5.71-5.37-.2-3.15,2.2-5.87,5.36-6.07l2.37-.15q20.66-1.29,45.99-.58l1.55.04c3.16.09,5.65,2.72,5.56,5.88-.09,3.16-2.73,5.64-5.88,5.56l-1.55-.04q-24.81-.69-44.96.57l-2.37.15c-.12,0-.24.01-.36.01Z"/>
    <path class="cls-6" d="M198.36,135.66v.35c-21.34.17-21.34,56.99,0,57.17v.59h162.7v-58.11h-162.7Z"/>
    <path class="cls-3" d="M361.51,136.01c21.57-.13,21.57,57.32,0,57.18-21.57.13-21.56-57.32,0-57.18Z"/>
    <path class="cls-10" d="M235.76,197.4c-1.5,0-2.91-.94-3.43-2.44-13.5-38.87-.19-60.05.39-60.93,1.09-1.68,3.34-2.16,5.02-1.07,1.68,1.09,2.16,3.33,1.08,5.01-.19.31-11.83,19.46.38,54.6.66,1.9-.34,3.96-2.24,4.62-.39.14-.8.2-1.19.2Z"/>
    <path class="cls-10" d="M311.3,197.4c-1.5,0-2.91-.94-3.43-2.44-13.5-38.87-.19-60.05.39-60.93,1.09-1.68,3.34-2.16,5.02-1.07,1.68,1.09,2.16,3.33,1.08,5.01-.19.31-11.83,19.46.38,54.6.66,1.9-.34,3.96-2.24,4.62-.39.14-.8.2-1.19.2Z"/>
    <path class="cls-13" d="M156.96,396.42c-2.01,0-3.63-1.63-3.63-3.63v-142.36c0-2.01,1.63-3.63,3.63-3.63s3.63,1.63,3.63,3.63v142.36c0,2.01-1.63,3.63-3.63,3.63Z"/>
    <path class="cls-13" d="M147.59,265.03c-.44,0-1.03-.23-1.42-1.26-1.98-5.1,6.4-13.49,6.76-13.85.23-.23.59-.28.88-.11.28.16.42.5.34.82-1.42,5.33-4.16,14.28-6.47,14.4-.02,0-.05,0-.07,0ZM147.73,263.61h0,0ZM151.89,253.22c-2.46,2.95-5.4,7.37-4.37,10.03.05.13.1.22.13.28.94-.66,2.75-5.34,4.24-10.31Z"/>
    <path class="cls-1" d="M153.15,297.99c5.37-.14,5.36,11.86,0,11.73-5.36.13-5.36-11.86,0-11.73Z"/>
    <path class="cls-4" d="M384.3,295.3c0-1.52-1.23-2.75-2.75-2.75h-17.75c-1.51,0-2.74,1.23-2.74,2.75v42.44c0,1.52,1.23,2.75,2.74,2.75h17.75c1.52,0,2.75-1.23,2.75-2.75v-42.44Z"/>
    <path class="cls-11" d="M360.69,300.75s16.2,11.51,17.03,9.58c.83-1.93,5.81-9.58,5.81-9.58,0,0-2.91,12.59-5.39,12.84-2.49.24-15.14-8.5-17.45-12.84Z"/>
    <path class="cls-5" d="M377.05,304.67c.04-.69-1.54-.29-1.89-.39-.69-.04-.29,1.54-.39,1.89-.04.68,1.54.29,1.89.39.68.03.29-1.54.39-1.89Z"/>
    <path class="cls-10" d="M339.55,348.77c-.82,0-1.65-.28-2.33-.85-10.54-8.85-16.93-24-15.89-37.68.81-10.66,6.06-19.46,14.78-24.78,1.71-1.04,3.95-.5,4.99,1.21,1.04,1.71.5,3.95-1.21,4.99-8.55,5.21-10.88,13.28-11.32,19.13-.85,11.29,4.62,24.27,13.32,31.57,1.54,1.29,1.74,3.58.45,5.12-.72.86-1.75,1.3-2.78,1.3Z"/>
    <path class="cls-12" d="M204.98,298.36c7.28-.16,19.49-1.42,19.53,9.14-.03,9.19-8.93,10.43-16.19,9.75-5.48,0-9.99-4.51-9.99-10-.63-4.32,1.88-8.96,6.65-8.89Z"/>
    <path class="cls-12" d="M297.31,317.25h-8.03c-12.11.03-12.81-18.69-.44-18.89,0,0,11.84,0,11.84,0,11.5.97,6.98,19.81-3.37,18.89Z"/>
    <path class="cls-11" d="M188.87,270.75h0s79.87,10.1,145.05.23c1.04-.16,1.91-.91,2.22-1.92.15-.51-.24-.15-.39-1.22-.41-4.36.67-7.12.42-11.04-1.34-3.31.71-6.88-.47-10.19-3.35,1.03-91.76-19.69-103.58-15.1-6.75,1.64-33.77,8.8-41.83,9.65-1.29.84,0,3.26-.84,4.65-1.09,3.45.65,6.82.06,10.4-.75,2.74-.72,5.8-.59,8.71-.04,1.62-1.61,4.93-.05,5.83Z"/>
    <path class="cls-5" d="M336.36,253.07c5.94-.11,5.93,11.19,0,11.07-5.93.11-5.94-11.18,0-11.07Z"/>
    <path class="cls-11" d="M337.61,254.01s1.15,3.91,9.31-3.56c8.16-7.46,6.15-9.37,13.71-11.62,7.57-2.25,17.44-4.5,19.45-4.5,0,2.05-.81.13,0,2.05.82,1.92,1.09,2.18,1.09,2.6s-7.1,4.36-11.47,4.91c-13.2-1.49-17.87,13.09-30.16,12.42l-1.93-2.3Z"/>
    <path class="cls-11" d="M337.81,256.38c12.6-4.15,11.71.63,20.12,8.72,3.69,2.29,2.4,3.83,8.14,3.15-.82,1.64-2.08.81-1.8,2.45.27,1.65-.09,2.6-.63,2.6s-1.2.14-1.2,1.37c-7.42,2.84-11.24-15.52-17.79-16.02,0,0-6.82-.47-6.82-.47l-.02-1.8Z"/>
  </g>
</svg>