<?xml version="1.0" encoding="UTF-8"?>
<svg xmlns="http://www.w3.org/2000/svg" xmlns:xlink="http://www.w3.org/1999/xlink" viewBox="0 0 500 500">
  <defs>
    <style>
      .cls-1 {
        clip-path: url(#clippath);
      }

      .cls-2 {
        fill: none;
      }

      .cls-2, .cls-3, .cls-4, .cls-5, .cls-6, .cls-7, .cls-8, .cls-9, .cls-10, .cls-11, .cls-12, .cls-13, .cls-14 {
        stroke-width: 0px;
      }

      .cls-15 {
        opacity: .3;
      }

      .cls-3, .cls-4, .cls-5 {
        fill-rule: evenodd;
      }

      .cls-3, .cls-8 {
        fill: #272c32;
      }

      .cls-4 {
        fill: #869eb4;
      }

      .cls-5, .cls-12 {
        fill: #fff;
      }

      .cls-16 {
        isolation: isolate;
      }

      .cls-7 {
        fill: #78637c;
      }

      .cls-9 {
        fill: #cc95d8;
      }

      .cls-10, .cls-14 {
        fill: #bfb2c1;
      }

      .cls-11 {
        fill: #323749;
      }

      .cls-13 {
        fill: #e8e8e8;
      }

      .cls-14 {
        mix-blend-mode: darken;
        opacity: .2;
      }
    </style>
    <clipPath id="clippath">
      <rect class="cls-2" x="284.45" y="119.79" width="93.56" height="136.78" rx="4.49" ry="4.49" transform="translate(1.73 -3.02) rotate(.52)"/>
    </clipPath>
  </defs>
  <g class="cls-16">
    <g id="stiker_style" data-name="stiker style">
      <path class="cls-12" d="M387.99,115.96c-2.34-2.38-5.46-3.71-8.8-3.74l-67.29-.61-3.11-22.22c-.3-2.81-1.93-5.13-3.93-7-1.74-10.96.69-27.47-15.53-26.84,0,0-87.06,9.62-87.06,9.62-6.68.6-11.92,7.13-11.04,13.78.2.81,2.68,26.43,3.17,26.41l-69.26,4.82c-2.98.21-5.7,1.56-7.66,3.81-7.26-1.7,7.73,134.8,6.33,138.18.43,6.17,5.82,10.86,11.98,10.42,11.62-.7,80.16-6.01,90.12-5.53,7.69-1.91,13.02-8.96,12.43-16.92,0,0-2.53-28.71-2.53-28.71l35.06-3.87c.45,3.57-1.72,47.66.88,49.56-27.25-2.38-67.76-3.69-90.4,20.42-8.6,11.58-10.76,31.76-11.35,46.83-23.47-10.29-27.64,34.88-27,38.56.65,17.48,25.51,19.61,29.18,2.66,2.9,20,9.05,47.68,24.33,58.5.39,1.55.84,3.09,1.34,4.6-8.81,1.62-25.04.58-25.85,12.51-1.85,16.87,56.97,13.44,74.56,14.52,17.68-1.09,76.27,2.37,74.49-14.52-.73-11.88-17.11-10.91-25.79-12.5.14-.43.28-.87.42-1.3,17.96-8.73,22.99-29.68,28.07-55,8.37,10.02,25.77,3.71,25.76-9.46.71-1.54-2.79-43.66-22.55-39.8-1.11-24.22-5.03-50.6-27.69-58.85.5,0,78.07.71,78.53.72,6.71.2,12.68-5.66,12.6-12.37-1.56-3.83,5.24-137.95-2.41-136.66Z"/>
    </g>
    <g id="Bubus">
      <path class="cls-4" d="M246.56,434.63c-36.75,0-66.56,2.96-66.56,6.57s29.81,6.52,66.56,6.52,66.49-2.92,66.49-6.52-29.81-6.57-66.49-6.57Z"/>
      <g>
        <g>
          <path class="cls-13" d="M379.12,120.22l-20.38-.19-1.25,136.77,20.38.19c2.48.02,4.5-1.97,4.53-4.45l1.17-127.8c.02-2.48-1.97-4.5-4.45-4.53ZM379.96,252.07c-.7,0-1.27-.58-1.26-1.28s.58-1.27,1.28-1.26,1.27.58,1.26,1.28-.58,1.27-1.28,1.26ZM380.04,243.18c-.7,0-1.27-.58-1.26-1.28,0-.7.58-1.27,1.28-1.26s1.27.58,1.26,1.28-.58,1.27-1.28,1.26ZM380.12,234.29c-.7,0-1.27-.58-1.26-1.28s.58-1.27,1.28-1.26,1.27.58,1.26,1.28-.58,1.27-1.28,1.26ZM380.2,225.4c-.7,0-1.27-.58-1.26-1.28s.58-1.27,1.28-1.26,1.27.58,1.26,1.28-.58,1.27-1.28,1.26ZM380.28,216.51c-.7,0-1.27-.58-1.26-1.28s.58-1.27,1.28-1.26,1.27.58,1.26,1.28-.58,1.27-1.28,1.26ZM380.36,207.61c-.7,0-1.27-.58-1.26-1.28s.58-1.27,1.28-1.26,1.27.58,1.26,1.28-.58,1.27-1.28,1.26ZM380.44,198.72c-.7,0-1.27-.58-1.26-1.28s.58-1.27,1.28-1.26,1.27.58,1.26,1.28-.58,1.27-1.28,1.26ZM380.52,189.83c-.7,0-1.27-.58-1.26-1.28s.58-1.27,1.28-1.26,1.27.58,1.26,1.28-.58,1.27-1.28,1.26ZM380.61,180.94c-.7,0-1.27-.58-1.26-1.28s.58-1.27,1.28-1.26,1.27.58,1.26,1.28-.58,1.27-1.28,1.26ZM380.69,172.05c-.7,0-1.27-.58-1.26-1.28s.58-1.27,1.28-1.26,1.27.58,1.26,1.28-.58,1.27-1.28,1.26ZM380.77,163.15c-.7,0-1.27-.58-1.26-1.28s.58-1.27,1.28-1.26,1.27.58,1.26,1.28-.58,1.27-1.28,1.26ZM380.85,154.26c-.7,0-1.27-.58-1.26-1.28s.58-1.27,1.28-1.26,1.27.58,1.26,1.28-.58,1.27-1.28,1.26ZM380.93,145.37c-.7,0-1.27-.58-1.26-1.28s.58-1.27,1.28-1.26,1.27.58,1.26,1.28-.58,1.27-1.28,1.26ZM381.01,136.48c-.7,0-1.27-.58-1.26-1.28s.58-1.27,1.28-1.26,1.27.58,1.26,1.28-.58,1.27-1.28,1.26ZM381.09,127.59c-.7,0-1.27-.58-1.26-1.28s.58-1.27,1.28-1.26,1.27.58,1.26,1.28-.58,1.27-1.28,1.26Z"/>
          <path class="cls-13" d="M279.64,123.8l-1.17,127.8c-.02,2.48,1.97,4.5,4.45,4.53l20.38.19,1.25-136.77-20.38-.19c-2.48-.02-4.5,1.97-4.53,4.45ZM279.67,249.89c0-.7.58-1.27,1.28-1.26s1.27.58,1.26,1.28-.58,1.27-1.28,1.26-1.27-.58-1.26-1.28ZM279.75,241c0-.7.58-1.27,1.28-1.26s1.27.58,1.26,1.28-.58,1.27-1.28,1.26-1.27-.58-1.26-1.28ZM279.84,232.1c0-.7.58-1.27,1.28-1.26s1.27.58,1.26,1.28-.58,1.27-1.28,1.26-1.27-.58-1.26-1.28ZM279.92,223.21c0-.7.58-1.27,1.28-1.26s1.27.58,1.26,1.28-.58,1.27-1.28,1.26-1.27-.58-1.26-1.28ZM280,214.32c0-.7.58-1.27,1.28-1.26s1.27.58,1.26,1.28-.58,1.27-1.28,1.26-1.27-.58-1.26-1.28ZM280.08,205.43c0-.7.58-1.27,1.28-1.26s1.27.58,1.26,1.28-.58,1.27-1.28,1.26-1.27-.58-1.26-1.28ZM280.16,196.54c0-.7.58-1.27,1.28-1.26s1.27.58,1.26,1.28-.58,1.27-1.28,1.26-1.27-.58-1.26-1.28ZM280.24,187.64c0-.7.58-1.27,1.28-1.26s1.27.58,1.26,1.28-.58,1.27-1.28,1.26-1.27-.58-1.26-1.28ZM280.32,178.75c0-.7.58-1.27,1.28-1.26s1.27.58,1.26,1.28-.58,1.27-1.28,1.26c-.7,0-1.27-.58-1.26-1.28ZM280.4,169.86c0-.7.58-1.27,1.28-1.26s1.27.58,1.26,1.28-.58,1.27-1.28,1.26-1.27-.58-1.26-1.28ZM280.49,160.97c0-.7.58-1.27,1.28-1.26.7,0,1.27.58,1.26,1.28s-.58,1.27-1.28,1.26-1.27-.58-1.26-1.28ZM280.57,152.08c0-.7.58-1.27,1.28-1.26s1.27.58,1.26,1.28-.58,1.27-1.28,1.26-1.27-.58-1.26-1.28ZM280.65,143.18c0-.7.58-1.27,1.28-1.26s1.27.58,1.26,1.28-.58,1.27-1.28,1.26-1.27-.58-1.26-1.28ZM280.73,134.29c0-.7.58-1.27,1.28-1.26s1.27.58,1.26,1.28-.58,1.27-1.28,1.26-1.27-.58-1.26-1.28ZM280.81,125.4c0-.7.58-1.27,1.28-1.26.7,0,1.27.58,1.26,1.28s-.58,1.27-1.28,1.26-1.27-.58-1.26-1.28Z"/>
          <rect class="cls-13" x="284.45" y="119.79" width="93.56" height="136.78" rx="4.49" ry="4.49" transform="translate(1.73 -3.02) rotate(.52)"/>
          <g class="cls-15">
            <g class="cls-1">
              <g>
                <rect class="cls-10" x="284.65" y="164.11" width="93.56" height="3.81" transform="translate(661.33 335.05) rotate(-179.48)"/>
                <rect class="cls-10" x="284.73" y="155.25" width="93.56" height="3.81" transform="translate(661.58 317.32) rotate(-179.48)"/>
                <rect class="cls-10" x="284.81" y="146.38" width="93.56" height="3.81" transform="translate(661.82 299.59) rotate(-179.48)"/>
                <rect class="cls-10" x="284.89" y="137.52" width="93.56" height="3.81" transform="translate(662.06 281.87) rotate(-179.48)"/>
                <rect class="cls-10" x="284.97" y="128.65" width="93.56" height="3.81" transform="translate(662.3 264.14) rotate(-179.48)"/>
                <rect class="cls-10" x="285.05" y="119.79" width="93.56" height="3.81" transform="translate(662.55 246.41) rotate(-179.48)"/>
                <rect class="cls-10" x="284.16" y="217.3" width="93.56" height="3.81" transform="translate(659.88 441.41) rotate(-179.48)"/>
                <rect class="cls-10" x="284.24" y="208.43" width="93.56" height="3.81" transform="translate(660.12 423.69) rotate(-179.48)"/>
                <rect class="cls-10" x="284.33" y="199.57" width="93.56" height="3.81" transform="translate(660.36 405.96) rotate(-179.48)"/>
                <rect class="cls-10" x="284.41" y="190.7" width="93.56" height="3.81" transform="translate(660.6 388.23) rotate(-179.48)"/>
                <rect class="cls-10" x="284.49" y="181.84" width="93.56" height="3.81" transform="translate(660.85 370.5) rotate(-179.48)"/>
                <rect class="cls-10" x="284.57" y="172.97" width="93.56" height="3.81" transform="translate(661.09 352.78) rotate(-179.48)"/>
                <rect class="cls-10" x="283.84" y="252.75" width="93.56" height="3.81" transform="translate(658.91 512.32) rotate(-179.48)"/>
                <rect class="cls-10" x="283.92" y="243.89" width="93.56" height="3.81" transform="translate(659.15 494.6) rotate(-179.48)"/>
                <rect class="cls-10" x="284" y="235.02" width="93.56" height="3.81" transform="translate(659.39 476.87) rotate(-179.48)"/>
                <rect class="cls-10" x="284.08" y="226.16" width="93.56" height="3.81" transform="translate(659.63 459.14) rotate(-179.48)"/>
              </g>
            </g>
          </g>
        </g>
        <g>
          <path class="cls-10" d="M331.89,212.03c-18.57-.17-33.54-15.41-33.37-33.98.17-18.57,15.41-33.54,33.98-33.37,18.57.17,33.54,15.41,33.37,33.98-.17,18.57-15.41,33.54-33.98,33.37ZM332.46,149.17c-16.09-.15-29.31,12.83-29.45,28.92s12.83,29.31,28.92,29.45c16.09.15,29.31-12.83,29.45-28.92s-12.83-29.31-28.92-29.45Z"/>
          <path class="cls-10" d="M363.61,180.99l-6.29-.06c-1.24-.01-2.24-1.03-2.22-2.27.01-1.24,1.03-2.24,2.27-2.22l6.29.06c1.24.01,2.24,1.03,2.22,2.27-.01,1.24-1.03,2.24-2.27,2.22Z"/>
          <path class="cls-10" d="M317.68,194.88c-.57,0-1.15-.23-1.58-.67-.87-.88-.86-2.31.03-3.18l13.71-13.46s.04-.05.04-.08l.11-12.25c.01-1.24,1.03-2.24,2.27-2.22,1.24.01,2.24,1.03,2.22,2.27l-.11,12.25c-.01,1.23-.5,2.39-1.38,3.25l-13.71,13.46c-.44.43-1.02.65-1.59.64Z"/>
          <path class="cls-10" d="M307.03,180.65l-6.29-.06c-1.24-.01-2.24-1.03-2.22-2.27.01-1.24,1.03-2.24,2.27-2.22l6.29.06c1.24.01,2.24,1.03,2.22,2.27-.01,1.24-1.03,2.24-2.27,2.22Z"/>
          <path class="cls-10" d="M332.32,155.46c-1.24-.01-2.24-1.03-2.22-2.27l.06-6.29c.01-1.24,1.03-2.24,2.27-2.22s2.24,1.03,2.22,2.27l-.06,6.29c-.01,1.24-1.03,2.24-2.27,2.22Z"/>
          <path class="cls-10" d="M331.97,212.03c-1.24-.01-2.24-1.03-2.22-2.27l.06-6.29c.01-1.24,1.03-2.24,2.27-2.22,1.24.01,2.24,1.03,2.22,2.27l-.06,6.29c-.01,1.24-1.03,2.24-2.27,2.22Z"/>
        </g>
        <path class="cls-14" d="M300.86,90.42l13.17,94.01c.27,2.46-1.5,4.68-3.97,4.95l-76.3,5.87c-2.46.27-4.68-1.5-4.95-3.97l-10.88-96.19,80.4-6.68c1.25-.15,2.39.75,2.53,2Z"/>
        <path class="cls-8" d="M217.38,440.88c-2.78,0-5.5-1.42-7.03-3.98-10.15-16.94-7.54-34.1-7.42-34.82.72-4.46,4.91-7.51,9.38-6.78,4.45.71,7.48,4.89,6.79,9.34-.04.32-1.63,12.29,5.29,23.85,2.33,3.88,1.06,8.91-2.81,11.23-1.32.79-2.77,1.17-4.2,1.17Z"/>
        <path class="cls-8" d="M275.73,440.88c-1.43,0-2.88-.38-4.2-1.17-3.88-2.32-5.14-7.35-2.82-11.23,6.99-11.66,5.31-23.73,5.29-23.85-.72-4.46,2.32-8.64,6.79-9.36,4.48-.72,8.67,2.35,9.39,6.81.12.72,2.73,17.88-7.42,34.82-1.54,2.56-4.25,3.98-7.03,3.98Z"/>
        <path class="cls-3" d="M307.26,278.94c-21.28-21.8-101.92-19.71-119.53,3.44-17.61,23.15-10.83,119.92,13.87,135.47,18.18,11.44,80.12,12.09,95.83-.79,22.9-18.75,30.05-117.41,9.83-138.12Z"/>
        <path class="cls-12" d="M224.06,273.66c-1.16,0-2.2-.81-2.44-1.99-.28-1.35.58-2.68,1.94-2.96,1.08-.23,26.75-5.47,51.8-.55,1.35.27,2.24,1.58,1.97,2.94-.27,1.35-1.58,2.24-2.94,1.97-24.05-4.74-49.55.48-49.81.53-.17.04-.34.05-.51.05Z"/>
        <path class="cls-5" d="M295.44,279.65c-22.58-5.78-57.49-8.49-93.26,2.38-11.11,3.38-15.81,43.31-7.48,41.32,27.56-6.57,83.66-6.04,108.93,0,7.89,1.89,4.82-40.37-8.18-43.7Z"/>
        <path class="cls-5" d="M291.84,326.84c6.03,0,10.93,4.43,10.93,9.9s-4.9,9.89-10.93,9.89-10.93-4.43-10.93-9.89,4.89-9.9,10.93-9.9Z"/>
        <ellipse class="cls-12" cx="207.7" cy="336.63" rx="10.93" ry="9.83"/>
        <path class="cls-8" d="M157.75,369.37c-3.66,0-6.67-2.92-6.74-6.6-.01-.59-.2-14.71,6.94-28.16,1.75-3.29,5.83-4.54,9.12-2.79,3.29,1.75,4.54,5.83,2.79,9.12-5.45,10.26-5.37,21.48-5.36,21.59.05,3.72-2.92,6.78-6.63,6.84-.04,0-.08,0-.11,0Z"/>
        <path class="cls-8" d="M334.77,369.38s-.09,0-.13,0c-3.72-.07-6.67-3.14-6.61-6.86,0-.2.07-11.36-5.36-21.59-1.75-3.29-.5-7.37,2.79-9.12,3.29-1.75,7.37-.5,9.12,2.79,7.14,13.44,6.95,27.56,6.94,28.16-.07,3.68-3.08,6.61-6.74,6.61Z"/>
        <path class="cls-12" d="M248.44,374.91c-18.83,0-32.61-8.23-33.49-8.76-3.25-1.99-4.28-6.24-2.29-9.5,1.99-3.25,6.22-4.27,9.48-2.3,1.1.66,26.82,15.73,53.66-1.48,3.21-2.06,7.49-1.12,9.54,2.09,2.06,3.21,1.12,7.49-2.09,9.54-12.26,7.86-24.32,10.41-34.81,10.41Z"/>
        <g>
          <g>
            <path class="cls-13" d="M297.8,91.2l-2.62-23.74c-.27-2.46-2.49-4.24-4.95-3.97l-87.06,9.62c-2.46.27-4.24,2.49-3.97,4.95l2.69,24.37c.03.27.27.46.54.43l95.37-11.67Z"/>
            <path class="cls-14" d="M297.09,84.84l-95.06,14.7c-.26.04-.44.27-.41.53l.26,2.38c.03.27.27.46.54.43l95.5-10.56-.83-7.48Z"/>
            <path class="cls-13" d="M299.99,89.53l11.17,101.01c.27,2.46-1.5,4.68-3.97,4.95l-87.06,9.62c-2.46.27-4.68-1.5-4.95-3.97l-11.29-102.17,93.58-11.45c1.25-.15,2.39.75,2.53,2Z"/>
          </g>
          <path class="cls-14" d="M242.77,144.82l2.04-2.58.23,3.33-1.97.14c-.49.03-.72-.61-.31-.89Z"/>
          <g>
            <rect class="cls-10" x="236.47" y="118.93" width="5.35" height="50.02" rx="2.68" ry="2.68" transform="translate(96.25 -95.83) rotate(28.16)"/>
            <circle class="cls-10" cx="246.32" cy="130.46" r="4.04"/>
            <circle class="cls-13" cx="246.32" cy="130.46" r="2.63"/>
            <g>
              <circle class="cls-10" cx="246.32" cy="130.46" r="4.04"/>
              <circle class="cls-13" cx="246.32" cy="130.46" r="2.63"/>
            </g>
            <g>
              <circle class="cls-10" cx="239.11" cy="143.92" r="4.04"/>
              <circle class="cls-13" cx="239.11" cy="143.92" r="2.63"/>
            </g>
            <g>
              <circle class="cls-10" cx="231.6" cy="157.95" r="4.04"/>
              <circle class="cls-13" cx="231.6" cy="157.95" r="2.63"/>
            </g>
            <rect class="cls-9" x="276.87" y="104.29" width="5.35" height="60.03" rx="2.68" ry="2.68" transform="translate(96.48 -116.04) rotate(28.16)"/>
            <g>
              <circle class="cls-9" cx="287.94" cy="118.62" r="4.04"/>
              <circle class="cls-13" cx="287.94" cy="118.62" r="2.63"/>
            </g>
            <g>
              <circle class="cls-9" cx="280.85" cy="131.87" r="4.04"/>
              <circle class="cls-13" cx="280.85" cy="131.87" r="2.63"/>
            </g>
            <g>
              <circle class="cls-9" cx="273.73" cy="145.17" r="4.04"/>
              <circle class="cls-13" cx="273.73" cy="145.17" r="2.63"/>
            </g>
            <rect class="cls-7" x="243.27" y="114.84" width="5.35" height="65.57" rx="2.68" ry="2.68" transform="translate(492.18 .48) rotate(118.16)"/>
            <circle class="cls-7" cx="252.57" cy="151.13" r="4.04"/>
            <circle class="cls-13" cx="252.57" cy="151.13" r="2.63"/>
            <g>
              <circle class="cls-7" cx="266.56" cy="158.61" r="4.04"/>
              <circle class="cls-13" cx="266.56" cy="158.61" r="2.63"/>
            </g>
            <g>
              <circle class="cls-7" cx="239.11" cy="143.92" r="4.04"/>
              <circle class="cls-13" cx="239.11" cy="143.92" r="2.63"/>
            </g>
            <g>
              <circle class="cls-7" cx="225.08" cy="136.41" r="4.04"/>
              <circle class="cls-13" cx="225.08" cy="136.41" r="2.63"/>
            </g>
          </g>
          <g>
            <path class="cls-8" d="M244.4,186.44l4.43-.55.12,1.01-5.67.71-1.17-9.36,1.24-.16,1.04,8.35Z"/>
            <path class="cls-8" d="M251.69,186.56l-1.23.15-1.16-9.36,1.23-.15,1.16,9.36Z"/>
            <path class="cls-8" d="M260.7,184.19c-.26.49-.66.89-1.2,1.18-.54.3-1.19.49-1.94.59-.76.09-1.46,0-2.1-.28-.64-.28-1.16-.74-1.56-1.36-.41-.62-.67-1.36-.78-2.23l-.1-.82c-.18-1.41.02-2.54.58-3.4.56-.86,1.44-1.36,2.63-1.51.98-.12,1.79.03,2.45.45.66.43,1.11,1.09,1.36,1.99l-1.23.15c-.38-1.21-1.2-1.74-2.44-1.59-.83.1-1.42.47-1.77,1.11-.35.63-.46,1.5-.33,2.6l.1.77c.13,1.05.47,1.86,1.03,2.42.56.56,1.24.79,2.06.69.46-.06.86-.16,1.2-.31.33-.15.6-.35.8-.63l-.26-2.1-2.17.27-.13-1.01,3.39-.42.43,3.43Z"/>
            <path class="cls-8" d="M270.1,184.27l-1.24.15-5.61-6.62.9,7.21-1.24.15-1.16-9.36,1.24-.15,5.62,6.65-.9-7.24,1.23-.15,1.16,9.36Z"/>
            <path class="cls-8" d="M277.04,179.01l-4.06.5.41,3.32,4.71-.59.13,1.01-5.94.74-1.16-9.36,5.88-.73.12,1.01-4.65.58.38,3.01,4.06-.5.13,1.01Z"/>
            <path class="cls-8" d="M282.01,178.55c-1.1-.17-1.91-.45-2.45-.83-.54-.38-.85-.9-.93-1.55-.09-.74.13-1.38.66-1.94s1.26-.89,2.21-1.01c.64-.08,1.23-.03,1.76.16.54.19.97.48,1.3.88s.53.86.59,1.38l-1.24.15c-.07-.57-.31-.99-.71-1.27s-.93-.38-1.58-.3c-.61.08-1.07.27-1.37.58-.31.31-.43.7-.37,1.18.05.38.25.68.61.91.36.22.94.4,1.74.52.8.12,1.44.29,1.92.5.47.21.83.48,1.09.8s.41.72.47,1.2c.09.76-.13,1.4-.66,1.93-.53.53-1.3.86-2.29.98-.64.08-1.26.03-1.84-.15-.59-.18-1.06-.46-1.42-.85-.35-.39-.57-.86-.63-1.4l1.24-.15c.07.57.33.99.79,1.26.46.28,1.04.37,1.74.28.65-.08,1.13-.28,1.45-.58.31-.31.44-.69.39-1.15-.06-.46-.26-.79-.62-1-.35-.21-.96-.38-1.84-.52Z"/>
          </g>
        </g>
        <path class="cls-14" d="M198.88,113.07l19.38,14.47c1.49,1.12,2.43,2.83,2.56,4.69l9.55,108.47c.26,3.79-2.12,7.27-5.75,8.39l-19.66.45-6.08-136.47Z"/>
        <g>
          <path class="cls-13" d="M220.25,131.58l7.89,113.33c.12,1.78-1.22,3.32-2.99,3.44l-89.89,6.26c-1.78.12-3.32-1.22-3.44-2.99l-9.05-130.06c-.12-1.75,1.2-3.27,2.95-3.39l76.17-5.3,18.38,18.72Z"/>
          <path class="cls-14" d="M220.6,136.65l-.23-4.05c-.12-2.07-1.98-3.59-4.03-3.29l-8.32,1.21,5.33,1.55c2.8.81,5.31,2.4,7.25,4.58h0Z"/>
          <path class="cls-14" d="M201.78,112.95h0c-1.84,4.98-2.59,10.3-2.21,15.6l.07,1.01c-.06.8.53,1.49,1.33,1.55l3.26.73c4.6.25,8.2.48,12.95.23l3.17-.59-18.57-18.54Z"/>
          <path class="cls-13" d="M201.78,112.95l-1.21,15.54c-.06.8.53,1.49,1.33,1.55l18.45,1.44-18.57-18.54Z"/>
          <g>
            <g>
              <path class="cls-11" d="M192.15,178.33c.45-.18.84-.67.87-1.22,0-.13,0-.28-.03-.4-.02-.12-.04-.25-.06-.37-.04-.25-.07-.49-.11-.73-.07-.48-.13-.93-.18-1.32-.13-1.04-.31-2.12-.45-3.33-.1-1.02-.38-2.64-.59-4.05-.04-.19-.08-.37-.12-.56-.09-.54-.18-1.39-.22-1.58-.04-.2-.07-.4-.1-.6-.04-.26-.08-.52-.13-.78-.84.13-1.66.26-2.44.38-.73.11-1.42.21-2.06.32-2.46.4-4.89.75-7.15,1.14h-.14c-.25.04-.5.09-.55.12-.13.02-.26.05-.38.07-.39.05-.71.1-.95.18-.29.03-.11,0-.27,0-.44.08-.91.15-1.4.23-.15.01-.36.04-.8.1h0c-.31.06-.62.1-.92.14-.52.07-1.03.12-1.47.17-.53.05-.99.1-1.37.13,0,.09.01.16.02.22.03.15.06.3.1.45.02.11.04.23.07.34.04.22.07.45.11.68.07.46.13.94.21,1.4.18,1.08.43,2.36.52,3.22.16,1.39.36,2.55.57,3.6,0,.04.01.08.02.11.01.05.02.09.03.14.14.66.27,1.27.41,1.86l.21,1.41c.11.73.79,1.23,1.52,1.12l6.2-.94c.15-.02.31-.03.45-.03l.02-.04,1.96-.3c1.37-.15,3.28-.44,4.92-.67.35-.05.58-.15.93-.2.17-.01.33-.02.5-.04.35-.05.89-.14,1.06-.16.17-.01.35-.03.55-.05.1-.01.2-.02.31-.04.11-.02.23-.05.34-.1Z"/>
              <path class="cls-11" d="M188.07,179.1c-.07,0-.14.02-.21.03.08-.01.15-.02.21-.03Z"/>
              <path class="cls-11" d="M188.81,178.96c-.3.07-.55.06-.83.09-.01.02.64-.03.09.05.3-.04.58-.08.33-.01.57-.08.04-.05.41-.13Z"/>
              <path class="cls-11" d="M190.14,178.77c-.28.04-.54.04-.77.11.28-.03.62-.07.77-.11Z"/>
              <polygon class="cls-11" points="189.49 178.99 189.64 178.96 189.24 178.98 189.49 178.99"/>
              <path class="cls-11" d="M191.27,178.71l-1,.16.9-.11c.54-.11.27-.09-.12-.05.11,0,.19-.01.21,0Z"/>
              <path class="cls-11" d="M189.9,178.85s.11,0,.26-.03c.16-.02.37-.05.56-.07-.26.03-.49.05-.53.04l-.3.06Z"/>
              <path class="cls-11" d="M191.06,178.71c-.09,0-.21.02-.33.04.11-.01.22-.02.33-.04Z"/>
              <path class="cls-11" d="M192.05,178.63c.06-.02.12-.04.17-.06l.03-.07c-.33.14-.2.11-.2.13Z"/>
              <path class="cls-11" d="M193.24,177.52s-.03.14-.02.15c.08-.15.15-.42.13-.68-.02-.29-.07-.43-.08-.54,0,.08,0,.17.02.25v.16c.02.06.02.12.02.18,0,.24-.06.5-.19.74.12-.25.12-.29.12-.25Z"/>
              <path class="cls-11" d="M193.41,176.71c-.03-.15-.07-.31-.09-.49l.06.42.02.11v.15c.02.1.02.2,0,.3.04-.11.04-.3,0-.48Z"/>
              <path class="cls-11" d="M193.03,174.69c0,.13.05.42.08.63l-.02-.46c-.02-.08-.02-.01-.05-.16Z"/>
              <path class="cls-11" d="M169.68,172.9c-.03-.23-.1-.59-.1-.7-.03-.89-.35-2.55-.46-3.58-.08-.69-.2-1.39-.28-2.19-.05-.68-.24-1.74-.38-2.67-.03-.12-.06-.24-.09-.36-.06-.36-.1-.89-.15-1.13-.02-.13-.05-.27-.07-.4-.37.06-.73.12-1.08.18-.29.04-.58.09-.86.13-.56.08-1.1.16-1.59.25-1.4.23-2.78.45-4.1.66.04.22.07.44.11.66.01.07.02.14.04.2l-.02.09c.04.17.08.33.1.36.01.08.03.15.04.22.03.27.06.49.13.65.02.19-.01.07-.01.18.06.29.11.6.15.92,0,.1.02.24.06.53h.01c.13.98.21,1.94.21,2.45.17.51.19,1.17.32,1.77.13.71.31,1.55.36,2.11.09.92.23,1.68.39,2.36,0,.02,0,.05.01.07,0,.03.02.05.02.08.1.43.21.83.31,1.22l.14.92,5.44-.83c.1,0,.2-.01.3-.01v-.04s1.3-.2,1.3-.2c.09,0,.18-.02.29-.03-.09-.9-.26-2-.4-2.98-.03-.23-.12-.38-.15-.61v-.33Z"/>
              <path class="cls-11" d="M169.91,173.59c.06.2.03.36.05.55.02,0,0-.43.06-.06-.03-.2-.05-.39,0-.22-.05-.37-.05-.02-.11-.26Z"/>
              <path class="cls-11" d="M170.01,174.08s.01.09.02.13c0-.05-.01-.1-.02-.13Z"/>
              <path class="cls-11" d="M169.86,173.23c-.02-.18-.03-.41-.07-.51.03.19.01.35.07.51Z"/>
              <polygon class="cls-11" points="169.95 173.3 169.97 173.14 169.95 173.04 169.95 173.3"/>
              <path class="cls-11" d="M169.78,172.11c0-.07,0-.13,0-.14l.11.65-.06-.59c-.08-.35-.07-.18-.05.08Z"/>
              <path class="cls-11" d="M169.86,172.87s-.03-.29-.06-.55c.01.17.03.33.01.35l.05.19Z"/>
              <path class="cls-11" d="M169.78,172.11c0,.06,0,.14.02.22,0-.07-.01-.15-.02-.22Z"/>
              <path class="cls-11" d="M169.77,171.48v-.09s-.07-.02-.07-.02c.04.19.06.11.07.11Z"/>
              <path class="cls-11" d="M169.71,170.76c-.03-.27.02-.08.04-.07,0-.17-.08-.51-.1-.65,0,.22.04.45.07.73Z"/>
              <path class="cls-11" d="M169.77,170.43c.04-.12-.04-.32-.08-.56l.08.56Z"/>
              <path class="cls-11" d="M169.53,169.29v-.31s-.02,0-.04-.11c0,.08.03.27.04.41Z"/>
              <path class="cls-11" d="M170.64,163.25c.04.18.08.35.11.53.02.11.03.22.05.34.26-.03.54-.07.78-.1.18-.02.33-.04.38-.05,1.55-.29,3.04-.47,4.3-.69,1.92-.32,3.81-.59,5.56-.9h.11c.2-.03.39-.07.43-.1.1-.02.2-.04.3-.05.3-.03.55-.08.74-.14.23-.02.08.01.21,0,.34-.06.71-.12,1.09-.18.12,0,.28-.02.63-.08h0c1.15-.17,2.29-.28,2.89-.29.3-.09.65-.15,1.01-.2.18-.03.36-.05.55-.08l.3-.05c.12-.02.24-.04.37-.06.08-.01.16-.03.25-.04-.08-.46-.17-.95-.25-1.41-.07-.4-.13-.78-.16-1.09-.11-1.08-.28-1.99-.45-2.8,0-.03,0-.06-.01-.09,0-.04-.02-.07-.03-.1,0-.03-.01-.06-.02-.09-.05-.22-.08-.44-.18-.65-.09-.21-.23-.38-.4-.51-.03-.03-.06-.05-.1-.07-.28-.22-.65-.33-1.03-.28l-6.44.98c-.12.01-.24.02-.35.02l-.02.04-1.53.23c-1.07.1-2.56.33-3.83.51-.27.04-.45.13-.72.17-.13,0-.26.01-.39.02-.28.04-.69.11-.83.12-.52.03-1.28.13-2.05.25-.19.03-.39.06-.58.09-.18.02-.41.07-.59.16-.37.19-.62.51-.74.83-.08.21-.11.45-.08.68.03.21.06.42.09.63.06.43.12.87.17,1.34.07.8.29,2.06.45,3.16Z"/>
              <path class="cls-11" d="M175.62,155.74c.24-.06.43-.04.64-.06,0-.02-.5,0-.07-.06-.24.03-.46.06-.26,0-.44.06-.03.05-.32.12Z"/>
              <path class="cls-11" d="M176.2,155.62c.05,0,.11-.01.16-.02-.06,0-.12.01-.16.02Z"/>
              <path class="cls-11" d="M174.59,155.88c.22-.03.42-.02.6-.08-.21.02-.48.05-.6.08Z"/>
              <polygon class="cls-11" points="175.09 155.69 174.98 155.72 175.29 155.71 175.09 155.69"/>
              <path class="cls-11" d="M173.71,155.91l.78-.12-.7.08c-.42.09-.21.08.09.05-.08,0-.15,0-.17,0Z"/>
              <path class="cls-11" d="M174.78,155.81s-.34.04-.64.08c.2-.02.39-.03.41-.02l.23-.05Z"/>
              <path class="cls-11" d="M173.87,155.91c.07,0,.16-.01.26-.03-.09,0-.17.02-.26.03Z"/>
              <path class="cls-11" d="M173.13,155.94l-.11.02-.03.05c.22-.04.13-.06.14-.07Z"/>
              <path class="cls-11" d="M172.19,155.99c-.2,0-.61.09-.78.12.26,0,.53-.05.86-.09-.32.04-.09-.02-.08-.04Z"/>
              <path class="cls-11" d="M171.23,156.07l.66-.1c-.14-.03-.38.05-.66.1Z"/>
              <path class="cls-11" d="M170,156.74c-.05.07,0,.02-.08.16.08-.1.28-.34.47-.45-.14.08-.27.18-.38.29Z"/>
              <path class="cls-11" d="M163.79,185.3c.23,1.53.07.11.24,1.12-.15-.83-.2-1.49-.3-2.23-.02-.04.19,1.7-.02.28.12.8.22,1.51.09.83Z"/>
              <path class="cls-11" d="M163.7,184.47c-.03-.21-.06-.42-.09-.61.04.25.07.45.09.61Z"/>
              <path class="cls-11" d="M164.55,190.02c-.11-.76-.18-1.44-.31-2.09.1.74.23,1.67.31,2.09Z"/>
              <polygon class="cls-11" points="164.12 187.57 164.17 188.23 164.24 188.63 164.12 187.57"/>
              <path class="cls-11" d="M164.87,192.63c.02.13.03.26.05.34.27-.04.45-.06.51-.06l-.53.08-.41-2.66.38,2.69h.1c.28-.06.51-.1.69-.13.12-.02.22-.04.29-.05.13-.03.16-.04.13-.03-.04,0-.14.01-.3.03-.23.03-.53.07-.86.12-.01-.1-.03-.22-.05-.34Z"/>
              <path class="cls-11" d="M164.41,189.35s.03.28.1.71c.06.43.14,1,.22,1.52-.09-.7-.18-1.33-.18-1.42l-.14-.81Z"/>
              <path class="cls-11" d="M164.87,192.63c-.04-.3-.09-.65-.14-1.04.05.35.1.71.14,1.04Z"/>
              <path class="cls-11" d="M167.51,192.66l.38-.06.11-.07c-.78.13-.47.11-.49.12Z"/>
              <path class="cls-11" d="M170.66,192.22s-.11.01-.19.03c.06,0,.12-.02.19-.03Z"/>
              <path class="cls-11" d="M170.95,192.23s-.19.02-.21.03c.12,0,.26,0,.41.06.15.06.3.16.4.29.22.27.22.65.14.83.12-.27.08-.64-.14-.9-.11-.13-.26-.24-.44-.29-.09-.03-.18-.04-.28-.04-.05,0-.09,0-.15.01,0,0-.02,0-.02,0,.15-.02.2-.01.25,0,.06.01.06.01.03.02Z"/>
              <path class="cls-11" d="M171.35,192.47c.09.1.24.25.3.49.05.17.03.39-.07.58.08-.14.12-.3.11-.46-.02-.24-.14-.47-.34-.61Z"/>
              <path class="cls-11" d="M171.57,193.55c-.03.06-.08.12-.13.18.05-.05.1-.11.13-.18Z"/>
              <path class="cls-11" d="M171.57,193.54s0,0,0,.01c0,0,0,0,0-.01Z"/>
              <path class="cls-11" d="M168.13,194.41c-.2.04-.05.03-.45.1.34-.03,1.13-.16,1.69-.24l-1.24.14Z"/>
              <path class="cls-11" d="M203.68,188.58c-.12-.82-.24-1.64-.35-2.44-.46-3.19-.84-6.07-1.04-7.76-.45-2.33-.82-5.27-1.26-7.96-.5-3.18-1.14-6.98-1.48-9.49-.57-4.08-1.12-7.51-1.63-10.6-.02-.11-.03-.23-.05-.34-.02-.12-.04-.24-.07-.36-.02-.12-.04-.25-.06-.37-.07-.42-.14-.83-.21-1.24-.03-.2-.07-.41-.12-.61-.04-.2-.11-.4-.18-.59-.27-.78-.75-1.44-1.32-1.97-.04-.04-.08-.07-.12-.11,0,0-.01-.01-.02-.02-.07-.06-.13-.11-.2-.16-1.06-.85-2.45-1.27-3.89-1.05l-24.41,3.7c-.44.06-.88.12-1.29.16l-.08.05-5.76.87c-1.21.17-2.57.36-4.01.57-1.67.25-3.45.51-5.24.77-.45.07-.89.13-1.34.23-.44.12-.86.29-1.25.52-.39.23-.75.5-1.05.82-.32.31-.58.67-.79,1.04-.51.94-.62,1.67-.61,2.72.02.5.09.99.15,1.47.16,1.04.41,2.64.47,3.13.49,3.92,1.69,11.39,2.34,15.98.44,3.06.94,6.25,1.44,9.8.41,3.01,1.15,7.78,1.79,11.95.11.57.33,1.12.63,1.62.4.73,1.17,1.53,2,1.98.4.24.82.38,1.16.48.34.09.61.14.76.14.19.02.39.04.58.03h.29s.29-.03.29-.03c.39-.04.74-.11,1.1-.16.73-.11,1.45-.23,2.16-.34,1.43-.22,2.83-.43,4.2-.64,2.74-.42,5.34-.82,7.73-1.18,4.75-.73,9.44-1.45,13.99-2.15,2.27-.35,4.51-.7,6.69-1.04.14-.02.27-.04.41-.07l.4-.03c.75-.13,1.5-.25,1.65-.3.26-.04.52-.08.77-.12.12-.02.23-.04.35-.06.36-.05.7-.1,1.02-.15.69-.11,1.29-.19,1.78-.33,0,0,0,0,.02,0,.81-.24.29-.05.76-.23,1.19-.5,2.25-1.58,2.75-2.92,0,0,0,0,0-.01,0,0,0-.02,0-.03.01-.04.03-.07.04-.11.04-.11.08-.23.12-.37.1-.41.23-1.03.11-2,0-.01-.01-.02-.02-.04,0-.02,0-.04,0-.06l-.09-.62ZM176.02,183.43c-.09.01-.17.02-.26.04-.33.05-.66.09-.96.08l-.08.03c-1.68,0-3.2-1.04-3.78-2.61,0,0,0-.02-.01-.03-.03-.08-.05-.16-.08-.24-.02-.06-.04-.13-.05-.19h0c-.07-.34-.11-.69-.17-1.08-1.09.16-2.28.33-3.52.51-1.25.19-2.56.38-3.87.57.25,1.68.5,3.37.74,4.96.14.95.3,1.57.44,2.53.06.45.11.9.17,1.35.14.96.37,2.41.43,2.88.02.16.04.33.07.51.48-.07,1.01-.14,1.57-.21.54-.08,1.11-.16,1.7-.24.59-.09,1.21-.18,1.84-.27.16-.02.32-.05.47-.07.15-.02.29-.01.44.02.29.06.55.24.72.48.17.24.25.55.22.84-.03.3-.18.57-.4.77-.11.1-.24.18-.38.23-.14.05-.28.07-.45.09-.32.05-.63.09-.94.14-1.24.18-2.4.35-3.41.5-1.41.21-2.84.42-4.33.64-.74.11-1.5.22-2.28.34-.19.03-.39.06-.58.08-.17.02-.35,0-.51-.05-.33-.1-.61-.37-.73-.71-.11-.32-.08-.73.15-1.04.11-.16.27-.29.45-.37.09-.04.19-.07.29-.09.12-.02.25-.04.37-.05,1.07-.16,2.23-.34,3.43-.52-.26-1.74-.54-3.56-.8-5.26-.09-.5-.18-1.01-.26-1.52-.23-1.46-.54-3.77-.63-4.27-.87-5.39-1.61-10.57-2.31-14.95-.47-3.02-.93-6.02-1.38-8.97l-.08-.55c-.03-.18-.07-.38-.07-.53,0-.33.14-.66.38-.88.24-.23.58-.34.9-.32.33.02.64.19.84.45.1.13.18.28.22.43.04.15.06.35.09.52.06.36.11.72.17,1.07.12.75.23,1.5.35,2.25.62-.1,1.23-.2,1.84-.29l.39-.03c.68-.12,1.35-.23,1.51-.27.02,0,.04,0,.06,0,.31-.05.61-.1.91-.15.36-.05.69-.1,1.01-.15.64-.1,1.16-.19,1.68-.29.05,0,.09-.01.1-.01-.1-.72-.01-.26-.07-.71-.06-.34-.1-.67-.09-1.02.02-.35.06-.7.18-1.04.04-.17.13-.34.19-.51.09-.16.16-.33.27-.48.09-.14.2-.28.31-.41.08-.09.18-.19.3-.3.15-.12.32-.27.56-.42.24-.15.55-.32.96-.44l.02-.02c.2-.06.4-.1.6-.13.76-.11,1.51-.22,2.24-.32,2.93-.42,5.57-.77,7.12-.94,2.13-.42,4.83-.75,7.31-1.16.19-.03.36-.04.54-.06.18,0,.36-.01.54.01.37.03.73.12,1.08.26.35.13.68.33.97.56.3.23.56.51.76.82.11.15.19.31.28.47.07.17.15.33.2.5.12.34.16.69.22,1.04.11.7.2,1.35.28,1.92.52,3.76,1.02,6.91,1.51,9.75.02.1.03.2.05.29.02.12.04.24.07.36.31,1.79.61,3.46.89,5.08l.58,3.81c.33,2.19-1.18,4.23-3.36,4.57l-16.15,2.45Z"/>
              <path class="cls-11" d="M147.29,150.97s.03-.03.04-.04c-.02.01-.03.03-.04.04Z"/>
              <path class="cls-11" d="M146.16,152.55c.11-.19.19-.38.32-.54.12-.17.23-.33.37-.48.13-.16.27-.3.42-.44,0-.01-.1.08-.23.2-.13.13-.26.29-.35.39-.08.1-.11.13-.02,0,.05-.06.13-.17.26-.32-.19.22-.36.44-.47.61-.12.16-.17.29-.19.3-.01.02.01-.07.14-.28-.23.38-.32.59-.36.7-.04.11-.03.11-.02.09.01-.02.04-.05.03,0,0,.02-.02.06-.04.12-.03.07-.06.16-.1.3.03-.12.07-.23.11-.33.04-.1.09-.21.13-.31Z"/>
              <path class="cls-11" d="M147.33,150.93c.06-.05.12-.1.18-.16-.06.05-.12.1-.18.16Z"/>
              <path class="cls-11" d="M147.2,151.06s.06-.06.09-.09c-.03.03-.06.06-.09.09Z"/>
              <path class="cls-11" d="M146.92,151.35c.09-.1.18-.19.27-.29-.11.11-.2.2-.27.29Z"/>
              <path class="cls-11" d="M145.79,156.17c.06.41.12.78.16,1.01-.06-.42-.11-.81-.16-1.19-.05-.37-.11-.75-.13-1.12-.01.21.03.43.04.66.03.22.06.43.09.64Z"/>
              <path class="cls-11" d="M145.6,154.44c-.02.12-.02.25-.03.37-.01.13-.02.25,0,.38.02.15.03.32.06.46-.02-.19-.03-.41-.05-.61,0-.2,0-.41.02-.61Z"/>
              <path class="cls-11" d="M145.89,157.52l.37,2.65c.27,1.6.17.82.01-.32.04.31.07.56.06.61l-.45-2.94Z"/>
              <path class="cls-11" d="M145.8,156.44s.04.31.11.78c.07.47.16,1.08.24,1.66-.1-.76-.2-1.45-.2-1.55l-.15-.88Z"/>
              <path class="cls-11" d="M146.14,158.88c.04.33.09.66.13.97-.04-.28-.08-.61-.13-.97Z"/>
              <path class="cls-11" d="M146.61,162.62l.06.42.07.12c-.14-.85-.12-.51-.13-.54Z"/>
              <path class="cls-11" d="M147.05,166.15c.08.76.35,2.3.45,2.94-.11-.96-.27-2.01-.45-3.24.17,1.22.02.35,0,.3Z"/>
              <path class="cls-11" d="M147.54,169.75l-.38-2.5c.02.49.21,1.44.38,2.5Z"/>
              <path class="cls-11" d="M148.27,174.26c-.04-.37-.17-1.23-.26-1.84l.16,1.35c.04.22.03.05.1.49Z"/>
            </g>
            <g>
              <path class="cls-11" d="M155.07,221.95c.96-.25,1.07-.31,1.39-1.74l1.73-7.69c.17-.09.48-.18.68-.21l3.95,7.06c.67,1.2.71,1.19,1.76,1.14.03.13.06.29.06.42-.62.09-1.28.17-1.92.26-.29.04-.59.09-.88.15l-.25.04c-.29.06-.59.1-.88.15-.05-.13-.07-.27-.06-.42.84-.21,1.12-.28,1.07-.61-.02-.13-.1-.29-.23-.54l-1.05-1.91-2.95.45-.38,1.91c-.07.36-.1.57-.08.74.06.38.39.37,1.23.32.04.14.06.29.06.42-.59.09-1.17.15-1.76.24-.5.08-.91.17-1.44.25-.03-.13-.06-.29-.06-.42ZM160.17,217.53l-1.81-3.29-.74,3.68,2.56-.39Z"/>
              <path class="cls-11" d="M167.29,218.85c.17,1.1.18,1.11,1.43,1.03.05.13.07.29.06.42-.53.08-1.49.2-1.98.27-.48.07-1.5.25-2.02.33-.05-.13-.07-.27-.06-.42,1.25-.28,1.29-.3,1.15-1.25l-.93-6.11c-.16-1.08-.25-1.1-1.49-1.01-.05-.13-.07-.27-.06-.42.5-.08,1.63-.22,2.01-.28.46-.07,1.51-.27,1.93-.33,1.64-.25,3.23.14,3.48,1.83.17,1.11-.33,2.13-1.72,2.8v.04c.17.1.32.23.53.46l1.68,1.78c1.09,1.15,1.28,1.19,2.41,1.12.05.13.07.29.06.42-.51.08-1.47.2-1.88.26-.29.04-.46.08-.73.12l-2.97-3.21c-.37-.4-.54-.46-.95-.43h-.35s.39,2.57.39,2.57ZM166.82,215.76c.24,0,.4,0,.56-.03,1.36-.21,2.11-1.04,1.9-2.41-.19-1.25-1-1.82-2.34-1.62-.18.03-.44.08-.71.16l.59,3.89Z"/>
              <path class="cls-11" d="M176.38,217.47c.17,1.1.18,1.11,1.43,1.03.05.13.07.29.06.42-.52.08-1.48.2-1.98.27-.49.07-1.5.25-2.02.33-.05-.13-.07-.27-.06-.42,1.25-.28,1.3-.3,1.15-1.25l-.93-6.11c-.16-1.08-.25-1.1-1.49-1.01-.05-.13-.07-.27-.06-.42.5-.08,1.63-.22,2.01-.28.46-.07,1.51-.27,1.93-.33,1.64-.25,3.23.14,3.48,1.83.17,1.11-.33,2.13-1.72,2.8v.04c.17.1.32.23.53.46l1.68,1.78c1.09,1.15,1.28,1.19,2.41,1.12.05.13.07.29.06.42-.51.08-1.47.2-1.88.26-.29.04-.46.08-.73.12l-2.97-3.21c-.37-.4-.54-.46-.95-.43h-.35s.39,2.57.39,2.57ZM175.91,214.38c.24,0,.4,0,.56-.03,1.36-.21,2.11-1.04,1.9-2.41-.19-1.25-1-1.82-2.34-1.62-.18.03-.44.08-.71.16l.59,3.89Z"/>
              <path class="cls-11" d="M182.93,217.72c1.2-.3,1.25-.31,1.11-1.24l-.92-6.1c-.17-1.09-.23-1.1-1.46-1.03-.03-.13-.05-.27-.06-.42.91-.14,1.17-.15,2.68-.38,2.06-.31,3.93-.62,4.15-.66.16.63.37,1.3.61,2.04-.14.03-.3.06-.43.07-.62-1.06-1.28-1.36-2.49-1.18l-1.72.26.54,3.58.72-.11c1.25-.19,1.49-.35,1.48-1.66.14-.05.31-.07.45-.07.18,1.44.19,1.46.23,1.71l.29,1.73c-.13.05-.29.07-.45.07-.38-1.35-.67-1.39-1.79-1.22l-.84.13.43,2.84c.09.59.15.96.19,1.06l1.8-.27c1.52-.23,1.92-.76,2.35-2.18.13-.03.27-.05.41-.06-.03,1.01-.03,1.82-.02,2.4-1.56.24-3.96.59-4.85.72-1.23.19-1.63.28-2.33.38-.03-.13-.05-.27-.06-.42ZM184.5,205.78c.12-.06.32-.1.5-.13.16-.02.36-.04.51-.02.52.48,1.39,1.32,2.01,1.79-.1.11-.23.18-.34.23-.73-.29-1.42-.58-2.03-.91-.48.47-1.03.97-1.64,1.47-.13,0-.27-.04-.39-.12.45-.63,1.04-1.69,1.38-2.3Z"/>
              <path class="cls-11" d="M193.29,216.15c1.28-.31,1.32-.31,1.18-1.25l-1.09-7.16-.94.14c-1.39.21-1.67.82-1.95,2.07-.13.03-.29.06-.42.06-.02-.85-.04-1.63-.08-2.36,1.15-.11,2.57-.32,4.05-.55,1.51-.23,2.92-.44,4.04-.68.17.7.36,1.46.59,2.29-.14.04-.3.06-.43.07-.68-1.12-1.1-1.6-2.48-1.39l-.93.14,1.06,6.99c.17,1.1.2,1.11,1.52,1.02.05.13.07.29.06.42-.55.08-1.56.21-2.07.29-.5.08-1.49.25-2.04.34-.03-.13-.06-.27-.06-.42Z"/>
              <path class="cls-11" d="M201.86,215.32c-.62-.01-1.16.03-1.27.04-.13-.75-.3-1.6-.52-2.62.13-.03.29-.06.42-.08.56,1.48,1.46,2.25,2.74,2.05,1.14-.17,1.83-.96,1.67-1.98-.17-1.14-1.25-1.43-2.4-1.73-1.34-.35-2.67-.7-2.9-2.25-.25-1.65.98-2.83,2.66-3.09.35-.05.73-.07,1.14-.07.52,0,.77-.04.87-.05.05,0,.22-.03.31-.07.14.77.31,1.58.51,2.46-.15.05-.31.09-.43.09-.47-1.07-1.02-2.04-2.35-1.84-.97.15-1.66.79-1.51,1.8.12.81.69,1.21,2.35,1.63,1.23.31,2.66.74,2.9,2.35.27,1.78-1.06,3.02-2.8,3.28-.03,0-.66.1-1.4.08Z"/>
            </g>
          </g>
        </g>
        <g>
          <path class="cls-6" d="M308.49,240.4h-1.28s.04-4.73.04-4.73l-4.81-.04-.04,4.72h-1.28s.09-9.65.09-9.65h1.28s-.04,3.79-.04,3.79l4.81.04.04-3.78h1.28s-.09,9.65-.09,9.65Z"/>
          <path class="cls-6" d="M318.34,231.95c.39.44.69.97.89,1.6.21.63.3,1.34.3,2.13,0,.79-.12,1.5-.34,2.13-.22.63-.52,1.15-.91,1.56-.4.43-.87.76-1.42.97-.54.21-1.16.32-1.86.31-.68,0-1.29-.12-1.85-.35-.55-.23-1.02-.56-1.4-.99-.38-.43-.68-.96-.88-1.58-.21-.62-.3-1.33-.29-2.13,0-.79.12-1.49.33-2.11.21-.62.52-1.15.92-1.59.38-.42.86-.74,1.42-.96.56-.22,1.18-.33,1.84-.32.69,0,1.31.13,1.86.36.55.23,1.01.56,1.39.98ZM318.2,235.67c0-1.25-.26-2.22-.82-2.91-.55-.68-1.32-1.03-2.29-1.04-.98,0-1.75.32-2.32,1-.56.67-.85,1.64-.86,2.89-.01,1.27.26,2.24.83,2.91.56.68,1.33,1.02,2.28,1.03.96,0,1.72-.32,2.3-.99s.87-1.63.88-2.9Z"/>
          <path class="cls-6" d="M329.49,240.59h-1.66s-3.19-3.88-3.19-3.88l-1.81-.02-.04,3.83h-1.28s.09-9.65.09-9.65l2.7.02c.58,0,1.07.05,1.46.13s.74.22,1.04.41c.35.22.62.5.81.84s.29.76.28,1.28c0,.7-.19,1.28-.54,1.74s-.84.81-1.45,1.04l3.59,4.25ZM326.56,233.63c0-.28-.04-.52-.14-.74s-.25-.4-.48-.54c-.18-.13-.4-.22-.66-.27-.26-.05-.55-.08-.9-.08h-1.51s-.03,3.63-.03,3.63h1.29c.41.02.76-.02,1.06-.08s.56-.2.77-.39c.2-.18.34-.38.44-.62.09-.23.14-.53.15-.9Z"/>
          <path class="cls-6" d="M338.34,240.67h-1.37s-.92-2.71-.92-2.71l-4.17-.04-.97,2.68h-1.3s3.6-9.62,3.6-9.62l1.71.02,3.42,9.67ZM335.67,236.86l-1.65-4.75-1.74,4.72,3.39.03Z"/>
          <path class="cls-6" d="M343.2,240.71l-3.81-.03v-.98s1.27.01,1.27.01l.07-7.67h-1.26s0-1,0-1l3.81.04v.98s-1.27-.01-1.27-.01l-.07,7.67h1.26s0,.99,0,.99Z"/>
          <path class="cls-6" d="M353.36,240.81l-1.66-.02-3.19-3.86-1.81-.02-.04,3.83h-1.28s.09-9.65.09-9.65l2.7.03c.58,0,1.07.05,1.46.13s.74.22,1.04.41c.35.22.62.5.81.84s.29.76.28,1.27c0,.7-.19,1.28-.54,1.74-.35.47-.84.81-1.45,1.05l3.59,4.25ZM350.43,233.85c0-.28-.04-.52-.14-.74s-.25-.4-.48-.55c-.18-.13-.4-.21-.66-.27-.26-.05-.55-.08-.9-.08h-1.51s-.03,3.62-.03,3.62h1.29c.41.02.76-.02,1.06-.09s.56-.2.77-.39c.2-.18.34-.39.44-.62.09-.23.14-.53.15-.9Z"/>
          <path class="cls-6" d="M360.96,240.88l-6.35-.06.09-9.64,6.35.06v1.14s-5.08-.05-5.08-.05l-.03,2.64,5.07.05v1.14s-5.08-.05-5.08-.05l-.03,3.58,5.07.05v1.14Z"/>
          <path class="cls-6" d="M370.02,238.21c0,.38-.09.75-.27,1.11-.18.37-.43.67-.74.92-.35.27-.75.49-1.21.64s-1.02.22-1.66.22c-.7,0-1.32-.08-1.87-.21-.55-.13-1.12-.33-1.69-.59l.02-1.61h.09c.48.41,1.04.73,1.68.96.64.23,1.24.34,1.8.35.79,0,1.41-.13,1.86-.43.45-.29.67-.69.68-1.19,0-.43-.1-.74-.31-.95s-.52-.37-.95-.48c-.32-.09-.67-.16-1.05-.22-.38-.06-.78-.13-1.2-.22-.86-.19-1.48-.5-1.89-.95-.41-.44-.61-1.01-.6-1.72,0-.81.35-1.47,1.04-1.98s1.55-.76,2.6-.75c.68,0,1.3.08,1.86.21s1.06.3,1.5.49v1.52s-.1,0-.1,0c-.37-.31-.85-.58-1.44-.79s-1.21-.32-1.83-.32c-.69,0-1.24.13-1.66.41s-.63.65-.63,1.1c0,.4.1.72.3.95.21.23.57.41,1.09.54.28.06.67.14,1.18.23.51.09.94.18,1.29.28.72.2,1.25.49,1.61.88.36.39.54.93.53,1.62Z"/>
        </g>
      </g>
    </g>
  </g>
</svg>