<?xml version="1.0" encoding="UTF-8"?>
<svg xmlns="http://www.w3.org/2000/svg" xmlns:xlink="http://www.w3.org/1999/xlink" viewBox="0 0 500 500">
  <defs>
    <style>
      .cls-1 {
        stroke: url(#Dégradé_sans_nom_143-2);
        stroke-dasharray: 0 0 1 2;
      }

      .cls-1, .cls-2, .cls-3 {
        fill: none;
        stroke-linecap: round;
        stroke-miterlimit: 10;
      }

      .cls-2 {
        stroke: url(#Dégradé_sans_nom_143);
      }

      .cls-4 {
        mix-blend-mode: soft-light;
      }

      .cls-5 {
        fill: url(#Dégradé_sans_nom_121-2);
      }

      .cls-5, .cls-6, .cls-7 {
        mix-blend-mode: darken;
        opacity: .5;
      }

      .cls-5, .cls-6, .cls-7, .cls-8, .cls-9, .cls-10, .cls-11, .cls-12, .cls-13, .cls-14, .cls-15, .cls-16, .cls-17, .cls-18 {
        stroke-width: 0px;
      }

      .cls-6 {
        fill: url(#Dégradé_sans_nom_121-3);
      }

      .cls-7 {
        fill: url(#Dégradé_sans_nom_121-4);
      }

      .cls-8 {
        fill: url(#Dégradé_sans_nom_121);
      }

      .cls-9, .cls-10, .cls-11 {
        fill-rule: evenodd;
      }

      .cls-9, .cls-13 {
        fill: #272c32;
      }

      .cls-10 {
        fill: #869eb4;
      }

      .cls-11, .cls-16 {
        fill: #fff;
      }

      .cls-3 {
        stroke: url(#Dégradé_sans_nom_143-3);
      }

      .cls-19 {
        isolation: isolate;
      }

      .cls-12 {
        fill: #282c33;
      }

      .cls-14 {
        fill: #cc4e0e;
      }

      .cls-15 {
        fill: #af3d0b;
      }

      .cls-17 {
        fill: #e65b0a;
      }

      .cls-18 {
        fill: #ffa57d;
      }
    </style>
    <linearGradient id="Dégradé_sans_nom_121" data-name="Dégradé sans nom 121" x1="376.19" y1="120" x2="447.75" y2="120" gradientUnits="userSpaceOnUse">
      <stop offset="0" stop-color="#e45a0a"/>
      <stop offset="1" stop-color="#af3d0b"/>
    </linearGradient>
    <linearGradient id="Dégradé_sans_nom_121-2" data-name="Dégradé sans nom 121" x1="385.26" y1="138.01" x2="393.79" y2="134.29" xlink:href="#Dégradé_sans_nom_121"/>
    <linearGradient id="Dégradé_sans_nom_121-3" data-name="Dégradé sans nom 121" x1="380.03" y1="122.71" x2="385.4" y2="122.57" xlink:href="#Dégradé_sans_nom_121"/>
    <linearGradient id="Dégradé_sans_nom_121-4" data-name="Dégradé sans nom 121" x1="368.52" y1="111.97" x2="368.46" y2="110.42" xlink:href="#Dégradé_sans_nom_121"/>
    <linearGradient id="Dégradé_sans_nom_143" data-name="Dégradé sans nom 143" x1="359.63" y1="139.86" x2="312.33" y2="138.2" gradientUnits="userSpaceOnUse">
      <stop offset="0" stop-color="#e45a0a" stop-opacity="0"/>
      <stop offset=".26" stop-color="#db550a"/>
      <stop offset=".75" stop-color="#db550a"/>
      <stop offset="1" stop-color="#db550a" stop-opacity="0"/>
    </linearGradient>
    <linearGradient id="Dégradé_sans_nom_143-2" data-name="Dégradé sans nom 143" x1="358.2" y1="180.73" x2="310.91" y2="179.08" xlink:href="#Dégradé_sans_nom_143"/>
    <linearGradient id="Dégradé_sans_nom_143-3" data-name="Dégradé sans nom 143" x1="356.79" y1="221.26" x2="309.49" y2="219.6" xlink:href="#Dégradé_sans_nom_143"/>
  </defs>
  <g class="cls-19">
    <g id="stiker_style" data-name="stiker style">
      <g>
        <path class="cls-16" d="M445.78,81.38l-95.42,24.28h-.04c-2.73.72-4.99,2.74-5.82,5.45-1.51,4.92,1.46,9.65,6.07,10.7l4.11.87,1.33,21.59c.12,1.95,2.1,3.23,3.93,2.54l15.29-5.76,11.01,15.66c2.33,3.31,7.12,3.61,9.84.62l3.04-3.34c2.9-3.16,8.53-9.29,15.11-16.46l38.42-41.87c1.6-1.75,3.12-3.4,3.12-6.51,0-5.22-4.92-9.04-9.97-7.75Z"/>
        <path class="cls-16" d="M287.2,357.71c-1.61-.18-3.28-.34-4.98-.5.69-4.43.94-9.75.76-16.29,0-.06,0-.11,0-.17,5.44-7.19,12.32-23.31,12.78-59,.09-7.25-.11-14.62-.57-21.89,3.33-.04,6.49-1.32,8.91-3.63,10.16-9.71,12.61-21.88,12.86-23.24.62-3.45-.13-6.94-2.13-9.82-2-2.88-4.99-4.81-8.44-5.44-3.46-.63-6.94.13-9.83,2.13-2.77,1.92-4.66,4.78-5.35,8.05-3.6-18.54-8.75-31.24-15.3-37.72l-.13-.13c-19.17-18.11-59.99-15.58-72.04-14.38-24.13,2.42-53.85,10.56-64.85,26.17h0c-11.03,15.67-4.98,57.6-1.87,74.9.71,3.93,1.51,7.98,2.41,12.07-3.38-.11-6.8.93-9.62,3.22h0c-8.88,7.21-14.72,9.83-15.12,10-7.35,2.98-10.97,11.37-8.08,18.77,2.2,5.62,7.51,9.25,13.54,9.25,1.82,0,3.6-.34,5.29-1,1.52-.59,9.44-3.95,21.22-13.27,4.65,14.15,10.32,26.25,16.68,32.06,1.19,1.09,2.48,2.12,3.84,3.09-.14,3.05-.68,5.55-1.09,7.08-18.96,2.23-28.59,5.22-28.59,14.02s10.55,12.04,31.32,14.3c15.87,1.72,36.9,2.67,59.23,2.67s43.34-.95,59.18-2.67c20.74-2.26,31.27-5.09,31.27-14.3s-10.54-12.05-31.3-14.33Z"/>
      </g>
    </g>
    <g id="Bubus">
      <path class="cls-10" d="M228.04,363c-45.58,0-82.54,4.08-82.54,9.03s36.97,8.97,82.54,8.97,82.46-4.01,82.46-8.97-36.97-9.03-82.46-9.03Z"/>
      <polygon class="cls-15" points="364.12 136.76 381.93 129.87 381.17 122.84 364.12 136.76"/>
      <path class="cls-14" d="M447.76,89.13l-59.81,32.31-11.76,6.35-11.29,8.78c-.53.42-1.32.07-1.36-.61l-1.24-19.54-.02-.32,25.67-8.1,59.81-18.87Z"/>
      <g>
        <path class="cls-12" d="M120.14,322.07c-2.61,0-5.08-1.58-6.09-4.16-1.31-3.35.33-7.13,3.68-8.46.17-.07,6.84-2.85,17.11-11.19,2.8-2.28,6.92-1.85,9.2.96,2.28,2.8,1.85,6.92-.96,9.2-11.93,9.68-19.71,12.87-20.56,13.2-.78.31-1.59.45-2.38.45Z"/>
        <path class="cls-9" d="M270.28,195.87c-24.31-22.97-108.01-13.31-124.86,10.59-14.02,19.9,4.83,118.61,23.31,135.48,25.36,23.16,90.01,4.19,102.55-1.69,24.53-9.97,19.59-124.01-1-144.38Z"/>
        <path class="cls-11" d="M269.02,218.35c-17.65-8.2-83.5-5.16-100.59,8.65-9.39,7.59-7.5,44.17,4.26,41.51,27.43-6.19,85.44-11.4,102.11-11.13,8.34.14,5.09-33.99-5.78-39.03Z"/>
        <path class="cls-16" d="M189.21,209.75c-2.93,0-5.63-1.92-6.48-4.88-1.03-3.58,1.03-7.31,4.61-8.34,1.22-.35,30.33-8.61,62.23-4.16,3.69.51,6.26,3.92,5.75,7.61-.51,3.69-3.92,6.26-7.61,5.75-28.96-4.04-56.36,3.68-56.63,3.76-.62.18-1.25.26-1.86.26Z"/>
        <path class="cls-13" d="M265.4,366.52c-.84,0-1.7-.13-2.54-.4-4.3-1.4-6.65-6.02-5.25-10.32.3-.92,1.26-4.67.99-14.22-.1-3.67-.34-6.44-.34-6.47-.39-4.5,2.94-8.48,7.44-8.87,4.5-.39,8.47,2.94,8.87,7.44.01.13.28,3.25.4,7.44.25,8.83-.34,15.29-1.79,19.74-1.13,3.46-4.33,5.65-7.78,5.65Z"/>
        <path class="cls-13" d="M180.54,374c-1.07,0-2.15-.21-3.19-.65-4.15-1.76-6.09-6.54-4.36-10.69.11-.28,4.53-11.53.58-24.42-1.33-4.32,1.1-8.9,5.43-10.23,4.32-1.33,8.9,1.1,10.23,5.43,5.79,18.88-.85,34.91-1.14,35.58-1.32,3.12-4.35,4.99-7.54,4.99Z"/>
        <path class="cls-11" d="M168.49,288.38c-.32-2.08.98-9.56,7.82-11.97,6.24-2.21,13.13,3.34,13.59,5.67.35,1.8-4.74-.87-12.42,1.08-6.2,1.57-8.46,8.67-8.99,5.22Z"/>
        <path class="cls-11" d="M280.43,278.52c.1-2.23-1.69-10-7.8-11.83-5.58-1.67-11.03,4.91-11.22,7.43-.15,1.94,4.4-1.9,10.9-.69,5.73,1.07,7.96,8.79,8.12,5.09Z"/>
        <path class="cls-11" d="M232.11,299.82c-33.58,2.46-40.35-8.76-46.12-2.97-4.66,4.68-1.81,23.75,19.72,34.62,14.51,7.33,37.45,4.77,49.58-3.57,10.54-7.25,21.88-24.09,15.45-39.76-2.57-6.27-15.03,9.96-38.63,11.68Z"/>
      </g>
      <polygon class="cls-8" points="376.19 127.8 447.75 89.14 391.11 150.86 376.19 127.8"/>
      <path class="cls-17" d="M447.76,89.13l-62.87,19.83h-.01s-21.86,6.91-21.86,6.91c-.34.11-.56.18-.67.2l-.06.02-9.93-2.1c-.31-.07-.32-.5-.01-.59l7.03-1.79h.01l88.38-22.49Z"/>
      <polygon class="cls-5" points="391.78 150.13 387.96 121.44 376.19 127.8 391.11 150.86 391.78 150.13"/>
      <path class="cls-6" d="M384.87,108.97l-.02,14.14-8.66,4.68-11.29,8.78c-.53.42-1.32.07-1.36-.61l-1.26-19.87,22.59-7.13Z"/>
      <path class="cls-7" d="M384.89,108.96h-.01c-.46.3-18.02,5.73-21.86,6.91-.34.11-.56.18-.67.2-.04.01-.06.02-.06.02l-9.93-2.1c-.31-.07-.32-.5-.01-.59l7.03-1.79h.01c.74-.08,25.51-2.92,25.51-2.65Z"/>
      <g class="cls-4">
        <path class="cls-18" d="M446.95,89.34c-27.03,8.86-57.45,18.48-84.66,26.76,27.03-8.87,57.45-18.48,84.66-26.76h0Z"/>
      </g>
      <g class="cls-4">
        <path class="cls-18" d="M364.9,136.58c3.55-3.19,7.32-6.13,11.29-8.78-3.55,3.2-7.32,6.12-11.29,8.78h0Z"/>
      </g>
      <g class="cls-4">
        <path class="cls-18" d="M387.96,121.44c-3.61,2.33-7.38,4.37-11.31,6.11,3.61-2.34,7.38-4.37,11.31-6.11h0Z"/>
      </g>
      <g>
        <path class="cls-2" d="M359.14,139.72c-.14.07-.29.14-.44.22"/>
        <path class="cls-1" d="M356.95,140.93c-12.03,7.27-43.3,34.19-22.39,44.75,5.21,2.63,12.29,1.24,15.29-3.76,4.4-7.34.19-23.72-16.19-18.64-15.63,4.85-17.7,24.07-18.31,38.43-.02,5.78.44,13.04-4.17,17.14"/>
        <path class="cls-3" d="M310.4,219.49c-.13.1-.27.19-.41.28"/>
      </g>
      <path class="cls-13" d="M295.02,251.86c-1.35,0-2.7-.53-3.71-1.58-1.96-2.05-1.88-5.29.17-7.25,6-5.73,7.49-13.22,7.51-13.3.5-2.79,3.17-4.64,5.96-4.13,2.79.5,4.63,3.17,4.13,5.96-.08.44-2.03,10.78-10.51,18.88-.99.95-2.27,1.42-3.54,1.42Z"/>
    </g>
  </g>
</svg>