<?xml version="1.0" encoding="UTF-8"?>
<svg xmlns="http://www.w3.org/2000/svg" viewBox="0 0 500 500">
  <defs>
    <style>
      .cls-1, .cls-2, .cls-3 {
        fill-rule: evenodd;
      }

      .cls-1, .cls-2, .cls-3, .cls-4, .cls-5 {
        stroke-width: 0px;
      }

      .cls-1, .cls-4 {
        fill: #272c32;
      }

      .cls-2 {
        fill: #869eb4;
      }

      .cls-3, .cls-5 {
        fill: #fff;
      }
    </style>
  </defs>
  <g id="stiker_style" data-name="stiker style">
    <path class="cls-5" d="M298.19,194.62h0c-6.97-1.3-13.74,3.24-15.23,10.15-3.6-18.54-8.75-31.24-15.3-37.72l-.13-.13c-19.17-18.11-59.99-15.58-72.04-14.38-24.14,2.42-53.85,10.56-64.85,26.17h0c-4.62,6.56-6.24,17.71-6.34,29.74-2.66-1.14-5.6-1.46-8.5-.91-3.87.73-7.22,2.93-9.44,6.18-2.22,3.25-3.04,7.18-2.31,11.05,2.45,12.93,9.53,22.68,10.33,23.75,2.77,3.7,7.18,5.91,11.8,5.91.91,0,1.81-.09,2.69-.25,4.93,27.12,14.37,59.73,26.22,70.54,1.19,1.09,2.48,2.12,3.84,3.09-.23,4.98-1.52,8.5-1.6,8.73-1.92,4.67-1.46,9.76.79,13.9-3.26,1.91-5.54,4.66-5.54,8.7,0,10.1,14.16,12.1,22.62,13.3,10.51,1.49,24.39,2.3,39.1,2.3s28.59-.82,39.1-2.3c8.46-1.2,22.63-3.2,22.63-13.3,0-5.61-4.38-8.72-9.72-10.58,2.87-1.97,5.1-4.85,6.24-8.34,1.76-5.41,2.46-12.54,2.18-22.44,0-.06,0-.11,0-.17,5.44-7.19,12.32-23.32,12.78-59,.09-7.26-.1-14.62-.57-21.89,3.33-.04,6.49-1.32,8.91-3.63,10.16-9.71,12.61-21.88,12.86-23.24,1.28-7.08-3.43-13.91-10.51-15.23ZM214.31,343.53c-9.01,0-17.71.31-25.52.89.52-1.8,1.09-4.07,1.55-6.72,18.35,1.38,38.02-2.2,50.87-5.29-.61,3.44-.09,6.96,1.52,10.13.4.79.88,1.53,1.39,2.24-8.85-.81-19.12-1.25-29.82-1.25Z"/>
  </g>
  <g id="Bubus">
    <g>
      <path class="cls-1" d="M262.04,172.74c-24.31-22.97-108.01-13.31-124.86,10.59-14.02,19.9,4.83,118.61,23.31,135.48,25.36,23.16,90.01,4.19,102.55-1.69,24.53-9.97,19.59-124.01-1-144.38Z"/>
      <path class="cls-2" d="M214.31,351.53c29.65,0,53.73,3.41,53.73,7.6s-24.08,7.6-53.73,7.6-53.72-3.4-53.72-7.6,24.07-7.6,53.72-7.6Z"/>
      <path class="cls-3" d="M260.78,195.22c-17.65-8.2-83.5-5.16-100.59,8.65-9.39,7.59-7.5,44.17,4.26,41.51,27.43-6.19,85.44-11.4,102.11-11.13,8.34.14,5.09-33.99-5.78-39.03Z"/>
      <path class="cls-5" d="M180.97,186.62c-2.93,0-5.63-1.92-6.48-4.88-1.03-3.58,1.03-7.31,4.61-8.34,1.22-.35,30.34-8.61,62.23-4.16,3.69.51,6.26,3.92,5.75,7.61s-3.92,6.26-7.61,5.75c-28.96-4.04-56.36,3.68-56.63,3.76-.62.18-1.25.26-1.86.26Z"/>
      <path class="cls-4" d="M257.16,343.39c-.84,0-1.69-.13-2.54-.4-4.3-1.4-6.65-6.02-5.25-10.32.3-.92,1.26-4.67.99-14.22-.1-3.67-.34-6.44-.34-6.46-.39-4.5,2.94-8.48,7.44-8.87,4.5-.39,8.47,2.94,8.87,7.44.01.13.28,3.25.4,7.44.25,8.83-.34,15.29-1.79,19.74-1.13,3.46-4.33,5.65-7.78,5.65Z"/>
      <path class="cls-4" d="M286.78,228.73c-1.35,0-2.7-.53-3.71-1.58-1.96-2.05-1.88-5.29.17-7.25,6-5.73,7.5-13.25,7.51-13.32.53-2.77,3.21-4.6,5.98-4.08,2.77.52,4.61,3.16,4.1,5.94-.08.44-2.04,10.78-10.51,18.88-.99.95-2.27,1.42-3.54,1.42Z"/>
      <path class="cls-4" d="M126.18,246.43c-2.05,0-4.07-.93-5.39-2.7-.27-.37-6.73-9.1-8.87-20.44-.69-3.66,1.71-7.19,5.37-7.88,3.66-.69,7.19,1.71,7.88,5.37,1.55,8.19,6.39,14.83,6.44,14.89,2.2,2.99,1.58,7.21-1.4,9.43-1.21.9-2.62,1.33-4.02,1.33Z"/>
      <path class="cls-4" d="M172.3,350.87c-1.07,0-2.15-.21-3.19-.65-4.15-1.76-6.09-6.54-4.36-10.69.11-.29,4.53-11.53.58-24.43-1.33-4.32,1.1-8.9,5.43-10.23,4.32-1.33,8.9,1.1,10.23,5.43,5.79,18.88-.86,34.91-1.14,35.58-1.32,3.12-4.35,4.99-7.54,4.99Z"/>
      <path class="cls-3" d="M160.25,265.25c-.32-2.08.98-9.56,7.82-11.97,6.24-2.21,13.13,3.34,13.59,5.67.35,1.8-4.74-.87-12.42,1.08-6.2,1.57-8.46,8.67-8.99,5.22Z"/>
      <path class="cls-3" d="M272.19,255.39c.1-2.23-1.69-10-7.8-11.83-5.58-1.67-11.03,4.91-11.22,7.43-.15,1.94,4.4-1.9,10.9-.69,5.73,1.07,7.96,8.79,8.12,5.09Z"/>
      <path class="cls-3" d="M223.87,276.69c-33.58,2.46-40.35-8.76-46.12-2.97-4.66,4.68-1.81,23.75,19.72,34.62,14.51,7.33,37.45,4.77,49.58-3.57,10.54-7.25,21.88-24.09,15.45-39.76-2.57-6.27-15.03,9.96-38.63,11.68Z"/>
    </g>
  </g>
</svg>