<?xml version="1.0" encoding="UTF-8"?>
<svg xmlns="http://www.w3.org/2000/svg" viewBox="0 0 500 500">
  <defs>
    <style>
      .cls-1 {
        fill: #869eb4;
      }

      .cls-1, .cls-2 {
        fill-rule: evenodd;
      }

      .cls-1, .cls-2, .cls-3, .cls-4, .cls-5, .cls-6, .cls-7, .cls-8, .cls-9 {
        stroke-width: 0px;
      }

      .cls-2, .cls-8 {
        fill: #fff;
      }

      .cls-3 {
        fill: #111314;
        opacity: .5;
      }

      .cls-3, .cls-9 {
        mix-blend-mode: darken;
      }

      .cls-10 {
        isolation: isolate;
      }

      .cls-4 {
        fill: #282c33;
      }

      .cls-5 {
        fill: #272c32;
      }

      .cls-6 {
        fill: #c92206;
      }

      .cls-7 {
        fill: #7f1c0e;
      }

      .cls-9 {
        fill: #1c3f4c;
        opacity: .2;
      }
    </style>
  </defs>
  <g class="cls-10">
    <g id="stiker_style" data-name="stiker style">
      <path class="cls-8" d="M383.36,208.17l-9.06-10.79c.98-11.17-12.32-19.44-21.9-13.64l-17.34-.41c-13.86-26.13-35.04-35.59-80.2-33.1-53.24,3.18-73.41,15.86-81.37,44.69l-6.87.16c-9.86-8.93-26.39.07-24.22,13.23l-10.07,21.2c-3.29,2.18-6.68,5.17-6.64,9.46-.17,6.23,6.34,12.11,12.35,12.41,7.55.83,16.88-1.01,16.21-10.57.79-1.21,2.12-3.06,2.72-4.35,5.73,3.64,13.85,2.57,18.43-2.47,6.03,41.11,9.14,63.39,22.42,86.62-.33,5.29-.28,9.88-.05,13.71-13.3,2.2-20.42,5.47-20.42,13.1-.32,24.49,118.78,16.19,138.46,14.34,36.29-1.71,38.61-23.33,9.81-27.25.71-4.48.93-7.91.62-12.35,22.68-20.04,15.74-57.59,15.27-97.46,4.93,5.12,13.55,5.73,19.17,1.44l3.6,9.26,23.81-1.84,10.31-15.98-15.02-9.42Z"/>
    </g>
    <g id="Bubus">
      <path class="cls-1" d="M261.21,338.38c41.87,0,75.87,4.05,75.87,9.04s-33.99,9.04-75.87,9.04-75.88-4.05-75.88-9.04,34-9.04,75.88-9.04Z"/>
      <g>
        <path class="cls-4" d="M332.51,216.93c-4.59-30.06-4.22-63.11-77.17-58.7-78.89,4.77-77.43,31.81-71.5,78.97,4.08,32.59,10.46,56.01,14.55,66.85,1.87,4.9,4,9.81,7.62,14.14-1.44,16.83,1.14,26.53,1.48,27.72,1.05,3.63,4.37,6.02,7.98,6.02.75,0,1.52-.1,2.28-.32,4.39-1.26,6.94-5.82,5.68-10.21-.02-.07-1.19-4.53-1.26-12.67,9.79,3.31,23.91,4.75,44.84,3.09,14.87-1.18,26.14-3.35,34.75-6.05,0,3.37-.6,6.4-1.83,12.68-.88,4.49,2.05,8.84,6.53,9.71.54.1,1.07.16,1.6.16,3.88,0,7.34-2.74,8.12-6.69,2.25-11.49,2.72-14.44,1.65-23.17,8.87-5.89,11.46-12.3,13.2-16.55,3.47-8.5,5.42-60.1,1.5-84.97Z"/>
        <polygon class="cls-6" points="328.17 191.18 355.74 191.83 351.5 201.24 328.54 196.62 328.17 191.18"/>
        <polygon class="cls-6" points="181.92 202.74 154.35 203.38 158.59 212.8 181.55 208.18 181.92 202.74"/>
        <path class="cls-8" d="M314.32,183.89c6.43,4.49,8.81,14.82,9.47,25.71.57,9.24-.54,17.05-13.22,16.27-12.68-.78-78.68,3.75-102.15,7.81-14.06,2.4-15.86-27.03-8.66-38.3,8.53-13.33,44.48-16.56,68.38-17.95,22.07-1.26,37.94.78,46.18,6.46Z"/>
        <path class="cls-9" d="M181.92,215.95s24.64-14.68,57.96-17.13c33.32-2.45,92.9,7.33,89.98-2.61-3.07-10.43,2.07-12.48-16.19-11.54s-126.08,5.7-131.75,31.27Z"/>
        <path class="cls-8" d="M232.28,172.96c-1.79,0-3.38-1.27-3.72-3.09-.38-2.05.98-4.03,3.03-4.41,17.59-3.27,35.58-4.21,53.47-2.8,2.08.16,3.64,1.99,3.48,4.07-.16,2.08-1.99,3.64-4.07,3.48-17.22-1.35-34.55-.45-51.49,2.7-.23.04-.47.06-.69.06Z"/>
        <path class="cls-2" d="M317.74,235.48c5.76-.12,10.31,2.7,10.43,8.46.13,5.76-4.45,10.54-10.21,10.66-5.76.13-10.53-4.45-10.66-10.21-.12-5.76,4.68-8.79,10.44-8.91Z"/>
        <path class="cls-2" d="M219.16,240.85c6.59-.14,12.05,5.09,12.19,11.68.14,6.58-5.09,12.04-11.68,12.18-6.58.14-12.04-5.09-12.18-11.67-.14-6.59,5.09-12.05,11.67-12.19Z"/>
        <path class="cls-5" d="M164.65,230.65c-2.05,0-4.08-.93-5.41-2.71-.27-.37-6.73-9.1-8.88-20.44-.69-3.66,1.71-7.19,5.37-7.88,3.65-.69,7.19,1.71,7.88,5.37,1.55,8.18,6.38,14.81,6.43,14.88,2.23,2.98,1.62,7.21-1.36,9.44-1.21.91-2.63,1.34-4.03,1.34Z"/>
        <path class="cls-6" d="M157.55,207.58l-3.73-2.69c-.36-.26-.87-.13-1.06.27l-13.43,28.28c-.41.86-1.02,1.61-1.78,2.18l-3.19,2.39c-.86.65-.91,1.92-.1,2.64l2.66,2.34c.31.27.71.42,1.12.42h6.55c1.12,0,1.93-1.07,1.64-2.15l-.54-1.99,3.48-5.22c.5-.75.89-1.56,1.16-2.41l7.5-23.26c.09-.29-.01-.62-.26-.8Z"/>
        <path class="cls-7" d="M143.93,235.36s12.56-16.68,10.1-23.97c0,0-4.26,16.96-10.84,24.55"/>
        <path class="cls-3" d="M151.4,211.78s2.93,9.4,10.45,5.93c6.11-2.83,4.07-4.72,2.41-9.98-1.66-5.26-12.86,4.06-12.86,4.06Z"/>
        <path class="cls-5" d="M351.91,221.02c-1.4,0-2.82-.44-4.03-1.34-2.98-2.23-3.59-6.44-1.38-9.42.09-.12,4.89-6.74,6.44-14.89.69-3.66,4.23-6.06,7.88-5.37,3.66.69,6.07,4.22,5.37,7.88-2.15,11.34-8.6,20.08-8.87,20.44-1.32,1.77-3.35,2.71-5.41,2.71Z"/>
        <polygon class="cls-6" points="361.67 194.79 378.04 214.28 387.27 220.06 383.5 225.9 369.57 226.97 359.57 201.24 359.28 197.99 361.67 194.79"/>
        <polygon class="cls-7" points="364.44 203.03 367.64 209.1 374.65 217.96 367.55 209.76 363.27 203.54 364.44 203.03"/>
        <polygon class="cls-7" points="364.96 200.21 374.18 213.47 367.41 205.45 364.96 200.21"/>
        <path class="cls-3" d="M352.94,195.37s-.17,16.04,6.42,14.81c6.59-1.22,6.44-10.47,6.44-10.47l-12.86-4.35Z"/>
        <path class="cls-6" d="M183.16,195.49c12.28-6.01,73.56-33.25,139.8-14.5,1.53.43,2.75,1.6,3.25,3.1l.57,1.69c.78,1.44,1.37,2.96,1.78,4.54l1.23,4.74c.28,1.08-.64,2.1-1.76,1.94-15.19-2.13-100.25-12.35-145.59,17.88-.7.46-1.64.05-1.73-.77l-.48-4.09c-.02-.2-.04-.41-.04-.61v-6.7c0-.22.01-.44.04-.66l.38-3.02c.19-1.52,1.14-2.84,2.53-3.52Z"/>
        <path class="cls-5" d="M364.69,203.69c.81-1.75,1.12-3.78,1.51-5.82.69-3.66-1.71-7.19-5.37-7.88-3.65-.69-7.19,1.71-7.88,5.37,0,0,5.82,21.03,11.74,8.32Z"/>
        <path class="cls-5" d="M156.41,215.9c3.82.29,7.38-.58,9.36-3.89-.84-2.01-1.62-4.29-2.1-6.73-.71-3.58-4-6.22-7.62-5.71-3.84.54-6.4,4.17-5.69,7.93.28,1.48.63,2.91,1.04,4.28.67,2.26,2.66,3.94,5.01,4.11Z"/>
        <path class="cls-8" d="M288.53,289.52l-4.05,11.17c-.23.62-.79,1.09-1.49,1.24l-7.7,1.16c-1.48.22-2.9.73-4.15,1.49l-12.39,7.55c-1.18.72-2.67.84-3.95.32l-1.61-.67c-2.11-.87-2.93-3.21-1.78-5.08l8.28-13.47c1.09-1.78,3.2-2.85,5.42-2.75l8.2.35,12.49-2.85.94-.21c1.16-.27,2.16.72,1.79,1.75Z"/>
        <path class="cls-7" d="M189.67,198.06c.08-.09,30.48-13.92,58.36-14.53,28.05-.7,40.58-1.77,40.58-1.94-.05.75-14.58.95-68.97,7.8-9.42,1.38-18.81,6.16-29.97,8.67Z"/>
        <path class="cls-7" d="M290.89,188.77s19.16-3.25,36.61,1.06l-36.61-1.06Z"/>
        <path class="cls-7" d="M284.27,190.97l6.18-1.09c1.03-.18,2.09-.18,3.12.01,5.59,1.02,24.81,4.25,31.78,1.85,0,0-5.86,1.69-41.01.2-.58-.02-.65-.87-.07-.97Z"/>
        <path class="cls-7" d="M180.21,204.3l-14.43.45s11.61.77,14.43-.45Z"/>
        <path class="cls-7" d="M179.92,204.41c.16-.05-4.79,2.67-12.46,2.15,0,0,8.36-.82,12.46-2.15Z"/>
        <polygon class="cls-7" points="180.21 202.98 179.12 204.3 179.92 204.41 179.67 206.62 180.21 208.45 180.21 202.98"/>
        <path class="cls-7" d="M180.21,205.71s-1.36,1.45-4.05,1.64"/>
        <path class="cls-7" d="M151.89,211.39l-5.19,12.69s3.95-7.63,4.14-8.13,1.05-4.56,1.05-4.56Z"/>
        <path class="cls-7" d="M329.01,192.61l23.24.91s-16.08,1.1-23.24-.91Z"/>
        <path class="cls-7" d="M330.61,194.79l21.98,4.03s-14.64-2.03-15.02-2.02-6.96-2.02-6.96-2.02Z"/>
        <path class="cls-7" d="M377.29,215.95l7.91,4.02s-6.21-2.14-6.59-2.01-1.32-2.01-1.32-2.01Z"/>
        <path class="cls-7" d="M381.95,224.98s-9.6-1.34-9.81-1.62-7.69-12.86-7.69-12.86l6.56,13.85,10.94.64Z"/>
      </g>
    </g>
  </g>
</svg>