<?xml version="1.0" encoding="UTF-8"?>
<svg xmlns="http://www.w3.org/2000/svg" viewBox="0 0 500 500">
  <defs>
    <style>
      .cls-1 {
        fill: #869eb4;
      }

      .cls-1, .cls-2 {
        fill-rule: evenodd;
      }

      .cls-1, .cls-2, .cls-3, .cls-4 {
        stroke-width: 0px;
      }

      .cls-2, .cls-4 {
        fill: #fff;
      }

      .cls-3 {
        fill: #282c33;
      }
    </style>
  </defs>
  <g id="stiker_style" data-name="stiker style">
    <path class="cls-4" d="M368.5,308.37h0c-2.11-13.77-5.91-21.2-6.64-22.53-2.71-4.95-8.04-7.59-13.35-7.16,3.1-18.83,5.39-40.69,5.07-53.82-.05-1.93-.07-3.86-.1-5.8-.38-28.72-.86-64.47-75.97-69.65-37.28-2.56-59.84,1.82-73.17,14.22-15.75,14.64-15.86,37.85-15.97,62.43-.08,16.9.76,31.78,2,43.93-2.97-.56-6.03-.21-8.84,1.06-3.62,1.64-6.39,4.58-7.8,8.3-5.69,15.06-5.98,24.57-5.98,26.32,0,8.22,6.67,14.9,14.88,14.9s14.77-6.56,14.88-14.66c.61,1.53,1.3,3.06,2.11,4.57-2.05,2.97-2.75,5.83-2.9,8.04-.88,12.64,13.32,20.89,25.39,25.58,14.25,5.54,33.27,9.37,53.57,10.78,5.6.39,11.13.58,16.52.58,14.13,0,27.26-1.32,38.03-3.87,12.6-2.99,27.8-9.2,28.67-21.85.14-2.04-.13-3.96-.7-5.77,3.11-.79,5.83-2.62,7.76-5.25,2.2-3,3.11-6.67,2.54-10.35Z"/>
  </g>
  <g id="Bubus">
    <path class="cls-1" d="M279.39,301.36c40.35,2.8,72.4,15.27,71.53,27.83-.87,12.57-34.34,20.5-74.69,17.71-40.35-2.8-72.4-15.27-71.53-27.83.87-12.57,34.34-20.5,74.69-17.71Z"/>
    <path class="cls-3" d="M276.96,157.39c-78.37-5.39-80.38,21.45-80.59,68.7-.15,32.6,3.11,56.54,5.79,67.74,3.95,16.5,10.69,33.47,64.07,36.13,53.39,2.67,62.43-13.33,66.95-21.35s13.02-58.54,12.4-83.55c-.75-30.16,3.84-62.67-68.62-67.67Z"/>
    <path class="cls-3" d="M334.62,339.37c-1.82,0-3.64-.6-5.16-1.83q-9.57-7.76-22.69-12.42l2.67-7.78,2.75-7.75-2.75,7.75,2.83-7.72c15.34,5.44,16.11,5.87,27.53,15.13,3.53,2.86,4.08,8.05,1.22,11.58-1.63,2.01-4,3.05-6.4,3.05Z"/>
    <path class="cls-3" d="M254.88,343.13c-2.68,0-5.31-1.31-6.89-3.72-.17-.25-6.25-9.08-21.58-18.93-3.82-2.45-4.93-7.54-2.48-11.37,2.45-3.82,7.54-4.93,11.37-2.48,18.44,11.84,25.71,22.61,26.47,23.8,2.46,3.82,1.37,8.91-2.45,11.37-1.38.89-2.93,1.32-4.46,1.32Z"/>
    <path class="cls-4" d="M312.31,314.7c-2.01,0-3.98-1.03-5.09-2.88-.34-.56-7.2-11.29-23.03-11.38-.13,0-.26,0-.39,0-20.98,0-28.13,10.63-28.43,11.09-1.7,2.8-5.33,3.65-8.12,1.94-2.8-1.7-3.66-5.39-1.96-8.18.42-.69,10.5-16.71,38.51-16.71.16,0,.31,0,.47,0,22.81.14,32.73,16.48,33.15,17.17,1.67,2.82.73,6.45-2.08,8.12-.95.56-1.99.83-3.01.83Z"/>
    <path class="cls-2" d="M313.45,278.7c.03-5.72,4.7-10.35,10.42-10.33,5.73.03,10.36,4.7,10.33,10.43-.03,5.72-4.7,10.35-10.42,10.32-5.73-.02-10.36-4.69-10.33-10.42Z"/>
    <path class="cls-2" d="M230.65,267.53c6.5-.74,12.38,3.93,13.12,10.43.74,6.51-3.93,12.39-10.44,13.13-6.5.74-12.38-3.94-13.12-10.44-.74-6.5,3.93-12.38,10.44-13.12Z"/>
    <path class="cls-3" d="M354.72,316.41c-2.88,0-5.4-2.1-5.85-5.03-1.62-10.62-4.42-15.98-4.45-16.03-1.52-2.88-.45-6.47,2.42-8.01,2.87-1.54,6.44-.51,8,2.35.38.7,3.81,7.21,5.75,19.9.5,3.24-1.73,6.26-4.96,6.76-.3.05-.61.07-.9.07Z"/>
    <path class="cls-3" d="M182.63,312.56c-3.8,0-6.88-3.11-6.88-6.9,0-.92.15-9.44,5.46-23.49,1.34-3.55,5.31-5.34,8.86-4,3.55,1.34,5.34,5.31,4,8.86-4.42,11.68-4.57,18.61-4.58,18.68,0,3.8-3.08,6.85-6.88,6.85Z"/>
    <path class="cls-4" d="M331.01,217.88c5.65,4.8,6.97,14.92,6.66,25.4-.27,8.89-1.97,16.3-13.77,14.42-11.8-1.88-73.98-3.19-96.33-1.38-13.34,1.08-12.45-30.03-4.75-40.18,9.13-12,49.1-10.09,65.5-8.43,20.69,2.09,35.46,4.06,42.69,10.17Z"/>
    <path class="cls-4" d="M307.64,200.49c-.22,0-.44-.01-.67-.04l-1.5-.17q-21.1-2.4-45.68-2.95l-2.54-.06c-3.22-.07-5.78-2.75-5.71-5.97s2.79-5.79,5.97-5.71l2.54.06q25.12.56,46.74,3.02l1.5.17c3.21.36,5.51,3.26,5.14,6.46-.34,2.98-2.86,5.18-5.79,5.18Z"/>
  </g>
</svg>