<?xml version="1.0" encoding="UTF-8"?>
<svg xmlns="http://www.w3.org/2000/svg" viewBox="0 0 500 500">
  <defs>
    <style>
      .cls-1, .cls-2, .cls-3 {
        fill-rule: evenodd;
      }

      .cls-1, .cls-2, .cls-3, .cls-4, .cls-5, .cls-6 {
        stroke-width: 0px;
      }

      .cls-1, .cls-4 {
        fill: #272c32;
      }

      .cls-2 {
        fill: #869eb4;
      }

      .cls-3, .cls-5 {
        fill: #fff;
      }

      .cls-6 {
        fill: #e65b0a;
      }
    </style>
  </defs>
  <g id="stiker_style" data-name="stiker style">
    <path class="cls-5" d="M399.56,93.12c-3.32-4.7-8.28-7.76-13.97-8.62l-3.97-.6c-5.59-.84-11.15.56-15.67,3.96-1.16.87-2.21,1.85-3.15,2.91-.73-1.96-1.71-3.85-2.95-5.61-3.84-5.44-9.58-8.99-16.17-9.98l-4.98-.75c-6.47-.98-12.91.65-18.14,4.58-5.23,3.93-8.59,9.67-9.46,16.23l-6.66,53.87c-1.43,10.75,4.58,20.93,14.04,25.24-4.18.61-8.16,2.25-11.66,4.83-5.6,4.14-9.26,10.21-10.3,17.09-.08.54-.14,1.08-.19,1.62-14.84-9.18-38.66-12.75-58.44-12.87-14.41-.08-28.25,1.51-40,4.62-13.83,3.66-24.07,9.19-30.42,16.43l-.12.14c-5.15,6.16-8.82,16.99-10.9,32.21-1.77,12.9-2.31,28.73-1.53,44.58.13,2.63.3,5.23.49,7.8-3.02-1.01-6.27-1.02-9.34.01-3.73,1.26-6.75,3.9-8.5,7.43-5.84,11.79-6.05,23.85-6.06,25.19-.03,8.03,6.43,14.63,14.44,14.79h.3c7.15,0,13.15-5.17,14.46-11.93.08.34.16.68.24,1.02,3.16,12.7,7.28,22.15,12.28,28.16-.25,4.5-.27,8.4-.02,11.82-5.81.69-10.68,1.47-14.53,2.34-4.7,1.06-14.47,3.26-14.47,11.72,0,9.21,10.55,12.04,31.32,14.3,15.87,1.72,36.9,2.67,59.23,2.67s43.34-.95,59.18-2.67c20.74-2.26,31.27-5.09,31.27-14.3s-10.57-10.95-16.25-12.1c-4.91-1-11.4-1.89-19.03-2.63.07-3.16-.11-6.33-.51-9.5,1.75-1.39,3.35-2.89,4.79-4.48,4.9-5.4,8.88-15.24,11.99-26.93,1.07,7,7.07,12.42,14.37,12.52h.19c8.03,0,14.64-6.53,14.74-14.55.02-1.34,0-13.39-5.64-25.28-1.69-3.56-4.66-6.25-8.37-7.57-2.9-1.03-5.97-1.12-8.87-.31.45-3.77.82-7.5,1.13-11.12,1.03-12.22,2.36-36.52-1.16-55.03,1.85.74,3.8,1.28,5.83,1.58,1.32.2,2.63.3,3.94.3,5.53,0,10.9-1.75,15.43-5.1,5.6-4.14,9.26-10.21,10.3-17.09.5-3.31.34-6.57-.36-9.65.68,1.59,1.53,3.13,2.58,4.55,3.55,4.81,8.76,7.96,14.68,8.85,1.13.17,2.26.25,3.38.25,4.75,0,9.36-1.51,13.25-4.38,4.81-3.55,7.95-8.77,8.84-14.68.89-5.92-.57-11.82-4.12-16.64-1.57-2.12-3.47-3.89-5.6-5.32,6.45-2.5,11.49-8.12,12.95-15.39l9.27-42.28.04-.18c1.1-5.65-.12-11.35-3.43-16.05ZM346.17,182.29c-.41,2.7-.3,5.39.25,7.98-2.57-6.26-7.53-11.41-13.91-14.13,9.63-1.64,17.62-9.03,19.63-19.12l.89-4.05c1.27,4.63,4.12,8.69,7.99,11.49-7.62,2.64-13.57,9.31-14.85,17.82Z"/>
  </g>
  <g id="Bubus">
    <path class="cls-2" d="M234.76,372.3c-45.58,0-82.54,4.08-82.54,9.03s36.97,8.97,82.54,8.97,82.46-4.01,82.46-8.97-36.97-9.03-82.46-9.03Z"/>
    <path class="cls-4" d="M190.18,379.66c-3.58,0-6.87-2.37-7.88-5.99-1.26-4.51-1.57-10.98-.94-19.8.29-4.16.69-7.27.71-7.4.58-4.48,4.68-7.65,9.17-7.07,4.48.58,7.65,4.68,7.07,9.17h0s-.36,2.79-.61,6.46c-.68,9.54.12,13.32.38,14.25,1.22,4.36-1.33,8.87-5.69,10.09-.74.21-1.48.3-2.21.3Z"/>
    <path class="cls-4" d="M272.79,382.92c-.56,0-1.13-.06-1.7-.18-4.42-.93-7.25-5.28-6.32-9.7,2.81-13.3-2.7-24.18-2.76-24.29-2.13-3.99-.61-8.93,3.38-11.06,3.99-2.13,8.96-.6,11.09,3.39.34.65,8.39,16.02,4.31,35.34-.81,3.85-4.22,6.5-8,6.5Z"/>
    <path class="cls-1" d="M173.48,211.34c22.06-25.14,106.29-23.37,125.3-1.16,15.83,18.5,6.31,118.54-10.5,137.07-23.08,25.43-89.22,12.61-102.26,7.92-25.36-7.62-31.12-121.62-12.54-143.83Z"/>
    <path class="cls-3" d="M265.47,285.57c-7.84,0-14.22,6.37-14.22,14.22,0,7.84,6.37,14.2,14.22,14.2,7.84,0,14.2-6.36,14.2-14.2,0-7.84-6.36-14.22-14.2-14.22Z"/>
    <path class="cls-3" d="M187.1,285.57c-6.68,0-12.11,5.43-12.11,12.11s5.43,12.1,12.11,12.1c6.68,0,12.1-5.42,12.1-12.1,0-6.68-5.42-12.11-12.1-12.11Z"/>
    <path class="cls-3" d="M176.85,233.6c16.81-9.81,82.66-12.96,100.96-.82,10.07,6.68,11.61,43.28-.35,41.74-27.88-3.6-86.13-3.35-102.71-1.52-8.28.92-8.24-33.36,2.1-39.4Z"/>
    <path class="cls-4" d="M320.76,330.21h-.09c-3.72-.05-6.7-3.09-6.66-6.81,0-.2-.02-8.34-3.56-15.81-1.6-3.36-.16-7.39,3.2-8.98,3.37-1.6,7.39-.16,8.98,3.2,4.95,10.43,4.87,21.29,4.86,21.74-.05,3.7-3.06,6.66-6.74,6.66Z"/>
    <path class="cls-4" d="M146.25,330.22s-.03,0-.05,0c-3.71-.03-6.71-3.04-6.69-6.76,0-.46.1-11.32,5.23-21.67,1.65-3.34,5.7-4.7,9.04-3.05,3.34,1.65,4.7,5.7,3.05,9.04-3.7,7.47-3.83,15.68-3.83,15.76-.04,3.7-3.05,6.68-6.74,6.68Z"/>
    <path class="cls-5" d="M200.93,219.64c-3.05,0-5.82-2.09-6.56-5.19-.86-3.62,1.38-7.26,5.01-8.12,31.36-7.43,60.96-1.73,62.2-1.48,3.65.72,6.03,4.27,5.31,7.92-.72,3.65-4.27,6.02-7.92,5.31-.35-.07-28.1-5.35-56.48,1.38-.52.12-1.05.18-1.56.18Z"/>
    <path class="cls-5" d="M228,344.94h-11.06c-2.44,0-4.46-1.89-4.62-4.32l-1.12-10.85c-.33-4.96,3.24-9.33,8.16-10l2.53-.35c5.68-.77,10.74,3.64,10.74,9.37v11.52c0,2.56-2.07,4.63-4.63,4.63Z"/>
    <path class="cls-6" d="M326,168.31h0c-8.74-1.32-14.81-9.4-13.64-18.15l6.67-53.94c1.19-8.98,9.52-15.23,18.47-13.88l4.98.75c9.12,1.37,15.25,10.07,13.48,19.12l-11.66,53.19c-1.66,8.51-9.74,14.21-18.31,12.91Z"/>
    <circle class="cls-6" cx="322.3" cy="200.14" r="18.07"/>
    <path class="cls-6" d="M371.27,160.28h0c-6.96-1.05-11.79-7.48-10.87-14.46l5.32-42.96c.95-7.15,7.58-12.13,14.71-11.05l3.97.6c7.26,1.09,12.15,8.02,10.74,15.23l-9.28,42.36c-1.32,6.78-7.75,11.31-14.58,10.29Z"/>
    <circle class="cls-6" cx="368.32" cy="185.63" r="14.39"/>
  </g>
</svg>