<?xml version="1.0" encoding="UTF-8"?>
<svg xmlns="http://www.w3.org/2000/svg" viewBox="0 0 500 500">
  <defs>
    <style>
      .cls-1 {
        fill: #d4b671;
        opacity: .75;
      }

      .cls-1, .cls-2, .cls-3, .cls-4, .cls-5 {
        fill-rule: evenodd;
      }

      .cls-1, .cls-2, .cls-3, .cls-4, .cls-5, .cls-6, .cls-7 {
        stroke-width: 0px;
      }

      .cls-2, .cls-6 {
        fill: #272c32;
      }

      .cls-3 {
        fill: #869eb4;
      }

      .cls-4, .cls-7 {
        fill: #fff;
      }

      .cls-5 {
        fill: #eacd8c;
      }
    </style>
  </defs>
  <g id="stiker_style" data-name="stiker style">
    <path class="cls-7" d="M391.68,219.27c-1.19-4.29-4.09-7.84-7.99-9.73l-21.57-10.42-2.83,8.72c-.12.36-.26.72-.43,1.08-1.58,3.27-4.67,4.58-6.45,3.73-1.79-.86-2.67-4.1-1.08-7.4.17-.36.35-.68.53-.95l5.14-7.65-20.12-9.72c-3.9-1.9-8.5-1.98-12.61-.24-1.29.54-2.5,1.25-3.61,2.09-1.93-6.28-4.34-11.16-7.21-14.59l-.12-.14c-17.4-19.83-58.27-21.12-70.41-21.06-13.96.09-27.34,1.74-38.71,4.79-13.15,3.52-22.66,8.64-28.27,15.19-13.21,15.43-11.45,65.2-5.73,99.8-9.1,3.28-15.39,8.07-16.22,8.72-6.39,4.98-7.55,14.24-2.59,20.64,2.81,3.63,7.06,5.72,11.66,5.72,3.23,0,6.43-1.09,8.94-3.02.03-.02,2.03-1.51,5.01-2.96,2.84,8.63,6,14.8,9.58,18.74,1.44,1.59,3.05,3.09,4.8,4.48-.3,2.32-.47,4.64-.52,6.95-24.08,3.09-39.66,7.84-39.66,18.86,0,9.29,9.83,14.39,35.04,18.2,18.6,2.81,43.23,4.36,69.34,4.36s50.73-1.55,69.34-4.36c25.22-3.81,35.05-8.92,35.05-18.2,0-10.07-12.94-13.58-19.93-15.28.3-.5.58-1.01.83-1.54l13.43-27.79c4.19-.55,5.87-4.03,7.01-6.4.58-1.19,1.33-2.77,2.08-4.36,1.49-3.14,2.97-6.29,2.97-6.29l5.23-11.12-3.64-.08c9.02-18.67,17.74-36.71,22.55-46.66,1.84-3.85,2.25-8.15,1.15-12.12Z"/>
  </g>
  <g id="Bubus">
    <path class="cls-3" d="M255.61,336.37c-53.21,0-96.39,6.52-96.39,14.55,0,8.03,43.18,14.56,96.39,14.56,53.19,0,96.39-6.53,96.39-14.56s-43.19-14.55-96.39-14.55Z"/>
    <path class="cls-6" d="M208.02,350.92c-3.79,0-7.19-2.64-8-6.49-4.09-19.33,3.97-34.7,4.31-35.35,2.13-3.99,7.09-5.49,11.08-3.36,3.97,2.13,5.48,7.06,3.38,11.04-.15.3-5.54,11.09-2.75,24.27.94,4.42-1.89,8.77-6.32,9.71-.57.12-1.14.18-1.7.18Z"/>
    <path class="cls-6" d="M290.63,347.66c-.73,0-1.46-.1-2.2-.3-4.36-1.21-6.91-5.73-5.69-10.08.26-.94,1.06-4.75.39-14.26-.26-3.66-.62-6.41-.62-6.44-.59-4.48,2.57-8.6,7.05-9.19,4.48-.59,8.59,2.56,9.19,7.04.02.13.43,3.25.72,7.43.61,8.67.29,15.33-.95,19.8-1.01,3.62-4.3,6-7.88,6Z"/>
    <path class="cls-5" d="M366.9,210.31l13.31,6.43c1.83.89,3.18,2.56,3.76,4.66.58,2.1.34,4.45-.66,6.54-10.4,21.51-39.22,81.16-49.62,102.67-1,2.09-2.7,3.74-4.7,4.58-2.01.85-4.16.83-5.99-.05l-13.73-6.63c.41-.62.78-1.27,1.12-1.96,3.4-7.04,1.24-15.12-4.82-18.05-6.06-2.93-13.73.41-17.13,7.44-.34.69-.62,1.39-.84,2.09l-11.43-5.52c-1.83-.88-3.18-2.56-3.77-4.66-.58-2.1-.34-4.45.67-6.53,10.39-21.51,39.22-81.17,49.61-102.68,1.01-2.08,2.7-3.73,4.71-4.58,2-.85,4.16-.83,5.99.06l11.84,5.72c-.41.61-.78,1.27-1.11,1.96-3.4,7.03-1.24,15.12,4.81,18.05,6.06,2.92,13.74-.41,17.14-7.45.33-.69.61-1.38.84-2.09Z"/>
    <path class="cls-1" d="M370.04,255.39c-.27.57-.55,1.15-.84,1.74l-60.07-30.45c.28-.58.56-1.16.84-1.73l60.07,30.44Z"/>
    <path class="cls-2" d="M307.32,179.33c-22.05-25.14-106.29-23.37-125.3-1.15-15.83,18.49-6.31,118.53,10.5,137.06,23.08,25.44,89.23,12.61,102.26,7.93,25.36-7.62,31.13-121.63,12.54-143.84Z"/>
    <path class="cls-6" d="M163.06,299.86c-2.02,0-4.01-.9-5.34-2.61-2.27-2.94-1.75-7.16,1.18-9.44.36-.28,8.97-6.92,20.26-9.29,3.64-.76,7.22,1.57,7.99,5.21.77,3.64-1.57,7.22-5.21,7.99-8.15,1.71-14.69,6.69-14.76,6.74-1.23.94-2.68,1.4-4.12,1.4Z"/>
    <path class="cls-4" d="M210.95,250.58c6.19,0,11.21,5.02,11.21,11.21s-5.02,11.21-11.21,11.21-11.22-5.02-11.22-11.21,5.03-11.21,11.22-11.21Z"/>
    <circle class="cls-7" cx="301.49" cy="260.71" r="10.2" transform="translate(-4.15 516.55) rotate(-80.78)"/>
    <path class="cls-4" d="M303.96,201.6c-16.8-9.82-82.65-12.96-100.95-.82-10.07,6.68-11.62,43.28.35,41.73,27.88-3.59,86.12-3.35,102.7-1.51,8.29.92,8.25-33.37-2.1-39.4Z"/>
    <path class="cls-7" d="M285.28,187.23c-.53,0-1.07-.06-1.61-.19-28.38-6.93-56.2-1.84-56.48-1.79-3.66.69-7.18-1.72-7.88-5.37-.69-3.66,1.71-7.18,5.36-7.88,1.25-.24,30.88-5.72,62.19,1.93,3.62.88,5.83,4.53,4.95,8.15-.75,3.08-3.51,5.14-6.55,5.14Z"/>
    <path class="cls-4" d="M260.63,286.82c-30.73.43-36.31-10.42-41.88-5.33-4.49,4.11-2.9,22.06,16.15,33.4,12.84,7.65,33.89,6.53,45.39-.59,9.99-6.18,21.21-21.27,16.17-36.24-2.01-6-14.22,8.46-35.83,8.76Z"/>
    <path class="cls-2" d="M352.37,291.33s-2.53.1-6.56-2.2"/>
    <path class="cls-6" d="M353.15,298.38c-1.32,0-5.67-1.1-10.44-3.82-3-1.71-4.04-5.53-2.33-8.53,1.71-3,5.53-4.04,8.53-2.33,2.22,1.26,4.72,2.15,4.74,2.15-.61-.14,5.51,0,5.51,0,0,0-5.88,12.52-6,12.52ZM352.47,285.09h.01-.01Z"/>
  </g>
</svg>