<?xml version="1.0" encoding="UTF-8"?>
<svg xmlns="http://www.w3.org/2000/svg" viewBox="0 0 500 500">
  <defs>
    <style>
      .cls-1, .cls-2, .cls-3 {
        fill-rule: evenodd;
      }

      .cls-1, .cls-2, .cls-3, .cls-4, .cls-5 {
        stroke-width: 0px;
      }

      .cls-1, .cls-4 {
        fill: #272c32;
      }

      .cls-2 {
        fill: #869eb4;
      }

      .cls-3, .cls-5 {
        fill: #fff;
      }
    </style>
  </defs>
  <g id="stiker_style" data-name="stiker style">
    <path class="cls-5" d="M355.54,220.27c-1.86-3.47-4.96-6.01-8.73-7.15-3.77-1.14-7.75-.75-11.23,1.11-6.68,3.57-13.79,6.9-18.02,8.81.01-.12.02-.24.03-.35,1.48-17.52,3.57-59.84-8.89-74.39-12.41-14.5-42.72-19.83-66.96-19.98-14.38-.1-28.25,1.51-40.01,4.62-13.84,3.66-24.07,9.19-30.43,16.43l-.12.14c-5.37,6.42-9.13,17.93-11.16,34.18-1.36,10.89-1.87,23.58-1.5,36.57-2.45.64-4.77,1.94-6.64,3.9-9.89,10.37-10.05,19.54-8.44,25.4,3.38,12.3,15.86,16.38,18.33,17.07.72.2,1.45.34,2.18.43,3.28,14.65,7.73,25.33,13.28,31.9-.48,3.99-.72,7.54-.72,10.71-6.36.72-11.65,1.55-15.79,2.47-4.78,1.06-14.72,3.28-14.72,11.8,0,9.27,10.75,12.13,31.91,14.42,16.25,1.76,37.78,2.73,60.62,2.73s44.38-.97,60.63-2.73c21.16-2.29,31.91-5.15,31.91-14.42s-9.72-12-30.06-14.24c-1.06-3.32-3.2-6.29-6.22-8.38-.12-.09-.61-.46-1.33-1.1,1.66-1.34,3.18-2.77,4.56-4.29,7.17-7.9,12.38-25.29,15.76-44.13,1.8.77,3.77,1.2,5.82,1.2s3.98-.41,5.84-1.21c.51-.22,12.59-5.44,24.03-11.57,3.47-1.86,6.01-4.96,7.15-8.73,1.14-3.77.74-7.76-1.12-11.23Z"/>
  </g>
  <g id="Bubus">
    <path class="cls-2" d="M238.57,314.79c46.66,0,84.54,4.1,84.54,9.16s-37.88,9.15-84.54,9.15-84.53-4.1-84.53-9.15,37.88-9.16,84.53-9.16Z"/>
    <g>
      <path class="cls-4" d="M193.12,322.98c.53,0,1.06-.05,1.6-.16,4.44-.88,7.32-5.19,6.44-9.62-.19-.95-.7-4.8.69-14.25.54-3.66,1.1-6.34,1.1-6.37.93-4.43-1.91-8.77-6.33-9.69-4.43-.93-8.77,1.91-9.69,6.33-.03.13-.67,3.2-1.28,7.35-1.26,8.61-1.45,15.27-.55,19.81.77,3.9,4.19,6.6,8.02,6.6Z"/>
      <path class="cls-4" d="M285.61,322.83c2.64,0,5.23-1.27,6.81-3.62,2.51-3.74,1.53-8.81-2.19-11.34-.25-.18-10.1-7.18-13.84-20.15-1.25-4.35-5.79-6.85-10.14-5.6-4.34,1.25-6.85,5.79-5.6,10.14,5.47,18.98,19.79,28.77,20.4,29.18,1.4.94,2.99,1.39,4.56,1.39Z"/>
      <path class="cls-1" d="M177.33,154.65c22.06-25.14,106.29-23.37,125.3-1.15,15.84,18.49,6.32,118.53-10.5,137.06-23.08,25.44-89.22,12.61-102.26,7.93-25.35-7.62-31.12-121.63-12.54-143.84Z"/>
      <path class="cls-3" d="M271.53,211.91c-6.19,0-11.21,5.02-11.21,11.21s5.02,11.22,11.21,11.22,11.22-5.03,11.22-11.22-5.03-11.21-11.22-11.21Z"/>
      <path class="cls-5" d="M222.94,271.86c14.63,0,28.2-5.6,35.91-10.55,3.21-2.06,4.14-6.34,2.08-9.55-2.06-3.21-6.33-4.14-9.53-2.08-.17.1-8.2,5.14-18.86,7.38-13.42,2.82-24.76.06-33.71-8.21-2.8-2.59-7.17-2.42-9.76.39-2.59,2.8-2.42,7.17.39,9.76,10.31,9.53,22.22,12.86,33.5,12.86Z"/>
      <circle class="cls-5" cx="181.91" cy="221.3" r="10.2"/>
      <path class="cls-3" d="M181.73,167.71c16.54-8.88,81.35-11.73,99.36-.74,9.91,6.05,11.43,39.18-.34,37.79-27.44-3.26-84.77-3.04-101.09-1.37-8.15.83-8.12-30.21,2.07-35.68Z"/>
      <path class="cls-5" d="M198.64,157.29c.39,0,.78-.04,1.18-.14,28.91-6.85,57.32-2.61,57.61-2.57,2.78.43,5.39-1.48,5.82-4.26.43-2.78-1.48-5.38-4.26-5.82-1.23-.19-30.6-4.6-61.52,2.73-2.74.65-4.43,3.4-3.79,6.14.56,2.34,2.65,3.92,4.96,3.92Z"/>
      <path class="cls-4" d="M319.63,245.01c.89,0,1.8-.18,2.67-.55.5-.21,12.32-5.33,23.43-11.28,3.28-1.76,4.52-5.84,2.76-9.13-1.76-3.28-5.84-4.52-9.13-2.76-10.59,5.67-22.29,10.74-22.41,10.79-3.42,1.48-4.99,5.45-3.52,8.86,1.1,2.55,3.58,4.07,6.19,4.07Z"/>
      <path class="cls-4" d="M165.6,259.17c2.66,0,5.1-1.76,5.86-4.44.9-3.22-.97-6.57-4.18-7.49-1.58-.47-4.06-1.87-4.36-3-.18-.69.36-2.76,3.58-6.13,2.32-2.43,2.23-6.28-.2-8.6-2.43-2.32-6.28-2.23-8.6.2-5.87,6.15-8.06,12.13-6.51,17.76,2.28,8.32,11.71,11.18,12.77,11.48.55.15,1.1.23,1.64.23Z"/>
    </g>
  </g>
</svg>