<?xml version="1.0" encoding="UTF-8"?>
<svg xmlns="http://www.w3.org/2000/svg" viewBox="0 0 500 500">
  <defs>
    <style>
      .cls-1, .cls-2, .cls-3 {
        fill-rule: evenodd;
      }

      .cls-1, .cls-2, .cls-3, .cls-4, .cls-5, .cls-6, .cls-7 {
        stroke-width: 0px;
      }

      .cls-1, .cls-5 {
        fill: #272c32;
      }

      .cls-2 {
        fill: #869eb4;
      }

      .cls-3, .cls-6 {
        fill: #fff;
      }

      .cls-4 {
        fill: #282c33;
      }

      .cls-7 {
        fill: #e65b0a;
      }
    </style>
  </defs>
  <g id="stiker_style" data-name="stiker style">
    <path class="cls-6" d="M426.9,247.91c-2.14-3.37-5.47-5.71-9.37-6.58-1.59-.36-3.2-.44-4.77-.28,3.1-22.1,4.78-42.69-7.43-58.02-11.18-14.04-32.28-21.6-68.41-24.53-39.2-3.17-59.12,5.43-69.89,18.47v-38.44c0-6.81-5.54-12.34-12.34-12.34s-12.34,5.54-12.34,12.34v79.22c-1.29.44-2.52,1.07-3.64,1.89-2.11-12.32-5.49-21.23-10.08-26.56l-.12-.14c-17.03-18.9-56.93-20.2-68.75-20.12-23.23.12-52.3,5.06-64.23,18.58-11.9,13.49-10.17,51.96-8.72,69.13-6.46.02-12.4,4.31-14.19,10.85-3.34,12.22-1.18,23.62-.92,24.88,1.39,6.83,7.46,11.78,14.43,11.78.97,0,1.95-.1,2.91-.29,1.96-.39,3.75-1.16,5.31-2.22,3.04,10.98,6.91,20.23,11.67,25.34,1.71,1.84,3.65,3.54,5.8,5.1-.95,2.41-2.09,3.89-2.18,4-1.81,2.12-3,4.64-3.54,7.28-1.66.22-3.11.44-4.35.68-2.59.49-10.48,1.99-10.55,9.39-.02,3.25,1.57,7.51,9.32,9.31,2.36.55,5.59,1.06,9.9,1.57,7.96.93,19.28,1.79,33.65,2.57,29.36,1.58,68.32,2.63,109.72,2.94,8.78.07,17.44.1,25.93.1,31.57,0,60.69-.46,83.82-1.35,14.38-.55,25.71-1.24,33.68-2.05,4.31-.44,7.56-.9,9.92-1.41,7.77-1.69,9.43-5.92,9.46-9.17.06-8.26-9.06-9.52-15.72-10.43-4.06-.56-9.36-1.1-15.83-1.62.44-3.69.79-8.61.71-14.64,5.04-5.53,7.76-11.71,9.94-17.2,2.2-5.57,4.81-13.74,7.45-24.07,1.16.28,2.34.44,3.55.44,5.18,0,9.91-2.61,12.67-6.99.96-1.52,5.91-9.92,9.53-26.12.87-3.9.17-7.91-1.97-11.28ZM238,293.2c1.51,1.05,2.98,1.91,4.35,2.6v47.58c-4.76-.02-9.5-.03-14.19-.03-.55,0-1.09,0-1.64,0-.53-3.77-1.52-7.25-2.65-10.28,7.6-9.62,11.81-25.93,14.12-39.86Z"/>
  </g>
  <g id="Bubus">
    <g>
      <path class="cls-5" d="M253.02,290.86c-.26,0-.53-.02-.8-.06-.47-.07-11.63-1.79-18.03-13.68-1.46-2.72-.44-6.11,2.28-7.57,2.72-1.46,6.11-.44,7.57,2.28,3.64,6.77,9.58,7.87,9.83,7.91,3.06.44,5.14,3.26,4.71,6.32-.4,2.79-2.82,4.8-5.56,4.8Z"/>
      <path class="cls-1" d="M222.56,198.29c-21.34-23.69-102.71-22.37-121.04-1.6-15.26,17.3-5.92,111.26,10.35,128.73,22.33,23.98,86.21,12.2,98.8,7.86,24.48-7.05,29.88-114.06,11.89-134.99Z"/>
      <path class="cls-2" d="M253.94,351.44c85.38.66,154.67,4.39,154.64,8.33-.03,3.94-69.37,6.6-154.75,5.94-85.38-.65-154.67-4.39-154.64-8.33.04-3.94,69.38-6.6,154.75-5.94Z"/>
      <path class="cls-3" d="M219.35,219.18c-16.25-9.28-79.86-12.51-97.52-1.18-9.72,6.23-11.16,40.58.4,39.18,26.92-3.26,83.19-2.79,99.21-1,8,.9,7.91-31.29-2.09-37Z"/>
      <path class="cls-6" d="M187.55,204.55c-.39,0-.78-.03-1.18-.1-22.16-3.92-40.71-.81-40.89-.78-3.66.63-7.16-1.82-7.79-5.49s1.81-7.15,5.48-7.8c.84-.15,20.96-3.57,45.56.78,3.67.65,6.11,4.15,5.47,7.81-.58,3.27-3.42,5.57-6.63,5.57Z"/>
      <path class="cls-5" d="M210.65,359.46c-.28,0-.56-.01-.85-.04-4.5-.46-7.77-4.48-7.31-8.98.68-6.66-3.92-14.44-5.75-16.87-2.71-3.6-2.01-8.73,1.58-11.46,3.59-2.73,8.7-2.05,11.44,1.52,1.08,1.41,10.5,14.17,9.03,28.48-.43,4.21-3.99,7.35-8.14,7.35Z"/>
      <path class="cls-3" d="M128.79,263.07c-6.02.87-10.23,5.88-9.39,11.19.84,5.31,6.41,8.91,12.43,8.05,6.02-.87,10.22-5.88,9.39-11.19-.84-5.31-6.41-8.91-12.43-8.05Z"/>
      <path class="cls-3" d="M216.29,261.93c-5.13-.07-9.35,4.09-9.42,9.28-.08,5.2,4.03,9.47,9.16,9.54,5.14.07,9.36-4.09,9.43-9.28.07-5.2-4.04-9.47-9.17-9.54Z"/>
      <path class="cls-6" d="M175.47,324.32c-1.8,0-3.64-.09-5.52-.29-12.96-1.32-28.59-7.73-32.04-17.02-1.32-3.54.49-7.48,4.03-8.79,3.52-1.31,7.42.46,8.76,3.95,1.29,2.3,11,8.04,23.49,8.45,6.96.22,16.36-1.25,21.59-9.62,2-3.2,6.22-4.18,9.42-2.17,3.2,2,4.18,6.22,2.17,9.42-6.48,10.37-17.93,16.07-31.91,16.07ZM150.72,302.23s0,.01,0,.02c0,0,0-.01,0-.02Z"/>
      <path class="cls-7" d="M254.69,360.03c-2.4,0-4.34-1.94-4.34-4.34v-217.16c0-2.4,1.94-4.34,4.34-4.34s4.34,1.94,4.34,4.34v217.16c0,2.4-1.94,4.34-4.34,4.34Z"/>
      <path class="cls-4" d="M336.28,166.47c76.5,6.2,74.44,33.15,67.61,80.09-4.72,32.43-11.42,55.69-15.66,66.44-6.26,15.79-15.29,31.66-67.25,26.45-51.96-5.21-58.3-22.46-61.47-31.09-3.17-8.62-3.87-60.05.45-84.79,5.21-29.84,5.6-62.82,76.32-57.1Z"/>
      <path class="cls-6" d="M276.6,191.3c-6.19,4.14-8.84,14.23-9.91,24.9-.91,9.05-.21,16.74,11.68,16.4,11.89-.33,73.4,6.36,95.2,11.09,13.03,2.9,16.23-28.84,9.96-40.13-7.42-13.36-47.09-16.6-63.49-17.04-20.68-.55-35.5-.52-43.44,4.78Z"/>
      <path class="cls-6" d="M352.05,183.54c-.3,0-.6-.02-.9-.07-14.92-2.33-30.13-3.12-45.21-2.33-3.2.16-5.91-2.28-6.08-5.47s2.28-5.91,5.47-6.08c15.87-.83,31.88,0,47.6,2.45,3.16.49,5.31,3.45,4.82,6.61-.45,2.85-2.91,4.89-5.71,4.89Z"/>
      <path class="cls-4" d="M283.46,360.92c-3.95,0-7.46-2.82-8.19-6.85l-.03-.15c-2.7-14.92-2.72-15.83-.43-32.49l.02-.15c.63-4.56,4.83-7.75,9.39-7.12,4.56.63,7.75,4.83,7.12,9.39l-.02.14q-1.99,14.52.32,27.26l.03.15c.82,4.53-2.19,8.86-6.71,9.68-.5.09-1,.13-1.5.13Z"/>
      <path class="cls-4" d="M367.89,359.68c-.71,0-1.44-.09-2.16-.29-4.43-1.19-7.06-5.73-5.9-10.16.07-.29,2.73-11.33.1-30.48-.63-4.56,2.56-8.76,7.12-9.39,4.56-.63,8.76,2.56,9.39,7.12,3.16,22.97-.35,36.46-.5,37.02-1,3.72-4.36,6.18-8.04,6.18Z"/>
      <path class="cls-4" d="M249.03,256.47c-2.73,0-5.19-1.87-5.84-4.64-3.04-13.05-2.38-20.62-2.29-21.44.34-3.3,3.29-5.69,6.59-5.35,3.29.34,5.67,3.27,5.35,6.56-.02.19-.52,6.53,2.04,17.51.75,3.23-1.26,6.45-4.48,7.21-.46.11-.92.16-1.37.16Z"/>
      <path class="cls-4" d="M406.67,284.31c-1.27,0-2.55-.35-3.7-1.07-3.24-2.04-4.23-6.32-2.21-9.57.12-.21,3.86-6.51,6.71-19.25.84-3.75,4.56-6.12,8.31-5.28,3.75.84,6.12,4.56,5.28,8.31-3.4,15.23-7.98,22.79-8.49,23.6-1.32,2.1-3.59,3.25-5.9,3.25Z"/>
      <path class="cls-3" d="M262.39,254.37c.6-5.56,5.61-9.58,11.17-8.98,5.56.61,9.58,5.61,8.98,11.17-.61,5.56-5.61,9.58-11.17,8.98-5.56-.61-9.59-5.61-8.98-11.17Z"/>
      <path class="cls-3" d="M355.62,267.43c.69-6.35,6.41-10.95,12.77-10.26,6.35.69,10.95,6.41,10.26,12.77-.69,6.35-6.42,10.95-12.77,10.26-6.35-.69-10.95-6.41-10.26-12.77Z"/>
      <path class="cls-6" d="M317.16,318.18c-1.31,0-2.62-.06-3.93-.17-22.75-1.94-37.84-20.23-38.48-21.01-2.18-2.68-1.77-6.62.91-8.79,2.68-2.17,6.61-1.77,8.78.9.21.26,12.58,15.02,29.94,16.45,10.25.85,20.47-3.13,30.42-11.83,2.6-2.27,6.55-2.01,8.82.59,2.27,2.6,2.01,6.55-.59,8.82-11.42,9.99-23.47,15.03-35.87,15.03Z"/>
      <path class="cls-5" d="M86.12,300.04c-3.14,0-5.94-2.19-6.59-5.38-.09-.43-2.1-10.56.8-21.18.98-3.59,4.69-5.71,8.28-4.73,3.59.98,5.71,4.69,4.73,8.28-2.03,7.43-.61,14.87-.59,14.95.72,3.65-1.65,7.2-5.29,7.92-.45.09-.9.13-1.34.13Z"/>
      <path class="cls-5" d="M121.92,358.69c-1.92,0-3.86-.67-5.41-2.05-3.38-2.98-3.72-8.11-.77-11.51.4-.48,7.63-9.3,4.68-21.98-1.02-4.41,1.72-8.81,6.12-9.83,4.41-1.02,8.81,1.72,9.83,6.12,4.92,21.16-7.76,35.85-8.3,36.47-1.62,1.84-3.88,2.77-6.15,2.77Z"/>
    </g>
  </g>
</svg>