<?xml version="1.0" encoding="UTF-8"?>
<svg xmlns="http://www.w3.org/2000/svg" xmlns:xlink="http://www.w3.org/1999/xlink" viewBox="0 0 500 500">
  <defs>
    <style>
      .cls-1 {
        clip-path: url(#clippath);
      }

      .cls-2 {
        clip-rule: evenodd;
        fill: none;
      }

      .cls-2, .cls-3, .cls-4, .cls-5, .cls-6, .cls-7, .cls-8, .cls-9, .cls-10, .cls-11 {
        stroke-width: 0px;
      }

      .cls-3, .cls-4, .cls-5, .cls-6, .cls-7 {
        fill-rule: evenodd;
      }

      .cls-3, .cls-8 {
        fill: #272c32;
      }

      .cls-4 {
        fill: #869eb4;
      }

      .cls-5 {
        fill: #c1431f;
      }

      .cls-6 {
        fill: #e65b08;
      }

      .cls-7, .cls-10 {
        fill: #fff;
      }

      .cls-9 {
        fill: #d74900;
      }

      .cls-11 {
        fill: #fffaff;
      }
    </style>
    <clipPath id="clippath">
      <path class="cls-2" d="M310.51,259.33s58.53-7.34,70.58-7.11c8.98.17,8.71,9.75,1.58,11.92-11.86,3.61-71.18,14.42-71.18,14.42l-.98-19.23Z"/>
    </clipPath>
  </defs>
  <g id="stiker_style" data-name="stiker style">
    <path class="cls-10" d="M410.09,247.83h0c-1.55-1.75-3.69-2.79-6.02-2.94-2.29-.14-4.52.61-6.25,2.12-.37.27-1.12.66-2.2.3-2.36-.77-4.46-1.01-6.28-.93-2.3-1.35-5.06-2.1-8.1-2.16-4.9-.1-16.29.84-34.78,2.85-1.96-1.12-4.24-1.74-6.61-1.74-3.11,0-6,1.04-8.24,2.83-1.93-1.35-4.34-2.03-6.86-1.76-1.41.15-2.73.59-3.89,1.25-.25-8.34-.89-16.98-1.91-25.48,2.14,1.12,4.57,1.76,7.15,1.76,5.12,0,9.75-2.5,12.6-6.47h.02s0-.02,0-.02c.66-.92,1.22-1.92,1.67-2.99,1.36.45,2.81.69,4.32.69,4.48,0,8.66-2.15,11.26-5.78.53-.68.96-1.41,1.29-2.15.07-.16,6.61-15.48,7.56-31.49,1.58-1.97,3.05-5.24,2.2-10.32-.69-4.15-3.77-12.48-10.46-14.31-3.61-.99-7.39.21-9.84,3.12-1.98,2.35-9.7,10.22-25.69,12.82-4.94.81-8.14,5.32-7.45,10.49.46,3.41,2.44,6.33,3.27,7.43,1.23,1.63,2.5,2.75,3.73,3.53.34,1.25.73,2.94,1.04,5.09-2.63.8-4.96,2.28-6.79,4.23-3.74-16.49-9.14-30.23-16.12-36.77l-.14-.12c-19.64-17.6-60.38-13.99-72.39-12.47-24.06,3.05-53.54,11.98-64.13,27.87-4.15,6.24-9.79,23.65-.85,70.16.22,1.17.46,2.36.71,3.57-2.07.06-4.13.55-6.04,1.49-11.81,5.79-19.33,15.24-20.15,16.3-4.95,6.4-3.78,15.67,2.61,20.64,2.57,2,5.79,3.11,9.05,3.11,4.57,0,8.8-2.06,11.59-5.61.04-.05,4.19-5.17,9.89-7.96.02-.01.04-.03.07-.04,3.96,13.21,8.82,25.92,14.24,34.73-2.59,3.96-5.26,6.24-5.45,6.4-2.76,2.16-4.67,5.06-5.59,8.25-9.1,1.84-16.64,4.91-16.64,12.42,0,9.16,10.42,12.14,29.65,14.42,14.87,1.77,34.56,2.74,55.44,2.74s40.58-.97,55.44-2.74c19.23-2.28,29.65-5.26,29.65-14.42,0-7.38-7.09-10.49-16.37-12.38.34-4.11.31-8.95-.09-14.73-.01-.16-.02-.32-.03-.47,3.8-4.78,6.66-11.71,8.65-20.98,2.03,1.23,4.39,1.91,6.82,1.91,2.74,0,5.37-.84,7.6-2.43,3.77-2.68,7.31-5.99,10.54-9.86,22.74-4.38,36.95-7.42,42.26-9.04,3.97-1.21,7.11-3.77,8.99-6.97,8.33,1.09,14.14-3.57,15.35-4.64,3.61-3.2,3.95-8.74.75-12.35ZM342.85,185.85c-.08.55-.18,1.13-.29,1.74-.55.09-1.09.2-1.62.35-.06-.47-.12-.94-.19-1.42.7-.22,1.4-.44,2.1-.67Z"/>
  </g>
  <g id="Bubus">
    <g>
      <path class="cls-4" d="M240.54,330.61c42.55,0,77.09,4.1,77.09,9.15s-34.54,9.16-77.09,9.16-77.09-4.1-77.09-9.16,34.54-9.15,77.09-9.15Z"/>
      <path class="cls-8" d="M292.36,339.01c-.73,0-1.47-.1-2.2-.3-4.36-1.21-6.91-5.73-5.69-10.08.33-1.19,1.03-4.96.39-14.27-.26-3.64-.62-6.4-.62-6.42-.59-4.48,2.57-8.6,7.05-9.19,4.48-.6,8.59,2.56,9.19,7.04.02.13.43,3.25.72,7.43.61,8.84.3,15.31-.95,19.8-1.01,3.62-4.3,6-7.88,6Z"/>
      <path class="cls-3" d="M293.22,166.86c-24.91-22.32-108.32-10.45-124.53,13.88-13.5,20.27,7.95,118.44,26.87,134.82,25.96,22.48,90.09,1.81,102.47-4.4,24.26-10.61,16.31-124.48-4.81-144.3Z"/>
      <path class="cls-7" d="M207.84,251.95c6.14-.74,11.73,3.65,12.48,9.79.74,6.15-5.72-4.58-11.87-3.84-6.14.75-9.66,12.68-10.4,6.53-.74-6.14,3.64-11.73,9.79-12.48Z"/>
      <path class="cls-7" d="M289.34,239.08c6.15-.74,11.74,3.64,12.48,9.79.74,6.14-5.72-4.58-11.86-3.84-6.15.74-9.66,12.67-10.41,6.53-.74-6.15,3.65-11.74,9.79-12.48Z"/>
      <path class="cls-7" d="M259.39,268.12c6.69,0,12.11,8.95,12.11,19.97s-5.42,19.97-12.11,19.97-12.11-8.95-12.11-19.97,5.43-19.97,12.11-19.97Z"/>
      <path class="cls-7" d="M292.56,189.36c-17.87-7.72-83.62-2.95-100.33,11.3-9.19,7.84-6.34,44.36,5.36,41.4,27.24-6.92,85.1-13.66,101.78-13.83,8.33-.08,4.18-34.11-6.81-38.87Z"/>
      <path class="cls-10" d="M212.38,182.87c-2.84,0-5.49-1.81-6.41-4.66-1.15-3.54.78-7.34,4.32-8.5,1.21-.39,29.9-9.61,61.93-5.99,3.7.42,6.36,3.76,5.94,7.46s-3.76,6.37-7.46,5.94c-29.02-3.27-55.97,5.32-56.24,5.41-.69.22-1.39.33-2.08.33Z"/>
      <path class="cls-8" d="M292.36,339.01c-.73,0-1.47-.1-2.2-.3-4.36-1.21-6.91-5.73-5.69-10.08.33-1.19,1.03-4.96.39-14.27-.26-3.64-.62-6.4-.62-6.42-.59-4.48,2.57-8.6,7.05-9.19,4.48-.6,8.59,2.56,9.19,7.04.02.13.43,3.25.72,7.43.61,8.84.3,15.31-.95,19.8-1.01,3.62-4.3,6-7.88,6Z"/>
      <path class="cls-8" d="M147.36,283.57c-1.45,0-2.9-.46-4.13-1.42-2.93-2.28-3.47-6.5-1.2-9.44.28-.36,6.98-8.93,17.35-14.01,3.34-1.64,7.38-.26,9.02,3.09,1.64,3.34.26,7.38-3.09,9.02-7.48,3.66-12.58,10.1-12.63,10.17-1.33,1.7-3.32,2.59-5.32,2.59Z"/>
      <path class="cls-8" d="M187.67,340.02c-2.47,0-4.91-1.11-6.52-3.22-2.73-3.58-2.05-8.7,1.51-11.45.25-.2,9.65-7.78,12.59-20.94.99-4.41,5.37-7.19,9.78-6.2,4.41.99,7.19,5.36,6.2,9.78-4.31,19.28-18.02,29.92-18.61,30.36-1.48,1.13-3.23,1.68-4.96,1.68Z"/>
      <path class="cls-8" d="M324.61,285.11c-1.6,0-3.18-.75-4.18-2.16-1.64-2.31-1.1-5.51,1.21-7.15,7.11-5.06,11.27-12.54,11.31-12.62,1.36-2.48,4.47-3.39,6.95-2.04,2.48,1.35,3.4,4.45,2.05,6.94-.21.39-5.27,9.6-14.37,16.07-.9.64-1.94.95-2.97.95Z"/>
      <path class="cls-6" d="M310.51,259.33s58.53-7.34,70.58-7.11c8.98.17,8.71,9.75,1.58,11.92-11.86,3.61-71.18,14.42-71.18,14.42l-.98-19.23Z"/>
      <g class="cls-1">
        <path class="cls-9" d="M328.2,280.41c-1.06,0-1.96-.8-2.08-1.87l-2.37-21.89c0-.08-.01-.15-.01-.23,0-1.06.79-1.96,1.87-2.08,1.15-.12,2.18.71,2.31,1.86l2.37,21.89c0,.08.01.15.01.23,0,1.06-.79,1.96-1.87,2.08-.08,0-.15.01-.23.01Z"/>
      </g>
      <path class="cls-5" d="M302.2,252.91c9.23,0,16.72,7.74,16.72,17.28s-7.49,17.27-16.72,17.27-16.73-7.74-16.73-17.27,7.5-17.28,16.73-17.28Z"/>
      <path class="cls-3" d="M339.85,253.33c2.66,0,4.82,1.86,4.82,4.15s-2.16,4.16-4.82,4.16-4.83-1.87-4.83-4.16,2.16-4.15,4.83-4.15Z"/>
      <path class="cls-9" d="M386.01,257.8c-.12,0-.25-.03-.37-.1-.36-.2-.49-.65-.29-1.01.08-.15,2.08-3.64,7.78-1.78,5.54,1.83,9.48-1.47,9.91-1.85.31-.28.79-.25,1.06.06.27.31.25.78-.06,1.06-.5.44-5.04,4.24-11.37,2.15-4.46-1.46-5.94.98-6,1.09-.14.24-.39.38-.65.38Z"/>
      <path class="cls-11" d="M322.34,274.32c-.36,0-.68-.27-.74-.64-.06-.41.22-.79.63-.85l12.22-1.84c.41-.06.79.22.85.63.06.41-.22.79-.63.85l-12.22,1.84s-.08,0-.11,0Z"/>
      <path class="cls-6" d="M326.09,200.91c4.14,0,7.5,3.37,7.5,7.51s-3.36,7.51-7.5,7.51-7.51-3.37-7.51-7.51,3.37-7.51,7.51-7.51Z"/>
      <path class="cls-6" d="M344.69,195.43c3.23,0,5.85,2.62,5.85,5.85s-2.62,5.85-5.85,5.85-5.85-2.62-5.85-5.85,2.62-5.85,5.85-5.85Z"/>
      <path class="cls-6" d="M352.82,159.37c-3.95,4.68-13.67,12.82-30.51,15.56-2.57.42,1.41,7.35,3.61,7.12,5.97-.64,27.41-7.68,32.21-10.94,3.57-2.43-2.29-15.33-5.31-11.74Z"/>
      <path class="cls-6" d="M326.2,181.31c.64.32,3.53,6.72,3.97,18.48s-.13,13.01-.13,13.01c0,0,3.13-.83,3.44-3.04.31-2.21,1.22-17.54-2.47-31.19-1.27-4.71-3.54-2.73-4.61-.41-.63,1.36-.84,2.83-.2,3.15Z"/>
      <path class="cls-6" d="M350.74,174.58c.54.48,1.55,7.44-1.25,18.86-2.8,11.43-3.7,12.48-3.7,12.48,0,0,3.24.06,4.14-1.98.91-2.04,6.89-17.51,6.98-31.65.08-14.13-7.59.99-6.17,2.29Z"/>
      <path class="cls-10" d="M341.43,171.62c-.19,0-.37-.11-.45-.29-.11-.25,0-.54.25-.65.04-.02,4.51-1.99,6.25-3.73.19-.19.51-.19.7,0,.19.19.19.51,0,.7-1.87,1.86-6.36,3.85-6.55,3.93-.06.03-.13.04-.2.04Z"/>
      <path class="cls-10" d="M349.7,166.16c-.16,0-.31-.07-.41-.21-.15-.22-.1-.53.13-.69,0,0,.73-.51,1.64-1.6.18-.21.49-.24.7-.06.21.18.24.49.06.7-1.01,1.21-1.81,1.76-1.84,1.78-.09.06-.18.09-.28.09Z"/>
    </g>
  </g>
</svg>