<?xml version="1.0" encoding="UTF-8"?>
<svg xmlns="http://www.w3.org/2000/svg" viewBox="0 0 500 500">
  <defs>
    <style>
      .cls-1, .cls-2, .cls-3 {
        fill-rule: evenodd;
      }

      .cls-1, .cls-2, .cls-3, .cls-4, .cls-5, .cls-6, .cls-7, .cls-8, .cls-9, .cls-10, .cls-11, .cls-12, .cls-13, .cls-14 {
        stroke-width: 0px;
      }

      .cls-1, .cls-6 {
        fill: #272c32;
      }

      .cls-2 {
        fill: #869eb4;
      }

      .cls-3, .cls-11 {
        fill: #fff;
      }

      .cls-4 {
        fill: #282c33;
      }

      .cls-5 {
        fill: #491b12;
      }

      .cls-7 {
        fill: #ddcfc0;
      }

      .cls-8 {
        fill: #a53220;
      }

      .cls-9 {
        fill: #bc4222;
      }

      .cls-10 {
        fill: #93301c;
      }

      .cls-12 {
        fill: #fff4e6;
      }

      .cls-13 {
        fill: #e8dacf;
      }

      .cls-14 {
        fill: #68261d;
      }
    </style>
  </defs>
  <g id="stiker_style" data-name="stiker style">
    <path class="cls-11" d="M337.81,249.14h0c-.68-6.89-6.82-11.94-13.69-11.29.41-13.4-.21-26.11-1.81-36.79-1.92-12.81-5.17-22.02-9.66-27.39l-.12-.14c-10.51-11.97-33.78-19.08-62.38-19.08-.35,0-.71,0-1.07,0-21.81.13-49.13,4.96-60.39,18.12-11.15,13.02-10.42,51.43-6.73,80.03-3.44-.49-7.01.2-10.13,2.07-.13.08-.25.15-.38.24-2.43.54-4.82,1.26-7.1,2.15-2.25.86-4.47,1.91-6.6,3.1-8.15,3.28-11.23,8.69-12.37,12.7-2.69,9.45,2.71,19.22,7.73,25.77,6.32,8.45,14.95,14.54,24.97,17.63,2.33.72,4.7,1.26,7.09,1.62.05.38.11.75.19,1.12.91,4.33,3.63,7.93,7.27,10.07,0,.1,0,.2,0,.3,0,9.47,11.69,12.03,22.65,13.68,10.6,1.6,24.6,2.48,39.42,2.48s28.82-.88,39.42-2.48c10.96-1.65,22.65-4.21,22.65-13.68,0-4.57-2.88-7.45-6.35-9.31,1.83-5.2,2.21-10.4,1.13-15.55-.14-.66-.3-1.31-.49-1.96,3.66-6.43,6.31-14.69,8.21-23.2,1.21.38,2.46.58,3.72.58,5.22,0,9.95-3.29,11.78-8.17,4.05-10.83,3.16-21.45,3.05-22.62Z"/>
  </g>
  <g id="Bubus">
    <path class="cls-2" d="M254.69,321.22c29.84,0,54.07,3.66,54.07,8.17s-24.23,8.16-54.07,8.16-54.07-3.66-54.07-8.16,24.23-8.17,54.07-8.17Z"/>
    <path class="cls-6" d="M292.72,328.39c-1.46,0-2.93-.44-4.21-1.34-3.29-2.33-4.08-6.89-1.75-10.18,1.48-2.09,3.14-5.1,2.68-7.58-.38-2.06-2.21-3.31-2.23-3.32l.14.08,7.52-12.52c.72.44,7.13,4.49,8.84,12.64,1.29,6.14-.4,12.58-5.03,19.13-1.42,2.01-3.68,3.09-5.97,3.09Z"/>
    <path class="cls-6" d="M200.32,323.18c-3.38,0-6.42-2.36-7.14-5.81-.83-3.95,1.7-7.82,5.65-8.64,3.48-.73,7.22-1.61,8.56-2.59.88-.65,1.77-2.22,3.53-5.44.89-1.62,1.99-3.64,3.39-5.99,2.05-3.47,6.53-4.62,10-2.57,3.47,2.05,4.62,6.53,2.57,10-1.27,2.15-2.27,3.97-3.15,5.58-5.38,9.82-8.05,12.41-21.91,15.31-.5.11-1.01.16-1.5.16Z"/>
    <path class="cls-1" d="M306.51,178.8c-19.67-22.42-94.79-20.84-111.75-1.03-14.12,16.5-5.63,105.71,9.37,122.24,20.58,22.69,79.57,11.24,91.2,7.07,22.61-6.8,27.76-108.47,11.18-128.28Z"/>
    <path class="cls-3" d="M221.81,245.01c5.52,0,10,4.48,10,10s-4.48,10-10,10-10-4.48-10-10,4.48-10,10-10Z"/>
    <path class="cls-11" d="M266.68,294.45c-13.04,0-25.15-4.99-32.02-9.41-2.86-1.84-3.69-5.65-1.85-8.51,1.84-2.86,5.64-3.69,8.5-1.86.12.08,7.3,4.58,16.82,6.58,11.96,2.52,22.08.06,30.06-7.32,2.5-2.31,6.4-2.15,8.71.34,2.31,2.5,2.16,6.4-.34,8.71-9.2,8.5-19.82,11.47-29.87,11.47Z"/>
    <circle class="cls-11" cx="302.91" cy="253.33" r="9.1" transform="translate(-13.24 489.93) rotate(-76.72)"/>
    <path class="cls-3" d="M303.52,198.66c-14.99-8.75-73.71-11.56-90.03-.73-8.98,5.96-10.36,38.6.31,37.22,24.86-3.21,76.81-2.99,91.59-1.35,7.39.82,7.35-29.75-1.87-35.14Z"/>
    <path class="cls-11" d="M286.86,185.66c-.46,0-.93-.05-1.39-.16-25.46-6.03-50.12-1.28-50.37-1.23-3.26.64-6.42-1.47-7.07-4.73-.64-3.26,1.47-6.42,4.73-7.07,1.11-.22,27.5-5.3,55.48,1.32,3.23.77,5.23,4.01,4.47,7.24-.65,2.77-3.12,4.63-5.85,4.63Z"/>
    <g>
      <g>
        <path class="cls-10" d="M201.54,306.15c-.16,1.1-.27,2.23-.34,3.39-6.7,1.43-13.81,1.23-20.76-.92-8.68-2.68-15.85-7.98-20.95-14.81.31-.46.63-.95.93-1.44.42-.68.85-1.4,1.27-2.16,8.3,8.57,21.1,17.11,38.63,16.03.41-.03.82-.05,1.23-.09Z"/>
        <path class="cls-8" d="M203.42,298.15c-.78,2.32-1.41,4.85-1.82,7.58-18.12,1.59-31.27-7.16-39.7-15.9,1.01-1.87,1.98-3.96,2.81-6.29,9.67,6.41,23.37,13.33,38.71,14.61Z"/>
        <path class="cls-9" d="M217.58,301.9c-3.21,1.24-6.42,2.19-9.57,2.86-1.11.23-2.21.44-3.3.6-1.06.16-2.09.28-3.11.37-18.12,1.59-31.27-7.16-39.7-15.9-.76-.79-1.48-1.57-2.16-2.35-.76-.87-1.5-1.75-2.21-2.66-1.91-2.4-3.68-4.94-5.28-7.59l-.17.11h0c0,.14,0,.28.02.42,1.6,2.61,3.35,5.12,5.23,7.48.68.86,1.38,1.7,2.1,2.52.71.81,1.47,1.64,2.26,2.46,8.3,8.57,21.1,17.11,38.63,16.03.41-.03.82-.05,1.23-.09,1.06-.09,2.14-.21,3.23-.38,1.05-.16,2.1-.35,3.15-.57,2.99-.63,6.04-1.51,9.1-2.65.21-.15.42-.3.63-.46v-.21s-.07.01-.07.01ZM222.58,293.82c-.83-3.31-2.03-6.5-3.58-9.49-.97-1.88-2.08-3.69-3.32-5.41-5.12-7.1-12.44-12.62-21.35-15.37-9.21-2.84-18.68-2.28-27.12.98-2.08.8-4.09,1.76-6.02,2.88-2.55,1.46-4.95,3.2-7.17,5.17-.48.42-.88.98-1.2,1.61-.03.06-.07.13-.09.2,1.54,1.36,3.83,3.29,6.74,5.47.05-.14.09-.28.13-.42.84.63,1.73,1.28,2.67,1.94.82.58,1.69,1.17,2.58,1.76-.05.13-.09.27-.14.4,9.67,6.41,23.37,13.33,38.71,14.61.05-.13.09-.27.14-.4,1.04.08,2.08.14,3.13.17,1.13.03,2.26.03,3.38,0-.06.14-.12.28-.16.41.68-.01,1.36-.04,2.04-.08,3.63-.22,7.19-.79,10.66-1.7.02-.08.04-.15.05-.23.17-.82.15-1.67-.06-2.51Z"/>
        <path class="cls-10" d="M217.02,302.55c-2.95,2.1-6.13,3.81-9.47,5.09.1-.82.22-1.63.38-2.44,2.99-.63,6.04-1.51,9.1-2.65Z"/>
        <path class="cls-8" d="M222.59,296.56c-.28,1.14-.9,2.19-1.81,3-1.01.9-2.05,1.74-3.13,2.53v-.21s-.07.01-.07.01c-3.21,1.24-6.42,2.19-9.57,2.86.43-2.18,1.06-4.32,1.89-6.42.68-.01,1.36-.04,2.04-.08,3.63-.22,7.19-.79,10.66-1.7Z"/>
        <path class="cls-9" d="M159.47,279.85c-.53,1.68-1.18,3.34-1.95,4.97-1.91-2.4-3.68-4.94-5.28-7.59l-.17.11h0c-.01-.97.23-2.03.67-2.95,1.54,1.36,3.83,3.29,6.74,5.47Z"/>
        <path class="cls-10" d="M157.32,285.23c-.45.93-.95,1.86-1.48,2.77-1.58-3.02-2.81-6.24-3.64-9.59-.05-.21-.09-.43-.11-.65,1.6,2.61,3.35,5.12,5.23,7.48Z"/>
      </g>
      <path class="cls-14" d="M217.72,302.29c-.24.09-.47.18-.71.27-3.06,1.14-6.1,2.03-9.1,2.65-1.06.22-2.11.41-3.15.57-1.09.16-2.17.29-3.23.38-.41.04-.82.07-1.23.09-17.53,1.08-30.33-7.46-38.63-16.03-.8-.82-1.55-1.65-2.26-2.46-.72-.82-1.42-1.66-2.1-2.52-1.88-2.36-3.64-4.86-5.23-7.48-.07-.1-.13-.21-.2-.31l-.03-.04v-.05s.2-.02.2-.02h0s.17-.11.17-.11c1.61,2.65,3.38,5.2,5.28,7.59.72.91,1.46,1.8,2.21,2.66.68.78,1.4,1.56,2.16,2.35,8.43,8.75,21.58,17.5,39.7,15.9,1.02-.09,2.06-.21,3.11-.37,1.09-.16,2.19-.37,3.3-.6,3.15-.67,6.36-1.63,9.57-2.86h.06s.01.2.01.2l.07.19Z"/>
      <g>
        <path class="cls-5" d="M152.96,274.03c1.51,1.34,3.77,3.25,6.64,5.4-.04.14-.08.28-.13.42-2.91-2.18-5.2-4.11-6.74-5.47-.02-.02-.03-.03-.04-.04l-.07-.06v-.08s.2-.02.2-.02l.14-.15Z"/>
        <path class="cls-14" d="M203.56,297.76c-.05.13-.09.26-.14.4-15.34-1.28-29.04-8.21-38.71-14.61.05-.13.1-.27.14-.4,9.65,6.41,23.36,13.36,38.7,14.62Z"/>
        <path class="cls-5" d="M222.69,296.53s-.07.02-.1.03c-3.46.91-7.03,1.48-10.66,1.7-.68.04-1.36.07-2.04.08.05-.14.11-.27.16-.41,4.27-.12,8.47-.72,12.52-1.79l.05.19.05.2Z"/>
      </g>
      <path class="cls-12" d="M196.26,274.88c-.09,0-.18-.02-.26-.07-6.68-4.7-13.05-3.73-13.12-3.72-.23.03-.44-.12-.47-.34-.04-.22.12-.44.34-.47.27-.04,6.77-1.03,13.72,3.86.19.13.23.39.1.57-.07.11-.19.17-.31.17Z"/>
      <path class="cls-12" d="M197.9,273.8c-.11,0-.23-.03-.32-.12-4.83-4.83-14.81-4.89-14.91-4.89-.23,0-.41-.18-.41-.41,0-.23.19-.4.41-.41.11,0,2.62,0,5.8.64,2.95.58,7.03,1.84,9.69,4.5.16.16.16.42,0,.58-.07.07-.17.11-.27.12Z"/>
      <path class="cls-12" d="M193.83,275.64s-.05,0-.08,0c-.23-.03-.38-.24-.35-.46.03-.19.67-4.71,3.71-4.7.23,0,.41.19.41.41,0,.23-.18.41-.41.41-.04,0-.08,0-.13,0-2.21.14-2.76,3.95-2.77,3.99-.03.2-.19.34-.38.35Z"/>
      <path class="cls-12" d="M190.47,273.99s-.07,0-.11,0c-.22-.05-.36-.27-.32-.49.04-.2,1.07-4.82,3.71-4.98.01,0,.02,0,.04,0,.23-.01.42.17.43.39.01.23-.18.43-.39.43,0,0-.02,0-.02,0-1.67.1-2.7,3.16-2.95,4.33-.04.18-.2.31-.38.32Z"/>
      <path class="cls-12" d="M186.97,272.94s-.09,0-.13-.01c-.22-.06-.35-.29-.29-.51.05-.18,1.24-4.49,3.33-5.48.21-.1.45-.01.55.19.1.21.01.45-.19.55-1.45.69-2.58,3.81-2.89,4.96-.05.17-.2.29-.37.3Z"/>
      <path class="cls-12" d="M184.53,272.36c-.22.01-.42-.15-.44-.38-.06-.75-.28-4.56,1.31-5.34.2-.1.45-.02.55.19.1.2.02.45-.19.55-.8.4-.98,2.89-.85,4.54.02.23-.15.43-.38.44h0Z"/>
      <g>
        <path class="cls-13" d="M209.9,298.34c-.83,2.1-1.46,4.24-1.89,6.42-1.11.23-2.21.44-3.3.6-1.06.16-2.09.28-3.11.37.41-2.73,1.05-5.26,1.82-7.58,1.07.09,2.16.16,3.25.19,1.08.03,2.15.04,3.22,0Z"/>
        <path class="cls-7" d="M207.92,305.2c-.16.81-.28,1.62-.38,2.44-2.06.8-4.19,1.43-6.35,1.9.07-1.16.19-2.29.34-3.39,1.06-.09,2.14-.21,3.23-.38,1.05-.16,2.1-.35,3.15-.57Z"/>
        <path class="cls-5" d="M208.01,304.77c-.03.15-.06.29-.08.44-1.06.22-2.11.41-3.15.57-1.09.16-2.17.29-3.23.38.02-.14.04-.28.06-.42,1.02-.09,2.06-.21,3.11-.37,1.09-.16,2.19-.37,3.3-.6Z"/>
        <path class="cls-5" d="M210.06,297.93c-.06.14-.12.28-.16.41-1.07.03-2.14.03-3.22,0-1.09-.03-2.18-.09-3.25-.19.05-.13.09-.27.14-.4,1.04.08,2.08.14,3.13.17,1.13.03,2.26.03,3.38,0Z"/>
        <path class="cls-12" d="M219.01,284.33c-1.7,1.74-3.85,4.25-5.83,7.47-1.23,2-2.27,4.04-3.12,6.13-1.12.04-2.25.04-3.38,0-1.05-.03-2.09-.09-3.13-.17,1.28-3.71,2.91-6.87,4.51-9.43,2.67-4.27,5.56-7.44,7.62-9.41,1.24,1.71,2.35,3.52,3.32,5.41Z"/>
      </g>
      <g>
        <path class="cls-13" d="M164.71,283.54c-.83,2.33-1.81,4.42-2.81,6.29-.76-.79-1.48-1.57-2.16-2.35-.76-.87-1.5-1.75-2.21-2.66.77-1.63,1.42-3.29,1.95-4.97.81.6,1.66,1.23,2.57,1.86.85.6,1.75,1.21,2.68,1.83Z"/>
        <path class="cls-7" d="M161.68,290.21c-.42.76-.84,1.48-1.27,2.16-.31.49-.62.97-.93,1.44-1.37-1.83-2.59-3.78-3.65-5.81.53-.91,1.03-1.84,1.48-2.77.68.86,1.38,1.7,2.1,2.52.71.81,1.47,1.64,2.26,2.46Z"/>
        <path class="cls-5" d="M161.9,289.83c-.07.13-.14.26-.21.38-.8-.82-1.55-1.65-2.26-2.46-.72-.82-1.42-1.66-2.1-2.52.07-.14.14-.27.2-.41.72.91,1.46,1.8,2.21,2.66.68.78,1.4,1.56,2.16,2.35Z"/>
        <path class="cls-5" d="M164.86,283.14c-.05.13-.09.27-.14.4-.93-.62-1.82-1.23-2.68-1.83-.9-.64-1.76-1.26-2.57-1.86.05-.14.09-.28.13-.42.84.63,1.73,1.28,2.67,1.94.82.58,1.69,1.17,2.58,1.76Z"/>
        <path class="cls-12" d="M164.86,283.14c-.9-.59-1.76-1.18-2.58-1.76-.94-.66-1.83-1.31-2.67-1.94,1.18-3.88,1.71-7.9,1.6-12.03,1.93-1.11,3.94-2.08,6.02-2.88.59,7.18-.54,13.43-2.36,18.61Z"/>
      </g>
    </g>
    <path class="cls-4" d="M175.95,261.54c2.36-1.42,5.42-1.47,7.9.11,3.49,2.23,4.51,6.86,2.28,10.35-7.33,11.48-9.09,18.85-9.11,18.92-.93,4.01-4.93,6.55-8.95,5.65-4.02-.9-6.56-4.84-5.7-8.87.21-.98,2.33-10.01,11.12-23.77.65-1.01,1.49-1.82,2.46-2.39Z"/>
    <path class="cls-6" d="M322.99,271.94c-.53,0-1.07-.09-1.6-.29-2.37-.88-3.57-3.52-2.68-5.88,2.72-7.29,2.05-14.89,2.04-14.97-.23-2.51,1.61-4.74,4.11-4.98,2.51-.24,4.74,1.59,4.99,4.1.04.39.91,9.72-2.58,19.05-.69,1.84-2.43,2.97-4.28,2.97Z"/>
  </g>
</svg>