<?xml version="1.0" encoding="UTF-8"?>
<svg xmlns="http://www.w3.org/2000/svg" viewBox="0 0 500 500">
  <defs>
    <style>
      .cls-1, .cls-2, .cls-3, .cls-4, .cls-5, .cls-6, .cls-7 {
        fill-rule: evenodd;
      }

      .cls-1, .cls-2, .cls-3, .cls-4, .cls-5, .cls-6, .cls-7, .cls-8, .cls-9, .cls-10, .cls-11 {
        stroke-width: 0px;
      }

      .cls-1, .cls-8 {
        fill: #272c32;
      }

      .cls-2 {
        fill: #949494;
      }

      .cls-3 {
        fill: #869eb4;
      }

      .cls-4 {
        fill: #c1431f;
      }

      .cls-5, .cls-11 {
        fill: #e65b08;
      }

      .cls-6, .cls-10 {
        fill: #fff;
      }

      .cls-7, .cls-9 {
        fill: #b6b6b6;
      }
    </style>
  </defs>
  <g id="stiker_style" data-name="stiker style">
    <path class="cls-10" d="M386.34,307.59c1.41-1.85,2.19-4.09,2.19-6.46,0-2.85-1.1-5.53-3.11-7.54-.47-.47-.98-.89-1.52-1.27l.13-1.05c1.25-1.72,2-3.82,2.01-6.1h0c0-1.39-.25-2.74-.75-3.99l5.2-41.56c3.56-2.02,5.98-5.83,6-10.19.03-6.49-5.23-11.8-11.72-11.84l-88.94-.44-.99-6.99c-.91-6.37-6.42-10.92-12.8-10.61l-9.31.42c-.62-.52-1.28-1-1.99-1.42-3.18-1.85-6.9-2.35-10.46-1.4-2.45.65-4.61,1.94-6.33,3.72-1.52-10.64-4.34-21.32-9.49-27.47l-.12-.14c-15.25-17.37-50.72-18.5-61.26-18.45-12.07.07-23.64,1.51-33.48,4.14-11.5,3.08-19.85,7.58-24.82,13.38-4.39,5.13-7.09,14.07-8.25,27.33-.89,10.15-.81,22.34.2,35.34-5.99.24-11.37,4.39-12.86,10.5-2.74,11.25-.59,21.59-.34,22.72,1.38,6.27,7.03,10.82,13.45,10.82.98,0,1.96-.11,2.92-.31,1.3-.28,2.52-.75,3.63-1.35,2.53,9.46,5.92,18.16,10.4,23.1,1.15,1.27,2.42,2.43,3.74,3.52-.32,2.75-.47,5.74-.33,8.9-4.92,1.92-8.86,5.03-8.86,10.44,0,10.14,13.8,12.22,22.04,13.47,10.21,1.54,23.69,2.39,37.96,2.39s27.75-.85,37.96-2.39c8.25-1.25,22.04-3.33,22.04-13.47,0-5.41-3.94-8.52-8.86-10.44.24-3.01.27-6.45.06-10.35,3.55-4.4,6.55-10.7,9.03-18.98,3.58-11.94,5.93-27.65,6.7-44.02.81.21,1.64.36,2.51.43.33.02.65.03.97.03,7.12,0,13.13-5.54,13.74-12.69h0s0-.1.03-.25c.45,1.1,1.06,2.11,1.79,3.02l5.83,50.62c.37,3.26,1.7,6.2,3.68,8.57-1.39,4.34-1.35,8.38.14,12.07.72,1.79,2.16,4.34,4.96,6.49-5.85,1.83-10.95,5.01-10.95,11.17,0,10.14,13.8,12.22,22.04,13.47,10.21,1.54,23.69,2.39,37.96,2.39s27.75-.85,37.96-2.39c8.24-1.25,22.04-3.33,22.04-13.47,0-6.45-5.6-9.64-11.79-11.42Z"/>
  </g>
  <g id="Bubus">
    <path class="cls-1" d="M238.33,178.53c-18.92-21.56-91.16-20.04-107.47-.99-13.59,15.87-5.42,101.67,9.01,117.56,19.8,21.82,76.52,10.82,87.71,6.79,21.75-6.54,26.69-104.31,10.76-123.36Z"/>
    <path class="cls-8" d="M116.99,271.04c-2.66,0-5.04-1.84-5.64-4.54-.08-.38-2.04-9.5.3-19.11.76-3.1,3.88-5.01,6.99-4.25,3.1.76,5.01,3.88,4.25,6.99-1.69,6.94-.26,13.84-.24,13.91.66,3.12-1.32,6.19-4.43,6.87-.41.09-.83.13-1.23.13Z"/>
    <path class="cls-8" d="M258.9,232.01c-.14,0-.28,0-.43-.02-3.18-.23-5.57-2.98-5.35-6.16.03-.39.73-9.69,5.7-18.26,1.6-2.76,5.14-3.7,7.91-2.1,2.76,1.6,3.7,5.14,2.1,7.91-3.59,6.18-4.16,13.2-4.17,13.27-.23,3.04-2.77,5.35-5.76,5.35Z"/>
    <path class="cls-3" d="M188.49,315.49c28.7,0,52,3.52,52,7.85s-23.3,7.86-52,7.86-52-3.52-52-7.86,23.29-7.85,52-7.85Z"/>
    <path class="cls-3" d="M338.13,311.16c28.71,0,52,3.52,52,7.85s-23.29,7.86-52,7.86-52-3.52-52-7.86,23.3-7.85,52-7.85Z"/>
    <path class="cls-6" d="M156.87,242.19c5.31,0,9.62,4.31,9.62,9.62s-4.31,9.61-9.62,9.61-9.61-4.31-9.61-9.61,4.31-9.62,9.61-9.62Z"/>
    <path class="cls-10" d="M200.02,289.75c-12.55,0-24.19-4.8-30.8-9.05-2.75-1.77-3.55-5.44-1.78-8.19,1.77-2.75,5.43-3.55,8.18-1.79.18.11,7.06,4.41,16.17,6.33,11.51,2.42,21.24.06,28.91-7.04,2.4-2.22,6.15-2.07,8.37.33,2.22,2.4,2.07,6.15-.33,8.37-8.85,8.17-19.06,11.03-28.73,11.03Z"/>
    <circle class="cls-10" cx="234.87" cy="250.2" r="8.75"/>
    <path class="cls-6" d="M235.45,197.62c-14.42-8.41-70.9-11.12-86.59-.7-8.64,5.73-9.96,37.12.3,35.8,23.91-3.09,73.87-2.87,88.09-1.3,7.1.79,7.07-28.61-1.8-33.79Z"/>
    <path class="cls-10" d="M219.43,185.11c-.44,0-.89-.05-1.34-.16-24.38-5.77-48.21-1.23-48.45-1.18-3.13.61-6.17-1.43-6.79-4.56-.62-3.13,1.42-6.17,4.55-6.79,1.07-.21,26.45-5.09,53.35,1.27,3.11.74,5.03,3.85,4.3,6.96-.63,2.66-3,4.45-5.62,4.45Z"/>
    <path class="cls-8" d="M224.01,322.89c-.62,0-1.25-.08-1.88-.26-3.74-1.03-5.93-4.9-4.9-8.64.6-2.16.72-6.73.33-12.23-.22-3.15-.52-5.52-.53-5.55-.49-3.85,2.23-7.37,6.07-7.86,3.85-.5,7.36,2.22,7.86,6.07.01.11.36,2.77.61,6.35.53,7.42.26,13.13-.8,16.96-.86,3.11-3.69,5.15-6.76,5.15Z"/>
    <path class="cls-8" d="M153.16,325.69c-3.25,0-6.17-2.27-6.86-5.57-3.5-16.57,3.4-29.76,3.7-30.31,1.83-3.42,6.08-4.71,9.5-2.89,3.41,1.82,4.71,6.05,2.91,9.47-.12.23-4.75,9.51-2.36,20.83.8,3.8-1.63,7.52-5.42,8.32-.49.1-.98.15-1.46.15Z"/>
    <polygon class="cls-5" points="383.62 230.16 382.52 238.92 376.84 284.28 291.6 283.59 285.51 230.76 287.76 230.75 383.62 230.16"/>
    <polygon class="cls-4" points="383.62 230.16 382.52 238.92 287.76 238.92 287.76 230.75 383.62 230.16"/>
    <path class="cls-11" d="M384.71,233.15h-.02l-97.19-.48c-2.09-.01-3.77-1.71-3.76-3.8.01-2.08,1.7-3.76,3.78-3.76h.02l97.19.48c2.09.01,3.77,1.71,3.76,3.8-.01,2.08-1.7,3.76-3.78,3.76Z"/>
    <path class="cls-7" d="M313.29,308.28c2.41,0,4.37,1.96,4.37,4.37s-1.96,4.37-4.37,4.37-4.37-1.96-4.37-4.37,1.96-4.37,4.37-4.37Z"/>
    <path class="cls-5" d="M313.23,308.28h-.16s-.06,0-.06,0h-.05s-.06,0-.06,0h-.05s-.06,0-.06,0h-.05s-.05.02-.05.02h-.06s-.05.02-.05.02h-.05s-.06.02-.06.02h-.05s-.05.03-.05.03h-.05s-.05.03-.05.03h-.05s-.06.03-.06.03h-.05s-.05.03-.05.03l-.05.02-.05.02-.04.02-.05.02-.05.02-.05.02-.05.02-.05.03-.04.02-.05.03-.05.02-.04.03-.05.02-.04.03-.05.03-.04.03-.05.03-.04.03-.05.03-.04.03-.04.03-.04.03-.05.03-.04.03-.04.03-.04.03-.04.03-.04.03-.04.03-.04.03-.03.03-.04.03-.04.03-.04.03-.03.03-.04.03-.03.03-.04.04-.03.03-.04.03-.03.03-.03.04-.04.03-.03.03-.03.04-.03.04-.03.03-.03.04-.03.03-.03.04-.03.04-.03.04-.03.04-.03.04-.03.04-.03.04-.03.04-.03.04-.03.04-.03.04-.03.04-.03.05-.03.04-.03.04-.03.05-.03.04-.03.05-.02.04-.03.05-.03.04-.02.05-.03.04-.02.05-.03.05-.02.05-.02.04-.02.05-.03.05-.02.05-.02.05v.05s-.03.05-.03.05l-.02.05-.02.05v.05s-.03.05-.03.05v.05s-.03.05-.03.05v.06s-.02.05-.02.05v.05s-.02.05-.02.05v.06s-.02.05-.02.05v.05s-.02.06-.02.06v.05s0,.06,0,.06v.05s0,.06,0,.06v.05s0,.06,0,.06v.45s0,.05,0,.05v.06s0,.05,0,.05v.06s.02.05.02.05v.05s.02.06.02.06v.05s.02.05.02.05v.06s.02.05.02.05v.05s.03.05.03.05v.05s.03.05.03.05v.05s.03.05.03.05l.02.06.02.05v.04s.03.05.03.05l.02.05.03.05.02.05.02.05.02.05.03.04.02.05.03.05.02.04.03.05.03.04.02.05.03.04.03.05.03.04.03.05.03.04.03.04.03.04.03.04.03.05.03.04.03.04.03.04.03.04.03.04.03.04.03.03.03.04.03.04.03.04.03.03.03.04.03.03.03.04.03.03.04.04.03.03.03.03.04.04.03.03.04.03.03.03.04.03.03.03.04.03.04.03.04.03.03.03.04.03.04.03.04.03.04.03.04.03.04.03.04.03.05.03.04.03.04.03.04.03.05.03.04.03.05.03.04.03.05.02.04.03.05.03.04.02.05.03.05.02.04.03.05.02.05.02.05.02.05.02.05.03h.04s.05.03.05.03l.05.02.05.02.05.02h.06s.05.03.05.03h.05s.05.03.05.03h.05s.05.02.05.02h.06s.05.02.05.02h.05s.06.02.06.02h.05s.05.02.05.02h.06s.05,0,.05,0h.06s.05,0,.05,0h.06s.05,0,.05,0h.45s.06,0,.06,0h.05s.06,0,.06,0h.05s.06-.02.06-.02h.05s.05-.02.05-.02h.06s.05-.02.05-.02h.05s.05-.02.05-.02h.05s.06-.03.06-.03h.05s.05-.03.05-.03h.05s.05-.03.05-.03l.05-.02.05-.02.05-.02h.05s.05-.03.05-.03l.05-.02.05-.02.04-.02.05-.02.05-.03.05-.02.04-.03.05-.02.04-.03.05-.03.04-.02.05-.03.04-.03.05-.03.04-.03.04-.03.05-.03.04-.03.04-.03.04-.03.04-.03.04-.03.04-.03.04-.03.04-.03.04-.03.04-.03.04-.03.03-.03.04-.03.04-.03.03-.03.04-.03.03-.03.04-.03.03-.04.04-.03.03-.03.03-.04.03-.03.04-.04.03-.03.03-.04.03-.03.03-.04.03-.04.03-.04.03-.03.03-.04.03-.04.03-.04.03-.04.03-.04.03-.04.03-.05.03-.04.03-.04.03-.04.03-.04.03-.05.03-.04.03-.05.03-.04.03-.05.03-.04.02-.05.03-.04.02-.05.03-.05.02-.04.02-.05.03-.05.02-.05.02-.05.02-.05.02-.05.02-.04.02-.05.02-.06v-.05s.03-.05.03-.05v-.05s.03-.05.03-.05v-.05s.02-.05.02-.05l.02-.05v-.06s.02-.05.02-.05v-.05s.02-.06.02-.06v-.05s.02-.05.02-.05v-.11s0-.06,0-.06v-.05s0-.06,0-.06v-.11s0-.05,0-.05v-.22s0-.06,0-.06v-.11s0-.05,0-.05v-.06s0-.05,0-.05v-.06s-.02-.05-.02-.05v-.05s-.02-.06-.02-.06v-.05s-.02-.05-.02-.05l-.02-.05v-.06s-.02-.05-.02-.05l-.02-.05v-.05s-.03-.05-.03-.05v-.05s-.03-.05-.03-.05l-.02-.05-.02-.05-.02-.05-.02-.05-.02-.05-.02-.05-.03-.04-.02-.05-.02-.05-.03-.05-.02-.04-.03-.05-.02-.04-.03-.05-.03-.04-.03-.05-.03-.04-.03-.05-.03-.04-.03-.04-.03-.05-.03-.04-.03-.04-.03-.04-.03-.04-.03-.04-.03-.04-.03-.04-.03-.04-.03-.04-.03-.04-.03-.04-.03-.04-.03-.03-.03-.04-.03-.03-.03-.04-.04-.04-.03-.03-.03-.03-.03-.04-.04-.03-.03-.03-.04-.03-.03-.04-.04-.03-.03-.03-.04-.03-.04-.03-.03-.03-.04-.03-.04-.03-.04-.03-.04-.03-.04-.03-.04-.03-.04-.03-.04-.03-.04-.03-.04-.03-.04-.03-.05-.03-.04-.03-.04-.03-.05-.03-.04-.03-.05-.03-.04-.03-.05-.03-.04-.02-.05-.03-.04-.02-.05-.03-.05-.02-.05-.03-.04-.02-.05-.02-.05-.02-.05-.02-.05-.02-.05-.02-.05-.02-.05-.02h-.05s-.05-.03-.05-.03h-.05s-.05-.03-.05-.03h-.06s-.05-.03-.05-.03h-.05s-.05-.02-.05-.02h-.05s-.06-.02-.06-.02h-.05s-.05-.02-.05-.02h-.06s-.05,0-.05,0h-.06s-.05,0-.05,0h-.06s-.05,0-.05,0h-.06s-.05,0-.05,0h-.17ZM313.4,304.89h.09s.09,0,.09,0h.1s.1,0,.1,0h.09s.09.02.09.02h.1s.09.02.09.02l.1.02h.09s.09.03.09.03l.09.02h.09s.09.03.09.03l.1.02.09.02.09.02.1.03.09.03.09.03.09.03.09.03.09.03.09.03.09.03.09.03.09.03.09.03.09.03.08.03.09.03.09.04.09.04.09.03.09.04.09.04.09.04.08.04.09.04.08.04.08.04.09.05.09.05.08.04.08.05.08.05.09.05.07.05.08.05.08.06.08.05.07.05.08.06.08.06.07.06.07.06.07.06.08.06.07.06.07.07.06.06.07.06.07.08.06.06.07.07.07.07.05.06.07.07.06.07.06.08.06.07.06.08.06.07.05.07.06.08.05.08.05.08.05.07.06.09.05.08.05.08.05.08.04.08.05.09.05.08.04.09.04.08.04.09.04.08.04.09.04.09.04.09.04.09.03.09.03.09.03.09.04.09.03.09.03.09.03.09.03.09.03.09.03.09.03.09.03.09.03.09.03.09.03.09.02.09.03.09.02.09.02.09.02.1.02.09.02.09.02.1v.09s.03.09.03.09v.1s.02.1.02.1v.09s.02.1.02.1v.19s0,.1,0,.1v.1s0,.09,0,.09v.2s0,.1,0,.1v.09s0,.1,0,.1v.1s-.02.09-.02.09v.09s-.02.1-.02.1l-.02.09v.09s-.03.1-.03.1l-.02.1-.02.09-.02.09-.02.09-.02.09-.03.09-.02.09-.03.09-.03.09-.03.09-.03.1-.03.09-.03.09-.03.09-.03.09-.03.09-.03.08-.03.09-.04.09-.03.09-.03.09-.03.09-.04.09-.04.09-.04.09-.04.09-.04.09-.04.08-.04.09-.04.08-.05.09-.05.08-.04.08-.05.08-.05.09-.05.07-.05.09-.06.08-.05.07-.05.08-.06.08-.05.07-.06.08-.06.07-.06.07-.07.08-.05.07-.06.07-.07.07-.06.07-.06.06-.07.07-.07.07-.07.06-.06.07-.07.06-.07.06-.08.07-.07.06-.07.05-.08.06-.07.06-.08.06-.07.05-.08.06-.08.05-.07.05-.09.06-.08.04-.07.05-.09.05-.09.05-.08.04-.08.05-.09.04-.08.05-.09.04-.08.04-.09.04-.09.04-.09.03-.09.04-.09.03-.09.04-.09.03-.09.03-.09.03-.09.03-.09.03-.09.03-.09.03-.09.03-.09.03-.09.03-.09.03-.09.02-.09.03-.1.03-.09.02-.09.03-.1.02-.09.02-.09.02-.09.02h-.09s-.09.03-.09.03h-.1s-.09.02-.09.02h-.1s-.09.02-.09.02h-.1s-.09.02-.09.02h-.2s-.1,0-.1,0h-.39s-.09,0-.09,0h-.1s-.1-.02-.1-.02h-.09s-.09-.02-.09-.02h-.09s-.1-.02-.1-.02l-.09-.02h-.09s-.1-.03-.1-.03l-.09-.02-.09-.02-.09-.02-.09-.03-.09-.02-.1-.03-.09-.03-.09-.02-.09-.03-.09-.03-.09-.03-.09-.03-.09-.03-.09-.03-.09-.03-.09-.03-.09-.03-.08-.03-.09-.03-.09-.04-.09-.03-.09-.04-.09-.03-.08-.04-.09-.04-.09-.04-.08-.04-.09-.05-.08-.04-.09-.05-.08-.04-.08-.05-.09-.05-.08-.05-.07-.04-.09-.06-.07-.05-.08-.05-.08-.06-.08-.06-.08-.05-.06-.05-.08-.07-.08-.06-.07-.05-.07-.07-.07-.06-.07-.06-.07-.07-.07-.06-.06-.06-.07-.08-.06-.06-.06-.07-.07-.07-.07-.07-.05-.07-.07-.08-.06-.07-.05-.07-.06-.08-.06-.07-.05-.08-.06-.07-.05-.08-.05-.09-.05-.07-.05-.08-.06-.09-.04-.07-.05-.09-.05-.09-.04-.08-.04-.08-.05-.09-.04-.08-.04-.09-.04-.09-.04-.09-.03-.08-.04-.09-.04-.09-.03-.09-.03-.09-.03-.09-.03-.09-.03-.09-.03-.09-.03-.09-.03-.09-.03-.09-.03-.09-.03-.1-.03-.09-.03-.09-.02-.09-.03-.09-.02-.09-.03-.09-.02-.09-.02-.09-.02-.09-.02-.1v-.09s-.03-.1-.03-.1v-.09s-.02-.09-.02-.09l-.02-.1v-.2s-.02-.1-.02-.1v-.2s0-.09,0-.09v-.39s0-.1,0-.1v-.1s.02-.09.02-.09v-.1l.02-.1v-.09s.02-.09.02-.09l.02-.1v-.09s.03-.09.03-.09l.02-.09.02-.1.02-.09.03-.09.02-.09.03-.09.02-.09.03-.09.03-.09.03-.09.03-.09.03-.09.03-.09.03-.09.03-.09.03-.09.03-.09.03-.09.03-.09.03-.09.04-.09.04-.09.03-.08.04-.09.04-.09.04-.08.04-.09.05-.08.04-.09.04-.08.05-.09.05-.08.04-.08.05-.08.06-.09.05-.07.05-.08.05-.08.06-.08.05-.07.06-.08.06-.08.05-.07.06-.07.06-.07.06-.07.07-.08.06-.07.07-.06.06-.07.07-.07.06-.06.07-.07.07-.07.07-.06.07-.06.07-.06.07-.06.08-.06.07-.06.07-.05.08-.06.08-.06.07-.05.09-.06.07-.05.08-.05.08-.05.08-.05.09-.05.08-.04.08-.05.09-.05.08-.04.09-.04.08-.04.09-.04.09-.04.08-.04.09-.04.09-.03.09-.04.09-.04.09-.03.08-.03.09-.03.09-.03.09-.03.09-.03.09-.03.09-.03.09-.03.09-.03.09-.03.09-.03.09-.03.1-.03.09-.02.09-.02.09-.02.09-.03h.09s.1-.03.1-.03l.09-.02h.09s.1-.03.1-.03h.09s.09-.02.09-.02h.09s.1-.02.1-.02h.2s.1,0,.1,0h.09s.1,0,.1,0h.1Z"/>
    <path class="cls-7" d="M359.77,308.18c2.41,0,4.37,1.96,4.37,4.37s-1.96,4.37-4.37,4.37-4.37-1.96-4.37-4.37,1.96-4.37,4.37-4.37Z"/>
    <path class="cls-5" d="M359.72,308.18h-.06s-.05,0-.05,0h-.17s-.05,0-.05,0h-.06s-.05.02-.05.02h-.06s-.05,0-.05,0h-.05s-.06.02-.06.02h-.05s-.05.03-.05.03h-.05s-.06.02-.06.02h-.05s-.05.03-.05.03h-.05s-.05.03-.05.03l-.05.02h-.05s-.05.03-.05.03l-.05.02-.05.02-.05.02-.05.02-.05.02-.04.03-.05.02-.05.02-.05.03-.04.02-.05.03-.04.03-.05.02-.04.03-.05.03-.04.03-.05.03-.04.03-.04.03-.05.03-.04.03-.04.03-.04.03-.04.03-.04.03-.04.03-.04.03-.04.03-.04.03-.04.03-.04.03-.04.03-.03.03-.04.03-.03.03-.04.03-.03.03-.04.03-.03.03-.04.04-.03.03-.03.03-.03.04-.04.03-.03.04-.03.03-.03.04-.03.04-.03.03-.03.04-.03.04-.03.04-.03.04-.03.04-.03.04-.03.04-.03.04-.03.04-.03.04-.03.05-.03.04-.03.04-.03.05-.03.04-.03.04-.03.05-.03.04-.03.05-.02.04-.03.05-.02.05-.03.04-.02.05-.03.05-.02.05-.02.05-.02.04-.02.05-.02.05-.02.05-.02.05-.02.05v.05s-.03.05-.03.05v.05s-.03.06-.03.06v.05s-.03.05-.03.05v.05s-.02.05-.02.05v.06s-.02.05-.02.05v.05s-.02.06-.02.06v.05s0,.05,0,.05v.06s0,.05,0,.05v.06s0,.05,0,.05v.11s0,.06,0,.06v.22s0,.06,0,.06v.11s0,.05,0,.05v.06s0,.05,0,.05v.05s.02.06.02.06v.05s.02.05.02.05v.06s.02.05.02.05v.05s.03.05.03.05v.05s.03.06.03.06v.05s.03.05.03.05v.05s.03.05.03.05l.02.05.02.05.02.05.02.05.02.04.02.05.02.05.03.05.02.05.03.04.02.05.03.05.02.04.03.05.03.04.03.05.03.04.03.04.03.05.03.04.03.04.03.05.03.04.03.04.03.04.03.04.03.04.03.04.03.04.03.04.03.04.03.04.03.03.03.04.03.04.03.03.03.04.04.03.03.04.03.03.03.03.04.04.03.03.04.03.03.03.04.03.03.03.04.03.03.03.04.03.04.03.04.03.04.03.04.03.04.03.04.03.04.03.04.03.04.03.04.03.04.03.05.03.04.03.04.03.05.03.04.03.05.03.04.03.05.02.04.03.05.03.04.02.05.03.05.02.05.02.04.02.05.03.05.02.05.02.05.02.05.02.05.02h.05s.05.03.05.03l.05.02h.05s.05.03.05.03h.05s.06.02.06.02h.05s.05.03.05.03h.05s.06.02.06.02h.05s.05,0,.05,0h.06s.05.02.05.02h.06s.05,0,.05,0h.06s.05,0,.05,0h.17s.05,0,.05,0h.11s.06,0,.06,0h.16s.06,0,.06,0h.05s.06-.02.06-.02h.05s.05,0,.05,0h.06s.05-.02.05-.02h.05s.06-.03.06-.03h.05s.05-.02.05-.02h.05s.05-.03.05-.03h.05s.05-.03.05-.03l.06-.02h.05s.05-.03.05-.03l.05-.02.04-.02.05-.02.05-.02.05-.03.05-.02.05-.02.04-.02.05-.03.05-.02.04-.03.05-.03.04-.02.05-.03.04-.03.05-.03.04-.03.05-.03.04-.03.04-.03.04-.03.05-.03.04-.03.04-.03.04-.03.04-.03.04-.03.04-.03.04-.03.03-.03.04-.03.04-.03.04-.03.03-.03.04-.03.03-.03.04-.03.03-.03.04-.03.03-.04.03-.03.04-.03.03-.04.03-.03.03-.04.03-.03.03-.04.03-.04.03-.03.03-.04.03-.04.03-.04.03-.04.03-.04.03-.04.03-.04.03-.04.03-.04.03-.04.03-.05.03-.04.03-.04.03-.05.03-.04.03-.04.03-.05.02-.04.03-.05.03-.04.02-.05.03-.05.02-.04.03-.05.02-.05.02-.05.02-.05.03-.04.02-.05.02-.05v-.05s.03-.05.03-.05l.02-.05.02-.05v-.05s.03-.05.03-.05v-.06s.03-.05.03-.05v-.05s.02-.05.02-.05v-.05s.02-.06.02-.06v-.05s.02-.05.02-.05v-.06s.02-.05.02-.05v-.05s0-.06,0-.06v-.05s0-.06,0-.06v-.05s0-.06,0-.06v-.45s0-.06,0-.06v-.05s0-.06,0-.06v-.05s-.02-.05-.02-.05v-.06s-.02-.05-.02-.05v-.05s-.02-.06-.02-.06v-.05s-.02-.05-.02-.05v-.05s-.03-.05-.03-.05v-.06s-.03-.05-.03-.05v-.05s-.03-.05-.03-.05l-.02-.05-.02-.05v-.05s-.03-.05-.03-.05l-.02-.05-.03-.04-.02-.05-.02-.05-.02-.05-.03-.05-.02-.04-.03-.05-.02-.05-.03-.04-.03-.05-.02-.04-.03-.05-.03-.04-.03-.04-.03-.05-.03-.04-.03-.04-.03-.05-.03-.04-.03-.04-.03-.04-.03-.04-.03-.04-.03-.04-.03-.04-.03-.04-.03-.04-.03-.04-.03-.03-.03-.04-.03-.04-.03-.03-.03-.04-.03-.03-.03-.04-.04-.03-.03-.03-.03-.04-.04-.03-.03-.03-.04-.03-.03-.03-.04-.03-.03-.03-.04-.03-.04-.03-.04-.03-.03-.03-.04-.03-.04-.03-.04-.03-.04-.03-.04-.03-.04-.03-.04-.03-.05-.03-.04-.03-.04-.03-.04-.03-.05-.03-.04-.03-.05-.03-.04-.03-.05-.03-.04-.02-.05-.03-.04-.03-.05-.02-.05-.03-.04-.02-.05-.02-.05-.03-.05-.02-.05-.02-.05-.02-.04-.02-.05-.02-.05-.02h-.05s-.06-.03-.06-.03l-.05-.02h-.05s-.05-.03-.05-.03h-.05s-.05-.02-.05-.02h-.05s-.06-.03-.06-.03h-.05s-.05-.02-.05-.02h-.06s-.05,0-.05,0h-.05s-.06-.02-.06-.02h-.05s-.06,0-.06,0h-.05s-.06,0-.06,0h-.16s-.06,0-.06,0h-.05ZM359.88,304.81h.29s.1,0,.1,0h.1s.09.02.09.02h.09s.09.02.09.02l.1.02h.09s.09.03.09.03l.1.02.09.02.09.02.09.02.09.02.09.03.1.02.09.03.09.03.09.03.09.03.09.03.09.03.09.03.09.03.09.03.09.03.09.03.08.03.09.04.09.03.09.04.09.03.08.04.09.04.09.04.09.04.08.04.09.04.08.05.09.04.08.04.08.05.09.05.08.05.08.05.08.06.07.04.09.06.07.06.08.05.08.06.07.05.07.06.08.06.07.06.07.07.07.06.07.06.07.06.07.07.06.06.07.08.06.06.06.06.07.08.07.07.06.07.06.07.06.08.05.06.06.08.06.08.05.08.06.07.05.08.05.08.05.08.05.08.05.08.05.08.05.08.05.09.04.07.04.09.05.08.04.09.04.09.04.08.04.09.03.08.04.09.04.09.03.09.03.08.03.09.03.09.03.09.03.09.03.09.03.09.03.09.03.09.03.09.03.09.03.09.02.09.03.09.02.1.03.09.02.09.02.09.02.09.02.09v.09s.03.1.03.1v.1s.02.09.02.09l.02.1v.19s.02.1.02.1v.2s0,.1,0,.1v.39s0,.1,0,.1v.1s-.02.09-.02.09v.1l-.02.1v.09s-.02.1-.02.1l-.02.09v.1s-.03.09-.03.09l-.02.09-.02.09-.02.09-.03.09-.02.1-.03.09-.02.09-.03.09-.03.09-.03.09-.03.09-.03.09-.03.09-.03.09-.03.09-.03.09-.03.09-.03.09-.03.08-.03.09-.04.09-.04.09-.03.08-.04.09-.04.08-.04.09-.04.09-.05.08-.04.09-.04.07-.05.09-.05.08-.05.08-.05.08-.05.08-.05.08-.05.08-.05.08-.06.07-.05.08-.06.08-.06.08-.05.06-.06.08-.06.07-.06.07-.07.07-.07.08-.06.06-.06.06-.07.08-.06.06-.07.07-.07.06-.07.06-.07.06-.07.07-.07.06-.08.06-.08.06-.06.05-.08.06-.08.05-.07.06-.09.06-.07.04-.08.06-.08.05-.08.05-.09.05-.08.05-.08.04-.09.04-.08.05-.09.04-.08.04-.09.04-.09.04-.09.04-.08.04-.09.03-.09.04-.09.03-.09.04-.08.03-.09.03-.09.03-.09.03-.09.03-.09.03-.09.03-.09.03-.09.03-.09.03-.09.03-.09.03-.1.02-.09.03-.09.02-.09.02-.09.02-.09.02-.1.02-.09.02h-.09s-.1.02-.1.02l-.09.02h-.09s-.09.02-.09.02h-.1s-.1,0-.1,0h-.09s-.1,0-.1,0h-.59s-.09,0-.09,0h-.1s-.09-.02-.09-.02h-.1s-.09-.03-.09-.03h-.1s-.09-.02-.09-.02l-.09-.02-.09-.02-.09-.02-.09-.02-.1-.02-.09-.02-.09-.03-.1-.03-.09-.02-.09-.03-.09-.03-.09-.03-.09-.03-.09-.03-.09-.03-.09-.03-.09-.03-.09-.03-.09-.03-.08-.03-.09-.03-.09-.03-.09-.04-.09-.03-.09-.04-.09-.04-.09-.04-.08-.04-.09-.04-.08-.04-.09-.05-.08-.04-.08-.05-.09-.04-.08-.05-.08-.05-.09-.05-.07-.05-.08-.06-.09-.05-.07-.06-.07-.05-.08-.06-.07-.05-.08-.07-.07-.05-.07-.06-.08-.07-.07-.06-.07-.06-.06-.06-.07-.06-.07-.08-.07-.07-.06-.06-.06-.07-.07-.07-.06-.07-.06-.07-.06-.07-.06-.08-.06-.07-.06-.07-.05-.07-.06-.09-.06-.08-.04-.07-.06-.08-.05-.08-.05-.08-.05-.08-.05-.09-.04-.07-.05-.09-.05-.08-.04-.09-.04-.08-.04-.09-.04-.09-.04-.08-.04-.09-.04-.09-.04-.09-.03-.09-.03-.09-.03-.08-.04-.09-.03-.09-.03-.09-.03-.09-.03-.09-.03-.09-.03-.09-.03-.09-.03-.09-.03-.09-.03-.09-.03-.09-.02-.09-.03-.1-.02-.09-.02-.09-.03-.09v-.09s-.03-.09-.03-.09l-.02-.1v-.09s-.03-.09-.03-.09v-.1s-.02-.09-.02-.09v-.09s-.02-.1-.02-.1v-.19s0-.1,0-.1v-.1s0-.1,0-.1v-.2s0-.1,0-.1v-.09s0-.09,0-.09v-.1s.02-.09.02-.09v-.09s.02-.1.02-.1l.02-.09v-.09s.03-.1.03-.1l.02-.09v-.09s.03-.09.03-.09l.02-.09.02-.09.03-.1.02-.09.03-.09.03-.09.03-.09.03-.09.03-.09.03-.09.03-.09.03-.09.03-.09.03-.09.03-.09.04-.09.03-.08.03-.09.03-.09.04-.09.04-.09.04-.09.04-.08.04-.09.04-.09.04-.08.04-.09.05-.08.05-.09.04-.07.05-.09.05-.08.05-.08.05-.08.06-.08.04-.07.06-.08.06-.09.05-.07.06-.07.06-.07.06-.08.06-.07.06-.07.06-.07.07-.07.06-.07.06-.06.07-.07.07-.08.07-.06.06-.06.07-.06.07-.06.08-.07.07-.06.07-.05.07-.06.08-.06.08-.06.07-.05.07-.06.09-.05.08-.06.07-.05.09-.05.08-.05.08-.05.09-.04.08-.05.08-.04.09-.05.08-.04.09-.04.08-.04.09-.04.09-.04.09-.04.09-.03.09-.04.09-.03.09-.03.08-.03.09-.03.09-.03.09-.03.09-.03.09-.03.09-.03.09-.03.09-.03.09-.03.09-.03.09-.02.1-.03.09-.03.09-.02.1-.02.09-.02.09-.02.09-.02.09-.02h.09s.1-.02.1-.02l.09-.02h.1s.09-.02.09-.02h.1s.09,0,.09,0h.09s.1,0,.1,0h.3Z"/>
    <path class="cls-9" d="M378.04,285.11c0,1.4-1.15,2.53-2.56,2.52l-79.09-.5c-4.18-.02-7.69-3.18-8.16-7.33l-6.6-57.22,5.05-.58,6.6,57.23c.18,1.6,1.53,2.82,3.14,2.83l79.09.5c1.4,0,2.53,1.15,2.52,2.56h0Z"/>
    <path class="cls-11" d="M284.08,226.75c-2.14,0-4.01-1.57-4.32-3.75l-.93-6.55-13.58.62c-2.42.12-4.45-1.75-4.56-4.16-.11-2.41,1.75-4.45,4.16-4.56l17.54-.8c2.27-.11,4.2,1.52,4.52,3.75l1.48,10.48c.34,2.39-1.32,4.59-3.71,4.93-.21.03-.41.04-.62.04Z"/>
    <path class="cls-2" d="M316.46,311.39c-.74,1.11-1.98,1.78-3.32,1.78s-2.58-.69-3.31-1.8c-2.92-4.51-6.72-10.38-6.72-10.38l20.14.06s-3.83,5.84-6.78,10.34Z"/>
    <path class="cls-2" d="M363.08,311.55c-.73,1.12-1.98,1.79-3.32,1.79-1.34,0-2.58-.69-3.31-1.81-2.92-4.5-6.72-10.37-6.72-10.37l20.14.06s-3.83,5.84-6.78,10.33Z"/>
    <path class="cls-9" d="M377.85,303.8c-11.42,0-56.49-.03-77.76-.04l-.4-.03c-4.26-.67-7.01-2.48-8.17-5.36-1.53-3.8.05-8.84,4.7-14.99.79-1.05,2.22-1.48,3.39-.89,1.55.78,1.95,2.72.95,4.03-3.87,5.1-4.64,8.43-4.07,9.86.48,1.2,2.3,1.77,3.82,2.03,21.34,0,66.15.03,77.53.04,1.48,0,2.67,1.2,2.67,2.68h0c0,1.48-1.19,2.68-2.67,2.68Z"/>
    <rect class="cls-10" x="309.12" y="247.08" width="10.74" height="8.78" rx="2.14" ry="2.14"/>
    <rect class="cls-10" x="309.26" y="258.83" width="10.73" height="8.78" rx="2.14" ry="2.14"/>
    <rect class="cls-10" x="309.12" y="270.17" width="10.74" height="8.78" rx="2.14" ry="2.14"/>
    <rect class="cls-10" x="309.02" y="235.34" width="10.73" height="8.77" rx="2.14" ry="2.14"/>
    <rect class="cls-10" x="323.02" y="247.19" width="10.73" height="8.78" rx="2.14" ry="2.14"/>
    <rect class="cls-10" x="323.16" y="258.94" width="10.74" height="8.77" rx="2.14" ry="2.14"/>
    <rect class="cls-10" x="323.02" y="270.27" width="10.73" height="8.78" rx="2.14" ry="2.14"/>
    <rect class="cls-10" x="322.92" y="235.44" width="10.74" height="8.77" rx="2.14" ry="2.14"/>
    <rect class="cls-10" x="337.21" y="247.39" width="10.74" height="8.78" rx="2.14" ry="2.14"/>
    <rect class="cls-10" x="337.35" y="259.14" width="10.74" height="8.77" rx="2.14" ry="2.14"/>
    <rect class="cls-10" x="337.21" y="270.48" width="10.74" height="8.77" rx="2.14" ry="2.14"/>
    <rect class="cls-10" x="337.11" y="235.64" width="10.74" height="8.78" rx="2.14" ry="2.14"/>
    <rect class="cls-10" x="295.4" y="247.19" width="10.74" height="8.78" rx="2.14" ry="2.14"/>
    <rect class="cls-10" x="295.55" y="258.94" width="10.74" height="8.77" rx="2.14" ry="2.14"/>
    <rect class="cls-10" x="295.4" y="270.27" width="10.74" height="8.78" rx="2.14" ry="2.14"/>
    <rect class="cls-10" x="295.31" y="235.44" width="10.74" height="8.77" rx="2.14" ry="2.14"/>
    <rect class="cls-10" x="351.1" y="247.49" width="10.73" height="8.77" rx="2.14" ry="2.14"/>
    <rect class="cls-10" x="351.24" y="259.23" width="10.74" height="8.78" rx="2.14" ry="2.14"/>
    <rect class="cls-10" x="351.1" y="270.57" width="10.73" height="8.78" rx="2.14" ry="2.14"/>
    <rect class="cls-10" x="351" y="235.73" width="10.74" height="8.78" rx="2.14" ry="2.14"/>
  </g>
</svg>