<?xml version="1.0" encoding="UTF-8"?>
<svg xmlns="http://www.w3.org/2000/svg" viewBox="0 0 500 500">
  <defs>
    <style>
      .cls-1 {
        fill-rule: evenodd;
      }

      .cls-1, .cls-2, .cls-3, .cls-4, .cls-5 {
        stroke-width: 0px;
      }

      .cls-1, .cls-4 {
        fill: #fff;
      }

      .cls-2 {
        fill: #282c33;
      }

      .cls-3 {
        fill: #869eb4;
      }

      .cls-5 {
        fill: #e65b0a;
      }
    </style>
  </defs>
  <g id="stiker_style" data-name="stiker style">
    <path class="cls-4" d="M387.63,194.82h0c-1.78-4.12-5.6-6.76-9.79-7.26-.25-1.97-.53-3.97-.84-6.01-2.37-16.21-7.93-54.1-65.89-46.79-38.98,3.7-55.95,14.98-57.36,39.33-46.6-3.13-77.37,6.04-96.43,28.59-17.76,21.01-21.9,50.43-25.9,78.88-.34,2.39-.68,4.83-1.03,7.26-6.72,1.04-11.81,5.01-13.43,10.56-1.6,5.47.57,11.2,5.8,15.35,2.41,1.91,5.88,2.89,9.94,3.2-2.34,1.45-4.04,3.43-4.62,6.32-.5,2.53.06,5.79,2.78,8.35,2.59,3.43,7.16,4.39,16.54,5.29,6.24.59,14.73,1.07,25.24,1.43,1.2.39,2.46.67,3.77.82l1.37.16,1.35-.31c.56-.13,1.1-.27,1.64-.42,9.36.24,19.57.38,30.43.41,4.38,5.48,12.48,5.78,22.43,6.14,1.96.07,3.86.05,5.67-.07,1.47.45,3.01.68,4.59.68,1.45,0,2.94-.19,4.43-.58l.44-.13c3.53-1.14,6.5-3.43,8.49-6.48,95.62-2.1,100.08-9.1,102.75-13.3,1.56-2.46,1.88-5.47.89-8.16-1.71-5.03-6.72-7.49-14.71-9.06.06-5.22-.79-11.46-2.55-18.82,1.24-1.55,2.39-3.15,3.45-4.78,1.45-1.32,2.84-2.65,4.18-3.98,8.19-.37,16.68-3.44,17.82-11.35.37-2.54-.23-5.54-2.36-8.14,6.7-11.06,10.68-22.98,12.16-36.99.15,0,.3,0,.47-.01,6.73-.34,11.92-6.09,11.58-12.82-.51-10.11-2.67-15.8-3.32-17.3Z"/>
  </g>
  <g id="Bubus">
    <g>
      <path class="cls-3" d="M137.14,327.33c-3.01,7.27,222.12,6.67,216.21-6.59-4.27-14.53-236.31-4.39-216.21,6.59Z"/>
      <path class="cls-3" d="M216.83,333.96c1.56,3.31,6.14,3.75,17.08,4.15,12.83.46,18.16-3.68,18.14-6.22,0-4.23-9.72-2.09-18.33-2.67-12.88-.89-18.54,1.21-16.89,4.74Z"/>
      <path class="cls-2" d="M329.54,321.88c-4.62.01-8.33-3.88-8.11-8.49q.33-12.7-3.8-26.47c-3.17-10.03,12.68-14.8,15.55-4.65,3.27,10.87,11.1,38.73-3.64,39.61Z"/>
      <path class="cls-2" d="M289.47,311.46c-16.36-27.68-56.73-38.45-70.07-38.45-3.48,1.42-1.78,4.86-6.84,4.79-39.63-.57-2.92-11.91-56.77,2.15-21.75,5.65-21,16.31,15.99,29.88,12.49,4.6,72.42,16.23,117.69,1.63Z"/>
      <path class="cls-5" d="M178.47,303.99c2.79-2.07,13.68-8.48,18.89-4.5,6.75,5.3,29.92,16,65.78,18.25-16.1,2.38-87.56,7.75-84.67-13.75Z"/>
      <path class="cls-2" d="M177.33,332.19c-10.62-1.22-11.07-14.1-10.95-41.36.48-10.5,17-9.53,16.21.99-3.08,26.35,10.97,36.61-5.26,40.38Z"/>
      <path class="cls-5" d="M135.73,306.2c11.5-64.19,3.87-137.36,131.96-122.8,57.72,9.64,54.84,77.99,78.31,85.5,0,0-32-19.5-106.39-.37-12.85,3.26-25.38,7.7-37.42,13.26-26.71,12.34-40.67,24.84-66.46,24.41Z"/>
      <path class="cls-4" d="M254.46,255.23l35.67-6.07c-44.49-5.33-73.2,18.9-73.2,18.9,21.86-10.38,37.53-12.82,37.53-12.82"/>
      <path class="cls-5" d="M132.33,296.64c-7.37.76-10.94,6.8-4.61,11.82,6.34,5.02,40.14-2.72,55.45-11.4,46.87-27.77,101.66-42.51,162.31-23.85,19.66,2.23,22.57-10.83-.97-9.46-16.77.97-35.69-22.46-86.66-11.29-61,13.35-90.09,47.61-125.52,44.18Z"/>
      <path class="cls-4" d="M138.82,301.38c-1.06,0-1.62-.15-1.75-.19-.75-.22-1.17-1.01-.95-1.76.22-.75,1.01-1.17,1.76-.95h0s2.52.57,8.41-1.63c.73-.27,1.54.1,1.82.83s-.1,1.54-.83,1.81c-4.12,1.54-6.87,1.88-8.46,1.88Z"/>
      <path class="cls-4" d="M133.9,300.8c-.39,1.57-2.87,1.2-2.82-.41.02-2.12,3.43-1.64,2.82.41Z"/>
      <path class="cls-2" d="M369.08,182.73c-3.16-21.59-10.42-45.95-57.1-40.01-54.32,5.13-53.52,24.2-47.73,56.77,3.48,21.72,14.48,49.57-8.38,63.68,0,0-33.58,15.6-33.58,15.6,12.16.14,40.43,53.34,100.82,15.12,46.16-31.01,53.28-63.01,45.97-111.16Z"/>
      <path class="cls-4" d="M354.52,163.51c6.01,3.42,14.11,29.13-.7,28.18-8.33-.02-51.32,5.64-66.52,9.19-9.1,2.16-11.74-19.37-7.49-27.17,5.02-9.24,32.76-12.13,44.23-12.7,14.47-.75,24.85-.99,30.48,2.5Z"/>
      <path class="cls-4" d="M298.32,159.02c-1.98,0-3.72-1.45-4.02-3.46-.33-2.22,1.2-4.29,3.42-4.63l1.92-.29q17.18-2.58,32.26-3.47l1.06-.06c2.25-.12,4.17,1.58,4.3,3.82.13,2.24-1.58,4.17-3.82,4.3l-1.06.06q-14.72.86-31.53,3.39l-1.92.29c-.21.03-.41.05-.61.05Z"/>
      <path class="cls-1" d="M360.65,199.23c9.52-1.13,11.07,13.85,1.52,14.7-9.52,1.13-11.07-13.86-1.52-14.7Z"/>
      <path class="cls-1" d="M291.5,207.43c10.87-1.28,12.64,15.81,1.74,16.78-10.87,1.27-12.64-15.82-1.74-16.78Z"/>
      <path class="cls-2" d="M378.74,216.95c-2.23,0-4.09-1.75-4.21-4-.39-7.66-1.99-11.6-2-11.64-.88-2.14.12-4.61,2.25-5.51,2.13-.9,4.59.07,5.51,2.2.22.52,2.21,5.34,2.67,14.53.12,2.33-1.67,4.31-4,4.42-.07,0-.14,0-.22,0Z"/>
      <path class="cls-2" d="M257.26,227.91c-2.39,0-4.48-1.74-4.83-4.18-.09-.65-.85-6.66,1.39-17.08.57-2.64,3.17-4.33,5.81-3.76,2.64.57,4.32,3.17,3.76,5.81-1.87,8.69-1.27,13.61-1.27,13.66.34,2.67-1.53,5.13-4.19,5.49-.23.03-.45.05-.67.05Z"/>
      <path class="cls-5" d="M248.27,283.25c20.37,5,62.26,26.2,93.18-3.94-23.31,39.81-108.23,47.95-138.92,16.23,4.64-8.26,29.2-16.02,45.74-12.29Z"/>
      <path class="cls-4" d="M191.93,246.67c-1.12-11.89-1.04-23.85.13-35.72.04-2.12-2.35-3.65-4.25-2.69-4.15,2.62-10.69,3.85-13.01,8.32-1.45,11.48-1.72,23.07-.79,34.6.12,1.97,2.29,3.33,4.11,2.55,3.29-2.35,13.35-2.1,13.81-7.06Z"/>
      <path class="cls-4" d="M168.27,224.71c-3.39-8.58-12.6,13.75-11.93,17.3,0,0-1.28,16.59-1.28,16.59-.55,5.83,5.27,2.54,11.28-.35,1.5-.73,2.39-2.32,2.24-3.98-.93-9.83-1.03-19.72-.31-29.56Z"/>
      <path class="cls-4" d="M213.69,198.23c-3.87,2.06-12.52,2.31-15.05,6.93-1.17,6.59-2.64,19.52-1.27,38.57,1.12,6.83,13.72-1.06,18.46-1.58,7.05-2.32,11.78-8.2,11.43-14.4-2.17-11.02,6.25-33.93-13.57-29.52Z"/>
      <path class="cls-4" d="M282.58,299.94s-.09,0-.13,0c-3.57-.33-7.06-1.24-10.37-2.68-.71-.31-1.04-1.14-.73-1.86s1.14-1.04,1.86-.73c3.03,1.32,6.23,2.15,9.51,2.46.78.07,1.35.76,1.27,1.54-.07.73-.68,1.28-1.4,1.28Z"/>
      <path class="cls-4" d="M320.85,235.72c-2.5,0-4.66-1.87-4.96-4.41-.32-2.74,1.64-5.23,4.38-5.55l23.98-2.83c2.75-.32,5.23,1.64,5.55,4.38.32,2.74-1.64,5.23-4.38,5.55l-23.98,2.83c-.2.02-.4.04-.59.04Z"/>
      <path class="cls-2" d="M246.3,338.4c4.39-1.42,6.72-6.27,5.08-10.59q-4.24-11.97-4.59-26.34c-.1-10.52-16.64-10.14-16.23.39.26,11.35,1.45,40.26,15.74,36.54Z"/>
    </g>
  </g>
</svg>