<?xml version="1.0" encoding="UTF-8"?>
<svg xmlns="http://www.w3.org/2000/svg" viewBox="0 0 500 500">
  <defs>
    <style>
      .cls-1 {
        fill-rule: evenodd;
      }

      .cls-1, .cls-2, .cls-3, .cls-4, .cls-5, .cls-6 {
        stroke-width: 0px;
      }

      .cls-1, .cls-5 {
        fill: #fff;
      }

      .cls-2 {
        fill: #282c33;
      }

      .cls-3 {
        fill: #869eb4;
      }

      .cls-4 {
        fill: #efd89e;
      }

      .cls-6 {
        fill: #eacd8c;
      }
    </style>
  </defs>
  <g id="stiker_style" data-name="stiker style">
    <path class="cls-5" d="M341.78,262.05h-.58c-3.04.11-5.95.22-8.78.35.52-5.93.95-12.23,1.26-18.86,1.09-24.04,2.12-46.76-12.6-61.88-12.46-12.79-34.31-18.2-70.91-17.5-73.78,1.33-75.99,36.36-77.76,64.5-.12,1.89-.24,3.77-.38,5.64-.52,6.97-.41,16.52.14,26.77-3.22-.43-6.44-.83-9.66-1.17-.39-.05-.78-.07-1.18-.07-5.51,0-10,4.49-10,10,0,1.91.55,3.78,1.62,5.45,4.95,7.58,10.01,16.06,14.45,24.53l-1.71,1.71c-2.61,2.6-4.04,6.07-4.04,9.76,0,7.61,6.19,13.8,13.79,13.8h.01c.96,0,1.9-.1,2.82-.29,1.79,5.59,2.81,10.66,2.76,14.81-.07,3.68,1.67,7.1,4.44,9.27-.38.3-.74.6-1.06.93-2.07,2.07-3.21,4.74-3.21,7.55.02,10.33,14,12.25,21.51,13.29,10.74,1.48,26.55,2.4,48.34,2.81,10.86.21,20.13.33,28.05.33,29.29,0,40.29-1.72,45.7-7.41,2.84-2.98,3.65-7.07,2.11-10.67-.87-2.04-2.34-5.47-12.94-8.36.27-.62.49-1.27.66-1.94l.38-1.57c1.4-5.82,3.83-15.96,8.03-27l2.74,1.37c1.9.96,4.03,1.46,6.17,1.46h.02c7.61,0,13.8-6.19,13.8-13.8,0-5.19-3-10.03-7.64-12.34l-2.58-1.29c3.5-5.09,7.54-9.8,12.22-13.72,2.11-1.77,3.31-4.37,3.31-7.13,0-5.14-4.18-9.32-9.31-9.32Z"/>
  </g>
  <g id="Bubus">
    <g>
      <path class="cls-3" d="M319.02,360.85c-5.19,5.48-30.43,5.3-67.8,4.59-43.74-.83-61.99-3.77-62-8.12,0-7.25,33.02-7.16,62.32-7.09,44.03.1,73.03,4.78,67.48,10.61Z"/>
      <path class="cls-2" d="M250.32,172.16c76.81-1.45,77.46,24.87,75.37,71.01-1.46,31.88-5.8,55.07-8.96,65.88-4.65,15.94-12.06,32.17-64.33,32.17-52.28,0-60.32-16.09-64.33-24.13-4.01-8.04-9.88-57.81-8.05-82.2,2.19-29.41-.71-61.46,70.31-62.74Z"/>
      <path class="cls-2" d="M205.8,357.87c4.41-.01,8.04-3.64,8.04-8.06,0-.51-.04-1.01-.14-1.51q-2.32-11.84-.33-25.32l-15.94-2.42,7.96,1.17-7.98-1.1c-2.32,15.75-2.3,16.61.45,30.71.74,3.78,4.1,6.53,7.95,6.52Z"/>
      <path class="cls-2" d="M295.88,361.37c3.56,0,6.72-2.37,7.72-5.8.38-1.33,3.65-13.61.52-34.78-.57-3.94-3.99-6.88-7.97-6.88-4.42,0-8.06,3.64-8.06,8.06,0,.39.03.78.08,1.17,2.64,17.86,0,27.91,0,28.01-.21.72-.31,1.47-.31,2.22,0,4.41,3.62,8.04,8.04,8.04h.01l-.04-.04Z"/>
      <path class="cls-1" d="M193.79,262.01c-5.6,0-10.14,4.55-10.14,10.15,0,5.6,4.54,10.15,10.14,10.15,5.59,0,10.14-4.55,10.14-10.15,0-5.6-4.55-10.15-10.14-10.15Z"/>
      <path class="cls-1" d="M289.45,263.46c-6.4,0-11.6,5.2-11.6,11.59,0,6.4,5.2,11.59,11.6,11.59,6.4,0,11.59-5.2,11.59-11.59,0-6.4-5.19-11.59-11.59-11.59Z"/>
      <path class="cls-5" d="M193.79,208.39c-5.66,4.52-7.25,14.39-7.25,24.64,0,8.7,1.45,15.94,13.05,14.49,11.59-1.45,72.46-.97,94.19,1.45,13.05,1.45,13.05-28.99,5.8-39.13-8.58-12-47.69-11.29-63.77-10.15-20.28,1.45-34.78,2.9-42.03,8.7Z"/>
      <path class="cls-5" d="M221.38,193.27h.36s1.59-.1,1.59-.1q20.59-1.3,44.61-.65h2.5c.13,0,.27.01.4.01,3.13,0,5.71-2.58,5.71-5.71,0-3.13-2.58-5.71-5.71-5.71-.03,0-.06,0-.09,0h-2.51q-24.53-.67-45.65.67l-1.59.1c-2.98.21-5.31,2.72-5.31,5.7,0,3.12,2.56,5.69,5.67,5.71h.02Z"/>
      <path class="cls-6" d="M161.6,267.85c-.09-.01-.17-.02-.27-.02-1.1,0-2,.9-2,2,0,.38.11.76.32,1.08,7.34,11.23,29.68,47.23,29.39,68.84-.03,1.62,1.08,3.05,2.65,3.43,17.17,4.35,23.72,7.71,25.25,8.58-.34-27.88-6.33-74.97-6.33-74.97h-.35c-15.96-4.25-32.23-7.24-48.66-8.94Z"/>
      <path class="cls-4" d="M210.61,276.77s5.98,47.09,6.33,74.97c.08,0,0,.1.11.12.1.07.23.1.35.09,2.54-.33,26.29-3.19,43.47,1.28,8.32-42.19,16.47-76.81,16.47-76.81h.09c-2.15-.23-44.23-4.65-66.88.33-.11.03.05.03.05.03Z"/>
      <path class="cls-6" d="M260.8,353.26c.08.01.17.01.26,0,13.41-3.94,27.28-6.04,41.27-6.23,2.14.01,4.02-1.45,4.55-3.52,2.89-11.93,11.37-50.64,35.76-71.13.3-.25.46-.62.46-1s-.6-1.32-1.31-1.32c-.03,0-.06,0-.08,0-42.04,1.26-62.73,6.03-64.17,6.38h-.26s-8.16,34.68-16.48,76.83Z"/>
      <path class="cls-2" d="M331.96,311.65h.01c3.18,0,5.8-2.62,5.8-5.8,0-2.19-1.25-4.21-3.21-5.19l-9.42-4.71c-.8-.4-1.69-.61-2.59-.61-3.18,0-5.81,2.62-5.81,5.8,0,2.19,1.25,4.21,3.21,5.19l9.42,4.71c.8.4,1.69.61,2.59.61Z"/>
      <path class="cls-2" d="M175.46,317.09c1.54,0,3.01-.61,4.1-1.7l5.08-5.07c1.08-1.09,1.69-2.56,1.69-4.1,0-3.18-2.62-5.8-5.8-5.8-1.54,0-3.02.61-4.11,1.7l-5.07,5.07c-1.09,1.09-1.69,2.56-1.69,4.1,0,3.18,2.62,5.8,5.79,5.8h.01Z"/>
    </g>
  </g>
</svg>