<?xml version="1.0" encoding="UTF-8"?>
<svg xmlns="http://www.w3.org/2000/svg" viewBox="0 0 500 500">
  <defs>
    <style>
      .cls-1 {
        fill-rule: evenodd;
      }

      .cls-1, .cls-2, .cls-3, .cls-4, .cls-5 {
        stroke-width: 0px;
      }

      .cls-1, .cls-4 {
        fill: #fff;
      }

      .cls-2 {
        fill: #282c33;
      }

      .cls-3 {
        fill: #869eb4;
      }

      .cls-5 {
        fill: #e65b0a;
      }
    </style>
  </defs>
  <g id="stiker_style" data-name="stiker style">
    <path class="cls-4" d="M342.66,244.61h0c-.8-7.19-7.17-12.46-14.34-12.02.15-6.07.08-11.59-.25-16.02-.14-1.81-.25-3.64-.37-5.46-1.72-27.23-3.85-61.11-75.28-62.47-15.88-.3-28.67.58-39.12,2.71-2.39.49-4.5,1.57-6.22,3.05-1.93-.48-4.02-.42-5.99.31-1.74.63-3.21,1.68-4.33,2.99-1.74.06-3.49.55-5.08,1.52-1.89,1.18-3.27,2.89-4.06,4.82-2.25.6-4.29,1.87-5.83,3.69l-.07.08c-12.07,14.64-11.09,36.45-10.14,57.54.05,1.16.11,2.3.17,3.44-7.64.04-14.02,6.04-14.41,13.74-.76,15.21,1.7,23.87,2.2,25.45,1.92,6.07,7.48,10.14,13.83,10.14,1.37,0,2.72-.2,4.04-.59,1.04,5.34,2.11,9.8,3.12,13.24,1.91,6.55,4.47,13.92,10.71,20.39-.28,5.54-.12,10.21.2,13.95-8.21,2.03-12.09,4.75-13.58,9.14-1.16,3.42-.29,7.12,2.35,9.9,4.06,4.28,11.49,6.22,26.49,6.93,5.05.24,10.83.33,17.2.33,8.33,0,17.66-.16,27.67-.35,21.03-.4,36.29-1.29,46.66-2.71,7.33-1.01,20.97-2.89,20.99-13.11,0-4.51-2.47-7.93-7.37-10.25,1.04-5.87,1.33-9.47.85-14.92,3.64-3.92,5.55-7.73,6.79-10.22,1.79-3.59,3.6-12.25,5.12-22.94.82.15,1.64.25,2.46.25,6.24,0,11.66-4.23,13.18-10.29,3.23-12.9,2.58-20.82,2.42-22.28Z"/>
  </g>
  <g id="Bubus">
    <g>
      <path class="cls-2" d="M320.09,217.16c-2.12-28.38.69-59.23-67.82-60.53-15.38-.29-27.67.57-37.35,2.54-3.01.62-5,3.55-4.49,6.57l.61,3.65c.03.08.04.16.04.24,0,.48-.39.87-.87.87-.38,0-.72-.26-.83-.62l-2.67-6.42c-.46-1.12-1.75-1.67-2.88-1.24-1.14.4-1.76,1.65-1.4,2.8l2.95,8.79c.05.11.07.22.07.34,0,.48-.39.87-.87.87-.32,0-.61-.18-.76-.47l-4.77-7.79c-.66-1.07-2.08-1.41-3.15-.76-1.01.63-1.37,1.95-.81,3.01l4.66,8.75c.06.12.09.26.09.39,0,.48-.39.87-.86.87-.24,0-.47-.1-.63-.27l-5.07-5.86c-.68-.79-1.66-1.25-2.7-1.25s-2.03.46-2.7,1.25c-9.67,11.73-9.34,29.42-8.32,52.08,1.4,30.75,5.59,53.12,8.64,63.55,4.49,15.38,11.63,31.03,62.05,31.03s58.18-15.52,62.06-23.27c3.87-7.76,9.54-55.61,7.78-79.13Z"/>
      <path class="cls-3" d="M185.99,338.65c5.02,5.28,29.36,5.12,65.41,4.43,42.19-.8,59.79-3.63,59.8-7.83,0-6.99-31.86-6.91-60.11-6.84-42.45.1-70.42,4.61-65.1,10.23Z"/>
      <path class="cls-2" d="M295.22,335.75c-.49,0-.99-.05-1.48-.14-4.21-.82-6.95-4.86-6.13-9.07q2.23-11.43.32-24.43l7.67-1.19,7.68-1.13-7.68,1.13,7.68-1.07c2.24,15.19,2.22,16.02-.43,29.6-.72,3.71-3.98,6.3-7.62,6.3Z"/>
      <path class="cls-2" d="M208.34,339.18c-3.38,0-6.5-2.24-7.47-5.64-.37-1.28-3.52-13.14-.5-33.57.63-4.24,4.57-7.17,8.81-6.54,4.24.63,7.17,4.57,6.54,8.81-2.53,17.14.05,26.97.08,27.07,1.18,4.12-1.2,8.39-5.32,9.57-.71.2-1.43.3-2.13.3Z"/>
      <path class="cls-1" d="M306.78,240.52c5.4,0,9.79,4.39,9.79,9.78s-4.39,9.79-9.79,9.79-9.78-4.38-9.78-9.79,4.38-9.78,9.78-9.78Z"/>
      <path class="cls-1" d="M214.52,244.71c6.18,0,11.19,5.01,11.19,11.18s-5.01,11.18-11.19,11.18-11.18-5.01-11.18-11.18,5.01-11.18,11.18-11.18Z"/>
      <path class="cls-2" d="M327.05,269.17c-.45,0-.91-.05-1.36-.17-3-.75-4.82-3.79-4.07-6.78,2.47-9.86,1.97-15.48,1.96-15.54-.29-3.06,1.93-5.8,4.99-6.12,3.05-.31,5.79,1.87,6.13,4.92.08.75.73,7.63-2.23,19.45-.64,2.54-2.92,4.23-5.42,4.23Z"/>
      <path class="cls-2" d="M173.35,270.12c-2.76,0-5.33-1.78-6.2-4.55-.26-.83-2.54-8.51-1.83-22.63.18-3.58,3.24-6.33,6.8-6.15,3.58.18,6.33,3.23,6.15,6.8-.59,11.78,1.24,18.06,1.26,18.12,1.08,3.42-.82,7.04-4.24,8.12-.65.2-1.3.3-1.94.3Z"/>
      <path class="cls-4" d="M306.78,191.59c5.46,4.36,6.99,13.88,6.99,23.76,0,8.39-1.39,15.38-12.58,13.98-11.18-1.4-69.89-.94-90.86,1.4-12.58,1.4-12.58-27.96-5.59-37.74,8.27-11.57,46-10.89,61.51-9.78,19.57,1.4,33.54,2.8,40.53,8.39Z"/>
      <path class="cls-4" d="M280.18,177.01c-.12,0-.23,0-.35-.01l-2.26-.14q-19.4-1.22-43.3-.55l-1.47.04c-3.01.09-5.57-2.31-5.66-5.35-.08-3.04,2.31-5.57,5.35-5.66l1.47-.04q24.4-.68,44.3.57l2.26.14c3.04.19,5.34,2.8,5.15,5.84-.18,2.92-2.61,5.16-5.49,5.16Z"/>
      <path class="cls-4" d="M262.04,288.05c-3.55,0-6.59-2.69-6.95-6.29-.38-3.84,2.42-7.27,6.26-7.65l27.96-2.8c3.85-.38,7.27,2.42,7.65,6.26.38,3.84-2.42,7.27-6.26,7.65l-27.96,2.8c-.24.02-.47.04-.7.04Z"/>
      <path class="cls-5" d="M220.43,310.02c-1.24,0-2.49-.33-3.62-1.02-3.3-2-4.35-6.3-2.34-9.6l15.05-24.77c2-3.3,6.3-4.35,9.6-2.34,3.3,2,4.35,6.3,2.34,9.6l-15.05,24.77c-1.32,2.17-3.62,3.36-5.98,3.36Z"/>
      <path class="cls-5" d="M240.08,303c-1,0-2.02-.22-2.99-.67l-26.67-12.64c-3.49-1.65-4.98-5.82-3.32-9.31,1.65-3.49,5.82-4.97,9.31-3.32l26.67,12.64c3.49,1.65,4.98,5.82,3.32,9.31-1.19,2.52-3.7,4-6.32,4Z"/>
      <path class="cls-1" d="M221.51,289.44c.77,0,1.4.63,1.4,1.4s-.63,1.4-1.4,1.4-1.39-.63-1.39-1.4.62-1.4,1.39-1.4Z"/>
      <path class="cls-1" d="M225.71,292.24c.77,0,1.39.63,1.39,1.4s-.62,1.4-1.39,1.4-1.4-.63-1.4-1.4.63-1.4,1.4-1.4Z"/>
      <path class="cls-1" d="M229.9,295.03c.77,0,1.4.63,1.4,1.4s-.63,1.4-1.4,1.4-1.4-.63-1.4-1.4.63-1.4,1.4-1.4Z"/>
      <path class="cls-1" d="M224.31,285.25c.77,0,1.4.63,1.4,1.4s-.63,1.4-1.4,1.4-1.4-.63-1.4-1.4.63-1.4,1.4-1.4Z"/>
      <path class="cls-1" d="M228.5,288.05c.77,0,1.4.63,1.4,1.4s-.63,1.4-1.4,1.4-1.4-.63-1.4-1.4.63-1.4,1.4-1.4Z"/>
      <path class="cls-1" d="M232.7,290.84c.77,0,1.39.63,1.39,1.4s-.62,1.4-1.39,1.4-1.4-.63-1.4-1.4.62-1.4,1.4-1.4Z"/>
      <path class="cls-1" d="M227.1,281.06c.78,0,1.4.63,1.4,1.4s-.62,1.4-1.4,1.4-1.39-.63-1.39-1.4.62-1.4,1.39-1.4Z"/>
      <path class="cls-1" d="M231.3,283.85c.77,0,1.4.63,1.4,1.4s-.63,1.4-1.4,1.4-1.4-.63-1.4-1.4.63-1.4,1.4-1.4Z"/>
      <circle class="cls-4" cx="235.49" cy="288.05" r="1.4"/>
    </g>
  </g>
</svg>