<?xml version="1.0" encoding="UTF-8"?>
<svg xmlns="http://www.w3.org/2000/svg" viewBox="0 0 500 500">
  <defs>
    <style>
      .cls-1 {
        fill-rule: evenodd;
      }

      .cls-1, .cls-2, .cls-3, .cls-4, .cls-5 {
        stroke-width: 0px;
      }

      .cls-1, .cls-4 {
        fill: #fff;
      }

      .cls-2 {
        fill: #282c33;
      }

      .cls-3 {
        fill: #869eb4;
      }

      .cls-5 {
        fill: #e65b0a;
      }
    </style>
  </defs>
  <g id="stiker_style" data-name="stiker style">
    <path class="cls-4" d="M344.71,152.96c-5.31,0-10.2,2.89-12.77,7.54l-1.26,2.29,6.19-15.49c.18-.37.45-.99.65-1.79.5-1.61.75-3.27.75-4.96,0-9.25-7.52-16.78-16.77-16.78-7.38,0-13.97,4.92-16.08,11.99l-11.59,36.09-.19.52c-.6,1.68-.91,3.44-.91,5.22,0,1.61.25,3.17.71,4.64-1.94.87-3.67,2.1-5.13,3.59-10.91-3.7-24.53-5.67-41.35-5.98-36.84-.7-58.88,4.72-71.42,17.6-14.83,15.22-13.79,38.11-12.68,62.35.11,2.49.25,4.92.4,7.32-7.24-1.68-14.77,2.33-17.28,9.51-5.24,14.96-5.32,24.34-5.28,26.08.18,7.98,6.81,14.48,14.77,14.48h.33c3.94-.09,7.61-1.7,10.34-4.53.78-.82,1.45-1.71,2.02-2.66,1.33,7.52,2.74,13.63,4.05,18.11,2.04,6.96,4.76,14.64,11.24,21.3-9.65,2.14-14.06,5.01-15.58,9.73-1.13,3.51-.13,7.24,2.64,9.96,5.68,5.62,17.81,7.18,45.75,7.18,9.14,0,19.97-.17,32.81-.41,23.03-.49,40.46-1.5,51.81-3.01,8.45-1.12,22.58-3,22.66-13.41,0-6.75-5.64-9.95-10.67-11.54-.23-.82-.53-1.63-.89-2.4,2.34-3.05,3.75-5.86,4.79-7.95,1.95-3.9,3.92-13.57,5.54-25.41,1.72.77,3.61,1.21,5.6,1.21.34,0,.68-.01,1.02-.04,3.69-.27,7.05-1.96,9.47-4.76,2.42-2.8,3.6-6.37,3.33-10.06-1.01-13.8-4.21-21.39-4.85-22.77-2.06-4.51-6.3-7.37-10.92-7.94.17-6.55.1-12.5-.25-17.27-.14-1.9-.26-3.8-.39-5.71-.47-7.41-.98-15.31-2.83-22.98.81-.07,1.63-.21,2.42-.42,3.86-.95,7.21-3.45,9.24-6.88,1.39-2.32,2.12-4.98,2.12-7.71,0-.72-.06-1.43-.16-2.13,2.02-1.07,3.76-2.65,5.03-4.64l15.86-24.53.52-.86c1.19-2.15,1.82-4.59,1.82-7.06,0-8.05-6.55-14.6-14.6-14.6ZM329.57,279.01h0s0,0,0,0Z"/>
  </g>
  <g id="Bubus">
    <g>
      <path class="cls-3" d="M176.11,363.36c5.57,5.51,32.67,5.23,72.76,4.46,46.99-.99,66.61-4.04,66.64-8.42,0-7.31-35.46-7.1-66.82-6.92-47.32.28-78.49,5.09-72.58,10.88Z"/>
      <path class="cls-2" d="M246.8,187.82c-77.43-1.48-78.08,25.06-75.96,71.58,1.48,32.15,5.85,55.52,9.03,66.42,4.69,16.04,12.16,32.43,64.85,32.43s60.81-16.21,64.86-24.32c4.06-8.11,9.95-58.27,8.11-82.85-2.23-29.65.7-61.9-70.89-63.25Z"/>
      <path class="cls-4" d="M303.36,222c6.03,4.82,7.72,15.34,7.72,26.25,0,9.27-1.48,16.99-13.9,15.44-12.41-1.54-77.21-1.04-100.37,1.48-13.9,1.48-13.9-27.96-6.18-38.77,9.13-12.78,44.55-13.82,67.95-13.73,21.68.13,37.06,3.15,44.78,9.33Z"/>
      <path class="cls-4" d="M275.99,206.18c-.12,0-.25,0-.37-.01l-2.32-.15q-20.32-1.29-45.27-.58l-1.5.04c-3.2.07-5.82-2.41-5.92-5.59s2.41-5.82,5.59-5.92l1.5-.04q25.48-.73,46.33.6l2.32.15c3.17.2,5.58,2.94,5.38,6.11-.19,3.05-2.73,5.39-5.74,5.39Z"/>
      <path class="cls-2" d="M200.05,365.43c-1.26,0-2.53-.29-3.72-.91-3.97-2.07-5.52-6.95-3.46-10.92q5.61-10.78,7.54-24.39l8.04,1.08,8.02,1.19c-2.25,15.9-2.51,16.73-9.19,29.57-1.45,2.78-4.28,4.38-7.22,4.38Z"/>
      <path class="cls-2" d="M297.37,360.36c-2.7,0-5.35-1.35-6.9-3.8-.75-1.18-7.36-12.16-10.28-33.55-.6-4.44,2.5-8.52,6.94-9.13,4.44-.6,8.52,2.5,9.13,6.94,2.44,17.94,7.9,27.05,7.96,27.14,2.39,3.79,1.24,8.77-2.55,11.16-1.34.84-2.83,1.24-4.3,1.24Z"/>
      <path class="cls-2" d="M327.88,305.31c-3.03,0-5.6-2.34-5.82-5.42-.78-10.59-3.11-16.01-3.13-16.06-1.29-2.94.02-6.39,2.95-7.7,2.93-1.31,6.36-.04,7.69,2.88.33.71,3.21,7.33,4.14,20.03.24,3.22-2.18,6.02-5.4,6.25-.15.01-.29.02-.43.02Z"/>
      <path class="cls-2" d="M155.46,309.15c-3.67,0-6.69-2.96-6.78-6.65-.02-.91-.06-9.31,4.83-23.25,1.24-3.53,5.1-5.39,8.64-4.16,3.53,1.24,5.39,5.11,4.16,8.64-4.07,11.61-4.07,18.45-4.07,18.52.08,3.74-2.88,6.82-6.63,6.9-.05,0-.1,0-.15,0Z"/>
      <path class="cls-4" d="M214.66,298.84c-.75,0-1.5-.29-2.07-.86l-16.07-16.07c-1.14-1.14-1.14-2.99,0-4.14,1.14-1.14,2.99-1.14,4.14,0l16.07,16.07c1.14,1.14,1.14,2.99,0,4.14-.57.57-1.32.86-2.07.86Z"/>
      <path class="cls-4" d="M198.6,298.84c-.75,0-1.5-.29-2.07-.86-1.14-1.14-1.14-3,0-4.14l16.07-16.07c1.14-1.14,2.99-1.14,4.14,0,1.14,1.14,1.14,3,0,4.14l-16.07,16.07c-.57.57-1.32.86-2.07.86Z"/>
      <path class="cls-4" d="M305.23,294.46c-.75,0-1.5-.29-2.07-.86l-14.59-14.61c-1.14-1.14-1.14-3,0-4.14,1.14-1.14,3-1.14,4.14,0l14.59,14.61c1.14,1.14,1.14,3,0,4.14-.57.57-1.32.85-2.07.85Z"/>
      <path class="cls-4" d="M290.64,294.46c-.75,0-1.5-.28-2.07-.85-1.14-1.14-1.14-2.99,0-4.14l14.59-14.61c1.14-1.14,2.99-1.15,4.14,0,1.14,1.14,1.14,2.99,0,4.14l-14.59,14.61c-.57.57-1.32.86-2.07.86Z"/>
      <path class="cls-1" d="M254.11,313.45c6.45,0,11.68,5.24,11.68,11.68s-5.23,11.69-11.68,11.69-11.69-5.24-11.69-11.69,5.24-11.68,11.69-11.68Z"/>
      <path class="cls-5" d="M291.95,194.78c.8-2.37,2.56-4.29,4.84-5.3,2.27-1.07,4.87-1.16,7.2-.27,4.79,1.73,7.32,7.08,5.6,11.88-.82,2.36-2.58,4.29-4.85,5.32-2.22,1.11-4.81,1.24-7.13.37-4.85-1.78-7.39-7.21-5.66-12.07v.07Z"/>
      <path class="cls-4" d="M297.15,191.92c.15-.44.47-.79.89-.98.42-.18.9-.18,1.32,0,.88.33,1.34,1.31,1.03,2.2-.15.43-.48.79-.89.98-.43.18-.91.18-1.33,0-.89-.33-1.35-1.33-1.04-2.23l.02.03Z"/>
      <path class="cls-5" d="M301.19,175.08l11.88-36.97c1.08-3.74,4.53-6.34,8.43-6.34,4.81,0,8.77,3.96,8.77,8.78,0,1-.17,1.98-.5,2.92,0,.19-.13.39-.21.57l-14.41,36.07c-1.06,2.94-3.87,4.91-6.99,4.91-4.07,0-7.43-3.35-7.43-7.42,0-.86.15-1.71.44-2.52l.02.02Z"/>
      <path class="cls-4" d="M317.84,139.79c-.32,0-.63-.11-.89-.33-.58-.49-.64-1.36-.15-1.94,1.44-1.68,3.54-2.73,5.76-2.88.75-.05,1.41.52,1.46,1.28.05.76-.52,1.41-1.28,1.46-1.49.1-2.9.81-3.86,1.93-.27.32-.66.48-1.04.48Z"/>
      <path class="cls-5" d="M315.16,203.13c.93-1.63,2.51-2.79,4.34-3.21,1.82-.46,3.75-.15,5.34.85,2.11,1.26,3.41,3.55,3.41,6.01,0,1.27-.34,2.52-1,3.62-.95,1.62-2.52,2.79-4.35,3.22-1.8.5-3.73.22-5.32-.76-3.31-2.02-4.4-6.39-2.42-9.73Z"/>
      <path class="cls-4" d="M319.38,201.78c.17-.3.46-.52.8-.59.34-.08.69-.02.98.16.61.36.81,1.16.45,1.77-.18.3-.47.51-.8.59-.33.09-.69.05-.98-.13-.61-.38-.81-1.18-.45-1.8Z"/>
      <path class="cls-5" d="M324.82,189.93l14.12-25.57c1.16-2.1,3.37-3.41,5.77-3.41,3.62,0,6.6,2.98,6.6,6.6,0,1.12-.28,2.22-.82,3.19l-.24.39-15.86,24.53c-1.02,1.6-2.8,2.58-4.7,2.58-3.06,0-5.58-2.52-5.58-5.58,0-.95.24-1.89.71-2.73Z"/>
      <path class="cls-4" d="M342.42,166.33c-.31,0-.61-.14-.81-.39-.35-.45-.27-1.1.17-1.45,1.31-1.03,3-1.5,4.65-1.3.57.07.97.58.9,1.15-.07.57-.58.96-1.15.9-1.12-.14-2.24.17-3.13.87-.19.15-.41.22-.64.22Z"/>
    </g>
  </g>
</svg>