<?xml version="1.0" encoding="UTF-8"?>
<svg xmlns="http://www.w3.org/2000/svg" viewBox="0 0 500 500">
  <defs>
    <style>
      .cls-1, .cls-2, .cls-3, .cls-4, .cls-5, .cls-6 {
        fill-rule: evenodd;
      }

      .cls-1, .cls-2, .cls-3, .cls-4, .cls-5, .cls-6, .cls-7, .cls-8, .cls-9 {
        stroke-width: 0px;
      }

      .cls-1, .cls-7 {
        fill: #272c32;
      }

      .cls-2 {
        fill: #869eb4;
      }

      .cls-3 {
        fill: #d73535;
      }

      .cls-4 {
        fill: #ffbb4d;
      }

      .cls-5, .cls-9 {
        fill: #ff9e00;
      }

      .cls-6, .cls-8 {
        fill: #fff;
      }
    </style>
  </defs>
  <g id="stiker_style" data-name="stiker style">
    <path class="cls-8" d="M430.9,245.36h0c-2.74-5.53-7.77-9.4-13.8-10.62l-36.04-7.31c-.94-.19-1.89-.35-2.85-.47,3.98-10,4.99-21,3-32.87-1.94-11.59-6.79-22.99-14.02-32.97-1.61-2.22-3.35-4.4-5.19-6.48-4.68-5.31-9.66-10.16-14.8-14.43-.57-.47-1.14-.93-1.73-1.41-25.55-20.4-53.39-25.41-80.5-14.48-37.29,15.03-52.97,11.49-68.12,8.07-9.3-2.1-18.92-4.27-31.89-1.54-16.61,3.5-26.61,13.57-34.64,21.66-9.5,9.57-13.72,13.33-22.81,10.1-18.16-6.47-32.26.32-37.68,9.36-4.95,8.27-3.17,18.14,4.54,25.14,2.62,2.38,5.92,4.44,9.85,6.12.66.28,1.25.58,1.84.94,3.5,2.12,3.71,4.53,2.69,13.02-1.14,9.45-3.26,27.03,22.63,30.41,8.74,1.14,15.3,1.27,20.09,1.37,7.09.14,8.92.32,10.69,1.78,3.13,2.59,7.29,9.96,12.99,21,5.94,11.5,15.4,19.31,27.6,22.85,1.33,6.83,7.36,11.94,14.47,11.94.32,0,.64-.01.95-.03,3.92-.25,7.51-2.01,10.11-4.95,1.45-1.64,2.5-3.55,3.1-5.6,1.94,9.33,4.66,19.6,8.33,27.62-1,.25-2.32.56-4.07.92-8.74,1.83-14.35,10.43-12.52,19.16.49,2.33,1.47,4.46,2.83,6.29-19.69,2.26-29.69,5.24-29.69,14.18s10.75,12.13,31.91,14.42c16.25,1.76,37.78,2.73,60.62,2.73s44.38-.97,60.63-2.73c21.17-2.29,31.91-5.15,31.91-14.42,0-6.22-5.16-9.35-12.41-11.28,2.33-5.57,3.13-11.14,2.4-16.66l10.7-5.29c3.89,1,8.4.47,12.52-1.66,3.9-2.02,6.83-5.14,8.34-8.66l14.93-7.38c7.36-3.65,13.39-9.73,16.97-17.11,4.23-8.71,10.71-22.07,15.68-32.32l.5-1.03c2.65-5.46,2.62-11.96-.07-17.4ZM249.19,347.25c-1.97.05-3.91.11-5.84.17.55-.5,1.09-1.03,1.61-1.59,1.38.51,2.79.99,4.22,1.42Z"/>
  </g>
  <g id="Bubus">
    <g>
      <path class="cls-4" d="M329.02,264.6c-20.56,15.18-65.26,1.47-82.02,10.77-16.76,9.31-66.41,28.23-84.74-7.27-18.33-35.51-16.09-24-49.84-28.41-32.28-4.21-3.19-30.85-22.22-42.35-.86-.53-1.81-1.02-2.88-1.47-3.18-1.36-5.68-2.94-7.57-4.66-12.8-11.62,2.3-29.16,25.07-21.05,26.15,9.3,30.46-24.86,61.79-31.47,30.6-6.45,38.68,18.32,101.35-6.94,29.85-12.03,55.06-.63,72.52,13.31.55.44,1.08.87,1.61,1.31,5.49,4.56,10.17,9.32,13.92,13.57,8.87,10.06,15.09,22.26,17.31,35.48,6.78,40.41-26.59,56.11-44.3,69.18Z"/>
      <path class="cls-5" d="M329.02,264.6c-20.56,15.18-65.26,1.47-82.02,10.77-16.76,9.31-66.41,28.23-84.74-7.27-18.33-35.51-16.09-24-49.84-28.41-32.28-4.21-3.19-30.85-22.22-42.35,34.92,4.88,20.75,14.93,50.2,24.32,29.7,9.46,44.85-23.47,62.14-33.59,4.48-2.63,9.86-4.77,15.81-6.46,17.01-4.83,38.65-5.94,57.04-3.92,12.79,1.4,30.33-5.95,46.49-16.29,7.19-4.58,14.11-9.77,20.21-15.03,5.49,4.56,10.17,9.32,13.92,13.57,8.87,10.05,15.09,22.25,17.31,35.48,6.78,40.41-26.6,56.11-44.3,69.18Z"/>
      <g>
        <path class="cls-3" d="M394.25,306.06c5.81-2.88,10.5-7.61,13.33-13.44,4.37-9,11.15-22.98,16.18-33.35,1.59-3.28,1.57-7.11-.04-10.37-1.62-3.27-4.65-5.6-8.22-6.32-11.19-2.27-26.22-5.32-36.04-7.31-6.54-1.33-13.34-.44-19.33,2.52-19.27,9.54-62.03,30.7-62.03,30.7l33.85,68.4s43.16-21.36,62.3-30.83Z"/>
        <path class="cls-3" d="M287.46,282.7h-.23s-.05.01-.05.01h-.11s-.05.01-.05.01h-.05s-.06.01-.06.01h-.05s-.05.02-.05.02h-.09s-.05.02-.05.02h-.05s-.04.02-.04.02h-.09s-.05.02-.05.02h-.04s-.06.03-.06.03h-.03s-.02.01-.02.01h-.02s-.03.01-.03.01h-.01s-.02.01-.02.01h-.03s-.01.02-.01.02h-.05s-.01.02-.01.02h-.05s-.01.02-.01.02h-.05s-.02.02-.02.02h-.03s-.03.02-.03.02h-.01s-.02.02-.02.02h-.04s-.02.02-.02.02h-.02s-.02.02-.02.02h-.03s-.02.02-.02.02h-.02s-.02.02-.02.02h-.02s-.02.02-.02.02h-.02s-.01.01-.01.01l-.03.02h-.03s-.03.03-.03.03h-.03s-.01.02-.01.02l-.03.02h-.03s-.02.03-.02.03h-.02s0,.02,0,.02h-.02s-.02.02-.02.02h-.01l-.02.02h-.03s-.01.03-.01.03h-.02s-.01.02-.01.02h-.02s-.02.02-.02.02h-.02s-.01.02-.01.02h-.02s-.02.03-.02.03l-.02.02h-.03s-.02.03-.02.03h-.01s-.03.03-.03.03h-.01s-.05.05-.05.05l-.04.03-.03.03-.04.03-.03.03-.04.03-.03.03-.04.04-.03.03-.04.04-.03.03-.04.04-.03.03-.04.04-.04.04-.03.04-.04.04-.03.04-.04.05-.03.04-.04.05-.04.04-.03.05-.04.05-.04.05-.03.05-.04.05-.04.05-.03.05-.04.06-.04.06-.03.05-.04.06-.04.07-.03.05-.04.06-.04.07-.03.06-.04.07-.04.07-.03.06-.04.07-.03.07-.04.08-.03.07-.04.07-.04.08-.03.08-.03.07-.04.09-.03.07-.04.08-.03.09-.04.09-.03.08-.03.08-.04.1-.03.08-.03.1-.03.09-.04.09-.03.09-.03.1-.03.09-.03.1-.03.1-.03.1-.03.11-.03.1-.02.1-.03.11-.03.11-.03.1-.02.11-.03.11-.02.11-.03.11-.02.11-.03.12-.02.11-.02.12-.02.12-.03.12-.02.12-.02.12-.02.12-.02.13-.02.12-.02.12v.13s-.03.13-.03.13l-.02.13v.13s-.03.13-.03.13v.13s-.03.13-.03.13v.13s-.02.14-.02.14l-.02.13v.14s-.02.14-.02.14v.14s-.02.13-.02.13v.14s-.02.15-.02.15v.28s-.02.15-.02.15v.28s0,.15,0,.15v.15s-.01.14-.01.14v1.22s.01.16.01.16v.31s0,.16,0,.16v.16s.02.15.02.15v.17s.02.16.02.16v.16s.02.16.02.16v.16s.02.17.02.17v.17s.03.16.03.16v.16s.02.17.02.17l.02.16.02.18v.16s.03.17.03.17l.02.17.02.17.02.18.02.16.02.18.03.17.02.17.03.18.02.17.03.18.02.17.03.18.03.17.03.18.03.18.03.18.03.18.03.18.04.18.03.17.04.19.03.18.04.18.04.18.03.19.04.17.04.19.04.19.04.18.05.18.04.19.04.19.05.18.04.19.05.18.05.19.04.19.05.19.05.19.05.18.05.19.06.19.05.19.05.19.06.19.05.19.06.19.05.19.06.2.06.19.06.19.06.19.06.2.06.19.07.19.06.19.07.2.06.19.07.2.06.19.07.19.07.2.07.2.07.19.07.2.07.19.07.2.08.19.07.2.08.2.07.19.08.2.08.19.08.2.08.2.08.2.08.19.08.2.08.2.09.2.08.19.08.2.09.2.09.2.09.19.08.2.09.2.09.2.1.2.09.2.09.19.09.2.1.2.09.2.1.2.1.19.09.2.1.2.1.2.1.2.1.19.1.19.1.2.1.19.1.2.11.19.1.19.1.19.11.19.1.19.1.19.11.19.11.19.1.18.11.19.1.19.11.18.11.18.11.19.11.18.1.18.11.18.11.18.11.18.11.18.11.18.12.18.11.17.11.18.11.17.11.18.12.17.11.17.11.17.12.18.11.17.12.17.11.16.12.17.11.17.12.16.12.17.11.17.12.16.11.16.12.16.12.16.12.17.11.16.12.16.12.15.12.16.12.16.12.15.12.16.12.15.12.15.12.15.12.15.12.15.12.15.12.15.12.15.12.15.12.14.12.15.13.14.12.14.12.15.12.14.12.14.13.14.12.14.12.13.12.14.13.13.12.14.12.13.12.13.13.14.12.13.12.13.13.13.12.12.13.13.12.13.12.12.13.12.12.13.12.12.13.12.12.12.12.12.13.12.12.11.12.12.13.12.12.11.12.11.13.11.12.12.12.1.13.11.12.11.12.11.12.1.13.11.12.1.12.1.12.1.13.11.12.1.12.09.12.1.12.1.12.09.12.1.12.09.12.09.12.09.12.09.12.09.12.09.12.09.12.08.12.09.12.08.12.08.11.08.12.08.12.08.11.08.12.08.12.07.12.08.11.07.11.07.12.07.11.07.12.07.11.07.11.07.12.06.11.07.11.06.11.06.11.06.11.06.11.06.11.06.11.06.11.05.11.06.1.05.11.06.11.05.1.05.11.05.1.04.11.05.1.05.1.04.1.05.1.04.1.04.1.04.1.04.1.04.1.04.09.03.1.04.1.03.09.04.09.03.1.03.09.03.09.03.1.03.08.03.09.02.09.03.09.02.09.03.08.02.09.02.08.02.08.02.09.02.08.02h.08s.08.03.08.03h.08s.07.03.07.03h.08s.08.02.08.02l.08.02h.07s.07.02.07.02h.07s.08.01.08.01h.07s.07.02.07.02h.07s.06.01.06.01h.07s.07.01.07.01h.12s.07.01.07.01h.47s.06-.01.06-.01h.11s.05-.01.05-.01h.05s.05-.01.05-.01h.05s.05-.01.05-.01h.05s.05-.02.05-.02h.04s.05-.02.05-.02h.09s.05-.02.05-.02h.04s.05-.02.05-.02l.05-.02h.06s0-.02,0-.02h.05s.01-.01.01-.01h.03s.02-.02.02-.02h.04s.01-.01.01-.01l.05-.02h.04s.04-.03.04-.03h.04s.01-.02.01-.02h.02s.03-.02.03-.02h.03s.04-.03.04-.03h.04s.02-.02.02-.02h.02s.03-.02.03-.02l.02-.02h.03s.03-.02.03-.02h.01s.03-.02.03-.02h.02s.01-.02.01-.02h.02s.02-.02.02-.02h.02s.03-.03.03-.03h.02s.02-.03.02-.03h.02s.02-.02.02-.02h.01s.02-.02.02-.02h.02s.02-.02.02-.02h.02s.03-.03.03-.03h.02s.02-.03.02-.03h.01s.03-.03.03-.03h.02s.03-.03.03-.03l.02-.02h.02s.02-.03.02-.03h.02s.03-.04.03-.04h.01l.04-.04.04-.03.04-.03.03-.03.03-.03.04-.03.03-.03.04-.04.03-.03.04-.03.03-.04.04-.03.04-.04.03-.04.03-.04.04-.04.04-.04.03-.04.04-.05.04-.04.03-.04.04-.05.04-.05.03-.04.04-.05.04-.06.03-.05.04-.05.03-.05.04-.06.04-.05.03-.06.04-.06.04-.06.03-.06.04-.06.04-.07.04-.06.03-.07.04-.06.03-.07.04-.07.04-.07.03-.07.04-.08.03-.07.04-.08.03-.07.04-.08.03-.09.04-.08.03-.07.03-.08.04-.09.03-.09.04-.09.03-.08.03-.09.03-.09.04-.1.03-.09.03-.09.03-.1.03-.09.03-.1.03-.1.03-.1.03-.1.03-.11.03-.1.02-.1.03-.11.03-.11.02-.11.03-.11.03-.11.02-.11.02-.11.03-.12.02-.11.03-.12.02-.12.02-.12.02-.12.02-.12.02-.12.02-.12.02-.13.02-.12.02-.13v-.13s.03-.12.03-.12l.02-.13v-.13s.03-.14.03-.14v-.13s.02-.13.02-.13l.02-.14v-.13s.02-.14.02-.14v-.14s.02-.13.02-.13v-.14s.02-.14.02-.14v-.14s.02-.14.02-.14v-.29s.02-.15.02-.15v-.43s.01-.16.01-.16v-.45s.01-.14.01-.14v-.16s-.01-.15-.01-.15v-.47s-.01-.15-.01-.15v-.16s-.01-.16-.01-.16v-.15s-.02-.17-.02-.17v-.31s-.02-.17-.02-.17v-.16s-.02-.17-.02-.17l-.02-.16v-.16s-.02-.17-.02-.17l-.02-.16v-.17s-.03-.17-.03-.17v-.16s-.03-.17-.03-.17l-.02-.17-.02-.17-.02-.17-.02-.17-.02-.18-.02-.16-.02-.18-.03-.17-.02-.17-.03-.18-.02-.18-.03-.17-.03-.18-.03-.17-.03-.18-.03-.18-.03-.18-.03-.18-.03-.18-.03-.18-.04-.18-.03-.17-.04-.19-.04-.18-.03-.18-.04-.18-.04-.19-.04-.18-.04-.18-.04-.19-.04-.18-.05-.19-.04-.18-.04-.19-.05-.19-.05-.18-.04-.19-.05-.19-.05-.19-.05-.18-.05-.19-.05-.19-.05-.19-.06-.19-.05-.19-.05-.19-.06-.19-.06-.19-.05-.19-.06-.19-.06-.2-.06-.19-.06-.19-.06-.2-.06-.18-.06-.2-.07-.2-.06-.19-.07-.19-.06-.19-.07-.2-.07-.2-.07-.19-.07-.19-.07-.2-.07-.19-.07-.2-.07-.2-.08-.19-.07-.2-.07-.19-.08-.2-.08-.2-.08-.19-.07-.2-.08-.2-.08-.19-.08-.2-.09-.2-.08-.2-.08-.19-.09-.2-.08-.2-.09-.2-.09-.19-.08-.2-.09-.2-.09-.2-.09-.2-.09-.19-.09-.2-.1-.2-.09-.2-.09-.2-.1-.2-.1-.19-.09-.2-.1-.2-.1-.2-.1-.19-.1-.2-.1-.2-.1-.19-.1-.2-.1-.19-.1-.19-.1-.2-.11-.19-.1-.19-.1-.19-.11-.19-.1-.19-.11-.19-.1-.19-.11-.18-.11-.19-.1-.18-.11-.19-.11-.18-.1-.18-.11-.19-.11-.18-.11-.18-.11-.18-.11-.18-.11-.18-.11-.18-.11-.17-.11-.18-.11-.18-.12-.17-.11-.18-.11-.17-.12-.17-.11-.17-.11-.18-.12-.17-.11-.16-.12-.17-.11-.17-.12-.17-.12-.17-.11-.16-.12-.16-.11-.17-.12-.16-.12-.16-.12-.17-.11-.16-.12-.15-.12-.16-.12-.16-.12-.16-.12-.16-.11-.15-.12-.15-.12-.16-.12-.15-.12-.15-.12-.15-.13-.16-.12-.14-.12-.15-.12-.15-.12-.15-.12-.14-.12-.15-.12-.14-.12-.14-.13-.14-.12-.14-.12-.14-.12-.15-.13-.13-.12-.14-.12-.14-.12-.13-.13-.14-.12-.13-.12-.13-.13-.14-.12-.12-.12-.13-.13-.13-.12-.13-.12-.13-.13-.12-.12-.13-.12-.12-.13-.13-.12-.12-.12-.12-.13-.12-.12-.12-.12-.12-.13-.11-.12-.12-.12-.11-.13-.12-.12-.11-.12-.11-.13-.11-.12-.11-.12-.11-.13-.11-.12-.11-.12-.1-.12-.11-.12-.1-.13-.1-.12-.1-.12-.1-.12-.1-.12-.1-.13-.1-.12-.1-.12-.09-.12-.09-.12-.1-.12-.09-.12-.09-.12-.09-.12-.09-.12-.09-.12-.08-.12-.09-.12-.08-.12-.09-.11-.08-.12-.08-.12-.08-.11-.08-.12-.08-.12-.07-.12-.08-.11-.07-.12-.08-.11-.07-.12-.07-.11-.07-.12-.07-.11-.07-.11-.07-.11-.06-.12-.07-.11-.06-.11-.06-.11-.06-.11-.06-.11-.06-.11-.06-.11-.06-.1-.05-.12-.06-.1-.05-.11-.05-.1-.06-.11-.05-.11-.05-.1-.04-.1-.05-.1-.05-.11-.04-.1-.05-.1-.04-.1-.04-.1-.04-.1-.04-.1-.04-.1-.04-.09-.03-.1-.04-.09-.03-.1-.04-.09-.03-.1-.03-.09-.03-.09-.03-.09-.03-.09-.02-.09-.03-.09-.03-.09-.02-.09-.02-.08-.03-.08-.02-.09-.02-.08-.02-.09-.02h-.08s-.08-.03-.08-.03l-.08-.02h-.08s-.07-.03-.07-.03h-.08s-.08-.02-.08-.02h-.07s-.07-.02-.07-.02l-.08-.02h-.14s-.07-.02-.07-.02h-.07s-.07-.01-.07-.01h-.07s-.07-.01-.07-.01h-.07s-.06-.01-.06-.01h-.06s-.07-.01-.07-.01h-.24ZM287.65,275.13h.14s.14.01.14.01h.27s.14.02.14.02h.14s.14.02.14.02h.13s.14.02.14.02l.14.02h.14s.14.03.14.03l.14.02h.14s.14.04.14.04l.14.02.15.02.14.03.14.02.14.03.14.03.15.03.14.03.14.03.14.03.15.04.14.04.15.03.14.04.14.04.15.04.14.05.15.04.14.04.15.05.14.05.15.05.15.05.14.05.15.05.14.06.15.05.15.06.14.05.15.06.15.06.15.06.14.07.15.06.15.07.15.06.14.07.15.07.15.07.15.07.15.07.14.07.15.08.15.07.15.08.15.08.15.08.15.08.15.08.15.08.14.08.15.09.15.08.15.09.15.09.15.09.15.09.15.09.15.09.15.1.15.09.15.1.15.1.15.1.15.09.14.11.15.1.15.1.15.1.15.11.15.11.15.1.15.11.15.11.15.11.15.11.15.12.15.11.14.11.15.12.15.12.15.12.15.11.15.12.15.13.14.12.15.12.15.13.15.12.15.13.15.12.14.13.15.13.15.13.15.13.14.14.15.13.15.14.14.13.15.14.15.14.14.13.15.14.14.14.15.15.15.14.14.14.15.15.14.14.15.15.14.15.14.14.15.15.14.15.15.16.14.15.14.15.15.16.14.15.14.16.14.15.15.16.14.16.14.16.14.16.14.16.14.17.14.16.14.16.14.17.14.16.14.17.14.17.14.17.14.17.14.17.13.17.14.17.14.18.14.17.13.18.14.17.13.18.14.18.13.18.14.18.13.18.14.18.13.18.13.18.14.19.13.18.13.19.13.18.14.19.13.19.13.19.13.19.13.19.13.19.13.19.12.19.13.2.13.19.13.2.12.19.13.2.13.2.12.2.13.2.12.2.12.2.13.2.12.2.12.2.13.21.12.2.12.21.12.2.12.21.12.21.12.21.12.21.11.21.12.21.12.21.12.21.11.21.12.22.11.21.12.22.11.21.11.22.12.22.11.22.11.21.11.22.11.22.11.22.11.23.11.22.1.22.11.22.11.22.1.22.1.22.11.23.1.22.1.22.1.22.1.22.1.22.09.22.1.22.1.23.09.22.09.22.1.22.09.22.09.22.09.22.09.22.09.22.08.23.09.22.08.22.09.22.08.22.09.22.08.22.08.22.08.22.08.22.08.22.07.22.08.22.07.21.08.22.07.22.08.22.07.22.07.22.07.22.07.21.07.22.06.22.07.22.06.21.07.22.06.22.07.21.06.22.06.22.06.21.06.22.06.21.05.22.06.21.06.22.05.21.05.22.06.21.05.21.05.22.05.21.05.21.05.21.05.21.04.22.05.21.04.21.05.21.04.21.04.21.04.21.04.21.04.21.04.2.04.21.04.21.03.21.04.2.03.21.03.21.04.2.03.21.03.2.03.21.03.2.02.2.03.21.03.2.02.2.03.2.02.21.02.2.02.2.02.2.02.2.02.2.02.19.02.2v.2s.03.2.03.2v.19s.03.2.03.2v.19s.02.2.02.2v.19s.02.2.02.2v.19s.02.19.02.19v.19s.01.2.01.2v.19s.01.19.01.19v.19s.01.19.01.19v1.3s-.01.19-.01.19v.18s-.01.19-.01.19v.18s-.02.18-.02.18v.18s-.02.18-.02.18v.18s-.02.18-.02.18v.18s-.02.18-.02.18l-.02.17v.18s-.03.18-.03.18l-.02.17v.18s-.03.17-.03.17l-.02.17-.02.17-.02.18-.03.17-.02.17-.02.17-.03.17-.02.16-.03.17-.03.17-.03.16-.02.17-.03.16-.04.16-.03.17-.03.16-.03.16-.04.16-.03.16-.04.16-.04.15-.04.16-.03.16-.04.15-.05.16-.04.15-.04.15-.04.15-.05.15-.04.15-.05.15-.04.15-.05.15-.05.14-.05.15-.05.14-.05.15-.05.14-.06.14-.05.14-.06.14-.05.14-.06.14-.06.14-.05.13-.06.14-.06.13-.06.14-.07.13-.06.13-.06.13-.07.13-.06.13-.07.13-.07.12-.06.13-.07.12-.07.13-.07.12-.07.12-.08.12-.07.12-.07.12-.08.11-.07.12-.08.12-.08.11-.08.11-.08.11-.08.11-.08.11-.08.11-.08.11-.09.11-.08.1-.09.11-.08.1-.09.1-.09.1-.09.1-.09.1-.09.1-.09.09-.09.1-.1.09-.09.09-.1.1-.09.09-.1.09-.1.08-.09.09-.1.09-.1.08-.11.08-.1.09-.05.04-.05.04-.05.04-.05.04-.06.03-.05.04-.05.04-.05.04-.06.04-.05.04-.05.03-.06.04-.05.04-.06.03-.05.04-.06.04-.05.03-.06.04-.05.03-.06.04-.05.03-.06.03-.05.04-.06.03-.06.03-.05.04-.06.03-.06.03-.06.03-.05.03-.06.04-.06.03-.06.03-.06.03-.05.03-.06.03-.06.03-.06.02-.06.03-.06.03-.06.03-.06.02-.06.03-.06.03-.06.02-.06.03-.06.03-.06.02-.06.02-.06.03-.06.02-.06.03-.07.02-.06.02-.06.02-.06.03-.06.02-.06.02-.07.02-.06.02-.06.02-.06.02-.06.02-.07.02-.06.02-.06.02-.06.02h-.07s-.06.03-.06.03l-.06.02h-.07s-.06.03-.06.03l-.13.03-.12.03-.13.03-.13.03-.13.02-.13.03-.13.02-.13.02-.13.02-.13.02-.13.02h-.13s-.14.03-.14.03h-.13s-.13.02-.13.02h-.13s-.14.02-.14.02h-.13s-.14.02-.14.02h-.4s-.14.01-.14.01h-.4s-.14-.01-.14-.01h-.14s-.14-.02-.14-.02h-.14s-.13-.02-.13-.02h-.14s-.14-.02-.14-.02h-.14s-.14-.03-.14-.03l-.14-.02h-.14s-.14-.03-.14-.03l-.14-.02-.14-.03-.14-.02-.14-.02-.15-.03-.14-.03-.14-.03-.14-.03-.15-.03-.14-.03-.14-.03-.14-.04-.15-.03-.14-.04-.15-.04-.14-.04-.15-.04-.14-.04-.15-.05-.14-.04-.15-.05-.14-.05-.15-.05-.14-.05-.15-.05-.14-.05-.15-.05-.15-.06-.14-.06-.15-.05-.15-.06-.15-.06-.14-.06-.15-.07-.15-.06-.15-.06-.14-.07-.15-.07-.15-.07-.15-.06-.15-.08-.14-.07-.15-.07-.15-.07-.15-.08-.15-.08-.15-.07-.15-.08-.14-.08-.15-.09-.15-.08-.15-.08-.15-.09-.15-.08-.15-.09-.15-.09-.15-.09-.15-.09-.15-.09-.15-.09-.15-.1-.14-.09-.15-.1-.15-.1-.15-.09-.15-.1-.15-.1-.15-.11-.15-.1-.15-.1-.15-.11-.15-.1-.15-.11-.15-.11-.15-.11-.15-.11-.14-.11-.15-.11-.15-.12-.15-.11-.15-.12-.15-.12-.15-.11-.15-.12-.15-.12-.14-.12-.15-.13-.15-.12-.15-.12-.15-.13-.14-.13-.15-.12-.15-.13-.15-.13-.15-.13-.14-.13-.15-.14-.15-.13-.14-.13-.15-.14-.15-.14-.14-.13-.15-.14-.15-.14-.14-.14-.15-.14-.14-.15-.15-.14-.14-.14-.15-.15-.14-.15-.15-.14-.14-.15-.15-.15-.14-.15-.14-.15-.15-.16-.14-.15-.14-.15-.15-.16-.14-.15-.14-.16-.14-.16-.15-.16-.14-.16-.14-.16-.14-.16-.14-.16-.14-.17-.14-.16-.14-.17-.14-.16-.14-.17-.14-.17-.14-.17-.14-.17-.13-.17-.14-.17-.14-.17-.14-.18-.13-.17-.14-.17-.14-.18-.13-.18-.14-.18-.13-.17-.14-.18-.13-.18-.14-.19-.13-.18-.13-.18-.14-.18-.13-.19-.13-.18-.13-.19-.13-.19-.13-.19-.13-.18-.13-.19-.13-.19-.13-.2-.13-.19-.13-.19-.13-.2-.13-.19-.12-.19-.13-.2-.13-.2-.12-.2-.13-.19-.12-.2-.13-.2-.12-.2-.13-.21-.12-.2-.12-.2-.12-.21-.12-.2-.13-.21-.12-.2-.12-.21-.12-.21-.12-.21-.11-.21-.12-.21-.12-.21-.12-.21-.11-.21-.12-.21-.11-.22-.12-.21-.11-.22-.12-.21-.11-.22-.11-.22-.12-.21-.11-.22-.11-.22-.11-.22-.11-.22-.11-.22-.1-.23-.11-.22-.11-.22-.1-.22-.11-.22-.1-.22-.1-.22-.11-.23-.1-.22-.1-.22-.1-.22-.09-.22-.1-.22-.1-.22-.09-.22-.1-.23-.09-.22-.09-.22-.1-.22-.09-.22-.09-.22-.08-.22-.09-.22-.09-.22-.09-.22-.08-.22-.09-.23-.08-.22-.08-.22-.08-.22-.09-.22-.08-.22-.07-.22-.08-.22-.08-.21-.08-.22-.07-.22-.08-.22-.07-.22-.07-.22-.07-.22-.08-.22-.07-.21-.06-.22-.07-.22-.07-.22-.07-.22-.06-.21-.07-.22-.06-.22-.06-.21-.06-.22-.07-.21-.06-.22-.06-.22-.05-.21-.06-.22-.06-.21-.05-.22-.06-.21-.05-.21-.05-.22-.06-.21-.05-.21-.05-.22-.05-.21-.05-.21-.04-.21-.05-.21-.05-.22-.04-.21-.04-.21-.05-.21-.04-.21-.04-.21-.04-.21-.04-.2-.04-.21-.04-.21-.03-.21-.04-.21-.03-.2-.04-.21-.03-.21-.03-.2-.03-.21-.03-.2-.03-.21-.03-.2-.03-.2-.03-.21-.02-.2-.03-.2-.02-.2-.03-.2-.02-.2-.02-.21-.02-.2-.02-.19-.02-.2-.02-.2v-.2s-.03-.2-.03-.2l-.02-.19v-.2s-.02-.2-.02-.2l-.02-.19v-.2s-.02-.19-.02-.19v-.19s-.02-.2-.02-.2v-.19s-.01-.19-.01-.19v-.19s-.01-.2-.01-.2v-.19s-.01-.19-.01-.19v-.18s-.01-.19-.01-.19v-.94s.01-.18.01-.18v-.37s.02-.18.02-.18v-.37s.02-.18.02-.18v-.18s.02-.18.02-.18v-.18s.02-.18.02-.18l.02-.18v-.17s.03-.18.03-.18v-.17s.03-.18.03-.18l.02-.17.02-.18.02-.17.02-.17.02-.17.02-.18.02-.17.03-.16.02-.17.03-.17.02-.17.03-.16.03-.17.03-.16.03-.17.03-.16.03-.16.03-.17.04-.16.03-.16.04-.16.03-.15.04-.16.04-.16.04-.15.04-.16.04-.15.04-.16.04-.15.05-.15.04-.15.04-.15.05-.15.05-.15.05-.15.04-.14.05-.15.05-.14.05-.15.06-.14.05-.14.05-.14.06-.14.05-.14.06-.14.06-.14.06-.13.06-.14.06-.13.06-.13.06-.14.06-.13.07-.13.06-.13.06-.13.07-.12.07-.13.07-.13.07-.12.06-.12.08-.13.07-.12.07-.12.07-.12.08-.12.07-.11.08-.12.07-.11.08-.12.08-.11.08-.11.08-.11.08-.11.08-.11.09-.11.08-.1.08-.11.09-.1.09-.11.08-.1.09-.1.09-.1.09-.1.09-.1.09-.09.1-.1.09-.09.09-.09.1-.09.09-.09.1-.09.1-.09.1-.09.1-.08.1-.09.1-.08.1-.08.05-.04.05-.04.05-.04.06-.04.05-.04.05-.04.05-.04.06-.04.05-.04.05-.03.06-.04.05-.04.05-.04.06-.03.05-.04.06-.03.05-.04.06-.04.05-.03.06-.03.05-.04.06-.03.06-.04.05-.03.06-.03.06-.04.05-.03.06-.03.06-.03.06-.03.05-.03.06-.03.06-.04.06-.03.06-.03.06-.02.06-.03.05-.03.06-.03.06-.03.06-.03.06-.02.06-.03.06-.03.06-.02.06-.03.06-.02.06-.03.07-.02.06-.03.06-.02.06-.02.06-.03.06-.02.06-.02.06-.03.06-.02.07-.02.06-.02.06-.02.06-.02.06-.02.07-.02.06-.02.06-.02.06-.02h.07s.06-.03.06-.03l.06-.02.07-.02h.06s.06-.03.06-.03l.13-.03.13-.03.13-.03.12-.03.13-.02.13-.03.13-.02.13-.02.13-.02.13-.02.13-.02h.14s.13-.03.13-.03h.13s.13-.02.13-.02h.14s.13-.02.13-.02h.13s.14-.01.14-.01h.13s.14-.01.14-.01h.13s.14-.01.14-.01h.13Z"/>
        <polygon class="cls-3" points="300.56 267.27 282.29 276.32 312.88 292.18 317.59 305.81 321.18 320.69 320.88 333.06 316.14 344.72 334.41 335.67 300.56 267.27"/>
        <path class="cls-3" d="M364.85,253.03c.77-.39,1.36-1.06,1.64-1.88.27-.82.21-1.72-.17-2.49-.38-.77-1.06-1.37-1.88-1.64-.82-.28-1.71-.22-2.49.16-9.55,4.73-39.83,19.72-49.38,24.45-.78.38-1.37,1.05-1.65,1.87-.27.82-.21,1.72.17,2.49.38.78,1.06,1.37,1.88,1.64.82.28,1.71.22,2.49-.16,9.55-4.73,39.83-19.72,49.39-24.44Z"/>
        <path class="cls-6" d="M359.47,251.87l.02.05.03.06-.06-.14v.03ZM317.96,272.81l-.02-.04-.02-.03-.02-.05-.02-.03.08.15ZM363.42,246.85h.24s.04.01.04.01h.08s.04.01.04.01h.04s.04.01.04.01h.04s.04.02.04.02h.03s.04.01.04.01h.04s.04.02.04.02h.04s.04.02.04.02h.04s.04.02.04.02h.04s.04.02.04.02l.03.02h.04s.04.02.04.02h.04s.04.03.04.03h.03s.04.03.04.03h.04s.04.03.04.03l.03.02h.04s.04.03.04.03l.03.02.04.02h.03s.04.03.04.03l.03.02.04.02.03.02.04.02.03.02.03.03.04.02.03.02.03.02.04.02.03.03.03.02.03.03.03.02.03.03.03.02.03.03.03.02.03.03.03.03.03.02.03.03.03.03.03.03.03.02.02.03.03.03.03.03.02.03.03.03.03.03.02.03.03.03.02.04.02.03.03.03.02.03.02.03.03.04.02.03.02.03.02.04.02.03.02.04.02.03.02.04.02.03.02.04.02.03.02.04.02.04v.03s.03.04.03.04l.02.04v.03s.03.04.03.04v.04s.03.04.03.04v.03s.03.04.03.04v.04s.02.04.02.04v.04s.02.03.02.03l.02.04v.04s.02.04.02.04v.04s.02.04.02.04v.07s.02.04.02.04v.04s.01.04.01.04v.04s.02.04.02.04v.08s.01.04.01.04v.08s0,.04,0,.04v.08s.01.04.01.04v.27s-.01.04-.01.04v.08s0,.04,0,.04v.08s-.01.04-.01.04v.04s-.02.04-.02.04v.08s-.02.04-.02.04v.04s-.02.04-.02.04v.08s-.02.03-.02.03l-.02.04v.04s-.02.04-.02.04v.04s-.02.04-.02.04l-.02.04v.03s-.02.04-.02.04l-.02.04v.04s-.03.03-.03.03l-.02.04v.04s-.03.03-.03.03l-.02.04v.04s-.03.03-.03.03l-.02.04-.02.03-.02.04-.02.03-.02.04-.02.03-.02.04-.02.03-.02.03-.02.04-.03.03-.02.03-.02.03-.03.03-.02.04-.03.03-.02.03-.03.03-.02.03-.03.03-.02.03-.03.03-.03.03-.03.03-.02.03-.03.02-.03.03-.03.03-.03.03-.03.02-.03.03-.03.02-.03.03-.03.03-.03.02-.03.03-.03.02-.03.02-.04.03-.03.02-.03.02-.04.02-.03.03-.03.02-.04.02-.03.02-.04.02-.03.02-.04.02-.03.02-.04.02-.03.02-49.39,24.44h-.04s-.04.03-.04.03l-.03.02h-.04s-.04.03-.04.03l-.03.02h-.04s-.04.03-.04.03h-.04s-.03.02-.03.02l-.04.02h-.04s-.04.02-.04.02h-.04s-.04.02-.04.02h-.03s-.04.02-.04.02h-.04s-.04.02-.04.02h-.04s-.04.02-.04.02h-.04s-.04.01-.04.01h-.04s-.03.02-.03.02h-.08s-.04.01-.04.01h-.04s-.04.01-.04.01h-.08s-.04.01-.04.01h-.44s-.04-.01-.04-.01h-.08s-.04-.01-.04-.01h-.04s-.04-.01-.04-.01h-.03s-.04-.02-.04-.02h-.08s-.04-.02-.04-.02h-.04s-.04-.02-.04-.02h-.04s-.04-.02-.04-.02h-.04s-.04-.02-.04-.02h-.03s-.04-.02-.04-.02l-.04-.02h-.04s-.04-.02-.04-.02l-.04-.02h-.03s-.04-.03-.04-.03h-.04s-.03-.03-.03-.03h-.04s-.04-.03-.04-.03l-.03-.02-.04-.02h-.04s-.03-.03-.03-.03l-.04-.02-.03-.02-.04-.02-.03-.02-.03-.02-.04-.02-.03-.02-.04-.03-.03-.02-.03-.02-.03-.02-.04-.03-.03-.02-.03-.02-.03-.03-.03-.02-.03-.03-.03-.02-.03-.03-.03-.03-.03-.02-.03-.03-.03-.03-.03-.03-.03-.02-.02-.03-.03-.03-.03-.03-.03-.03-.02-.03-.03-.03-.02-.03-.03-.03-.02-.03-.03-.03-.02-.04-.03-.03-.02-.03-.02-.03-.03-.04-.02-.03-.02-.03-.02-.04-.02-.03-.02-.04-.02-.03-.02-.04-.02-.03-.02-.04-.02-.03-.02-.04-.02-.04v-.03s-.03-.04-.03-.04l-.02-.04v-.03s-.03-.04-.03-.04v-.04s-.03-.03-.03-.03v-.04s-.02-.04-.02-.04l-.02-.04v-.04s-.02-.03-.02-.03v-.04s-.02-.04-.02-.04l-.02-.04v-.04s-.02-.04-.02-.04v-.07s-.02-.04-.02-.04v-.04s-.02-.04-.02-.04v-.08s-.01-.04-.01-.04v-.04s-.02-.04-.02-.04v-.12s-.01-.04-.01-.04v-.12s-.01-.03-.01-.03v-.2s.01-.04.01-.04v-.12s.01-.04.01-.04v-.04s.01-.04.01-.04v-.04s.01-.04.01-.04v-.04s.01-.04.01-.04v-.04s.02-.04.02-.04v-.04s.02-.04.02-.04v-.04s.02-.03.02-.03v-.04s.02-.04.02-.04v-.04s.02-.04.02-.04v-.04s.02-.04.02-.04l.02-.03v-.04s.03-.04.03-.04v-.04s.03-.04.03-.04v-.03s.03-.04.03-.04v-.04s.03-.03.03-.03l.02-.04v-.04s.03-.03.03-.03l.02-.04.02-.03.02-.04.02-.03.02-.04.02-.03.02-.03.02-.04.02-.03.03-.03.02-.04.02-.03.02-.03.03-.03.02-.04.03-.03.02-.03.03-.03.02-.03.03-.03.02-.03.03-.03.03-.03.03-.03.02-.02.03-.03.03-.03.03-.03.03-.02.03-.03.03-.03.03-.02.03-.03.03-.02.03-.03.03-.02.03-.03.04-.02.03-.03.03-.02.03-.02.04-.02.03-.03.03-.02.04-.02.03-.02.04-.02.03-.02.04-.02.03-.02.04-.02h.04s49.38-24.46,49.38-24.46h.04s.04-.03.04-.03l.03-.02h.04s.04-.03.04-.03h.04s.03-.03.03-.03h.04s.04-.03.04-.03h.04s.03-.02.03-.02l.04-.02h.04s.04-.02.04-.02h.04s.04-.02.04-.02h.03s.04-.02.04-.02h.04s.04-.02.04-.02h.04s.04-.02.04-.02h.08s.04-.02.04-.02h.07s.04-.01.04-.01h.04s.04-.01.04-.01h.08s.04-.01.04-.01h.2Z"/>
        <path class="cls-3" d="M387.63,299.07c.78-.38,1.37-1.06,1.64-1.87.28-.82.22-1.72-.16-2.49-.39-.78-1.06-1.37-1.88-1.64-.82-.28-1.71-.22-2.49.16-9.55,4.73-39.83,19.71-49.39,24.44-.77.39-1.36,1.06-1.64,1.88-.27.82-.21,1.71.17,2.49.38.77,1.06,1.36,1.88,1.64.82.28,1.71.22,2.48-.17,9.56-4.73,39.84-19.71,49.39-24.44Z"/>
        <path class="cls-6" d="M382.37,298.15l.03.05v.02s-.05-.12-.05-.12l.02.05ZM340.64,318.64h-.01s-.01-.05-.01-.05l-.03-.04v-.03s.05.12.05.12ZM386.21,292.89h.08s.04.01.04.01h.16s.04.01.04.01h.04s.04.01.04.01h.04s.03.01.03.01h.04s.04.02.04.02h.08s.04.02.04.02h.04s.04.02.04.02h.04s.04.02.04.02h.04s.04.02.04.02h.03s.04.02.04.02l.04.02h.04s.04.02.04.02l.03.02h.04s.04.03.04.03h.04s.03.03.03.03h.04s.04.03.04.03l.03.02.04.02h.04s.03.03.03.03l.04.02.03.02.04.02.03.02.03.02.04.02.03.02.04.02.03.03.03.02.03.02.04.03.03.02.03.02.03.03.03.02.03.03.03.02.03.03.03.03.03.02.03.03.03.03.03.02.03.03.02.03.03.03.03.03.03.03.02.03.03.03.02.03.03.03.02.03.03.03.02.03.03.04.02.03.02.03.03.03.02.04.02.03.02.04.02.03.02.03.02.04.02.03.02.04.02.03.02.04.02.04.02.03v.04s.03.04.03.04l.02.03v.04s.03.04.03.04v.04s.03.03.03.03v.04s.02.04.02.04l.02.04v.03s.02.04.02.04v.04s.02.04.02.04v.04s.02.04.02.04v.04s.02.03.02.03v.04s.02.04.02.04v.04s.02.04.02.04v.08s.01.04.01.04v.04s.01.04.01.04v.04s.01.04.01.04v.04s.01.03.01.03v.16s.01.04.01.04v.12s-.01.04-.01.04v.16s-.01.04-.01.04v.04s-.01.04-.01.04v.04s-.01.04-.01.04v.04s-.02.04-.02.04v.08s-.02.04-.02.04v.04s-.02.03-.02.03v.04s-.02.04-.02.04v.04s-.02.04-.02.04v.04s-.02.04-.02.04l-.02.04v.03s-.02.04-.02.04l-.02.04v.04s-.03.03-.03.03v.04s-.03.04-.03.04v.04s-.03.03-.03.03l-.02.04-.02.03v.04s-.03.04-.03.04l-.02.03-.02.04-.02.03-.02.03-.02.04-.02.03-.02.04-.02.03-.03.03-.02.04-.02.03-.03.03-.02.03-.02.03-.03.04-.02.03-.03.03-.02.03-.03.03-.03.03-.02.03-.03.03-.03.02-.02.03-.03.03-.03.03-.03.03-.03.02-.03.03-.03.03-.03.02-.03.03-.03.02-.03.03-.03.02-.03.03-.04.02-.03.02-.03.03-.03.02-.04.02-.03.02-.04.03-.03.02-.03.02-.04.02-.03.02-.04.02-.03.02h-.04s-.04.03-.04.03l-49.39,24.44-.03.02-.04.02-.04.02h-.03s-.04.03-.04.03h-.04s-.03.03-.03.03h-.04s-.04.03-.04.03h-.04s-.03.02-.03.02l-.04.02h-.04s-.04.02-.04.02h-.04s-.04.02-.04.02h-.03s-.04.02-.04.02h-.04s-.04.02-.04.02h-.04s-.04.01-.04.01h-.04s-.04.02-.04.02h-.08s-.04.02-.04.02h-.11s-.04.01-.04.01h-.08s-.04.01-.04.01h-.36s-.04-.01-.04-.01h-.08s-.04-.01-.04-.01h-.08s-.04-.02-.04-.02h-.08s-.04-.02-.04-.02h-.07s-.04-.02-.04-.02h-.04s-.04-.02-.04-.02h-.04s-.04-.02-.04-.02h-.04s-.04-.02-.04-.02l-.03-.02h-.04s-.04-.02-.04-.02l-.04-.02h-.04s-.04-.02-.04-.02l-.03-.02-.04-.02h-.04s-.03-.03-.03-.03h-.04s-.04-.03-.04-.03l-.03-.02-.04-.02-.03-.02h-.04s-.03-.03-.03-.03l-.04-.02-.03-.02-.04-.02-.03-.03-.03-.02-.04-.02-.03-.02-.03-.02-.04-.03-.03-.02-.03-.02-.03-.03-.03-.02-.03-.03-.03-.02-.04-.03-.03-.02-.02-.03-.03-.03-.03-.02-.03-.03-.03-.03-.03-.03-.03-.03-.02-.02-.03-.03-.03-.03-.02-.03-.03-.03-.03-.03-.02-.03-.03-.04-.02-.03-.02-.03-.03-.03-.02-.03-.03-.04-.02-.03-.02-.03-.02-.04-.02-.03-.02-.03-.03-.04-.02-.03-.02-.04v-.03s-.03-.04-.03-.04l-.02-.03-.02-.04-.02-.04-.02-.03v-.04s-.03-.04-.03-.04v-.03s-.03-.04-.03-.04v-.04s-.03-.04-.03-.04v-.03s-.03-.04-.03-.04v-.04s-.02-.04-.02-.04v-.04s-.03-.03-.03-.03v-.04s-.02-.04-.02-.04v-.04s-.02-.04-.02-.04v-.04s-.01-.04-.01-.04v-.04s-.02-.03-.02-.03v-.04s-.01-.04-.01-.04v-.04s-.02-.04-.02-.04v-.08s-.01-.04-.01-.04v-.04s-.01-.04-.01-.04v-.12s-.01-.04-.01-.04v-.28s.01-.04.01-.04v-.08s.01-.03.01-.03v-.08s.01-.04.01-.04v-.04s.02-.04.02-.04v-.08s.02-.04.02-.04v-.04s.01-.04.01-.04v-.04s.02-.04.02-.04v-.04s.02-.03.02-.03l.02-.04v-.04s.02-.04.02-.04v-.04s.03-.04.03-.04v-.04s.02-.03.02-.03l.02-.04v-.04s.03-.04.03-.04v-.03s.03-.04.03-.04l.02-.04v-.03s.03-.04.03-.04l.02-.03.02-.04.02-.03.02-.04.02-.03.02-.04.02-.03.02-.04.02-.03.02-.03.02-.04.03-.03.02-.03.02-.03.03-.04.02-.03.03-.03.02-.03.03-.03.02-.03.03-.03.02-.03.03-.03.03-.03.02-.03.03-.03.03-.02.03-.03.03-.03.03-.03.03-.02.03-.03.03-.03.03-.02.03-.03.03-.02.03-.03.03-.02.03-.02.04-.03.03-.02.03-.02.04-.03.03-.02.03-.02.04-.02.03-.02.04-.02.03-.02.04-.02.03-.02.04-.02.03-.02,49.39-24.44.04-.02h.04s.03-.03.03-.03l.04-.02h.04s.03-.03.03-.03h.04s.04-.03.04-.03h.04s.03-.02.03-.02l.04-.02h.04s.04-.02.04-.02h.04s.03-.02.03-.02h.04s.04-.02.04-.02h.04s.04-.02.04-.02h.04s.04-.02.04-.02h.04s.04-.02.04-.02h.07s.04,0,.04,0h.04s.04-.01.04-.01h.04s.04-.01.04-.01h.04s.04-.01.04-.01h.16s.04-.01.04-.01h.04Z"/>
      </g>
      <path class="cls-1" d="M346.58,192.18c-11.98-13.65-40.01-7.2-68.26-6.03-23.78.99-48.36-5.29-57.05,4.87-15.83,18.5-6.31,118.54,10.51,137.07,23.07,25.43,89.22,12.61,102.26,7.92,25.35-7.62,31.12-121.62,12.54-143.83Z"/>
      <path class="cls-2" d="M268.8,355c46.66,0,84.54,4.1,84.54,9.16s-37.88,9.15-84.54,9.15-84.53-4.1-84.53-9.15,37.88-9.16,84.53-9.16Z"/>
      <path class="cls-6" d="M252.37,249.43c6.19,0,11.22,5.03,11.22,11.22s-5.03,11.21-11.22,11.21-11.21-5.02-11.21-11.21,5.02-11.22,11.21-11.22Z"/>
      <path class="cls-8" d="M301.18,309.47c-19.34,0-35.4-10.17-36.12-10.63-3.21-2.06-4.14-6.34-2.08-9.55,2.06-3.21,6.32-4.14,9.53-2.08.24.15,15.22,9.51,31.49,8.35,8.01-.57,15.11-3.66,21.08-9.18,2.8-2.59,7.17-2.42,9.76.39,2.59,2.8,2.42,7.17-.39,9.76-8.34,7.71-18.26,12.02-29.48,12.82-1.28.09-2.55.13-3.8.13Z"/>
      <circle class="cls-8" cx="342" cy="258.82" r="10.2"/>
      <path class="cls-7" d="M330.77,360.5c-1.63,0-3.28-.49-4.72-1.5-3.69-2.61-4.57-7.72-1.96-11.41,1.69-2.39,3.57-5.82,2.98-8.63-.45-2.12-2.31-3.5-2.32-3.51-3.88-2.33-5.13-7.36-2.8-11.24,2.33-3.88,7.36-5.13,11.24-2.8.81.49,8,5.03,9.92,14.18,1.45,6.89-.45,14.11-5.64,21.45-1.6,2.26-4.12,3.46-6.69,3.46Z"/>
      <path class="cls-7" d="M197.22,298.56c-3.53,0-6.5-2.77-6.73-6.34-.39-5.97,1.76-17.71,12.24-23.87,3.21-1.89,7.34-.82,9.23,2.4,1.89,3.21.81,7.34-2.4,9.23-5.91,3.47-5.63,11.11-5.61,11.43.24,3.72-2.58,6.89-6.3,7.13-.15,0-.29.01-.44.01Z"/>
      <path class="cls-1" d="M365.67,312.16c4.03-2.09,8.46-1.54,9.89,1.22,1.43,2.76-.67,6.7-4.7,8.79-4.03,2.09-8.47,1.54-9.9-1.22-1.43-2.76.68-6.7,4.71-8.79Z"/>
      <path class="cls-7" d="M218.96,348.56c-3.79,0-7.2-2.65-8.01-6.51-.93-4.43,1.91-8.77,6.34-9.69,3.9-.82,8.09-1.8,9.6-2.91.99-.73,1.98-2.49,3.96-6.11,1-1.82,2.24-4.08,3.8-6.72,2.3-3.89,7.32-5.18,11.22-2.88,3.89,2.3,5.18,7.32,2.88,11.22-1.43,2.41-2.55,4.46-3.54,6.26-6.04,11.01-9.03,13.91-24.56,17.17-.57.12-1.13.18-1.69.18Z"/>
      <polygon class="cls-1" points="368.24 301.35 354.11 308.37 357.15 314.2 371.48 307.08 368.24 301.35"/>
      <path class="cls-9" d="M381.72,273.9c-1.41,0-2.76-.79-3.41-2.14-.91-1.88-.12-4.14,1.77-5.05l13.88-6.69c1.89-.91,4.14-.12,5.05,1.77.91,1.88.12,4.14-1.77,5.05l-13.88,6.69c-.53.25-1.09.38-1.64.38Z"/>
      <path class="cls-5" d="M357.23,232.34s-29.78.65-31.97-31.6c-39.63,62.79-117.08,42.64-117.08,42.64l3.93-36.43,6.24-25.34c17.01-4.83,38.65-5.94,57.04-3.92,12.79,1.4,30.33-5.95,46.49-16.29l30.49,28.95,4.86,41.99Z"/>
    </g>
  </g>
</svg>