<?xml version="1.0" encoding="UTF-8"?>
<svg xmlns="http://www.w3.org/2000/svg" viewBox="0 0 500 500">
  <defs>
    <style>
      .cls-1 {
        fill-rule: evenodd;
      }

      .cls-1, .cls-2, .cls-3, .cls-4, .cls-5, .cls-6 {
        stroke-width: 0px;
      }

      .cls-1, .cls-5 {
        fill: #fff;
      }

      .cls-2 {
        fill: #282c33;
      }

      .cls-3 {
        fill: #869eb4;
      }

      .cls-4 {
        fill: #272c32;
      }

      .cls-6 {
        fill: #e65b0a;
      }
    </style>
  </defs>
  <g id="stiker_style" data-name="stiker style">
    <path class="cls-5" d="M357.95,147.84c-4.61-7.23-11.73-12.28-20.06-14.24-7.68-2.14-15.92-1.59-23.33,1.58-9.78,4.32-13.41,10.85-14.73,15.6-1.13,3.83-.77,7.89,1.01,11.46,1.87,3.74,5.26,6.44,9.3,7.43.38.1.77.18,1.16.24-.92,1.59-1.59,3.32-1.98,5.11l-1.48,5.8c-1.26,3.86-1.19,8.04.17,11.88-1.44.95-2.71,2.11-3.78,3.43-6.49-18.16-23.37-33.43-70.87-34.28-35.41-.67-56.58,4.57-68.67,16.98-14.3,14.69-13.3,36.67-12.25,59.95.26,5.61.61,10.97,1.03,16.06-2.87-.12-5.71.61-8.22,2.13-3.35,2.04-5.71,5.26-6.63,9.07-3.09,12.7-.68,24.41-.39,25.7,1.47,6.68,7.5,11.53,14.33,11.53,1.06,0,2.12-.12,3.16-.34,1.75-.39,3.35-1.08,4.77-2,.31,1.2.61,2.32.91,3.34,1.91,6.54,4.47,13.91,10.69,20.39-.54,10.89.62,18.48,1.41,22.21-1.2,2.06-1.4,4.03-1.4,5.15.05,9.99,13.13,11.8,20.16,12.77,9.77,1.35,24.14,2.18,43.94,2.56,10.21.19,18.93.32,26.39.32,25.03,0,35.84-1.47,41.08-6.99,2.63-2.78,3.47-6.48,2.26-9.9-1.51-4.26-5.48-6.97-13.71-8.94,1.54-8.03,2.05-11.88,1.49-18.25,3.64-3.92,5.54-7.73,6.77-10.21h0c1.26-2.53,2.53-7.55,3.7-14.03,1.9,1.77,4.23,3.02,6.83,3.59,1.04.23,2.1.34,3.17.34,6.84,0,12.87-4.85,14.33-11.53.29-1.29,2.7-13-.39-25.7-.93-3.81-3.28-7.03-6.63-9.07-3.35-2.04-7.3-2.65-11.11-1.72-.49.12-.97.26-1.44.43.53-9.9.64-19.12.14-25.85-.13-1.81-.25-3.64-.37-5.46-.03-.43-.05-.86-.08-1.29l.66-1.36c1.18.66,2.46,1.18,3.82,1.55,4.37,1.2,9.09.53,12.96-1.82,3.88-2.26,6.73-6.04,7.82-10.4,1.1-4.22.47-8.58-1.49-12.25,1.59-1.39,2.95-3.01,4.01-4.81,9.84-1.14,18.77-7.18,23.32-16.22,4.82-9.56,4.12-21.03-1.81-29.94Z"/>
  </g>
  <g id="Bubus">
    <g>
      <path class="cls-3" d="M297.87,355.2c-4.72,4.97-27.61,4.81-61.51,4.17-39.68-.75-56.23-3.42-56.25-7.37,0-6.57,29.97-6.49,56.54-6.43,39.93.1,66.23,4.34,61.22,9.63Z"/>
      <path class="cls-2" d="M233.22,169.86c-74.17-1.4-74.8,24.02-72.78,68.57,1.41,30.79,5.6,53.18,8.65,63.62,4.49,15.39,11.65,31.07,62.12,31.07,50.47,0,58.25-15.53,62.12-23.3,3.88-7.77,9.54-55.82,7.77-79.38-2.12-28.4.68-59.35-67.89-60.58Z"/>
      <path class="cls-2" d="M276.21,349.19c-4.26,0-7.76-3.52-7.76-7.78,0-.49.04-.98.14-1.46q2.23-11.43.32-24.45l15.39-2.34-7.68,1.13,7.69-1.06c2.24,15.21,2.23,16.04-.43,29.65-.71,3.65-3.96,6.31-7.67,6.3Z"/>
      <path class="cls-2" d="M189.22,352.58c-3.44,0-6.49-2.29-7.45-5.6-.37-1.29-3.53-13.14-.51-33.59.56-3.8,3.86-6.65,7.69-6.65,4.27,0,7.78,3.51,7.78,7.78,0,.38-.03.76-.08,1.13-2.55,17.24,0,26.95,0,27.05.2.7.3,1.42.3,2.14,0,4.26-3.51,7.77-7.76,7.77h0l.04-.04Z"/>
      <path class="cls-1" d="M287.8,256.63c5.4,0,9.79,4.39,9.79,9.8,0,5.41-4.39,9.8-9.79,9.8s-9.79-4.39-9.79-9.8c0-5.41,4.39-9.8,9.79-9.8Z"/>
      <path class="cls-1" d="M195.43,258.03c6.18,0,11.19,5.02,11.19,11.2s-5.02,11.2-11.19,11.2c-6.18,0-11.2-5.02-11.2-11.2,0-6.18,5.03-11.2,11.2-11.2Z"/>
      <path class="cls-5" d="M287.8,204.85c5.46,4.37,7,13.9,7,23.79,0,8.4-1.4,15.4-12.6,14-11.19-1.4-69.97-.94-90.97,1.4-12.59,1.4-12.59-27.99-5.59-37.79,8.28-11.59,46.05-10.9,61.58-9.8,19.59,1.4,33.58,2.8,40.58,8.4Z"/>
      <path class="cls-5" d="M261.16,190.25h-.35s-1.54-.1-1.54-.1q-19.89-1.26-43.08-.63h-2.42c-.13,0-.26.01-.39.01-3.02,0-5.51-2.49-5.51-5.51,0-3.03,2.49-5.51,5.51-5.51.03,0,.06,0,.09,0h2.42q23.7-.64,44.09.64l1.54.1c2.87.2,5.12,2.62,5.12,5.5,0,3.01-2.47,5.49-5.47,5.51h-.02Z"/>
      <path class="cls-1" d="M250.81,291.57c6.48,1.18,10.56,8.66,9.1,16.7-1.47,8.04-7.92,13.6-14.39,12.42-6.48-1.18-10.56-8.66-9.1-16.7,1.47-8.04,7.92-13.6,14.39-12.42Z"/>
      <path class="cls-6" d="M315.52,183.1l1.6-6.28c.28-1.45.91-2.8,1.82-3.95.87-.85,2.02-1.38,3.22-1.51,1.19-.14,2.39-.16,3.58-.08,1.27.09,2.54.05,3.79-.13,1.83-.13,3.57-.81,5-1.96,1.34-1.2,2.26-2.79,2.66-4.54.46-1.75.15-3.61-.84-5.12-.97-1.62-2.56-2.78-4.39-3.23-1.61-.45-3.3-.51-4.94-.19-1.95.5-3.8,1.34-5.48,2.48l-1.17.72c-3.47,2.28-6.23,3.14-8.31,2.6-1.77-.42-3.27-1.61-4.09-3.25-.88-1.76-1.04-3.79-.47-5.67,1.23-4.51,4.65-8.01,10.28-10.49,5.72-2.45,12.11-2.86,18.1-1.15,6.34,1.45,11.86,5.36,15.35,10.86,4.38,6.53,4.9,14.95,1.36,21.97-4.04,8.02-12.63,12.76-21.57,11.91l-.13.26c-.52,2.59-1.92,4.93-3.95,6.61-2.37,1.6-5.43,1.79-7.98.5-1.41-.71-2.58-1.83-3.35-3.22-.87-2.3-.91-4.84-.1-7.16Z"/>
      <path class="cls-6" d="M308.78,204.53c.56-2.32,2.07-4.31,4.16-5.48,2.06-1.21,4.54-1.53,6.85-.87.61.16,1.2.38,1.75.66,3.75,1.89,5.69,6.18,4.61,10.24-.57,2.33-2.08,4.32-4.16,5.5-2.02,1.25-4.47,1.61-6.76.98-4.79-1.29-7.68-6.27-6.43-11.07l-.02.04Z"/>
      <path class="cls-4" d="M152.56,295.3c.48,0,.96-.05,1.44-.16,3.6-.79,5.88-4.35,5.1-7.95-.04-.17-1.66-8.1.28-16.07.87-3.59-1.33-7.2-4.91-8.08-3.59-.88-7.2,1.33-8.08,4.91-2.7,11.11-.45,21.64-.35,22.09.69,3.12,3.45,5.25,6.52,5.25Z"/>
      <path class="cls-4" d="M314.18,295.3c3.07,0,5.84-2.13,6.52-5.25.1-.44,2.35-10.97-.35-22.09-.87-3.59-4.48-5.79-8.08-4.91-3.59.87-5.79,4.49-4.91,8.08,1.95,8.01.3,15.98.28,16.05-.79,3.61,1.49,7.17,5.09,7.96.48.11.97.16,1.44.16Z"/>
    </g>
    <g>
      <path class="cls-5" d="M312.55,203.38c.11-.44.39-.81.79-1.03.39-.23.85-.28,1.29-.16.11.03.23.07.33.13.71.36,1.07,1.18.85,1.94-.11.44-.39.81-.78,1.03-.38.24-.85.3-1.28.18-.89-.25-1.43-1.19-1.19-2.09Z"/>
      <path class="cls-5" d="M312.75,151.58l-.3-.15c-.51-.43-.65-1.15-.35-1.74.05-.1.11-.19.17-.27,2.39-2.71,5.61-4.57,9.14-5.3.32-.07.66-.03.96.12.7.36.98,1.23.63,1.93-.19.38-.55.65-.96.74-2.93.6-5.59,2.13-7.57,4.37-.44.48-1.15.61-1.72.3Z"/>
    </g>
  </g>
</svg>