<?xml version="1.0" encoding="UTF-8"?>
<svg xmlns="http://www.w3.org/2000/svg" viewBox="0 0 500 500">
  <defs>
    <style>
      .cls-1, .cls-2, .cls-3, .cls-4, .cls-5, .cls-6, .cls-7, .cls-8 {
        stroke-width: 0px;
      }

      .cls-1, .cls-2, .cls-3, .cls-4, .cls-5, .cls-8 {
        fill-rule: evenodd;
      }

      .cls-1, .cls-6 {
        fill: #343a41;
      }

      .cls-2 {
        fill: #869eb4;
      }

      .cls-3 {
        fill: #ffc55f;
      }

      .cls-4 {
        fill: #ffac00;
      }

      .cls-5, .cls-7 {
        fill: #fff;
      }

      .cls-8 {
        fill: #1e2021;
        opacity: .3;
      }
    </style>
  </defs>
  <g id="stiker_style" data-name="stiker style">
    <path class="cls-7" d="M401.47,231.9c.05-.27.1-.54.14-.81.12-.79.23-1.57.33-2.35.02-.13.04-.25.05-.38.16-1.32.27-2.63.35-3.93.09-1.38.15-2.75.16-4.12.02-3.55-.24-7.06-.78-10.57-2.45-16.12-10.85-32.55-25.66-50.23-3.67-4.38-7.79-8.43-12.24-12.03,0,0,0,0,0,0,0,0,0,0,0,0l-1.17-.95-.08-.02c-7.57-5.93-16.03-10.65-25.2-14.03-7.05-2.59-14.09-4.59-20.95-5.97-.75-.15-1.5-.29-2.26-.42-33.82-6.09-60.65,3.76-77.63,28.47-23,33.49-38.3,38.26-53.1,42.87-9.24,2.88-18.8,5.85-28.42,15.34-12.24,12.06-14.94,26.82-17.12,38.68-2.7,14.76-4.32,19.65-13.16,21.18-12.33,2.12-21.92,9.2-25.65,18.94-2.31,6.04-2.07,12.42.51,17.8l-.19.6,2.64,3.33c3.11,3.93,7.58,6.7,12.93,8.02,3.61.88,7.6,1.11,11.95.66.7-.08,1.39-.1,2.08-.07,4.19.19,6.29,2.79,9.34,8.94.44.88.89,1.83,1.37,2.86.16.34.32.69.49,1.04.33.7.67,1.4,1.01,2.11.17.35.35.71.53,1.06,2.17,4.25,4.84,8.48,8.96,11.42,1.65,1.18,3.42,2.08,5.3,2.69,1.88.61,3.88.94,5.99.99,3.69.08,7.73-.7,12.09-2.36.62-.24,1.25-.49,1.89-.76,8.17-3.49,13.87-6.79,18.04-9.21,6.06-3.52,7.58-4.23,9.86-3.78,4.27.85,12.17,5.72,23.52,13.3.98.66,1.97,1.27,2.97,1.85-1.54,1.73-2.44,3.84-2.44,6.46,0,9.85,12.68,12.59,24.57,14.38,11.84,1.79,27.49,2.78,44.06,2.78s32.21-.99,44.06-2.78c11.89-1.8,24.57-4.54,24.57-14.38,0-5.78-4.37-9.11-10.39-11.24.25-4.26.05-8.24-.41-11.85,1.71-1.36,3.31-2.85,4.79-4.47,1.38-1.52,2.68-3.39,3.91-5.55.46,5.74-1.09,11.06-1.09,11.06-2.44,7.73,1.85,16.02,9.57,18.48,1.46.47,2.96.7,4.49.7,6.44,0,12.09-4.12,14.04-10.25.41-1.27,3.92-12.78,1.99-25.84-.58-3.89-2.63-7.33-5.79-9.68-3.17-2.35-7.06-3.33-10.95-2.75-2.08.31-3.99,1.05-5.67,2.1,3.23-10.57,5.65-23.2,7.31-35.66,8.04-5.64,14.46-11.97,17.71-19.54t0,0c2.13-4.97,3.82-9.75,5.07-14.38.02-.08.04-.15.06-.23.68-2.55,1.22-5.05,1.64-7.52Z"/>
  </g>
  <g id="Bubus">
    <g>
      <path class="cls-3" d="M387.34,250.88c-10.47,24.45-70.03,37.88-78.95,55.43-8.92,17.57-40.35,61.38-76.55,37.24-36.21-24.16-27.63-14.4-59-1.01-29.99,12.81-20.59-27.62-43.49-28.63-1.04-.05-2.14-.02-3.31.11-3.5.36-6.55.16-9.16-.48-3.81-.94-6.66-2.82-8.56-5.22-6.93-8.76-1.16-24.56,17.77-27.82,27.71-4.79,11.61-39.46,34.53-62.05,22.39-22.06,43.63-2.76,82.5-59.37,18.52-26.96,46.64-29.27,69.62-25.13.72.13,1.42.26,2.13.4,7.33,1.47,14.07,3.55,19.74,5.63,8.64,3.18,16.87,7.78,24.18,13.71,4.02,3.25,7.76,6.91,11.14,10.95,29.19,34.83,28.71,59.88,17.41,86.24Z"/>
      <path class="cls-4" d="M387.34,250.88c-10.47,24.45-70.03,37.88-78.95,55.43-8.92,17.57-40.35,61.38-76.55,37.24-36.21-24.16-27.63-14.4-59-1.01-29.99,12.81-20.59-27.62-43.49-28.63-1.04-.05-2.14-.02-3.31.11-3.5.36-6.55.16-9.16-.48-3.81-.94-6.66-2.82-8.56-5.22.38-1.2.62-1.82.62-1.82,0,0,22.59-12.69,40.66-8.48,18.07,4.22,39.53-7.22,35.58-31.15-3.95-23.92,22.89-63.46,64.01-65.6,41.11-2.14,106.08-22.63,108-48.08,0,0,.56.17,1.6.5,4.02,3.25,7.76,6.91,11.14,10.95,29.19,34.83,28.71,59.88,17.41,86.24Z"/>
      <path class="cls-8" d="M296.56,349.36c-33.47,0-60.63,4.1-60.63,9.15s27.16,9.16,60.63,9.16c33.46,0,60.63-4.11,60.63-9.16s-27.17-9.15-60.63-9.15Z"/>
      <path class="cls-6" d="M255.14,357.99c-3.58,0-6.87-2.37-7.88-5.99-1.24-4.46-1.56-11.13-.95-19.81.29-4.18.7-7.29.72-7.42.59-4.48,4.72-7.64,9.19-7.04,4.48.59,7.63,4.71,7.04,9.19h0s-.36,2.77-.62,6.42c-.67,9.52.13,13.32.39,14.25,1.21,4.36-1.33,8.87-5.69,10.09-.74.21-1.48.3-2.2.3Z"/>
      <path class="cls-6" d="M337.75,361.25c-.56,0-1.13-.06-1.7-.18-4.42-.94-7.25-5.28-6.31-9.71,2.82-13.3-2.7-24.17-2.76-24.28-2.13-3.99-.61-8.93,3.37-11.06,3.99-2.13,8.96-.6,11.09,3.38.34.65,8.4,16.03,4.31,35.35-.82,3.85-4.22,6.49-8,6.49Z"/>
      <path class="cls-1" d="M238.45,189.67c22.05-25.15,106.29-23.37,125.3-1.16,15.83,18.5,6.31,118.54-10.5,137.07-23.08,25.43-89.23,12.61-102.26,7.92-25.36-7.62-31.13-121.62-12.54-143.83Z"/>
      <path class="cls-5" d="M249.19,201.27c16.8-9.81,82.65-12.96,100.95-.82,10.07,6.68,11.62,43.28-.35,41.74-27.88-3.6-86.12-3.35-102.7-1.52-8.29.92-8.25-33.36,2.1-39.4Z"/>
      <path class="cls-7" d="M260.48,197.34c-3.05,0-5.82-2.09-6.56-5.19-.86-3.62,1.38-7.26,5.01-8.12,31.36-7.43,60.96-1.73,62.2-1.48,3.65.72,6.03,4.27,5.31,7.92-.72,3.65-4.27,6.03-7.92,5.31-.35-.07-28.1-5.35-56.48,1.38-.52.12-1.05.18-1.56.18Z"/>
      <path class="cls-6" d="M376.05,347.65c-.68,0-1.37-.1-2.05-.32-3.54-1.13-5.5-4.91-4.38-8.45.04-.14,2.42-7.96,1.21-16.17-.54-3.68,2-7.11,5.68-7.66,3.69-.55,7.11,2,7.66,5.68,1.69,11.43-1.56,21.79-1.7,22.23-.91,2.87-3.57,4.7-6.42,4.7Z"/>
      <path class="cls-6" d="M218.59,278.91c-2.08,0-4.03-1.27-4.8-3.34-3.9-10.46-2.93-20.91-2.89-21.35.28-2.82,2.77-4.88,5.6-4.6,2.81.28,4.87,2.78,4.6,5.59h0c0,.08-.76,8.61,2.29,16.78.99,2.65-.36,5.6-3.01,6.59-.59.22-1.19.32-1.79.32Z"/>
      <path class="cls-4" d="M349.99,169.98c-21.89-17.46-48.8-20.12-60.11-5.94-.39.49-.76,1-1.1,1.52-10.37-1.79-22.81-.53-35.18,4.24-26.13,10.07-42.02,31.95-35.5,48.87,6.52,16.93,32.99,22.49,59.11,12.42,10.07-3.88,18.61-9.52,24.94-15.95,2.12,2.15,4.4,4.22,6.87,6.19,21.89,17.46,48.8,20.12,60.11,5.94,11.31-14.18,2.74-39.83-19.15-57.29Z"/>
      <path class="cls-3" d="M249.19,201.27c32.37-1.68,79.52-14.75,99.05-32.65-21.55-16.23-47.35-18.39-58.36-4.59-.39.49-.76,1-1.1,1.52-10.37-1.79-22.81-.53-35.18,4.24-22.69,8.74-37.65,26.39-36.93,41.97,9.28-5.88,20.26-9.86,32.51-10.49Z"/>
      <g>
        <path class="cls-5" d="M245.52,272.92c0,.14-.02.27-.02.41,0,6.19,5.02,11.21,11.21,11.21s11.22-5.02,11.22-11.21c0-.14-.02-.27-.02-.41h-22.39Z"/>
        <path class="cls-1" d="M263.92,272.92c0,3.98-3.23,7.21-7.21,7.21s-7.21-3.23-7.21-7.21h14.42Z"/>
        <ellipse class="cls-7" cx="261.4" cy="274.89" rx=".72" ry="1.25"/>
        <path class="cls-5" d="M257.45,272.92c0,.69-.65,1.25-1.45,1.25s-1.46-.56-1.46-1.25h2.91Z"/>
        <path class="cls-5" d="M312.58,272.92c0,.14-.02.27-.02.41,0,6.19,5.02,11.21,11.21,11.21s11.22-5.02,11.22-11.21c0-.14-.02-.27-.02-.41h-22.39Z"/>
        <path class="cls-1" d="M330.99,272.92c0,3.98-3.23,7.21-7.21,7.21s-7.21-3.23-7.21-7.21h14.42Z"/>
        <ellipse class="cls-7" cx="328.46" cy="274.89" rx=".72" ry="1.25"/>
        <path class="cls-5" d="M324.52,272.92c0,.69-.65,1.25-1.45,1.25s-1.46-.56-1.46-1.25h2.91Z"/>
        <path class="cls-7" d="M302.51,302.81c-3.43-2.72-8.34-4.72-12.46-2.39,0,0-.29.15-.29.15l-.26-.19c-3.24-2.33-7.72-2.45-11.35-.96-3.13,1.5.13-.51,1.5-1,3.42-1.34,7.44-.99,10.47,1.18,0,0-.55-.05-.55-.05,4.41-2.49,9.83-.26,12.95,3.26h0Z"/>
        <path class="cls-7" d="M299.62,311.96c-4.8,4.89-13.25,7-18.4,1.48-.69-.67-1.21-1.51-1.79-2.27,5.97,6.58,13.37,5.29,20.19.8h0Z"/>
        <path class="cls-7" d="M294.6,308.52c-3.51-.41-6.79-.8-10.31-.64,3.21-1.56,7.26-1.11,10.31.64h0Z"/>
        <path class="cls-7" d="M241.81,257.09c8.82,3.69,20.72,6.94,28.38-.71-.77,1.02-1.68,1.95-2.71,2.74-7.71,5.41-18.22,2.42-25.67-2.04h0Z"/>
        <path class="cls-7" d="M271.83,251.86c2.33,3.02,2.35,7.71,0,10.73.98-3.58.99-7.11,0-10.73h0Z"/>
        <path class="cls-7" d="M309.66,255.11c.1,3.13-.17,6.4,1.13,9.32-2.51-1.95-2.45-6.69-1.13-9.32h0Z"/>
        <path class="cls-7" d="M314.04,256.38c.5.23.99.48,1.48.73h-.11c3.65-1.51,7.4-2.73,11.21-3.74,3.8-.9,7.76-2.03,11.7-1.5-.99.02-1.95.12-2.91.34-4.16.82-10.09,2.58-14.21,3.67-1.93.49-3.84,1.04-5.78,1.5-.47-.32-.93-.65-1.38-.99h0Z"/>
        <path class="cls-7" d="M323.94,261.75c2.41-2.24,6.69-2.38,9.04,0-3.02-1.03-5.96-.9-9.04,0h0Z"/>
      </g>
      <path class="cls-3" d="M387.34,250.88c-10.47,24.45-70.03,37.88-78.95,55.43-8.92,17.57-40.35,61.38-76.55,37.24-36.21-24.16-27.63-14.4-59-1.01-29.99,12.81-20.59-27.62-43.49-28.63-1.04-.05-2.14-.02-3.31.11-3.5.36-6.55.16-9.16-.48-3.81-.94-6.66-2.82-8.56-5.22-6.93-8.76-1.16-24.56,17.77-27.82,27.71-4.79,11.61-39.46,34.53-62.05,22.39-22.06,43.63-2.76,82.5-59.37,18.52-26.96,46.64-29.27,69.62-25.13.72.13,1.42.26,2.13.4,7.33,1.47,14.07,3.55,19.74,5.63,8.64,3.18,16.87,7.78,24.18,13.71,4.02,3.25,7.76,6.91,11.14,10.95,29.19,34.83,28.71,59.88,17.41,86.24Z"/>
      <path class="cls-4" d="M387.34,250.88c-10.47,24.45-70.03,37.88-78.95,55.43-8.92,17.57-40.35,61.38-76.55,37.24-36.21-24.16-27.63-14.4-59-1.01-29.99,12.81-20.59-27.62-43.49-28.63-1.04-.05-2.14-.02-3.31.11-3.5.36-6.55.16-9.16-.48-3.81-.94-6.66-2.82-8.56-5.22.38-1.2.62-1.82.62-1.82,0,0,22.59-12.69,40.66-8.48,18.07,4.22,39.53-7.22,35.58-31.15-3.95-23.92,22.89-63.46,64.01-65.6,41.11-2.14,106.08-22.63,108-48.08,0,0,.56.17,1.6.5,4.02,3.25,7.76,6.91,11.14,10.95,29.19,34.83,28.71,59.88,17.41,86.24Z"/>
      <path class="cls-2" d="M296.56,349.36c-33.47,0-60.63,4.1-60.63,9.15s27.16,9.16,60.63,9.16c33.46,0,60.63-4.11,60.63-9.16s-27.17-9.15-60.63-9.15Z"/>
      <path class="cls-6" d="M255.14,357.99c-3.58,0-6.87-2.37-7.88-5.99-1.24-4.46-1.56-11.13-.95-19.81.29-4.18.7-7.29.72-7.42.59-4.48,4.72-7.64,9.19-7.04,4.48.59,7.63,4.71,7.04,9.19h0s-.36,2.77-.62,6.42c-.67,9.52.13,13.32.39,14.25,1.21,4.36-1.33,8.87-5.69,10.09-.74.21-1.48.3-2.2.3Z"/>
      <path class="cls-6" d="M337.75,361.25c-.56,0-1.13-.06-1.7-.18-4.42-.94-7.25-5.28-6.31-9.71,2.82-13.3-2.7-24.17-2.76-24.28-2.13-3.99-.61-8.93,3.37-11.06,3.99-2.13,8.96-.6,11.09,3.38.34.65,8.4,16.03,4.31,35.35-.82,3.85-4.22,6.49-8,6.49Z"/>
      <path class="cls-1" d="M238.45,189.67c22.05-25.15,106.29-23.37,125.3-1.16,15.83,18.5,6.31,118.54-10.5,137.07-23.08,25.43-89.23,12.61-102.26,7.92-25.36-7.62-31.13-121.62-12.54-143.83Z"/>
      <path class="cls-5" d="M249.19,201.27c16.8-9.81,82.65-12.96,100.95-.82,10.07,6.68,11.62,43.28-.35,41.74-27.88-3.6-86.12-3.35-102.7-1.52-8.29.92-8.25-33.36,2.1-39.4Z"/>
      <path class="cls-7" d="M260.48,197.34c-3.05,0-5.82-2.09-6.56-5.19-.86-3.62,1.38-7.26,5.01-8.12,31.36-7.43,60.96-1.73,62.2-1.48,3.65.72,6.03,4.27,5.31,7.92-.72,3.65-4.27,6.03-7.92,5.31-.35-.07-28.1-5.35-56.48,1.38-.52.12-1.05.18-1.56.18Z"/>
      <path class="cls-6" d="M376.05,347.65c-.68,0-1.37-.1-2.05-.32-3.54-1.13-5.5-4.91-4.38-8.45.04-.14,2.42-7.96,1.21-16.17-.54-3.68,2-7.11,5.68-7.66,3.69-.55,7.11,2,7.66,5.68,1.69,11.43-1.56,21.79-1.7,22.23-.91,2.87-3.57,4.7-6.42,4.7Z"/>
      <path class="cls-6" d="M218.59,278.91c-2.08,0-4.03-1.27-4.8-3.34-3.9-10.46-2.93-20.91-2.89-21.35.28-2.82,2.77-4.88,5.6-4.6,2.81.28,4.87,2.78,4.6,5.59h0c0,.08-.76,8.61,2.29,16.78.99,2.65-.36,5.6-3.01,6.59-.59.22-1.19.32-1.79.32Z"/>
      <path class="cls-4" d="M349.99,169.98c-21.89-17.46-48.8-20.12-60.11-5.94-.39.49-.76,1-1.1,1.52-10.37-1.79-22.81-.53-35.18,4.24-26.13,10.07-42.02,31.95-35.5,48.87,6.52,16.93,32.99,22.49,59.11,12.42,10.07-3.88,18.61-9.52,24.94-15.95,2.12,2.15,4.4,4.22,6.87,6.19,21.89,17.46,48.8,20.12,60.11,5.94,11.31-14.18,2.74-39.83-19.15-57.29Z"/>
      <path class="cls-3" d="M249.19,201.27c32.37-1.68,79.52-14.75,99.05-32.65-21.55-16.23-47.35-18.39-58.36-4.59-.39.49-.76,1-1.1,1.52-10.37-1.79-22.81-.53-35.18,4.24-22.69,8.74-37.65,26.39-36.93,41.97,9.28-5.88,20.26-9.86,32.51-10.49Z"/>
      <g>
        <path class="cls-5" d="M245.52,272.92c0,.14-.02.27-.02.41,0,6.19,5.02,11.21,11.21,11.21s11.22-5.02,11.22-11.21c0-.14-.02-.27-.02-.41h-22.39Z"/>
        <path class="cls-1" d="M263.92,272.92c0,3.98-3.23,7.21-7.21,7.21s-7.21-3.23-7.21-7.21h14.42Z"/>
        <ellipse class="cls-7" cx="261.4" cy="274.89" rx=".72" ry="1.25"/>
        <path class="cls-5" d="M257.45,272.92c0,.69-.65,1.25-1.45,1.25s-1.46-.56-1.46-1.25h2.91Z"/>
        <path class="cls-5" d="M312.58,272.92c0,.14-.02.27-.02.41,0,6.19,5.02,11.21,11.21,11.21s11.22-5.02,11.22-11.21c0-.14-.02-.27-.02-.41h-22.39Z"/>
        <path class="cls-1" d="M330.99,272.92c0,3.98-3.23,7.21-7.21,7.21s-7.21-3.23-7.21-7.21h14.42Z"/>
        <ellipse class="cls-7" cx="328.46" cy="274.89" rx=".72" ry="1.25"/>
        <path class="cls-5" d="M324.52,272.92c0,.69-.65,1.25-1.45,1.25s-1.46-.56-1.46-1.25h2.91Z"/>
        <path class="cls-7" d="M302.51,302.81c-3.43-2.72-8.34-4.72-12.46-2.39,0,0-.29.15-.29.15l-.26-.19c-3.24-2.33-7.72-2.45-11.35-.96-3.13,1.5.13-.51,1.5-1,3.42-1.34,7.44-.99,10.47,1.18,0,0-.55-.05-.55-.05,4.41-2.49,9.83-.26,12.95,3.26h0Z"/>
        <path class="cls-7" d="M299.62,311.96c-4.8,4.89-13.25,7-18.4,1.48-.69-.67-1.21-1.51-1.79-2.27,5.97,6.58,13.37,5.29,20.19.8h0Z"/>
        <path class="cls-7" d="M294.6,308.52c-3.51-.41-6.79-.8-10.31-.64,3.21-1.56,7.26-1.11,10.31.64h0Z"/>
        <path class="cls-7" d="M241.81,257.09c8.82,3.69,20.72,6.94,28.38-.71-.77,1.02-1.68,1.95-2.71,2.74-7.71,5.41-18.22,2.42-25.67-2.04h0Z"/>
        <path class="cls-7" d="M271.83,251.86c2.33,3.02,2.35,7.71,0,10.73.98-3.58.99-7.11,0-10.73h0Z"/>
        <path class="cls-7" d="M309.66,255.11c.1,3.13-.17,6.4,1.13,9.32-2.51-1.95-2.45-6.69-1.13-9.32h0Z"/>
        <path class="cls-7" d="M314.04,256.38c.5.23.99.48,1.48.73h-.11c3.65-1.51,7.4-2.73,11.21-3.74,3.8-.9,7.76-2.03,11.7-1.5-.99.02-1.95.12-2.91.34-4.16.82-10.09,2.58-14.21,3.67-1.93.49-3.84,1.04-5.78,1.5-.47-.32-.93-.65-1.38-.99h0Z"/>
        <path class="cls-7" d="M323.94,261.75c2.41-2.24,6.69-2.38,9.04,0-3.02-1.03-5.96-.9-9.04,0h0Z"/>
      </g>
    </g>
  </g>
</svg>