<?xml version="1.0" encoding="UTF-8"?>
<svg xmlns="http://www.w3.org/2000/svg" viewBox="0 0 500 500">
  <defs>
    <style>
      .cls-1 {
        fill: #282c33;
      }

      .cls-1, .cls-2, .cls-3, .cls-4 {
        stroke-width: 0px;
      }

      .cls-2 {
        fill: #272c32;
      }

      .cls-3 {
        fill: #fff;
      }

      .cls-4 {
        fill: #e75c0b;
      }
    </style>
  </defs>
  <g id="stiker_style" data-name="stiker style">
    <g>
      <path class="cls-3" d="M382.94,196.62c-.59-5.95-5.7-10.36-11.63-10.05-2.65.08-5.32.37-7.92.85-1.68.29-3.22.96-4.56,1.94-1.62-1.18-3.55-1.87-5.61-1.98l-.41-.09-1.32.13c-3.48.35-6.98.67-10.48.95,4.74-1.97,9.45-3.97,14.07-5.93,3.74-1.59,7.48-3.18,11.22-4.75,3.9-1.64,6.56-5.17,7.11-9.45.56-4.37-1.15-8.64-4.44-11.14-3.04-2.31-7.02-2.77-10.66-1.25-3.85,1.61-7.69,3.24-11.53,4.87-4.28,1.82-8.65,3.67-13.03,5.5l5.87-8.09c1.41-1.95,2.15-4.18,2.27-6.42,1.96-.26,3.87-1.04,5.5-2.38h0c.52-.44,1-.92,1.43-1.44l.52-.69s2.43-3.65,3.82-5.7c.11-.16.21-.32.32-.46,3.75-3.79,4.49-9.91,1.75-14.59-2.55-4.37-7.5-6.41-12.33-5.09l-.23.06c-2.76.73-5.13,2.54-6.58,4.97-1.08,1.37-1.93,2.75-2.7,4-.54.88-1.06,1.72-1.53,2.33-1.52,1.95-2.36,4.23-2.54,6.55-2.75.37-5.35,1.88-7.2,4.42l-7.2,9.93c.47-3.5.99-7,1.55-10.47,1-6.32-3.37-12.29-9.75-13.31-6.1-.97-11.43,2.91-12.41,9.01-1.23,7.67-2.28,15.49-3.12,23.21-.43,3.96,1.15,7.67,4.24,9.94,1.93,1.41,4.26,2.14,6.64,2.14,1.61,0,3.25-.33,4.79-1.01.27-.12.52-.27.78-.4.8,2.2,2.23,4.19,4.26,5.67,1.42,1.03,2.98,1.67,4.55,1.93-.17,1.9.09,3.87.85,5.77,1.54,3.83,4.7,6.28,8.32,6.87-1.87,2.26-2.9,5.3-2.67,8.6.41,6.11,4.98,10.5,10.78,10.5.26,0,.52,0,.79-.03,6.18-.43,12.43-.95,18.58-1.57,2.57-.26,4.89-1.38,6.67-3.13,1.75,1.04,3.76,1.61,5.84,1.61.85,0,1.72-.09,2.58-.29,1.13-.2,2.28-.32,3.43-.36,5.77.07,10.73-4.26,11.31-10.08l.08-.79-.08-.79ZM369.24,194.7c-.57.05-1.13.11-1.7.17.21-.4.46-.78.77-1.1.35.26.66.57.93.93ZM368.98,201.63c-.39-.28-.72-.64-1.01-1.03.62-.09,1.24-.16,1.87-.21-.13.26-.28.51-.45.75-.13.17-.26.34-.41.49Z"/>
      <path class="cls-3" d="M349.45,261.21l-.11-.08c-.14-.11-.29-.21-.46-.33-5.93-4.1-14.06-2.69-18.26,3.14-2.17,2.81-4.71,5.26-7.54,7.34,1.43-33.61-2.6-72-15.13-86.01l-2.39-2.67h-.35c-7.01-6.18-17.23-10.88-30.43-13.99-12.76-3-27.71-4.34-43.24-3.88-25.87.77-58.07,7.09-70.89,22.51-12.96,15.59-9.58,60.23-7.52,78.7.34,3.03.73,6.13,1.16,9.27-3.71-2.25-6.97-5.1-9.69-8.5-5.05-6.43-14.28-7.87-20.98-3.32-.27.18-.54.37-.8.57-3.14,2.4-5.16,5.87-5.69,9.79-.53,3.92.5,7.8,2.9,10.95l.08.1c5.68,7.2,12.65,13.08,20.71,17.47l.13.07c2.29,1.19,4.74,1.76,7.16,1.76,3.88,0,7.67-1.46,10.56-4.15,4.1,18.49,9.89,35.14,17.33,42.82,3.62,3.74,8.13,6.93,13.4,9.49.56.48,1.15.92,1.76,1.32,13.32,8.96,19.03,16.69,19.79,17.77,3,4.85,8.16,7.71,13.89,7.71.07,0,.15,0,.22,0,6.3-.08,12.27-3.52,15.2-8.77,1.78-3.2,2.31-6.75,1.6-10.25,15.51-.79,29.28-3.31,37.09-5,4.67,2.77,5.68,3.85,11.38,9.99,3.16,3.41,7.72,5.41,12.51,5.49,4.57.08,8.77-1.59,11.83-4.68l.16-.17c2.56-2.75,3.9-6.33,3.78-10.08-.12-3.64-1.62-7.02-4.21-9.56-2.55-2.74-4.53-4.86-6.38-6.66,6.8-10.68,10.57-26.8,12.67-41.58,1.3.57,2.69.97,4.14,1.1.39.03.77.05,1.15.05,2.2,0,4.36-.55,6.31-1.61l.11-.06c7.69-4.36,14.29-10.15,19.61-17.22l.12-.17c4.25-5.96,3.07-14.16-2.7-18.67Z"/>
    </g>
  </g>
  <g id="Bubus">
    <g>
      <g id="Group_25" data-name="Group 25">
        <path id="Fill_1-2" data-name="Fill 1-2" class="cls-2" d="M301.99,190.57c-24.45-26.1-115.26-22.21-135.18,1.76-16.58,19.96-3.67,125.64,14.95,144.85,25.57,26.38,96.56,11.22,110.5,5.95,27.15-8.67,30.36-129.49,9.73-152.56"/>
        <path id="Fill_3" data-name="Fill 3" class="cls-3" d="M254.19,302.87c-35.98-.57-42.13-13.09-48.82-7.5-5.4,4.52-4.16,24.98,17.73,38.53,14.76,9.13,39.42,8.58,53.12.89,11.9-6.69,25.55-23.45,20.17-40.65-2.14-6.89-16.93,9.12-42.23,8.73"/>
        <path id="Fill_5" data-name="Fill 5" class="cls-3" d="M297.17,273.86c2.47.98,4.38,3,5.22,5.53.62,1.55,2.53.87,2.76-1.06.05-.28.09-.58.12-.87.8-4.62-.96-9.32-4.6-12.28-5.32-3.29-11.96,1.2-14.13,9.02-.5,1.81.98,3.11,2.16,2.04,2.13-2.36,5.43-3.28,8.48-2.38"/>
        <path id="Fill_7-2" data-name="Fill 7-2" class="cls-3" d="M199.53,279.63c2.58-.75,5.35-.45,7.71.83.3.15.64.22.98.21,1.23-.09,2.16-1.16,2.08-2.39-.01-.24-.06-.48-.14-.71v-.14c-1.57-6.05-7.56-9.84-13.7-8.67-6.51,2.21-10.04,9.25-7.92,15.79.06.23.12.46.21.69.21,1.03,1.12,1.77,2.18,1.75.8-.04,1.51-.52,1.83-1.26,1.29-2.9,3.75-5.12,6.77-6.1"/>
        <path id="Fill_9" data-name="Fill 9" class="cls-3" d="M245.2,257.68c24.64-.94,48.89-.91,58.97-.04,8.97.77,8.01-35.53-3.31-41.69"/>
        <path id="Fill_9-2" data-name="Fill 9" class="cls-3" d="M300.86,215.95c-18.4-9.99-89.57-11.74-109,1.55-10.68,7.31-11.39,46.1,1.48,44.18,13.14-1.96,32.61-3.28,51.85-4.01"/>
        <path id="Fill_11-2" data-name="Fill 11-2" class="cls-3" d="M215.16,199.67c-3.13-.24-5.76-2.46-6.51-5.52-.83-3.79,1.57-7.53,5.36-8.35.06-.01.13-.03.19-.04,22.33-4.14,45.23-4.08,67.53.15,3.85.71,6.39,4.41,5.68,8.25,0,.04-.01.07-.02.11-.93,3.87-4.78,6.28-8.67,5.41-20.27-3.76-41.05-3.82-61.34-.16-.73.15-1.48.2-2.22.13"/>
        <g id="Group_19" data-name="Group 19">
          <g id="Group_19-2" data-name="Group 19-2">
            <path id="Fill_17" data-name="Fill 17" class="cls-2" d="M155.35,287.79c.31,1.56.05,3.19-.74,4.58-2.03,3.45-6.41,4.7-9.96,2.85-7.06-3.85-13.28-9.09-18.26-15.4-2.28-2.98-1.7-7.25,1.28-9.52.12-.09.24-.18.37-.26,3.32-2.25,7.81-1.54,10.28,1.62,3.65,4.56,8.14,8.37,13.25,11.21,1.95.97,3.34,2.79,3.78,4.93"/>
          </g>
        </g>
        <path id="Fill_20-2" data-name="Fill 20-2" class="cls-1" d="M300.91,362.23c-1.79-.41-3.42-1.33-4.68-2.66q-7.86-8.46-19.77-15.23l4.09-5.65,4.13-5.63-4.13,5.63,4.2-5.58c13.92,7.91,14.6,8.43,23.97,18.51,2.45,2.29,2.58,6.12.29,8.57-.38.41-.82.76-1.3,1.05-2.05,1.22-4.5,1.58-6.81.99"/>
        <g id="Group_24" data-name="Group 24">
          <g id="Group_24-2" data-name="Group 24-2">
            <path id="Fill_22" data-name="Fill 22" class="cls-1" d="M224.87,371.06c-2.92-.12-5.59-1.65-7.18-4.09-.17-.25-6.23-9.43-22.12-20.1-3.69-2.33-4.79-7.21-2.46-10.9.12-.2.26-.39.4-.57,3-3.71,8.34-4.51,12.3-1.85,19.13,12.85,26.35,24,27.11,25.23,2.29,3.71,1.14,8.58-2.58,10.87-.21.13-.42.24-.63.35-1.49.79-3.16,1.16-4.84,1.07"/>
          </g>
        </g>
      </g>
      <g id="Group_15" data-name="Group 15">
        <path id="Fill_1-3" data-name="Fill 1-3" class="cls-4" d="M361.4,163.2c-11.56,4.84-23.05,9.84-34.66,14.52-4.09,1.65-2.32,8.75,1.82,7.09,11.61-4.67,23.1-9.68,34.64-14.52,4.06-1.7,2.3-8.81-1.81-7.08"/>
        <path id="Fill_3-2" data-name="Fill 3-2" class="cls-4" d="M328.62,148.35l-12.91,17.79c-2.57,3.54,1.92,8.63,4.52,5.06l12.91-17.79c2.57-3.54-1.93-8.63-4.52-5.06"/>
        <g id="Group_7" data-name="Group 7">
          <g id="Group_7-2" data-name="Group 7-2">
            <path id="Fill_5-2" data-name="Fill 5-2" class="cls-4" d="M342.69,142.73c1.09-1.36,2.08-2.79,2.98-4.28.43-1.01,1.03-1.94,1.76-2.75,2.93-2.28,1.15-7.68-2.44-6.66l-.25.07c-.88.23-1.6.86-1.95,1.7-1.74,2.01-2.95,4.64-4.58,6.76-1.19,1.51-1.19,3.65,0,5.16,1.02,1.23,2.85,1.41,4.08.39.14-.12.27-.25.39-.39"/>
          </g>
        </g>
        <path id="Fill_8" data-name="Fill 8" class="cls-4" d="M302.24,140.08c-1.22,7.58-2.24,15.19-3.06,22.82-.47,4.28,6.11,4.25,6.58,0,.77-7.04,1.72-14.05,2.84-21.04.67-4.21-5.68-6.03-6.36-1.78"/>
        <g id="Group_12" data-name="Group 12">
          <g id="Group_12-2" data-name="Group 12-2">
            <path id="Fill_10" data-name="Fill 10" class="cls-4" d="M352.31,195.35c-6.1.62-12.2,1.14-18.32,1.55-4.04.27-4.07,7.39,0,7.11,6.11-.42,12.22-.94,18.33-1.55,4.02-.4,4.06-7.52,0-7.11"/>
          </g>
        </g>
        <path id="Fill_13-2" data-name="Fill 13-2" class="cls-4" d="M371.65,194.53c-2.3.07-4.59.31-6.85.74-1.56.25-2.63,1.72-2.38,3.28.01.08.03.16.05.23.69,1.59,2.43,2.43,4.11,1.99,1.68-.31,3.37-.49,5.08-.53,1.7.09,3.18-1.17,3.34-2.87-.17-1.69-1.64-2.95-3.34-2.84"/>
      </g>
      <path id="Fill_15" data-name="Fill 15" class="cls-2" d="M325.56,290.89c-1.84-.17-3.46-1.29-4.28-2.95-1.37-2.7-.36-6,2.29-7.47,5.23-3.01,9.82-7.02,13.5-11.8,1.64-2.37,4.9-2.97,7.28-1.32.06.04.13.09.19.14,2.38,1.86,2.87,5.26,1.12,7.72-4.63,6.15-10.47,11.28-17.16,15.07-.9.49-1.92.7-2.94.62"/>
    </g>
  </g>
</svg>