<?xml version="1.0" encoding="UTF-8"?>
<svg xmlns="http://www.w3.org/2000/svg" viewBox="0 0 500 500">
  <defs>
    <style>
      .cls-1, .cls-2, .cls-3, .cls-4 {
        fill-rule: evenodd;
      }

      .cls-1, .cls-2, .cls-3, .cls-4, .cls-5, .cls-6, .cls-7, .cls-8 {
        stroke-width: 0px;
      }

      .cls-1, .cls-5 {
        fill: #272c32;
      }

      .cls-2 {
        fill: #869eb4;
      }

      .cls-3 {
        fill: #bfbfbf;
      }

      .cls-4, .cls-8 {
        fill: #fff;
      }

      .cls-6 {
        fill: #bababa;
      }

      .cls-7 {
        fill: #fdfdfd;
      }
    </style>
  </defs>
  <g id="stiker_style" data-name="stiker style">
    <path class="cls-8" d="M375.06,256.09c-.71-7.19-7.12-12.46-14.31-11.77-1.27.12-2.48.43-3.61.88.46-7.54.63-15.24.48-22.88-.31-16.08-2.38-44.92-12.73-57.29l-.12-.14c-17.4-19.83-58.27-21.13-70.4-21.06-24.25.15-54.58,5.47-67,19.98-8.27,9.66-10.13,31.56-10.01,50.31-6.26-2.31-12.9-3.38-19.58-3.02-1.52-1.94-3.51-3.53-5.86-4.58-3.73-1.67-8.03-1.92-12.1-.72-8.37,2.48-13.5,10.46-12,18.26-5.62,5.33-10.03,12.06-12.88,19.77l-.34.02-.85,3.31c-3.73,2.05-6.76,5.6-8.17,10.15v.02c-2.39,7.77.76,15.85,7.12,19.39.35,1.65.76,3.29,1.25,4.93,1.17,3.91,2.7,7.61,4.53,11.07-1.04,2.07-1.65,4.39-1.65,6.85,0,8.7,7.35,15.77,16.38,15.77,1.8,0,3.52-.29,5.14-.81,8.26,5.31,17.72,8.28,27.37,8.28,4.49,0,9.03-.64,13.5-1.98h0c6.89-2.07,12.97-5.62,18.08-10.23.24.29.48.59.73.86,1.47,1.62,3.07,3.11,4.78,4.47-.46,3.61-.66,7.59-.41,11.85-6.02,2.13-10.39,5.46-10.39,11.24,0,9.85,12.69,12.59,24.57,14.38,11.84,1.79,27.49,2.77,44.07,2.77s32.22-.98,44.06-2.77c11.89-1.79,24.57-4.53,24.57-14.38,0-5.79-4.38-9.12-10.41-11.25.38-3.81.41-8.29.13-13.44,4.17-4.99,7.68-12.31,10.61-22.07.54-1.8,1.05-3.69,1.54-5.63,1.09.89,2.32,1.61,3.68,2.11,1.48.55,3.02.83,4.59.83,5.45,0,10.39-3.43,12.3-8.53,4.47-11.96,3.49-23.64,3.36-24.95Z"/>
  </g>
  <g id="Bubus">
    <g>
      <path class="cls-3" d="M162.08,213.48c4.64-1.37,9.36.74,10.53,4.7,1.17,3.97-1.64,8.3-6.28,9.67-4.64,1.37-9.35-.73-10.53-4.7-1.17-3.97,1.64-8.3,6.28-9.67Z"/>
      <path class="cls-3" d="M196.91,313.16c-22.86,6.86-47.65-8.29-55.31-33.81-2.09-6.97-2.7-14-2-20.67.25-2.46.69-4.87,1.29-7.21,3.73-14.59,13.92-26.51,28.24-30.81,22.86-6.86,47.64,8.29,55.31,33.81,7.66,25.53-4.67,51.82-27.53,58.69Z"/>
      <path class="cls-4" d="M146.64,264.38l-7.03-5.7c.25-2.46.69-4.87,1.29-7.21,9.75-.62,5.74,12.91,5.74,12.91Z"/>
      <path class="cls-3" d="M133.21,259.68c1.43-4.62,5.79-7.39,9.75-6.17,3.95,1.22,6.01,5.96,4.59,10.58-1.43,4.62-5.79,7.39-9.75,6.17-3.95-1.22-6.01-5.96-4.59-10.58Z"/>
      <path class="cls-4" d="M179.01,229.04c17.89-5.37,37.26,6.42,43.24,26.32,5.97,19.9-3.7,40.41-21.59,45.78s-37.27-6.42-43.24-26.32c-5.98-19.9,3.7-40.41,21.59-45.78Z"/>
      <path class="cls-7" d="M149.25,248c-.2,0-.39-.05-.58-.14-.61-.32-.85-1.08-.53-1.69.3-.57,7.39-14.01,14.41-17.52.62-.31,1.37-.06,1.68.56.31.62.06,1.37-.56,1.68-6.3,3.15-13.24,16.31-13.31,16.44-.22.43-.66.67-1.11.67Z"/>
      <path class="cls-6" d="M195.72,270.22c-.06,0-.12,0-.19,0-.75-.06-1.43-.45-1.85-1.07l-16.15-23.6c-.77-1.12-.48-2.66.64-3.43,1.13-.77,2.66-.48,3.43.64l14.41,21.06,8.4-9c.93-1,2.49-1.05,3.49-.12,1,.93,1.05,2.49.12,3.49l-10.5,11.25c-.47.5-1.12.78-1.8.78Z"/>
      <path class="cls-1" d="M338.75,170.17c-22.06-25.14-106.29-23.37-125.31-1.16-15.83,18.5-6.31,118.54,10.51,137.07,23.07,25.44,89.22,12.61,102.26,7.92,25.35-7.62,31.12-121.62,12.54-143.84Z"/>
      <path class="cls-2" d="M280.64,329.86c33.46,0,60.63,4.1,60.63,9.16s-27.17,9.15-60.63,9.15-60.64-4.1-60.64-9.15,27.17-9.16,60.64-9.16Z"/>
      <path class="cls-8" d="M294.08,295.85c-14.63,0-28.2-5.6-35.91-10.55-3.21-2.06-4.14-6.34-2.08-9.55,2.06-3.21,6.33-4.14,9.53-2.08.17.11,8.2,5.14,18.86,7.38,13.42,2.82,24.76.06,33.71-8.21,2.8-2.59,7.17-2.42,9.76.39,2.59,2.8,2.42,7.17-.39,9.76-10.31,9.53-22.22,12.86-33.5,12.86Z"/>
      <path class="cls-4" d="M335.39,192.43c-16.81-9.81-82.66-12.96-100.96-.82-10.07,6.68-11.61,43.28.35,41.74,27.88-3.6,86.12-3.35,102.7-1.52,8.29.92,8.25-33.36-2.09-39.4Z"/>
      <path class="cls-8" d="M316.72,177.85c-.52,0-1.04-.06-1.56-.18-28.42-6.74-56.22-1.43-56.49-1.38-3.65.72-7.2-1.66-7.92-5.31-.72-3.65,1.65-7.19,5.3-7.92,1.25-.25,30.85-5.95,62.21,1.49,3.62.86,5.87,4.49,5.01,8.12-.73,3.1-3.5,5.19-6.56,5.19Z"/>
      <path class="cls-1" d="M153.2,291.8c4.62,0,8.37,3.48,8.37,7.77s-3.75,7.77-8.37,7.77-8.38-3.48-8.38-7.77,3.75-7.77,8.38-7.77Z"/>
      <path class="cls-5" d="M359.4,281.57c-.6,0-1.2-.1-1.79-.33-2.65-.99-4-3.94-3.01-6.59,3.05-8.17,2.3-16.7,2.29-16.78-.26-2.81,1.8-5.31,4.61-5.58,2.82-.27,5.31,1.78,5.59,4.59.04.44,1.02,10.9-2.89,21.36-.77,2.06-2.72,3.33-4.8,3.33Z"/>
      <path class="cls-8" d="M338.56,249.63c2.4.91,4.28,2.82,5.15,5.22.59,1.43,2.56.9,2.86-.83.06-.25.11-.52.14-.78.73-4.74-1-9.3-4.29-11.3-5.34-3.2-12.28.56-14.75,7.52-.58,1.62.88,2.86,2.13,1.95,2.41-2.07,5.73-2.74,8.76-1.78Z"/>
      <path class="cls-8" d="M243.29,252.64c2.63-.6,5.38-.21,7.74,1.1.3.15.64.23.98.23,1.19,0,2.17-.98,2.17-2.17,0-.23-.03-.46-.11-.68v-.13c-1.74-6.05-7.72-9.94-13.45-8.76-6.32,1.28-10.21,7.9-8.58,14.63.04.22.1.43.17.65.2,1.02,1.1,1.75,2.13,1.75.79,0,1.52-.43,1.9-1.12,1.47-2.74,4.03-4.74,7.05-5.5Z"/>
      <path class="cls-5" d="M322.05,338.49c-.73,0-1.47-.1-2.2-.3-4.36-1.21-6.9-5.73-5.69-10.09.26-.94,1.06-4.74.39-14.25-.26-3.66-.62-6.41-.62-6.44-.59-4.48,2.57-8.6,7.05-9.19,4.48-.59,8.6,2.56,9.19,7.04.02.13.43,3.25.72,7.43.61,8.67.29,15.33-.95,19.8-1.01,3.62-4.3,5.99-7.88,5.99Z"/>
      <path class="cls-5" d="M239.44,341.75c-3.79,0-7.19-2.64-8-6.5-4.08-19.32,3.96-34.69,4.31-35.34,2.13-3.99,7.09-5.5,11.08-3.37,3.98,2.12,5.49,7.06,3.39,11.04-.14.28-5.54,11.08-2.75,24.29.93,4.42-1.9,8.77-6.32,9.7-.57.12-1.14.18-1.7.18Z"/>
    </g>
  </g>
</svg>