<?xml version="1.0" encoding="UTF-8"?>
<svg xmlns="http://www.w3.org/2000/svg" viewBox="0 0 500 500">
  <defs>
    <style>
      .cls-1, .cls-2, .cls-3 {
        fill-rule: evenodd;
      }

      .cls-1, .cls-2, .cls-3, .cls-4, .cls-5, .cls-6 {
        stroke-width: 0px;
      }

      .cls-1, .cls-5 {
        fill: #272c32;
      }

      .cls-2 {
        fill: #869eb4;
      }

      .cls-3, .cls-6 {
        fill: #fff;
      }

      .cls-4 {
        fill: #282c33;
      }
    </style>
  </defs>
  <g id="stiker_style" data-name="stiker style">
    <path class="cls-6" d="M353.44,194.77c-2-2.88-5-4.81-8.45-5.44-3.45-.63-6.94.13-9.82,2.13-2.77,1.92-4.66,4.78-5.35,8.05-3.6-18.54-8.75-31.24-15.3-37.72l-.13-.13c-19.17-18.11-59.99-15.58-72.04-14.38-24.13,2.42-53.84,10.56-64.85,26.17-11.03,15.66-4.98,57.6-1.87,74.9.71,3.93,1.51,7.98,2.41,12.07-3.38-.11-6.8.93-9.63,3.22h0c-8.93,7.25-14.8,9.86-15.11,10-7.35,2.98-10.98,11.37-8.08,18.77,2.2,5.62,7.51,9.25,13.54,9.25,1.81,0,3.59-.34,5.29-1,1.52-.59,9.44-3.95,21.22-13.27,4.65,14.15,10.32,26.25,16.68,32.06,1.19,1.09,2.48,2.12,3.84,3.08-.23,5-1.53,8.53-1.6,8.73-.4.97-.7,1.97-.91,2.98-5.9,1.76-12.24,5.03-12.24,11.84,0,9.85,12.69,12.59,24.57,14.38,11.84,1.79,27.49,2.77,44.07,2.77s32.22-.98,44.06-2.77c11.89-1.79,24.57-4.53,24.57-14.38,0-5.34-3.73-8.59-9.05-10.74.05-.13.09-.26.14-.4,1.76-5.41,2.46-12.54,2.18-22.44,0-.06,0-.11,0-.17,5.44-7.19,12.32-23.31,12.78-59,.09-7.25-.11-14.62-.57-21.89,3.33-.04,6.49-1.32,8.91-3.63,10.16-9.71,12.61-21.88,12.86-23.24.63-3.45-.13-6.94-2.13-9.82ZM288.08,327.15c-.16.94-.24,1.87-.24,2.8-3.17-.24-6.47-.45-9.87-.6,3.68-.71,7.08-1.47,10.11-2.2Z"/>
  </g>
  <g id="Bubus">
    <path class="cls-2" d="M259.7,336.93c33.46,0,60.63,4.1,60.63,9.16s-27.17,9.15-60.63,9.15-60.64-4.1-60.64-9.15,27.17-9.16,60.64-9.16Z"/>
    <g>
      <path class="cls-4" d="M158.76,293.67c-2.61,0-5.08-1.58-6.09-4.16-1.31-3.35.33-7.13,3.68-8.46.17-.07,6.84-2.85,17.11-11.19,2.8-2.28,6.92-1.85,9.2.96,2.28,2.8,1.85,6.92-.96,9.2-11.93,9.68-19.71,12.87-20.56,13.2-.78.31-1.59.45-2.38.45Z"/>
      <path class="cls-1" d="M308.9,167.47c-24.31-22.97-108.01-13.31-124.86,10.59-14.02,19.9,4.83,118.61,23.31,135.48,25.36,23.16,90.01,4.19,102.55-1.69,24.53-9.97,19.59-124.01-1-144.38Z"/>
      <path class="cls-3" d="M307.64,189.95c-17.65-8.2-83.5-5.16-100.59,8.65-9.39,7.59-7.5,44.17,4.26,41.51,27.43-6.19,85.44-11.4,102.11-11.13,8.34.14,5.09-33.99-5.78-39.03Z"/>
      <path class="cls-6" d="M227.84,181.35c-2.93,0-5.63-1.92-6.48-4.88-1.03-3.58,1.03-7.31,4.61-8.34,1.22-.35,30.33-8.61,62.23-4.16,3.69.51,6.26,3.92,5.75,7.61-.51,3.69-3.92,6.26-7.61,5.75-28.96-4.04-56.36,3.68-56.63,3.76-.62.18-1.25.26-1.86.26Z"/>
      <path class="cls-5" d="M304.03,338.13c-.84,0-1.7-.13-2.54-.4-4.3-1.4-6.65-6.02-5.25-10.32.3-.92,1.26-4.67.99-14.22-.1-3.67-.34-6.44-.34-6.47-.39-4.5,2.94-8.48,7.44-8.87,4.5-.39,8.47,2.94,8.87,7.44.01.13.28,3.25.4,7.44.25,8.83-.34,15.29-1.79,19.74-1.13,3.46-4.33,5.65-7.78,5.65Z"/>
      <path class="cls-1" d="M342.65,202.24s-1.64,9.05-9.01,16.09"/>
      <path class="cls-5" d="M333.64,223.46c-1.35,0-2.7-.53-3.71-1.58-1.96-2.05-1.88-5.29.17-7.25,6-5.73,7.49-13.22,7.51-13.3.5-2.79,3.17-4.64,5.96-4.13,2.79.5,4.63,3.17,4.13,5.96-.08.44-2.03,10.78-10.51,18.88-.99.95-2.27,1.42-3.54,1.42Z"/>
      <path class="cls-5" d="M219.17,345.61c-1.07,0-2.15-.21-3.19-.65-4.15-1.76-6.09-6.54-4.36-10.69.11-.28,4.53-11.53.58-24.42-1.33-4.32,1.1-8.9,5.43-10.23,4.32-1.33,8.9,1.1,10.23,5.43,5.79,18.88-.85,34.91-1.14,35.58-1.32,3.12-4.35,4.99-7.54,4.99Z"/>
      <path class="cls-3" d="M207.11,259.98c-.32-2.08.98-9.56,7.82-11.97,6.24-2.21,13.13,3.34,13.59,5.67.35,1.8-4.74-.87-12.42,1.08-6.2,1.57-8.46,8.67-8.99,5.22Z"/>
      <path class="cls-3" d="M319.05,250.12c.1-2.23-1.69-10-7.8-11.83-5.58-1.67-11.03,4.91-11.22,7.43-.15,1.94,4.4-1.9,10.9-.69,5.73,1.07,7.96,8.79,8.12,5.09Z"/>
      <path class="cls-3" d="M270.73,271.42c-33.58,2.46-40.35-8.76-46.12-2.97-4.66,4.68-1.81,23.75,19.72,34.62,14.51,7.33,37.45,4.77,49.58-3.57,10.54-7.25,21.88-24.09,15.45-39.76-2.57-6.27-15.03,9.96-38.63,11.68Z"/>
    </g>
  </g>
</svg>