<?xml version="1.0" encoding="UTF-8"?>
<svg xmlns="http://www.w3.org/2000/svg" xmlns:xlink="http://www.w3.org/1999/xlink" viewBox="0 0 500 500">
  <defs>
    <style>
      .cls-1 {
        opacity: .2;
      }

      .cls-1, .cls-2, .cls-3, .cls-4, .cls-5, .cls-6, .cls-7, .cls-8, .cls-9, .cls-10, .cls-11, .cls-12, .cls-13, .cls-14, .cls-15, .cls-16, .cls-17, .cls-18 {
        stroke-width: 0px;
      }

      .cls-1, .cls-13 {
        fill: #47596c;
      }

      .cls-2 {
        fill: url(#Dégradé_sans_nom_2);
      }

      .cls-3 {
        fill: #000c1a;
        mix-blend-mode: darken;
        opacity: .3;
      }

      .cls-4 {
        opacity: .1;
      }

      .cls-4, .cls-5 {
        fill: #e6eef2;
      }

      .cls-5 {
        opacity: .09;
      }

      .cls-6, .cls-7, .cls-8, .cls-9, .cls-10 {
        fill-rule: evenodd;
      }

      .cls-6, .cls-15 {
        fill: #415369;
      }

      .cls-7, .cls-16 {
        fill: #212c3b;
      }

      .cls-8, .cls-12 {
        fill: #353a42;
      }

      .cls-9 {
        fill: #869eb4;
      }

      .cls-10, .cls-18 {
        fill: #fff;
      }

      .cls-19 {
        isolation: isolate;
      }

      .cls-11 {
        fill: #343a41;
      }

      .cls-14 {
        fill: #458bd9;
      }

      .cls-17 {
        fill: #7e8a9a;
      }
    </style>
    <linearGradient id="Dégradé_sans_nom_2" data-name="Dégradé sans nom 2" x1="75.67" y1="574.65" x2="79.42" y2="574.65" gradientTransform="translate(423.29 -273.38) rotate(18.69)" gradientUnits="userSpaceOnUse">
      <stop offset="0" stop-color="#fff"/>
      <stop offset="1" stop-color="#000"/>
    </linearGradient>
  </defs>
  <g class="cls-19">
    <g id="stiker_style" data-name="stiker style">
      <path class="cls-18" d="M361.67,290.79c-.2-1.33-2.13-13.23-9.59-24.06-4.38-6.36-12.89-8.2-19.48-4.42l1.73-6.93c.15-.62.29-1.25.43-1.87,2.93-1.79,4.76-5.11,4.52-8.81l-.34-5.17c-.13-2.01-.89-3.89-2.1-5.39-.22-5.44-1.24-10.47-3.06-15-.79-3.04-3.28-10.74-9.9-19.13-1.01-1.87-2.07-3.9-3.19-6.04-3.57-6.85-7.61-14.6-11.94-20.45-28.1-39.14-75.17-50.06-94.09-52.93-3.62-.56-7.36.22-10.5,2.19-23.99,14.98-38.76,38.11-43.89,68.74h.07s-.08,0-.08,0l-5.76,35.32c-2.21,13.57.6,27.46,7.93,39.09l3.05,4.85c.16.97.33,1.93.49,2.87-2.99-1.49-6.38-1.91-9.69-1.19-3.85.84-7.14,3.14-9.26,6.45-7.08,11.06-8.62,23.04-8.78,24.37-.92,8.04,4.88,15.36,12.93,16.3.57.07,1.15.1,1.72.1,7.45,0,13.74-5.58,14.63-12.93,0-.06.71-5.13,3.21-10,3.11,12.87,5.86,20.68,6.93,23.52,1.73,4.55,3.78,9.32,6.95,13.81-.44,6.49-.33,11.95.01,16.34-4.66,1.88-9.38,5.12-9.38,11.04,0,9.19,10.57,12.67,26.44,15.07,13.05,1.97,30.3,3.06,48.57,3.06s35.52-1.09,48.57-3.06c15.87-2.4,26.44-5.88,26.44-15.07,0-7.24-6.94-10.62-13.54-12.47.32-3.73.36-6.59.16-12.59,8.62-6.7,11.58-13.94,13.28-18.11,2.4-5.88,3.44-21.47,3.89-32.74,2.57,4.71,3.41,9.58,3.41,9.58,1.08,7.15,7.34,12.54,14.57,12.54.71,0,1.44-.05,2.17-.16,8.04-1.19,13.61-8.7,12.42-16.75Z"/>
    </g>
    <g id="Bubus">
      <g>
        <path class="cls-8" d="M168.16,192.8l-5.76,35.32c-1.9,11.64.52,23.57,6.8,33.55l8.44,13.41-9.1-54.67-.4-27.61Z"/>
        <path class="cls-8" d="M308.24,187.59l16.77,31.61c5.53,10.42,4.29,22.85,1.54,34.31l-4.12,16.46-5.72-56.1-8.48-26.28Z"/>
        <path class="cls-9" d="M250.28,351.36c36.99,0,67.01,4.53,67.01,10.11,0,5.58-30.02,10.12-67.01,10.12s-67.01-4.54-67.01-10.12,30.03-10.11,67.01-10.11Z"/>
        <path class="cls-12" d="M294.83,362.64c-.3,0-.61-.02-.92-.05-4.54-.5-7.82-4.59-7.32-9.14l.18-1.58q.89-7.95.25-24.04l-.08-2.05c-.18-4.57,3.38-8.42,7.95-8.6,4.57-.17,8.42,3.38,8.6,7.95l.08,2.04c.67,17.01.68,17.33-.34,26.52l-.17,1.57c-.47,4.23-4.05,7.37-8.22,7.37Z"/>
        <path class="cls-12" d="M202.24,366.25c-3.6,0-6.93-2.38-7.97-6.02-.39-1.37-3.75-14-.53-35.81.67-4.52,4.88-7.65,9.4-6.98,4.52.67,7.65,4.88,6.98,9.4-2.7,18.29.05,28.77.08,28.87,1.26,4.39-1.28,8.95-5.68,10.21-.76.22-1.52.32-2.28.32Z"/>
        <path class="cls-11" d="M152.92,311.69c-.26,0-.53-.01-.79-.05-3.69-.43-6.34-3.76-5.92-7.45.05-.46,1.34-11.24,7.57-20.97,2.01-3.14,6.18-4.05,9.31-2.04,3.14,2.01,4.05,6.18,2.04,9.31-4.49,7.02-5.52,15.17-5.53,15.25-.41,3.42-3.32,5.95-6.69,5.95Z"/>
        <path class="cls-11" d="M347.08,299.69c-3.28,0-6.16-2.4-6.66-5.74-.03-.21-1.35-8.24-6.04-15.05-2.11-3.07-1.34-7.27,1.73-9.38,3.07-2.11,7.27-1.34,9.38,1.73,6.55,9.51,8.2,20.25,8.27,20.7.55,3.68-2,7.11-5.68,7.66-.33.05-.67.07-1,.07Z"/>
        <path class="cls-8" d="M316.97,207.84l-142.87,61.1s-32.23-97.86,34.29-139.39c1.5-.94,3.29-1.34,5.04-1.07,11.52,1.75,60.56,10.28,88.85,49.74.47.66.94,1.32,1.39,2h.01c1.94,2.85,3.77,5.85,5.47,9.01l.97,1.83c.96,1.88,1.88,3.82,2.75,5.81.67,1.51,1.3,3.06,1.9,4.64.79,2.05,1.52,4.16,2.2,6.33Z"/>
        <path class="cls-1" d="M239.91,161.05s.6-2.2,0-7.24c-.6-5.04-7.69-4.94-9.57-11.72-1.88-6.78-14.68-9.69-14.68-9.69l24.25,28.64Z"/>
        <path class="cls-12" d="M242.12,171.62c-78.89,4.77-77.43,31.81-71.5,78.97,4.08,32.59,10.46,56.01,14.55,66.85,6.07,15.94,14.95,32,68.6,27.76,53.64-4.25,60.55-21.42,64.02-29.91,3.47-8.5,5.42-60.1,1.5-84.97-4.59-30.06-4.22-63.11-77.17-58.7Z"/>
        <path class="cls-14" d="M208.57,323.27l-1-.02c.14-7.72-3.67-17.92-3.71-18.03l.94-.35c.16.42,3.91,10.49,3.77,18.4Z"/>
        <g>
          <path class="cls-2" d="M313.78,286.6s.38,11.01-2.29,18.45"/>
          <path class="cls-14" d="M311.96,305.22l-.94-.34c2.6-7.27,2.27-18.16,2.26-18.27l1-.03c.02.45.35,11.19-2.32,18.64Z"/>
        </g>
        <path class="cls-7" d="M247.75,177.69c-94.19,7.34-84.33,56.82-75.54,86.64,9.41,31.93,91.08,49.4,91.08,49.4-.09-.9-.18-1.83-.28-2.78.15,1.09.31,2.17.46,3.21,0,0,60.18-31.37,60.59-64.18.38-30.64-3.84-74.83-76.3-72.29Z"/>
        <path class="cls-18" d="M301.1,198.23c6.43,4.49,8.81,14.82,9.47,25.71.57,9.24-.54,17.05-13.22,16.27-12.68-.78-78.68,3.75-102.15,7.81-14.06,2.4-15.86-27.03-8.66-38.3,8.53-13.33,44.48-16.56,68.38-17.95,22.07-1.26,37.94.78,46.18,6.46Z"/>
        <path class="cls-10" d="M295.37,248.07c5.76-.12,10.54,4.45,10.66,10.21.13,5.76-4.45,10.54-10.21,10.66-5.76.13-10.53-4.45-10.66-10.21-.12-5.76,4.45-10.54,10.21-10.66Z"/>
        <path class="cls-10" d="M212.9,255.19c6.59-.14,12.05,5.09,12.19,11.68.14,6.58-5.09,12.04-11.68,12.18-6.58.14-12.04-5.09-12.18-11.67-.14-6.59,5.09-12.05,11.67-12.19Z"/>
        <path class="cls-6" d="M172.85,266.18s36.12,39.5,90.43,47.54c0,0-51.11.56-64.38-8.47-13.27-9.04-26.06-39.07-26.06-39.07Z"/>
        <path class="cls-6" d="M323.71,253.87s-18.41,40.42-61.36,60.29c0,0,42.38-12.7,51.2-23.11,8.81-10.41,10.16-37.18,10.16-37.18Z"/>
        <path class="cls-16" d="M213.16,131.38c5.77,3.76,10.48,8.94,15.02,14.07,4.38,5.03,8.76,10.87,12.64,16.33,0,0-.83.56-.83.56-3.73-5.54-7.94-11.45-12.19-16.57-4.4-5.23-8.97-10.5-14.63-14.39h0Z"/>
        <path class="cls-16" d="M310.12,191.06c-7.26-5.01-15.12-9.22-23.43-12.24-26.31-9.59-55.96-8.72-82.36.12,26.4-9.1,56.14-10.21,82.62-.82,7.82,2.76,15.26,6.56,22.2,11.11l.97,1.83Z"/>
        <path class="cls-13" d="M314.77,201.51c-3.2-3.41-6.68-6.56-10.51-9.28-27.77-19.11-66.96-16.69-98.17-8.2,31.41-9.12,70.74-12.11,99.17,6.76,2.69,1.83,5.22,3.88,7.61,6.08.67,1.51,1.3,3.06,1.9,4.64Z"/>
        <path class="cls-16" d="M303.67,180.22c-17.16-10.63-38.9-14.23-58.83-13.4-4.7.15-9.87.76-14.52,1.32,4.63-.62,9.81-1.29,14.51-1.51,14.56-.84,29.4.78,43.26,5.42,4.89,1.66,9.67,3.61,14.19,6.17.47.66.94,1.32,1.39,2Z"/>
        <path class="cls-15" d="M250.1,314.16s23.15-3.09,19.2,27.63c0,0,7.85-24.34-10.29-29.26-18.14-4.92-29.43-6.65-29.43-6.65l20.52,8.28Z"/>
        <path class="cls-3" d="M169.71,255.16c.21.87,59.87-81.51,156.54-33.08,0,0-7.3-41.35-74.75-44.5-62.35-2.91-92.04,34.3-81.78,77.58Z"/>
        <g>
          <path class="cls-4" d="M267.73,251.29c1.62-3.74,5.91-7.12,17.4-10.03,11.49-2.9,23.26-1.75,28.87.93,4.18,2,6.07,8.1,6.77,11.1.47,4.12.86,13.21-.89,19.83-1.84,7.08-5.42,11.15-11.98,13.6-6.55,2.45-15.31,3.02-21.75,1.38-6.95-1.76-12.29-7.16-15.05-15.17-3.07-8.89-4.21-17.8-3.55-21.26.09-.12.14-.25.18-.39Z"/>
          <path class="cls-5" d="M194.27,250.55c5.21-3.44,16.74-6.21,28.49-4.92,11.76,1.27,16.47,4.03,18.55,7.52.08.13.15.24.23.36,1.1,3.32,1.14,12.31-.75,21.54-1.7,8.34-6.3,14.41-12.96,17.12-6.16,2.51-14.87,3.17-21.73,1.65-6.86-1.53-10.89-5.05-13.64-11.8-2.58-6.33-3.38-15.38-3.46-19.54.31-3.07,1.4-9.37,5.26-11.92Z"/>
          <path class="cls-17" d="M185.1,253.46c-2.51.17-4.51-.09-4.54-.59s1.95-1.05,4.42-1.22c2.49-.17,4.52.09,4.55.59.03.5-1.95,1.06-4.43,1.23h0ZM192.47,282.01c-2.57-6.33-3.38-15.38-3.46-19.54.31-3.07,1.39-9.37,5.26-11.92,5.21-3.44,16.73-6.21,28.49-4.92,11.76,1.27,16.47,4.03,18.55,7.52.08.13.16.24.23.36,1.1,3.32,1.14,12.31-.75,21.54-1.7,8.33-6.3,14.41-12.96,17.12-6.16,2.51-14.92,3.17-21.73,1.65-6.81-1.52-10.89-5.07-13.63-11.8h-.01ZM267.57,251.69c.06-.13.13-.25.18-.39,1.62-3.75,5.92-7.13,17.4-10.03,11.49-2.91,23.26-1.76,28.87.93,4.18,1.99,6.05,8.09,6.77,11.09.47,4.13.84,13.21-.89,19.84-1.84,7.07-5.38,11.12-11.98,13.59-6.6,2.47-15.32,3.02-21.75,1.38-6.94-1.76-12.29-7.14-15.05-15.17-3.08-8.89-4.21-17.8-3.55-21.24ZM318.95,243.21c-.03-.5,1.93-1.06,4.43-1.23s4.51.1,4.54.6-1.95,1.06-4.42,1.23c-2.49.17-4.52-.1-4.55-.6ZM177.65,249.74l.52,7.94s2.44-1.29,4.74,1.35c1.93,2.22,2.37,4.24,4.57,4.93.22,4.68,1.14,12.81,3.54,18.7,2.93,7.22,7.49,11.17,14.77,12.79,3.72.78,7.53,1.03,11.3.74,3.89-.22,7.72-1.03,11.38-2.44,7.18-2.92,12.17-9.43,13.98-18.33,1.65-8.08,1.96-15.86,1.27-20.31.69.14,1.39-.11,1.86-.65h-.19c.1-.1,0-.22.08-.37.78-1.01,3.33-3.64,8.93-4.03,5.6-.39,8.48,1.86,9.4,2.76.1.12.22.25.34.35h.07c.44.46,1.08.62,1.66.39-.09,4.5,1.07,12.19,3.75,19.96,2.96,8.57,8.7,14.33,16.19,16.23,3.79.89,7.69,1.16,11.57.84,3.78-.23,7.52-1.01,11.09-2.3,7.03-2.62,11.03-7.16,13-14.72,1.6-6.18,1.49-14.35,1.1-19.03,2.09-1.01,2.44-3.06,4.07-5.54,1.01-1.68,2.95-2.5,4.78-2.01l-.52-7.94s-3.32-1.6-10.28-2.38c-6.95-.77-30.95-1.91-45.83,2.06-14.46,3.86-12.8,7.49-12.57,8.9-2.49-1.47-5.35-1.82-8.07-1.63-2.72.19-5.51.97-7.79,2.74.05-1.45,1.25-5.26-13.59-7.08-15.25-1.88-38.69,2.57-45.48,4.3-6.79,1.73-9.65,3.76-9.65,3.76Z"/>
        </g>
      </g>
    </g>
  </g>
</svg>