<?xml version="1.0" encoding="UTF-8"?>
<svg xmlns="http://www.w3.org/2000/svg" xmlns:xlink="http://www.w3.org/1999/xlink" viewBox="0 0 500 500">
  <defs>
    <style>
      .cls-1 {
        stroke: #343a41;
        stroke-linecap: round;
        stroke-linejoin: round;
        stroke-width: 13.49px;
      }

      .cls-1, .cls-2 {
        fill: none;
      }

      .cls-3 {
        opacity: .2;
      }

      .cls-3, .cls-4, .cls-5, .cls-6, .cls-7, .cls-8, .cls-9, .cls-10, .cls-11, .cls-12, .cls-13, .cls-14, .cls-15, .cls-16, .cls-17 {
        stroke-width: 0px;
      }

      .cls-3, .cls-13 {
        fill: #47596c;
      }

      .cls-18 {
        fill: url(#Dégradé_sans_nom_2);
      }

      .cls-18, .cls-2 {
        stroke: #458bd9;
        stroke-miterlimit: 10;
      }

      .cls-4 {
        fill: #000c1a;
        mix-blend-mode: darken;
        opacity: .3;
      }

      .cls-5 {
        opacity: .1;
      }

      .cls-5, .cls-6 {
        fill: #e6eef2;
      }

      .cls-6 {
        opacity: .09;
      }

      .cls-7, .cls-8, .cls-9, .cls-10, .cls-11 {
        fill-rule: evenodd;
      }

      .cls-7, .cls-14 {
        fill: #415369;
      }

      .cls-8, .cls-15 {
        fill: #212c3b;
      }

      .cls-9, .cls-12 {
        fill: #353a42;
      }

      .cls-10 {
        fill: #869eb4;
      }

      .cls-11, .cls-17 {
        fill: #fff;
      }

      .cls-19 {
        isolation: isolate;
      }

      .cls-16 {
        fill: #7e8a9a;
      }
    </style>
    <linearGradient id="Dégradé_sans_nom_2" data-name="Dégradé sans nom 2" x1="41.1" y1="410.48" x2="44.84" y2="410.48" gradientTransform="translate(395.88 -106.78) rotate(18.69)" gradientUnits="userSpaceOnUse">
      <stop offset="0" stop-color="#fff"/>
      <stop offset="1" stop-color="#000"/>
    </linearGradient>
  </defs>
  <g class="cls-19">
    <g id="stiker_style" data-name="stiker style">
      <g>
        <path class="cls-17" d="M362.73,230.84c-2.26-3.23-5.63-5.38-9.51-6.07h-.01c-8-1.41-15.66,3.95-17.08,11.94-1.11,6.25-4.87,11.65-4.87,11.65-4.77,6.56-3.32,15.79,3.22,20.57,2.54,1.86,5.55,2.84,8.7,2.84,4.69,0,9.14-2.26,11.91-6.05.79-1.08,7.77-10.93,10.07-23.86.69-3.88-.17-7.79-2.43-11.02Z"/>
        <path class="cls-17" d="M331.64,243.48l-.19-2.93c-.14-2.16-.91-4.18-2.15-5.86-.17-5.66-1.2-10.88-3.08-15.56-.79-3.04-3.27-10.71-9.88-19.1l-6.19-11.67-.12-.26c-.11-.23-.22-.46-.34-.68l-1.05-1.99c-.25-.46-.51-.92-.76-1.38l-.13-.24h0s-.03-.05-.03-.05l-.46.26-1.07.46,1.47-.83c-1.55-2.76-3.21-5.43-4.92-7.95l-2.39-3.5h-.1c-28.19-38.1-74.44-48.8-93.15-51.65-3.62-.56-7.36.22-10.5,2.19-23.99,14.98-38.76,38.11-43.88,68.74h.07s-.08,0-.08,0l-5.76,35.32c-2.21,13.57.6,27.46,7.93,39.09l3.05,4.85c.87,5.16,1.77,9.92,2.66,14.29-2.04-2.1-4.71-3.62-7.79-4.2-3.87-.74-7.8.08-11.05,2.3-3.25,2.22-5.45,5.57-6.19,9.44-2.45,12.92.58,24.6.93,25.89,1.75,6.38,7.6,10.84,14.21,10.84,1.32,0,2.63-.18,3.91-.53,7.81-2.14,12.43-10.22,10.33-18.04-.09-.35-1.17-4.92-.76-10.03,2.69,10.52,4.99,17.01,5.94,19.55,1.73,4.55,3.78,9.32,6.95,13.81-.44,6.49-.33,11.95.01,16.34-4.66,1.88-9.38,5.12-9.38,11.04,0,9.19,10.57,12.67,26.44,15.07,13.05,1.97,30.3,3.06,48.57,3.06s35.52-1.09,48.57-3.06c15.87-2.4,26.44-5.88,26.44-15.07,0-7.24-6.94-10.62-13.54-12.47.32-3.73.36-6.59.16-12.59,8.62-6.7,11.58-13.94,13.28-18.1,3.34-8.18,4.06-35.16,4.19-43.17l4.94-19.77c.2-.83.39-1.66.57-2.48,2.87-2.21,4.55-5.71,4.31-9.41Z"/>
      </g>
    </g>
    <g id="Bubus">
      <g>
        <path class="cls-9" d="M160.6,192.8l-5.76,35.32c-1.9,11.64.52,23.57,6.8,33.55l8.44,13.41-9.1-54.67-.4-27.61Z"/>
        <path class="cls-9" d="M300.68,187.59l16.77,31.61c5.53,10.42,4.29,22.85,1.54,34.31l-4.12,16.46-5.72-56.1-8.48-26.28Z"/>
        <path class="cls-10" d="M242.72,351.36c36.99,0,67.01,4.53,67.01,10.11,0,5.58-30.02,10.12-67.01,10.12s-67.01-4.54-67.01-10.12,30.03-10.11,67.01-10.11Z"/>
        <path class="cls-12" d="M287.27,362.64c-.3,0-.61-.02-.92-.05-4.54-.5-7.82-4.59-7.32-9.14l.18-1.58q.89-7.95.25-24.04l-.08-2.05c-.18-4.57,3.38-8.42,7.95-8.6,4.57-.17,8.42,3.38,8.6,7.95l.08,2.04c.67,17.01.68,17.33-.34,26.52l-.17,1.57c-.47,4.23-4.05,7.37-8.22,7.37Z"/>
        <path class="cls-12" d="M194.68,366.25c-3.6,0-6.93-2.38-7.97-6.02-.39-1.37-3.75-14-.53-35.81.67-4.52,4.88-7.65,9.4-6.98,4.52.67,7.65,4.88,6.98,9.4-2.7,18.29.05,28.77.08,28.87,1.26,4.39-1.28,8.95-5.68,10.21-.76.22-1.52.32-2.28.32Z"/>
        <path class="cls-1" d="M150.71,314.58s-2.55-9.29-.66-19.23"/>
        <path class="cls-1" d="M343.2,257.03s5.69-7.78,7.45-17.74"/>
        <path class="cls-9" d="M309.41,207.84l-142.87,61.1s-32.23-97.86,34.29-139.39c1.5-.94,3.29-1.34,5.04-1.07,11.52,1.75,60.56,10.28,88.85,49.74.47.66.94,1.32,1.39,2h.01c1.94,2.85,3.77,5.85,5.47,9.01l.97,1.83c.96,1.88,1.88,3.82,2.75,5.81.67,1.51,1.3,3.06,1.9,4.64.79,2.05,1.52,4.16,2.2,6.33Z"/>
        <path class="cls-3" d="M232.34,161.05s.6-2.2,0-7.24c-.6-5.04-7.69-4.94-9.57-11.72-1.88-6.78-14.68-9.69-14.68-9.69l24.25,28.64Z"/>
        <path class="cls-12" d="M234.56,171.62c-78.89,4.77-77.43,31.81-71.5,78.97,4.08,32.59,10.46,56.01,14.55,66.85,6.07,15.94,14.95,32,68.6,27.76,53.64-4.25,60.55-21.42,64.02-29.91,3.47-8.5,5.42-60.1,1.5-84.97-4.59-30.06-4.22-63.11-77.17-58.7Z"/>
        <path class="cls-2" d="M196.76,305.05s3.88,10.31,3.74,18.21"/>
        <path class="cls-18" d="M306.22,286.6s.38,11.01-2.29,18.45"/>
        <path class="cls-8" d="M240.18,177.69c-94.19,7.34-84.33,56.82-75.54,86.64,9.41,31.93,91.08,49.4,91.08,49.4-.09-.9-.18-1.83-.28-2.78.15,1.09.31,2.17.46,3.21,0,0,60.18-31.37,60.59-64.18.38-30.64-3.84-74.83-76.3-72.29Z"/>
        <path class="cls-17" d="M293.54,198.23c6.43,4.49,8.81,14.82,9.47,25.71.57,9.24-.54,17.05-13.22,16.27-12.68-.78-78.68,3.75-102.15,7.81-14.06,2.4-15.86-27.03-8.66-38.3,8.53-13.33,44.48-16.56,68.38-17.95,22.07-1.26,37.94.78,46.18,6.46Z"/>
        <path class="cls-7" d="M165.28,266.18s36.12,39.5,90.43,47.54c0,0-51.11.56-64.38-8.47-13.27-9.04-26.06-39.07-26.06-39.07Z"/>
        <path class="cls-7" d="M316.15,253.87s-18.41,40.42-61.36,60.29c0,0,42.38-12.7,51.2-23.11,8.81-10.41,10.16-37.18,10.16-37.18Z"/>
        <path class="cls-15" d="M205.6,131.38c5.77,3.76,10.48,8.94,15.02,14.07,4.38,5.03,8.76,10.87,12.64,16.33,0,0-.83.56-.83.56-3.73-5.54-7.94-11.45-12.19-16.57-4.4-5.23-8.97-10.5-14.63-14.39h0Z"/>
        <path class="cls-15" d="M302.56,191.06c-7.26-5.01-15.12-9.22-23.43-12.24-26.31-9.59-55.96-8.72-82.36.12,26.4-9.1,56.14-10.21,82.62-.82,7.82,2.76,15.26,6.56,22.2,11.11l.97,1.83Z"/>
        <path class="cls-13" d="M307.21,201.51c-3.2-3.41-6.68-6.56-10.51-9.28-27.77-19.11-66.96-16.69-98.17-8.2,31.41-9.12,70.74-12.11,99.17,6.76,2.69,1.83,5.22,3.88,7.61,6.08.67,1.51,1.3,3.06,1.9,4.64Z"/>
        <path class="cls-15" d="M296.11,180.22c-17.16-10.63-38.9-14.23-58.83-13.4-4.7.15-9.87.76-14.52,1.32,4.63-.62,9.81-1.29,14.51-1.51,14.56-.84,29.4.78,43.26,5.42,4.89,1.66,9.67,3.61,14.19,6.17.47.66.94,1.32,1.39,2Z"/>
        <path class="cls-14" d="M242.53,314.16s23.15-3.09,19.2,27.63c0,0,7.85-24.34-10.29-29.26-18.14-4.92-29.43-6.65-29.43-6.65l20.52,8.28Z"/>
        <path class="cls-4" d="M162.15,255.16c.21.87,59.87-81.51,156.54-33.08,0,0-7.3-41.35-74.75-44.5-62.35-2.91-92.04,34.3-81.78,77.58Z"/>
        <g>
          <path class="cls-5" d="M260.17,251.29c1.62-3.74,5.91-7.12,17.4-10.03,11.49-2.9,23.26-1.75,28.87.93,4.18,2,6.07,8.1,6.77,11.1.47,4.12.86,13.21-.89,19.83-1.84,7.08-5.42,11.15-11.98,13.6-6.55,2.45-15.31,3.02-21.75,1.38-6.95-1.76-12.29-7.16-15.05-15.17-3.07-8.89-4.21-17.8-3.55-21.26.09-.12.14-.25.18-.39Z"/>
          <path class="cls-6" d="M186.71,250.55c5.21-3.44,16.74-6.21,28.49-4.92,11.76,1.27,16.47,4.03,18.55,7.52.08.13.15.24.23.36,1.1,3.32,1.14,12.31-.75,21.54-1.7,8.34-6.3,14.41-12.96,17.12-6.16,2.51-14.87,3.17-21.73,1.65-6.86-1.53-10.89-5.05-13.64-11.8-2.58-6.33-3.38-15.38-3.46-19.54.31-3.07,1.4-9.37,5.26-11.92Z"/>
          <path class="cls-16" d="M177.54,253.46c-2.51.17-4.51-.09-4.54-.59s1.95-1.05,4.42-1.22c2.49-.17,4.52.09,4.55.59.03.5-1.95,1.06-4.43,1.23h0ZM184.9,282.01c-2.57-6.33-3.38-15.38-3.46-19.54.31-3.07,1.39-9.37,5.26-11.92,5.21-3.44,16.73-6.21,28.49-4.92,11.76,1.27,16.47,4.03,18.55,7.52.08.13.16.24.23.36,1.1,3.32,1.14,12.31-.75,21.54-1.7,8.33-6.3,14.41-12.96,17.12-6.16,2.51-14.92,3.17-21.73,1.65-6.81-1.52-10.89-5.07-13.63-11.8h-.01ZM260.01,251.69c.06-.13.13-.25.18-.39,1.62-3.75,5.92-7.13,17.4-10.03,11.49-2.91,23.26-1.76,28.87.93,4.18,1.99,6.05,8.09,6.77,11.09.47,4.13.84,13.21-.89,19.84-1.84,7.07-5.38,11.12-11.98,13.59-6.6,2.47-15.32,3.02-21.75,1.38-6.94-1.76-12.29-7.14-15.05-15.17-3.08-8.89-4.21-17.8-3.55-21.24ZM311.39,243.21c-.03-.5,1.93-1.06,4.43-1.23s4.51.1,4.54.6-1.95,1.06-4.42,1.23c-2.49.17-4.52-.1-4.55-.6ZM170.09,249.74l.52,7.94s2.44-1.29,4.74,1.35c1.93,2.22,2.37,4.24,4.57,4.93.22,4.68,1.14,12.81,3.54,18.7,2.93,7.22,7.49,11.17,14.77,12.79,3.72.78,7.53,1.03,11.3.74,3.89-.22,7.72-1.03,11.38-2.44,7.18-2.92,12.17-9.43,13.98-18.33,1.65-8.08,1.96-15.86,1.27-20.31.69.14,1.39-.11,1.86-.65h-.19c.1-.1,0-.22.08-.37.78-1.01,3.33-3.64,8.93-4.03,5.6-.39,8.48,1.86,9.4,2.76.1.12.22.25.34.35h.07c.44.46,1.08.62,1.66.39-.09,4.5,1.07,12.19,3.75,19.96,2.96,8.57,8.7,14.33,16.19,16.23,3.79.89,7.69,1.16,11.57.84,3.78-.23,7.52-1.01,11.09-2.3,7.03-2.62,11.03-7.16,13-14.72,1.6-6.18,1.49-14.35,1.1-19.03,2.09-1.01,2.44-3.06,4.07-5.54,1.01-1.68,2.95-2.5,4.78-2.01l-.52-7.94s-3.32-1.6-10.28-2.38c-6.95-.77-30.95-1.91-45.83,2.06-14.46,3.86-12.8,7.49-12.57,8.9-2.49-1.47-5.35-1.82-8.07-1.63-2.72.19-5.51.97-7.79,2.74.05-1.45,1.25-5.26-13.59-7.08-15.25-1.88-38.69,2.57-45.48,4.3-6.79,1.73-9.65,3.76-9.65,3.76Z"/>
        </g>
        <path class="cls-11" d="M193.71,274.81c-.32-2.08.98-9.56,7.82-11.97,6.24-2.21,13.13,3.34,13.59,5.67.35,1.8-4.74-.87-12.42,1.08-6.2,1.57-8.46,8.67-8.99,5.22Z"/>
        <path class="cls-11" d="M298.21,264.95c.1-2.23-1.69-10-7.8-11.83-5.58-1.67-11.03,4.91-11.22,7.43-.15,1.94,4.4-1.9,10.9-.69,5.73,1.07,7.96,8.79,8.12,5.09Z"/>
      </g>
    </g>
  </g>
</svg>