<?xml version="1.0" encoding="UTF-8"?>
<svg xmlns="http://www.w3.org/2000/svg" xmlns:xlink="http://www.w3.org/1999/xlink" viewBox="0 0 500 500">
  <defs>
    <style>
      .cls-1 {
        fill: url(#Dégradé_sans_nom_37-5);
      }

      .cls-1, .cls-2, .cls-3, .cls-4, .cls-5, .cls-6, .cls-7, .cls-8, .cls-9, .cls-10, .cls-11, .cls-12, .cls-13 {
        stroke-width: 0px;
      }

      .cls-2 {
        fill: url(#Dégradé_sans_nom_37-4);
      }

      .cls-3 {
        fill: url(#Dégradé_sans_nom_37-3);
      }

      .cls-4 {
        fill: url(#Dégradé_sans_nom_37-2);
      }

      .cls-5, .cls-6, .cls-7 {
        fill-rule: evenodd;
      }

      .cls-5, .cls-8 {
        fill: #343a41;
      }

      .cls-6 {
        fill: #869eb4;
      }

      .cls-7, .cls-12 {
        fill: #fff;
      }

      .cls-9 {
        fill: #3f3b3a;
      }

      .cls-10 {
        fill: #c4cad0;
      }

      .cls-11 {
        fill: #af9e8e;
      }

      .cls-13 {
        fill: url(#Dégradé_sans_nom_37);
      }
    </style>
    <linearGradient id="Dégradé_sans_nom_37" data-name="Dégradé sans nom 37" x1="205.15" y1="222.65" x2="169.29" y2="240.72" gradientUnits="userSpaceOnUse">
      <stop offset="0" stop-color="#fff"/>
      <stop offset="1" stop-color="#767ab8"/>
    </linearGradient>
    <linearGradient id="Dégradé_sans_nom_37-2" data-name="Dégradé sans nom 37" x1="186.1" y1="165.24" x2="143.42" y2="186.92" xlink:href="#Dégradé_sans_nom_37"/>
    <linearGradient id="Dégradé_sans_nom_37-3" data-name="Dégradé sans nom 37" x1="208.22" y1="129.84" x2="262.39" y2="35.03" xlink:href="#Dégradé_sans_nom_37"/>
    <linearGradient id="Dégradé_sans_nom_37-4" data-name="Dégradé sans nom 37" x1="228.25" y1="132.97" x2="264.38" y2="118.52" xlink:href="#Dégradé_sans_nom_37"/>
    <linearGradient id="Dégradé_sans_nom_37-5" data-name="Dégradé sans nom 37" x1="237.46" y1="139.69" x2="287.61" y2="119.63" xlink:href="#Dégradé_sans_nom_37"/>
  </defs>
  <g id="stiker_style" data-name="stiker style">
    <path class="cls-12" d="M354.02,303.86h0c-.71-7.2-7.12-12.49-14.34-11.79-.35.03-.7.09-1.04.16.93-27.43-1.89-59.66-12.61-72.47l-.12-.14c-5.73-6.53-20.26-17.59-54.18-20.43l-3.56-7.62c-1.61-3.34-4-5.88-6.96-7.48,2.23-29.4,1.37-73.5-21.67-85.73-24.07-12.78-49.14-12.3-68.77,1.32-17.44,12.09-27.07,32.4-24.54,51.72,1.66,12.63,26.87,41.14,39.45,54.92-.55,1.89-.76,3.88-.61,5.88l.36,4.72c-.42.16-.88.32-1.37.44-.89.22-1.88.35-2.98.41-1.24.07-2.73.04-4.64-.09-.91-.07-1.85-.14-2.8-.22-.75-.06-1.49-.11-2.2-.15-2.7-.14-5.02-.07-7.09.21-2.4.32-4.63.95-6.64,1.88-2.28,1.05-4.3,2.5-6.04,4.33-2.96,3.13-7.95,11.39-4.81,17.2,1.08,2,2.95,3.48,5.13,4.07,3.6.97,6.37-.7,7.86-1.6.77-.47,1.57-.95,2.54-1.26.65-.21,1.45-.37,2.33-.46.94-.09,2.09-.11,3.4-.06,1.42.06,3.04.21,4.77.37l.96.09c.52.05,1.05.09,1.58.14,1.04.09,2.06.17,2.99.22.57.04,1.11.07,1.63.09-1.87,13.34-1.81,29.79-.8,44.97-3.75-.45-7.46.53-10.5,2.79-3.17,2.35-5.23,5.79-5.81,9.69-1.93,13.05,1.59,24.57,1.99,25.83,1.96,6.14,7.6,10.26,14.04,10.26,1.52,0,3.03-.24,4.49-.7.87-.28,1.7-.64,2.49-1.06,2.98,12.69,7.25,25.31,13.24,31.9,1.44,1.59,3.05,3.09,4.8,4.48-.51,3.96-.65,7.91-.42,11.83-5.17,1.8-10.39,5-10.39,11.24,0,9.85,12.68,12.59,24.57,14.38,11.84,1.79,27.49,2.78,44.06,2.78s32.22-.99,44.06-2.78c11.89-1.8,24.57-4.54,24.57-14.38,0-6.18-5.16-9.41-10.4-11.25.38-3.83.42-8.31.13-13.49,6.37-7.68,10.55-20.07,13.29-32.66.12.05.23.11.35.15,1.47.55,3.01.83,4.58.83,5.45,0,10.4-3.43,12.3-8.54,4.46-11.96,3.48-23.63,3.35-24.92Z"/>
  </g>
  <g id="Bubus">
    <g>
      <g>
        <path class="cls-11" d="M176.06,234.22c-.66-.05-1.32-.11-1.97-.17-1.99-.18-3.9-.37-5.67-.44-1.64-.06-3.15-.04-4.52.1-1.52.15-2.88.44-4.05.82-3.65,1.18-5.56,3.38-5.99,2.58-.3-.52.57-4.7,3.59-7.9.97-1.01,2.17-1.9,3.58-2.56,1.28-.59,2.73-.99,4.34-1.21,1.73-.23,3.62-.25,5.62-.15.64.03,1.3.08,1.97.13.97.08,1.93.16,2.87.22,2.01.13,3.91.19,5.64.1,1.64-.08,3.14-.3,4.45-.62,2-.49,3.61-1.24,4.88-1.91,2.23-1.19,3.55-2.07,4.36-.63.78,1.34.27,4.47-1.62,7.18-1.07,1.52-2.6,2.82-4.56,3.63-1.29.55-2.77.88-4.42,1.04-1.73.17-3.63.13-5.64,0-.94-.05-1.9-.13-2.87-.21Z"/>
        <path class="cls-9" d="M159.86,234.53c-3.65,1.18-5.56,3.38-5.99,2.58-.3-.52.57-4.7,3.59-7.9.52,1.19,1.99,2.86,2.4,5.32Z"/>
        <path class="cls-9" d="M168.43,233.61c-1.64-.06-3.15-.04-4.52.1-.26-2.52-2.14-4.66-2.86-7.05,1.28-.59,2.73-.99,4.34-1.21.56,2.73,3.05,5.42,3.05,8.17Z"/>
        <path class="cls-9" d="M176.06,234.22c-.66-.05-1.32-.11-1.97-.17.28-2.81-2.65-5.89-3.1-8.76.64.03,1.3.08,1.97.13.97.08,1.93.16,2.87.22.42,2.88,3.34,5.94,3.1,8.78-.94-.05-1.9-.13-2.87-.21Z"/>
        <path class="cls-9" d="M184.57,234.44c.18-2.98-2.6-5.76-3.09-8.68,1.64-.08,3.14-.3,4.45-.62.58,2.9,2.99,5.19,3.05,8.26-1.29.55-2.77.88-4.42,1.04Z"/>
        <path class="cls-9" d="M193.54,229.77c-.42-2.65-1.99-4.21-2.74-6.55,2.23-1.19,3.55-2.07,4.36-.63.78,1.34.27,4.47-1.62,7.18Z"/>
      </g>
      <path class="cls-12" d="M198.02,229.08c6.79-5.07,25.04-14.43,66.68-13.64,2.69.05,4.49-2.75,3.36-5.18l-7.11-15.22c-1.43-3.07-4.52-5.01-7.91-4.95-11.05.19-36.27,1.96-55.86,13.49-2.81,1.65-4.4,4.78-4.16,8.03l1.19,15.74c.14,1.88,2.3,2.87,3.81,1.74Z"/>
      <path class="cls-13" d="M198.02,229.08c6.79-5.07,25.04-14.43,66.68-13.64,2.69.05,4.49-2.75,3.36-5.18l-7.11-15.22c-1.43-3.07-4.52-5.01-7.91-4.95-11.05.19-36.27,1.96-55.86,13.49-2.81,1.65-4.4,4.78-4.16,8.03l1.19,15.74c.14,1.88,2.3,2.87,3.81,1.74Z"/>
      <path class="cls-12" d="M199.37,209.37s-43.52-45.99-45.23-59.02c-4.29-32.74,34-70.23,81.63-44.94,26.73,14.2,16.12,91.43,16.12,91.43,0,0-38.9.18-52.51,12.53Z"/>
      <path class="cls-4" d="M199.37,209.37s-43.52-45.99-45.23-59.02c-4.29-32.74,34-70.23,81.63-44.94,26.73,14.2,16.12,91.43,16.12,91.43,0,0-38.9.18-52.51,12.53Z"/>
      <path class="cls-3" d="M195.24,106.7s9.06-7.29,14.74,6.91c5.68,14.2,13.04,36.18,13.04,36.18l-27.78-43.1Z"/>
      <path class="cls-10" d="M258.62,192.56c-15.88-.65-32.11.4-47.36,5.19,11.37-3.9,23.41-5.49,35.38-6.07,4-.18,8-.24,12.03-.11l-.06,1h0Z"/>
      <path class="cls-10" d="M160.69,131.62c6.63,9.57,12.93,19.36,19.2,29.18,3.07,4.95,6.17,9.87,9.14,14.88,1.26,2.27,3.26,5.32,4.23,7.71.35,1.47.32,2.95.25,4.41-.08,1.46-.26,2.91-.52,4.34.15-1.45.24-2.9.25-4.35.03-2.19-.14-4.32-1.44-6.14-.7-1.25-2.64-4.3-3.43-5.57,0,0-9.33-14.75-9.33-14.75-5.43-8.69-13.2-21.01-18.35-29.71h0Z"/>
      <path class="cls-10" d="M172.2,118.52c6.48,11.29,15.49,28.05,21.79,39.68,1.88,3.93,11.77,21.41,12.91,25.21.55,1.84.77,3.78.73,5.67-.04,3.3.02,6.62-.4,9.9-.1.42-.09,1.06-.48,1.28.38-.23.32-.9.41-1.29.25-3.29.09-6.59-.02-9.88-.02-1.88-.27-3.72-.85-5.49-.44-1.57-1.63-3.6-2.42-5.04l-10.77-19.9c-6.2-11.72-15.06-28.42-20.9-40.14h0Z"/>
      <path class="cls-10" d="M187.39,111.07c6.19,11.7,14.74,28.95,20.74,40.98,2.89,6.13,7.42,14.54,9.67,20.86,2.66,7.2,4.44,14.73,5.21,22.36-1.18-7.55-3.12-14.98-5.93-22.08-2.37-6.17-6.92-14.66-9.85-20.69-5.9-12.13-14.31-29.31-19.85-41.42h0Z"/>
      <path class="cls-10" d="M195.24,106.78c3.58-1.59,9.53-2.98,11.78,1.27,2.07,3.78,3.68,7.75,5.36,11.69,6.47,15.85,12.27,31.95,17.34,48.3,1.21,4.11,2.46,8.2,3.26,12.43.43,1.92-.15,4.51-.27,6.44-.24,2.13-.52,4.25-.89,6.35.26-2.12.45-4.25.62-6.38.07-1.92.51-4.48.05-6.33-.88-4.15-2.22-8.23-3.51-12.29-5.31-16.23-11.11-32.33-17.31-48.25-1.58-3.96-3.13-7.96-5.07-11.74-2.08-4.17-7.81-2.81-11.36-1.51h0Z"/>
      <path class="cls-10" d="M238.37,193.27c.57-4.3,2.31-13.73,2.58-17.88.26-4.02-.42-7.93-1.37-11.84-3.06-13.31-7.36-33.72-10.28-47.14-1.66-5.91-7.36-9.79-13.38-10.09,6.18,0,12.15,3.86,13.98,9.9,3.26,13.41,7.62,33.72,10.52,47.14.94,3.91,1.51,8.02,1.16,12.06-.31,4.23-2.47,13.59-3.21,17.84h0Z"/>
      <path class="cls-10" d="M240.28,120.12c6.84,19.19,10.14,41.82,5.65,61.88.27-2.61.79-5.17.88-7.79,1.4-18.22-1.63-36.57-6.53-54.09h0Z"/>
      <path class="cls-6" d="M261.77,384.58c33.47,0,60.63,4.1,60.63,9.15s-27.16,9.16-60.63,9.16-60.63-4.11-60.63-9.16,27.17-9.15,60.63-9.15Z"/>
      <path class="cls-8" d="M303.19,393.21c-.73,0-1.47-.1-2.21-.3-4.36-1.21-6.9-5.73-5.69-10.09.26-.94,1.06-4.74.39-14.25-.26-3.65-.62-6.4-.62-6.42-.59-4.48,2.56-8.6,7.04-9.19,4.49-.6,8.6,2.55,9.19,7.04.02.13.43,3.24.72,7.43.62,8.67.3,15.34-.95,19.8-1.01,3.62-4.3,5.99-7.88,5.99Z"/>
      <path class="cls-8" d="M220.58,396.47c-3.79,0-7.19-2.64-8-6.49-4.09-19.32,3.96-34.7,4.31-35.35,2.13-3.99,7.09-5.49,11.08-3.36,3.97,2.12,5.48,7.06,3.38,11.04-.13.26-5.55,11.07-2.75,24.28.94,4.42-1.89,8.77-6.31,9.71-.57.12-1.14.18-1.7.18Z"/>
      <path class="cls-5" d="M319.88,224.89c-22.05-25.15-106.29-23.37-125.3-1.16-15.83,18.5-6.31,118.54,10.5,137.07,23.08,25.43,89.23,12.61,102.26,7.92,25.36-7.62,31.13-121.62,12.54-143.83Z"/>
      <path class="cls-7" d="M224.91,299.12c6.19,0,11.21,5.03,11.21,11.22s-5.02,11.21-11.21,11.21-11.22-5.02-11.22-11.21,5.03-11.22,11.22-11.22Z"/>
      <path class="cls-12" d="M275.22,354.56c-14.62,0-28.2-5.6-35.9-10.55-3.21-2.06-4.14-6.34-2.08-9.55,2.06-3.21,6.33-4.14,9.53-2.08.18.11,8.21,5.14,18.85,7.38,13.42,2.82,24.76.06,33.71-8.21,2.8-2.59,7.17-2.41,9.76.39,2.59,2.8,2.42,7.17-.39,9.76-10.31,9.53-22.22,12.86-33.49,12.86Z"/>
      <circle class="cls-12" cx="315.84" cy="308.45" r="10.2"/>
      <path class="cls-7" d="M316.52,247.15c-16.8-9.81-82.65-12.96-100.95-.82-10.07,6.68-11.62,43.28.35,41.74,27.88-3.6,86.12-3.35,102.7-1.52,8.29.92,8.25-33.36-2.1-39.4Z"/>
      <path class="cls-12" d="M297.85,232.57c-.51,0-1.04-.06-1.56-.18-28.42-6.74-56.2-1.43-56.48-1.38-3.65.72-7.2-1.66-7.92-5.31-.72-3.65,1.65-7.19,5.3-7.92,1.24-.25,30.84-5.95,62.2,1.48,3.62.86,5.87,4.49,5.01,8.12-.73,3.1-3.5,5.19-6.56,5.19Z"/>
      <path class="cls-2" d="M217.43,108.94s10.4-2.7,13.6,18.37c3.2,21.07,6.24,30.41,6.24,30.41l-19.84-48.78Z"/>
      <path class="cls-1" d="M235.76,114.66s9.4,13.83,10.51,47.21c0,0-14.4-18.31-10.51-47.21Z"/>
      <path class="cls-8" d="M338.36,329.32c-.59,0-1.2-.1-1.79-.32-2.65-.99-4-3.94-3.01-6.59,3.03-8.13,2.3-16.69,2.29-16.77-.28-2.82,1.78-5.32,4.6-5.6,2.81-.27,5.32,1.78,5.6,4.6.04.44,1.01,10.89-2.89,21.35-.77,2.06-2.72,3.34-4.8,3.34Z"/>
      <path class="cls-8" d="M178.95,328.03c-2.86,0-5.51-1.83-6.42-4.69-.14-.44-3.39-10.8-1.7-22.23.54-3.68,3.99-6.23,7.66-5.68,3.68.54,6.23,3.97,5.68,7.66-1.22,8.23,1.18,16.08,1.2,16.15,1.13,3.55-.83,7.34-4.37,8.47-.68.22-1.37.32-2.05.32Z"/>
    </g>
  </g>
</svg>