<?xml version="1.0" encoding="UTF-8"?>
<svg xmlns="http://www.w3.org/2000/svg" viewBox="0 0 500 500">
  <defs>
    <style>
      .cls-1 {
        fill: #343a41;
      }

      .cls-1, .cls-2 {
        stroke-width: 0px;
      }

      .cls-2 {
        fill: #fff;
      }
    </style>
  </defs>
  <g id="stiker_style" data-name="stiker style">
    <path class="cls-2" d="M354.21,310.9c-2.56-.4-14.16-2.2-27.8-3.97,4.57-.96,8.45-4.21,10.12-8.69l.04-.12c3.13-8.85,4.38-18.08,3.72-27.44l-.03-.35c-.86-7.42-7.36-12.79-14.81-12.18-.56.04-1.11.13-1.65.24.52-8.02.74-16.25.62-24.45-.24-16.92-2.2-47.23-12.55-60.13l-.12-.14c-6.29-7.48-16.45-13.2-30.18-17-11.67-3.23-25.41-4.85-39.71-4.8-24.12.15-54.28,5.66-66.61,20.69-12.25,14.94-10.18,58.52-8.72,76.57.12,1.46.25,2.94.39,4.43-.39-.09-.79-.18-1.19-.24-8.53-1.26-16.5,4.65-17.77,13.18l-.02.14c-1.24,9.59-.51,19.16,2.17,28.45l.06.21c2.08,6.52,8.07,10.89,14.9,10.89h.02c1.6-.01,3.19-.26,4.72-.75,2.11-.67,4.01-1.77,5.62-3.2.71,2.41,1.45,4.73,2.23,6.91-12.25,1.51-25.06,3.27-32.62,4.78-8,1.62-13.82,8.72-13.84,16.88-.03,9.53,7.7,17.31,17.23,17.34v-4.3s.01,4.3.01,4.3c1.14,0,2.28-.11,3.41-.34,13.49-2.71,49.4-6.66,60.66-7.86,9.03,2.39,18.89,3.3,28.57,3.3,17.73,0,34.9-3.03,45.46-5.55,14.36.51,44.53,4.57,62.25,7.35.89.14,1.8.22,2.71.22l.02-8,.05,8c8.48-.05,15.61-6.16,16.96-14.52,1.52-9.41-4.89-18.3-14.34-19.83ZM316.23,305.67c.05-.16.09-.32.14-.48.37.23.75.44,1.14.63-.43-.05-.85-.1-1.28-.15Z"/>
  </g>
  <g id="Bubus">
    <g id="Group_20" data-name="Group 20">
      <path id="Fill_1" data-name="Fill 1" class="cls-1" d="M305.63,178.81c-21.86-26-105.34-24.16-124.19-1.19-15.69,19.13-6.25,122.57,10.41,141.72,22.88,26.3,88.43,13.04,101.35,8.2,25.13-7.87,30.85-125.76,12.43-148.73"/>
      <g id="Group_3" data-name="Group 3">
        <g id="Group_3-2" data-name="Group 3-2">
          <path id="Fill_1-2" data-name="Fill 1-2" class="cls-2" d="M251.18,313.7c-12.44-.03-24.67-3.23-35.54-9.28-3.46-2.11-4.56-6.62-2.45-10.07,2.11-3.46,6.62-4.56,10.07-2.45,1.16.7,28.45,16.69,56.94-1.57,3.44-2.13,7.96-1.06,10.09,2.38,2.08,3.37,1.11,7.77-2.18,9.96-10.98,7.19-23.81,11.03-36.93,11.03"/>
        </g>
      </g>
      <path id="Fill_3" data-name="Fill 3" class="cls-2" d="M201.47,257.33c6.61,0,11.96,5.35,11.97,11.96,0,6.61-5.35,11.96-11.96,11.97-6.61,0-11.96-5.35-11.97-11.96,0,0,0,0,0,0,0-6.61,5.35-11.96,11.96-11.96"/>
      <path id="Fill_5" data-name="Fill 5" class="cls-2" d="M298.47,256.4c6.01,0,10.88,4.87,10.88,10.88s-4.87,10.88-10.88,10.88-10.88-4.87-10.88-10.88c0-6.01,4.87-10.88,10.88-10.88"/>
      <path id="Fill_7" data-name="Fill 7" class="cls-2" d="M299.2,201.88c-17.93-10.46-88.17-13.82-107.7-.87-10.74,7.13-12.39,46.16.37,44.52,29.74-3.83,91.87-3.57,109.55-1.62,8.84.99,8.8-35.59-2.24-42.03"/>
      <path id="Fill_9" data-name="Fill 9" class="cls-2" d="M279.28,186.33c-.56,0-1.11-.07-1.66-.2-19.81-4.29-40.26-4.79-60.25-1.48-3.88.87-7.72-1.56-8.6-5.44-.87-3.88,1.56-7.72,5.44-8.6.12-.03.24-.05.37-.07,22.01-3.75,44.55-3.21,66.36,1.58,3.87.91,6.26,4.79,5.35,8.65-.77,3.25-3.67,5.54-7.01,5.54"/>
      <path id="Fill_11" data-name="Fill 11" class="cls-1" d="M323.58,299.24c-3.21,0-5.81-2.61-5.81-5.82,0-.69.12-1.38.37-2.03,2.13-6.1,3.01-12.57,2.62-19.02-.25-3.2,2.13-6,5.33-6.25,3.12-.25,5.87,2.02,6.23,5.13.58,8.21-.54,16.45-3.28,24.21-.85,2.28-3.03,3.79-5.46,3.78"/>
      <path id="Fill_13" data-name="Fill 13" class="cls-1" d="M165.1,298.19c-3.33,0-6.28-2.15-7.29-5.32-2.36-8.18-3.02-16.76-1.92-25.2.62-4.18,4.5-7.06,8.68-6.44,4.18.62,7.06,4.5,6.44,8.68-.76,6.13-.29,12.35,1.36,18.31,1.28,4.02-.94,8.32-4.96,9.61-.75.24-1.54.36-2.33.36"/>
      <g id="Group_17" data-name="Group 17">
        <g id="Group_17-2" data-name="Group 17-2">
          <path id="Fill_15" data-name="Fill 15" class="cls-1" d="M148.48,340.15c-5.13-.02-9.27-4.19-9.25-9.31.01-4.4,3.12-8.19,7.44-9.07,16.94-3.4,62.19-8.14,64.1-8.34,5.11-.4,9.58,3.41,9.99,8.52.39,4.93-3.16,9.3-8.06,9.94-.46.06-46.29,4.85-62.39,8.08-.6.12-1.22.18-1.84.18"/>
        </g>
      </g>
      <path id="Fill_18" data-name="Fill 18" class="cls-1" d="M351.55,337.26c-.49,0-.97-.04-1.45-.12-14.64-2.3-55.5-8.13-68.68-7.45-5.13.13-9.38-3.93-9.51-9.06-.12-4.94,3.65-9.11,8.57-9.48,17.78-.9,70.27,7.31,72.49,7.66,5.06.82,8.5,5.59,7.68,10.65-.72,4.48-4.58,7.77-9.11,7.8"/>
    </g>
  </g>
</svg>