<?xml version="1.0" encoding="UTF-8"?>
<svg xmlns="http://www.w3.org/2000/svg" viewBox="0 0 500 500">
  <defs>
    <style>
      .cls-1 {
        fill: #262c32;
      }

      .cls-1, .cls-2 {
        fill-rule: evenodd;
      }

      .cls-1, .cls-2, .cls-3, .cls-4 {
        stroke-width: 0px;
      }

      .cls-2, .cls-4 {
        fill: #fff;
      }

      .cls-3 {
        fill: #869eb4;
      }
    </style>
  </defs>
  <g id="stiker_style" data-name="stiker style">
    <g>
      <path class="cls-4" d="M273.02,364.94c-7.51-1.71-17.37-2.65-27.76-2.65s-20.26.94-27.76,2.65c-4.2.96-16.99,3.86-16.99,13.71s12.79,12.75,16.99,13.71c7.51,1.71,17.37,2.65,27.76,2.65s20.26-.94,27.76-2.65c4.2-.96,16.99-3.86,16.99-13.71s-12.79-12.75-16.99-13.71Z"/>
      <path class="cls-4" d="M355.01,265.29c-.77-.12-13.41-2.1-28.42-4.05,4.74-.86,8.82-4.17,10.53-8.78,5.01-13.41,3.92-26.52,3.77-27.99-.36-3.69-2.15-7.02-5.02-9.37-2.86-2.34-6.46-3.43-10.09-3.06-.51.05-1.01.13-1.5.23.4-6.12.63-12.38.66-18.67.08-15.15-.99-51.96-12.66-66.51l-.12-.14c-17.38-20.66-58.28-22.05-70.39-21.96-24.29.15-54.66,5.7-67.07,20.83-4.84,5.9-12.45,23.14-9.12,72.35.2,2.98.46,6.12.77,9.33-.42-.1-.85-.19-1.28-.26-8.57-1.26-16.56,4.67-17.83,13.24-2.16,14.62,1.78,27.56,2.23,28.99,2.08,6.54,8.1,10.93,14.96,10.93,1.61,0,3.22-.25,4.77-.74,2.15-.69,4.08-1.82,5.72-3.28.72,2.49,1.48,4.88,2.29,7.12-15.32,1.89-26.38,3.51-32.94,4.83-9.38,1.88-15.48,11.04-13.6,20.43,1.62,8.08,8.77,13.94,17,13.94,1.14,0,2.29-.11,3.42-.34,14.66-2.94,55.17-7.29,61.34-7.95,29.57,7.72,66.72-.33,74.65-2.23,16.56.61,50.58,5.51,62.54,7.39.9.14,1.81.21,2.7.21,8.59,0,15.8-6.17,17.13-14.66,1.48-9.45-5-18.35-14.45-19.84ZM316.64,260c.06-.21.12-.42.18-.63.51.32,1.06.59,1.62.85-.6-.07-1.2-.14-1.8-.21Z"/>
    </g>
  </g>
  <g id="Bubus">
    <g>
      <ellipse class="cls-3" cx="245.26" cy="378.65" rx="36.76" ry="8.35"/>
      <g id="Group-20">
        <g>
          <path class="cls-1" d="M322.1,253.1c.68.25,1.37.37,2.05.37,2.37,0,4.61-1.45,5.48-3.81,4.47-11.95,3.35-23.9,3.31-24.4-.32-3.21-3.17-5.57-6.39-5.25-3.21.31-5.57,3.17-5.27,6.38,0,.1.87,9.83-2.62,19.17-1.13,3.03.41,6.4,3.43,7.53Z"/>
          <path class="cls-1" d="M164.44,252.41c.77,0,1.56-.12,2.34-.37,4.05-1.29,6.29-5.63,5-9.68-.03-.09-2.76-9.05-1.37-18.45.62-4.21-2.28-8.13-6.49-8.75-4.21-.62-8.12,2.28-8.75,6.49-1.93,13.04,1.78,24.89,1.94,25.39,1.04,3.27,4.07,5.36,7.34,5.36Z"/>
          <path class="cls-1" d="M353.77,273.19c-1.53-.24-26.51-4.15-47.96-6.33,14.35-34.52,15.28-116,.25-134.75-22.03-26.2-106.16-24.35-125.15-1.2-15.02,18.31-7.19,113.23,8.03,139.25-14.81,1.73-33.47,4.09-43.08,6.02-5.06,1.02-8.35,5.95-7.33,11.01.89,4.44,4.8,7.51,9.16,7.51.61,0,1.23-.06,1.85-.18,16.22-3.26,62.41-8.1,62.87-8.14.19-.02.36-.08.54-.11,24.31,6.91,57.28,1.92,73.3-2.11,16.38.44,51.28,5.43,64.62,7.52.49.08.98.12,1.46.12,4.52,0,8.5-3.29,9.23-7.9.8-5.1-2.68-9.89-7.79-10.69Z"/>
        </g>
        <g>
          <path class="cls-2" d="M280.44,244.48c-28.71,18.4-56.21,2.29-57.38,1.58-3.48-2.11-8.01-1.01-10.13,2.46-2.13,3.48-1.03,8.03,2.45,10.16.94.58,15.68,9.37,35.81,9.37,11.22,0,24.11-2.73,37.22-11.13,3.43-2.2,4.43-6.77,2.23-10.21-2.2-3.43-6.77-4.43-10.2-2.23Z"/>
          <path class="cls-2" d="M201.09,211.23c-6.65,0-12.05,5.4-12.05,12.06s5.4,12.06,12.05,12.06,12.06-5.4,12.06-12.06-5.4-12.06-12.06-12.06Z"/>
          <path class="cls-2" d="M298.85,210.29c-6.05,0-10.96,4.91-10.96,10.96s4.91,10.96,10.96,10.96,10.96-4.91,10.96-10.96-4.91-10.96-10.96-10.96Z"/>
          <path class="cls-2" d="M191.43,199.34c29.97-3.86,92.58-3.6,110.4-1.63,8.91.99,8.86-35.87-2.26-42.36-18.07-10.55-88.85-13.93-108.52-.88-10.82,7.18-12.48,46.52.38,44.86Z"/>
          <path class="cls-2" d="M217.12,138c.3-.06,30.03-5.78,60.71,1.48.56.13,1.12.2,1.68.2,3.28,0,6.26-2.25,7.05-5.58.92-3.9-1.49-7.8-5.38-8.72-33.72-7.99-65.53-1.86-66.87-1.6-3.93.78-6.48,4.59-5.7,8.52.78,3.93,4.59,6.48,8.52,5.7Z"/>
        </g>
      </g>
    </g>
  </g>
</svg>