<?xml version="1.0" encoding="UTF-8"?>
<svg xmlns="http://www.w3.org/2000/svg" viewBox="0 0 500 500">
  <defs>
    <style>
      .cls-1 {
        fill: #2f1727;
        isolation: isolate;
        opacity: .13;
      }

      .cls-1, .cls-2, .cls-3, .cls-4, .cls-5 {
        stroke-width: 0px;
      }

      .cls-2 {
        fill: #262c32;
      }

      .cls-2, .cls-3 {
        fill-rule: evenodd;
      }

      .cls-3, .cls-5 {
        fill: #fff;
      }

      .cls-4 {
        fill: #869eb4;
      }
    </style>
  </defs>
  <g id="stiker_style" data-name="stiker style">
    <g>
      <path class="cls-5" d="M273.02,364.94c-7.51-1.71-17.37-2.65-27.76-2.65s-20.26.94-27.76,2.65c-4.2.96-16.99,3.86-16.99,13.71s12.79,12.75,16.99,13.71c7.51,1.71,17.37,2.65,27.76,2.65s20.26-.94,27.76-2.65c4.2-.96,16.99-3.86,16.99-13.71s-12.79-12.75-16.99-13.71Z"/>
      <path class="cls-5" d="M355.01,265.29c-.77-.12-13.41-2.1-28.42-4.05,4.74-.86,8.82-4.17,10.53-8.78,5.03-13.46,3.92-26.54,3.77-27.98-.36-3.69-2.14-7.02-5.01-9.37-2.86-2.34-6.47-3.43-10.1-3.06-.51.05-1.01.13-1.5.23.4-6.12.63-12.38.66-18.67.08-15.15-.99-51.96-12.66-66.51l-.12-.14c-17.38-20.66-58.29-22.05-70.39-21.96-24.29.15-54.66,5.7-67.07,20.83-4.84,5.9-12.45,23.14-9.12,72.35.2,2.98.46,6.12.77,9.33-.42-.1-.85-.19-1.28-.26-8.57-1.26-16.56,4.67-17.83,13.24-2.16,14.62,1.78,27.56,2.23,28.99,2.08,6.54,8.1,10.93,14.96,10.93,1.61,0,3.21-.25,4.77-.74,2.15-.69,4.08-1.82,5.72-3.28.72,2.49,1.48,4.88,2.29,7.12-12.2,1.51-25.3,3.29-32.95,4.83-9.38,1.88-15.48,11.05-13.6,20.43,1.62,8.08,8.77,13.94,17,13.94,1.15,0,2.31-.11,3.42-.34,14.52-2.91,55.03-7.28,61.34-7.95,29.57,7.72,66.71-.33,74.65-2.23,16.54.61,50.57,5.51,62.54,7.39.9.14,1.81.21,2.7.21,8.59,0,15.8-6.17,17.13-14.66,1.48-9.45-5-18.35-14.45-19.84ZM316.64,260c.06-.21.12-.42.18-.63.51.32,1.06.59,1.62.85-.6-.07-1.19-.14-1.79-.21Z"/>
      <path class="cls-5" d="M300.09,307.61h-25.09l-4.2,11.97-4.2-11.97h-21.09c-1.62-.35-3.3-.55-5.05-.55-4.63,0-8.77,1.22-12.22,3.41v-2.86h-20.11v8.89h-3.98l1.83-8.89h-30.5l-1.85,8.89h-5.68l-3.91,19.27h.26l-2.26,11.6h5.28l-1.85,9.21h30.47l1.06-5.23c3.12,3.71,7.94,6.01,13.56,6.01,6.1,0,11.03-2.41,14.13-6.5,3.98,3.98,9.43,6.27,15.78,6.27,8.67,0,15.46-3.75,19.14-10.28l3.59,9.73h15.22l2.6-7.05v7.05h19.08c14.31,0,23.56-9.61,23.56-24.49s-9.25-24.47-23.56-24.47ZM303.44,332.13c0,2.82-.71,3.81-.92,4.05-.3.33-.85.5-1.39.59v-9.35c2.32.46,2.32,2.29,2.32,4.7ZM240.46,326.86c.99,0,1.58.35,1.75,1.04l1.22,5.02-1.12,3.8c-.06.2-.18.62-1.83.62-2.19,0-2.64-2.85-2.64-5.25,0-1.57.26-5.23,2.62-5.23ZM208.13,324.72v8.11h-1.45l.92-4.75h-.13l.66-3.36Z"/>
    </g>
  </g>
  <g id="Bubus">
    <g>
      <ellipse class="cls-4" cx="245.26" cy="378.65" rx="36.76" ry="8.35"/>
      <g id="Group-20">
        <g>
          <path class="cls-2" d="M322.1,253.1c.68.25,1.37.37,2.05.37,2.37,0,4.61-1.45,5.48-3.81,4.47-11.95,3.35-23.9,3.31-24.4-.32-3.21-3.17-5.57-6.39-5.25-3.21.31-5.57,3.17-5.27,6.38,0,.1.87,9.83-2.62,19.17-1.13,3.03.41,6.4,3.43,7.53Z"/>
          <path class="cls-2" d="M164.44,252.41c.77,0,1.56-.12,2.34-.37,4.05-1.29,6.29-5.63,5-9.68-.03-.09-2.76-9.05-1.37-18.45.62-4.21-2.28-8.13-6.49-8.75-4.21-.62-8.12,2.28-8.75,6.49-1.93,13.04,1.78,24.89,1.94,25.39,1.04,3.27,4.07,5.36,7.34,5.36Z"/>
          <path class="cls-2" d="M353.77,273.19c-1.53-.24-26.51-4.15-47.96-6.33,14.35-34.52,15.28-116,.25-134.75-22.03-26.2-106.16-24.35-125.15-1.2-15.02,18.31-7.19,113.23,8.03,139.25-14.81,1.73-33.47,4.09-43.08,6.02-5.06,1.02-8.35,5.95-7.33,11.01.89,4.44,4.8,7.51,9.16,7.51.61,0,1.23-.06,1.85-.18,16.22-3.26,62.41-8.1,62.87-8.14.19-.02.36-.08.54-.11,24.31,6.91,57.28,1.92,73.3-2.11,16.38.44,51.28,5.43,64.62,7.52.49.08.98.12,1.46.12,4.52,0,8.5-3.29,9.23-7.9.8-5.1-2.68-9.89-7.79-10.69Z"/>
        </g>
        <g>
          <path class="cls-3" d="M280.44,244.48c-28.71,18.4-56.21,2.29-57.38,1.58-3.48-2.11-8.01-1.01-10.13,2.46-2.13,3.48-1.03,8.03,2.45,10.16.94.58,15.68,9.37,35.81,9.37,11.22,0,24.11-2.73,37.22-11.13,3.43-2.2,4.43-6.77,2.23-10.21-2.2-3.43-6.77-4.43-10.2-2.23Z"/>
          <path class="cls-3" d="M201.09,211.23c-6.65,0-12.05,5.4-12.05,12.06s5.4,12.06,12.05,12.06,12.06-5.4,12.06-12.06-5.4-12.06-12.06-12.06Z"/>
          <path class="cls-3" d="M298.85,210.29c-6.05,0-10.96,4.91-10.96,10.96s4.91,10.96,10.96,10.96,10.96-4.91,10.96-10.96-4.91-10.96-10.96-10.96Z"/>
          <path class="cls-3" d="M191.43,199.34c29.97-3.86,92.58-3.6,110.4-1.63,8.91.99,8.86-35.87-2.26-42.36-18.07-10.55-88.85-13.93-108.52-.88-10.82,7.18-12.48,46.52.38,44.86Z"/>
          <path class="cls-3" d="M217.12,138c.3-.06,30.03-5.78,60.71,1.48.56.13,1.12.2,1.68.2,3.28,0,6.26-2.25,7.05-5.58.92-3.9-1.49-7.8-5.38-8.72-33.72-7.99-65.53-1.86-66.87-1.6-3.93.78-6.48,4.59-5.7,8.52.78,3.93,4.59,6.48,8.52,5.7Z"/>
        </g>
      </g>
      <g>
        <path class="cls-1" d="M216.13,339.37c0,4.02-1.96,6.19-5.6,6.19-2.99,0-5.12-1.94-5.21-4.73h-4.09c0,5,3.84,8.52,9.32,8.52,6.08,0,9.69-3.7,9.69-9.96v-23.78h-4.11v23.76Z"/>
        <path class="cls-1" d="M196.16,315.61h-3.27l-1.85,8.89h-7.61l1.78-8.89h-3.24l-1.85,8.89h-5.64l-.66,3.27h5.64l-1.67,8.31h-5.41l-.64,3.29h5.35l-1.85,9.21h3.24l1.87-9.21h7.65l-1.87,9.21h3.27l1.87-9.21h5.98l.64-3.29h-5.96l1.71-8.31h5.73l.64-3.27h-5.69l1.83-8.89ZM188.69,336.15h-7.7l1.71-8.43h7.7l-1.71,8.43Z"/>
        <path class="cls-1" d="M300.09,315.61h-11.08v32.96h11.08c9.8,0,15.56-6.1,15.56-16.49s-5.78-16.47-15.56-16.47ZM299.82,344.87h-6.69v-25.56h6.69c7.49,0,11.63,4.57,11.63,12.81s-4.16,12.75-11.63,12.75Z"/>
        <polygon class="cls-1" points="270.87 343.57 270.73 343.57 260.93 315.61 256.62 315.61 268.77 348.57 272.84 348.57 284.99 315.61 280.67 315.61 270.87 343.57"/>
        <path class="cls-1" d="M240.46,318.86c4.71,0,8.47,2.83,9.53,7.15h4.16c-1.05-6.58-6.51-10.94-13.68-10.94-9.02,0-14.85,6.67-14.85,17.02s5.76,17.04,14.85,17.04c7.29,0,12.17-3.63,13.68-10.14h-4.16c-1.19,4.02-4.66,6.35-9.5,6.35-6.51,0-10.64-5.16-10.64-13.25s4.18-13.23,10.62-13.23Z"/>
      </g>
    </g>
  </g>
</svg>