<?xml version="1.0" encoding="UTF-8"?>
<svg xmlns="http://www.w3.org/2000/svg" viewBox="0 0 500 500">
  <defs>
    <style>
      .cls-1 {
        opacity: .2;
      }

      .cls-2 {
        opacity: .18;
      }

      .cls-3 {
        opacity: .67;
      }

      .cls-4, .cls-5, .cls-6 {
        fill-rule: evenodd;
      }

      .cls-4, .cls-5, .cls-6, .cls-7, .cls-8, .cls-9, .cls-10, .cls-11, .cls-12, .cls-13, .cls-14 {
        stroke-width: 0px;
      }

      .cls-4, .cls-8 {
        fill: #343a41;
      }

      .cls-5 {
        fill: #869eb4;
      }

      .cls-6, .cls-12 {
        fill: #fff;
      }

      .cls-9 {
        fill: #49a4ab;
      }

      .cls-10 {
        fill: silver;
      }

      .cls-11 {
        fill: #9e9e9e;
      }

      .cls-13 {
        fill: #eaeaea;
      }

      .cls-14 {
        fill: #f0f0f0;
      }
    </style>
  </defs>
  <g id="stiker_style" data-name="stiker style">
    <path class="cls-12" d="M368.71,331.49c-.79-.17-1.63-.34-2.51-.5.14-.18.28-.37.41-.56l2.45-3.49c4.12-5.87,2.73-14.05-3.11-18.25l-1.48-1.06c1.7-6.04-.62-12.76-6.15-16.36-5.15-3.35-11.62-3.06-16.4.21l-12.19-8.64-.23.33c-.85-.28-1.73-.42-2.61-.43l-15.41-10.99c7.37-18.54,2.96-39.8-11.48-53.83-.54-17.24-3.06-44.37-13.13-56.4l-.12-.14c-18.05-20.59-60.57-21.97-73.19-21.87-25.24.15-56.81,5.67-69.7,20.73-11.86,13.86-10.99,52.14-9.57,72.43,0,0-.01,0-.02,0-3.9-.58-7.78.4-10.95,2.75-3.16,2.35-5.22,5.79-5.8,9.68-1.99,13.45,1.63,25.36,2.05,26.67,1.96,6.14,7.6,10.26,14.04,10.26,1.52,0,3.03-.24,4.49-.7,1.05-.33,2.03-.79,2.96-1.33,3.41,14.72,8.02,27.41,13.91,33.9,2.55,2.81,5.59,5.34,9.07,7.54.48,2.75.73,6.1.29,9.73-7.96,1.51-15.55,4.19-15.55,11.72,0,8.46,9.73,10.47,14.96,11.55,5.81,1.2,13.99,2.27,24.33,3.17,20.86,1.83,48.51,2.83,77.87,2.83s57.02-1.01,77.87-2.83c10.33-.91,18.52-1.97,24.32-3.17,5.23-1.08,14.96-3.1,14.96-11.55s-9.71-10.43-14.38-11.43ZM280.29,317.38c4.24-4.86,7.81-11.94,10.83-21.45,1.7-1.03,3.33-2.15,4.89-3.38l14.62,10.43c.26,2.43,1.51,4.76,3.65,6.29l1.34.96-.03.04,24.8,17.64c-16.73-1.35-37.56-2.2-59.94-2.46.05-2.49,0-5.18-.16-8.07Z"/>
  </g>
  <g id="Bubus">
    <g>
      <path class="cls-4" d="M280.72,166.67c-23.02-26.25-110.95-24.4-130.8-1.21-16.52,19.31-6.59,123.74,10.96,143.08,24.09,26.55,93.14,13.16,106.75,8.27,26.47-7.95,32.5-126.95,13.09-150.14Z"/>
      <path class="cls-12" d="M229.57,285.73c9.65-8.96,19.18-10.22,17.1,6.08,0,0-1.37-1.37-1.37-1.37,2.72-.44,6.62-.27,7.7,2.88.72,2.96-.69,5.73-2.82,7.79-4.3,3.65-10.48.69-13.94-2.56,0,0,.13-.27.13-.27,3.59,1.43,8.81,3.55,11.82.66.91-.94,2.8-4.21,1.54-5.38-1.06-.79-2.73-.81-4.07-.73-.68.11-1.34-.37-1.39-1.07,2.89-15.27-5.28-12.44-14.51-5.8,0,0-.2-.23-.2-.23h0Z"/>
      <path class="cls-5" d="M265.93,333.36c60.26,0,109.15,4.28,109.15,9.55s-48.9,9.56-109.15,9.56-109.15-4.29-109.15-9.56,48.92-9.55,109.15-9.55Z"/>
      <circle class="cls-12" cx="276.5" cy="253.89" r="10.65"/>
      <path class="cls-6" d="M277.21,189.91c-17.54-10.24-86.28-13.53-105.38-.86-10.51,6.97-12.13,45.18.37,43.57,29.1-3.76,89.9-3.5,107.2-1.59,8.65.96,8.61-34.82-2.19-41.13Z"/>
      <path class="cls-12" d="M257.72,174.38c-.51,0-1.04-.06-1.56-.18-29.74-7.05-58.79-1.5-59.08-1.44-3.65.72-7.2-1.66-7.92-5.31-.72-3.65,1.65-7.2,5.3-7.92,1.3-.26,32.13-6.2,64.81,1.55,3.62.86,5.87,4.49,5.01,8.12-.73,3.1-3.5,5.19-6.56,5.19Z"/>
      <path class="cls-4" d="M302.71,250.43s.98,10.01-2.7,19.9"/>
      <path class="cls-4" d="M133.61,267.3s-3.06-9.58-1.51-20.03"/>
      <path class="cls-8" d="M133.61,274.04c-2.86,0-5.51-1.83-6.42-4.69-.14-.45-3.51-11.21-1.76-23.07.54-3.68,3.97-6.23,7.66-5.68,3.68.54,6.23,3.97,5.68,7.66-1.28,8.66,1.24,16.91,1.27,17,1.13,3.55-.83,7.34-4.37,8.47-.68.22-1.37.32-2.05.32Z"/>
      <path class="cls-8" d="M179.73,345.42c-.56,0-1.13-.06-1.7-.18-4.42-.94-7.25-5.28-6.31-9.71,2.97-14.02-2.85-25.47-2.91-25.58-2.13-3.99-.62-8.93,3.37-11.06,3.99-2.13,8.96-.61,11.09,3.38.36.67,8.71,16.61,4.46,36.65-.82,3.85-4.22,6.49-8,6.49Z"/>
      <path class="cls-12" d="M204.5,254.07c-11.24-4.37-23.2-8.17-35.39-7.55l.02.4c2.97.12,5.93.66,8.83,1.28,5.78,1.34,11.42,3.21,16.89,5.51-1.21.11-2.41.26-3.62.48-4.12.81-8.56,2.11-11.56,5.23,0,0,.23.33.23.33,5.69-2.1,11.74-1.91,17.7-2.04,2.07-.02,4.16-.07,6.23-.06,2.02.02,2.57-2.86.66-3.58Z"/>
      <g>
        <path class="cls-4" d="M303.44,253.41c0,20.76-16.84,37.6-37.6,37.6s-37.6-16.84-37.6-37.6c0-12.11,5.73-22.89,14.63-29.76,6.35-4.92,14.32-7.84,22.96-7.84,3.23,0,6.37.41,9.36,1.17,16.23,4.17,28.24,18.9,28.24,36.42Z"/>
        <circle class="cls-12" cx="262.33" cy="254.97" r="18.46"/>
        <path class="cls-6" d="M274.63,216.98c-1.89,2.61-5.14,4.47-9,4.79l-18.91,2.52c-1.15.15-2.3.22-3.42.22-2.27,0-4.48-.3-6.58-.87,7.45-4.92,16.79-7.84,26.93-7.84,3.79,0,7.47.41,10.98,1.17Z"/>
      </g>
      <g>
        <polygon class="cls-13" points="332.91 296.89 327.23 305 294 281.3 299.69 273.19 332.91 296.89"/>
        <path class="cls-10" d="M294.5,281.65l20.21,2.25-14.53-10.36s-2.73,4.86-5.69,8.11Z"/>
        <g class="cls-2">
          <path class="cls-7" d="M278.37,284.64c-6.98,1.56-14.21,1.64-21.22.24-6.75-1.31-13.91-3.82-19.36-8.16-2.29-1.78-4.3-3.89-5.97-6.26,9.61,18.78,32.63,26.21,51.41,16.6,4.5-2.3,8.5-5.48,11.76-9.34-4.98,3.36-10.83,5.61-16.62,6.93Z"/>
        </g>
        <path class="cls-11" d="M362.51,322.34l-2.45,3.49c-1.59,2.29-4.74,2.85-7.03,1.26-.02-.01-.03-.02-.05-.03l-34.06-24.3c-.38-.27-.47-.79-.2-1.17l7.35-10.48c.26-.38.78-.47,1.16-.21,0,0,0,0,0,0l34.06,24.3c2.29,1.65,2.83,4.83,1.21,7.14Z"/>
        <polygon class="cls-9" points="333.08 295.02 324.76 306.88 323.35 305.87 331.67 294.01 333.08 295.02"/>
        <polygon class="cls-9" points="336.42 297.51 328.1 309.37 326.69 308.36 335.01 296.5 336.42 297.51"/>
        <path class="cls-11" d="M299.37,277.47c-.07.1-.14.2-.21.3-13.12,18.45-38.71,22.76-57.15,9.65-18.52-13.21-22.91-39.16-9.8-57.86.07-.1.14-.2.21-.3,13.12-18.45,38.71-22.76,57.15-9.65,18.52,13.21,22.91,39.16,9.8,57.86ZM287.13,222.52c-16.87-11.77-40.09-7.64-51.86,9.23-11.92,16.99-7.92,40.58,8.9,52.58.09.06.18.13.27.19,16.87,11.77,40.09,7.64,51.86-9.23,11.92-16.99,7.92-40.58-8.9-52.58-.09-.06-.18-.13-.27-.19Z"/>
        <path class="cls-9" d="M263.27,291.66c-20.89-1.27-36.84-19.44-35.56-40.51,1.28-21.07,19.31-37.18,40.19-35.92s36.84,19.44,35.56,40.51c-1.28,21.07-19.31,37.18-40.19,35.92ZM302.74,255.7c1.25-20.67-14.4-38.5-34.89-39.74-20.49-1.24-38.18,14.56-39.43,35.23-1.25,20.67,14.4,38.5,34.89,39.74,20.49,1.24,38.18-14.56,39.43-35.23h0Z"/>
        <g class="cls-1">
          <ellipse class="cls-14" cx="266.46" cy="253.62" rx="38.72" ry="38.38" transform="translate(-2.8 504.26) rotate(-86.53)"/>
        </g>
        <g class="cls-3">
          <path class="cls-12" d="M237.09,267.81c-3.18-4.49-4.57-10.22-4.3-15.7.24-4.72,2.12-9.95,6.13-12.8.61-.43,1.68.09,1.3.9-1.79,3.81-3.17,7.65-3.33,11.89-.18,4.84,1.69,9.18,3.61,13.5.91,2.04-2.04,4.16-3.42,2.21Z"/>
        </g>
      </g>
      <path class="cls-8" d="M345.64,316.34c-1.65,0-3.31-.6-4.61-1.82-2.72-2.54-2.86-6.81-.32-9.53,1.38-1.47,2.69-3.16,3.9-5.03,2.03-3.12,6.21-4,9.33-1.98,3.12,2.03,4.01,6.21,1.97,9.33-1.64,2.52-3.44,4.84-5.36,6.88-1.33,1.42-3.12,2.14-4.92,2.14Z"/>
      <path class="cls-8" d="M263.29,342.01c-.73,0-1.47-.1-2.21-.3-4.36-1.22-6.9-5.73-5.69-10.09.74-2.65.89-8.26.42-15-.27-3.83-.65-6.7-.65-6.73-.59-4.48,2.56-8.6,7.04-9.19,4.5-.6,8.6,2.56,9.19,7.04.02.14.44,3.37.75,7.73.64,9.02.31,15.93-.98,20.55-1.01,3.62-4.3,5.99-7.88,5.99Z"/>
    </g>
  </g>
</svg>