<?xml version="1.0" encoding="UTF-8"?>
<svg xmlns="http://www.w3.org/2000/svg" xmlns:xlink="http://www.w3.org/1999/xlink" viewBox="0 0 500 500">
  <defs>
    <style>
      .cls-1, .cls-2, .cls-3, .cls-4, .cls-5, .cls-6 {
        isolation: isolate;
      }

      .cls-1, .cls-2, .cls-3, .cls-4, .cls-5, .cls-6, .cls-7, .cls-8, .cls-9, .cls-10, .cls-11, .cls-12, .cls-13, .cls-14, .cls-15, .cls-16, .cls-17, .cls-18, .cls-19, .cls-20, .cls-21, .cls-22, .cls-23, .cls-24, .cls-25, .cls-26 {
        stroke-width: 0px;
      }

      .cls-1, .cls-2, .cls-27 {
        opacity: .6;
      }

      .cls-1, .cls-16 {
        fill: #54281f;
      }

      .cls-2 {
        fill: #bb68e2;
      }

      .cls-3 {
        fill: url(#Dégradé_sans_nom_3);
        opacity: .5;
      }

      .cls-3, .cls-7, .cls-8 {
        fill-rule: evenodd;
      }

      .cls-4 {
        opacity: .2;
      }

      .cls-4, .cls-19 {
        fill: #c8d2ec;
      }

      .cls-5 {
        opacity: .3;
      }

      .cls-5, .cls-14 {
        fill: #282c33;
      }

      .cls-6 {
        fill: #32318e;
        opacity: .4;
      }

      .cls-7, .cls-15 {
        fill: #5863c5;
      }

      .cls-8, .cls-22 {
        fill: #fff;
      }

      .cls-9 {
        fill: #f4d2ab;
      }

      .cls-10 {
        fill: #f4a44f;
      }

      .cls-11 {
        fill: #f8cf87;
      }

      .cls-12 {
        fill: #4c52bb;
      }

      .cls-13 {
        fill: #708bf1;
      }

      .cls-17 {
        fill: #869eb4;
      }

      .cls-18 {
        fill: #24272d;
      }

      .cls-20 {
        fill: #a8b9dd;
      }

      .cls-21 {
        fill: #8e473b;
      }

      .cls-23 {
        fill: #ffe5c5;
      }

      .cls-24 {
        fill: #f15483;
      }

      .cls-25 {
        fill: #e8b989;
      }

      .cls-26 {
        fill: #f4f7f9;
      }
    </style>
    <linearGradient id="Dégradé_sans_nom_3" data-name="Dégradé sans nom 3" x1="-9.92" y1="43.77" x2="-9.92" y2="102.64" gradientTransform="translate(189.28 183.12) rotate(-57.26) scale(1 -1)" gradientUnits="userSpaceOnUse">
      <stop offset="0" stop-color="#000"/>
      <stop offset=".98" stop-color="#f698fb"/>
    </linearGradient>
  </defs>
  <g id="stiker_style" data-name="stiker style">
    <g>
      <path class="cls-22" d="M126.48,124.78l.14.05c.86.38,1.8.61,2.8.66.14,0,.28.01.42.01,4.07,0,7.53-3.08,7.95-7.17.59-5.67,2.45-11.24,5.38-16.12.07-.1.15-.2.23-.29,1.27,1.29,3.18,2.42,6.01,3.17,1.33.72,2.87,1.07,4.47.94,4.15-.34,7.34-3.81,7.34-7.97v-.1c0-1.06-.21-2.11-.62-3.09-3.93-9.39-13.95-14.39-23.82-11.91-.16.04-.32.08-.47.13-10.04,3.2-16.28,13.77-18.55,31.44-.04.34-.06.68-.06,1.02,0,6.25,5.94,8.27,8.79,9.25ZM124.41,123.39c.21.19.44.37.67.55-.23-.17-.45-.35-.67-.55ZM125.21,124.03c.28.2.58.39.89.55-.3-.15-.6-.34-.89-.55ZM124.19,123.16c-.17-.17-.34-.34-.49-.53.15.18.32.36.49.53ZM123.47,122.34c-.14-.18-.28-.37-.41-.57.12.2.26.38.41.57ZM122.88,121.45c-.12-.21-.23-.42-.34-.64.1.22.22.43.34.64ZM122.41,120.46c-.09-.22-.18-.44-.25-.68.07.23.16.46.25.68ZM122.05,119.3c-.05-.2-.1-.4-.13-.61.03.21.08.41.13.61Z"/>
      <path class="cls-22" d="M273.49,120.08c8.86,7.16,19.43,11.84,30.69,13.56,3.1.74,6.25,1.13,9.43,1.19,5.85,9.71,15.78,16.57,27.08,18.45,1.39.35,2.68.53,3.86.53,1.99,0,3.71-.49,5.19-1.48,2.02-1.35,3.35-3.5,3.64-5.89.31-2.46-.49-4.91-2.2-6.72-1.83-1.95-4.33-2.89-7.77-2.92-3.68-1.24-6.83-3.59-9.05-6.67,1.83-.92,3.59-1.96,5.28-3.13.03-.02.07-.05.1-.07,6.59-4.71,9.94-12.61,8.75-20.63-.06-.37-.14-.74-.24-1.1-1.8-6.06-6.92-9.76-15.21-11-6.19-1.04-12.02.88-16.42,5.41-4.53,4.66-6.88,11.4-7.43,17.66-7.62-.24-15-3.3-20.57-8.7-.13-.13-.26-.25-.4-.37-2.54-2.15-5.6-2.54-7.78-2.74-2.08-.94-4.49-.96-6.63.02-2.84,1.3-4.66,4.14-4.66,7.27v.21c0,2.13.85,4.17,2.36,5.67.58.58,1.24,1.07,1.98,1.46Z"/>
      <path class="cls-22" d="M113.2,291.11c.12.02.24.04.36.06,1.63.24,3.26.35,4.91.35s3.33-.12,5-.36c1.89-.29,3.77-.75,5.59-1.36,3.45-1.17,5.68-4.51,5.42-8.15-.26-3.63-2.94-6.63-6.52-7.3-9.09-1.69-16.63-8.17-19.67-16.91-.03-.09-.06-.18-.1-.27-2.94-7.57-11.99-5.89-19.26-4.53-.37.07-.69.13-.94.17-1.45.1-2.89.59-4.15,1.49-3.18,2.29-4.23,6.56-2.48,10.07.02.04.04.08.06.11,5.25,13.68,17.34,23.84,31.76,26.62ZM91.33,253.3c-.89-.33-1.84-.5-2.78-.5.91-.02,1.85.15,2.78.5Z"/>
      <path class="cls-22" d="M422.01,182.86h-14.88c1.07-4.96,1.35-10.2.28-15.09,1.51.89,2.93,1.22,4.19,1.22,2.49,0,4.33-1.22,4.86-1.62.3-.23.59-.48.86-.74l10.35-10.35c2.9-2.9,3.14-7.53.55-10.71-4.58-5.62-6.83-7.94-10.7-8.13-2.25-.11-4.53.75-6.13,2.36l-10.35,10.35c-1.17,1.17-1.9,2.62-2.19,4.14-2.83-2.08-6.57-3.81-11.56-4.62-.25-.04-.5-.07-.75-.09-.44-.03-.87-.04-1.3-.06-3.29-.33-6.66-.14-10.05.56-.6.02-1.21.11-1.81.27-2.24.6-4.55,1.45-6.89,2.52-4.64,1.92-8.89,4.59-12.63,7.93-3.01,2.4-5.98,5.13-8.88,8.14-1.14-.39-2.31-.71-3.5-.96-1.08-.23-2.19-.4-3.29-.5-.55-.05-1.11-.09-1.68-.12-2.79-.12-5.58.16-8.29.8-5.8-6.79-16.99-17.6-30.39-19.07-.36-.07-.72-.12-1.09-.15-3.63-.25-7.24.24-10.7,1.46-.02,0-.05.02-.07.03-.85.3-1.61.61-2.33.94-2.71,1.14-5.19,2.71-7.38,4.67-.38.33-.71.7-1.01,1.08-5.24,5.34-7.57,12.69-6.58,20.91.44,3.62,1.54,7.41,3.17,11.08l-14.99,6.84c.25-1.14.38-2.33.36-3.55,0-.19-.01-.38-.03-.57-.55-6.36-2.51-12.64-5.68-18.18-.12-.21-.25-.42-.39-.62-.62-.88-1.38-1.64-2.23-2.23-4.1-2.88-9.76-1.91-12.67,2.14-.48.66-1.08,1.41-1.73,2.2-.63.78-1.33,1.65-2.05,2.6-1.5-4.14-3.11-8.23-4.83-12.27-.03-.07-.06-.14-.1-.21-.6-1.31-1.19-2.62-1.78-3.94-.86-1.91-1.73-3.87-2.67-5.84.03,0,.06,0,.09,0,.75,0,1.5-.06,2.24-.19.66-.11,1.3-.3,1.91-.57,4.08-1.79,6.83-5.58,7.3-9.97,1.07-5.96,1.04-12-.07-17.96-.02-.08-.03-.17-.05-.25-1.46-6.64-8.06-10.85-14.7-9.41-.05.01-.1.02-.15.04-6.42,1.54-10.54,7.95-9.34,14.4.27,1.96.35,3.93.29,5.89-1.8-1.6-3.79-3.07-6.03-4.33-12.6-7.14-29.59-6.58-53.52,1.77-5.44,1.94-10.43,3.93-14.88,5.93l-28.5-7.4-10.3-2.58-17.38-4.45c-3.17-.81-6.52.39-8.45,3.04s-2.05,6.2-.3,8.97l17.03,27.04,2.18,3.53c-3.11-.36-6.35.35-9.06,2.27-.12.08-.23.17-.35.25-5.61,4.21-6.84,12.14-2.82,17.84,3.76,5.83,8.5,10.87,14.09,14.98.08.06.15.11.23.17,2.21,1.51,4.8,2.29,7.42,2.29,1.13,0,2.27-.15,3.39-.44.25-.07.49-.14.73-.23,1.1-.41,2.14-.97,3.1-1.64,1.4,3.65,3.01,7.47,4.75,11.53,6.62,16.03,14.96,31.41,24.78,45.71.04.06.09.12.13.19,3.37,4.62,7.32,9.19,13.26,12.27.21,6.25.11,12.49-.3,18.59-.02.28-.02.56-.01.85.02.49.07.98.14,1.46-16.88,3.76-24.11,8.71-24.35,16.33-.64,7.94-.64,15.99.02,23.93.03.36.08.72.16,1.08.38,1.71.95,3.1,1.62,4.23.01.13.03.25.05.38v33.95c-9.31,1.33-16.9,2.84-22.62,4.51-4.84,1.41-16.18,4.73-16.18,14.07s11.06,12.54,15.78,13.95c6.87,2.05,16.54,3.86,28.74,5.4,24.51,3.09,57.04,4.79,91.57,4.79s64.43-1.57,88.55-4.42c27.19-3.21,37.85-7.16,42.49-10.47l23,.92c2.14.1,4.23-.69,5.79-2.16l37.66-35.28c2.4-2.24,3.18-5.72,1.97-8.78-.16-.41-.36-.8-.58-1.17v-133.75l1.92-.94c2.75-1.34,4.49-4.13,4.49-7.19v-23.59c0-4.42-3.58-8-8-8Z"/>
    </g>
  </g>
  <g id="Bubus">
    <g>
      <path class="cls-22" d="M153.21,97.94c-2.37-5.66-8.53-8.74-14.49-7.24-9.11,2.9-12,16.76-13.04,24.83,0,.72,4.14,1.86,4.14,1.97.72-6.96,2.98-13.68,6.62-19.66,1.6-2.35,3.87-4.15,6.52-5.17,1.44-.51,3.01-.51,4.45,0,.87.95,1.45,2.14,1.66,3.41,0,1.14,4.04,1.35,4.14,1.97v-.1Z"/>
      <path class="cls-22" d="M277.16,112.73c8.09,6.97,17.99,11.49,28.56,13.04,10.11,2.5,20.81.55,29.38-5.38,4.11-2.94,6.23-7.93,5.48-12.93-1.14-3.83-5.28-4.86-8.79-5.38-11.38-1.97-16.14,13.04-14.38,21.83,3.51,11.36,13.19,19.71,24.94,21.52,0,0,3,.83,3.1,0s-3.1-.62-3.1-.62c-10.27-2.79-17.86-11.48-19.24-22.04-.44-4.79.81-9.58,3.52-13.55,1.18-1.89,2.82-3.46,4.76-4.55.99-.58,2.08-.96,3.21-1.14h-1.76c0-.62,1.86,3.41,1.86,3.83,1.35,9.62-9.73,15.62-17.59,17.28-12.35,2.25-25.03-1.61-34.04-10.35-1.35-1.14-5.28-.72-5.9-1.35v-.21Z"/>
      <g>
        <path class="cls-18" d="M153.72,142.43c-54.84,19.56-48.22,38.39-34.45,70.46,6.42,15.56,14.47,30.41,24,44.28,7.55,10.35,17.18,19.56,54.22,5.59s38.39-27.52,39.11-34.25c-2.69-20.62-8.19-40.78-16.35-59.91-9.42-20.38-15.83-43.87-66.53-26.18Z"/>
        <path class="cls-18" d="M230.08,267.11h-.72c-3.3.5-6.41-1.69-7.04-4.97v-1.14c-.88-5.85-2.44-11.58-4.66-17.07v-1.45c-2.11-2.63-1.69-6.47.94-8.58,2.63-2.11,6.47-1.69,8.58.94.91,1.14,1.39,2.56,1.34,4.02v1.45c2.4,6.07,4.14,12.38,5.17,18.83v1.14c.57,2.85-.94,5.7-3.62,6.83Z"/>
        <path class="cls-22" d="M200.91,149.57c6.06,3.52,10.37,9.41,11.9,16.24,2.28,6.41,3.1,12.21-6,14.28-24.06,7.38-47.66,16.19-70.67,26.38-9.42,4.55-16.76-15.83-13.97-25.35,2.9-11.17,28.14-20.8,44.28-26.69,10.76-4.97,22.74-6.66,34.45-4.86Z"/>
        <path class="cls-22" d="M140.69,158.67c-1.47.47-3.04-.35-3.51-1.82-.42-1.32.19-2.74,1.44-3.35,11.78-5.88,24.26-10.23,37.14-12.93,1.51-.32,2.99.65,3.31,2.16,0,0,0,0,0,.01.32,1.51-.65,2.99-2.16,3.31,0,0,0,0-.01,0-12.42,2.58-24.45,6.75-35.8,12.42l-.41.21Z"/>
        <path class="cls-18" d="M230.08,267.11h-1.24c-3.3.3-6.22-2.14-6.51-5.44,0-.01,0-.03,0-.04-.1-6.47-1.84-12.81-5.07-18.42h0c-1.39-3.06-.05-6.66,3-8.07,2.99-1.42,6.57-.15,8,2.84.03.05.05.11.07.16h0c3.86,6.83,5.95,14.51,6.1,22.35.37,2.97-1.47,5.78-4.35,6.62Z"/>
        <path class="cls-18" d="M224.08,147.4c-.62.1-1.25.1-1.86,0-2.45-.21-4.26-2.37-4.05-4.81,0-.05,0-.1.02-.15.58-4.05.58-8.16,0-12.21-.52-2.37.95-4.71,3.31-5.28,2.34-.51,4.66.97,5.17,3.31.95,5.09.95,10.32,0,15.42-.09,1.63-1.09,3.07-2.59,3.72Z"/>
        <path class="cls-18" d="M101.27,198.61c-1.45.39-3,.12-4.24-.72-4.84-3.56-8.98-7.98-12.21-13.04-1.64-2.2-1.18-5.31,1.02-6.95.04-.03.08-.06.12-.09,2.29-1.62,5.46-1.12,7.14,1.14,2.67,3.91,5.91,7.4,9.62,10.35,2.31,1.57,2.91,4.72,1.35,7.04-.65,1.05-1.64,1.85-2.79,2.28Z"/>
        <path class="cls-22" d="M214.77,187.02c-4.66-.93-8.79,3.41-8.79,9.11,0,1.35,1.35,1.86,2.07.93,1.2-2.16,3.43-3.53,5.9-3.62,1.98.1,3.83,1.04,5.07,2.59.83.93,2.07,0,1.86-1.35.05-.2.05-.42,0-.62-.37-3.39-2.8-6.19-6.1-7.04Z"/>
        <path class="cls-22" d="M152.79,215.79h0c-2.66-3.9-7.82-5.19-12-3-4.08,2.76-5.22,8.26-2.59,12.42h0c.39.69,1.2,1.03,1.97.83.56-.03,1.07-.34,1.35-.83.55-2.38,2.1-4.41,4.24-5.59,1.76-1.09,3.86-1.49,5.9-1.14h.31c.87-.34,1.36-1.27,1.14-2.17l-.31-.52Z"/>
        <path class="cls-22" d="M208.56,206.99c-12.04,13.22-29.45,20.23-47.28,19.04-14.17,0-2.17,31.04,23.18,26.28,28.35-4.76,32.18-21.62,33.32-30.42,1.14-8.79-2.69-22.14-9.21-14.9Z"/>
      </g>
      <path class="cls-22" d="M88.64,260.9c4.13,11.53,14.04,20.03,26.07,22.35,2.5.36,5.05.36,7.55,0,1.44-.22,2.86-.57,4.24-1.03-11.94-2.22-21.77-10.67-25.76-22.14-.72-1.86-12.11.93-12.21.72l.1.1Z"/>
      <g>
        <path class="cls-7" d="M138,149.57l-12.42,11.9c-2.24,2.19-4.19,4.66-5.79,7.35l-10.35,16.04-7.35-12.52-7.04-11.07-17.07-27.11,17.38,4.45,10.35,2.59,32.28,8.38Z"/>
        <polygon class="cls-3" points="124.24 162.19 77.99 134.15 137.17 150.6 124.24 162.19"/>
        <path class="cls-8" d="M95.58,141.7c4.1,3.39,8.91,5.83,14.07,7.14-3.74-3.91-8.71-6.43-14.07-7.14Z"/>
      </g>
      <g>
        <path class="cls-8" d="M125.06,150.5c1.27,3.43-.47,7.24-3.9,8.51-3,1.11-6.36-.07-8-2.82-1.27-3.43.47-7.24,3.9-8.51,3-1.11,6.36.07,8,2.82Z"/>
        <path class="cls-8" d="M104.37,163.95c1.45,3.02.37,6.64-2.48,8.38l-6.83-11.07h.72c3.13-1.48,6.87-.31,8.59,2.69Z"/>
        <path class="cls-8" d="M105.2,141.19c1.5,3.29.13,7.17-3.1,8.79-3.31,1.54-7.25.11-8.79-3.21-1.32-2.87-.45-6.27,2.07-8.17l9.83,2.59Z"/>
      </g>
      <polygon class="cls-17" points="379.07 395.71 265.26 391.16 308.92 360.43 416.74 360.43 379.07 395.71"/>
      <g>
        <g>
          <polygon class="cls-15" points="415.6 214.13 415.6 360.43 387.14 381.33 387.14 228 415.6 214.13"/>
          <rect class="cls-12" x="260.92" y="228" width="126.23" height="153.34"/>
          <g>
            <rect class="cls-12" x="254.4" y="205.85" width="136.89" height="23.59"/>
            <polygon class="cls-15" points="422.01 190.85 422.01 214.44 391.28 229.44 391.28 205.85 422.01 190.85"/>
            <polygon class="cls-15" points="422.01 190.85 391.28 205.85 254.4 205.85 287.3 190.85 422.01 190.85"/>
          </g>
        </g>
        <rect class="cls-19" x="312.13" y="229.44" width="23.69" height="151.78"/>
        <rect class="cls-19" x="305.2" y="205.85" width="23.69" height="23.69"/>
        <polygon class="cls-22" points="328.89 205.85 305.2 205.85 330.96 190.85 354.66 190.85 328.89 205.85"/>
        <polygon class="cls-6" points="415.6 217.55 391.28 229.44 260.92 229.44 260.92 249.41 387.14 238.96 415.6 220.24 415.6 217.55"/>
        <g>
          <path class="cls-22" d="M325.79,178.02s-19.56-28.35-38.9-19.35c-19.35,9-7.45,33.32,1.86,39.73,12.35,4.78,26.15,4.11,37.97-1.86,4.14-4.24,1.45-15.42-.93-18.52Z"/>
          <path class="cls-20" d="M320.72,194.99s-28.56-8.79-32.07-5.38c-3.52,3.41,1.45,7.24,6.31,8.48,4.86,1.24,30.73.83,25.76-3.1Z"/>
          <path class="cls-19" d="M298.27,196.65c-9.42-6.41-21.31-31.04-2.07-39.73-3.2-.22-6.41.38-9.31,1.76-19.45,8.9-7.45,33.32,1.86,39.73,9.9,3.98,20.88,4.38,31.04,1.14-7.3,1.23-14.81.22-21.52-2.9Z"/>
          <path class="cls-4" d="M325.79,178.02s-19.56-28.35-38.9-19.35c-1.93.8-3.72,1.92-5.28,3.31,1.11-.76,2.29-1.42,3.52-1.97,19.35-8.9,38.9,19.35,38.9,19.35,3.46,5.43,3.97,12.23,1.35,18.11l1.35-.93c4.14-4.24,1.45-15.42-.93-18.52Z"/>
          <path class="cls-22" d="M348.76,179.88c-5.33-4.07-12.21-5.51-18.73-3.93-10.35,2.79-11.59,17.59-9.73,20.69,1.86,3.1,10.35,3.93,15.52,1.45,5.17-2.48,12.93-18.21,12.93-18.21Z"/>
          <path class="cls-19" d="M339.86,194.16c-4.86,2.38-13.55,1.76-15.42-1.55-1.41-4.87-.77-10.1,1.76-14.49-5.5,4.7-7.8,12.16-5.9,19.14,1.86,3.31,10.35,3.93,15.52,1.45,2.07-1.38,3.84-3.18,5.17-5.28l-1.14.72Z"/>
          <path class="cls-2" d="M328.69,178.33c6.53-1.53,13.41-.05,18.73,4.04l1.35-2.48c-5.33-4.07-12.21-5.51-18.73-3.93-3.86,1.18-6.96,4.09-8.38,7.86,1.59-2.63,4.1-4.58,7.04-5.48Z"/>
          <path class="cls-22" d="M336.34,194.16c4.04-8.9,26.9-40.35,49.66-36.52,22.76,3.83,12.31,32.38,6.41,38.49-5.9,6.1-27.73,8.38-39.73,5.28-12-3.1-19.24-1.14-16.35-7.24Z"/>
          <path class="cls-20" d="M340.58,194.16s30.11-10.35,40.66-8.28,10.35,8.38-3.1,12.42c-7.45,1.59-15.12,1.87-22.66.83-9.11-1.35-16.86-2.9-14.9-4.97Z"/>
          <path class="cls-19" d="M363.97,196.44c-11.8-3.52-19.35-1.14-16.55-7.35,6.76-12.42,16.37-23.05,28.04-31.04-18.83,5.07-35.7,28.45-39.11,36.11-3.41,7.66,4.66,3.83,16.45,7.35,13,3.77,26.97,2.09,38.7-4.66-9.07,2.1-18.52,1.96-27.52-.41Z"/>
          <path class="cls-4" d="M386.01,157.54c-10.39-.71-20.6,3.06-28.04,10.35,7.1-6.18,16.38-9.24,25.76-8.48,22.76,3.83,12.21,32.49,6.31,38.49h0c.96-.61,1.86-1.3,2.69-2.07,5.59-5.9,16.14-34.56-6.73-38.28Z"/>
        </g>
        <polygon class="cls-13" points="415.6 360.43 415.6 217.55 422.01 214.44 422.01 190.85 400.08 190.85 415.6 193.75 415.6 217.55 411.05 219.82 411.05 363.74 415.6 360.43"/>
      </g>
      <g>
        <ellipse class="cls-17" cx="224.7" cy="393.54" rx="128.09" ry="16.14"/>
        <g>
          <path class="cls-16" d="M346.59,311.8v75.63c0,8.69-47.28,15.73-105.64,15.73s-105.54-7.04-105.54-15.73v-75.63c0,8.79,47.28,15.83,105.64,15.83s105.54-7.04,105.54-15.83Z"/>
          <g>
            <path class="cls-21" d="M346.59,378.23v3.41c-33.47,5.25-67.31,7.81-101.19,7.66-36.79,0-73.55-2.55-109.98-7.66v-3.41c70.04,10.01,141.14,10.01,211.17,0Z"/>
            <path class="cls-21" d="M346.59,369.12v3.41c-33.47,5.25-67.31,7.81-101.19,7.66-36.79-.05-73.54-2.61-109.98-7.66v-3.41c70.04,10.01,141.14,10.01,211.17,0Z"/>
          </g>
          <path class="cls-1" d="M249.22,403.16h-8.28c-58.35,0-105.54-7.04-105.54-15.73v-75.63c0,7.24,32.59,13.35,76.98,15.21l36.83,76.15Z"/>
          <g class="cls-27">
            <g>
              <path class="cls-16" d="M346.59,327.12v3c.31,3.74-.15,7.51-1.35,11.07-2.38,1.66-1.55,9-7.14,10.35-5.59,1.35-5.69-3.83-7.86-7.45-2.17-3.62-7.24-.52-3.83,8.59,3.41,9.11,0,15.62-7.04,11.69-7.04-3.93,2.17-13.04-2.28-18.11-4.45-5.07-7.86,4.04-19.45,6.93-11.59,2.9-12.31-4.14-25.76-10.35-13.45-6.21-20.69,10.35-33.94,11.9-13.24,1.55-21.52-18.42-27-12.11-5.48,6.31,2.69,18.93-5.79,24.42-8.48,5.48-12.11-4.35-9.52-10.35,2.59-6,5.17-13.14-3.93-14.17-9.11-1.03-13.66,10.97-22.76,12.62-6.13,1.77-12.57-1.61-14.59-7.66-1.24-3.62-6.83-7.24-8.38-1.03s3.62,13.97-2.17,16.14-8.38-2.9-6.31-7.14c1.8-4.8,2.06-10.05.72-15-.83-1.03-1.86-.83-2.9-.72v-27.94c0,8.79,47.28,15.83,105.64,15.83,54.94,0,100.05-6.31,105.12-14.28.06.24.06.49,0,.72,0,0,.52,6.41.52,13.04Z"/>
              <path class="cls-16" d="M179.8,354.12c-3.21.72-6.83,9.62-1.35,11.38,5.48,1.76,4.24-12,1.35-11.38Z"/>
              <path class="cls-16" d="M266.61,349.36c-3.62,1.66-1.03,8.28,2.9,9.11,3.93.83,4.14-12.52-2.9-9.11Z"/>
            </g>
          </g>
          <g>
            <path class="cls-9" d="M133.55,311.8c-.63,7.61-.63,15.26,0,22.87,1.24,5.59,4.55,1.03,6.31,3.62,1.33,4.95,1.08,10.2-.72,15-1.66,4.55,0,9.21,6.31,7.04s.62-10.35,2.17-16.14,7.14-2.59,8.38,1.03c2.07,6.01,8.47,9.37,14.59,7.66,9.11-1.66,13.66-13.55,22.76-12.62,9.11.93,6.41,8.38,3.93,14.07s1.24,15.62,9.62,10.35c8.38-5.28,0-18.11,5.69-24.42,5.69-6.31,13.24,13.86,27,12.11,13.76-1.76,20.69-18.21,33.94-12,13.24,6.21,14.07,13.35,25.76,10.35,11.69-3,15.11-12,19.45-6.93s-4.86,14.07,2.28,18.11,10.35-2.59,7.04-11.69c-3.31-9.11,1.66-12.21,3.83-8.59,2.17,3.62,2.38,8.28,7.86,7.35,5.48-.93,4.86-8.17,7.14-10.35,1.42-8.96,1.73-18.07.93-27.11l-214.28.31Z"/>
            <path class="cls-9" d="M181.97,351.95c-3.21.72-6.73,9.62-1.35,11.38,5.38,1.76,4.24-12.11,1.35-11.38Z"/>
            <path class="cls-9" d="M268.78,347.09c-3.62,1.55-1.03,8.28,2.9,9.11,3.93.83,4.24-12.42-2.9-9.11Z"/>
            <path class="cls-23" d="M348.34,311.8c0,8.9-48.01,16.14-107.4,16.14s-107.4-7.24-107.4-16.14,48.11-16.04,107.4-16.04,107.4,7.24,107.4,16.04Z"/>
          </g>
          <g class="cls-27">
            <g>
              <path class="cls-16" d="M255.12,359.71c0,.97-.79,1.76-1.76,1.76h0c-.95-.05-1.71-.81-1.76-1.76,0-.97.79-1.76,1.76-1.76h0c.91-.06,1.7.63,1.76,1.55,0,.07,0,.14,0,.21Z"/>
              <path class="cls-16" d="M260.81,365.61c.06.51-.3.97-.81,1.03-.07,0-.15,0-.22,0-.51,0-.93-.41-.94-.93,0-.04,0-.07,0-.11,0-.51.42-.93.93-.93h0c.51-.06.97.31,1.03.82,0,.04,0,.07,0,.11Z"/>
              <path class="cls-16" d="M293.4,363.43c0,1.2-.97,2.17-2.17,2.17s-2.17-.97-2.17-2.17.97-2.17,2.17-2.17c1.18.05,2.12,1,2.17,2.17Z"/>
              <path class="cls-16" d="M282.95,369.12c-.05.36-.36.62-.72.62-.34,0-.62-.28-.62-.62,0-.36.26-.67.62-.72.4,0,.72.32.72.72Z"/>
              <path class="cls-16" d="M241.67,370.05c0,.4-.33.72-.73.72-.4,0-.72-.32-.72-.72,0-.4.33-.72.73-.72.4,0,.72.32.72.72Z"/>
              <path class="cls-16" d="M218.18,366.64c0,1.26-1.02,2.28-2.28,2.28s-2.28-1.02-2.28-2.28c0-1.26,1.02-2.28,2.28-2.28h0c1.26,0,2.28,1.02,2.28,2.28Z"/>
              <circle class="cls-16" cx="216.22" cy="395.71" r=".93"/>
              <path class="cls-16" d="M191.49,385.78c-.05.93-.83,1.66-1.76,1.66-.91,0-1.66-.74-1.66-1.66,0-.93.72-1.7,1.66-1.76.95.05,1.71.81,1.76,1.76Z"/>
              <path class="cls-16" d="M187.66,366.64c0,.51-.42.93-.93.93s-.93-.42-.93-.93.42-.93.93-.93.93.42.93.93h0Z"/>
              <circle class="cls-16" cx="161.17" cy="369.12" r="2.38"/>
              <path class="cls-16" d="M152.59,375.75c0,.57-.46,1.03-1.03,1.03h0c-.51.06-.97-.3-1.03-.81,0-.07,0-.15,0-.22,0-.57.46-1.03,1.03-1.03h0c.55.05.99.48,1.03,1.03Z"/>
              <path class="cls-16" d="M303.34,383.09c0,1.49-1.22,2.68-2.71,2.67-1.49,0-2.68-1.22-2.67-2.71,0-1.49,1.22-2.68,2.71-2.67.1,0,.2,0,.29.02,1.36.16,2.39,1.32,2.38,2.69Z"/>
              <path class="cls-16" d="M283.37,390.75c0,.63-.51,1.14-1.14,1.14h0c-.59-.05-1.04-.55-1.03-1.14.05-.55.48-.99,1.03-1.03.59,0,1.08.45,1.14,1.03Z"/>
              <circle class="cls-16" cx="327.44" cy="370.68" r="1.03"/>
              <circle class="cls-16" cx="336.86" cy="362.19" r=".72"/>
            </g>
          </g>
        </g>
        <g>
          <path class="cls-16" d="M321.65,249.31v57.63c0,6.62-36.11,12-80.6,12s-80.6-5.38-80.6-12v-57.63c0,6.62,36.11,12,80.6,12s80.6-5.07,80.6-12Z"/>
          <g>
            <path class="cls-21" d="M321.65,297.63v3c-25.44,5.68-51.43,8.46-77.5,8.28-28.1.02-56.14-2.72-83.7-8.17v-3.1c53.18,10.91,108.02,10.91,161.2,0Z"/>
            <path class="cls-21" d="M321.65,288.01v3c-25.42,5.76-51.43,8.57-77.5,8.38-28.1-.04-56.13-2.77-83.7-8.17v-3c53.19,10.88,108.04,10.81,161.2-.21Z"/>
          </g>
          <path class="cls-1" d="M224.7,318.32c-36.73-1.14-64.36-6-64.36-11.8v-57.22c0,3.83,12.62,7.35,31.97,9.52l32.38,59.49Z"/>
          <g class="cls-27">
            <g>
              <path class="cls-16" d="M321.65,249.31v33.01c-.41.65-.93,1.21-1.55,1.66-7.35,5.28-9.83-3.21-9.42-8.79.41-5.59-6-9.21-9.31-9.52s-4.66,5.07-7.04,10.35c-2.38,5.28-4.86,5.79-13.04,2.79-8.17-3-7.24,7.14-7.24,12s-4.55,9.52-9.31,5.9c-4.76-3.62,0-12.73,0-18.52s-6.1-9.11-22.56,0c-12.34,6.05-26.87,5.59-38.8-1.24-7.35-2.79-14.17,11.48-23.59,9.62-9.42-1.86-11.8-14.8-13.35-11.28s1.76,15.62-1.35,21.21c-.83,1.76-2.6,2.89-4.55,2.9v-50.08c0,6.62,36.11,12,80.6,12s80.5-5.07,80.5-12Z"/>
              <path class="cls-16" d="M250.57,280.87h-.52c-1.76,2.17-3.72,5.07,0,6.93s5.79-9.31.52-6.93Z"/>
            </g>
          </g>
          <g>
            <path class="cls-9" d="M157.76,249.31c-.45,5.99-.45,12.01,0,18,.57,8.65.57,17.32,0,25.97.1,2.46,2.17,4.37,4.62,4.27,1.77-.07,3.32-1.18,3.97-2.82,3.21-5.59,0-17.59,1.35-20.69,1.35-3.1,4.24,9.73,13.66,11.48,9.42,1.76,16.14-12.42,23.59-9.62,11.89,6.72,26.33,7.15,38.59,1.14,16.45-9.21,22.04-5.79,22.45,0,.41,5.79-4.55,14.8,0,18.52,4.55,3.72,9.31-1.14,9.31-6s-.93-14.8,7.14-11.9c8.07,2.9,10.35,2.48,13.04-2.79,2.69-5.28,3.83-10.35,7.14-10.35s9.83,3.93,9.31,9.52,1.97,14.07,9.42,8.69c7.45-5.38,2.59-32.9,2.59-32.9l-166.17-.52Z"/>
            <path class="cls-9" d="M251.6,279.11c-1.86,2.28-3.72,5.17-.52,6.93,3.21,1.76,6.31-9.21.93-6.93"/>
            <path class="cls-23" d="M324.13,249.31c0,6.83-37.25,12.42-82.77,12.42s-82.77-5.59-82.77-12.42,37.25-12.52,82.77-12.52,82.77,5.59,82.77,12.52Z"/>
          </g>
          <g class="cls-27">
            <g>
              <circle class="cls-16" cx="286.99" cy="304.56" r=".83"/>
              <path class="cls-16" d="M285.75,286.14c.06.97-.68,1.8-1.65,1.86-.04,0-.07,0-.11,0-1.03,0-1.86-.83-1.86-1.86h0c.05-.99.87-1.76,1.86-1.76.97,0,1.76.79,1.76,1.76h0Z"/>
              <path class="cls-16" d="M169.76,307.04c-.05.3-.31.52-.62.52M169.14,307.04c-.11-.19-.11-.43,0-.62.34,0,.62.28.62.62h-.62Z"/>
              <path class="cls-16" d="M234.22,294.42c0,.34-.28.62-.62.62-.34,0-.62-.28-.62-.62h0c0-.34.28-.62.62-.62.34,0,.62.28.62.62Z"/>
              <path class="cls-16" d="M201.94,286.25c.11.19.11.43,0,.62-.34,0-.62-.28-.62-.62.19-.11.43-.11.62,0h0Z"/>
              <path class="cls-16" d="M229.15,289.87c.06,1.03-.73,1.91-1.76,1.96-.04,0-.07,0-.11,0-1.06.25-2.11-.41-2.36-1.47s.41-2.11,1.47-2.36c.29-.07.6-.07.9,0,1.03,0,1.86.83,1.86,1.86h0Z"/>
              <path class="cls-16" d="M224.7,307.97c0,.46-.37.83-.83.83-.46,0-.83-.37-.83-.83,0-.46.37-.83.83-.83.46,0,.83.37.83.83Z"/>
              <path class="cls-16" d="M208.87,310.77c0,.8-.65,1.45-1.45,1.45s-1.45-.65-1.45-1.45.65-1.45,1.45-1.45,1.45.65,1.45,1.45h0Z"/>
              <path class="cls-16" d="M185.8,292.56c0,.46-.37.83-.83.83-.4,0-.73-.32-.73-.72,0-.04,0-.07,0-.11,0-.4.32-.72.72-.72.42,0,.78.31.83.72Z"/>
              <circle class="cls-16" cx="199.35" cy="306.32" r="2.07"/>
              <circle class="cls-16" cx="252.12" cy="308.49" r="2.28"/>
              <circle class="cls-16" cx="266.4" cy="313.04" r=".93"/>
              <path class="cls-16" d="M306.85,295.25c-.05.47-.45.83-.93.83-.46,0-.83-.37-.83-.83-.06-.45.26-.87.72-.92.04,0,.07,0,.11,0,.51,0,.93.42.93.93h0Z"/>
              <path class="cls-16" d="M314.41,288.11c0,.34-.28.62-.62.62-.34,0-.62-.28-.62-.62,0-.34.28-.62.62-.62h0c.34,0,.62.28.62.62Z"/>
            </g>
          </g>
        </g>
        <g>
          <path class="cls-25" d="M248.29,245.9c-6.71,3.34-14.13,4.97-21.62,4.76-7.86,0-7.24-2.28-3.41-4.04,3.54-1.3,7.22-2.17,10.97-2.59l14.07,1.86Z"/>
          <path class="cls-13" d="M249.22,244.03c-.02.78-.45,1.49-1.14,1.86-2.15,1.28-4.64,1.89-7.14,1.76-2.08-.07-4.12-.67-5.9-1.76-.65-.4-1.04-1.1-1.03-1.86v-38.9c0-.86.48-1.66,1.24-2.07,1.9-.81,3.94-1.24,6-1.24,2.27-.06,4.53.36,6.62,1.24.83.34,1.37,1.17,1.35,2.07v38.9Z"/>
          <path class="cls-12" d="M249.22,204.51c0,1.45-3.41,2.59-7.66,2.59s-7.55-1.14-7.55-2.59,3.41-2.69,7.55-2.69,7.66,1.14,7.66,2.69Z"/>
          <path class="cls-14" d="M242.91,204.51c-.4.13-.84.13-1.24,0h-1.03v-11.28c.7-.41,1.57-.41,2.28,0v11.28Z"/>
          <g>
            <path class="cls-10" d="M241.77,199.75c-3.65.23-6.8-2.54-7.03-6.19-.01-.21-.02-.43,0-.64,0-6.73,4.97-11.17,7.97-15.31.36-.51,1.07-.64,1.59-.28.11.08.2.17.28.28,2.61,4.57,4.2,9.65,4.66,14.9.06,3.94-3.09,7.19-7.03,7.25-.14,0-.28,0-.42,0Z"/>
            <path class="cls-11" d="M241.88,198.71c-2.45.12-4.54-1.78-4.65-4.24,0-.11,0-.21,0-.32,0-4.35,3.31-7.24,5.28-10.35.21-.34.65-.45.99-.25.1.06.19.15.25.25,1.73,2.99,2.82,6.3,3.21,9.73.23,2.62-1.7,4.93-4.32,5.17-.25.02-.5.03-.75,0Z"/>
            <path class="cls-24" d="M241.98,197.99c-1.26.06-2.32-.91-2.38-2.17,0-.07,0-.14,0-.21.27-1.95,1.22-3.75,2.69-5.07h.62c.9,1.52,1.47,3.21,1.66,4.97,0,1.37-1.11,2.48-2.48,2.49-.04,0-.07,0-.11,0Z"/>
          </g>
          <g>
            <path class="cls-26" d="M249.22,206.68v2.69c-4.59,2.88-9.81,4.58-15.21,4.97v-2.17c5.45-.51,10.69-2.4,15.21-5.48Z"/>
            <path class="cls-26" d="M249.22,213.2v2.69c-4.61,2.83-9.82,4.54-15.21,4.97v-2.17c5.45-.51,10.69-2.4,15.21-5.48Z"/>
            <path class="cls-26" d="M249.22,219.72v2.69c-4.59,2.88-9.81,4.58-15.21,4.97v-2.17c5.45-.51,10.69-2.4,15.21-5.48Z"/>
            <path class="cls-26" d="M249.22,226.24v2.69c-4.59,2.88-9.81,4.58-15.21,4.97v-2.17c5.45-.51,10.69-2.4,15.21-5.48Z"/>
            <path class="cls-26" d="M249.22,232.75v2.79c-4.61,2.83-9.82,4.54-15.21,4.97v-2.17c5.46-.54,10.7-2.46,15.21-5.59Z"/>
            <path class="cls-26" d="M249.22,239.27v2.69c-3.84,2.41-8.14,3.99-12.62,4.66-.55-.16-1.08-.4-1.55-.72-.44-.25-.77-.66-.93-1.14,5.41-.56,10.6-2.44,15.11-5.48Z"/>
          </g>
          <path class="cls-5" d="M245.4,244.65c-2.05-.1-4.04-.7-5.79-1.76-.72-.39-1.16-1.15-1.14-1.97v-38.8l-3,.93c-.76.41-1.23,1.21-1.24,2.07v38.9c0,.76.39,1.46,1.03,1.86,1.78,1.08,3.81,1.69,5.9,1.76,2.5.14,4.99-.48,7.14-1.76.63-.33,1.05-.95,1.14-1.66-1.31.36-2.68.5-4.04.41Z"/>
        </g>
      </g>
      <path class="cls-22" d="M411.67,160.95l10.35-10.35s-4.55-5.59-4.97-5.17l-10.35,10.35s4.55,5.48,4.97,5.17Z"/>
    </g>
  </g>
</svg>