<?xml version="1.0" encoding="UTF-8"?>
<svg xmlns="http://www.w3.org/2000/svg" viewBox="0 0 500 500">
  <defs>
    <style>
      .cls-1 {
        fill: #1c5959;
      }

      .cls-1, .cls-2, .cls-3, .cls-4, .cls-5, .cls-6, .cls-7 {
        fill-rule: evenodd;
      }

      .cls-1, .cls-2, .cls-3, .cls-4, .cls-5, .cls-6, .cls-7, .cls-8 {
        stroke-width: 0px;
      }

      .cls-2 {
        fill: #55a7ae;
      }

      .cls-3 {
        fill: #256f71;
      }

      .cls-4 {
        fill: #282c33;
      }

      .cls-5 {
        fill: #869eb4;
      }

      .cls-6, .cls-8 {
        fill: #fff;
      }

      .cls-7 {
        fill: #badadb;
      }
    </style>
  </defs>
  <g id="stiker_style" data-name="stiker style">
    <path class="cls-8" d="M380.66,333.52c-4.35-2.79-8.85-5.67-14.38-7.16-8.62-2.31-18.26-1.29-25.37.16-1.2-1.35-2.55-2.36-4.01-2.98-2.12-2.31-4.58-4.18-7.22-5.53,18.21-3.86,33.23-10.56,33.89-22.14.15-2.71-.46-6.81-4.29-10.95-5.08-5.48-14.83-9.72-26.86-12.89,3.53-9.7,5.59-44.96,4.54-69.34,1.77.81,3.7,1.25,5.67,1.25,3.94,0,7.68-1.71,10.26-4.68,8.63-9.94,11.68-17.26,12.21-18.64,2.65-6.93-.82-14.78-7.75-17.48-6.89-2.69-14.73.7-17.52,7.55-.11.26-1.55,3.4-5.24,8.1-3.4-26.02-10.98-55.62-78.02-53.03h0c-35.27,1.38-56.05,7.82-67.37,20.88-5.77,6.66-8.63,14.5-9.83,23.11-1.4-1.93-3.28-3.48-5.5-4.51-3.44-1.59-7.3-1.75-10.86-.45-3.56,1.31-6.4,3.92-8,7.37-1.59,3.44-1.75,7.3-.44,10.86,4.99,13.6,10.62,20.14,11.69,21.31,2.69,2.93,6.52,4.62,10.5,4.62,1.32,0,2.61-.18,3.85-.53,3.13,29.27,8.44,51.62,12.45,62.99-14.07,4.05-24.64,10.32-25.19,19.99-.15,2.71.46,6.81,4.29,10.95,6.93,7.48,22.57,12.65,40.83,15.96-2.86,1.69-5.42,4.01-7.51,6.84-1.36.78-2.58,1.92-3.62,3.37-7.29-.69-17.09-.7-25.47,2.52-5.38,2.06-9.56,5.41-13.62,8.65-7.05,5.64-12.62,10.09-24.24,8.07-19.38-3.38-22.95-1.14-25.45,1.87-1.89,2.28-2.42,5.43-1.4,8.21,1.37,3.75,3.95,6.88,23.3,10.26,3.04.53,6.04.8,8.91.8,15.43,0,24.88-7.56,31.78-13.08,2.95-2.36,5.73-4.58,8.11-5.49,4.33-1.66,10.32-1.72,15.39-1.29.47,1.32,1.12,2.6,2.03,3.72.09.11.18.2.27.3.7,1.96,1.58,3.83,2.69,5.55,2.16,3.35,5,6.01,8.23,7.8h0c-.1.9.55,1.71,1.45,1.81l25.73,2.78s.03,0,.05,0c.02,0,.05,0,.07,0l6.5.7c.9.1,1.71-.55,1.81-1.45l.36-3.33c.87-1.14,1.67-2.5,2.39-4.11l4.36.47h.07c.33.04.66.06.98.06,2.24,0,4.4-.76,6.18-2.2,2-1.63,3.27-3.94,3.56-6.49l.02-.15c.25-2.59-.51-5.12-2.15-7.13-.25-.31-.53-.6-.81-.87.35-.22.7-.45,1.02-.72,2.01-1.62,3.28-3.94,3.57-6.51.3-2.61-.48-5.27-2.14-7.3-1.61-1.98-3.89-3.25-6.44-3.56l-4.47-.48c-.36-1.74-.83-3.28-1.45-4.58l.07-.62c3.81.19,7.56.33,11.19.4,1.08.02,3.08.05,5.79.05,4.55,0,11.11-.09,18.66-.44l.91,4.08c-2,5.94-.72,15.12.86,22.24h0c2.26,10.13,5.14,16.97,8.7,20.64l.7,3.12c.2.88,1.07,1.44,1.95,1.24l6.39-1.39s.04,0,.07-.01c.02,0,.04-.01.06-.02l18.83-4.1s0,0,0,0c0,0,0,0,0,0l6.24-1.36c.89-.19,1.45-1.07,1.25-1.96h0c2.28-1.64,4.27-3.74,5.87-6.24,1.59-2.48,2.72-5.27,3.41-8.22.06-.08.12-.16.18-.25.77-1.21,1.28-2.54,1.6-3.9,4.91-.94,10.74-1.49,15.14-.32,2.43.65,5.42,2.57,8.58,4.59h0c3.49,2.24,6.7,3.16,9.46,3.16,3.83,0,6.78-1.78,8.38-4.27,1.28-1.99,4.57-9.05-6.69-16.27Z"/>
  </g>
  <g id="Bubus">
    <g id="MOB">
      <g id="MOBILITE-Soléa-Suspendu">
        <g id="CARDINGS">
          <g id="Group-4">
            <g id="Group-57">
              <path id="Fill-1" class="cls-2" d="M136.4,360.96c-23.82-4.15-22.25-8.59.8-4.57,15.17,2.65,23.02-3.63,30.61-9.7,3.73-2.99,7.26-5.81,11.48-7.43,12.69-4.87,30.52-.72,31.27-.54,1.25.3,2.02,1.55,1.72,2.8-.3,1.25-1.55,2.02-2.79,1.72-.17-.04-17.2-3.99-28.54.36-3.54,1.36-6.8,3.96-10.24,6.72-6.42,5.14-14.16,11.33-26.78,11.33-2.34,0-4.84-.21-7.53-.68Z"/>
              <path id="Fill-3" class="cls-3" d="M212.53,341.24c-.49,4.54-2.29,8.06-4.02,7.87-1.73-.18-2.74-4.02-2.24-8.55.49-4.54,2.29-8.06,4.02-7.88,1.73.19,2.73,4.03,2.24,8.56"/>
              <path id="Fill-5" class="cls-2" d="M238.27,344.53c-1.12,10.37-8.82,18.06-17.2,17.16-8.38-.9-14.28-10.06-13.16-20.43,1.12-10.37,8.83-18.05,17.21-17.15,8.38.9,14.27,10.06,13.15,20.42"/>
              <polygon id="Fill-7" class="cls-2" points="240.77 363.81 244.82 326.23 225.12 324.1 221.06 361.68 240.77 363.81"/>
              <path id="Fill-9" class="cls-6" d="M223.76,328.91c-.05,0-.1,0-.15,0l-2-.22c-.77-.08-1.32-.77-1.23-1.54.08-.77.77-1.32,1.54-1.23l2,.22c.77.08,1.32.77,1.23,1.54-.08.71-.68,1.24-1.38,1.24"/>
              <path id="Fill-11" class="cls-3" d="M246.81,345.45c-1.12,10.37-3.94,18.59-6.3,18.33-2.35-.26-3.36-8.89-2.25-19.26,1.12-10.37,3.94-18.59,6.29-18.33,2.36.25,3.36,8.88,2.25,19.25"/>
              <path id="Fill-13" class="cls-7" d="M257.66,340.68c.48.05.96-.09,1.33-.39.37-.3.61-.74.66-1.21.05-.47-.09-.96-.39-1.32-.29-.37-.73-.61-1.21-.67-4.23-.46-14.49-1.56-14.49-1.56l-.39,3.58s10.26,1.11,14.49,1.57"/>
              <path id="Fill-15" class="cls-7" d="M256,356.06c.48.05.95-.09,1.32-.39.37-.3.61-.74.67-1.21.05-.48-.09-.95-.39-1.32-.3-.37-.74-.61-1.21-.66-4.23-.46-14.49-1.57-14.49-1.57l-.39,3.58s10.26,1.11,14.49,1.57"/>
              <path id="Fill-17" class="cls-2" d="M373.86,344.93c-3.7-2.37-7.2-4.61-10.83-5.59-11.66-3.13-27.97,2.57-28.14,2.63-1.21.43-2.54-.2-2.96-1.41-.43-1.21.2-2.53,1.41-2.96.72-.26,17.83-6.24,30.89-2.74,4.33,1.16,8.12,3.59,12.14,6.17,8.16,5.23,3.67,7.87-2.51,3.91Z"/>
              <path id="Fill-19" class="cls-3" d="M331.68,340.31c.99,4.45,3.16,7.77,4.85,7.39,1.68-.36,2.24-4.27,1.25-8.72-1-4.45-3.17-7.76-4.85-7.4-1.68.37-2.23,4.28-1.24,8.73"/>
              <path id="Fill-21" class="cls-2" d="M306.69,346.26c2.27,10.17,10.73,16.99,18.88,15.22,8.15-1.78,12.93-11.48,10.66-21.65-2.27-10.17-10.73-17-18.88-15.22-8.16,1.78-12.93,11.48-10.66,21.65"/>
              <polygon id="Fill-23" class="cls-2" points="306.4 365.65 298.18 328.79 317.35 324.61 325.57 361.48 306.4 365.65"/>
              <path id="Fill-25" class="cls-3" d="M298.38,348.07c2.27,10.17,5.97,18.03,8.27,17.53,2.29-.5,2.31-9.17.04-19.34-2.27-10.17-5.97-18.03-8.26-17.53-2.3.5-2.31,9.16-.05,19.34"/>
              <path id="Fill-27" class="cls-1" d="M299.81,338.17c.62-.17,1.37.59,1.69,1.69.32,1.12.07,2.16-.54,2.33-.61.18-1.37-.58-1.69-1.69-.33-1.11-.08-2.15.54-2.33"/>
              <path id="Fill-29" class="cls-1" d="M303.33,353.51c.61-.17,1.37.59,1.69,1.69.32,1.12.07,2.16-.54,2.33-.61.18-1.37-.58-1.7-1.69-.32-1.12-.07-2.16.54-2.34"/>
              <path id="Fill-31" class="cls-5" d="M266.97,272.91c49.59.99,89.3,11.42,88.63,23.27-.67,11.86-41.49,20.68-91.08,19.7-49.59-.99-89.3-11.42-88.63-23.27.68-11.86,41.49-20.68,91.08-19.7"/>
              <path id="Fill-33" class="cls-4" d="M256.89,134.51c-73.88,2.89-73.04,28.21-68.45,72.45,3.16,30.52,8.64,52.59,12.28,62.8,5.37,15.04,13.39,30.24,63.61,27.32,50.23-2.91,57.07-18.8,60.48-26.76,3.42-7.96,6.26-56.1,3.14-79.44-3.76-28.15-2.75-59.03-71.06-56.37"/>
              <path id="Fill-35" class="cls-4" d="M321.11,303.27c-1.71,0-3.43-.56-4.86-1.73q-9.01-7.31-21.35-11.69l2.51-7.32,2.59-7.3-2.59,7.3,2.67-7.27c14.44,5.12,15.16,5.52,25.91,14.24,3.32,2.69,3.84,7.58,1.15,10.9-1.53,1.89-3.77,2.87-6.02,2.87"/>
              <path id="Fill-37" class="cls-4" d="M242.15,312.43c-2.52,0-5-1.23-6.48-3.5-.16-.24-5.89-8.56-20.31-17.82-3.6-2.31-4.64-7.1-2.33-10.7,2.31-3.6,7.1-4.64,10.7-2.33,17.35,11.14,24.19,21.28,24.92,22.4,2.32,3.59,1.29,8.38-2.3,10.7-1.3.84-2.76,1.24-4.19,1.24"/>
              <path id="Fill-39" class="cls-4" d="M342.65,196.7c-1.3,0-2.6-.45-3.65-1.37-2.33-2.02-2.58-5.54-.56-7.87,6.63-7.63,8.77-12.91,8.79-12.96,1.14-2.85,4.37-4.26,7.22-3.15,2.86,1.12,4.28,4.31,3.19,7.17-.27.7-2.85,7.13-10.77,16.25-1.1,1.27-2.66,1.92-4.22,1.92"/>
              <path id="Fill-41" class="cls-4" d="M176.78,201.7c-1.69,0-3.38-.68-4.61-2.02-.55-.6-5.51-6.22-10.08-18.67-1.18-3.22.47-6.78,3.68-7.96,3.22-1.18,6.78.47,7.96,3.68,3.71,10.1,7.58,14.56,7.61,14.6,2.32,2.52,2.13,6.43-.4,8.74-1.18,1.09-2.68,1.62-4.18,1.62"/>
              <path id="Fill-43" class="cls-6" d="M314.64,165.96c5.61,4.15,7.49,13.57,7.86,23.43.31,8.37-.82,15.43-12.02,14.41-11.2-1.02-69.67,1.68-90.55,4.79-12.46,1.86-13.59-27.42-7-37.43,7.82-11.85,45.47-12.58,60.98-12.05,19.56.66,33.56,1.57,40.73,6.86"/>
              <path id="Fill-45" class="cls-6" d="M243.82,153.8c-2.92,0-5.35-2.3-5.49-5.25-.14-3.03,2.21-5.6,5.25-5.74l2.37-.11q23.63-1.06,44.09-.12l1.43.07c3.03.14,5.38,2.71,5.24,5.74-.14,3.03-2.74,5.37-5.74,5.24l-1.43-.07q-19.96-.92-43.09.12l-2.37.11c-.08,0-.17,0-.25,0"/>
              <path id="Fill-47" class="cls-6" d="M235.01,235.65c-.67,0-1.34-.24-1.87-.73l-15.72-14.5c-1.12-1.03-1.19-2.77-.16-3.89,1.03-1.12,2.77-1.19,3.89-.16l15.72,14.5c1.12,1.03,1.19,2.77.16,3.89-.54.59-1.28.89-2.02.89"/>
              <path id="Fill-49" class="cls-6" d="M219.9,236.26c-.67,0-1.34-.24-1.87-.73-1.12-1.03-1.19-2.77-.16-3.89l14.5-15.72c1.03-1.12,2.77-1.19,3.89-.16,1.12,1.03,1.19,2.77.16,3.89l-14.51,15.72c-.54.59-1.28.89-2.02.89"/>
              <path id="Fill-51" class="cls-6" d="M320.02,228.1c-.67,0-1.34-.24-1.87-.73l-14.27-13.19c-1.12-1.03-1.19-2.77-.15-3.89,1.03-1.12,2.77-1.19,3.89-.15l14.27,13.19c1.12,1.03,1.19,2.77.15,3.89-.54.59-1.28.88-2.02.88"/>
              <path id="Fill-53" class="cls-6" d="M306.3,228.65c-.67,0-1.34-.24-1.86-.73-1.12-1.03-1.19-2.77-.16-3.89l13.17-14.29c1.03-1.12,2.77-1.19,3.89-.16,1.12,1.03,1.19,2.77.16,3.89l-13.17,14.29c-.54.59-1.28.89-2.03.89"/>
              <path id="Fill-55" class="cls-6" d="M248.1,263.85c21.38-12.02,40.25-6.22,49.37-2.92,12.88,4.67,11.35-27.48-13.27-31.32-27.5-4.34-36.24,9.99-39.99,17.68-3.32,6.82-4.28,21.17,3.9,16.56"/>
            </g>
          </g>
        </g>
      </g>
    </g>
  </g>
</svg>