<?xml version="1.0" encoding="UTF-8"?>
<svg xmlns="http://www.w3.org/2000/svg" viewBox="0 0 500 500">
  <defs>
    <style>
      .cls-1 {
        fill: #948fb6;
      }

      .cls-1, .cls-2, .cls-3, .cls-4, .cls-5 {
        fill-rule: evenodd;
      }

      .cls-1, .cls-2, .cls-3, .cls-4, .cls-5, .cls-6, .cls-7 {
        stroke-width: 0px;
      }

      .cls-2 {
        fill: #88819f;
      }

      .cls-3 {
        fill: #d6dee4;
      }

      .cls-4 {
        fill: #6c6684;
      }

      .cls-5 {
        fill: #f9cac3;
      }

      .cls-6 {
        fill: #869eb4;
      }

      .cls-7 {
        fill: #fff;
      }
    </style>
  </defs>
  <g id="stiker_style" data-name="stiker style">
    <g>
      <path class="cls-7" d="M360.37,218.37c12.37-2.07,20.47-12.78,18.95-25.33-.12-1.03-.44-2-.92-2.87-.11-.49-.24-.97-.37-1.46-.83-3.79-2.49-7.43-4.82-10.54-4.37-5.83-10.74-9.62-17.96-10.66-7.21-1.04-14.4.8-20.23,5.16-.08.06-.16.12-.24.19-.89.72-1.72,1.49-2.48,2.28-.32-6.69-1.46-13.31-3.39-19.74-3.44-13.68-9.39-26.39-17.69-37.78-4.97-7.05-10.7-13.26-17.03-18.45l-.09-.08c-.8-.69-1.6-1.38-2.42-2.05-.46-.37-.95-.69-1.46-.94-26.12-18.91-58.53-19.17-74.55-8.09-7.74,5.35-10.87,13.12-8.38,20.76.08.25.16.49.25.73-23.25,14.46-37.71,39.38-38.55,67.03-1.1-1.3-2.33-2.54-3.74-3.68-.08-.07-.16-.13-.24-.19-5.83-4.37-13.02-6.21-20.23-5.16-7.21,1.04-13.59,4.82-17.96,10.66-2.33,3.11-3.99,6.75-4.81,10.54-.14.49-.26.97-.37,1.46-.47.86-.79,1.82-.91,2.83-.81,6.37.83,12.47,4.61,17.16,3.48,4.33,8.62,7.26,14.29,8.22,2.83,18.67,11.81,31.76,25.9,37.82-3.34,15.73-8.43,28.88-12.28,38.8-1.73,4.46-3.23,8.33-4.18,11.49-2.27,6.43-3.41,13.15-3.41,19.98-.14,1.09-.18,2.11-.12,3.11.48,7.48,4.23,14.36,10.58,19.36,11.08,8.75,29.24,11.48,51.13,7.7,4.94-.85,9.83-2.21,14.87-4.13,5.4,2.03,10.68,3.85,16.06,5.51l.75.26c.4.14.79.27,1.22.42,5.22,1.7,10.66,2.93,16.16,3.66,4.26.64,8.4.96,12.43.96,11.73,0,22.54-2.71,32.69-8.2,20.68,7.9,37.67,5.33,48.51,1.61,13.71-4.7,18.52-14.17,19.44-20.36.08-.24.14-.49.2-.74.57-2.61,2.4-16.59-17.12-35.18-10.38-9.9-16.58-29.63-18.99-43.8,14.79-5.81,24.04-18.9,26.92-38.27Z"/>
      <path class="cls-7" d="M330.08,383.71c-18.8-2.22-43.72-3.44-70.18-3.44s-51.39,1.22-70.18,3.44c-23.18,2.74-35.74,6.12-35.74,16.12s12.56,13.39,35.74,16.12c18.8,2.22,43.72,3.44,70.18,3.44s51.38-1.22,70.18-3.44c23.18-2.74,35.74-6.12,35.74-16.12s-12.56-13.39-35.74-16.12Z"/>
    </g>
  </g>
  <g id="Bubus">
    <g>
      <g>
        <g>
          <path class="cls-1" d="M315.97,207.5c15.42,0,12.58-19.28,23.85-28.41l11.37,4.57s15.53,68.4-37.14,68.4l1.93-44.55Z"/>
          <path class="cls-4" d="M352.9,195.32c1.73,19.48,0,56.32-38.87,56.32l1.32-31.15c2.44,4.25,7.73,5.93,12.18,3.86,12.48-5.18,12.89-28.01,12.89-28.01l12.48-1.01Z"/>
          <path class="cls-1" d="M184.04,207.5c-15.42,0-12.58-19.28-23.85-28.41l-11.47,4.57s-15.42,68.4,37.24,68.4l-1.93-44.55Z"/>
          <path class="cls-4" d="M147.11,195.32c-1.73,19.48.1,56.73,38.87,56.73l-1.32-31.15c-2.44,4.25-7.73,5.93-12.18,3.86-12.58-5.18-12.89-28.01-12.89-28.01l-12.48-1.42Z"/>
          <path class="cls-1" d="M160.2,179.08c-8.52-6.38-20.61-4.64-26.99,3.88-1.7,2.28-2.88,4.9-3.45,7.69-6.49,22.02,26.38,29.33,30.44,4.57v-16.14Z"/>
          <path class="cls-2" d="M128.64,194c-2.44,19.28,27.3,24.66,31.46,1.22v-2.13c-6.82,8.89-19.56,10.57-28.46,3.75-1.09-.84-2.1-1.79-3-2.83Z"/>
          <path class="cls-4" d="M354.73,320.14l4.67,8.12,2.13,5.89s0,10.15-14.21,15.02c-14.21,4.87-38.05,6.49-65.76-14.31-27.7-20.8-42.21,8.12-75.7,13.9-33.49,5.78-51.45-5.38-52.36-19.69-.91-14.31,35.82-31.66,35.82-31.66l165.41,22.73Z"/>
          <path class="cls-1" d="M250.41,105.1h0c-40.54.28-73.3,33.13-73.47,73.67v45.87c0,39.98-16.34,71.03-20.3,84.33-2.32,6.5-3.32,13.4-2.94,20.3,10.15-21.61,34.4,5.58,89.81,22.02,55.41,16.44,69.82-22.33,90.21-27.5,10.56-3.75,22.3.51,28.01,10.15,0,0,2.44-11.26-14.82-27.7s-22.53-51.35-22.53-58.86v-68.6c-.17-40.74-33.24-73.67-73.98-73.67Z"/>
          <path class="cls-1" d="M246.15,125.91c-13.79,1.91-26.96-6.34-31.26-19.59-7.51-23.04,83.82-39.48,107.47,56.42,0,0-16.24-48.2-76.21-36.84Z"/>
          <g>
            <path class="cls-2" d="M346.51,306.44c-17.15-16.54-22.53-51.35-22.53-58.86v-68.8c0-5.8-.71-11.53-2.06-17.1.15.36.3.71.44,1.07-4.55-23.4-17.2-44.46-35.72-59.47,10.37,8.61,18.28,19.72,23.06,32.19-.28-.38-.55-.76-.83-1.13,6.71,17.65,8.77,36.73,5.99,55.41-8.42,68.4-13.4,106.04,14.61,134.86l-.2.81c1.31-.58,2.67-1.05,4.06-1.42,10.56-3.75,22.3.51,28.01,10.15,0,0,2.33-11.16-14.82-27.7Z"/>
            <path class="cls-2" d="M251.43,312.42c6.19-41.2,6.7-43.84,6.7-45.77s-6.29,13.8-28.72,42.01c-11.11,16.08-31.67,22.63-50.03,15.93l-.71.3c20.69,10.18,42.05,18.93,63.93,26.18,9.39,3.06,19.26,4.4,29.12,3.96,0,0-26.49-1.42-20.3-42.62Z"/>
          </g>
        </g>
        <path class="cls-5" d="M301.56,196.54c-.43-5.5-4.23-10.16-9.54-11.67-5.71-.85-11.28,2.22-13.6,7.51,0,1.83,4.87-1.52,13.09,0,8.22,1.52,9.84,7.81,10.05,4.16Z"/>
        <path class="cls-5" d="M199.57,197.45c-.43-4.69,1.9-9.21,5.99-11.57,4.97-2.13,10.15,3.45,11.06,5.68.91,2.23-4.26-1.32-10.15.51-5.89,1.83-6.39,9.23-6.9,5.38Z"/>
        <path class="cls-3" d="M244.63,211.45c30.44-.91,34.91-11.47,40.59-6.9s3.86,20.8-14.21,32.47c-13.68,7.49-30.11,8.01-44.24,1.42-10.15-5.38-21.61-19.28-17.35-33.69,1.62-5.68,14.11,7.61,35.21,6.7Z"/>
        <path class="cls-1" d="M339.81,179.08c8.52-6.38,20.61-4.64,26.99,3.88,1.7,2.28,2.88,4.9,3.45,7.69,6.49,22.02-26.38,29.33-30.44,4.57v-16.14Z"/>
        <path class="cls-2" d="M371.37,194c2.33,19.28-27.4,24.66-31.46,1.22v-2.13c6.82,8.89,19.56,10.57,28.46,3.75,1.09-.84,2.1-1.79,3-2.83Z"/>
      </g>
      <ellipse class="cls-6" cx="259.89" cy="399.83" rx="97.93" ry="11.57"/>
    </g>
  </g>
</svg>