<?xml version="1.0" encoding="UTF-8"?>
<svg xmlns="http://www.w3.org/2000/svg" viewBox="0 0 500 500">
  <defs>
    <style>
      .cls-1, .cls-2, .cls-3 {
        fill-rule: evenodd;
      }

      .cls-1, .cls-2, .cls-3, .cls-4, .cls-5 {
        stroke-width: 0px;
      }

      .cls-1, .cls-4 {
        fill: #272c32;
      }

      .cls-2 {
        fill: #869eb4;
      }

      .cls-3, .cls-5 {
        fill: #fff;
      }
    </style>
  </defs>
  <g id="stiker_style" data-name="stiker style">
    <path class="cls-5" d="M378.16,241.49c-.97-4.21-3.52-7.8-7.19-10.09-3.67-2.3-8.01-3.03-12.22-2.06-4.21.97-7.8,3.52-10.09,7.19-2.98,4.76-7.25,8.41-9.61,10.22.64-18.23-.12-35.57-2.24-50.22-2.52-17.45-6.78-29.86-12.66-36.9l-.12-.14c-18.09-20.62-58.43-24.25-74.93-24.85-26.38-.96-51.62,2.82-69.22,10.1l-6.77-18.56c-1.43-3.82-4.28-6.84-8.01-8.49-3.73-1.66-7.88-1.74-11.67-.24l-2.05.81c-3.81,1.5-6.88,4.54-8.43,8.33-1.55,3.79-1.48,8.11.19,11.85l5.5,11.61c-1.72-1.77-3.87-3.07-6.31-3.75-3.67-1.02-7.51-.54-10.82,1.36l-1.64.94c-3.31,1.91-5.74,5.13-6.66,8.84s-.26,7.69,1.78,10.92l11.43,17.13c1.53,2.38,3.67,4.12,6.08,5.2-.77,3.58-.21,7.26,1.63,10.46,1.04,1.81,2.43,3.35,4.06,4.54-.4,10.46-.19,21.94.56,33.65-.9-.05-1.8-.04-2.71.06-4.3.48-8.15,2.6-10.85,5.97-9.77,12.2-13.04,26.07-13.38,27.61-1.92,8.6,3.5,17.25,12.08,19.28l.2.05c1.18.26,2.36.39,3.52.39,7.4,0,14.1-5.11,15.78-12.54,0,0,.03-.14.09-.35,4.3,24.9,10.93,46.32,19.16,55.4,3.03,3.34,6.66,6.31,10.82,8.89-.51,1.44-1.11,2.83-1.79,4.17-10.77.96-19.83,2.17-26.42,3.54-6.28,1.3-17.97,3.71-17.97,12.94,0,9.88,12.28,13.03,36.45,15.66,19.19,2.09,44.65,3.24,71.7,3.24s52.54-1.15,71.75-3.24c24.21-2.63,36.51-5.77,36.51-15.66,0-8.9-10.95-11.38-16.22-12.56-4.98-1.12-11.4-2.13-19.14-3.01.34-3.66.43-7.83.26-12.54,10.66-14.61,15.79-40.73,18.26-61.52,2.69,1.81,5.87,2.78,9.09,2.78,2.91,0,5.85-.78,8.5-2.43,1.34-.83,13.37-8.54,21.65-21.75,2.3-3.67,3.03-8.01,2.06-12.22Z"/>
  </g>
  <g id="Bubus">
    <g>
      <path class="cls-2" d="M245.45,353.77c55.36,0,100.26,4.95,100.26,10.97,0,6.02-44.9,10.89-100.26,10.89-55.36,0-100.15-4.88-100.15-10.89,0-6.02,44.9-10.97,100.15-10.97Z"/>
      <path class="cls-4" d="M299.6,362.7c4.35,0,8.35-2.88,9.57-7.28,1.53-5.48,1.9-13.34,1.14-24.05-.35-5.06-.84-8.83-.86-8.99-.7-5.45-5.68-9.3-11.14-8.59-5.45.7-9.29,5.69-8.59,11.13h0s.43,3.39.74,7.84c.82,11.58-.14,16.17-.46,17.31-1.48,5.29,1.62,10.78,6.91,12.25.89.25,1.79.37,2.68.37Z"/>
      <path class="cls-4" d="M195.06,366.11c-.66-.18-1.31-.42-1.94-.75-4.9-2.49-6.85-8.48-4.36-13.37,7.49-14.72,4.45-29.22,4.42-29.36-1.24-5.35,2.1-10.66,7.45-11.9,5.35-1.24,10.7,2.12,11.94,7.47.2.87,4.79,21.44-6.08,42.81-2.17,4.26-6.99,6.3-11.44,5.1Z"/>
      <path class="cls-1" d="M318.01,164.75c-26.79-30.54-129.1-28.39-152.19-1.41-19.23,22.47-7.66,143.98,12.75,166.49,28.03,30.89,108.37,15.32,124.21,9.62,30.8-9.26,37.8-147.72,15.23-174.7Z"/>
      <path class="cls-3" d="M208.14,248.42c9.53,0,17.27,7.74,17.27,17.27,0,9.53-7.74,17.25-17.27,17.25-9.53,0-17.25-7.73-17.25-17.25,0-9.53,7.73-17.27,17.25-17.27Z"/>
      <path class="cls-3" d="M303.34,248.42c8.12,0,14.72,6.6,14.72,14.72s-6.6,14.7-14.72,14.7c-8.12,0-14.7-6.58-14.7-14.7,0-8.12,6.58-14.72,14.7-14.72Z"/>
      <path class="cls-3" d="M314.79,192.29c-20.42-11.92-100.4-15.74-122.63-1-12.23,8.11-14.1,52.57.42,50.7,33.86-4.37,104.62-4.07,124.76-1.85,10.06,1.12,10.01-40.52-2.55-47.86Z"/>
      <path class="cls-4" d="M135.73,284.48l.1.02c4.41.98,8.78-1.79,9.77-6.19.06-.24,2.35-9.86,8.62-17.69,2.83-3.53,2.26-8.69-1.27-11.51-3.53-2.83-8.69-2.26-11.51,1.27-8.76,10.94-11.7,23.8-11.82,24.35-.98,4.38,1.76,8.72,6.11,9.75Z"/>
      <path class="cls-4" d="M338.95,265.99s.02.03.03.05c2.39,3.83,7.42,5,11.25,2.62.47-.29,11.64-7.31,19.09-19.2,2.4-3.83,1.24-8.89-2.6-11.29-3.83-2.4-8.89-1.24-11.29,2.6-5.37,8.58-13.78,13.94-13.87,13.99-3.8,2.39-4.97,7.41-2.62,11.23Z"/>
      <path class="cls-5" d="M288.53,173.34c3.71,0,7.07-2.54,7.96-6.3,1.04-4.4-1.68-8.82-6.08-9.86-38.1-9.03-74.04-2.1-75.56-1.8-4.44.88-7.32,5.19-6.44,9.63.88,4.44,5.19,7.32,9.62,6.45.43-.09,34.13-6.5,68.6,1.67.63.15,1.27.22,1.9.22Z"/>
      <path class="cls-5" d="M169.74,160.43h0c3.6-1.42,5.4-5.47,4.04-9.09l-8.16-22.37c-1.39-3.71-5.56-5.56-9.25-4.11l-2.05.81c-3.76,1.48-5.52,5.8-3.87,9.49l10.21,21.55c1.55,3.47,5.55,5.11,9.09,3.71Z"/>
      <circle class="cls-5" cx="174.45" cy="173.65" r="7.92"/>
      <path class="cls-5" d="M151.31,183.12h0c2.88-1.66,3.9-5.32,2.29-8.23l-9.73-17.98c-1.65-2.98-5.42-4.03-8.37-2.33l-1.64.95c-3.01,1.73-3.96,5.62-2.11,8.55l11.37,17.04c1.75,2.76,5.36,3.64,8.18,2.02Z"/>
      <circle class="cls-5" cx="156.96" cy="193.77" r="6.8"/>
      <ellipse class="cls-5" cx="260.1" cy="308.37" rx="13.93" ry="17.84"/>
    </g>
  </g>
</svg>