<?xml version="1.0" encoding="UTF-8"?>
<svg xmlns="http://www.w3.org/2000/svg" xmlns:xlink="http://www.w3.org/1999/xlink" viewBox="0 0 500 500">
  <defs>
    <style>
      .cls-1 {
        fill: url(#Dégradé_sans_nom_697-2);
      }

      .cls-1, .cls-2, .cls-3, .cls-4, .cls-5, .cls-6 {
        mix-blend-mode: lighten;
        opacity: .1;
      }

      .cls-1, .cls-2, .cls-3, .cls-4, .cls-5, .cls-6, .cls-7, .cls-8, .cls-9, .cls-10, .cls-11, .cls-12, .cls-13, .cls-14 {
        stroke-width: 0px;
      }

      .cls-2 {
        fill: url(#Dégradé_sans_nom_697-4);
      }

      .cls-3 {
        fill: url(#Dégradé_sans_nom_697-3);
      }

      .cls-4 {
        fill: url(#Dégradé_sans_nom_8);
      }

      .cls-5 {
        fill: url(#Dégradé_sans_nom_8-2);
      }

      .cls-6 {
        fill: url(#Dégradé_sans_nom_697);
      }

      .cls-7 {
        fill: url(#Dégradé_sans_nom_597);
      }

      .cls-8, .cls-9, .cls-10 {
        fill-rule: evenodd;
      }

      .cls-8, .cls-11 {
        fill: #262c32;
      }

      .cls-9 {
        fill: #869eb4;
      }

      .cls-10, .cls-13 {
        fill: #fff;
      }

      .cls-15 {
        isolation: isolate;
      }

      .cls-12 {
        fill: #21272c;
      }

      .cls-14 {
        fill: #001a2f;
      }
    </style>
    <linearGradient id="Dégradé_sans_nom_597" data-name="Dégradé sans nom 597" x1="258.42" y1="168.97" x2="261.17" y2="186.41" gradientTransform="translate(-9.09 -9.19) rotate(-.21)" gradientUnits="userSpaceOnUse">
      <stop offset="0" stop-color="#fff"/>
      <stop offset="1" stop-color="#17142f" stop-opacity=".97"/>
    </linearGradient>
    <linearGradient id="Dégradé_sans_nom_697" data-name="Dégradé sans nom 697" x1="129" y1="154.62" x2="149.55" y2="232.63" gradientTransform="translate(-9.09 -9.19) rotate(-.21)" gradientUnits="userSpaceOnUse">
      <stop offset="0" stop-color="#141414" stop-opacity=".05"/>
      <stop offset=".2" stop-color="#fff" stop-opacity=".4"/>
      <stop offset=".54" stop-color="#fff"/>
      <stop offset=".8" stop-color="#fff" stop-opacity=".4"/>
      <stop offset="1" stop-color="#000" stop-opacity="0"/>
    </linearGradient>
    <linearGradient id="Dégradé_sans_nom_697-2" data-name="Dégradé sans nom 697" x1="118.26" y1="163.22" x2="137.47" y2="236.16" xlink:href="#Dégradé_sans_nom_697"/>
    <linearGradient id="Dégradé_sans_nom_8" data-name="Dégradé sans nom 8" x1="381.79" y1="113.27" x2="381.79" y2="262.32" gradientTransform="translate(-7.88 -12.05) rotate(.21)" gradientUnits="userSpaceOnUse">
      <stop offset="0" stop-color="#fff"/>
      <stop offset="1" stop-color="#000" stop-opacity="0"/>
    </linearGradient>
    <linearGradient id="Dégradé_sans_nom_8-2" data-name="Dégradé sans nom 8" x1="393.84" y1="113.27" x2="393.84" y2="262.32" gradientTransform="translate(-7.88 -12.14) rotate(.21)" xlink:href="#Dégradé_sans_nom_8"/>
    <linearGradient id="Dégradé_sans_nom_697-3" data-name="Dégradé sans nom 697" x1="1605.27" y1="1078.09" x2="1624.28" y2="1150.27" gradientTransform="translate(-822.12 -1397) rotate(17.4)" xlink:href="#Dégradé_sans_nom_697"/>
    <linearGradient id="Dégradé_sans_nom_697-4" data-name="Dégradé sans nom 697" x1="382.13" y1="115.21" x2="380.56" y2="208.01" xlink:href="#Dégradé_sans_nom_697"/>
  </defs>
  <g class="cls-15">
    <g id="stiker_style" data-name="stiker style">
      <path class="cls-13" d="M403.37,150.54c-.1-3.48-1.9-6.55-4.59-8.44l-.23-30.08c-.02-3.32-1.34-6.43-3.7-8.76-2.36-2.33-5.48-3.57-8.81-3.57h-1.86c-2.3-3.27-6.11-5.42-10.41-5.42h-1.67c-7,.06-12.66,5.8-12.6,12.81l.24,31.8c-.61-.54-1.27-1.05-1.97-1.5-3.52-2.27-7.7-3.03-11.79-2.15-4.36.94-7.99,3.66-10.17,7.32-58.17,4.11-116.09,13.22-172.3,27.12-3.9-3.66-9.39-5.35-14.81-4.29-3.05.59-5.76,1.96-7.95,3.88l-7.42-26.98c-.9-3.27-3.02-6-5.97-7.67-2.95-1.68-6.37-2.11-9.65-1.2l-1.51.42c-3.27.9-6,3.02-7.67,5.97-.39.69-.71,1.4-.97,2.12l-1.79.49c-6.6,1.82-10.5,8.67-8.68,15.27l8.01,29.12c-1.12.9-2.05,2.03-2.73,3.34-1.33,2.53-1.59,5.43-.73,8.16,1.25,3.99,4.7,6.74,8.65,7.34l7.1,25.81c1.82,6.6,8.67,10.49,15.27,8.68l1.78-.49c.59.5,1.23.94,1.92,1.33,1.94,1.1,4.09,1.67,6.26,1.67,1.13,0,2.27-.15,3.39-.46l1.52-.42c6.75-1.86,10.73-8.86,8.87-15.61l-1.5-5.46c2.25,1.06,4.72,1.64,7.25,1.64h.06c2.54,0,4.99-.59,7.25-1.67-.73,22.59,3.83,49.29,5.86,59.83,1.48,7.73,3.18,15.33,5.05,22.59,4.23,16.51,13.11,45.81,25.02,56.59,1.53,1.38,3.19,2.69,4.97,3.9-.07,2.94-.46,5.5-.87,7.45-12.34.97-22.72,2.19-30.26,3.57-7.88,1.44-19.78,3.62-19.74,13.03.03,8.5,9.9,10.76,14.64,11.84,5.73,1.31,13.8,2.47,23.98,3.44,19.48,1.85,44.99,2.85,72.23,2.85,1.39,0,2.79,0,4.18,0,28.8-.11,55.93-1.32,76.38-3.42,10.17-1.04,18.22-2.26,23.94-3.62,4.73-1.12,14.58-3.46,14.55-11.95-.04-9.49-12.27-11.59-20.36-12.97-6.92-1.19-16.11-2.22-26.95-3.04.76-5.06,1.01-11.16.77-18.65,0-.23-.01-.45-.02-.67,6.23-8.01,14.3-26.5,14.68-68.59.19-21.2-1.73-43.24-5.42-62.05-2.12-10.83-4.68-19.92-7.65-27.23.54.05,1.09.08,1.65.08,5.93-.02,11.34-3.41,13.97-8.69v2.79s.06,8.98.06,8.98l.34-.04c.51,2.4,1.72,4.59,3.5,6.36,2.39,2.36,5.55,3.65,8.91,3.65h1.68c4.34-.04,8.16-2.26,10.42-5.6h1.86c3.32-.04,6.43-1.35,8.76-3.72,2.33-2.36,3.6-5.49,3.57-8.81l-.22-29.03c.55-.39,1.06-.84,1.53-1.33,1.97-2.07,3.01-4.78,2.93-7.62ZM331.67,171.6c-.36.81-.63,1.64-.84,2.48-4.41-3.33-9.8-6.11-16.15-8.31,6.38-.6,12.77-1.14,19.16-1.61-.38,2.34-1.04,4.9-2.16,7.44ZM306.88,367.42c-.15.51-.28,1.03-.39,1.55-1.81-.05-3.64-.09-5.47-.13,2.08-.48,4.04-.95,5.86-1.42ZM172.33,189.53c2.14-.52,4.29-1.02,6.44-1.53-.87.98-1.68,1.99-2.41,3.03-.59.85-1.12,1.79-1.63,2.77-.63-.99-1.49-2.45-2.41-4.27Z"/>
    </g>
    <g id="Bubus">
      <g>
        <path class="cls-9" d="M274.38,376.61c59.02-.22,106.96,4.33,106.98,10.16.02,5.83-47.87,10.74-106.9,10.96-59.02.22-106.97-4.33-106.99-10.16s47.89-10.74,106.92-10.96Z"/>
        <path class="cls-8" d="M183.16,278.97c1.44,7.5,3.1,14.96,4.94,22.11,6.26,24.41,14.5,45.28,22.64,52.65,29.72,26.93,105.13,4.5,119.75-2.42,28.6-11.75,22.33-144.9-1.8-168.6-28.49-26.72-126.19-15.07-145.76,12.91-8.38,11.98-6.51,48.25.23,83.34Z"/>
        <path class="cls-10" d="M327.32,208.97c-20.65-9.5-97.53-5.66-117.43,10.54-10.93,8.9-8.56,51.61,5.16,48.46,32-7.35,99.72-13.69,119.19-13.44,9.74.13,5.8-39.71-6.92-45.55Z"/>
        <path class="cls-13" d="M234.09,199.27c-3.42.01-6.58-2.22-7.59-5.67-1.22-4.17,1.17-8.54,5.34-9.76,1.43-.42,35.39-10.18,72.65-5.13,4.31.58,7.33,4.55,6.75,8.86-.58,4.31-4.55,7.33-8.86,6.74-33.83-4.59-65.8,4.55-66.12,4.64-.73.21-1.46.31-2.18.31Z"/>
        <path class="cls-11" d="M346.02,185.6c-1.05,0-2.11-.21-3.13-.66-3.87-1.71-5.62-6.24-3.91-10.11,5.02-11.34,2.81-22.56,2.79-22.67-.89-4.14,1.74-8.22,5.88-9.11,4.13-.89,8.22,1.74,9.11,5.88.14.65,3.35,16.07-3.75,32.11-1.26,2.85-4.06,4.55-6.99,4.57Z"/>
        <path class="cls-11" d="M167.5,212.52c-1.6,1.2-3.48,1.79-5.34,1.8-2.72.01-5.41-1.21-7.19-3.55-.36-.49-8.97-12.04-11.86-27.06-.93-4.85,2.23-9.54,7.08-10.47,4.46-.87,8.82,1.77,10.19,6.01.12.34.21.71.28,1.09.51,2.66,1.29,5.22,2.19,7.53,2.69,7.1,6.36,12.08,6.41,12.15,2.97,3.94,2.18,9.55-1.77,12.52Z"/>
        <path class="cls-7" d="M392.71,153.51c-96.94,1.48-191.17,16.75-279.99,44.14-1.51.45-3.02-.34-3.47-1.76t0,0c-.45-1.42.35-2.93,1.79-3.37,89.28-27.54,183.99-42.91,281.42-44.41,1.57-.02,2.87,1.17,2.91,2.66h0c.04,1.49-1.19,2.71-2.66,2.74Z"/>
        <path class="cls-12" d="M354.45,162.22c1.61-1.27,2.61-3.17,2.72-5.22.18-3.32,0-5.45-.02-5.68-.38-4.22-4.12-7.32-8.33-6.94-4.22.38-7.33,4.11-6.94,8.33,0,.03.08,1.06.02,2.77-.08,2.1.77,4.15,2.32,5.57l.91.83c2.6,2.38,6.55,2.53,9.32.34h0Z"/>
        <path class="cls-11" d="M355.4,160.08c1.44-1.46,2.2-3.47,2.07-5.51-.22-3.32-.66-5.41-.71-5.64-.89-4.14-4.98-6.77-9.11-5.88-4.14.89-6.77,4.97-5.88,9.11,0,.03.21,1.05.35,2.75.18,2.1,1.27,4.02,2.98,5.24l1.01.72c2.87,2.05,6.81,1.71,9.29-.79h0Z"/>
        <path class="cls-12" d="M162.12,187.64c.59-1.78-.32-4.64-.6-6.1-.07-.37-.16-.74-.28-1.09-1.37-4.24-5.73-6.87-10.19-6.01-4.85.93-8.01,5.62-7.08,10.47.1.54.22,1.08.34,1.62.76,3.43,3.16,6.38,6.53,7.37,3.25.95,8.92.93,11.29-6.27Z"/>
        <path class="cls-11" d="M161.27,186.42c.59-1.78-.32-4.64-.6-6.1-.07-.37-.16-.74-.28-1.09-1.37-4.24-5.73-6.87-10.19-6.01-4.85.93-8.01,5.62-7.08,10.47.1.54.22,1.08.34,1.62.76,3.43,3.16,6.38,6.53,7.37,3.25.95,8.92.93,11.29-6.27Z"/>
        <rect class="cls-14" x="126.36" y="139.6" width="10.98" height="96.38" rx="4.7" ry="4.7" transform="translate(-45.09 41.7) rotate(-15.38)"/>
        <path class="cls-6" d="M143.67,224.36l1.76-2.68c.35-.94.44-1.99.15-3.03l-20.28-73.44c-.72-2.61-3.42-4.14-6.02-3.42-2.61.72-4.14,3.42-3.42,6.02l21.43,79.37,2.42-1.08-20.74-78.5,22.17,77.86,2.53-1.12Z"/>
        <rect class="cls-14" x="114.74" y="148.3" width="10.98" height="85.36" rx="4.42" ry="4.42" transform="translate(-46.35 38.73) rotate(-15.38)"/>
        <path class="cls-1" d="M129.92,220.82l3.61,7.51c.35-.94.44-1.99.15-3.03l-18.72-71.32c-.72-2.61-3.42-4.14-6.02-3.42-2.61.72-4.14,3.42-3.42,6.02l18.03,67.06,2.42-1.08-17.35-66.19,18.77,65.55,2.53-1.12Z"/>
        <rect class="cls-14" x="367.81" y="102.27" width="10.98" height="96.38" rx="4.7" ry="4.7" transform="translate(747.72 298.12) rotate(179.57)"/>
        <rect class="cls-14" x="379.86" y="107.69" width="10.98" height="85.36" rx="4.42" ry="4.42" transform="translate(771.81 297.85) rotate(179.57)"/>
        <rect class="cls-4" x="367.81" y="102.27" width="10.98" height="96.38" rx="5.49" ry="5.49" transform="translate(-1.12 2.8) rotate(-.43)"/>
        <rect class="cls-5" x="379.86" y="107.69" width="10.98" height="85.36" rx="5.16" ry="5.16" transform="translate(-1.12 2.89) rotate(-.43)"/>
        <path class="cls-3" d="M389.04,179.31l.58,10.29c.62-.79,1.02-1.76,1.06-2.84l-.66-73c.1-2.7-2-4.98-4.71-5.08-2.7-.1-4.98,2-5.08,4.71l.81,66.72,2.63-.29-.42-65.68,1.97,65.5,3.81-.32Z"/>
        <path class="cls-2" d="M377.65,189.35l-1.51-1.77c.62-.79,1.02-1.76,1.06-2.84l.72-77.01c.1-2.7-2-4.98-4.71-5.08-2.7-.1-4.98,2-5.08,4.71l-.11,80.36,2.63-.29.51-79.32,1.77,81.36,4.73-.11Z"/>
        <path class="cls-10" d="M328.82,267.68c6.2-.15,11.11,2.86,11.27,9.06.16,6.2-4.75,11.36-10.95,11.52-6.2.16-11.35-4.75-11.52-10.95-.15-6.2,5-9.48,11.2-9.63Z"/>
        <path class="cls-10" d="M229.02,277.79c7.09-.18,12.99,5.43,13.17,12.52.18,7.08-5.43,12.98-12.52,13.16-7.08.18-12.98-5.43-13.16-12.51-.18-7.09,5.43-12.99,12.51-13.17Z"/>
        <path class="cls-13" d="M302.86,321.32l-4.31,12.04c-.25.67-.85,1.18-1.6,1.34l-8.28,1.28c-1.59.24-3.12.8-4.46,1.62l-13.31,8.18c-1.27.78-2.87.91-4.25.36l-1.74-.71c-2.27-.93-3.17-3.44-1.94-5.46l8.86-14.53c1.17-1.92,3.43-3.08,5.82-2.98l8.83.34,13.43-3.12,1.01-.23c1.25-.3,2.33.77,1.93,1.88Z"/>
        <path class="cls-11" d="M323.74,382.01c-.98,0-1.98-.14-2.96-.46-5.03-1.62-7.79-7-6.18-12.03.35-1.08,1.45-5.45,1.09-16.6-.13-4.29-.42-7.52-.43-7.55-.48-5.26,3.4-9.91,8.65-10.39,5.27-.48,9.91,3.39,10.39,8.65.01.15.34,3.8.5,8.69.33,10.31-.33,17.85-2,23.06-1.3,4.04-5.04,6.62-9.07,6.64Z"/>
        <path class="cls-11" d="M224.69,391.12c-1.25,0-2.51-.24-3.73-.75-4.85-2.04-7.14-7.61-5.14-12.47.13-.33,5.24-13.48.57-28.52-1.57-5.04,1.25-10.4,6.29-11.97,5.05-1.57,10.4,1.25,11.97,6.29,6.84,22.02-.84,40.77-1.18,41.55-1.53,3.65-5.06,5.85-8.79,5.86Z"/>
      </g>
    </g>
  </g>
</svg>