<?xml version="1.0" encoding="UTF-8"?>
<svg xmlns="http://www.w3.org/2000/svg" xmlns:xlink="http://www.w3.org/1999/xlink" viewBox="0 0 500 500">
  <defs>
    <style>
      .cls-1 {
        fill: url(#Dégradé_sans_nom_22-3);
      }

      .cls-1, .cls-2, .cls-3, .cls-4, .cls-5, .cls-6, .cls-7, .cls-8, .cls-9, .cls-10 {
        stroke-width: 0px;
      }

      .cls-2 {
        fill: url(#Dégradé_sans_nom_22-4);
      }

      .cls-3 {
        fill: url(#Dégradé_sans_nom_22-2);
      }

      .cls-4 {
        fill-rule: evenodd;
      }

      .cls-4, .cls-9 {
        fill: #fff;
      }

      .cls-5 {
        fill: #353a42;
      }

      .cls-6 {
        fill: #d43700;
      }

      .cls-7 {
        fill: #c03510;
      }

      .cls-8 {
        fill: #b82e14;
      }

      .cls-10 {
        fill: url(#Dégradé_sans_nom_22);
      }
    </style>
    <linearGradient id="Dégradé_sans_nom_22" data-name="Dégradé sans nom 22" x1="311.4" y1="255.46" x2="285.24" y2="270.23" gradientUnits="userSpaceOnUse">
      <stop offset="0" stop-color="#f67157" stop-opacity="0"/>
      <stop offset="1" stop-color="#f67157"/>
    </linearGradient>
    <linearGradient id="Dégradé_sans_nom_22-2" data-name="Dégradé sans nom 22" x1="328.91" y1="271.1" x2="328.3" y2="295.18" xlink:href="#Dégradé_sans_nom_22"/>
    <linearGradient id="Dégradé_sans_nom_22-3" data-name="Dégradé sans nom 22" x1="333.43" y1="409.24" x2="295.62" y2="354.63" gradientTransform="translate(-84.25 -123.83) rotate(2.27)" xlink:href="#Dégradé_sans_nom_22"/>
    <linearGradient id="Dégradé_sans_nom_22-4" data-name="Dégradé sans nom 22" x1="359.68" y1="423.51" x2="349.59" y2="392.42" gradientTransform="translate(-84.25 -123.83) rotate(2.27)" xlink:href="#Dégradé_sans_nom_22"/>
  </defs>
  <g id="stiker_style" data-name="stiker style">
    <path class="cls-9" d="M354.78,279.76c.59-2.96.47-6.12-.39-9.19-1.46-6.06-3.59-11.58-6.33-16.36-4.25-7.54-10.39-13.09-17.34-15.65-1.3-.56-2.62-.92-3.69-1.22-.17-.05-.34-.09-.51-.14-.21-10.16-.81-22.28-2.34-31.99-.31-2.05-.6-4.11-.9-6.18-2.31-16.37-4.7-33.29-17.4-46.18-14.09-14.3-37.41-19.95-73.39-17.78-40.3,2.44-63.84,10.24-76.33,25.3-14.73,17.75-11.6,42.6-8.29,68.92,2.99,23.87,6.97,42.1,9.97,53.77-3.96,1.83-8.05,5.33-11.34,11.73-5.02,9.77-5.64,21.91-1.64,32.47,9.7,25.65,16.13,29.93,21.64,30.74,4.16.61,7.96-.48,10.92-2.99,3.97.08,8.03-1.36,11.85-4.22,1.49-1.12,2.75-2.31,3.74-3.36,1.11,4.19,2.15,6.77,2.56,7.73,2.69,6.22,8.81,10.24,15.58,10.24,2.32,0,4.58-.47,6.7-1.39,3.36-1.46,6.05-3.86,7.83-6.81,3.39.31,6.79-.06,10.03-1.13,3.73-1.28,6.33-3.71,8.06-5.64.28-.23.56-.47.86-.74,2.26-2.03,4.77-5.42,8.87-11.97,12.31-1.32,23.02-3.4,32.03-6.22.02.73.03,1.54.05,2.46l.03,1.73c.17,9.17,7.76,16.62,16.93,16.62h.31c4.52-.09,8.74-1.92,11.88-5.18,3.14-3.26,4.82-7.54,4.74-12.06l-.03-1.7c-.16-9.12-.3-11.1-2.24-22.7.2-.3.4-.6.58-.89.67.93,1.49,1.77,2.45,2.49,4.57,3.42,10.83,2.64,23.1-2.87,2.85-1.28,5.44-3.11,7.61-5.33l3.39-4.31c1.01-1.63,1.83-3.37,2.42-5.18,1.83-5.66,1.07-10.88-1.98-14.8Z"/>
  </g>
  <g id="Bubus">
    <g>
      <path class="cls-5" d="M302.54,344.29c-4.86,0-8.84-3.89-8.93-8.77l-.03-1.72q-.15-8.63-3.05-25.77l-.37-2.17c-.82-4.87,2.45-9.48,7.32-10.3,4.87-.82,9.48,2.45,10.3,7.32l.37,2.17c3.07,18.12,3.13,18.47,3.3,28.45l.03,1.7c.09,4.93-3.84,9.01-8.77,9.1-.06,0-.11,0-.17,0Z"/>
      <path class="cls-5" d="M211.16,357.38c-3.47,0-6.77-2.03-8.24-5.41-.61-1.41-5.95-14.47-5.52-38.26.09-4.93,4.15-8.9,9.1-8.77,4.93.09,8.86,4.16,8.77,9.1-.36,19.95,4.03,30.79,4.08,30.89,1.96,4.53-.14,9.76-4.66,11.72-1.15.5-2.35.73-3.52.73Z"/>
      <g>
        <path class="cls-5" d="M233,143.05c-85.15,5.15-83.57,34.33-77.17,85.23,4.4,35.18,11.29,60.45,15.7,72.15,6.55,17.2,16.14,34.54,74.04,29.96,57.9-4.59,65.35-23.12,69.1-32.28,3.75-9.17,5.85-64.87,1.62-91.71-4.95-32.44-4.55-68.12-83.29-63.36Z"/>
        <path class="cls-9" d="M270.15,276.29l-4.37,12.06c-.25.67-.85,1.18-1.61,1.34l-8.31,1.25c-1.6.24-3.13.79-4.48,1.61l-13.37,8.15c-1.27.78-2.88.91-4.26.35l-1.74-.72c-2.28-.94-3.16-3.46-1.92-5.48l8.94-14.54c1.18-1.92,3.45-3.08,5.85-2.97l8.85.38,13.48-3.08,1.01-.23c1.25-.29,2.33.78,1.93,1.89Z"/>
        <path class="cls-9" d="M296.66,170.76c6.94,4.85,9.51,16,10.22,27.75.62,9.97-.58,18.4-14.27,17.56-13.69-.84-84.92,4.05-110.25,8.43-15.18,2.59-17.12-29.17-9.35-41.34,9.21-14.39,48.01-17.87,73.8-19.37,23.82-1.36,40.95.84,49.84,6.97Z"/>
        <path class="cls-9" d="M208.1,158.95c-1.93,0-3.65-1.37-4.01-3.34-.41-2.22,1.05-4.35,3.27-4.76,18.99-3.53,38.4-4.54,57.71-3.03,2.25.18,3.93,2.14,3.75,4.39-.18,2.25-2.13,3.92-4.39,3.75-18.59-1.46-37.29-.48-55.58,2.91-.25.05-.5.07-.75.07Z"/>
        <path class="cls-4" d="M300.34,226.44c6.22-.13,11.13,2.91,11.26,9.13.14,6.22-4.8,11.38-11.02,11.51-6.22.14-11.37-4.8-11.51-11.02-.13-6.22,5.05-9.49,11.26-9.62Z"/>
        <path class="cls-4" d="M193.95,232.23c7.11-.15,13.01,5.49,13.16,12.61.15,7.1-5.49,13-12.61,13.15-7.1.15-12.99-5.49-13.15-12.6-.15-7.11,5.49-13.01,12.6-13.16Z"/>
      </g>
      <g>
        <path class="cls-7" d="M342.23,278.15c-.3,2.17,6.46,3.35,4.91,9.92-1.55,6.57-12.32,13.84-16.79,12.46-4.47-1.38-7.29-9.22-7.29-9.22l19.18-13.16Z"/>
        <path class="cls-6" d="M346.35,282.85s.63,4.72-4.03,8.68c-4.66,3.96-16.44,7.62-16.44,7.62,0,0-4.1,4.26-.85,6.69,2.13,1.59,9.92-1.46,15.04-3.76,4.22-1.9,7.67-5.6,9.08-9.98,1.08-3.33.99-6.96-2.81-9.24Z"/>
        <path class="cls-6" d="M311.19,286.43c-13.62,11.36-18.26-4.31-20.31-10.44-2.05-6.14,14.97-24.43,15.39-25.25,0,0,8-10.05,22.77-3.28,11,5.04,15.63,19.38,17.27,26.38.62,2.61.22,5.35-1.12,7.68-2.13,3.71-6.01,9.17-11.43,11.65-8.62,3.94-12.48,9.03-14.86,6.79-2.38-2.24-1.15-9.86-2.38-12.31-1.23-2.44-4.28-2.09-5.33-1.21Z"/>
        <path class="cls-6" d="M345.2,281.51c-2.14,3.71-6.01,9.17-11.44,11.66-5.74,2.61-9.37,5.75-11.85,6.89-1.25.58-2.21.65-3-.1-2.37-2.25-1.14-9.86-2.37-12.32-1.23-2.44-4.27-2.09-5.33-1.21-13.17,10.97-17.94-3.27-20.1-9.79-.08-.23-.15-.45-.22-.66-2.05-6.13,14.97-24.43,15.38-25.25,0,0,8.01-10.05,22.77-3.28,11,5.04,15.63,19.38,17.28,26.37.62,2.62.21,5.35-1.12,7.68Z"/>
        <path class="cls-7" d="M292.53,275.55c3.26-4.7,10.21-12.12,16.56-9.93,1.28.55,2.24,1.29,3.32,2.02,4.43,3.13,8.72,9.41,3.51,13.87,3.94-4.89-.27-9.71-4.43-12.59-2.5-1.74-4.13-2.74-7.26-1.7-4.54,1.62-8.18,5.03-11.7,8.33h0Z"/>
        <path class="cls-7" d="M290.88,275.9c-1.79-6.09,10.66-20.41,14.59-25.29,1.18-1.59,2.71-2.77,4.39-3.78,2.27-1.37,4.9-2.21,7.53-2.49,1.28-.12,2.7-.09,3.99.02.76.06,1.85.32,2.61.43,1.18.35,2.65.69,3.76,1.2,5.82,2.08,10.37,6.88,13.34,12.15,2.58,4.52,4.35,9.42,5.55,14.45.73,2.53.68,5.41-.44,7.84-2.77,5.25-6.95,10.23-12.46,12.65,4.57-2.36,7.88-6.46,10.44-10.81,1.85-2.77,2.35-6.2,1.28-9.38-1.32-4.86-3.14-9.65-5.7-13.98-1.89-3.2-4.27-6.18-7.23-8.46-4.87-3.57-11.45-5.53-17.42-4.17-3.14.73-6.17,2.41-8.33,4.79,0,0,.07-.12.07-.12-.28.4-.41.55-.68.86-3.9,4.63-16.66,18.32-15.3,24.09h0Z"/>
        <path class="cls-10" d="M313.67,245.5c-.83,1.45-1.66,2.9-2.49,4.34-.68,1.18-1.37,2.4-1.52,3.76s.39,2.88,1.62,3.47c.21.1.45.17.66.08.16-.06.27-.2.38-.33,1.45-1.78,2.9-3.56,4.35-5.34.46,3.37.83,7.1-1.14,9.87-2.63,3.69-7.92,3.8-12.29,4.97-3.18.85-6.21,2.47-8.34,4.97-.96,1.13-1.79,2.46-3.11,3.12-.01-3.04,1.52-5.88,3.37-8.29,1.85-2.41,4.06-4.54,5.76-7.07.89-1.33,1.64-2.75,2.49-4.11,2.59-4.11,6.23-7.56,10.48-9.93"/>
        <path class="cls-3" d="M321.99,271.34c-1.13,1.37-1.23,3.29-1.28,5.07-.13,4.29-.24,8.68,1.12,12.75.27.79.61,1.6,1.23,2.16.89.8,2.21.95,3.4.75,4.03-.68,6.6-4.54,8.68-8.05.96-1.62,1.96-3.45,1.53-5.28-.3-1.29-1.36-2.38-2.64-2.72-1.02-.27-2.1-.1-3.15-.23-2.14-.28-3.87-1.82-5.41-3.34-.75-.74-1.59-1.53-2.64-1.57"/>
        <path class="cls-7" d="M307.16,270.87l-4.61,1.93s-2.69-.1-4.51,3.25c-1.83,3.35-2.74,8.23,0,8.53,2.74.3,5.9,3.08,11.89,0,5.98-3.08,6.4-10.27,5.49-10.17s-6.5-6.04-8.25-3.55Z"/>
        <path class="cls-8" d="M321.91,300.05c-1.25.58-2.21.65-3-.1-2.37-2.25-1.14-9.86-2.37-12.32-1.23-2.44-4.27-2.09-5.33-1.21-10.44,8.7-15.6,1.54-18.37-5.04-1.26-2.99-.52-6.43,1.78-8.73,4.15-4.14,9.47-7.53,15.01-6.26,0,0,3.66,1.61-.76,3.87-4.43,2.28-13.47.81-12.97,8.98.5,8.17,3.77,6.4,8.53,5.48,4.75-.92,6.27-2.09,9.16-1.89,0,0,6.1-2.02,6.3,5.7.21,7.72-.55,9.83,1.52,10.23.55.11.66.6.5,1.27Z"/>
      </g>
      <g>
        <path class="cls-7" d="M188.94,339.84s-9.44,13.45-18.5,3.46c-9.06-9.99-23.85-47.79,2.14-53.87,25.99-6.08,16.36,50.41,16.36,50.41Z"/>
        <path class="cls-6" d="M216.16,343.4c-3.31-2.75-7.85-9.26-12.91-7.87-7.81,1.36-10.03,1.15-14.31,4.32-3.02,2.23-7.21,1.98-9.87-.67-11.59-11.56-8.95-27.03-8.67-42.86.08-4.29,1.31-8.5,3.62-12.11,12.11-18.93,33.68-36.94,56.44-32.15,34.77,3.83,44.18,42.17,24.79,68.03-3.64,4.64-11.75,19.88-16,23.66-6.51,6.02-16.65,5.75-23.1-.34Z"/>
        <path class="cls-1" d="M229.94,260.39s-33.25,19.89-19.61,64.43c13.64,44.54,42.06-39.16,45.46-50.41,1.58-5.24-8-20.2-25.85-14.01Z"/>
        <path class="cls-2" d="M258.67,294.18c-2.25,2.44-16.07,29.15-4.65,22.49,2.15-3.36,11.1-18.17,8.1-22.92-.68-1.09-2.28-1.09-3.07-.07l-.39.5Z"/>
        <path class="cls-7" d="M204.57,320.37c-.55,4.39-1.11,9.38,1.27,13.28,1.9,2.42,4.66,3.61,7.21,5.37,2.37,1.52,3.64,4.01,5.93,5.55,5.31,3.48,13.7,5.08,18.36-.24,6.53-7.16,11.51-15.72,16.64-23.91,2-3.25,3.8-6.73,5.49-10.14,1.27-2.68,2.64-5.56,3.21-8.42,1.49-8.96,1.65-18.47-1.33-27.13-1.95-5.82-5.68-10.98-10.58-14.69,0,0,.12-.19.12-.19,4.06,2.38,7.56,5.88,9.96,9.97,4.13,6.87,5.4,15.13,5.18,23.01-.23,4.73-.63,9.78-2.64,14.09-3.11,7.17-7.47,13.87-12.1,20.16-3.65,5.06-7.28,10.14-11.09,15.09-1.96,2.48-3.94,5.24-7.09,6.33-4.7,1.55-9.94.76-14.21-1.62-1.09-.62-2.14-1.35-3-2.28-1.26-1.41-2.44-2.97-3.96-4.03-2.46-1.81-5.65-3.42-7.37-6.11-2.39-4.36-1.42-9.56-.23-14.09,0,0,.22,0,.22,0h0Z"/>
        <path class="cls-7" d="M200.9,326.88c.19-2.8.46-5.58.67-8.36.08-2.25.53-4.71-.02-6.87-.01-.03-.02-.03.01,0,.03.03.15.08.23.09.09,0,.1-.02.1-.01,0,0-.05.05-.07.06-1.49,1.96-1.78,5.02-2.4,7.42,0,0-1.57,8.23-1.57,8.23-.04-4.93.22-9.96,1.76-14.69.35-.87.7-1.82,1.61-2.34.57-.34,1.38-.05,1.63.55.25.51.27.89.32,1.28.17,2.18-.14,4.3-.45,6.42-.44,2.78-1.03,5.52-1.82,8.22h0Z"/>
        <path class="cls-7" d="M182.71,334.72c5.89-4.45,13.63-5.53,20.84-5.61,0,0-.12,2.23-.12,2.23-6.99-.65-14.56-.36-20.72,3.38h0Z"/>
        <path class="cls-6" d="M170.07,289.7s-7.3,5.56-6.37,17.31c.93,11.75,11.95,32.82,11.95,32.82,0,0-.24,11.38-7.98,10.25-5.07-.74-11.49-15.54-15.32-25.65-3.15-8.34-2.78-18.09,1.28-25.99,3.08-6,8.16-10.83,16.44-8.74Z"/>
      </g>
    </g>
  </g>
</svg>