<?xml version="1.0" encoding="UTF-8"?>
<svg xmlns="http://www.w3.org/2000/svg" viewBox="0 0 500 500">
  <defs>
    <style>
      .cls-1, .cls-2 {
        opacity: .2;
      }

      .cls-1, .cls-2, .cls-3, .cls-4, .cls-5, .cls-6, .cls-7, .cls-8 {
        stroke-width: 0px;
      }

      .cls-1, .cls-5 {
        fill: #617bd4;
      }

      .cls-2, .cls-8 {
        fill: #ec7104;
      }

      .cls-3, .cls-4 {
        fill-rule: evenodd;
      }

      .cls-3, .cls-6 {
        fill: #262c32;
      }

      .cls-4, .cls-7 {
        fill: #fff;
      }

      .cls-9 {
        isolation: isolate;
      }
    </style>
  </defs>
  <g id="stiker_style" data-name="stiker style">
    <g>
      <path class="cls-7" d="M374.67,97.27c-5.21-4.59-10.77-7.37-16.38-8.32l3.74-5.79-8.3-3.88c-4.01-1.88-8.47-1.88-12.56-.02-6.16,2.8-15.61,10.91-26.56,48.82-8.04,20.48-13.53,47.7-15.88,78.75-1.66,21.94-1.69,44.37-.1,66.78-11.76,4.8-19.71,12.83-20.62,13.77-5.73,5.94-5.56,15.46.36,21.2,2.45,2.37,5.66,3.86,9.05,4.17,4.55.43,8.98-1.2,12.14-4.43.02-.02.97-.96,2.56-2.21,7.09,48.57,21.54,86.21,39.38,101.91,9.59,8.44,18.42,9.27,24.14,8.49.75-.1,1.5-.24,2.24-.41l-3.63,8.67,13.04-1c11-.84,19.15-13.62,26.43-41.44,4.81-18.39,7.87-38.23,8.98-46.07,2.14-11.78,3.74-24.5,4.74-37.81,6.5-85.99-12.29-174.36-42.78-201.19Z"/>
      <path class="cls-7" d="M237.65,255.6c-6.69-4.85-16.09-3.37-20.93,3.26-.04.06-4.22,5.59-10.14,8.75-1.08.57-2.04,1.27-2.92,2.05-.84-77.61-21.17-151.54-49.48-174.91-5.35-4.42-11-7.03-16.63-7.8l3.56-5.91-8.42-3.62c-4.07-1.75-8.53-1.62-12.56.37-6.07,2.99-15.25,11.4-25.01,49.63-7.39,20.72-12.03,48.1-13.4,79.21-3.8,86.16,17.76,173.9,49.08,199.76,9.85,8.13,18.7,8.69,24.4,7.73.75-.13,1.49-.29,2.22-.48l-3.36,8.78,13.01-1.41c10.97-1.19,18.71-14.22,25.11-42.25,4.23-18.53,6.66-38.46,7.52-46.33,1.77-11.84,2.97-24.6,3.55-37.94.04-.89.07-1.78.11-2.67,2.51,2.37,5.79,3.82,9.37,4.04.31.02.62.03.93.03,2.46,0,4.89-.61,7.07-1.77,12-6.41,19.47-16.45,20.29-17.58,4.83-6.7,3.31-16.09-3.37-20.94Z"/>
    </g>
  </g>
  <g id="Bubus">
    <g>
      <path class="cls-1" d="M333.97,116.79s26.82-14.8,38.24,10.53c11.42,25.34,34.2,82.8,28.85,138.08-5.35,55.27,6.82,105.85-20.46,116.77-27.27,10.92-34.12,16.68-41.72-1.83-7.6-18.51-35.25-73.59-30.93-122.57,4.32-48.97,9.36-124.15,26.01-140.98Z"/>
      <path class="cls-2" d="M121.43,116.79s26.82-14.8,38.24,10.53c11.42,25.34,34.2,82.8,28.85,138.08-5.35,55.27,6.82,105.85-20.46,116.77-27.27,10.92-34.12,16.68-41.72-1.83-7.6-18.51-35.25-73.59-30.93-122.57,4.32-48.97,9.36-124.15,26.01-140.98Z"/>
      <g class="cls-9">
        <path class="cls-5" d="M322.31,310.4c-5.76-28.68-7.97-63.13-5.2-96.46,5.3-63.67,27.27-99.93,49.38-81.54.21.18.43.36.64.55,2.37,2.08,4.65,4.7,6.82,7.82,12.67,18.2,21.06,88.48,21.94,89.25.04.04.07-.08.07-.36.17-5.94-.07-16.14-.78-27.68,4.64,26.5,6.33,57.2,4.05,87.11-4.92,64.56-26.89,102.11-49.22,84.07-.33-.26-.66-.54-.99-.83-.23-.2-.46-.41-.69-.63-18.84-19.34-27.05-102.44-27.8-103.1-.03-.03-.05.07-.05.31.19,20.63.3,24.65,1.83,41.48M369.38,103.28c-9.21-8.1-18.38-8.66-26.79-2.91,4.05-8.13,7.75-13.85,7.75-13.85-11.54-5.4-22.07,23.01-28.15,44.13-7.54,19.05-13.11,45.3-15.49,76.78-6.24,82.5,11.71,169.62,40.08,194.59,13.63,11.99,27.18,7.46,38.28-9.61-3.98,12.9-8.38,23.39-8.38,23.39,16-1.22,26.09-66.48,28.12-80.81,2.07-11.33,3.65-23.76,4.67-37.14,6.24-82.5-11.71-169.61-40.08-194.58"/>
      </g>
      <g>
        <path class="cls-3" d="M399.22,290.56c-.36,4.71-.8,9.27-1.35,13.68-1.68,13.92-4.2,26.3-7.36,36.78-1.44,4.77-3.01,9.15-4.69,13.1-10.26.31-20.68-.29-30.03-2.43-5.94-1.36-11.43-3.34-16.18-6.11-3.08-1.79-5.84-3.91-8.2-6.41-17.88-18.97-29.75-123.04-13.62-142.63,10.22-12.4,39.43-19.22,68.22-19.14.69,3.06,1.35,6.15,1.97,9.24.97,4.77,1.87,9.5,2.66,14,.62,3.46,1.19,6.79,1.71,9.89,1.06,0,2.14.01,3.2.03-.11-2.3-.25-4.68-.4-7.11.41,2.34.79,4.71,1.17,7.11,2.31,15.31,3.66,31.79,3.86,48.59.14,10.43-.18,20.97-.97,31.41Z"/>
        <path class="cls-4" d="M397.88,304.23c-1.68,13.92-4.2,26.3-7.36,36.78-7.54-.72-14.82-2.82-20.56-6.43-21.28-13.37-22.39-33.43-17.11-37.83,6.4-5.31,12.19,6.24,45.02,7.48Z"/>
        <path class="cls-7" d="M346.84,282.46c2.63-.73,5.43-.41,7.85.87.31.15.66.22,1,.21,1.21-.04,2.17-1.11,2.12-2.36,0-.24-.05-.48-.13-.7v-.14c-2-6.28-8.18-10.13-13.92-8.7-6.33,1.58-10.01,8.66-8.12,15.64.06.23.13.45.21.69.24,1.05,1.17,1.78,2.21,1.75.8-.02,1.52-.5,1.87-1.24,1.38-2.93,3.89-5.12,6.92-6.02Z"/>
        <path class="cls-4" d="M400.2,259.14c-21.26.53-44.17,1.83-58.9,4.02-12.44,1.85-11.54-36.33-1.19-43.48,9.31-6.43,30.78-9.19,52.26-9.16,1.06,0,2.14.01,3.2.03h.77c2.31,15.31,3.66,31.79,3.86,48.59Z"/>
        <path class="cls-7" d="M390.65,200.63c-14.89.34-25.4,2.57-25.57,2.61-.72.16-1.45.19-2.15.12-2.97-.27-5.55-2.43-6.22-5.5-.83-3.79,1.58-7.54,5.38-8.37.74-.16,11.07-2.34,25.9-2.88.97,4.77,1.87,9.5,2.66,14Z"/>
        <path class="cls-6" d="M332.74,372.9c-2.53-.24-4.92-1.59-6.4-3.9-2.53-3.96-1.39-9.21,2.54-11.76.25-.16,10.68-7.24,14.87-20.68,1.4-4.5,6.17-7.02,10.69-5.61,4.5,1.4,7.01,6.19,5.61,10.69-6.12,19.65-21.28,29.53-21.92,29.95-1.67,1.07-3.56,1.48-5.39,1.31Z"/>
        <path class="cls-6" d="M288.17,304.79c-1.54-.14-3.04-.79-4.23-1.95-2.78-2.7-2.86-7.12-.17-9.91.33-.34,8.23-8.45,19.55-12.55,3.65-1.32,7.68.56,9,4.21,1.32,3.65-.56,7.68-4.21,9-8.17,2.96-14.17,9.05-14.23,9.11-1.54,1.58-3.66,2.28-5.7,2.09Z"/>
      </g>
      <g class="cls-9">
        <path class="cls-8" d="M108.55,309.42c-6.66-28.48-9.95-62.85-8.23-96.25,3.29-63.8,24.11-100.74,46.79-83.05.22.17.44.35.65.53,2.43,2.01,4.79,4.55,7.06,7.6,13.23,17.79,23.83,87.77,24.74,88.52.04.03.06-.08.06-.36-.01-5.95-.57-16.13-1.65-27.64,5.47,26.35,8.13,56.97,6.79,86.94-2.89,64.68-23.67,102.9-46.55,85.58-.34-.25-.68-.52-1.02-.8-.24-.2-.48-.4-.71-.6-19.44-18.74-30.25-101.54-31.02-102.18-.03-.02-.05.08-.04.31.84,20.61,1.08,24.63,3.14,41.4M149.09,100.92c-9.46-7.81-18.65-8.08-26.87-2.06,3.79-8.25,7.31-14.09,7.31-14.09-11.71-5.03-21.34,23.69-26.75,45-6.94,19.28-11.67,45.69-13.07,77.22-3.64,82.65,17.03,169.17,46.18,193.24,14,11.56,27.4,6.61,37.96-10.8-3.57,13.01-7.64,23.64-7.64,23.64,15.95-1.73,23.99-67.27,25.56-81.66,1.71-11.39,2.91-23.87,3.5-37.26,3.64-82.65-17.03-169.16-46.18-193.23"/>
      </g>
      <g>
        <path class="cls-3" d="M181.04,339.86c-1.87,2.31-3.92,3.93-6.17,4.73-2.11.87-5.57,2.04-10.02,3.27-9.44,2.59-23.3,5.52-37.91,6.76-1.81-4.1-3.52-8.66-5.11-13.51-4.02-12.19-7.32-26.11-9.89-38.5-1.47-.31-2.83-.62-4.11-.95l.35,4.21c-.28-1.45-.57-2.9-.84-4.35-2.46-13.09-4.29-26.29-5.48-39.53-1.44-15.88-1.97-31.84-1.57-47.82l.03-.89v-.11c.17-3.27.38-6.48.65-9.6.4-4.9.92-9.61,1.53-14.13.48-3.55,1.02-6.98,1.62-10.28,29.86-3.08,62.82,1.18,76.29,15.06,18.74,20.23,20.32,121.26.63,145.64Z"/>
        <path class="cls-6" d="M171.63,370.35c-1.86-.12-3.7-.84-5.19-2.19-3.5-3.16-3.77-8.56-.61-12.05,1.94-2.14,2.54-3.7,2.46-4.38-.08-.71-1.02-2.15-3.41-3.85-3.25-2.3-6.99-3.57-7.03-3.58-4.46-1.49-6.89-6.31-5.42-10.77,1.47-4.47,6.26-6.9,10.73-5.45.62.2,6.26,2.1,11.59,5.88,7.85,5.56,10.05,11.72,10.51,15.9.67,6.04-1.61,11.99-6.77,17.7-1.81,2-4.36,2.95-6.86,2.79Z"/>
        <path class="cls-4" d="M107.83,301.66l.35,4.21c-.28-1.45-.57-2.9-.84-4.35.16.05.32.09.49.14Z"/>
        <path class="cls-4" d="M166.08,329.19c-2.54,2.5-5.25,4.61-7.88,6.19-1.79,1.08-3.78,2.03-5.93,2.84-8.8,3.36-20.12,4.49-30.43,2.89-4.02-12.19-7.32-26.11-9.89-38.5,6.03,1.25,13.79,2.18,23.95,2.07,24.67-.27,38.66-16.36,40.94-9.66,4.37,12.86-2.25,25.77-10.75,34.17Z"/>
        <path class="cls-7" d="M177.48,274.93c2.48.78,4.51,2.65,5.56,5.12.69,1.45,2.65.77,2.82-1.07.04-.27.08-.55.09-.83.4-5-1.67-9.66-5.12-11.53-5.62-2.99-12.35,1.42-14.35,8.87-.46,1.73,1.1,2.93,2.3,1.89,2.28-2.32,5.59-3.25,8.7-2.45Z"/>
        <path class="cls-4" d="M182.32,258.47c-13.02-.78-50.41.59-80.46,3.52-1.44-15.88-1.97-31.84-1.57-47.82l.03-.89c27.66-4.14,65.14-2.26,77.75,4.28,11.08,5.75,12.92,41.43,4.25,40.91Z"/>
        <path class="cls-7" d="M164.42,197.61c-.7,3.82-10.39,4.2-14.18,3.5-23.11-4.26-41.75.15-49.27,2.46.4-4.9.92-9.61,1.53-14.13,11.54-1.91,33.31-4.25,56.29-.01,3.83.7,6.35,4.37,5.64,8.18Z"/>
        <path class="cls-6" d="M213.23,287.88c-2.35-.15-4.58-1.47-5.77-3.71-1.83-3.42-.53-7.68,2.89-9.51,7.66-4.09,12.74-10.97,12.79-11.04,2.28-3.13,6.68-3.82,9.81-1.55,3.13,2.27,3.84,6.65,1.58,9.79-.28.39-6.95,9.53-17.57,15.2-1.19.64-2.48.89-3.74.82Z"/>
      </g>
    </g>
  </g>
</svg>