<?xml version="1.0" encoding="UTF-8"?>
<svg xmlns="http://www.w3.org/2000/svg" viewBox="0 0 500 500">
  <defs>
    <style>
      .cls-1 {
        fill: #869eb4;
        fill-rule: evenodd;
      }

      .cls-1, .cls-2, .cls-3, .cls-4, .cls-5, .cls-6, .cls-7 {
        stroke-width: 0px;
      }

      .cls-2 {
        fill: #272c32;
      }

      .cls-3 {
        fill: #cfd4d5;
      }

      .cls-4 {
        fill: #b72335;
      }

      .cls-5 {
        fill: #9e132b;
      }

      .cls-6 {
        fill: #fff;
      }

      .cls-7 {
        fill: #f4f4f4;
      }
    </style>
  </defs>
  <g id="stiker_style" data-name="stiker style">
    <g>
      <circle class="cls-6" cx="124.29" cy="131.82" r="16.52"/>
      <path class="cls-6" d="M375.2,267.85c9.11,0,16.52-7.41,16.52-16.52s-7.41-16.52-16.52-16.52c-.57,0-1.13.03-1.68.09.74-1.57,1.16-3.32,1.16-5.16,0-6.74-5.48-12.22-12.22-12.22-5.73,0-10.53,3.97-11.85,9.29-5.6,1.42-10.17,5.94-11.32,11.96-.42,2.04-1.02,4.02-1.78,5.93.1-4.59.1-9.06-.01-13.32,8.71-8.1,11.62-21.32,7.2-34.37,0,0-.03-.1-.04-.1-.04-.1-.07-.21-.11-.31-.93-2.65-2.14-5.22-3.6-7.69,1.44-2.08,2.93-4.97,3.23-8.79.02-.21.03-.42.03-.63,0-.51-.02-.99-.04-1.45-.02-1.87-.29-3.33-.48-4.36.01-.01.02-.03.03-.04,3.74-4.95,4.17-13.02,1.2-21.26-.47-4-1.49-8.06-3.11-12.36-3.33-8.84-12.05-16.22-25.23-21.33-10.5-4.07-23.08-6.34-34.71-6.33-10.17-1.98-21.7-3.21-31.52,4.73-2.01-.6-6.07-1.75-10.61.78-3.37,1.87-5.01,4.79-6.21,6.93-1.39,2.48-1.54,2.68-3.28,2.87-12.12,1.37-17.24,14.74-19.99,21.92-.05.13-.1.27-.16.42-9.22,4.55-16.66,12.02-21.17,21.34-.6,1.08-1.12,2.2-1.57,3.33-.14.3-.27.61-.38.94-.06.18-.11.36-.16.54-.41,1.23-.72,2.46-.92,3.69-3.08,2.13-5.74,4.46-7.92,6.94-.04.05-.08.09-.12.14-1.3,1.56-2.51,3.41-3.64,5.52-2.5-2.31-5.84-3.74-9.5-3.74-7.73,0-14.02,6.29-14.02,14.02s6.29,14.02,14.02,14.02c.76,0,1.51-.08,2.24-.2-.28,1.67-.55,3.39-.79,5.18-1.45,10.74-2.11,23.39-1.95,36.51-2.05-4.25-3.31-8.79-3.74-13.5-.45-7.39-6.78-13.11-14.2-12.75-7.49.35-13.3,6.72-12.96,14.21,0,.08,0,.16.01.25.7,9.06,3.2,17.72,7.43,25.72,2.34,4.49,6.94,7.21,11.88,7.21.65,0,1.3-.05,1.96-.14,1.67-.21,3.27-.73,4.72-1.54,2.37-1.32,4.19-3.25,5.38-5.5.92,16.06,4.75,58.98,19.7,77-.49,5.13-.45,10.28.12,15.4-5.71,1.9-11.53,5.27-11.53,11.86,0,10.21,13.52,13.1,26.18,15,12.82,1.92,29.86,2.98,47.99,2.98s35.11-1.07,47.99-3.02c12.67-1.91,26.18-4.8,26.18-14.97,0-6.61-5.87-9.96-11.53-11.84.33-4.54.2-9.07-.38-13.58,2-1.52,3.89-3.2,5.63-5.02.06-.07.13-.13.19-.2,9.06-10.12,14.52-33.19,17.5-50.75,1.25-7.36,2.27-15.05,3.05-22.77.28.26.56.52.87.76,1.02.9,2.15,1.64,3.38,2.22.14.07.29.13.44.19,1.86.74,3.78,1.1,5.68,1.09,4.85,0,9.52-2.33,12.42-6.49,1.7-2.4,3.2-4.91,4.55-7.48,3.02,3.23,7.3,5.27,12.06,5.27Z"/>
      <path class="cls-6" d="M145.19,314.06c0-7.73-6.29-14.02-14.02-14.02s-14.02,6.29-14.02,14.02,6.29,14.02,14.02,14.02,14.02-6.29,14.02-14.02Z"/>
      <path class="cls-6" d="M164.21,186.88c6.74,0,12.22-5.48,12.22-12.22s-5.48-12.22-12.22-12.22-12.22,5.48-12.22,12.22,5.48,12.22,12.22,12.22Z"/>
      <path class="cls-6" d="M380.01,130.01c6.74,0,12.22-5.48,12.22-12.22s-5.48-12.22-12.22-12.22-12.22,5.48-12.22,12.22,5.48,12.22,12.22,12.22Z"/>
      <circle class="cls-6" cx="149.84" cy="337.9" r="12.22"/>
      <path class="cls-6" d="M380.01,341.68c-6.74,0-12.22,5.48-12.22,12.22s5.48,12.22,12.22,12.22,12.22-5.48,12.22-12.22-5.48-12.22-12.22-12.22Z"/>
    </g>
  </g>
  <g id="Bubus">
    <g>
      <g>
        <path class="cls-1" d="M247.16,366.38c-36.57,0-66.17,4.47-66.17,10.07s29.6,9.98,66.17,9.98,66.17-4.47,66.17-9.98-29.34-10.07-66.17-10.07Z"/>
        <g>
          <path class="cls-2" d="M320.82,190.84c17.21,20.13,6.88,129.07-11.53,149.63-2.54,2.65-5.44,4.94-8.6,6.8,1.74,8.26,1.74,16.78,0,25.04-.76,4.14-4.4,7.12-8.6,7.06-.63.09-1.26.09-1.89,0-4.68-.81-7.83-5.26-7.02-9.94.04-.22.08-.43.14-.64.99-4.81,1.13-9.76.43-14.63-24.46,4.54-49.59,3.99-73.83-1.63-.38,4.05-.18,8.14.6,12.13,1.46,4.52-1.02,9.37-5.55,10.83-.21.07-.43.13-.65.18-.8.11-1.61.11-2.41,0-4.05.12-7.63-2.61-8.6-6.54-1.37-7.03-1.6-14.24-.69-21.34-.04-.52-.04-1.03,0-1.55-22.89-20.82-27.62-131.48-8.6-154.19,24.09-27.45,115.99-25.47,136.81-1.2Z"/>
          <path class="cls-2" d="M141.32,245.83c-.14-3.09,2.25-5.71,5.33-5.85,3.09-.14,5.71,2.25,5.85,5.33.54,6.19,2.29,12.21,5.16,17.73,1.47,2.73.48,6.15-2.24,7.66-.58.33-1.23.53-1.89.6-2.31.38-4.6-.77-5.68-2.84-3.7-7.02-5.93-14.72-6.54-22.63Z"/>
          <path class="cls-2" d="M347.15,240.32c.73-3.97,4.55-6.6,8.52-5.87.03,0,.06.01.09.02,3.93.68,6.58,4.41,5.9,8.35-.01.09-.03.17-.05.26-1.57,8.05-4.82,15.67-9.55,22.37-1.92,2.75-5.48,3.82-8.6,2.58-.6-.28-1.15-.66-1.63-1.12-3.24-2.4-3.97-6.95-1.63-10.24,3.39-4.93,5.76-10.49,6.97-16.35Z"/>
        </g>
        <g>
          <path class="cls-6" d="M297.5,261.06c-37.19-3.47-74.59-4.02-111.86-1.63-9.03.95-9.03-36.48,2.24-43.02,18.41-10.76,90.26-14.2,110.22-.95,10.76,7.31,12.48,47.24-.6,45.6Z"/>
          <path class="cls-6" d="M271.43,198.76c-20.47-3.39-41.4-2.9-61.69,1.46-.57.09-1.15.09-1.72,0-4.08-.16-7.27-3.59-7.11-7.68.12-3.24,2.34-6.02,5.48-6.86,22.33-4.85,45.38-5.32,67.89-1.38,3.92,1.17,6.14,5.29,4.98,9.21-1.01,3.4-4.29,5.6-7.82,5.25Z"/>
          <path class="cls-6" d="M186.15,269.4c5.55-2.25,11.87.43,14.12,5.98.26.65.46,1.33.6,2.02.52,1.72-1.03,2.93-2.24,1.98-2.32-2.13-5.56-2.94-8.6-2.15-2.5.8-4.5,2.7-5.42,5.16-.6,1.46-2.58.86-2.93-.86.05-.28.05-.58,0-.86-.87-4.31.88-8.73,4.47-11.27Z"/>
          <path class="cls-6" d="M275.56,281.19h0c1.72-6.05,7.77-9.78,13.94-8.6,6.42,1.57,10.34,8.05,8.77,14.47-.05.2-.1.4-.16.59.04.23.04.46,0,.69-.25.95-1.08,1.64-2.07,1.72-.86.01-1.65-.45-2.07-1.2-1.41-2.85-3.98-4.95-7.06-5.77-2.66-.67-5.47-.36-7.92.86-.28.08-.58.08-.86,0-1.2,0-2.19-.95-2.24-2.15-.15-.18-.26-.38-.34-.6Z"/>
          <path class="cls-6" d="M201.9,292.12c20.42,11.86,45.13,13.76,67.12,5.16,17.64-6.02,14.8,37.69-18.84,42.33-37.52,5.25-49.05-14.46-54.04-25.04-4.99-10.58-5.25-28.91,5.77-22.46Z"/>
        </g>
      </g>
      <g>
        <g>
          <path class="cls-4" d="M214.21,159.09s0,.86,2.07-3.1c2.07-3.96,5.77-19.36,14.89-20.39,9.12-1.03,8.6-8.6,12.48-10.76,3.87-2.15,6.28,2.93,11.44-1.29,8.6-7.23,19.62-4.73,34.42-1.38,14.02,1.73,27.08,8.02,37.17,17.9,12.3,10.76,13.94,24.26,10.58,28.74-3.36,4.47-.69,5.33-1.12,10.67-.43,5.33-5.33,7.57-4.9,9.55-1.08,6.43-3.33,12.61-6.63,18.24-2.93,4.82-65.57-2.41-87.94-18.84-22.37-16.43-22.46-29.34-22.46-29.34Z"/>
          <path class="cls-5" d="M336.22,179.49c0-5.33-2.32-6.11,1.12-10.67s1.72-17.98-10.58-28.74c-10.09-9.88-23.15-16.17-37.17-17.9-7.82-2.61-16.36-1.93-23.66,1.89,6.06,2.15,10.33,7.62,10.93,14.03.86,11.79-.77,34.42-15.92,38.72-13.45,3.92-27.9,2.44-40.27-4.13,4.64,5.93,10.12,11.14,16.26,15.49,22.37,16.43,85.01,23.66,87.94,18.84,3.24-5.64,5.43-11.82,6.45-18.24-.43-1.72,4.47-3.87,4.9-9.29Z"/>
          <path class="cls-5" d="M336.22,179.49c0-5.33-2.32-6.11,1.12-10.67s1.72-17.98-10.58-28.74c-9.56-9.3-21.82-15.32-35.02-17.21,13.85,26.67,4.99,56.36-7.83,82.43,20.56,3.96,39.41,4.82,40.96,2.24,3.24-5.64,5.43-11.82,6.45-18.24-.43-2.24,4.47-4.39,4.9-9.81Z"/>
          <path class="cls-7" d="M216.27,156c-8.88,3.59-16.1,10.37-20.22,19.02-8.6,15.32,5.85,26.5,38.12,38.12,32.27,11.62,72.54,21.6,89.06,17.21,16.52-4.39,20.91-25.04,8.09-41.39,0,7.92-13.68,19.02-60.75,3.53-47.07-15.49-55.5-29.69-54.29-36.48Z"/>
          <path class="cls-3" d="M337.34,200.22c-.15-.56-.35-1.11-.6-1.63-.83-2.23-1.9-4.36-3.18-6.37-.67-1.11-1.41-2.18-2.24-3.18,0,7.92-13.68,19.02-60.75,3.53-7.49-2.41-13.94-4.82-19.62-7.23,6.45,14.03,3.87,28.65-26.67,17.21-19.7-7.06-28.05-15.49-29.69-24.44-3.18,9.72,3.27,17.81,18.16,25.81h0l1.72.86h0l1.63.77h.6l1.55.69h.77l1.46.69.95.43,1.46.6,1.12.43,1.38.6,1.38.52,1.29.52,1.72.69h.95l2.93,1.03c10.07,3.61,20.91,7.14,31.58,10.07l9.55,2.41,9.29,2.15c12.58,3.41,25.71,4.32,38.63,2.67,1.87-.5,3.67-1.25,5.33-2.24h.77c1.05-.68,2.03-1.46,2.93-2.32,6.21-6.43,8.36-15.76,5.59-24.26Z"/>
        </g>
        <path class="cls-5" d="M256.8,127.43s25.81.95,24.87,31.58c-.95,30.63-14.03,85.44,5.16,109.62,7.66,6.37,13.34,1.2,10.84-9.9-2.5-11.1,5.77-37.86,20.39-60.23,14.63-22.37,24.26-34.42,16.26-55.67-8-21.25-62.99-29.69-77.53-15.4Z"/>
        <path class="cls-4" d="M256.8,127.43s25.81.95,24.87,31.58c-.95,30.63-14.03,85.44,5.16,109.62,7.66,6.37,8.6,1.03,6.02-10.07-2.04-20.53,3.3-41.13,15.06-58.08,14.63-22.29,34.42-36.57,26.42-57.56-8-21-62.99-29.77-77.53-15.49Z"/>
        <g>
          <ellipse class="cls-7" cx="290.95" cy="266.09" rx="18.93" ry="17.73" transform="translate(-60.68 87.74) rotate(-15.55)"/>
          <path class="cls-3" d="M302.06,251.33c2.79,3.83,3.47,8.81,1.81,13.25-3.15,8.3-12.09,12.85-20.65,10.5-5.45-1.45-9.65-5.78-10.93-11.27-1.35,8.72,4.12,17.04,12.65,19.27,9.87,2.8,20.24-2.44,23.83-12.05,2.63-7.33-.15-15.51-6.71-19.7Z"/>
        </g>
      </g>
      <circle class="cls-6" cx="124.29" cy="131.82" r="8.52"/>
      <circle class="cls-6" cx="375.2" cy="251.33" r="8.52"/>
      <circle class="cls-6" cx="315.57" cy="135" r="6.02"/>
      <circle class="cls-6" cx="131.17" cy="314.06" r="6.02" transform="translate(-187.08 434.71) rotate(-88.09)"/>
      <circle class="cls-6" cx="164.73" cy="202.72" r="6.02"/>
      <circle class="cls-6" cx="164.21" cy="174.67" r="4.22"/>
      <circle class="cls-6" cx="380.01" cy="117.79" r="4.22" transform="translate(192.49 468.67) rotate(-79.1)"/>
      <circle class="cls-6" cx="149.84" cy="337.9" r="4.22"/>
      <circle class="cls-6" cx="362.46" cy="229.74" r="4.22"/>
      <circle class="cls-6" cx="380.01" cy="353.9" r="4.22" transform="translate(-30.19 672.32) rotate(-80.78)"/>
    </g>
  </g>
</svg>