<?xml version="1.0" encoding="UTF-8"?>
<svg xmlns="http://www.w3.org/2000/svg" viewBox="0 0 500 500">
  <defs>
    <style>
      .cls-1 {
        opacity: .15;
      }

      .cls-1, .cls-2, .cls-3, .cls-4, .cls-5, .cls-6 {
        fill-rule: evenodd;
      }

      .cls-1, .cls-2, .cls-3, .cls-4, .cls-5, .cls-6, .cls-7, .cls-8 {
        stroke-width: 0px;
      }

      .cls-2, .cls-7 {
        fill: #343a41;
      }

      .cls-3 {
        fill: #869eb4;
      }

      .cls-4 {
        fill: #e5ebfb;
      }

      .cls-5, .cls-8 {
        fill: #fff;
      }

      .cls-6 {
        fill: #ec7104;
      }
    </style>
  </defs>
  <g id="stiker_style" data-name="stiker style">
    <g>
      <path class="cls-8" d="M272.84,338.01c-4.43-1.34-10.15-2.54-17.06-3.57-.05-2.11-.15-4.39-.31-6.84,11.12-17.9,17.87-50.57,20.52-75.97,1.63-15.7,2.03-30.59,1.13-43.08-1.04-14.54-3.8-25.16-8.2-31.56l-.1-.15c-10.9-15.11-37.26-25.62-70.53-28.1-25.23-1.88-57.22,1.24-71.33,15.68-12.54,12.78-14.94,50.39-15.27,71.48-5.42-.06-10.68,2.68-13.43,7.57-5.35,9.24-9.11,18.17-10.89,25.82l-.16.74c-.64,3.74.18,7.62,2.31,10.92l.3.43c2.44,3.28,5.77,5.38,9.64,6.06,1,.2,2,.29,2.98.29,4.51,0,8.72-2.02,11.6-5.37,2.13,16.83,5.8,31.73,11.53,39.38.27.36.54.72.83,1.07-1.78,6.71-3.16,9.38-3.61,10.15-.55.86-1.02,1.77-1.41,2.72-14.82,2.77-24.36,6.78-24.36,15.46s9.21,11.39,12.24,12.43c4.85,1.66,11.6,3.12,20.06,4.35,16.87,2.46,39.13,3.81,62.69,3.81s45.86-1.33,62.62-3.75c19.43-2.8,32.37-6.74,32.37-16.84,0-8.83-10.29-11.94-14.16-13.11Z"/>
      <path class="cls-8" d="M412.64,174.02c2.02-10.41-4.07-20.47-14.18-23.41l-2.41-.73c-.79-.36-1.57-.66-2.4-.92-5.96-1.79-13.89-4.19-22.41-6.76-15.11-4.56-32.1-9.7-43.43-13.08l-.15-.04c-5.58-1.55-11.44-.79-16.1,2.09-4.85,2.83-8.3,7.69-9.5,13.42-5.43,27.09-18.25,90.35-25.91,128.15l-4.45,21.97c-2.17,10.16,3.76,20.29,13.79,23.58l3.59,1.08c.55.21,1.09.4,1.62.55,16.51,4.97,47.94,14.39,65.65,19.69,1.96.61,3.96.91,5.96.91,3.63,0,7.21-1,10.35-2.95,4.84-2.83,8.29-7.69,9.5-13.44,1.89-9.57,4.85-24.29,9.03-44.89,12.56-3.32,21.32-17.2,20.02-31.89-.7-7.89-4.3-14.72-9.67-18.92l2.44-11.94c3.56-17.42,6.68-32.72,8.66-42.47Z"/>
    </g>
  </g>
  <g id="Bubus">
    <g>
      <path class="cls-3" d="M279,351.13c0,7.01-39.04,12.59-86.99,12.59s-86.99-5.74-86.99-12.59,39.04-12.59,86.99-12.59,86.99,5.58,86.99,12.59"/>
      <g>
        <path class="cls-7" d="M247.31,325.46c20.28-28.91,29.97-122.17,15.02-143.93-20.68-28.68-108.06-33.6-129.66-11.5-17.91,18.26-16.59,125.7-.7,146.92.98,1.31,2.06,2.54,3.22,3.7-.16.67-.34,1.39-.53,2.13-2.48,10.02-4.54,13.52-5.1,14.43-2.58,3.93-1.63,9.45,2.46,12.05.45.36.91.56,1.37.76,3.84,1.78,8.28.4,10.82-3.05,2.39-3.54,4.59-9.03,6.59-16.35,25.28,10.45,62.71,7.59,79.66,4.61.09,5.95-.45,8.59-.64,9.31-1.21,4.69,1.4,9.56,6.09,10.77.62.21,1.1.26,1.57.3,4.13.36,8.04-2.34,9.06-6.72,1.38-4.84,1.52-11.86.89-21.19-.04-.78-.09-1.53-.15-2.23Z"/>
        <path class="cls-5" d="M150.27,241.13c6.51.57,11.45,6.28,10.86,12.95s-6.29,11.6-12.8,11.04c-6.51-.57-11.45-6.28-10.86-12.95.42-6.68,6.13-11.62,12.8-11.04M247.41,249.63c6.51.57,11.45,6.28,10.86,12.95-.58,6.67-6.29,11.6-12.8,11.04-6.51-.57-11.45-6.28-10.86-12.95.58-6.67,6.29-11.6,12.8-11.04M196.91,309.51c-15.24-1.33-29.02-8.3-36.66-14.24-3.14-2.51-3.86-7.06-1.33-10.35,2.53-3.3,7.06-3.86,10.19-1.35.14.17,8.26,6.16,19.32,9.53,14.03,4.11,26.2,2.13,36.34-5.94,3.27-2.59,7.85-2.03,10.29,1.22,2.43,3.25,1.87,7.84-1.23,10.45-11.68,9.21-24.86,11.74-36.92,10.68M254.76,202.13c-16.8-10.91-85.14-19.44-105.23-9.21-11.04,5.59-15.4,40.72-2.89,40.37,29.37-1.11,90.02,3.88,107.17,7.14,8.67,1.4,11.24-31.64.95-38.3M237.79,189.61c-.48-.04-.79-.07-1.26-.27-30.01-9.82-60.42-7.69-60.75-7.55-2.9.23-5.58-2.09-5.8-4.99-.21-3.06,2.09-5.58,4.99-5.8,1.28-.05,32.82-2.25,64.87,8.07,2.8.88,4.44,4.07,3.56,6.87-.84,2.33-3.22,3.88-5.6,3.67"/>
      </g>
      <path class="cls-2" d="M96.23,276.59c-.99-1.53-1.47-3.33-1.14-5.22.24-.94,1.99-9.9,10.09-23.91,1.89-3.35,6.48-4.55,9.99-2.64s4.74,6.17,2.83,9.68c-6.81,12.04-8.43,19.57-8.43,19.57-.97,3.75-4.71,6.31-8.64,5.48-2.05-.34-3.55-1.43-4.7-2.97"/>
      <g>
        <path class="cls-6" d="M396.19,158.28c-.96-.29-1.98-.6-3.04-.91-.58-.29-1.18-.55-1.82-.74-16.51-4.97-48.11-14.55-65.83-19.84-3.38-.94-7-.55-9.83,1.24-3.05,1.75-5.06,4.71-5.78,8.13-6.67,33.26-24.18,119.63-30.38,150.23-1.32,6.17,2.4,12.32,8.46,14.3,1.17.35,2.43.73,3.74,1.13.4.17.82.32,1.25.44,16.51,4.97,48.02,14.42,65.74,19.71,3.25,1.03,6.87.64,9.83-1.24,3.05-1.75,5.06-4.71,5.78-8.13,6.53-33.17,24.27-119.5,30.47-150.1,1.23-6.3-2.49-12.45-8.59-14.21Z"/>
        <path class="cls-4" d="M393.73,162.54c-2.86-.86-6.43-1.93-10.44-3.13.13,1.98-.79,4-2.29,5.23-1.61,1.32-3.89,1.95-5.94,1.24-9.03-2.62-22.61-6.73-29.24-8.7-2.4-.65-4.31-2.82-4.54-5.38-.14-1.74-.34-3.73-.49-5.17-4.29-1.29-8.18-2.47-11.38-3.45-2.27-.74-4.74-.38-6.79.86-2.05,1.24-3.55,3.26-3.85,5.61-5.87,29.39-23.92,121.39-29.27,148.48-.87,4.31,1.7,8.54,5.84,9.72l64,19.18c2.27.74,4.74.38,6.79-.86,2.05-1.24,3.55-3.26,3.85-5.61,5.96-29.26,24.14-121.35,29.58-148.31.87-4.31-1.7-8.54-5.84-9.72Z"/>
        <path class="cls-2" d="M371.2,255.92c.82,10.9,8.85,17.92,17.6,15.69,8.84-2.1,15.4-12.73,14.45-23.54-.95-10.81-8.85-17.92-17.6-15.69-8.84,2.1-15.4,12.73-14.45,23.54"/>
        <path class="cls-1" d="M343.17,205.33c-4.88-.86-8.79-5.32-8.85-10.14l-9.01-1.47c-2.22-.39-4.09,1.11-4.12,3.28l.38,68.59c-.04,2.17,1.87,4.33,4.09,4.72l9.01,1.47c-.07-4.82,3.93-8,8.81-7.14,4.88.86,8.79,5.32,8.85,10.14l7.54,1.33c2.22.39,4.09-1.11,4.12-3.28l-.28-68.46c.04-2.17-1.87-4.33-4.09-4.72l-7.54-1.33c-.12,4.56-4.11,7.74-8.9,7.01"/>
        <path class="cls-5" d="M355.29,196.26c-4.88-.86-8.79-5.32-8.85-10.14l-9.01-1.47c-2.22-.39-4.09,1.11-4.12,3.28l.28,68.46c-.04,2.17,1.87,4.33,4.09,4.72l9.01,1.47c-.07-4.82,3.93-8,8.81-7.14,4.88.86,8.79,5.32,8.85,10.14l7.54,1.33c2.22.39,4.09-1.11,4.12-3.28l-.28-68.46c.04-2.17-1.87-4.33-4.09-4.72l-7.54-1.33c-.16,4.78-4.02,7.87-8.81,7.14"/>
      </g>
      <path class="cls-1" d="M284.38,298.04c6.2-30.6,23.62-117.1,30.38-150.23.72-3.42,2.73-6.38,5.78-8.13,2.96-1.88,6.58-2.27,9.83-1.24,16.68,4.99,45.68,13.77,62.79,18.93-.58-.29-1.18-.54-1.82-.74-16.51-4.97-48.11-14.55-65.83-19.84-3.38-.94-7-.55-9.83,1.24-3.05,1.75-5.06,4.71-5.78,8.13-6.67,33.26-24.18,119.63-30.38,150.23-1.32,6.17,2.4,12.32,8.46,14.3,1.17.35,2.43.73,3.74,1.13-5.35-2.19-8.48-7.91-7.34-13.77Z"/>
    </g>
  </g>
</svg>