<?xml version="1.0" encoding="UTF-8"?>
<svg xmlns="http://www.w3.org/2000/svg" viewBox="0 0 500 500">
  <defs>
    <style>
      .cls-1 {
        fill: #282c32;
      }

      .cls-1, .cls-2, .cls-3 {
        stroke-width: 0px;
      }

      .cls-2 {
        fill: #859cb2;
      }

      .cls-3 {
        fill: #fff;
      }
    </style>
  </defs>
  <g id="stiker_style" data-name="stiker style">
    <path class="cls-3" d="M364.54,273.71h0c-1.15-15.72-4.76-24.32-5.48-25.88-2.36-5.18-7.41-8.32-12.76-8.56.23-7.98.17-15.23-.26-20.98-.16-2.19-.3-4.39-.44-6.6-1.08-17.19-2.21-34.97-14.34-49.37-13.48-15.99-37.28-23.77-74.89-24.48-42.21-.79-67.35,5.36-81.58,19.97-16.74,17.19-15.55,43.36-14.3,71.05.21,4.58.47,9.02.77,13.31-3.17-1.33-6.67-1.51-9.99-.49-3.77,1.15-6.86,3.7-8.71,7.19-.81,1.52-4.93,9.89-7.02,25.5-.52,3.91.51,7.78,2.9,10.91,2.39,3.13,5.86,5.14,9.78,5.66.65.08,1.3.13,1.95.13,7.35,0,13.64-5.5,14.61-12.8.07-.49.14-.96.21-1.43,1.96,13.2,4.21,23.62,6.25,30.59,2.47,8.44,5.83,17.82,14.34,25.68-12.21,2.42-17.62,5.57-19.35,10.9-1.17,3.59-.14,7.44,2.73,10.28,6.21,6.15,20.38,7.91,51.1,7.91,10.77,0,23.58-.22,38.8-.54,26.56-.56,46.65-1.73,59.7-3.46,9.96-1.32,25.01-3.32,25.08-14.21.05-7.47-6.5-10.83-12.25-12.47-.32-1.32-.79-2.61-1.41-3.83,2.93-3.67,4.64-7.08,5.89-9.58,2.31-4.62,4.64-16.39,6.53-30.66,2.2,1.3,4.74,2.05,7.44,2.05.37,0,.74-.01,1.08-.04,8.11-.59,14.23-7.67,13.63-15.78Z"/>
  </g>
  <g id="Bubus">
    <g>
      <path class="cls-2" d="M174.59,348.63c6.43,6.36,37.78,6.04,84.1,5.06,54.28-1.15,76.92-4.66,76.95-9.72.05-8.44-40.95-8.2-77.22-7.99-54.66.32-90.66,5.88-83.83,12.65Z"/>
      <g>
        <path class="cls-1" d="M256.22,145.84c-89.41-1.69-90.17,28.95-87.73,82.67,1.69,37.12,6.75,64.11,10.43,76.7,2.81,9.61,6.5,19.33,17.9,26.46-.79,1.59-1.74,3.4-2.9,5.62-2.39,4.59-.6,10.22,3.99,12.61,1.38.72,2.85,1.06,4.3,1.06,3.39,0,6.66-1.84,8.33-5.05,1.48-2.84,2.68-5.16,3.68-7.2,9.89,2.49,22.72,3.95,39.59,3.95,23.59,0,39.42-2.82,50.26-6.81,1.31,2.79,2.29,4.41,2.56,4.85,1.77,2.81,4.79,4.35,7.89,4.35,1.69,0,3.4-.46,4.95-1.41,4.37-2.71,5.72-8.47,3.04-12.86-.02-.04-.91-1.52-2.15-4.41,4.58-4.28,6.74-8.58,8.34-11.79,4.68-9.36,11.48-67.29,9.36-95.69-2.56-34.24.82-71.48-81.85-73.04Z"/>
        <path class="cls-1" d="M351.79,251.15c-1.54-3.37-5.5-4.85-8.88-3.33-3.38,1.51-4.9,5.5-3.41,8.89.03.06,2.72,6.33,3.61,18.56.26,3.55,3.22,6.26,6.72,6.26.16,0,.33,0,.5-.02,3.72-.27,6.51-3.5,6.24-7.22-1.07-14.66-4.4-22.31-4.78-23.14Z"/>
        <path class="cls-1" d="M158.76,249.83c-3.29-1.75-7.38-.5-9.13,2.79-.43.8-4.21,8.24-6.16,22.81-.49,3.69,2.1,7.09,5.8,7.58.3.04.6.06.9.06,3.33,0,6.23-2.46,6.68-5.86,1.6-12,4.61-18.1,4.72-18.3,1.72-3.28.46-7.34-2.81-9.09Z"/>
      </g>
      <g>
        <path class="cls-3" d="M330.45,215.63c0-12.61-1.95-24.75-8.92-30.32-8.92-7.13-26.69-10.61-51.72-10.7-27.1-.1-67.92,1.09-78.47,15.86-8.92,12.48-8.92,46.56,7.13,44.78,26.82-2.98,101.65-3.57,115.92-1.78,14.27,1.78,16.05-7.13,16.05-17.83Z"/>
        <path class="cls-3" d="M232.78,166.25l2.9-.08q27.98-.77,51.94.75l1.87.12c.14,0,.29.01.43.01,3.48,0,6.4-2.71,6.62-6.22.23-3.66-2.55-6.82-6.21-7.05l-1.87-.12q-24.56-1.56-53.14-.77l-2.89.08c-3.67.1-6.56,3.16-6.46,6.82.1,3.67,3.12,6.52,6.82,6.46Z"/>
        <path class="cls-3" d="M221.49,249.74c-1.32-1.32-3.45-1.32-4.77,0l-6.89,6.89-6.89-6.89c-1.32-1.32-3.45-1.32-4.77,0-1.32,1.32-1.32,3.45,0,4.77l6.89,6.89-6.89,6.89c-1.32,1.32-1.32,3.45,0,4.77.66.66,1.52.99,2.39.99s1.73-.33,2.39-.99l6.89-6.89,6.89,6.89c.66.66,1.52.99,2.39.99s1.73-.33,2.39-.99c1.32-1.32,1.32-3.45,0-4.77l-6.89-6.89,6.89-6.89c1.32-1.32,1.32-3.45,0-4.77Z"/>
        <path class="cls-3" d="M326.08,246.36c-1.32-1.32-3.45-1.32-4.77,0l-6.05,6.05-6.05-6.05c-1.32-1.32-3.45-1.32-4.77,0-1.32,1.32-1.32,3.45,0,4.77l6.05,6.05-6.05,6.05c-1.32,1.32-1.32,3.45,0,4.77.66.66,1.52.99,2.39.99s1.73-.33,2.39-.99l6.05-6.05,6.05,6.05c.66.66,1.52.99,2.39.99s1.73-.33,2.39-.99c1.32-1.32,1.32-3.45,0-4.77l-6.05-6.05,6.05-6.05c1.32-1.32,1.32-3.45,0-4.77Z"/>
        <circle class="cls-3" cx="264.65" cy="304.42" r="13.5"/>
      </g>
    </g>
  </g>
</svg>