<?xml version="1.0" encoding="UTF-8"?>
<svg xmlns="http://www.w3.org/2000/svg" xmlns:xlink="http://www.w3.org/1999/xlink" viewBox="0 0 500 500">
  <defs>
    <style>
      .cls-1 {
        mask: url(#mask);
      }

      .cls-2 {
        fill: #55a7ae;
      }

      .cls-2, .cls-3, .cls-4, .cls-5, .cls-6 {
        fill-rule: evenodd;
      }

      .cls-2, .cls-3, .cls-4, .cls-5, .cls-6, .cls-7 {
        stroke-width: 0px;
      }

      .cls-3 {
        fill: #343a41;
      }

      .cls-4 {
        fill: #256f71;
      }

      .cls-5 {
        fill: #869eb4;
      }

      .cls-6, .cls-7 {
        fill: #fff;
      }

      .cls-8 {
        mask: url(#mask-1);
      }
    </style>
    <mask id="mask" x="133.58" y="145.8" width="161.45" height="202.18" maskUnits="userSpaceOnUse">
      <g id="mask-2">
        <polygon id="path-1" class="cls-6" points="133.58 145.8 295.02 145.8 295.02 347.98 133.58 347.98 133.58 145.8"/>
      </g>
    </mask>
    <mask id="mask-1" x="371.2" y="188.53" width="17.17" height="19.82" maskUnits="userSpaceOnUse">
      <g id="mask-4">
        <polygon id="path-3" class="cls-6" points="371.2 188.53 388.36 188.53 388.36 208.35 371.2 208.35 371.2 188.53"/>
      </g>
    </mask>
  </defs>
  <g id="stiker_style" data-name="stiker style">
    <path class="cls-7" d="M390.83,211.97c9.84-8.61,5.79-28.14-7.56-30.99-2.81-7.29-3.77-28.66-12.46-32.1-3.41-1.88-7.48-2.23-11.17-.97-2.03.9-36.65,11.94-37.05,13.38-1.77-.77-4.34-2.1-7.91-4.44-7.46-5.24-17.46,3.98-12.84,11.84,2.78,5.1,3.18,7.1,3.16,7.83.33.47-6.62,2.23-10.7,2.24-5.8-57.51-134.38-47.13-158.96-13.53-15.12,18.83-9.27,47.54-5.19,73.74-16.93-5.81-26.69,29.66-26.34,32.39-2.98,19.83,27.12,24.73,30.48,4.88,0-.05.55-3.08,2.02-6.8,6.26,23.06,7.71,32.2,17.95,48.1-3.15,4.36-8.28,7.97-9.88,13.38-17.24,1.99-21.92,5.35-23.71,10.27-1.46,22.99,31.24,17.73,91.54,20.73,18.23-1.15,85.37,6.17,84.99-13.58.21-5.74-3.76-9.06-7.91-11.02,2.1-9.66,2.22-13.55,1.11-24.48,19.32-22.66,11.9-55.49,10.7-96.73,2.03.13,10.25-.9,11.45.48.54.55,1,2.3.82,4.95-.92,8.91,11.75,13.18,16.44,5.62,4.12,12.11,1.83,22.11,11.55,28.52,7.78,6.11,36.58-9.12,44.59-10.48,15.07-5.05,7.25-22.56,4.89-33.24ZM256.75,330.19c-.1.46-.21.94-.33,1.46-1.43-.11-2.88-.21-4.35-.3,1.6-.37,3.16-.75,4.68-1.16ZM302.4,202.85l-2.61,3.23c-.64-3.67-1.28-7.29-1.91-10.97,5.1,1.79,6.56,3.35,6.86,3.74-.07.37-.44,1.65-2.34,4Z"/>
  </g>
  <g id="Bubus">
    <g>
      <path id="Fill-1" class="cls-5" d="M128.88,345.9c6.2,6.12,37.35,7.08,83.49,8.03,54,1.11,76.64-1.21,76.83-5.87.29-7.78-40.46-9.19-76.62-10.45-54.33-1.9-90.3,1.79-83.7,8.3"/>
      <g class="cls-1">
        <path id="Fill-3" class="cls-3" d="M291.59,205.61c-5.7-31.15-6.26-65.71-82.23-58.96-82.18,7.23-79.87,35.4-72.36,84.43,5.2,33.88,12.48,58.14,17.09,69.32,2.44,5.92,5.27,11.84,10.48,16.73-2.58,3.7-6.02,8.09-10.6,12.91-.28.31-.55.64-.8.98-2.73,3.88-1.78,9.32,2.1,12.05,3.49,2.45,8.31,1.97,11.25-1.13,5.81-6.12,10.11-11.72,13.27-16.42,10.31,3.13,25.01,4.21,46.66,1.89,17.29-1.85,29.87-4.86,39.1-8.41.51,6.6-.05,9.01-2.24,18.39-.13.53-.19,1.07-.21,1.61-.18,4.74,3.57,8.78,8.3,8.97,4.13.16,7.84-2.65,8.79-6.68,3.41-14.6,3.55-15.88,1.85-31.55,6.72-5.69,8.87-11.45,10.36-15.44,3.37-9.05,3.94-62.85-.79-88.69"/>
      </g>
      <path id="Fill-6" class="cls-3" d="M131.34,248.01c-3.37-2.35-8-1.53-10.35,1.84-7.28,10.43-9.19,22.25-9.26,22.75-.55,3.51,1.46,6.83,4.64,8.07.49.19,1.01.33,1.56.42,4.05.63,7.84-2.14,8.48-6.18.03-.19,1.54-9.06,6.77-16.55,2.35-3.37,1.53-8-1.84-10.35"/>
      <path id="Fill-8" class="cls-6" d="M328.58,169.37s-3.01,5.07-21.77-8.2c5.42,9.78,14.24,23.34-9.49,25.38,17.18,4.97,18.53,12.4,11.3,21.34,17.85-.55,11.79,19.79,11.79,19.79l19.73-35.48-11.56-22.83Z"/>
      <path id="Fill-10" class="cls-6" d="M272.62,174.11c6.54,4.03,9.33,14.05,10.46,24.64.96,8.99.22,16.64-12.33,16.47-12.54-.18-77.48,7.27-100.42,12.26-13.76,2.99-17.12-28.47-10.51-39.78,7.83-13.38,49.67-17.11,66.96-17.77,21.82-.82,37.45-.98,45.83,4.19"/>
      <path id="Fill-12" class="cls-6" d="M243.34,163.68l-.39.03-1.71.02q-22.16.24-47.83,2.77l-2.68.19c-.14.02-.28.03-.43.05-3.35.24-6.31-2.23-6.54-5.48-.23-3.25,2.33-6.12,5.69-6.36.03,0,.07,0,.1,0l2.68-.19q26.24-2.59,48.95-2.83l1.71-.02c3.2-.01,5.89,2.41,6.11,5.5.23,3.23-2.31,6.09-5.64,6.36h-.02Z"/>
      <path id="Fill-14" class="cls-4" d="M384.79,231.5c.72,2.95-.93,5.96-3.8,6.95-7.79,2.67-22.67,7.77-31.04,10.64-1.57.54-3.29.39-4.73-.41-1.46-.79-2.5-2.16-2.89-3.77-3.8-15.71-13.7-56.57-17.21-71.08-.72-2.95.93-5.96,3.8-6.94,7.77-2.66,22.6-7.74,30.94-10.6,1.56-.54,3.28-.39,4.72.41,1.45.79,2.5,2.16,2.89,3.76,3.83,15.7,13.78,56.53,17.32,71.04"/>
      <path id="Fill-16" class="cls-2" d="M387.16,230.69c.72,2.95-.94,5.97-3.81,6.95-7.79,2.67-22.67,7.77-31.04,10.64-1.56.54-3.28.39-4.73-.41-1.44-.8-2.49-2.17-2.88-3.77-3.81-15.71-13.7-56.57-17.22-71.07-.71-2.95.94-5.96,3.81-6.95,7.77-2.66,22.59-7.74,30.94-10.6,1.56-.54,3.28-.39,4.72.41,1.45.79,2.5,2.16,2.89,3.76,3.82,15.7,13.78,56.53,17.32,71.04"/>
      <g class="cls-8">
        <path id="Fill-18" class="cls-3" d="M388.33,197.83c.39,5.46-3.12,10.17-7.84,10.51-4.72.34-8.87-3.81-9.27-9.27-.39-5.46,3.12-10.17,7.84-10.51,4.72-.34,8.87,3.81,9.27,9.27"/>
      </g>
      <path id="Fill-21" class="cls-4" d="M334.22,169.55l10.9-3.87c1.87-.63,3.88.5,4.31,2.43l2.19,9.86c.36,1.64-.55,3.29-2.13,3.85l-10.77,4.03c-1.87.66-3.9-.45-4.35-2.38l-2.32-10.01c-.38-1.66.55-3.35,2.17-3.89"/>
      <path id="Fill-23" class="cls-2" d="M341.22,173.03c.12,1.62-1.1,3.03-2.72,3.15-1.62.12-3.03-1.1-3.15-2.72s1.1-3.03,2.72-3.15c1.62-.12,3.03,1.1,3.15,2.72"/>
      <path id="Fill-25" class="cls-2" d="M348.55,174.16c.12,1.62-1.1,3.03-2.72,3.15-1.62.12-3.03-1.1-3.15-2.72s1.1-3.03,2.72-3.15c1.62-.12,3.03,1.1,3.15,2.72"/>
      <path id="Fill-27" class="cls-2" d="M343.07,180.02c.12,1.62-1.1,3.03-2.72,3.15-1.62.12-3.03-1.1-3.15-2.72-.12-1.62,1.1-3.03,2.72-3.15,1.62-.12,3.03,1.1,3.15,2.72"/>
      <path id="Fill-29" class="cls-6" d="M261.48,269.12c-.15,1.64-.58,3.38-1.64,4.94-.52.78-1.21,1.47-2.02,2s-1.76.83-2.67.97c-1.85.3-3.53-.14-5.04-.65-1.5-.53-2.86-1.26-4.18-1.96-1.34-.72-2.68-1.5-3.88-2.47l.08-.13.06-.11c1.44.47,2.87.84,4.32,1.25,1.46.4,2.88.83,4.26,1.12,1.37.28,2.75.38,3.85.11.55-.14,1.06-.34,1.47-.68.45-.3.83-.71,1.13-1.18.6-.96.93-2.2,1.12-3.54.18-1.39.25-2.71-.09-3.67-.28-.92-1.17-1.59-2.48-1.81-1.28-.23-2.78-.09-4.26.16h-.03l-.35.06.25-.26c1.3-1.27,2.61-2.44,3.74-3.72,1.11-1.25,2.08-2.59,2.36-3.87.28-1.23-.03-2.33-.89-3.35-.84-1-2.14-1.84-3.5-2.24-1.31-.38-2.95-.47-4.52-.26-1.59.21-3.21.59-4.82,1.16-3.24,1.08-6.45,2.52-9.62,4.13l-.13-.18c2.51-2.61,5.49-4.67,8.75-6.36,1.65-.81,3.4-1.54,5.3-1.89,1.91-.38,3.89-.52,6,.03,2.04.57,3.89,1.66,5.3,3.39.69.86,1.23,1.93,1.45,3.11.21,1.17.09,2.42-.34,3.46-.89,2.1-2.42,3.44-3.97,4.47-.16.11-.33.21-.5.33.81-.04,1.7.01,2.54.42.89.39,1.71,1.16,2.19,2.04.93,1.8.86,3.61.74,5.19"/>
      <path id="Fill-31" class="cls-6" d="M171.1,249.43c-.31-2.63,1.68-11.99,10.4-14.7,7.96-2.49,16.37,4.82,16.84,7.77.36,2.28-5.93-1.32-15.68.78-7.88,1.69-11.05,10.52-11.56,6.15"/>
      <path id="Fill-33" class="cls-6" d="M260.44,232.4c.49-2.17,4.61-9.06,12.16-8.87,6.88.17,11.42,8.23,10.97,10.71-.35,1.91-4.25-2.64-12.43-3.61-6.6-.78-11.51,5.37-10.7,1.77"/>
    </g>
  </g>
</svg>