<?xml version="1.0" encoding="UTF-8"?>
<svg xmlns="http://www.w3.org/2000/svg" viewBox="0 0 500 500">
  <defs>
    <style>
      .cls-1 {
        fill: #19b14d;
      }

      .cls-1, .cls-2, .cls-3 {
        fill-rule: evenodd;
      }

      .cls-1, .cls-2, .cls-3, .cls-4, .cls-5 {
        stroke-width: 0px;
      }

      .cls-2 {
        fill: #282c33;
      }

      .cls-3, .cls-5 {
        fill: #fff;
      }

      .cls-4 {
        fill: #859cb2;
      }
    </style>
  </defs>
  <g id="stiker_style" data-name="stiker style">
    <path class="cls-5" d="M394.59,181.78c-8.72-53.2-82.1-66.69-109.16-20.06-40.19-26.14-110.59-21.99-138.7,4.33-10.07,11.94-10.69,41.68-9.68,62.78-3.15-5.11-5.84-13.19-12.75-14.95-7.62-2.73-16.63,1.76-19.05,9.48-1.28,3.81-1,7.89.79,11.49,12.2,21.42,17.52,32.9,34.02,25.75,5,29.08,8.64,52.61,25.04,64.85-4.6,4.1-8.15,6.86-9.14,12.71-10.01,1.8-17.78,4.82-17.78,12.48,0,8.9,9.71,11.75,27.62,13.9,18.42,1.7,129.5,9.69,128.88-13.9,0-7.04-6.75-10.04-13.73-11.66.09-3.52-.15-7.56-.74-12.18,11.98-7.23,19.96-38.95,21.73-58.61,3.62,4.08,9.3,6.42,15.03,5.88,5.58,14.75,27.06,9.05,25.81-6.37,6.7-3.17,10.28-11.17,9.66-18.62,28.79-8.99,48-37.71,42.12-67.32ZM303.84,242.21v-.38c.09.06.18.11.26.16-.09.07-.18.14-.26.22Z"/>
  </g>
  <g id="Bubus">
    <g>
      <ellipse class="cls-4" cx="216.45" cy="350.64" rx="70.25" ry="8.43"/>
      <g>
        <path class="cls-2" d="M152.85,171.21c-16.44,19.49-5.67,124.16,12.09,143.43,3.27,3.54,7.35,6.34,11.98,8.55-4.29,7.04-9.42,10.91-9.59,11.03-3.85,2.72-4.78,8.04-2.08,11.91,1.67,2.39,4.33,3.66,7.04,3.66,1.7,0,3.41-.5,4.9-1.55.5-.35,9.93-7.08,16.48-19.84,20.27,3.76,44.5,1.2,61.1-1.97,1.47,9.26,1.05,13.14.88,14.12-.83,4.66,2.27,9.12,6.93,9.95.51.09,1.02.14,1.52.14,4.07,0,7.69-2.92,8.43-7.07.85-4.76.53-11.74-.96-20.73-.03-.19-.06-.34-.09-.53.2-.07.42-.14.6-.21,26.48-8.18,31.61-127.61,11.98-150.71-23.3-26.15-111.48-23.62-131.21-.2Z"/>
        <path class="cls-2" d="M339.82,243.68c-3.24-4.51-9.54-5.54-14.05-2.3-4.03,2.9-10.06,4.43-12.06,4.78-5.47.93-9.16,6.1-8.24,11.58.82,4.92,5.09,8.41,9.92,8.41.55,0,1.11-.04,1.67-.14,1.19-.2,11.88-2.12,20.47-8.29,4.51-3.24,5.54-9.54,2.3-14.05Z"/>
        <path class="cls-2" d="M125.84,225c-1.73-3.49-5.97-4.91-9.45-3.17-3.49,1.73-4.91,5.96-3.17,9.45,7.09,14.26,13.4,20.76,14.09,21.46,1.37,1.37,3.16,2.05,4.96,2.05s3.59-.68,4.96-2.05c2.76-2.73,2.78-7.18.07-9.95-.05-.05-5.39-5.58-11.46-17.79Z"/>
      </g>
      <g>
        <path class="cls-3" d="M181.76,232.86c-6.48.05-11.71,5.35-11.66,11.83.05,6.48,5.36,11.71,11.84,11.66,6.48-.05,11.7-5.36,11.65-11.84-.05-6.48-5.35-11.7-11.83-11.65Z"/>
        <path class="cls-3" d="M258,269.92c-9.31,8.73-21.16,11.71-35.23,8.86-11.19-2.27-19.65-7.48-19.81-7.58-3.38-2.12-7.83-1.11-9.97,2.26-2.13,3.38-1.13,7.84,2.25,9.98,8.03,5.07,22.08,10.76,37.22,10.76,11.95,0,24.57-3.55,35.43-13.74,2.91-2.73,3.06-7.31.33-10.22-2.73-2.91-7.31-3.06-10.22-.33Z"/>
        <path class="cls-3" d="M275.59,231.29c-5.9.05-10.64,4.87-10.6,10.76.04,5.89,4.87,10.64,10.76,10.6,5.9-.04,10.64-4.87,10.6-10.76-.04-5.9-4.87-10.64-10.76-10.6Z"/>
        <path class="cls-3" d="M172.04,225.45c28.71-3.63,88.74-3.86,105.84-2.24,8.54.8,8.26-31.7-2.45-37.34-17.39-9.17-85.27-11.63-104.04.02-10.33,6.41-11.65,41.12.66,39.57Z"/>
        <path class="cls-3" d="M196.07,172.72c.3-.05,30.01-4.71,60.34,2.23.4.09.8.14,1.2.14,2.43,0,4.63-1.68,5.2-4.15.66-2.87-1.14-5.74-4.01-6.4-32.43-7.42-63.14-2.57-64.43-2.36-2.91.47-4.88,3.21-4.41,6.12.47,2.91,3.22,4.89,6.12,4.42Z"/>
      </g>
      <g id="Group-21">
        <path class="cls-1" d="M386.71,183.19c-2.41-13.47-9.93-25.21-21.17-33.04-11.24-7.83-24.85-10.82-38.32-8.41-13.48,2.41-25.21,9.93-33.04,21.17-7.83,11.24-10.82,24.85-8.41,38.33,2.41,13.47,9.93,25.21,21.17,33.04,5.93,4.13,12.55,6.8,19.44,8.16l-2.15,26.72c-.23,2.86,1.9,5.37,4.77,5.6.14.01.28.02.42.02,2.68,0,4.96-2.06,5.18-4.78l2.14-26.52c2.84-.03,5.69-.28,8.54-.79,11.99-2.14,26.68-12.06,33.03-21.17,7.83-11.24,10.81-24.85,8.4-38.33Z"/>
      </g>
      <path class="cls-3" d="M381.87,184.05c-4.5-25.16-28.62-41.97-53.78-37.47-12.18,2.18-22.79,8.98-29.87,19.14-7.08,10.16-9.78,22.47-7.6,34.65,4.01,22.41,23.59,38.19,45.6,38.19,2.7,0,5.44-.24,8.19-.73,12.18-2.18,22.78-8.98,29.86-19.14,7.08-10.16,9.78-22.47,7.6-34.65ZM370,215.73c-6.28,9.02-15.7,15.06-26.51,16.99-22.34,4-43.76-10.93-47.76-33.26-1.93-10.81.46-21.74,6.75-30.76,6.28-9.02,15.7-15.06,26.52-16.99,22.33-3.99,43.75,10.93,47.74,33.26,1.93,10.81-.46,21.74-6.74,30.76Z"/>
      <path class="cls-3" d="M361.17,182.28c-1.52-1.85-4.25-2.12-6.1-.6l-27.47,22.54-9.41-11.45c-1.52-1.85-4.25-2.11-6.1-.6-1.85,1.52-2.12,4.25-.6,6.1l12.16,14.8c.86,1.04,2.1,1.58,3.35,1.58.97,0,1.94-.32,2.75-.98l30.82-25.29c1.85-1.52,2.12-4.25.6-6.1Z"/>
      <path class="cls-2" d="M344.29,248.06c-1.13-6.33-6.01-10.76-10.88-9.89-4.88.87-7.91,6.72-6.77,13.04,1.13,6.33,6,10.76,10.88,9.89,4.86-.87,7.91-6.72,6.77-13.04Z"/>
    </g>
  </g>
</svg>