<?xml version="1.0" encoding="UTF-8"?>
<svg xmlns="http://www.w3.org/2000/svg" viewBox="0 0 500 500">
  <defs>
    <style>
      .cls-1 {
        fill-rule: evenodd;
      }

      .cls-1, .cls-2, .cls-3, .cls-4 {
        stroke-width: 0px;
      }

      .cls-1, .cls-4 {
        fill: #fff;
      }

      .cls-2 {
        fill: #282c32;
      }

      .cls-3 {
        fill: #859cb2;
      }
    </style>
  </defs>
  <g id="stiker_style" data-name="stiker style">
    <path class="cls-4" d="M347.29,141.95h0c-7.47-1.01-14.43,4.2-15.56,11.64-.06.34-1,5.16-5,12.72-1.2,2.26-1.72,4.75-1.57,7.24-9.01-16.56-28.37-28.99-74.43-26.22-36.75,2.22-58.25,9.38-69.72,23.19-.97,1.17-1.84,2.37-2.65,3.6-.49-1.08-1.1-2.12-1.87-3.09-.33-.45-3.72-5.21-7-14.75h0c-2.65-7.7-11.06-11.81-18.77-9.17-3.73,1.28-6.74,3.94-8.47,7.49-1.73,3.54-1.98,7.55-.7,11.28,5.13,14.92,10.82,22.33,11.91,23.66,2.82,3.45,7,5.43,11.47,5.43,2.29,0,4.53-.55,6.56-1.56-1.68,12.23.04,25.95,1.82,40.14,3.9,31.17,10.15,55.17,14.7,67.26,1.7,4.45,3.69,9.1,6.78,13.49-.47,6.88-.29,12.59.11,17.01-8.68,2.09-12.76,4.88-14.3,9.39-1.17,3.44-.3,7.16,2.36,9.99,5.59,5.89,18.04,7.47,45.36,7.47,8.2,0,17.75-.14,28.85-.35,21.93-.42,37.84-1.35,48.65-2.84,8.06-1.11,21.56-2.97,21.61-13.34,0-4.74-2.72-8.31-8.12-10.67.49-4.82.58-7.46.36-14.34,8.42-6.57,11.32-13.66,12.98-17.74,4.46-10.9,5.64-63.99,1.96-87.35-.28-1.86-.55-3.73-.81-5.6-1.08-7.68-2.24-15.86-4.86-23.62,1.02,1.07,2.21,1.99,3.55,2.7,1.99,1.05,4.22,1.6,6.46,1.6,5.14,0,9.83-2.82,12.24-7.37,6.44-12.17,7.75-20.32,7.95-21.84.97-7.5-4.34-14.44-11.84-15.47ZM256.74,334.5h0s0-.96,0-.96c0,0,0,0,0,0v.96s0,0,0,0h0Z"/>
  </g>
  <g id="Bubus">
    <g>
      <path class="cls-3" d="M188.76,345.2c5.24,5.52,30.73,5.34,68.26,4.63,44.03-.84,62.39-3.81,62.41-8.18,0-7.32-33.26-7.22-62.68-7.14-44.32.13-73.51,4.82-67.99,10.69Z"/>
      <path class="cls-2" d="M326.7,212.75c-4.49-29.41-4.12-61.74-75.5-57.43-77.18,4.67-75.74,31.12-69.95,77.26,3.99,31.87,10.24,54.8,14.24,65.4,1.84,4.82,3.94,9.66,7.52,13.92-1.57,16.98,1.03,26.77,1.37,27.96,1.02,3.56,4.28,5.89,7.8,5.89.74,0,1.48-.1,2.23-.32,4.3-1.24,6.79-5.69,5.55-9.99-.02-.07-1.25-4.77-1.24-13.32,9.58,3.24,23.39,4.65,43.87,3.03,13.94-1.1,24.66-3.1,32.94-5.59.12,5.2-.08,6.94-.65,12.11l-.17,1.56c-.49,4.45,2.72,8.45,7.17,8.93.3.03.6.05.89.05,4.08,0,7.59-3.07,8.04-7.22l.17-1.55c.88-7.96.97-9.12.53-20.85,9.33-5.9,11.98-12.44,13.73-16.72,3.39-8.31,5.29-58.79,1.46-83.12Z"/>
      <path class="cls-4" d="M308.92,192.06c6.29,4.38,8.62,14.5,9.27,25.15.55,9.04-.53,16.68-12.94,15.92-12.41-.76-76.98,3.67-99.93,7.63-13.76,2.36-15.53-26.44-8.47-37.47,8.34-13.03,43.52-16.19,66.9-17.55,21.59-1.23,37.12.75,45.18,6.32Z"/>
      <path class="cls-4" d="M228.64,181.36c-1.75,0-3.3-1.24-3.64-3.03-.37-2.01.95-3.94,2.96-4.32,17.26-3.2,34.85-4.12,52.31-2.74,2.04.16,3.56,1.94,3.4,3.98-.16,2.04-1.94,3.56-3.98,3.4-16.81-1.33-33.76-.44-50.38,2.64-.23.04-.46.06-.68.06Z"/>
      <path class="cls-1" d="M312.04,240.82c5.64-.12,10.31,4.35,10.43,9.99.12,5.64-4.35,10.31-9.99,10.43-5.64.13-10.31-4.35-10.43-9.99-.13-5.64,4.35-10.31,9.99-10.43Z"/>
      <path class="cls-1" d="M215.82,247.78c6.44-.14,11.78,4.98,11.93,11.42.14,6.45-4.98,11.79-11.43,11.93-6.45.14-11.79-4.98-11.93-11.42-.14-6.45,4.98-11.79,11.43-11.93Z"/>
      <path class="cls-2" d="M338.95,178.62c-.92,0-1.85-.22-2.72-.68-2.85-1.51-3.94-5.04-2.43-7.89,4.94-9.33,5.83-15.16,5.83-15.22.46-3.17,3.4-5.4,6.58-4.97,3.18.44,5.41,3.33,5,6.51-.1.78-1.16,7.92-7.09,19.13-1.05,1.98-3.07,3.11-5.17,3.11Z"/>
      <path class="cls-2" d="M164.94,186.98c-1.97,0-3.93-.85-5.27-2.5-.58-.7-5.76-7.28-10.54-21.2-1.22-3.53.66-7.38,4.2-8.6,3.53-1.21,7.38.67,8.6,4.2,3.99,11.62,8.21,17.02,8.25,17.07,2.36,2.89,1.92,7.14-.97,9.5-1.25,1.02-2.76,1.52-4.27,1.52Z"/>
      <path class="cls-1" d="M254.79,284.48c2.77-9.13,10.7-14.83,17.71-12.71,7.01,2.12,10.46,11.26,7.7,20.4-2.77,9.14-10.7,14.83-17.72,12.71-7-2.12-10.46-11.26-7.69-20.4Z"/>
    </g>
  </g>
</svg>