<?xml version="1.0" encoding="UTF-8"?>
<svg xmlns="http://www.w3.org/2000/svg" viewBox="0 0 500 500">
  <defs>
    <style>
      .cls-1 {
        fill: #282c33;
      }

      .cls-1, .cls-2, .cls-3, .cls-4, .cls-5, .cls-6, .cls-7, .cls-8 {
        stroke-width: 0px;
      }

      .cls-2 {
        fill: #869eb4;
      }

      .cls-3 {
        fill: #ad420c;
      }

      .cls-4 {
        fill: #a9b6c9;
      }

      .cls-5 {
        fill: #c1cad6;
      }

      .cls-6 {
        fill: #fff;
      }

      .cls-7 {
        fill: #e65b0a;
      }

      .cls-8 {
        fill: #fcfcfc;
      }
    </style>
  </defs>
  <g id="stiker_style" data-name="stiker style">
    <path class="cls-6" d="M352.61,273.15c1.39-2.9,1.8-6.24,1.04-9.5-.37-1.61-2.66-10.3-11.03-22.98-.4-.61-.85-1.19-1.34-1.72,4.37-20.52,5.39-38.97,2.76-51.22l-.2-.74c-.71-2.22-2.01-3.85-3.57-5.07,4.74-2.62,10.29-5.63,11.12-6.08,6.24-3.38,8.58-11.21,5.2-17.46-3.38-6.24-11.21-8.58-17.46-5.2l-.11.06c-2.22,1.2-8.16,4.42-12.86,7.04-9.91-21.19-33.98-29.44-79.13-28-73.8,2.34-75.56,37.38-76.97,65.53-.09,1.89-.19,3.78-.31,5.66-.54,8.69-.11,19.26.56,28.61-4.92.08-9.67,2.72-12.21,7.34-.74,1.35-4.43,8.66-5.99,22.12-.09.14-.18.29-.27.43-6.69,10.7-10.27,24.64-10.08,39.25.35,26.95,13.48,49.8,32.04,55.91,11.84,5.56,47.27,8.91,74.47,10.11,4.27.19,15.19.61,27.67.61,18.56,0,40.55-.92,49.14-4.91,19.64-5.22,33.51-30.22,33.12-60.02-.14-10.58-2.07-20.77-5.61-29.77ZM222.38,333.92c-1.66,0-3.3,0-4.91.02.35-.72.68-1.45,1.01-2.18,15.09,1.03,30.26,2.01,41.77,2.69,2.74.93,5.67,1.09,8.46.48,8.44.46,11.99.57,13.67.58.2.46.4.92.6,1.38-10.26-1.03-21.62-1.83-33.27-2.34-9.39-.41-18.66-.62-27.33-.62Z"/>
  </g>
  <g id="Bubus">
    <g>
      <path class="cls-1" d="M166.07,270.07c-.22,0-.44-.01-.66-.04-3.36-.36-5.79-3.38-5.43-6.74,1.38-12.82,4.78-19.33,5.16-20.03,1.62-2.96,5.35-4.05,8.31-2.43,2.95,1.62,4.04,5.3,2.45,8.26-.1.19-2.66,5.3-3.75,15.5-.34,3.14-2.99,5.47-6.08,5.47Z"/>
      <ellipse class="cls-2" cx="249" cy="350.89" rx="8.37" ry="74.27" transform="translate(-112.48 584.25) rotate(-87.48)"/>
      <path class="cls-3" d="M324.5,190.12c-2.46,0-4.57-1.84-4.84-4.34-.22-1.96-.95-11.92,5.79-15.89,4.39-2.59,16.97-9.39,17.5-9.68,2.37-1.28,5.33-.4,6.62,1.97,1.28,2.37.4,5.33-1.97,6.62-.13.07-12.95,7-17.19,9.5-.69.4-1.33,3.65-1.04,6.42.28,2.67-1.66,5.08-4.34,5.36-.18.02-.35.03-.53.03Z"/>
      <g>
        <ellipse class="cls-5" cx="183.16" cy="300.7" rx="29.92" ry="46.55" transform="translate(-3.85 2.38) rotate(-.74)"/>
        <path class="cls-3" d="M183.51,350.71c-18.28,0-33.38-22.15-33.73-49.58-.17-13.09,2.98-25.49,8.87-34.91,6.18-9.9,14.66-15.42,23.87-15.53.1,0,.2,0,.3,0,9.1,0,17.6,5.29,23.96,14.92,6.12,9.27,9.59,21.58,9.76,34.67.17,13.09-2.98,25.49-8.87,34.91-6.18,9.9-14.66,15.42-23.87,15.53-.1,0-.19,0-.29,0ZM182.81,257.62c-.07,0-.14,0-.21,0-6.77.09-13.19,4.44-18.08,12.27-5.19,8.31-7.96,19.37-7.81,31.14.3,23.64,12.3,42.74,26.79,42.74.07,0,.14,0,.21,0,6.77-.09,13.19-4.45,18.08-12.27,5.19-8.31,7.96-19.37,7.81-31.14-.15-11.78-3.21-22.76-8.61-30.93-5.04-7.62-11.49-11.81-18.18-11.81Z"/>
      </g>
      <path class="cls-7" d="M336.22,189.41c-3.46-10.89-107.93,4.88-122.63,3.97-3.18.53-19.73,77.83-21.99,88.42-1.75,1.78-14.41,14.64-16.46,16.55-6.05,4.38-12.61,15.26-.14,17.9,15.93.32,99.08,11,116.34,2.9,2.03-1.18,3.2-7.2,3.5-8.99.17-.99,6.78-4.59,7.9-5.55,22.65-19.49,39.57-86.78,33.47-115.19Z"/>
      <path class="cls-3" d="M298.91,311.95s-7.76,7.11-16.78,7.4c-9.02.29-96.88-4.42-104.86-5.91s-9.37-2.54-9.37-2.54c0,0-1.71,8.52,10.17,9.79,11.88,1.26,99.75,7.21,105.23,6.79,5.48-.42,11.5-2.63,13.43-4.43,1.92-1.79,2.19-11.1,2.19-11.1Z"/>
      <g>
        <path class="cls-1" d="M247.29,140.29c76.83-2.44,77.82,23.88,76.32,70.08-1.04,31.92-5.09,55.18-8.11,66.04-4.45,15.98-11.66,32.34-63.96,33.01-52.3.67-60.56-15.32-64.68-23.31-4.13-7.99-10.61-57.71-9.1-82.14,1.82-29.46-1.49-61.43,69.54-63.68Z"/>
        <path class="cls-1" d="M265.33,327.29c-1.74,0-3.48-.56-4.96-1.71-3.5-2.74-4.11-7.8-1.37-11.3,13.21-16.88,24.38-22.97,25.61-23.61,3.94-2.05,8.8-.52,10.85,3.42,2.04,3.93.53,8.76-3.38,10.83-.27.15-9.44,5.27-20.41,19.28-1.59,2.03-3.95,3.09-6.34,3.09Z"/>
        <circle class="cls-6" cx="200.53" cy="238.47" r="10.15"/>
        <circle class="cls-6" cx="283.07" cy="238.49" r="11.6"/>
        <path class="cls-6" d="M192.25,177.6c-5.6,4.6-7.07,14.49-6.93,24.74.11,8.7,1.66,15.93,13.24,14.33s72.43-1.9,94.27.24c13.07,1.28,12.68-29.17,5.3-39.23-8.73-11.9-47.86-10.69-63.93-9.33-20.28,1.71-34.76,3.35-41.94,9.24Z"/>
        <path class="cls-6" d="M219.58,162.13c-2.96,0-5.46-2.28-5.69-5.28-.24-3.14,2.12-5.89,5.26-6.13l1.6-.12q21.09-1.61,45.66-1.25l2.5.04c3.15.05,5.67,2.64,5.63,5.79-.04,3.13-2.59,5.63-5.71,5.63h-.08l-2.5-.04q-24.05-.35-44.63,1.22l-1.6.12c-.15.01-.3.02-.44.02Z"/>
        <path class="cls-6" d="M239.73,285.72c-14.67,0-28.29-5.62-36.01-10.59-3.22-2.07-4.15-6.36-2.08-9.57,2.07-3.22,6.35-4.15,9.56-2.09.17.11,8.23,5.15,18.92,7.4,13.46,2.83,24.84.06,33.81-8.23,2.81-2.6,7.19-2.42,9.79.39,2.6,2.81,2.42,7.19-.39,9.79-10.35,9.56-22.28,12.9-33.6,12.9Z"/>
        <path class="cls-1" d="M183.04,318.27c-1.67-.46-3.21-1.47-4.32-2.97-2.64-3.58-1.88-8.61,1.7-11.25,17.24-12.73,29.63-15.62,30.99-15.91,4.35-.93,8.62,1.85,9.54,6.2.92,4.33-1.83,8.58-6.15,9.53-.3.07-10.5,2.55-24.82,13.13-2.07,1.53-4.63,1.92-6.94,1.28Z"/>
      </g>
      <ellipse class="cls-3" cx="317.14" cy="303.45" rx="33.09" ry="52.5" transform="translate(-3.87 4.1) rotate(-.74)"/>
      <ellipse class="cls-5" cx="319.28" cy="303.86" rx="25.04" ry="42.68" transform="translate(-3.88 4.13) rotate(-.74)"/>
      <path class="cls-4" d="M318.28,348.25c-14.84,0-26.67-19.28-26.99-44.05-.15-11.67,2.37-22.7,7.08-31.07,4.92-8.72,11.66-13.57,18.99-13.67.07,0,.15,0,.22,0,7.25,0,14.03,4.67,19.11,13.18,4.93,8.24,7.73,19.21,7.88,30.88.15,11.67-2.37,22.7-7.08,31.07-4.92,8.72-11.66,13.57-18.99,13.67-.07,0-.15,0-.22,0ZM317.57,263.55c-.05,0-.11,0-.16,0-5.81.07-11.31,4.19-15.48,11.59-4.37,7.75-6.7,18.05-6.56,29.01.28,22.13,10.54,40.02,22.91,40.02.06,0,.11,0,.16,0,5.81-.07,11.31-4.19,15.48-11.59,4.37-7.75,6.7-18.05,6.56-29.01-.14-10.96-2.73-21.2-7.3-28.83-4.32-7.22-9.86-11.19-15.61-11.19Z"/>
      <path class="cls-8" d="M321.09,347.42c-14.59,0-26.24-19.33-26.56-44.15-.32-24.94,10.94-44.63,25.63-44.82.07,0,.14,0,.21,0,14.6,0,26.24,19.33,26.56,44.15.32,24.94-10.94,44.63-25.63,44.82-.07,0-.14,0-.21,0ZM298.81,303.21c.28,21.71,10.47,39.93,22.3,39.93.05,0,.1,0,.15,0,11.89-.15,21.69-18.7,21.41-40.5-.28-21.71-10.47-39.93-22.3-39.93-.05,0-.1,0-.15,0-11.89.15-21.69,18.7-21.41,40.5Z"/>
      <path class="cls-1" d="M339.55,273.39c-2.93,0-5.58-2-6.29-4.97-.05-.21-1.71-6.51-8.11-16.21-1.97-2.98-1.15-7,1.83-8.97,2.98-1.97,7-1.15,8.97,1.83,7.77,11.76,9.72,19.52,9.91,20.37.81,3.48-1.36,6.96-4.84,7.77-.49.11-.98.17-1.47.17Z"/>
    </g>
  </g>
</svg>