<?xml version="1.0" encoding="UTF-8"?>
<svg xmlns="http://www.w3.org/2000/svg" viewBox="0 0 500 500">
  <defs>
    <style>
      .cls-1 {
        fill: #869eb4;
        fill-rule: evenodd;
      }

      .cls-1, .cls-2, .cls-3, .cls-4, .cls-5 {
        stroke-width: 0px;
      }

      .cls-2 {
        fill: #282c33;
      }

      .cls-3 {
        fill: #262c32;
      }

      .cls-4 {
        fill: #fff;
      }

      .cls-5 {
        fill: #e65b0a;
      }
    </style>
  </defs>
  <g id="stiker_style" data-name="stiker style">
    <path class="cls-4" d="M367.17,282.05c-.89-8.3-8.82-14.28-17.04-12.75,4.76-87.46-30.8-104.14-118.48-98.75,4.86-25.08,4.88-43.07.04-53.57-11.16-25.57-43.78-37.6-68.86-25.39-25.99,11.99-37.37,42.88-25.39,68.86,4.75,10.31,18.08,21.76,39.67,34.12-12.79,17.72-10.63,44.95-9.42,70.13-25.48-2.78-15.96,40.66-14.64,44.44,2.55,8.63,12.63,13.31,20.88,9.77,3.96,17.11,4.49,27.65,16.77,41.43-.58,10.91.27,18.98,1.1,23.9-41.66,36.56,108.25,29.57,123.32,25.72,16.61-2.51,27.66-6.11,27.66-15.51,0-6.63-5.64-10.2-13.2-12.49.98-8.8,1.28-11.52.91-21.72,13.1-14.81,11.43-18.55,15.56-41.85,22.14,6.77,21.74-31.99,21.11-36.34ZM229.49,376.99c-1.34.11-2.66.22-3.96.34-.04-.32-.09-.66-.13-1.02,1.33.24,2.7.47,4.09.68ZM292.03,376.57c1.23-.2,2.43-.41,3.61-.63-.03.28-.06.57-.1.88-1.16-.09-2.33-.17-3.51-.25Z"/>
  </g>
  <g id="Bubus">
    <g>
      <path class="cls-1" d="M263.59,383.69c39.29,0,71.18,4.82,71.18,10.75s-31.89,10.75-71.18,10.75-71.17-4.82-71.17-10.75,31.89-10.75,71.17-10.75Z"/>
      <g>
        <path class="cls-3" d="M341.89,249.37c-2.51-33.62.8-70.19-80.37-71.72-87.8-1.66-88.54,28.42-86.14,81.17,1.66,36.44,6.63,62.95,10.24,75.31,2.37,8.12,5.38,16.32,13.3,22.91-1.49,18.34,1.32,28.92,1.7,30.23,1.16,4.02,4.82,6.62,8.8,6.62.82,0,1.66-.11,2.5-.34,4.86-1.36,7.71-6.42,6.39-11.3-.02-.08-1.52-5.8-1.4-16.16,10.11,3.01,23.71,4.81,42.26,4.81,20.22,0,34.65-2.11,45.07-5.25.06,4.84-.17,6.95-.76,12.33l-.19,1.76c-.55,5.05,3.09,9.59,8.14,10.14.34.04.68.05,1.01.05,4.63,0,8.61-3.49,9.13-8.19l.19-1.75c.99-8.95,1.1-10.33.62-23.25,6.02-4.78,8.53-9.81,10.34-13.42,4.6-9.19,11.28-66.07,9.19-93.95Z"/>
        <path class="cls-4" d="M277.71,344.36c-16.71,0-27.77-5.04-34.1-9.26-7.09-4.73-10.22-9.57-10.77-10.5-2.35-3.92-1.08-9.01,2.84-11.36,3.92-2.36,9.01-1.08,11.36,2.84.24.36,7.91,11.72,30.67,11.72,16.79,0,24.12-11.31,24.42-11.79,2.36-3.92,7.42-5.16,11.34-2.8,3.92,2.35,5.17,7.48,2.82,11.4-.48.81-12.16,19.76-38.58,19.76Z"/>
        <circle class="cls-4" cx="326.13" cy="291.95" r="11.6"/>
        <circle class="cls-4" cx="216.8" cy="295.26" r="13.25"/>
        <path class="cls-2" d="M350.15,311c-.53,0-1.07-.06-1.61-.2-3.55-.89-5.71-4.49-4.82-8.04,2.92-11.68,2.33-18.35,2.32-18.42-.35-3.62,2.29-6.87,5.91-7.25,3.62-.38,6.86,2.22,7.27,5.84.1.88.86,9.04-2.64,23.04-.75,3.01-3.46,5.02-6.42,5.02Z"/>
        <path class="cls-2" d="M167.97,312.08c-3.26,0-6.27-2.08-7.31-5.35-.31-.99-3-10.1-2.16-26.82.21-4.24,3.88-7.51,8.06-7.29,4.24.21,7.5,3.82,7.29,8.06-.7,13.95,1.47,21.41,1.49,21.48,1.21,4.05-1.07,8.34-5.1,9.57-.76.23-1.52.34-2.27.34Z"/>
        <path class="cls-4" d="M326.13,219.06c6.47,5.17,8.28,16.45,8.28,28.16,0,9.94-1.66,18.22-14.91,16.57-13.25-1.66-82.76-1.11-107.67,1.66-14.91,1.66-14.91-33.13-6.63-44.73,9.8-13.72,54.51-12.91,72.89-11.6,23.19,1.66,39.76,3.31,48.04,9.94Z"/>
        <path class="cls-4" d="M294.61,201.79c-.14,0-.28,0-.42-.01l-1.82-.11q-23.53-1.49-50.99-.74l-2.87.08c-3.58.09-6.6-2.74-6.7-6.34-.1-3.6,2.74-6.6,6.34-6.7l2.87-.08q28.04-.77,52.17.76l1.82.11c3.6.23,6.33,3.33,6.1,6.92-.22,3.46-3.09,6.11-6.5,6.11Z"/>
        <g>
          <path class="cls-5" d="M224.42,120.32c-10.15-22.02-36.23-31.63-58.25-21.48-22.02,10.15-31.63,36.23-21.48,58.25,7.5,16.27,42.24,34.37,59.88,42.72,5.45,2.58,11.9-.4,13.47-6.22,5.1-18.83,13.88-57.01,6.37-73.28Z"/>
          <path class="cls-4" d="M176.21,103.51c-.83,0-1.57-.57-1.77-1.4-.23-.98.38-1.95,1.36-2.18,1.03-.24,2.06-.44,3.07-.59,1.01-.15,1.92.54,2.06,1.53.15.99-.54,1.92-1.53,2.06-.91.13-1.84.31-2.78.53-.14.03-.28.05-.41.05Z"/>
          <path class="cls-4" d="M196.71,104.69c-.2,0-.41-.03-.61-.11-3.51-1.26-7.18-1.93-10.89-2.02-1-.02-1.8-.85-1.78-1.86.02-.99.83-1.78,1.82-1.78h.04c4.11.09,8.16.84,12.04,2.23.94.34,1.44,1.38,1.1,2.32-.27.74-.96,1.21-1.71,1.21Z"/>
          <path class="cls-4" d="M192.13,126.55c-.33,0-.66-.09-.95-.27-3.64-2.25-8.14-2.53-12.03-.74-.91.42-1.99.02-2.41-.89-.42-.91-.02-1.99.89-2.41,4.99-2.3,10.77-1.95,15.46.95.85.53,1.12,1.65.59,2.5-.34.55-.94.86-1.55.86Z"/>
        </g>
      </g>
      <g>
        <path class="cls-4" d="M207.57,126.44c-5.88-12.76-20.99-18.33-33.75-12.44-12.76,5.88-18.33,20.99-12.44,33.75,5.88,12.76,20.99,18.33,33.75,12.44,12.76-5.88,18.33-20.99,12.44-33.75ZM193.1,155.79c-10.33,4.76-22.56.25-27.32-10.07-4.76-10.33-.25-22.56,10.07-27.32,10.33-4.76,22.56-.25,27.32,10.07,4.76,10.33.25,22.56-10.07,27.32Z"/>
        <path class="cls-4" d="M192.13,126.55c-.33,0-.66-.09-.95-.27-3.64-2.25-8.14-2.53-12.03-.74-.91.42-1.99.02-2.41-.89-.42-.91-.02-1.99.89-2.41,4.99-2.3,10.77-1.95,15.46.95.85.53,1.12,1.65.59,2.5-.34.55-.94.86-1.55.86Z"/>
      </g>
    </g>
  </g>
</svg>