<?xml version="1.0" encoding="UTF-8"?>
<svg xmlns="http://www.w3.org/2000/svg" viewBox="0 0 500 500">
  <defs>
    <style>
      .cls-1 {
        fill: #262c32;
      }

      .cls-1, .cls-2, .cls-3, .cls-4 {
        stroke-width: 0px;
      }

      .cls-2 {
        fill: #869eb4;
      }

      .cls-3 {
        fill: #fff;
      }

      .cls-4 {
        fill: #e65b0a;
      }
    </style>
  </defs>
  <g id="stiker_style" data-name="stiker style">
    <path class="cls-3" d="M394.03,165.65c-13.35-43.88-77.93-25.83-106.18-13.87-23.27-28.34-132.85-27.24-151.78-.96-17.82,17.93-15.21,48.16-13.88,76.24-10.95-1.41-19.02,8.63-17.31,19.2-.82,22.06,2.79,40.47,23.51,34.78,4.02,17.47,4.5,28.13,16.99,42.15-.43,7.89-.12,14.29.42,19.17-14.68,2.04-23.04,11.83-12.25,20.8,28.82,11.18,81.91,4,128.56,4.08,40.6-4.56,114.12,3.42,121.48-19.4-3.54-18.08-21.42-10.14-33.99-15.35,39.65-33.61,24.06-97.59,35.63-137.21,8.42-6.55,11.87-18.19,8.79-29.65Z"/>
  </g>
  <g id="Bubus">
    <g>
      <path class="cls-2" d="M137.96,356.5c9.31,6.14,55.56,4.98,123.9,2.76,80.08-2.59,113.56-6.68,113.75-11.7.31-8.37-60.18-7.03-113.68-5.85-80.62,1.78-133.87,8.26-123.97,14.79Z"/>
      <path class="cls-4" d="M357.41,145.99c-34.55-4.71-67.02,17.83-79.76,15.28-19.87-3.97-37.26-2.87-43,1.43-9.73,7.3,4.3,5.73-7.17,18.63-30.3,34.09-18.24,67.79-19.13,79.31-2.87,37.26,18.63,61.63,18.63,61.63,0,0-34.64,28.61-4.3,27.23,31.53-1.43,118.95,2.87,121.82-4.3,2.14-5.36-1.66-9.11-5.16-10.67-7.94,2.07-32.1,2.07-32.1,2.07,0,0,30.09-2.87,33.87-6.72,3.06-4.58,17.72-11.91,26.32-46.3,9.7-38.78,0-84.56,12.9-94.59,12.9-10.03,8.6-38.7-22.93-43Z"/>
      <g>
        <path class="cls-1" d="M297.8,211.34c-2.53-33.9.81-70.78-81.04-72.32-88.53-1.67-89.28,28.66-86.86,81.85,1.67,36.75,6.68,63.48,10.32,75.94,2.39,8.19,5.43,16.46,13.41,23.11-1.5,18.5,1.33,29.16,1.71,30.48,1.17,4.06,4.86,6.68,8.88,6.68.83,0,1.68-.11,2.52-.35,4.9-1.37,7.77-6.48,6.44-11.39-.02-.08-1.53-5.85-1.41-16.3,10.19,3.04,23.91,4.85,42.61,4.85,21.18,0,36.05-2.29,46.65-5.67-.05,3.62-.72,7.03-2.05,13.81-.98,5.02,2.3,9.88,7.32,10.86.6.12,1.19.17,1.78.17,4.35,0,8.23-3.08,9.1-7.51,2.57-13.14,3.07-16.31,1.76-26.62,5.47-4.61,7.86-9.39,9.6-12.86,4.63-9.27,11.37-66.63,9.27-94.74Z"/>
        <path class="cls-1" d="M128.34,242.92c.66-10.04-15.15-10.82-15.48-.78.13,17.5-.32,27.48,5.35,31.06,2.07,1.3,4.68,1.41,6.96.54,10.22-3.9,1.13-11.66,3.17-30.81Z"/>
      </g>
      <path class="cls-3" d="M233.07,307.13c-16.85,0-28-5.08-34.39-9.34-7.15-4.77-10.3-9.66-10.86-10.59-2.37-3.96-1.09-9.09,2.86-11.46,3.96-2.38,9.09-1.09,11.46,2.86.24.36,7.98,11.82,30.93,11.82,16.93,0,24.32-11.41,24.63-11.89,2.37-3.96,7.48-5.2,11.44-2.83,3.96,2.37,5.22,7.54,2.84,11.5-.49.81-12.26,19.93-38.9,19.93Z"/>
      <g>
        <path class="cls-3" d="M275.22,239.42c-8.2,0-14.86,6.67-14.86,14.86,0,1.75,1.42,3.17,3.17,3.17s3.17-1.42,3.17-3.17c0-4.7,3.82-8.52,8.52-8.52s8.52,3.82,8.52,8.52c0,1.75,1.42,3.17,3.17,3.17s3.17-1.42,3.17-3.17c0-8.2-6.67-14.86-14.86-14.86Z"/>
        <path class="cls-3" d="M174.99,241.09c-9.12,0-16.53,7.42-16.53,16.53,0,1.75,1.42,3.17,3.17,3.17s3.17-1.42,3.17-3.17c0-5.62,4.57-10.19,10.19-10.19s10.19,4.57,10.19,10.19c0,1.75,1.42,3.17,3.17,3.17s3.17-1.42,3.17-3.17c0-9.12-7.42-16.53-16.53-16.53Z"/>
      </g>
      <path class="cls-3" d="M281.9,180.78c6.52,5.22,8.35,16.59,8.35,28.4,0,10.02-1.67,18.37-15.03,16.7-13.36-1.67-83.45-1.12-108.58,1.67-15.03,1.67-15.03-33.41-6.68-45.1,9.88-13.83,54.97-13.02,73.5-11.69,23.39,1.67,40.09,3.34,48.44,10.02Z"/>
      <path class="cls-3" d="M250.12,163.37c-.14,0-.28,0-.42-.01l-1.88-.12q-23.7-1.5-51.43-.74l-2.84.08c-3.61.13-6.66-2.77-6.76-6.4-.1-3.63,2.76-6.66,6.4-6.76l2.84-.08q28.32-.78,52.62.76l1.88.12c3.63.23,6.38,3.36,6.15,6.98-.22,3.48-3.12,6.16-6.56,6.16Z"/>
      <path class="cls-3" d="M296.93,207.51s-1.67-6.68,30.07-23.39c0,0-16.7,5.01-29.67,15.25l-.4,8.13Z"/>
      <path class="cls-3" d="M337.51,154.24c-.71,0-1.36-.49-1.53-1.21-.2-.85.33-1.69,1.17-1.89.87-.21,1.77-.38,2.66-.51.86-.13,1.66.46,1.79,1.32.13.86-.46,1.66-1.32,1.79-.8.12-1.61.27-2.4.46-.12.03-.24.04-.36.04Z"/>
      <path class="cls-3" d="M355.24,155.26c-.18,0-.35-.03-.53-.09-3.04-1.09-6.21-1.67-9.42-1.75-.87-.02-1.56-.74-1.54-1.61.02-.87.73-1.6,1.61-1.54,3.55.08,7.06.73,10.42,1.93.82.29,1.24,1.19.95,2.01-.23.64-.84,1.04-1.48,1.04Z"/>
      <path class="cls-4" d="M303.58,160.63c3.07,15.09,10.7,21.84-.82,38.41-17.51,25.17-27.54,43.55-11.3,69.96,0,0-24.59,23.7-11.03,54.93l19.89,8.72s48.17-75.97,35.72-126.32c-12.45-50.35-32.46-45.7-32.46-45.7Z"/>
    </g>
  </g>
</svg>