<?xml version="1.0" encoding="UTF-8"?>
<svg xmlns="http://www.w3.org/2000/svg" viewBox="0 0 500 500">
  <defs>
    <style>
      .cls-1 {
        fill: #282c33;
      }

      .cls-1, .cls-2, .cls-3, .cls-4 {
        stroke-width: 0px;
      }

      .cls-2 {
        fill: #869eb4;
      }

      .cls-3 {
        fill: #fff;
      }

      .cls-4 {
        fill: #e65b0a;
      }
    </style>
  </defs>
  <g id="stiker_style" data-name="stiker style">
    <path class="cls-3" d="M362.98,247.28c-3.24-5.32-9.88-8.24-15.96-7.11,3.49-24.69,5.61-47.72-7.89-64.67-19.11-29.2-132.02-41.69-153.16-4.74v-45c0-7.06-5.74-12.8-12.8-12.8s-12.8,5.74-12.8,12.8v88.24c-14.37,6.32-11.56,16.35-7.7,38.89,1.02,4.39,3.9,7.9,7.7,9.8v93.59c-9.48,1.73-23.83-1.15-25.75,10.9-.28,8.03,8.5,10.31,11.38,11.06,28.24,5.47,49,5.25,91.8,7.24,35.08-.08,86.51,6.22,108.7-3.53,12.99-13.04-2.26-19.95-23.54-22.17.58-6.43.81-15.27-.28-26.28,7.33-13.36,9.11-21.03,14.08-39.12,18.53,2.87,20.94-9.96,28.25-35.23.93-4.09.21-8.3-2.02-11.85ZM288.78,355.24c-.03.46-.07.89-.11,1.31-1.92-.12-3.88-.24-5.86-.36,2.07-.26,4.06-.58,5.97-.95ZM221.49,354.47h-.37c-.32-.8-.32-1.7-.48-2.43,4.28.96,8.85,1.79,13.7,2.51-4.15-.05-8.44-.08-12.84-.08Z"/>
  </g>
  <g id="Bubus">
    <g>
      <path class="cls-2" d="M342.08,375.26c-7.83,5.19-46.65,4.15-104.01,2.2-67.21-2.28-95.61-5.77-95.46-10.03.12-3.61,55.21-5.49,95.44-4.83,67.69,1.1,112.35,7.14,104.03,12.66Z"/>
      <path class="cls-1" d="M263.42,156.66c-78.23-6.33-78.67,30.15-84.43,63.15-4.77,27.37-4,84.26-.5,93.79,1.89,5.15,4.82,13.08,16.16,20.2-1.6,12.24-1.43,15.27.74,27.41.08.46,1.39,2.9,2.74,5.4,1.85,3.44,5.71,5.3,9.55,4.59h0c5.82-1.07,9.04-7.38,6.49-12.71-.52-1.09-.89-1.92-.94-2.25-1.13-6.44-1.41-9.4-.93-14.67,8.77,2.72,19.92,4.98,34.19,6.41,24.05,2.42,39.78.75,50.46-3.29.41,12.47-1.27,19.45-1.33,19.66-1.28,4.9,1.63,9.92,6.53,11.23.8.21,1.6.32,2.39.32,4.07,0,7.79-2.72,8.89-6.83.16-.59,3.69-14.23.98-37.57,2.81-4.01,4.74-8.39,6.47-12.76,4.7-11.88,12.12-37.6,17.33-73.48,7.55-51.93,9.83-81.74-74.79-88.59Z"/>
      <path class="cls-4" d="M173.17,370.76c-2.65,0-4.8-2.15-4.8-4.8V125.75c0-2.65,2.15-4.8,4.8-4.8s4.8,2.15,4.8,4.8v240.21c0,2.65-2.15,4.8-4.8,4.8Z"/>
      <path class="cls-3" d="M197.4,184.13c-6.86,4.57-9.78,15.75-10.96,27.55-1.01,10.01-.22,18.51,12.93,18.15,13.15-.36,81.19,7.03,105.31,12.27,14.44,3.14,17.96-31.9,11.02-44.39-8.21-14.78-52.1-18.37-70.23-18.86-22.89-.62-39.28-.58-48.07,5.28Z"/>
      <path class="cls-3" d="M280.86,175.54c-.37,0-.74-.03-1.11-.1-.23-.04-23.74-4.09-49.85-2.56-3.53.2-6.55-2.48-6.76-6.01-.21-3.52,2.48-6.55,6.01-6.76,27.65-1.62,51.8,2.55,52.81,2.73,3.48.61,5.8,3.93,5.19,7.4-.55,3.1-3.24,5.29-6.29,5.29Z"/>
      <path class="cls-1" d="M166.91,256.2c-3.02,0-5.75-2.07-6.46-5.14-3.36-14.44-2.63-22.8-2.54-23.7.38-3.65,3.63-6.31,7.29-5.92,3.64.38,6.28,3.62,5.93,7.25-.02.21-.57,7.21,2.26,19.37.83,3.57-1.39,7.14-4.96,7.97-.51.12-1.01.18-1.51.18Z"/>
      <path class="cls-1" d="M341.29,287.03c-1.39,0-2.79-.38-4.06-1.16-3.6-2.24-4.72-6.96-2.5-10.57.11-.19,4.22-7.18,7.45-21.37.94-4.15,5.07-6.75,9.22-5.8,4.15.94,6.75,5.07,5.8,9.22-3.83,16.83-8.8,25.15-9.36,26.04-1.46,2.35-3.98,3.64-6.55,3.64Z"/>
      <circle class="cls-3" cx="192.96" cy="255.19" r="11.21"/>
      <circle class="cls-3" cx="297.68" cy="269.81" r="12.81"/>
      <path class="cls-3" d="M254.99,329.25c-.32,0-.64-.02-.97-.06l-40.1-4.84c-4.39-.53-7.52-4.52-6.99-8.91s4.5-7.52,8.91-6.99l40.1,4.84c4.39.53,7.52,4.52,6.99,8.91-.49,4.06-3.95,7.05-7.94,7.05Z"/>
    </g>
  </g>
</svg>