<?xml version="1.0" encoding="UTF-8"?>
<svg xmlns="http://www.w3.org/2000/svg" viewBox="0 0 500 500">
  <defs>
    <style>
      .cls-1 {
        fill: #282c33;
      }

      .cls-1, .cls-2, .cls-3, .cls-4 {
        stroke-width: 0px;
      }

      .cls-2 {
        fill: #869eb4;
      }

      .cls-3 {
        fill: #fff;
      }

      .cls-4 {
        fill: #e65b0a;
      }
    </style>
  </defs>
  <g id="stiker_style" data-name="stiker style">
    <path class="cls-3" d="M379.28,295.1c-3.05-22.65-3.54-32.3-18.44-34.74-.96-27.71,2.48-54.63-15.19-77.82-16.27-26.13-92.22-29.04-125.32-20.96,21.28-85.04-132.53-97.27-134.87-14.44-1.3,39.01,49.57,66.74,89.7,54.37-3.76,14.75-2.62,38.07-1.47,57.86-20.54-4.85-23.39,39.03-22.99,40.48-.18,14.83,20.58,21.16,28.74,9.01,4.28,18.94,4.47,29.97,17.71,44.95-.42,7.76-.13,14.13.36,18.93-14.42,2.97-21.97,10.3-14.34,20.65,7.5,10.91,60.38,8.13,85.75,7.9,25.89-2.19,79.42,2.62,80.8-17.53.02-6.54-4.96-9.92-9.61-11.72.68-6.49.78-9.49.49-18.31,13.77-15.42,11.96-19.95,16.28-44.85,9.69,6.34,23.65-2.22,22.38-13.77Z"/>
  </g>
  <g id="Bubus">
    <g>
      <path class="cls-2" d="M189,387.89c6.12,6.45,35.86,6.24,79.79,5.4,51.48-.97,72.94-4.44,72.95-9.56.02-8.53-38.87-8.43-73.28-8.34-51.85.13-85.97,5.63-79.47,12.49Z"/>
      <g>
        <path class="cls-1" d="M269.86,165.83c-90.39-1.71-91.15,29.26-88.68,83.57,1.71,37.52,6.82,64.81,10.54,77.54,2.44,8.36,5.54,16.81,13.7,23.59-1.54,18.88,1.36,29.77,1.75,31.12,1.19,4.14,4.96,6.82,9.06,6.82.85,0,1.71-.11,2.57-.35,5.01-1.4,7.94-6.61,6.58-11.63-.02-.08-1.57-5.97-1.44-16.64,10.4,3.1,24.41,4.95,43.51,4.95,20.82,0,35.67-2.17,46.4-5.41.07,4.98-.17,7.16-.78,12.69l-.2,1.81c-.57,5.2,3.18,9.87,8.37,10.44.35.04.7.06,1.04.06,4.76,0,8.86-3.59,9.4-8.43l.2-1.8c1.02-9.21,1.13-10.64.64-23.94,6.19-4.92,8.79-10.1,10.64-13.82,4.73-9.46,11.61-68.03,9.46-96.73-2.59-34.61.83-72.26-82.74-73.84Z"/>
        <path class="cls-1" d="M371.3,295.68c-1.08-14.82-4.45-22.55-4.83-23.39-1.56-3.41-5.56-4.9-8.98-3.37-3.42,1.53-4.95,5.56-3.45,8.99.03.06,2.75,6.4,3.65,18.76.26,3.59,3.25,6.33,6.8,6.33.17,0,.33,0,.5-.02,3.76-.27,6.58-3.54,6.31-7.3Z"/>
        <path class="cls-1" d="M174.41,267.7c-4.13-1.44-8.64.74-10.07,4.87-5.67,16.28-5.64,26.06-5.62,27.13.09,4.31,3.61,7.72,7.91,7.72h.11c4.35-.06,7.83-3.64,7.81-7.99,0-.08.01-8.08,4.74-21.66,1.44-4.13-.74-8.64-4.87-10.07Z"/>
      </g>
      <path class="cls-3" d="M335.89,205.74c7.04,5.63,9.01,17.9,9.01,30.65,0,10.82-1.8,19.83-16.22,18.03s-90.06-1.21-117.18,1.8c-16.22,1.8-16.22-32.64-7.21-45.26,10.66-14.93,51.93-16.13,79.32-16.03,25.3.09,43.27,3.61,52.28,10.82Z"/>
      <path class="cls-3" d="M303.93,187.28c-.14,0-.29,0-.43-.01l-1.87-.12q-24.23-1.54-52.5-.76l-2.95.08c-3.71.12-6.8-2.82-6.9-6.53-.1-3.71,2.82-6.8,6.53-6.9l2.95-.08q28.87-.79,53.71.78l1.87.12c3.7.23,6.51,3.43,6.28,7.13-.22,3.56-3.18,6.29-6.7,6.29Z"/>
      <circle class="cls-3" cx="332.96" cy="276.69" r="11.94"/>
      <circle class="cls-3" cx="220.4" cy="280.1" r="13.64"/>
      <path class="cls-3" d="M244.95,303.63c12.65,5.22,38.94,14.56,69.85-1.1,11.83-6,9.61,14.19,4.49,23.62-5.77,10.62-18.98,30.26-57.54,22.51-34.51-6.94-34.69-52.41-16.8-45.03Z"/>
      <g>
        <path class="cls-4" d="M197.75,181.1c10.4-8.83,16.79-20.78,16.79-33.96,0-27.14-27.1-49.15-60.54-49.15s-60.54,22-60.54,49.15,27.1,49.15,60.54,49.15c12.29,0,23.71-2.98,33.26-8.09l9.82,6.22c2.23,1.41,4.98-.77,4.13-3.26l-3.47-10.06Z"/>
        <circle class="cls-3" cx="180.45" cy="154.98" r="6.82"/>
        <circle class="cls-3" cx="161.69" cy="154.98" r="6.82"/>
        <circle class="cls-3" cx="142.93" cy="154.98" r="6.82"/>
      </g>
    </g>
    <path class="cls-3" d="M113.81,122.34c-.42,0-.84-.16-1.15-.49-.62-.64-.6-1.65.03-2.27.44-.43.89-.85,1.35-1.26.66-.59,1.67-.54,2.27.12.59.66.54,1.67-.12,2.27-.43.38-.84.78-1.25,1.17-.31.3-.72.45-1.12.45Z"/>
    <path class="cls-3" d="M119.33,117.74c-.5,0-.99-.23-1.31-.67-.52-.72-.35-1.72.37-2.24,3.29-2.36,6.93-4.38,10.83-6.02.81-.34,1.76.04,2.1.86.34.82-.04,1.76-.86,2.1-3.67,1.55-7.11,3.45-10.2,5.67-.28.2-.61.3-.93.3Z"/>
  </g>
</svg>