<?xml version="1.0" encoding="UTF-8"?>
<svg xmlns="http://www.w3.org/2000/svg" viewBox="0 0 500 500">
  <defs>
    <style>
      .cls-1 {
        fill: #282c33;
      }

      .cls-1, .cls-2, .cls-3, .cls-4 {
        stroke-width: 0px;
      }

      .cls-2 {
        fill: #859cb2;
      }

      .cls-3 {
        fill: #fff;
      }

      .cls-4 {
        fill: #e65b0a;
      }
    </style>
  </defs>
  <g id="stiker_style" data-name="stiker style">
    <path class="cls-3" d="M362.79,287.96c-1.12-15.43-4.68-23.9-5.39-25.44-2.32-5.08-7.25-8.19-12.5-8.48.22-7.77.16-14.85-.26-20.46-.16-2.15-.3-4.31-.43-6.47-1.07-16.9-2.17-34.37-14.11-48.53-13.26-15.73-36.64-23.38-73.6-24.07-15.25-.28-28.13.36-39.03,1.96l.57-29.32c.15-3.39-1.02-6.62-3.28-9.13-2.29-2.53-5.42-4-8.81-4.14-2.32-.11-4.53.44-6.47,1.46-.17-.21-.34-.42-.52-.62-2.29-2.53-5.42-4-8.82-4.15-1.88-.08-3.67.25-5.32.92-.54-1.18-1.26-2.29-2.16-3.28-2.28-2.53-5.42-4-8.82-4.15-5.45-.27-10.29,3.05-12.32,7.88-1.59-.82-3.35-1.3-5.2-1.38-6.95-.31-12.93,5.14-13.33,12.12-.02.28-.02.6-.02.81l.07,78.78c.04,3.26,1.35,6.29,3.68,8.54,2.24,2.16,5.16,3.33,8.25,3.33.11,0,.22,0,.33,0,1.81-.05,3.52-.52,5.06-1.3l-.02,17.94v.1c.02,2.11.59,4.13,1.62,5.9.09,2.34.19,4.74.3,7.18.15,3.33.33,6.6.54,9.78-8.11-2.7-16.93,1.62-19.75,9.71-5.84,16.76-5.94,27.2-5.9,29.13.17,8.45,7.21,15.33,15.68,15.33h.2s0,0,0,0c6.78-.09,12.52-4.53,14.62-10.66,1.67,10.05,3.49,18.14,5.16,23.86,2.41,8.24,5.68,17.38,13.89,25.07-11.83,2.38-17.1,5.49-18.8,10.73-1.16,3.58-.15,7.41,2.72,10.25,6.13,6.07,20.07,7.81,50.29,7.81,10.56,0,23.13-.21,38.03-.53,26.07-.55,45.78-1.69,58.6-3.4,9.82-1.3,24.67-3.28,24.74-14.09.05-7.39-6.37-10.73-12.04-12.35-.31-1.26-.75-2.47-1.34-3.62,2.84-3.58,4.51-6.9,5.73-9.35h0c2.26-4.52,4.54-15.98,6.39-29.92,2.13,1.22,4.58,1.92,7.18,1.92.35,0,.7-.01,1.07-.04,3.9-.28,7.45-2.07,10-5.02,2.55-2.96,3.8-6.73,3.52-10.62Z"/>
  </g>
  <g id="Bubus">
    <g>
      <path class="cls-2" d="M176.25,361.49c6.31,6.24,37.07,5.93,82.52,4.97,53.26-1.13,75.47-4.57,75.5-9.54.05-8.28-40.18-8.05-75.77-7.84-53.63.31-88.96,5.77-82.25,12.41Z"/>
      <g>
        <path class="cls-1" d="M256.35,162.5c-87.74-1.66-88.48,28.4-86.08,81.11,1.66,36.42,6.62,62.9,10.23,75.26,2.76,9.44,6.37,18.98,17.56,25.97-.78,1.55-1.71,3.34-2.84,5.51-2.34,4.5-.59,10.03,3.91,12.37,1.35.7,2.8,1.04,4.22,1.04,3.32,0,6.54-1.81,8.18-4.96,1.45-2.78,2.63-5.06,3.61-7.06,9.7,2.45,22.3,3.87,38.84,3.87,23.14,0,38.69-2.76,49.32-6.67,1.28,2.74,2.24,4.32,2.51,4.75,1.74,2.76,4.7,4.27,7.74,4.27,1.66,0,3.34-.45,4.85-1.39,4.29-2.66,5.61-8.31,2.98-12.62-.02-.04-.89-1.49-2.11-4.33,4.5-4.2,6.61-8.42,8.19-11.57,4.59-9.19,11.27-66.03,9.19-93.89-2.51-33.6.8-70.14-80.31-71.67Z"/>
        <path class="cls-1" d="M354.82,288.54c-1.05-14.39-4.32-21.89-4.69-22.7-1.51-3.31-5.4-4.75-8.72-3.27-3.32,1.49-4.81,5.4-3.35,8.73.03.06,2.67,6.21,3.55,18.21.25,3.48,3.16,6.14,6.6,6.14.16,0,.32,0,.49-.02,3.65-.27,6.39-3.44,6.12-7.09Z"/>
        <path class="cls-1" d="M160.4,261.38c-4.01-1.39-8.38.72-9.78,4.73-5.5,15.8-5.48,25.3-5.45,26.33.09,4.18,3.5,7.49,7.68,7.49.03,0,.07,0,.1,0,4.22-.05,7.6-3.53,7.58-7.75,0-.08.01-7.84,4.6-21.02,1.4-4.01-.72-8.38-4.73-9.78Z"/>
      </g>
      <path class="cls-3" d="M320.44,201.24c6.83,5.47,8.75,17.37,8.75,29.75,0,10.5-1.75,19.25-15.75,17.5s-87.42-1.17-113.74,1.75c-15.75,1.75-15.75-31.69-7-43.93,10.35-14.49,50.41-15.66,76.99-15.56,24.56.09,42,3.5,50.75,10.5Z"/>
      <path class="cls-3" d="M289.41,183.32c-.14,0-.28,0-.42-.01l-1.84-.12q-23.51-1.49-50.96-.74l-2.84.08c-3.62.08-6.6-2.74-6.7-6.34-.1-3.6,2.74-6.6,6.34-6.7l2.84-.08q28.05-.77,52.14.76l1.84.12c3.59.23,6.32,3.33,6.09,6.92-.22,3.45-3.09,6.11-6.5,6.11Z"/>
      <path class="cls-3" d="M215.51,275.9l6.76-6.76c1.29-1.29,1.29-3.39,0-4.68-1.29-1.29-3.39-1.29-4.68,0l-6.76,6.76-6.76-6.76c-1.29-1.29-3.39-1.29-4.68,0-1.29,1.29-1.29,3.39,0,4.68l6.76,6.76-6.76,6.76c-1.29,1.29-1.29,3.39,0,4.68.65.65,1.49.97,2.34.97s1.69-.32,2.34-.97l6.76-6.76,6.76,6.76c.65.65,1.49.97,2.34.97s1.7-.32,2.34-.97c1.29-1.29,1.29-3.39,0-4.68l-6.76-6.76Z"/>
      <path class="cls-3" d="M318.97,271.76l5.94-5.94c1.29-1.29,1.29-3.39,0-4.68-1.29-1.29-3.39-1.29-4.68,0l-5.94,5.94-5.94-5.94c-1.29-1.29-3.39-1.29-4.68,0-1.29,1.29-1.29,3.39,0,4.68l5.94,5.94-5.94,5.94c-1.29,1.29-1.29,3.39,0,4.68.65.65,1.49.97,2.34.97s1.7-.32,2.34-.97l5.94-5.94,5.94,5.94c.65.65,1.49.97,2.34.97s1.69-.32,2.34-.97c1.29-1.29,1.29-3.39,0-4.68l-5.94-5.94Z"/>
      <circle class="cls-3" cx="264.63" cy="318.11" r="13.24"/>
      <path class="cls-4" d="M208.82,189.95l1.23-63.07c.15-2.65-1.84-4.9-4.45-5.01-2.61-.11-4.84,1.95-5,4.6,0,.11,0,.23,0,.33l.22,63.08c.03,2.25,1.84,4.02,4.05,3.96,2.11-.06,3.83-1.78,3.95-3.9Z"/>
      <path class="cls-4" d="M192.86,202.26l1.38-78.68c.15-2.65-1.84-4.9-4.45-5.01-2.61-.11-4.84,1.95-5,4.6,0,.11,0,.23,0,.33l.07,78.69c.03,2.25,1.84,4.02,4.05,3.96,2.11-.06,3.83-1.78,3.95-3.9Z"/>
      <path class="cls-4" d="M176.36,230.88l1.6-113.79c.15-2.65-1.84-4.9-4.45-5.01-2.61-.11-4.84,1.95-5,4.6,0,.11,0,.23,0,.33l-.15,113.81c.03,2.25,1.84,4.02,4.05,3.96,2.11-.06,3.83-1.78,3.95-3.9Z"/>
      <path class="cls-4" d="M159.05,202.26l1.38-78.68c.15-2.65-1.84-4.9-4.45-5.01-2.61-.11-4.84,1.95-5,4.6,0,.11,0,.23,0,.33l.07,78.69c.03,2.25,1.84,4.02,4.05,3.96,2.11-.06,3.83-1.78,3.95-3.9Z"/>
    </g>
  </g>
</svg>